<svg width="68" height="68" viewBox="0 0 68 68" fill="none" xmlns="http://www.w3.org/2000/svg">
<g id="1920/icon" clip-path="url(#clip0_2_337)">
<path id="Vector" d="M46.5263 0H21.4737C9.6141 0 0 9.6141 0 21.4737V46.5263C0 58.3859 9.6141 68 21.4737 68H46.5263C58.3859 68 68 58.3859 68 46.5263V21.4737C68 9.6141 58.3859 0 46.5263 0Z" fill="#F8F8F8"/>
<g id="Group 1">
<path id="Vector_2" d="M34.7776 13.6012C29.1296 13.6012 24.5511 18.1798 24.5511 23.8277C24.5511 29.4757 29.1296 34.0546 34.7776 34.0546C40.4256 34.0546 45.0041 29.4757 45.0041 23.8277C45.0041 18.1798 40.4256 13.6012 34.7776 13.6012ZM34.7776 28.0554C32.4429 28.0554 30.5502 26.1625 30.5502 23.8278C30.5502 21.4931 32.4429 19.6004 34.7776 19.6004C37.1123 19.6004 39.005 21.4931 39.005 23.8278C39.005 26.1625 37.1123 28.0554 34.7776 28.0554Z" fill="#8E8E8E"/>
<g id="Group">
<path id="Vector_3" d="M38.3908 42.1915C42.4848 41.3575 44.9382 39.4187 45.068 39.3146C46.266 38.3538 46.4585 36.6038 45.4977 35.4057C44.5371 34.2077 42.7872 34.0152 41.5889 34.9758C41.5636 34.9963 38.9469 37.0036 34.6415 37.0066C30.3362 37.0036 27.6642 34.9963 27.6389 34.9758C26.4406 34.0152 24.6907 34.2077 23.7301 35.4057C22.7693 36.6038 22.9618 38.3538 24.1598 39.3146C24.2914 39.4201 26.846 41.4094 31.0548 42.2238L25.189 48.3541C24.1231 49.4596 24.1551 51.2198 25.2606 52.2858C25.8002 52.8061 26.4956 53.0647 27.1905 53.0647C27.919 53.0647 28.6468 52.78 29.1924 52.2141L34.6416 46.4092L40.6413 52.2517C41.7284 53.337 43.4886 53.3353 44.5737 52.2487C45.6587 51.1619 45.6574 49.4013 44.5706 48.3163L38.3908 42.1915Z" fill="#8E8E8E"/>
<path id="Vector_4" d="M34.6437 37.0076C34.6352 37.0076 34.6521 37.0078 34.6437 37.0079C34.6353 37.0078 34.6523 37.0076 34.6437 37.0076Z" fill="#8E8E8E"/>
</g>
</g>
</g>
<defs>
<clipPath id="clip0_2_337">
<rect width="68" height="68" fill="white"/>
</clipPath>
</defs>
</svg>
