<svg width="68" height="68" viewBox="0 0 68 68" fill="none" xmlns="http://www.w3.org/2000/svg">
<g id="1920/icon" clip-path="url(#clip0_2_334)">
<path id="Vector" d="M46.5263 0H21.4737C9.61407 0 -3.05176e-05 9.6141 -3.05176e-05 21.4737V46.5263C-3.05176e-05 58.3859 9.61407 68 21.4737 68H46.5263C58.3859 68 68 58.3859 68 46.5263V21.4737C68 9.6141 58.3859 0 46.5263 0Z" fill="#F8F8F8"/>
<path id="Path 3" fill-rule="evenodd" clip-rule="evenodd" d="M17.3373 33.4843C26.4641 29.3917 32.5501 26.6937 35.5952 25.3901C44.2896 21.6681 46.0963 21.0216 47.2738 21.0002C47.5328 20.9955 48.1119 21.0616 48.487 21.3749C48.8037 21.6394 48.8908 21.9967 48.9325 22.2475C48.9742 22.4983 49.0262 23.0696 48.9849 23.516C48.5137 28.6111 46.4751 40.9755 45.4379 46.6821C44.999 49.0968 44.1349 49.9064 43.2983 49.9856C41.4802 50.1578 40.0996 48.749 38.3387 47.561C35.5833 45.702 34.0266 44.5447 31.3519 42.7307C28.2609 40.6342 30.2647 39.482 32.0263 37.5989C32.4873 37.106 40.4978 29.607 40.6529 28.9267C40.6722 28.8416 40.6902 28.5245 40.5072 28.357C40.3241 28.1895 40.0539 28.2468 39.859 28.2924C39.5826 28.3569 35.1807 31.3514 26.6533 37.2758C25.4038 38.1589 24.2721 38.5891 23.2581 38.5666C22.1402 38.5417 19.99 37.9161 18.3915 37.3813C16.4308 36.7253 14.8725 36.3785 15.0082 35.2645C15.0789 34.6843 15.8553 34.0909 17.3373 33.4843Z" fill="#8E8E8E"/>
</g>
<defs>
<clipPath id="clip0_2_334">
<rect width="68" height="68" fill="white"/>
</clipPath>
</defs>
</svg>
