<svg width="68" height="68" viewBox="0 0 68 68" fill="none" xmlns="http://www.w3.org/2000/svg">
<g id="1920/icon" clip-path="url(#clip0_2_336)">
<path id="Vector" d="M46.5263 0H21.4737C9.61407 0 -3.05176e-05 9.6141 -3.05176e-05 21.4737V46.5263C-3.05176e-05 58.3859 9.61407 68 21.4737 68H46.5263C58.3859 68 68 58.3859 68 46.5263V21.4737C68 9.6141 58.3859 0 46.5263 0Z" fill="#F8F8F8"/>
<path id="Vector_2" d="M49.9157 42.656C49.8794 42.5723 49.8388 42.4905 49.7941 42.4109C49.1731 41.2352 47.9867 39.7929 46.2348 38.0804L46.199 38.041L46.1811 38.0231L46.1614 38.0016H46.1435C45.3472 37.2053 44.8444 36.6702 44.6332 36.3947C44.2467 35.8721 44.1608 35.3443 44.3719 34.8074C44.5205 34.403 45.0806 33.5476 46.0487 32.2413C46.5587 31.5488 46.9613 30.994 47.2602 30.5771C49.4075 27.5708 50.3416 25.6507 50.0553 24.815L49.9444 24.6181C49.8692 24.5018 49.6759 24.3945 49.3664 24.296C49.055 24.1976 48.6577 24.1815 48.1746 24.2459L42.8062 24.2853C42.6836 24.2533 42.5545 24.257 42.4339 24.296L42.1924 24.3551L42.0993 24.4034L42.0242 24.4625C41.9448 24.5188 41.8758 24.5884 41.8202 24.6683C41.7421 24.7727 41.6794 24.8878 41.6341 25.01C41.0792 26.5269 40.4129 28.0007 39.6406 29.4193C39.2383 30.1342 38.8152 30.8372 38.3718 31.5273C38.0851 31.99 37.7613 32.4286 37.4037 32.839C37.1839 33.081 36.9471 33.3071 36.6951 33.5154C36.4839 33.6854 36.3229 33.757 36.2119 33.7301C36.1055 33.7058 35.9993 33.6802 35.8934 33.6532C35.7156 33.5305 35.5716 33.3649 35.4747 33.1718C35.3582 32.932 35.2854 32.6732 35.2599 32.4077C35.2266 32.1446 35.2051 31.8801 35.1955 31.615C35.1902 31.3931 35.1919 31.0781 35.2045 30.6737C35.217 30.2693 35.2224 29.9937 35.2224 29.8506C35.2224 29.3549 35.2331 28.8145 35.251 28.2347L35.2975 26.8532C35.3101 26.5132 35.3154 26.1535 35.3154 25.7741C35.3219 25.4757 35.3004 25.1774 35.251 24.883C35.2079 24.668 35.1425 24.4581 35.0559 24.2567C34.9783 24.0655 34.8457 23.9017 34.6748 23.786C34.4819 23.6641 34.2703 23.5747 34.0485 23.5212C33.3917 23.3637 32.5525 23.2796 31.5343 23.2671C29.2241 23.2403 27.7388 23.3977 27.0803 23.7359C26.819 23.8791 26.5828 24.0759 26.3716 24.3247C26.1497 24.611 26.1175 24.7685 26.2786 24.7953C27.0248 24.9116 27.5527 25.1926 27.8623 25.6364L27.975 25.8726C28.0627 26.0426 28.1486 26.3432 28.2363 26.7745C28.3222 27.2039 28.3794 27.6817 28.4027 28.2043C28.4653 29.158 28.4653 29.9758 28.4027 30.654C28.3418 31.334 28.2828 31.8619 28.2273 32.2413C28.1694 32.7211 28.0069 33.1823 27.7513 33.5924C27.7275 33.6313 27.6958 33.6648 27.6583 33.6908C27.4986 33.7557 27.3278 33.7892 27.1554 33.7892C26.9801 33.7892 26.7689 33.6979 26.5219 33.5154C26.2353 33.2951 25.9758 33.0416 25.7489 32.7602C25.4117 32.3378 25.1089 31.889 24.8434 31.4181C24.5088 30.8437 24.1616 30.1655 23.8002 29.3799L23.5031 28.8109C23.2389 28.2834 22.9842 27.7512 22.739 27.2147C22.4169 26.5168 22.1306 25.8386 21.8801 25.1854C21.7988 24.9361 21.6433 24.7176 21.4345 24.5591L21.3414 24.5C21.2498 24.4313 21.1493 24.3753 21.0426 24.3336C20.9049 24.2745 20.7608 24.2319 20.6131 24.2066L15.5095 24.2459C14.987 24.2459 14.6327 24.3712 14.4466 24.6181L14.3714 24.7363C14.3278 24.8346 14.3087 24.9421 14.3159 25.0494C14.3159 25.1926 14.3517 25.3697 14.4287 25.5773C15.1596 27.3899 15.9704 29.1691 16.8588 30.9099C17.7356 32.6189 18.4962 33.9986 19.1422 35.0436C19.7864 36.0887 20.4467 37.0747 21.1177 38.0016C21.7888 38.9286 22.2326 39.5227 22.4491 39.7857C22.6674 40.047 22.8374 40.242 22.9627 40.3727L23.4279 40.8433C23.7268 41.1565 24.1634 41.5323 24.7414 41.9707C25.3194 42.4073 25.9583 42.8386 26.6615 43.2645C27.363 43.6886 28.179 44.0339 29.1131 44.3024C30.0436 44.5708 30.9509 44.6781 31.8331 44.6245H33.9751C34.4099 44.5869 34.7392 44.4419 34.9629 44.195L35.0363 44.0966C35.1003 43.983 35.1474 43.8606 35.1758 43.7333C35.2206 43.5723 35.2421 43.3897 35.2421 43.1965C35.2247 42.6866 35.2649 42.1763 35.3619 41.6754C35.455 41.2263 35.5606 40.8862 35.6805 40.6572C35.8507 40.3192 36.0955 40.0243 36.3963 39.7947C36.4448 39.7686 36.495 39.7459 36.5466 39.7267C36.8436 39.6229 37.1944 39.7231 37.5988 40.0309C38.0032 40.3387 38.3826 40.7162 38.7369 41.1672C39.0894 41.6181 39.5153 42.1246 40.0128 42.6865C40.5085 43.2484 40.9433 43.6653 41.3173 43.9391L41.6895 44.1753C41.9383 44.3328 42.2622 44.4759 42.6576 44.6066C43.0549 44.7372 43.4038 44.7694 43.7027 44.705L48.4716 44.6263C48.944 44.6263 49.3109 44.5439 49.5704 44.3811C49.8316 44.2183 49.9873 44.0375 50.0356 43.8425C50.0862 43.6232 50.0898 43.3958 50.0464 43.175C50.0211 42.9979 49.9773 42.824 49.9157 42.656Z" fill="#8E8E8E"/>
</g>
<defs>
<clipPath id="clip0_2_336">
<rect width="68" height="68" fill="white"/>
</clipPath>
</defs>
</svg>
