<svg width="653" height="201" viewBox="0 0 653 201" fill="none" xmlns="http://www.w3.org/2000/svg">
<path id="Ellipse 64" d="M758.525 52.3586C772.949 74.9064 776.451 103.024 770.313 134.661C764.174 166.305 748.399 201.409 724.357 237.819C676.275 310.636 595.233 388.513 492.61 454.143C389.987 519.773 285.294 560.678 199.017 573.787C155.877 580.342 117.389 579.941 86.0834 572.244C54.7847 564.549 30.7234 549.579 16.2996 527.031C1.87573 504.483 -1.62632 476.365 4.51148 444.728C10.6506 413.084 26.4258 377.98 50.4678 341.57C98.5502 268.754 179.592 190.876 282.215 125.246C384.838 59.6162 489.53 18.7116 575.808 5.60202C618.948 -0.953003 657.436 -0.551575 688.741 7.14551C720.04 14.8409 744.101 29.8108 758.525 52.3586Z" stroke="white" stroke-width="2"/>
</svg>
