<svg width="428" height="124" viewBox="0 0 428 124" fill="none" xmlns="http://www.w3.org/2000/svg">
<g id="&#208;&#156;&#208;&#176;&#208;&#179;&#208;&#176;&#208;&#183;&#208;&#184;&#208;&#189;&#209;&#139; &#209;&#129; &#209;&#136;&#208;&#184;&#209;&#128;&#208;&#190;&#208;&#186;&#208;&#184;&#208;&#188; &#208;&#176;&#209;&#129;&#209;&#129;&#208;&#190;&#209;&#128;&#209;&#130;&#208;&#184;&#208;&#188;&#208;&#181;&#208;&#189;&#209;&#130;&#208;&#190;&#208;&#188;, &#209;&#130;&#208;&#181;&#208;&#191;&#208;&#187;&#208;&#190;&#208;&#185; &#208;&#176;&#209;&#130;&#208;&#188;&#208;&#190;&#209;&#129;&#209;&#132;&#208;&#181;&#209;&#128;&#208;&#190;&#208;&#185; &#208;&#184; &#209;&#128;&#208;&#176;&#208;&#183;&#208;&#189;&#208;&#190;&#208;&#190;&#208;&#177;&#209;&#128;&#208;&#176;&#208;&#183;&#208;&#184;&#208;&#181;&#208;&#188; &#208;&#179;&#208;&#176;&#209;&#129;&#209;&#130;&#209;&#128;&#208;&#190;&#208;&#189;&#208;&#190;&#208;&#188;&#208;&#184;&#209;&#135;&#208;&#181;&#209;&#129;&#208;&#186;&#208;&#190;&#208;&#179;&#208;&#190; &#208;&#190;&#208;&#191;&#209;&#139;&#209;&#130;&#208;&#176;.">
<path d="M1.26854 20.7879H4.22553V3.61013L11.0857 20.7879H13.5696L20.4298 3.61013V20.7879H23.5347V0.0917969H19.0401L12.5642 16.3235L6.08844 0.0917969H1.26854V20.7879Z" fill="white"/>
<path d="M36.6836 11.5338V11.7703C29.9121 11.7703 26.8072 13.5738 26.8072 16.9443C26.8072 19.6053 28.5519 21.0836 31.3314 21.0836C34.3771 21.0836 35.9443 19.3983 36.6836 17.24V20.7879H39.6406V11.8294C39.6406 7.71979 37.482 5.70931 33.49 5.70931C29.8234 5.70931 27.5169 7.51283 27.0438 10.9425H30.0008C30.2373 9.40504 31.4201 8.37024 33.49 8.37024C35.5008 8.37024 36.6836 9.40504 36.6836 11.5338ZM29.9121 16.7965C29.9121 15.0226 31.8045 13.899 36.6836 13.899C36.6836 16.4417 35.0572 18.5409 32.0115 18.5409C30.7105 18.5409 29.9121 17.92 29.9121 16.7965Z" fill="white"/>
<path d="M43.2231 20.7879H46.1801V8.66589H53.2178V6.00497H43.2231V20.7879Z" fill="white"/>
<path d="M64.4631 11.5338V11.7703C57.6916 11.7703 54.5868 13.5738 54.5868 16.9443C54.5868 19.6053 56.3314 21.0836 59.111 21.0836C62.1567 21.0836 63.7239 19.3983 64.4631 17.24V20.7879H67.4201V11.8294C67.4201 7.71979 65.2615 5.70931 61.2696 5.70931C57.6029 5.70931 55.2964 7.51283 54.8233 10.9425H57.7803C58.0169 9.40504 59.1997 8.37024 61.2696 8.37024C63.2803 8.37024 64.4631 9.40504 64.4631 11.5338ZM57.6916 16.7965C57.6916 15.0226 59.5841 13.899 64.4631 13.899C64.4631 16.4417 62.8368 18.5409 59.7911 18.5409C58.49 18.5409 57.6916 17.92 57.6916 16.7965Z" fill="white"/>
<path d="M76.6505 21.0836C81.2043 21.0836 83.0968 18.8957 83.0968 16.5008C83.0968 14.8452 81.914 13.5147 80.0215 13.1008C81.707 12.6573 82.6236 11.386 82.6236 9.8781C82.6236 7.63109 80.8199 5.70931 76.6801 5.70931C72.9247 5.70931 70.5591 7.66066 70.2634 10.7059H73.3387C73.6048 9.49374 74.4032 8.37024 76.621 8.37024C78.6021 8.37024 79.5188 9.25721 79.5188 10.3511C79.5188 11.4155 78.8387 12.1251 76.7392 12.1251H74.6989V14.6382H77.1828C79.2231 14.6382 79.9919 15.4069 79.9919 16.4121C79.9919 17.4765 79.3118 18.4226 76.6505 18.4226C74.4032 18.4226 73.3978 17.4765 73.043 15.9391H69.9677C70.2634 18.9844 72.3333 21.0836 76.6505 21.0836Z" fill="white"/>
<path d="M86.0764 20.7879H89.0334L96.278 10.2625V20.7879H99.235V6.00497H96.278L89.0334 16.5304V6.00497H86.0764V20.7879Z" fill="white"/>
<path d="M102.969 20.7879H105.926V14.5791H112.875V20.7879H115.832V6.00497H112.875V11.9181H105.926V6.00497H102.969V20.7879Z" fill="white"/>
<path d="M119.545 20.7879H126.02C130.012 20.7879 131.787 18.2157 131.787 15.673C131.787 13.1008 130.012 10.6468 126.02 10.6468H122.502V6.00497H119.545V20.7879ZM133.768 20.7879H136.725V6.00497H133.768V20.7879ZM125.932 13.2486C127.883 13.2486 128.682 14.4312 128.682 15.673C128.682 17.0626 127.883 18.1565 126.08 18.1565H122.502V13.2486H125.932Z" fill="white"/>
<path d="M154.182 18.4226C151.52 18.4226 149.657 16.4417 149.657 13.3964C149.657 10.3807 151.461 8.37024 154.182 8.37024C156.37 8.37024 157.641 9.43461 158.203 11.3268H161.16C160.598 7.86762 158.085 5.70931 154.182 5.70931C149.657 5.70931 146.553 9.13895 146.553 13.3964C146.553 17.6835 149.657 21.0836 154.241 21.0836C157.996 21.0836 160.569 19.0731 161.278 15.3182H158.321C157.789 17.3878 156.37 18.4226 154.182 18.4226Z" fill="white"/>
<path d="M171.119 20.7879H191.226V6.00497H188.269V18.0678H182.651V6.00497H179.694V18.0678H174.076V6.00497H171.119V20.7879Z" fill="white"/>
<path d="M194.942 20.7879H197.899L205.144 10.2625V20.7879H208.101V6.00497H205.144L197.899 16.5304V6.00497H194.942V20.7879Z" fill="white"/>
<path d="M214.792 6.00497H211.835V26.7011H214.792V17.4765C215.857 19.6644 217.867 21.0836 220.558 21.0836C224.668 21.0836 227.359 17.6835 227.359 13.3964C227.359 9.10938 224.609 5.70931 220.558 5.70931C217.867 5.70931 215.857 7.12847 214.792 9.31634V6.00497ZM219.523 8.37024C222.303 8.37024 224.254 10.3216 224.254 13.3964C224.254 16.4713 222.303 18.4226 219.523 18.4226C216.862 18.4226 214.792 16.3826 214.792 13.3964C214.792 10.4398 216.862 8.37024 219.523 8.37024Z" fill="white"/>
<path d="M237.15 21.0836C241.733 21.0836 244.986 17.6835 244.986 13.3964C244.986 9.10938 241.733 5.70931 237.15 5.70931C232.566 5.70931 229.314 9.10938 229.314 13.3964C229.314 17.6835 232.566 21.0836 237.15 21.0836ZM237.15 18.4226C234.341 18.4226 232.418 16.2052 232.418 13.3964C232.418 10.5877 234.341 8.37024 237.15 8.37024C239.959 8.37024 241.881 10.5877 241.881 13.3964C241.881 16.2052 239.959 18.4226 237.15 18.4226Z" fill="white"/>
<path d="M247.816 20.7879H250.773V13.8399L257.367 20.7879H261.359L253.937 13.0416L260.797 6.00497H257.248L250.773 12.6573V6.00497H247.816V20.7879Z" fill="white"/>
<path d="M263.005 20.7879H265.962L273.206 10.2625V20.7879H276.163V6.00497H273.206L265.962 16.5304V6.00497H263.005V20.7879Z" fill="white"/>
<path d="M279.898 20.7879H282.707V9.49374L287.261 20.7879H289.626L294.18 9.49374V20.7879H297.137V6.00497H292.968L288.591 16.9148L284.185 6.00497H279.898V20.7879Z" fill="white"/>
<path d="M10.4056 43.7874V44.024C3.63414 44.024 0.529297 45.8275 0.529297 49.198C0.529297 51.8589 2.27392 53.3372 5.05349 53.3372C8.09919 53.3372 9.6664 51.652 10.4056 49.4936V53.0415H13.3626V44.0831C13.3626 39.9734 11.204 37.963 7.21209 37.963C3.54543 37.963 1.23897 39.7665 0.765856 43.1961H3.72285C3.9594 41.6587 5.1422 40.6239 7.21209 40.6239C9.22285 40.6239 10.4056 41.6587 10.4056 43.7874ZM3.63414 49.0502C3.63414 47.2762 5.52661 46.1527 10.4056 46.1527C10.4056 48.6954 8.7793 50.7945 5.7336 50.7945C4.43252 50.7945 3.63414 50.1737 3.63414 49.0502Z" fill="white"/>
<path d="M23.6871 50.6763C21.0259 50.6763 19.163 48.6954 19.163 45.6501C19.163 42.6344 20.9667 40.6239 23.6871 40.6239C25.8753 40.6239 27.1468 41.6883 27.7087 43.5805H30.6656C30.1038 40.1213 27.5904 37.963 23.6871 37.963C19.163 37.963 16.0581 41.3926 16.0581 45.6501C16.0581 49.9371 19.163 53.3372 23.7463 53.3372C27.5017 53.3372 30.0742 51.3267 30.7839 47.5719H27.8269C27.2947 49.6415 25.8753 50.6763 23.6871 50.6763Z" fill="white"/>
<path d="M40.2336 50.6763C37.5723 50.6763 35.7094 48.6954 35.7094 45.6501C35.7094 42.6344 37.5132 40.6239 40.2336 40.6239C42.4218 40.6239 43.6933 41.6883 44.2551 43.5805H47.2121C46.6503 40.1213 44.1368 37.963 40.2336 37.963C35.7094 37.963 32.6045 41.3926 32.6045 45.6501C32.6045 49.9371 35.7094 53.3372 40.2927 53.3372C44.0481 53.3372 46.6207 51.3267 47.3304 47.5719H44.3734C43.8411 49.6415 42.4218 50.6763 40.2336 50.6763Z" fill="white"/>
<path d="M56.987 53.3372C61.5703 53.3372 64.823 49.9371 64.823 45.6501C64.823 41.363 61.5703 37.963 56.987 37.963C52.4037 37.963 49.151 41.363 49.151 45.6501C49.151 49.9371 52.4037 53.3372 56.987 53.3372ZM56.987 50.6763C54.1779 50.6763 52.2558 48.4588 52.2558 45.6501C52.2558 42.8413 54.1779 40.6239 56.987 40.6239C59.7961 40.6239 61.7182 42.8413 61.7182 45.6501C61.7182 48.4588 59.7961 50.6763 56.987 50.6763Z" fill="white"/>
<path d="M70.6099 38.2586H67.653V58.9547H70.6099V49.7302C71.6745 51.918 73.6852 53.3372 76.3761 53.3372C80.4863 53.3372 83.1772 49.9371 83.1772 45.6501C83.1772 41.363 80.4272 37.963 76.3761 37.963C73.6852 37.963 71.6745 39.3821 70.6099 41.57V38.2586ZM75.3411 40.6239C78.1207 40.6239 80.0723 42.5752 80.0723 45.6501C80.0723 48.7249 78.1207 50.6763 75.3411 50.6763C72.6798 50.6763 70.6099 48.6362 70.6099 45.6501C70.6099 42.6935 72.6798 40.6239 75.3411 40.6239Z" fill="white"/>
<path d="M89.4035 53.0415H92.3605V40.9196H97.5056V38.2586H84.2583V40.9196H89.4035V53.0415Z" fill="white"/>
<path d="M100.053 53.0415H103.01L110.254 42.5161V53.0415H113.211V38.2586H110.254L103.01 48.7841V38.2586H100.053V53.0415Z" fill="white"/>
<path d="M116.946 53.0415H119.755V41.7474L124.309 53.0415H126.674L131.228 41.7474V53.0415H134.185V38.2586H130.016L125.639 49.1684L121.233 38.2586H116.946V53.0415Z" fill="white"/>
<path d="M144.711 50.765C141.991 50.765 140.276 48.8728 140.069 46.1823H152.311C152.37 45.8866 152.4 45.5614 152.4 45.2657C152.4 41.2152 149.265 37.963 144.711 37.963C140.158 37.963 137.023 41.3335 137.023 45.6501C137.023 50.1145 140.158 53.3372 144.711 53.3372C148.526 53.3372 150.98 51.5928 151.838 48.4588H148.999C148.408 49.8189 147.107 50.765 144.711 50.765ZM144.711 40.5352C147.107 40.5352 148.703 42.0135 149.236 44.1127H140.217C140.779 41.9544 142.464 40.5352 144.711 40.5352Z" fill="white"/>
<path d="M155.236 53.0415H158.193V46.8327H165.142V53.0415H168.099V38.2586H165.142V44.1718H158.193V38.2586H155.236V53.0415Z" fill="white"/>
<path d="M175.774 53.0415H178.731V40.9196H183.876V38.2586H170.629V40.9196H175.774V53.0415Z" fill="white"/>
<path d="M192.795 53.3372C197.378 53.3372 200.631 49.9371 200.631 45.6501C200.631 41.363 197.378 37.963 192.795 37.963C188.212 37.963 184.959 41.363 184.959 45.6501C184.959 49.9371 188.212 53.3372 192.795 53.3372ZM192.795 50.6763C189.986 50.6763 188.064 48.4588 188.064 45.6501C188.064 42.8413 189.986 40.6239 192.795 40.6239C195.604 40.6239 197.526 42.8413 197.526 45.6501C197.526 48.4588 195.604 50.6763 192.795 50.6763Z" fill="white"/>
<path d="M203.461 53.0415H206.27V41.7474L210.824 53.0415H213.189L217.743 41.7474V53.0415H220.7V38.2586H216.531L212.154 49.1684L207.748 38.2586H203.461V53.0415Z" fill="white"/>
<path d="M224.78 55.7025H226.377L227.648 52.9233C228.092 51.9476 228.21 51.445 228.21 51.0902C228.21 49.878 227.235 48.991 226.022 48.991C224.78 48.991 223.834 49.878 223.834 51.0902C223.834 51.8589 224.159 52.5981 225.283 53.1007L224.78 55.7025Z" fill="white"/>
<path d="M242.306 53.0415H245.263V40.9196H250.409V38.2586H237.161V40.9196H242.306V53.0415Z" fill="white"/>
<path d="M259.179 50.765C256.459 50.765 254.744 48.8728 254.537 46.1823H266.779C266.838 45.8866 266.867 45.5614 266.867 45.2657C266.867 41.2152 263.733 37.963 259.179 37.963C254.625 37.963 251.491 41.3335 251.491 45.6501C251.491 50.1145 254.625 53.3372 259.179 53.3372C262.994 53.3372 265.448 51.5928 266.306 48.4588H263.467C262.875 49.8189 261.574 50.765 259.179 50.765ZM259.179 40.5352C261.574 40.5352 263.171 42.0135 263.703 44.1127H254.685C255.246 41.9544 256.932 40.5352 259.179 40.5352Z" fill="white"/>
<path d="M269.704 53.0415H272.661V40.9196H279.315V53.0415H282.272V38.2586H269.704V53.0415Z" fill="white"/>
<path d="M287.469 45.6501C287.41 49.3163 286.996 50.3806 284.808 50.3806V53.3372C288.859 53.3372 290.101 51.3267 290.249 45.7092L290.367 40.9196H295.749V53.0415H298.706V38.2586H287.617L287.469 45.6501Z" fill="white"/>
<path d="M309.371 53.3372C313.954 53.3372 317.207 49.9371 317.207 45.6501C317.207 41.363 313.954 37.963 309.371 37.963C304.787 37.963 301.535 41.363 301.535 45.6501C301.535 49.9371 304.787 53.3372 309.371 53.3372ZM309.371 50.6763C306.562 50.6763 304.639 48.4588 304.639 45.6501C304.639 42.8413 306.562 40.6239 309.371 40.6239C312.18 40.6239 314.102 42.8413 314.102 45.6501C314.102 48.4588 312.18 50.6763 309.371 50.6763Z" fill="white"/>
<path d="M322.107 32.3455C322.107 34.829 323.733 36.4847 326.631 36.4847C329.529 36.4847 331.155 34.829 331.155 32.3455H328.523C328.523 33.735 327.814 34.3855 326.631 34.3855C325.448 34.3855 324.738 33.735 324.738 32.3455H322.107ZM320.037 53.0415H322.994L330.238 42.5161V53.0415H333.195V38.2586H330.238L322.994 48.7841V38.2586H320.037V53.0415Z" fill="white"/>
<path d="M10.4056 76.0411V76.2776C3.63414 76.2776 0.529297 78.0811 0.529297 81.4516C0.529297 84.1126 2.27392 85.5909 5.05349 85.5909C8.09919 85.5909 9.6664 83.9056 10.4056 81.7473V85.2952H13.3626V76.3368C13.3626 72.2271 11.204 70.2166 7.21209 70.2166C3.54543 70.2166 1.23897 72.0201 0.765856 75.4498H3.72285C3.9594 73.9124 5.1422 72.8775 7.21209 72.8775C9.22285 72.8775 10.4056 73.9124 10.4056 76.0411ZM3.63414 81.3038C3.63414 79.5299 5.52661 78.4064 10.4056 78.4064C10.4056 80.949 8.7793 83.0482 5.7336 83.0482C4.43252 83.0482 3.63414 82.4273 3.63414 81.3038Z" fill="white"/>
<path d="M20.6188 85.2952H23.5758V73.1732H28.721V70.5123H15.4736V73.1732H20.6188V85.2952Z" fill="white"/>
<path d="M31.2681 85.2952H34.0773V74.0011L38.631 85.2952H40.9966L45.5504 74.0011V85.2952H48.5074V70.5123H44.338L39.9617 81.4221L35.5558 70.5123H31.2681V85.2952Z" fill="white"/>
<path d="M59.1816 85.5909C63.765 85.5909 67.0177 82.1908 67.0177 77.9037C67.0177 73.6167 63.765 70.2166 59.1816 70.2166C54.5983 70.2166 51.3456 73.6167 51.3456 77.9037C51.3456 82.1908 54.5983 85.5909 59.1816 85.5909ZM59.1816 82.9299C56.3725 82.9299 54.4505 80.7125 54.4505 77.9037C54.4505 75.095 56.3725 72.8775 59.1816 72.8775C61.9908 72.8775 63.9128 75.095 63.9128 77.9037C63.9128 80.7125 61.9908 82.9299 59.1816 82.9299Z" fill="white"/>
<path d="M76.5895 82.9299C73.9282 82.9299 72.0653 80.949 72.0653 77.9037C72.0653 74.888 73.8691 72.8775 76.5895 72.8775C78.7777 72.8775 80.0492 73.9419 80.611 75.8341H83.568C83.0062 72.3749 80.4928 70.2166 76.5895 70.2166C72.0653 70.2166 68.9605 73.6463 68.9605 77.9037C68.9605 82.1908 72.0653 85.5909 76.6487 85.5909C80.4041 85.5909 82.9766 83.5804 83.6863 79.8255H80.7293C80.1971 81.8951 78.7777 82.9299 76.5895 82.9299Z" fill="white"/>
<path d="M93.6387 91.2084H96.5956V85.5909C100.972 85.3839 104.727 82.6343 104.727 77.9037C104.727 73.1732 100.972 70.394 96.5956 70.2166V64.5991H93.6387V70.2166C89.2623 70.394 85.5069 73.1732 85.5069 77.9037C85.5069 82.6343 89.2623 85.3839 93.6387 85.5909V91.2084ZM88.6118 77.9037C88.6118 74.5924 91.0365 72.9071 93.6387 72.7889V83.0186C91.0365 82.9004 88.6118 81.2151 88.6118 77.9037ZM96.5956 72.7889C99.1682 72.9071 101.623 74.5924 101.623 77.9037C101.623 81.2151 99.1682 82.9004 96.5956 83.0186V72.7889Z" fill="white"/>
<path d="M114.362 83.0186C111.641 83.0186 109.926 81.1264 109.719 78.4359H121.961C122.02 78.1403 122.05 77.815 122.05 77.5194C122.05 73.4689 118.916 70.2166 114.362 70.2166C109.808 70.2166 106.674 73.5871 106.674 77.9037C106.674 82.3682 109.808 85.5909 114.362 85.5909C118.176 85.5909 120.631 83.8465 121.488 80.7125H118.649C118.058 82.0725 116.757 83.0186 114.362 83.0186ZM114.362 72.7889C116.757 72.7889 118.354 74.2671 118.886 76.3663H109.867C110.429 74.208 112.115 72.7889 114.362 72.7889Z" fill="white"/>
<path d="M127.844 70.5123H124.887V91.2084H127.844V81.9838C128.908 84.1717 130.919 85.5909 133.61 85.5909C137.72 85.5909 140.411 82.1908 140.411 77.9037C140.411 73.6167 137.661 70.2166 133.61 70.2166C130.919 70.2166 128.908 71.6358 127.844 73.8237V70.5123ZM132.575 72.8775C135.355 72.8775 137.306 74.8289 137.306 77.9037C137.306 80.9786 135.355 82.9299 132.575 82.9299C129.914 82.9299 127.844 80.8899 127.844 77.9037C127.844 74.9472 129.914 72.8775 132.575 72.8775Z" fill="white"/>
<path d="M150.201 85.5909C154.785 85.5909 158.038 82.1908 158.038 77.9037C158.038 73.6167 154.785 70.2166 150.201 70.2166C145.618 70.2166 142.365 73.6167 142.365 77.9037C142.365 82.1908 145.618 85.5909 150.201 85.5909ZM150.201 82.9299C147.392 82.9299 145.47 80.7125 145.47 77.9037C145.47 75.095 147.392 72.8775 150.201 72.8775C153.011 72.8775 154.933 75.095 154.933 77.9037C154.933 80.7125 153.011 82.9299 150.201 82.9299Z" fill="white"/>
<path d="M162.937 64.5991C162.937 67.0826 164.564 68.7383 167.462 68.7383C170.359 68.7383 171.986 67.0826 171.986 64.5991H169.354C169.354 65.9887 168.644 66.6392 167.462 66.6392C166.279 66.6392 165.569 65.9887 165.569 64.5991H162.937ZM160.867 85.2952H163.824L171.069 74.7698V85.2952H174.026V70.5123H171.069L163.824 81.0377V70.5123H160.867V85.2952Z" fill="white"/>
<path d="M184.749 85.2952H187.706L194.95 74.7698V85.2952H197.907V70.5123H194.95L187.706 81.0377V70.5123H184.749V85.2952Z" fill="white"/>
<path d="M211.587 70.5123H208.63V91.2084H211.587V81.9838C212.651 84.1717 214.662 85.5909 217.353 85.5909C221.463 85.5909 224.154 82.1908 224.154 77.9037C224.154 73.6167 221.404 70.2166 217.353 70.2166C214.662 70.2166 212.651 71.6358 211.587 73.8237V70.5123ZM216.318 72.8775C219.098 72.8775 221.049 74.8289 221.049 77.9037C221.049 80.9786 219.098 82.9299 216.318 82.9299C213.657 82.9299 211.587 80.8899 211.587 77.9037C211.587 74.9472 213.657 72.8775 216.318 72.8775Z" fill="white"/>
<path d="M236.136 76.0411V76.2776C229.364 76.2776 226.26 78.0811 226.26 81.4516C226.26 84.1126 228.004 85.5909 230.784 85.5909C233.83 85.5909 235.397 83.9056 236.136 81.7473V85.2952H239.093V76.3368C239.093 72.2271 236.934 70.2166 232.942 70.2166C229.276 70.2166 226.969 72.0201 226.496 75.4498H229.453C229.69 73.9124 230.873 72.8775 232.942 72.8775C234.953 72.8775 236.136 73.9124 236.136 76.0411ZM229.364 81.3038C229.364 79.5299 231.257 78.4064 236.136 78.4064C236.136 80.949 234.51 83.0482 231.464 83.0482C230.163 83.0482 229.364 82.4273 229.364 81.3038Z" fill="white"/>
<path d="M248.323 85.5909C252.877 85.5909 254.77 83.403 254.77 81.0082C254.77 79.3525 253.587 78.022 251.694 77.6081C253.38 77.1646 254.297 75.8933 254.297 74.3854C254.297 72.1384 252.493 70.2166 248.353 70.2166C244.598 70.2166 242.232 72.168 241.936 75.2133H245.012C245.278 74.0011 246.076 72.8775 248.294 72.8775C250.275 72.8775 251.192 73.7645 251.192 74.8585C251.192 75.9228 250.512 76.6324 248.412 76.6324H246.372V79.1455H248.856C250.896 79.1455 251.665 79.9142 251.665 80.9195C251.665 81.9838 250.985 82.9299 248.323 82.9299C246.076 82.9299 245.071 81.9838 244.716 80.4464H241.641C241.936 83.4917 244.006 85.5909 248.323 85.5909Z" fill="white"/>
<path d="M257.749 85.2952H260.706V79.0864H267.655V85.2952H270.612V70.5123H267.655V76.4255H260.706V70.5123H257.749V85.2952Z" fill="white"/>
<path d="M281.273 85.5909C285.857 85.5909 289.11 82.1908 289.11 77.9037C289.11 73.6167 285.857 70.2166 281.273 70.2166C276.69 70.2166 273.438 73.6167 273.438 77.9037C273.438 82.1908 276.69 85.5909 281.273 85.5909ZM281.273 82.9299C278.464 82.9299 276.542 80.7125 276.542 77.9037C276.542 75.095 278.464 72.8775 281.273 72.8775C284.083 72.8775 286.005 75.095 286.005 77.9037C286.005 80.7125 284.083 82.9299 281.273 82.9299Z" fill="white"/>
<path d="M298.888 85.5909C303.472 85.5909 306.724 82.1908 306.724 77.9037C306.724 73.6167 303.472 70.2166 298.888 70.2166C294.305 70.2166 291.052 73.6167 291.052 77.9037C291.052 82.1908 294.305 85.5909 298.888 85.5909ZM298.888 82.9299C296.079 82.9299 294.157 80.7125 294.157 77.9037C294.157 75.095 296.079 72.8775 298.888 72.8775C301.698 72.8775 303.62 75.095 303.62 77.9037C303.62 80.7125 301.698 82.9299 298.888 82.9299Z" fill="white"/>
<path d="M316.622 85.5909C321.323 85.5909 324.458 82.3091 324.458 78.1994C324.458 74.1489 321.885 70.8375 317.686 70.8375C314.906 70.8375 312.63 72.4341 311.654 74.7402C311.772 70.3349 313.073 68.4722 318.1 67.8218C321.146 67.4374 323.216 66.8166 323.689 64.0078H320.909C320.702 64.7469 319.638 64.9835 317.627 65.22C311.417 65.9591 308.815 69.034 308.815 76.1889C308.815 78.7316 309.14 80.7421 310.116 82.2499C311.269 84.083 313.605 85.5909 316.622 85.5909ZM316.622 82.9299C313.872 82.9299 311.92 80.9786 311.92 78.1994C311.92 75.4793 313.872 73.4984 316.622 73.4984C319.401 73.4984 321.353 75.4793 321.353 78.1994C321.353 80.9786 319.401 82.9299 316.622 82.9299Z" fill="white"/>
<path d="M330.242 70.5123H327.285V91.2084H330.242V81.9838C331.306 84.1717 333.317 85.5909 336.008 85.5909C340.118 85.5909 342.809 82.1908 342.809 77.9037C342.809 73.6167 340.059 70.2166 336.008 70.2166C333.317 70.2166 331.306 71.6358 330.242 73.8237V70.5123ZM334.973 72.8775C337.752 72.8775 339.704 74.8289 339.704 77.9037C339.704 80.9786 337.752 82.9299 334.973 82.9299C332.312 82.9299 330.242 80.8899 330.242 77.9037C330.242 74.9472 332.312 72.8775 334.973 72.8775Z" fill="white"/>
<path d="M354.791 76.0411V76.2776C348.019 76.2776 344.915 78.0811 344.915 81.4516C344.915 84.1126 346.659 85.5909 349.439 85.5909C352.485 85.5909 354.052 83.9056 354.791 81.7473V85.2952H357.748V76.3368C357.748 72.2271 355.589 70.2166 351.597 70.2166C347.931 70.2166 345.624 72.0201 345.151 75.4498H348.108C348.345 73.9124 349.527 72.8775 351.597 72.8775C353.608 72.8775 354.791 73.9124 354.791 76.0411ZM348.019 81.3038C348.019 79.5299 349.912 78.4064 354.791 78.4064C354.791 80.949 353.165 83.0482 350.119 83.0482C348.818 83.0482 348.019 82.4273 348.019 81.3038Z" fill="white"/>
<path d="M366.978 85.5909C371.532 85.5909 373.425 83.403 373.425 81.0082C373.425 79.3525 372.242 78.022 370.349 77.6081C372.035 77.1646 372.952 75.8933 372.952 74.3854C372.952 72.1384 371.148 70.2166 367.008 70.2166C363.253 70.2166 360.887 72.168 360.591 75.2133H363.667C363.933 74.0011 364.731 72.8775 366.949 72.8775C368.93 72.8775 369.847 73.7645 369.847 74.8585C369.847 75.9228 369.167 76.6324 367.067 76.6324H365.027V79.1455H367.511C369.551 79.1455 370.32 79.9142 370.32 80.9195C370.32 81.9838 369.64 82.9299 366.978 82.9299C364.731 82.9299 363.726 81.9838 363.371 80.4464H360.296C360.591 83.4917 362.661 85.5909 366.978 85.5909Z" fill="white"/>
<path d="M376.404 85.2952H379.361L386.606 74.7698V85.2952H389.563V70.5123H386.606L379.361 81.0377V70.5123H376.404V85.2952Z" fill="white"/>
<path d="M400.098 83.0186C397.378 83.0186 395.663 81.1264 395.456 78.4359H407.698C407.757 78.1403 407.786 77.815 407.786 77.5194C407.786 73.4689 404.652 70.2166 400.098 70.2166C395.545 70.2166 392.41 73.5871 392.41 77.9037C392.41 82.3682 395.545 85.5909 400.098 85.5909C403.913 85.5909 406.367 83.8465 407.225 80.7125H404.386C403.794 82.0725 402.493 83.0186 400.098 83.0186ZM400.098 72.7889C402.493 72.7889 404.09 74.2671 404.622 76.3663H395.604C396.165 74.208 397.851 72.7889 400.098 72.7889Z" fill="white"/>
<path d="M410.623 85.2952H413.432V74.0011L417.986 85.2952H420.352L424.906 74.0011V85.2952H427.863V70.5123H423.693L419.317 81.4221L414.911 70.5123H410.623V85.2952Z" fill="white"/>
<path d="M1.12069 117.549H4.07768V105.427H11.1153V102.766H1.12069V117.549Z" fill="white"/>
<path d="M22.3607 108.295V108.531C15.5892 108.531 12.4843 110.335 12.4843 113.705C12.4843 116.366 14.2289 117.845 17.0085 117.845C20.0542 117.845 21.6214 116.159 22.3607 114.001V117.549H25.3177V108.59C25.3177 104.481 23.159 102.47 19.1671 102.47C15.5004 102.47 13.194 104.274 12.7209 107.703H15.6779C15.9144 106.166 17.0972 105.131 19.1671 105.131C21.1779 105.131 22.3607 106.166 22.3607 108.295ZM15.5892 113.557C15.5892 111.784 17.4816 110.66 22.3607 110.66C22.3607 113.203 20.7343 115.302 17.6886 115.302C16.3875 115.302 15.5892 114.681 15.5892 113.557Z" fill="white"/>
<path d="M35.6422 115.184C32.9809 115.184 31.118 113.203 31.118 110.157C31.118 107.142 32.9217 105.131 35.6422 105.131C37.8303 105.131 39.1018 106.196 39.6637 108.088H42.6207C42.0588 104.629 39.5454 102.47 35.6422 102.47C31.118 102.47 28.0131 105.9 28.0131 110.157C28.0131 114.444 31.118 117.845 35.7013 117.845C39.4567 117.845 42.0293 115.834 42.7389 112.079H39.7819C39.2497 114.149 37.8303 115.184 35.6422 115.184Z" fill="white"/>
<path d="M49.2646 117.549H52.2216V105.427H57.3668V102.766H44.1195V105.427H49.2646V117.549Z" fill="white"/>
<path d="M62.871 102.766H59.914V123.462H62.871V114.237C63.9355 116.425 65.9462 117.845 68.6371 117.845C72.7473 117.845 75.4382 114.444 75.4382 110.157C75.4382 105.87 72.6882 102.47 68.6371 102.47C65.9462 102.47 63.9355 103.889 62.871 106.077V102.766ZM67.6021 105.131C70.3817 105.131 72.3333 107.083 72.3333 110.157C72.3333 113.232 70.3817 115.184 67.6021 115.184C64.9408 115.184 62.871 113.144 62.871 110.157C62.871 107.201 64.9408 105.131 67.6021 105.131Z" fill="white"/>
<path d="M85.2286 117.845C89.8119 117.845 93.0646 114.444 93.0646 110.157C93.0646 105.87 89.8119 102.47 85.2286 102.47C80.6452 102.47 77.3925 105.87 77.3925 110.157C77.3925 114.444 80.6452 117.845 85.2286 117.845ZM85.2286 115.184C82.4194 115.184 80.4974 112.966 80.4974 110.157C80.4974 107.349 82.4194 105.131 85.2286 105.131C88.0377 105.131 89.9598 107.349 89.9598 110.157C89.9598 112.966 88.0377 115.184 85.2286 115.184Z" fill="white"/>
<path d="M95.8945 117.549H98.8515V111.34H105.8V117.549H108.757V102.766H105.8V108.679H98.8515V102.766H95.8945V117.549Z" fill="white"/>
<path d="M119.419 117.845C124.002 117.845 127.255 114.444 127.255 110.157C127.255 105.87 124.002 102.47 119.419 102.47C114.835 102.47 111.583 105.87 111.583 110.157C111.583 114.444 114.835 117.845 119.419 117.845ZM119.419 115.184C116.61 115.184 114.688 112.966 114.688 110.157C114.688 107.349 116.61 105.131 119.419 105.131C122.228 105.131 124.15 107.349 124.15 110.157C124.15 112.966 122.228 115.184 119.419 115.184Z" fill="white"/>
<path d="M130.085 117.549H132.894V106.255L137.448 117.549H139.813L144.367 106.255V117.549H147.324V102.766H143.155L138.778 113.676L134.372 102.766H130.085V117.549Z" fill="white"/>
<path d="M151.049 117.549H154.006L161.251 107.023V117.549H164.208V102.766H161.251L154.006 113.291V102.766H151.049V117.549Z" fill="white"/>
<path d="M167.647 106.609C167.647 111.163 170.397 112.464 173.856 112.464C175.069 112.464 176.192 112.316 177.257 112.05V117.549H180.214V102.766H177.257V109.477C176.311 109.714 175.364 109.803 174.477 109.803C171.964 109.803 170.604 109.004 170.604 106.609V102.766H167.647V106.609Z" fill="white"/>
<path d="M190.741 115.272C188.021 115.272 186.306 113.38 186.099 110.69H198.341C198.4 110.394 198.429 110.069 198.429 109.773C198.429 105.723 195.295 102.47 190.741 102.47C186.187 102.47 183.053 105.841 183.053 110.157C183.053 114.622 186.187 117.845 190.741 117.845C194.556 117.845 197.01 116.1 197.867 112.966H195.029C194.437 114.326 193.136 115.272 190.741 115.272ZM190.741 105.043C193.136 105.043 194.733 106.521 195.265 108.62H186.247C186.808 106.462 188.494 105.043 190.741 105.043Z" fill="white"/>
<path d="M208.008 115.184C205.347 115.184 203.484 113.203 203.484 110.157C203.484 107.142 205.288 105.131 208.008 105.131C210.196 105.131 211.468 106.196 212.03 108.088H214.987C214.425 104.629 211.911 102.47 208.008 102.47C203.484 102.47 200.379 105.9 200.379 110.157C200.379 114.444 203.484 117.845 208.067 117.845C211.823 117.845 214.395 115.834 215.105 112.079H212.148C211.616 114.149 210.196 115.184 208.008 115.184Z" fill="white"/>
<path d="M217.957 117.549H220.914V110.601L227.508 117.549H231.5L224.078 109.803L230.938 102.766H227.39L220.914 109.418V102.766H217.957V117.549Z" fill="white"/>
<path d="M239.662 117.845C244.245 117.845 247.498 114.444 247.498 110.157C247.498 105.87 244.245 102.47 239.662 102.47C235.079 102.47 231.826 105.87 231.826 110.157C231.826 114.444 235.079 117.845 239.662 117.845ZM239.662 115.184C236.853 115.184 234.931 112.966 234.931 110.157C234.931 107.349 236.853 105.131 239.662 105.131C242.471 105.131 244.393 107.349 244.393 110.157C244.393 112.966 242.471 115.184 239.662 115.184Z" fill="white"/>
<path d="M250.328 117.549H253.285V105.427H260.323V102.766H250.328V117.549Z" fill="white"/>
<path d="M269.059 117.845C273.642 117.845 276.895 114.444 276.895 110.157C276.895 105.87 273.642 102.47 269.059 102.47C264.475 102.47 261.223 105.87 261.223 110.157C261.223 114.444 264.475 117.845 269.059 117.845ZM269.059 115.184C266.249 115.184 264.327 112.966 264.327 110.157C264.327 107.349 266.249 105.131 269.059 105.131C271.868 105.131 273.79 107.349 273.79 110.157C273.79 112.966 271.868 115.184 269.059 115.184Z" fill="white"/>
<path d="M293.662 117.845C298.245 117.845 301.498 114.444 301.498 110.157C301.498 105.87 298.245 102.47 293.662 102.47C289.078 102.47 285.826 105.87 285.826 110.157C285.826 114.444 289.078 117.845 293.662 117.845ZM293.662 115.184C290.853 115.184 288.93 112.966 288.93 110.157C288.93 107.349 290.853 105.131 293.662 105.131C296.471 105.131 298.393 107.349 298.393 110.157C298.393 112.966 296.471 115.184 293.662 115.184Z" fill="white"/>
<path d="M304.328 117.549H307.285V105.427H313.938V117.549H316.895V102.766H304.328V117.549Z" fill="white"/>
<path d="M320.614 117.549H327.09C331.082 117.549 332.856 114.977 332.856 112.434C332.856 109.862 331.082 107.408 327.09 107.408H323.571V102.766H320.614V117.549ZM334.837 117.549H337.794V102.766H334.837V117.549ZM327.001 110.01C328.953 110.01 329.751 111.192 329.751 112.434C329.751 113.824 328.953 114.918 327.149 114.918H323.571V110.01H327.001Z" fill="white"/>
<path d="M345.483 117.549H348.44V105.427H353.586V102.766H340.338V105.427H345.483V117.549Z" fill="white"/>
<path d="M364.84 108.295V108.531C358.069 108.531 354.964 110.335 354.964 113.705C354.964 116.366 356.708 117.845 359.488 117.845C362.534 117.845 364.101 116.159 364.84 114.001V117.549H367.797V108.59C367.797 104.481 365.638 102.47 361.647 102.47C357.98 102.47 355.673 104.274 355.2 107.703H358.157C358.394 106.166 359.577 105.131 361.647 105.131C363.657 105.131 364.84 106.166 364.84 108.295ZM358.069 113.557C358.069 111.784 359.961 110.66 364.84 110.66C364.84 113.203 363.214 115.302 360.168 115.302C358.867 115.302 358.069 114.681 358.069 113.557Z" fill="white"/>
<path d="M372.976 117.845C374.189 117.845 375.165 116.869 375.165 115.598C375.165 114.415 374.189 113.498 372.976 113.498C371.734 113.498 370.788 114.415 370.788 115.598C370.788 116.869 371.734 117.845 372.976 117.845Z" fill="white"/>
</g>
</svg>
