<svg width="455" height="124" viewBox="0 0 455 124" fill="none" xmlns="http://www.w3.org/2000/svg">
<g id="&#208;&#152;&#208;&#189;&#208;&#184;&#209;&#134;&#208;&#184;&#208;&#176;&#209;&#130;&#208;&#184;&#208;&#178;&#208;&#189;&#208;&#190;&#209;&#129;&#209;&#130;&#209;&#140;, &#208;&#178;&#208;&#190;&#208;&#178;&#208;&#187;&#208;&#181;&#209;&#135;&#208;&#181;&#208;&#189;&#208;&#189;&#208;&#190;&#209;&#129;&#209;&#130;&#209;&#140; &#208;&#184;&#194;&#160;&#208;&#182;&#208;&#181;&#208;&#187;&#208;&#176;&#208;&#189;&#208;&#184;&#208;&#181; &#209;&#128;&#208;&#176;&#208;&#183;&#208;&#178;&#208;&#184;&#208;&#178;&#208;&#176;&#209;&#130;&#209;&#140; &#208;&#186;&#209;&#131;&#208;&#187;&#209;&#140;&#209;&#130;&#209;&#131;&#209;&#128;&#209;&#131; &#208;&#181;&#208;&#180;&#209;&#139; &#226;&#128;&#148; &#209;&#130;&#208;&#190;, &#209;&#135;&#209;&#130;&#208;&#190; &#208;&#190;&#208;&#177;&#209;&#138;&#208;&#181;&#208;&#180;&#208;&#184;&#208;&#189;&#209;&#143;&#208;&#181;&#209;&#130; &#209;&#129;&#208;&#190;&#209;&#130;&#209;&#128;&#209;&#131;&#208;&#180;&#208;&#189;&#208;&#184;&#208;&#186;&#208;&#190;&#208;&#178; &#208;&#190;&#209;&#132;&#208;&#184;&#209;&#129;&#208;&#176;">
<path d="M1.26883 21.2654H4.37367L15.1667 5.21117V21.2654H18.2715V0.569336H15.1667L4.37367 16.6236V0.569336H1.26883V21.2654Z" fill="white"/>
<path d="M22.1433 21.2654H25.1003V15.0566H32.0492V21.2654H35.0062V6.48251H32.0492V12.3957H25.1003V6.48251H22.1433V21.2654Z" fill="white"/>
<path d="M38.7186 21.2654H41.6756L48.9203 10.74V21.2654H51.8772V6.48251H48.9203L41.6756 17.0079V6.48251H38.7186V21.2654Z" fill="white"/>
<path d="M67.4396 24.5177H70.2487V18.6045H68.1788V6.48251H65.2218V18.6045H58.5686V6.48251H55.6116V21.2654H67.4396V24.5177Z" fill="white"/>
<path d="M72.6489 21.2654H75.6059L82.8505 10.74V21.2654H85.8075V6.48251H82.8505L75.6059 17.0079V6.48251H72.6489V21.2654Z" fill="white"/>
<path d="M98.8268 12.0113V12.2478C92.0553 12.2478 88.9505 14.0514 88.9505 17.4219C88.9505 20.0828 90.6951 21.5611 93.4747 21.5611C96.5204 21.5611 98.0876 19.8758 98.8268 17.7175V21.2654H101.784V12.307C101.784 8.19733 99.6252 6.18685 95.6333 6.18685C91.9666 6.18685 89.6602 7.99037 89.1871 11.42H92.144C92.3806 9.88258 93.5634 8.84777 95.6333 8.84777C97.644 8.84777 98.8268 9.88258 98.8268 12.0113ZM92.0553 17.274C92.0553 15.5001 93.9478 14.3766 98.8268 14.3766C98.8268 16.9193 97.2005 19.0184 94.1548 19.0184C92.8537 19.0184 92.0553 18.3975 92.0553 17.274Z" fill="white"/>
<path d="M109.04 21.2654H111.997V9.14343H117.142V6.48251H103.895V9.14343H109.04V21.2654Z" fill="white"/>
<path d="M119.689 21.2654H122.646L129.891 10.74V21.2654H132.848V6.48251H129.891L122.646 17.0079V6.48251H119.689V21.2654Z" fill="white"/>
<path d="M136.582 21.2654H143.649C147.701 21.2654 149.002 19.1367 149.002 17.1262C149.002 15.1453 147.671 14.0218 145.512 13.667C147.405 13.1644 148.351 11.8635 148.351 10.3261C148.351 7.8721 146.547 6.48251 143.265 6.48251H136.582V21.2654ZM143.117 12.6322H139.48V8.9956H143.117C144.655 8.9956 145.305 9.79388 145.305 10.8287C145.305 11.8339 144.655 12.6322 143.117 12.6322ZM143.324 14.9975C145.246 14.9975 145.897 15.8844 145.897 16.8306C145.897 17.8949 145.246 18.7523 143.472 18.7523H139.48V14.9975H143.324Z" fill="white"/>
<path d="M151.858 21.2654H154.815V15.0566H161.764V21.2654H164.721V6.48251H161.764V12.3957H154.815V6.48251H151.858V21.2654Z" fill="white"/>
<path d="M175.382 21.5611C179.966 21.5611 183.218 18.161 183.218 13.874C183.218 9.58692 179.966 6.18685 175.382 6.18685C170.799 6.18685 167.546 9.58692 167.546 13.874C167.546 18.161 170.799 21.5611 175.382 21.5611ZM175.382 18.9002C172.573 18.9002 170.651 16.6827 170.651 13.874C170.651 11.0652 172.573 8.84777 175.382 8.84777C178.192 8.84777 180.114 11.0652 180.114 13.874C180.114 16.6827 178.192 18.9002 175.382 18.9002Z" fill="white"/>
<path d="M192.79 18.9002C190.129 18.9002 188.266 16.9193 188.266 13.874C188.266 10.8583 190.07 8.84777 192.79 8.84777C194.978 8.84777 196.25 9.91215 196.812 11.8044H199.769C199.207 8.34516 196.693 6.18685 192.79 6.18685C188.266 6.18685 185.161 9.61649 185.161 13.874C185.161 18.161 188.266 21.5611 192.849 21.5611C196.605 21.5611 199.177 19.5506 199.887 15.7958H196.93C196.398 17.8654 194.978 18.9002 192.79 18.9002Z" fill="white"/>
<path d="M206.413 21.2654H209.37V9.14343H214.515V6.48251H201.268V9.14343H206.413V21.2654Z" fill="white"/>
<path d="M217.062 21.2654H223.538C227.53 21.2654 229.304 18.6932 229.304 16.1505C229.304 13.5783 227.53 11.1243 223.538 11.1243H220.019V6.48251H217.062V21.2654ZM223.449 13.7261C225.401 13.7261 226.199 14.9088 226.199 16.1505C226.199 17.5401 225.401 18.6341 223.597 18.6341H220.019V13.7261H223.449Z" fill="white"/>
<path d="M232.202 23.9264H233.799L235.07 21.1472C235.514 20.1715 235.632 19.6689 235.632 19.3141C235.632 18.1019 234.656 17.2149 233.444 17.2149C232.202 17.2149 231.256 18.1019 231.256 19.3141C231.256 20.0828 231.581 20.8219 232.705 21.3246L232.202 23.9264Z" fill="white"/>
<path d="M245.766 21.2654H252.833C256.884 21.2654 258.185 19.1367 258.185 17.1262C258.185 15.1453 256.854 14.0218 254.696 13.667C256.588 13.1644 257.534 11.8635 257.534 10.3261C257.534 7.8721 255.731 6.48251 252.448 6.48251H245.766V21.2654ZM252.301 12.6322H248.664V8.9956H252.301C253.838 8.9956 254.489 9.79388 254.489 10.8287C254.489 11.8339 253.838 12.6322 252.301 12.6322ZM252.508 14.9975C254.43 14.9975 255.08 15.8844 255.08 16.8306C255.08 17.8949 254.43 18.7523 252.655 18.7523H248.664V14.9975H252.508Z" fill="white"/>
<path d="M267.846 21.5611C272.429 21.5611 275.682 18.161 275.682 13.874C275.682 9.58692 272.429 6.18685 267.846 6.18685C263.263 6.18685 260.01 9.58692 260.01 13.874C260.01 18.161 263.263 21.5611 267.846 21.5611ZM267.846 18.9002C265.037 18.9002 263.115 16.6827 263.115 13.874C263.115 11.0652 265.037 8.84777 267.846 8.84777C270.655 8.84777 272.577 11.0652 272.577 13.874C272.577 16.6827 270.655 18.9002 267.846 18.9002Z" fill="white"/>
<path d="M278.512 21.2654H285.579C289.63 21.2654 290.931 19.1367 290.931 17.1262C290.931 15.1453 289.601 14.0218 287.442 13.667C289.335 13.1644 290.281 11.8635 290.281 10.3261C290.281 7.8721 288.477 6.48251 285.195 6.48251H278.512V21.2654ZM285.047 12.6322H281.41V8.9956H285.047C286.585 8.9956 287.235 9.79388 287.235 10.8287C287.235 11.8339 286.585 12.6322 285.047 12.6322ZM285.254 14.9975C287.176 14.9975 287.827 15.8844 287.827 16.8306C287.827 17.8949 287.176 18.7523 285.402 18.7523H281.41V14.9975H285.254Z" fill="white"/>
<path d="M294.978 13.874C294.918 17.5401 294.504 18.6045 292.316 18.6045V21.5611C296.367 21.5611 297.609 19.5506 297.757 13.9331L297.875 9.14343H303.257V21.2654H306.214V6.48251H295.125L294.978 13.874Z" fill="white"/>
<path d="M316.731 18.9889C314.011 18.9889 312.296 17.0966 312.089 14.4062H324.331C324.39 14.1105 324.419 13.7853 324.419 13.4896C324.419 9.43909 321.285 6.18685 316.731 6.18685C312.177 6.18685 309.043 9.55736 309.043 13.874C309.043 18.3384 312.177 21.5611 316.731 21.5611C320.546 21.5611 323 19.8167 323.857 16.6827H321.019C320.427 18.0428 319.126 18.9889 316.731 18.9889ZM316.731 8.75908C319.126 8.75908 320.723 10.2374 321.255 12.3365H312.236C312.798 10.1782 314.484 8.75908 316.731 8.75908Z" fill="white"/>
<path d="M326.96 10.3261C326.96 14.8792 329.71 16.1801 333.17 16.1801C334.382 16.1801 335.506 16.0323 336.571 15.7662V21.2654H339.528V6.48251H336.571V13.194C335.624 13.4305 334.678 13.5192 333.791 13.5192C331.278 13.5192 329.917 12.7209 329.917 10.3261V6.48251H326.96V10.3261Z" fill="white"/>
<path d="M350.055 18.9889C347.335 18.9889 345.619 17.0966 345.412 14.4062H357.654C357.714 14.1105 357.743 13.7853 357.743 13.4896C357.743 9.43909 354.609 6.18685 350.055 6.18685C345.501 6.18685 342.367 9.55736 342.367 13.874C342.367 18.3384 345.501 21.5611 350.055 21.5611C353.869 21.5611 356.324 19.8167 357.181 16.6827H354.343C353.751 18.0428 352.45 18.9889 350.055 18.9889ZM350.055 8.75908C352.45 8.75908 354.047 10.2374 354.579 12.3365H345.56C346.122 10.1782 347.808 8.75908 350.055 8.75908Z" fill="white"/>
<path d="M360.58 21.2654H363.537V15.0566H370.486V21.2654H373.443V6.48251H370.486V12.3957H363.537V6.48251H360.58V21.2654Z" fill="white"/>
<path d="M377.155 21.2654H380.112V15.0566H387.061V21.2654H390.018V6.48251H387.061V12.3957H380.112V6.48251H377.155V21.2654Z" fill="white"/>
<path d="M400.68 21.5611C405.263 21.5611 408.516 18.161 408.516 13.874C408.516 9.58692 405.263 6.18685 400.68 6.18685C396.096 6.18685 392.844 9.58692 392.844 13.874C392.844 18.161 396.096 21.5611 400.68 21.5611ZM400.68 18.9002C397.87 18.9002 395.948 16.6827 395.948 13.874C395.948 11.0652 397.87 8.84777 400.68 8.84777C403.489 8.84777 405.411 11.0652 405.411 13.874C405.411 16.6827 403.489 18.9002 400.68 18.9002Z" fill="white"/>
<path d="M418.087 18.9002C415.426 18.9002 413.563 16.9193 413.563 13.874C413.563 10.8583 415.367 8.84777 418.087 8.84777C420.276 8.84777 421.547 9.91215 422.109 11.8044H425.066C424.504 8.34516 421.991 6.18685 418.087 6.18685C413.563 6.18685 410.458 9.61649 410.458 13.874C410.458 18.161 413.563 21.5611 418.147 21.5611C421.902 21.5611 424.475 19.5506 425.184 15.7958H422.227C421.695 17.8654 420.276 18.9002 418.087 18.9002Z" fill="white"/>
<path d="M431.71 21.2654H434.667V9.14343H439.812V6.48251H426.565V9.14343H431.71V21.2654Z" fill="white"/>
<path d="M442.359 21.2654H448.835C452.827 21.2654 454.601 18.6932 454.601 16.1505C454.601 13.5783 452.827 11.1243 448.835 11.1243H445.316V6.48251H442.359V21.2654ZM448.746 13.7261C450.698 13.7261 451.496 14.9088 451.496 16.1505C451.496 17.5401 450.698 18.6341 448.894 18.6341H445.316V13.7261H448.746Z" fill="white"/>
<path d="M1.12098 53.5191H4.07797L11.3226 42.9936V53.5191H14.2796V38.7362H11.3226L4.07797 49.2616V38.7362H1.12098V53.5191Z" fill="white"/>
<path d="M33.0747 53.5191H36.0317V46.6007L42.3301 53.5191H46.2333L39.1365 45.7728L45.6715 38.7362H42.2118L36.0317 45.3885V38.7362H33.0747V45.3885L26.8946 38.7362H23.2871L29.9699 45.9207L23.021 53.5191H26.7763L33.0747 46.6007V53.5191Z" fill="white"/>
<path d="M54.356 51.2425C51.6356 51.2425 49.9205 49.3503 49.7136 46.6598H61.9555C62.0146 46.3642 62.0442 46.0389 62.0442 45.7433C62.0442 41.6927 58.9098 38.4405 54.356 38.4405C49.8023 38.4405 46.6679 41.811 46.6679 46.1276C46.6679 50.5921 49.8023 53.8148 54.356 53.8148C58.1705 53.8148 60.6248 52.0704 61.4824 48.9364H58.6437C58.0523 50.2964 56.7512 51.2425 54.356 51.2425ZM54.356 41.0127C56.7512 41.0127 58.348 42.491 58.8802 44.5902H49.8614C50.4232 42.4319 52.1087 41.0127 54.356 41.0127Z" fill="white"/>
<path d="M65.9264 46.1276C65.8673 49.7938 65.4533 50.8582 63.2651 50.8582V53.8148C67.3162 53.8148 68.5581 51.8043 68.706 46.1868L68.8243 41.3971H74.206V53.5191H77.163V38.7362H66.0743L65.9264 46.1276Z" fill="white"/>
<path d="M90.1638 44.265V44.5015C83.3923 44.5015 80.2874 46.305 80.2874 49.6755C80.2874 52.3365 82.0321 53.8148 84.8116 53.8148C87.8573 53.8148 89.4245 52.1295 90.1638 49.9712V53.5191H93.1208V44.5606C93.1208 40.451 90.9622 38.4405 86.9702 38.4405C83.3036 38.4405 80.9971 40.244 80.524 43.6737H83.481C83.7175 42.1362 84.9003 41.1014 86.9702 41.1014C88.981 41.1014 90.1638 42.1362 90.1638 44.265ZM83.3923 49.5277C83.3923 47.7537 85.2848 46.6302 90.1638 46.6302C90.1638 49.1729 88.5374 51.2721 85.4917 51.2721C84.1907 51.2721 83.3923 50.6512 83.3923 49.5277Z" fill="white"/>
<path d="M96.7034 53.5191H99.6603V47.3103H106.609V53.5191H109.566V38.7362H106.609V44.6493H99.6603V38.7362H96.7034V53.5191Z" fill="white"/>
<path d="M113.279 53.5191H116.236L123.48 42.9936V53.5191H126.437V38.7362H123.48L116.236 49.2616V38.7362H113.279V53.5191Z" fill="white"/>
<path d="M136.973 51.2425C134.252 51.2425 132.537 49.3503 132.33 46.6598H144.572C144.631 46.3642 144.661 46.0389 144.661 45.7433C144.661 41.6927 141.526 38.4405 136.973 38.4405C132.419 38.4405 129.285 41.811 129.285 46.1276C129.285 50.5921 132.419 53.8148 136.973 53.8148C140.787 53.8148 143.242 52.0704 144.099 48.9364H141.26C140.669 50.2964 139.368 51.2425 136.973 51.2425ZM136.973 41.0127C139.368 41.0127 140.965 42.491 141.497 44.5902H132.478C133.04 42.4319 134.725 41.0127 136.973 41.0127Z" fill="white"/>
<path d="M157.443 38.7362H154.486V59.4323H157.443V50.2077C158.507 52.3956 160.518 53.8148 163.209 53.8148C167.319 53.8148 170.01 50.4147 170.01 46.1276C170.01 41.8406 167.26 38.4405 163.209 38.4405C160.518 38.4405 158.507 39.8597 157.443 42.0475V38.7362ZM162.174 41.1014C164.954 41.1014 166.905 43.0528 166.905 46.1276C166.905 49.2025 164.954 51.1538 162.174 51.1538C159.513 51.1538 157.443 49.1138 157.443 46.1276C157.443 43.171 159.513 41.1014 162.174 41.1014Z" fill="white"/>
<path d="M181.992 44.265V44.5015C175.221 44.5015 172.116 46.305 172.116 49.6755C172.116 52.3365 173.86 53.8148 176.64 53.8148C179.686 53.8148 181.253 52.1295 181.992 49.9712V53.5191H184.949V44.5606C184.949 40.451 182.791 38.4405 178.799 38.4405C175.132 38.4405 172.826 40.244 172.352 43.6737H175.309C175.546 42.1362 176.729 41.1014 178.799 41.1014C180.809 41.1014 181.992 42.1362 181.992 44.265ZM175.221 49.5277C175.221 47.7537 177.113 46.6302 181.992 46.6302C181.992 49.1729 180.366 51.2721 177.32 51.2721C176.019 51.2721 175.221 50.6512 175.221 49.5277Z" fill="white"/>
<path d="M194.18 53.8148C198.733 53.8148 200.626 51.6269 200.626 49.232C200.626 47.5764 199.443 46.2459 197.551 45.832C199.236 45.3885 200.153 44.1171 200.153 42.6093C200.153 40.3623 198.349 38.4405 194.209 38.4405C190.454 38.4405 188.088 40.3919 187.792 43.4371H190.868C191.134 42.2249 191.932 41.1014 194.15 41.1014C196.131 41.1014 197.048 41.9884 197.048 43.0823C197.048 44.1467 196.368 44.8563 194.268 44.8563H192.228V47.3694H194.712C196.752 47.3694 197.521 48.1381 197.521 49.1433C197.521 50.2077 196.841 51.1538 194.18 51.1538C191.932 51.1538 190.927 50.2077 190.572 48.6703H187.497C187.792 51.7156 189.862 53.8148 194.18 53.8148Z" fill="white"/>
<path d="M203.605 53.5191H210.673C214.724 53.5191 216.025 51.3903 216.025 49.3799C216.025 47.399 214.694 46.2755 212.536 45.9207C214.428 45.418 215.374 44.1171 215.374 42.5797C215.374 40.1258 213.571 38.7362 210.288 38.7362H203.605V53.5191ZM210.14 44.8859H206.503V41.2493H210.14C211.678 41.2493 212.329 42.0475 212.329 43.0823C212.329 44.0876 211.678 44.8859 210.14 44.8859ZM210.347 47.2511C212.269 47.2511 212.92 48.1381 212.92 49.0842C212.92 50.1486 212.269 51.006 210.495 51.006H206.503V47.2511H210.347Z" fill="white"/>
<path d="M218.881 53.5191H221.838L229.083 42.9936V53.5191H232.04V38.7362H229.083L221.838 49.2616V38.7362H218.881V53.5191Z" fill="white"/>
<path d="M235.774 53.5191H242.841C246.893 53.5191 248.194 51.3903 248.194 49.3799C248.194 47.399 246.863 46.2755 244.704 45.9207C246.597 45.418 247.543 44.1171 247.543 42.5797C247.543 40.1258 245.739 38.7362 242.457 38.7362H235.774V53.5191ZM242.309 44.8859H238.672V41.2493H242.309C243.847 41.2493 244.497 42.0475 244.497 43.0823C244.497 44.0876 243.847 44.8859 242.309 44.8859ZM242.516 47.2511C244.438 47.2511 245.089 48.1381 245.089 49.0842C245.089 50.1486 244.438 51.006 242.664 51.006H238.672V47.2511H242.516Z" fill="white"/>
<path d="M260.335 44.265V44.5015C253.564 44.5015 250.459 46.305 250.459 49.6755C250.459 52.3365 252.203 53.8148 254.983 53.8148C258.029 53.8148 259.596 52.1295 260.335 49.9712V53.5191H263.292V44.5606C263.292 40.451 261.133 38.4405 257.142 38.4405C253.475 38.4405 251.168 40.244 250.695 43.6737H253.652C253.889 42.1362 255.072 41.1014 257.142 41.1014C259.152 41.1014 260.335 42.1362 260.335 44.265ZM253.564 49.5277C253.564 47.7537 255.456 46.6302 260.335 46.6302C260.335 49.1729 258.709 51.2721 255.663 51.2721C254.362 51.2721 253.564 50.6512 253.564 49.5277Z" fill="white"/>
<path d="M270.548 53.5191H273.505V41.3971H278.65V38.7362H265.403V41.3971H270.548V53.5191Z" fill="white"/>
<path d="M281.198 53.5191H287.673C291.665 53.5191 293.439 50.9469 293.439 48.4042C293.439 45.832 291.665 43.378 287.673 43.378H284.155V38.7362H281.198V53.5191ZM287.585 45.9798C289.536 45.9798 290.335 47.1624 290.335 48.4042C290.335 49.7938 289.536 50.8877 287.732 50.8877H284.155V45.9798H287.585Z" fill="white"/>
<path d="M302.971 53.5191H305.928V46.5711L312.522 53.5191H316.514L309.092 45.7728L315.952 38.7362H312.404L305.928 45.3885V38.7362H302.971V53.5191Z" fill="white"/>
<path d="M324.613 54.2878L330.882 38.7362H328.014L323.667 49.7642L319.261 38.7362H316.097L322.07 53.5782C321.124 56.2096 320.532 56.7713 317.428 56.7713V59.4323C321.863 59.4323 323.016 58.2792 324.613 54.2878Z" fill="white"/>
<path d="M333.268 46.1276C333.209 49.7938 332.795 50.8582 330.607 50.8582V53.8148C334.658 53.8148 335.9 51.8043 336.048 46.1868L336.166 41.3971H341.548V53.5191H344.505V38.7362H333.416L333.268 46.1276Z" fill="white"/>
<path d="M348.221 53.5191H354.697C358.688 53.5191 360.463 50.9469 360.463 48.4042C360.463 45.832 358.688 43.378 354.697 43.378H351.178V38.7362H348.221V53.5191ZM354.608 45.9798C356.559 45.9798 357.358 47.1624 357.358 48.4042C357.358 49.7938 356.559 50.8877 354.756 50.8877H351.178V45.9798H354.608Z" fill="white"/>
<path d="M365.495 53.5191H368.452V41.3971H373.597V38.7362H360.35V41.3971H365.495V53.5191Z" fill="white"/>
<path d="M382.887 54.2878L389.155 38.7362H386.287L381.94 49.7642L377.534 38.7362H374.37L380.344 53.5782C379.397 56.2096 378.806 56.7713 375.701 56.7713V59.4323C380.137 59.4323 381.29 58.2792 382.887 54.2878Z" fill="white"/>
<path d="M394.06 38.7362H391.103V59.4323H394.06V50.2077C395.124 52.3956 397.135 53.8148 399.826 53.8148C403.936 53.8148 406.627 50.4147 406.627 46.1276C406.627 41.8406 403.877 38.4405 399.826 38.4405C397.135 38.4405 395.124 39.8597 394.06 42.0475V38.7362ZM398.791 41.1014C401.571 41.1014 403.522 43.0528 403.522 46.1276C403.522 49.2025 401.571 51.1538 398.791 51.1538C396.13 51.1538 394.06 49.1138 394.06 46.1276C394.06 43.171 396.13 41.1014 398.791 41.1014Z" fill="white"/>
<path d="M415.777 54.2878L422.046 38.7362H419.178L414.831 49.7642L410.425 38.7362H407.261L413.234 53.5782C412.288 56.2096 411.697 56.7713 408.592 56.7713V59.4323C413.027 59.4323 414.181 58.2792 415.777 54.2878Z" fill="white"/>
<path d="M7.92206 83.4962C5.20163 83.4962 3.48657 81.604 3.27959 78.9135H15.5215C15.5807 78.6178 15.6102 78.2926 15.6102 77.9969C15.6102 73.9464 12.4758 70.6942 7.92206 70.6942C3.3683 70.6942 0.233887 74.0647 0.233887 78.3813C0.233887 82.8457 3.3683 86.0684 7.92206 86.0684C11.7366 86.0684 14.1909 84.324 15.0484 81.19H12.2097C11.6183 82.5501 10.3172 83.4962 7.92206 83.4962ZM7.92206 73.2664C10.3172 73.2664 11.914 74.7447 12.4463 76.8439H3.42744C3.98926 74.6856 5.67475 73.2664 7.92206 73.2664Z" fill="white"/>
<path d="M16.5389 89.025H19.3481V85.7727H30.1706V89.025H32.9798V83.1118H30.9099V70.9898H19.5846V72.6751C19.5846 79.0613 18.9932 81.6631 18.3722 83.1118H16.5389V89.025ZM21.2997 83.1118C21.8319 81.7518 22.305 79.6526 22.3642 73.6507H27.9529V83.1118H21.2997Z" fill="white"/>
<path d="M35.3689 85.7727H41.8447C45.8367 85.7727 47.6109 83.2005 47.6109 80.6579C47.6109 78.0856 45.8367 75.6317 41.8447 75.6317H38.3259V70.9898H35.3689V85.7727ZM49.592 85.7727H52.549V70.9898H49.592V85.7727ZM41.756 78.2335C43.7076 78.2335 44.506 79.4161 44.506 80.6579C44.506 82.0474 43.7076 83.1414 41.9039 83.1414H38.3259V78.2335H41.756Z" fill="white"/>
<path d="M80.2666 79.5639V76.903H62.9683V79.5639H80.2666Z" fill="white"/>
<path d="M94.6593 85.7727H97.6163V73.6507H102.761V70.9898H89.5142V73.6507H94.6593V85.7727Z" fill="white"/>
<path d="M111.68 86.0684C116.263 86.0684 119.516 82.6683 119.516 78.3813C119.516 74.0942 116.263 70.6942 111.68 70.6942C107.097 70.6942 103.844 74.0942 103.844 78.3813C103.844 82.6683 107.097 86.0684 111.68 86.0684ZM111.68 83.4075C108.871 83.4075 106.949 81.19 106.949 78.3813C106.949 75.5725 108.871 73.3551 111.68 73.3551C114.489 73.3551 116.411 75.5725 116.411 78.3813C116.411 81.19 114.489 83.4075 111.68 83.4075Z" fill="white"/>
<path d="M122.412 88.4337H124.009L125.28 85.6545C125.724 84.6788 125.842 84.1762 125.842 83.8214C125.842 82.6092 124.866 81.7222 123.654 81.7222C122.412 81.7222 121.466 82.6092 121.466 83.8214C121.466 84.5901 121.791 85.3293 122.915 85.8319L122.412 88.4337Z" fill="white"/>
<path d="M135.68 74.8334C135.68 79.3865 138.43 80.6874 141.89 80.6874C143.102 80.6874 144.226 80.5396 145.29 80.2735V85.7727H148.247V70.9898H145.29V77.7013C144.344 77.9378 143.398 78.0265 142.511 78.0265C139.997 78.0265 138.637 77.2282 138.637 74.8334V70.9898H135.68V74.8334Z" fill="white"/>
<path d="M155.936 85.7727H158.893V73.6507H164.038V70.9898H150.791V73.6507H155.936V85.7727Z" fill="white"/>
<path d="M172.957 86.0684C177.54 86.0684 180.793 82.6683 180.793 78.3813C180.793 74.0942 177.54 70.6942 172.957 70.6942C168.373 70.6942 165.121 74.0942 165.121 78.3813C165.121 82.6683 168.373 86.0684 172.957 86.0684ZM172.957 83.4075C170.148 83.4075 168.226 81.19 168.226 78.3813C168.226 75.5725 170.148 73.3551 172.957 73.3551C175.766 73.3551 177.688 75.5725 177.688 78.3813C177.688 81.19 175.766 83.4075 172.957 83.4075Z" fill="white"/>
<path d="M197.56 86.0684C202.143 86.0684 205.396 82.6683 205.396 78.3813C205.396 74.0942 202.143 70.6942 197.56 70.6942C192.976 70.6942 189.724 74.0942 189.724 78.3813C189.724 82.6683 192.976 86.0684 197.56 86.0684ZM197.56 83.4075C194.751 83.4075 192.829 81.19 192.829 78.3813C192.829 75.5725 194.751 73.3551 197.56 73.3551C200.369 73.3551 202.291 75.5725 202.291 78.3813C202.291 81.19 200.369 83.4075 197.56 83.4075Z" fill="white"/>
<path d="M215.293 86.0684C219.995 86.0684 223.129 82.7866 223.129 78.6769C223.129 74.6264 220.556 71.315 216.357 71.315C213.578 71.315 211.301 72.9116 210.325 75.2177C210.443 70.8124 211.745 68.9498 216.771 68.2993C219.817 67.915 221.887 67.2941 222.36 64.4853H219.581C219.374 65.2245 218.309 65.461 216.298 65.6975C210.089 66.4367 207.486 69.5115 207.486 76.6665C207.486 79.2091 207.812 81.2196 208.788 82.7275C209.941 84.5605 212.277 86.0684 215.293 86.0684ZM215.293 83.4075C212.543 83.4075 210.591 81.4561 210.591 78.6769C210.591 75.9569 212.543 73.976 215.293 73.976C218.073 73.976 220.024 75.9569 220.024 78.6769C220.024 81.4561 218.073 83.4075 215.293 83.4075Z" fill="white"/>
<path d="M227.737 85.7727H234.213C238.205 85.7727 239.979 83.2005 239.979 80.6579C239.979 78.0856 238.205 75.6317 234.213 75.6317H230.694V70.9898H224.189V73.6507H227.737V85.7727ZM234.124 78.2335C236.076 78.2335 236.874 79.4161 236.874 80.6579C236.874 82.0474 236.076 83.1414 234.272 83.1414H230.694V78.2335H234.124Z" fill="white"/>
<path d="M249.333 83.4962C246.612 83.4962 244.897 81.604 244.69 78.9135H256.932C256.991 78.6178 257.021 78.2926 257.021 77.9969C257.021 73.9464 253.886 70.6942 249.333 70.6942C244.779 70.6942 241.644 74.0647 241.644 78.3813C241.644 82.8457 244.779 86.0684 249.333 86.0684C253.147 86.0684 255.601 84.324 256.459 81.19H253.62C253.029 82.5501 251.728 83.4962 249.333 83.4962ZM249.333 73.2664C251.728 73.2664 253.324 74.7447 253.857 76.8439H244.838C245.4 74.6856 247.085 73.2664 249.333 73.2664Z" fill="white"/>
<path d="M257.949 89.025H260.759V85.7727H271.581V89.025H274.39V83.1118H272.32V70.9898H260.995V72.6751C260.995 79.0613 260.404 81.6631 259.783 83.1118H257.949V89.025ZM262.71 83.1118C263.242 81.7518 263.715 79.6526 263.775 73.6507H269.363V83.1118H262.71Z" fill="white"/>
<path d="M276.779 85.7727H279.736L286.981 75.2473V85.7727H289.938V70.9898H286.981L279.736 81.5153V70.9898H276.779V85.7727Z" fill="white"/>
<path d="M293.672 85.7727H296.629V79.5639H303.578V85.7727H306.535V70.9898H303.578V76.903H296.629V70.9898H293.672V85.7727Z" fill="white"/>
<path d="M312.761 85.7727L316.871 80.5396H319.326V85.7727H322.283V70.9898H315.807C311.815 70.9898 310.041 73.4734 310.041 75.9569C310.041 78.0561 311.312 79.5935 313.737 80.1552L309.213 85.7727H312.761ZM315.896 78.2335C313.944 78.2335 313.146 77.11 313.146 75.9569C313.146 74.656 313.944 73.6212 315.748 73.6212H319.326V78.2335H315.896Z" fill="white"/>
<path d="M332.815 83.4962C330.095 83.4962 328.38 81.604 328.173 78.9135H340.415C340.474 78.6178 340.504 78.2926 340.504 77.9969C340.504 73.9464 337.369 70.6942 332.815 70.6942C328.262 70.6942 325.127 74.0647 325.127 78.3813C325.127 82.8457 328.262 86.0684 332.815 86.0684C336.63 86.0684 339.084 84.324 339.942 81.19H337.103C336.512 82.5501 335.211 83.4962 332.815 83.4962ZM332.815 73.2664C335.211 73.2664 336.807 74.7447 337.34 76.8439H328.321C328.883 74.6856 330.568 73.2664 332.815 73.2664Z" fill="white"/>
<path d="M347.014 85.7727H349.971V73.6507H355.116V70.9898H341.869V73.6507H347.014V85.7727Z" fill="white"/>
<path d="M7.86292 115.661C5.20163 115.661 3.33873 113.68 3.33873 110.635C3.33873 107.619 5.14249 105.609 7.86292 105.609C10.0511 105.609 11.3226 106.673 11.8844 108.565H14.8414C14.2796 105.106 11.7661 102.948 7.86292 102.948C3.33873 102.948 0.233887 106.377 0.233887 110.635C0.233887 114.922 3.33873 118.322 7.92206 118.322C11.6774 118.322 14.25 116.312 14.9597 112.557H12.0027C11.4704 114.626 10.0511 115.661 7.86292 115.661Z" fill="white"/>
<path d="M24.6163 118.322C29.1997 118.322 32.4524 114.922 32.4524 110.635C32.4524 106.348 29.1997 102.948 24.6163 102.948C20.033 102.948 16.7803 106.348 16.7803 110.635C16.7803 114.922 20.033 118.322 24.6163 118.322ZM24.6163 115.661C21.8072 115.661 19.8852 113.444 19.8852 110.635C19.8852 107.826 21.8072 105.609 24.6163 105.609C27.4255 105.609 29.3475 107.826 29.3475 110.635C29.3475 113.444 27.4255 115.661 24.6163 115.661Z" fill="white"/>
<path d="M38.6671 118.026H41.6241V105.904H46.7693V103.243H33.522V105.904H38.6671V118.026Z" fill="white"/>
<path d="M52.2734 103.243H49.3164V123.94H52.2734V114.715C53.3379 116.903 55.3487 118.322 58.0396 118.322C62.1498 118.322 64.8406 114.922 64.8406 110.635C64.8406 106.348 62.0906 102.948 58.0396 102.948C55.3487 102.948 53.3379 104.367 52.2734 106.555V103.243ZM57.0046 105.609C59.7842 105.609 61.7358 107.56 61.7358 110.635C61.7358 113.71 59.7842 115.661 57.0046 115.661C54.3433 115.661 52.2734 113.621 52.2734 110.635C52.2734 107.678 54.3433 105.609 57.0046 105.609Z" fill="white"/>
<path d="M73.9909 118.795L80.2597 103.243H77.3914L73.0447 114.272L68.6388 103.243H65.4748L71.4479 118.086C70.5017 120.717 69.9103 121.279 66.8054 121.279V123.94C71.2409 123.94 72.3941 122.787 73.9909 118.795Z" fill="white"/>
<path d="M80.4434 121.279H83.2525V118.026H94.0751V121.279H96.8842V115.365H94.8143V103.243H83.4891V104.929C83.4891 111.315 82.8977 113.917 82.2767 115.365H80.4434V121.279ZM85.2041 115.365C85.7364 114.005 86.2095 111.906 86.2687 105.904H91.8574V115.365H85.2041Z" fill="white"/>
<path d="M99.2734 118.026H102.23V111.818H109.179V118.026H112.136V103.243H109.179V109.157H102.23V103.243H99.2734V118.026Z" fill="white"/>
<path d="M115.849 118.026H118.806L126.05 107.501V118.026H129.007V103.243H126.05L118.806 113.769V103.243H115.849V118.026Z" fill="white"/>
<path d="M132.742 118.026H135.699V111.078L142.293 118.026H146.285L138.863 110.28L145.723 103.243H142.174L135.699 109.896V103.243H132.742V118.026Z" fill="white"/>
<path d="M154.447 118.322C159.03 118.322 162.283 114.922 162.283 110.635C162.283 106.348 159.03 102.948 154.447 102.948C149.863 102.948 146.611 106.348 146.611 110.635C146.611 114.922 149.863 118.322 154.447 118.322ZM154.447 115.661C151.638 115.661 149.715 113.444 149.715 110.635C149.715 107.826 151.638 105.609 154.447 105.609C157.256 105.609 159.178 107.826 159.178 110.635C159.178 113.444 157.256 115.661 154.447 115.661Z" fill="white"/>
<path d="M165.113 118.026H172.18C176.231 118.026 177.532 115.898 177.532 113.887C177.532 111.906 176.201 110.783 174.043 110.428C175.935 109.925 176.881 108.624 176.881 107.087C176.881 104.633 175.078 103.243 171.795 103.243H165.113V118.026ZM171.648 109.393H168.01V105.757H171.648C173.185 105.757 173.836 106.555 173.836 107.59C173.836 108.595 173.185 109.393 171.648 109.393ZM171.855 111.758C173.777 111.758 174.427 112.645 174.427 113.592C174.427 114.656 173.777 115.513 172.002 115.513H168.01V111.758H171.855Z" fill="white"/>
<path d="M194.47 118.322C199.053 118.322 202.306 114.922 202.306 110.635C202.306 106.348 199.053 102.948 194.47 102.948C189.887 102.948 186.634 106.348 186.634 110.635C186.634 114.922 189.887 118.322 194.47 118.322ZM194.47 115.661C191.661 115.661 189.739 113.444 189.739 110.635C189.739 107.826 191.661 105.609 194.47 105.609C197.279 105.609 199.201 107.826 199.201 110.635C199.201 113.444 197.279 115.661 194.47 115.661Z" fill="white"/>
<path d="M212.381 123.94H215.338V118.322C219.714 118.115 223.469 115.365 223.469 110.635C223.469 105.904 219.714 103.125 215.338 102.948V97.3303H212.381V102.948C208.004 103.125 204.249 105.904 204.249 110.635C204.249 115.365 208.004 118.115 212.381 118.322V123.94ZM207.354 110.635C207.354 107.324 209.778 105.638 212.381 105.52V115.75C209.778 115.632 207.354 113.946 207.354 110.635ZM215.338 105.52C217.91 105.638 220.364 107.324 220.364 110.635C220.364 113.946 217.91 115.632 215.338 115.75V105.52Z" fill="white"/>
<path d="M226.303 118.026H229.26L236.504 107.501V118.026H239.461V103.243H236.504L229.26 113.769V103.243H226.303V118.026Z" fill="white"/>
<path d="M249.938 115.661C247.276 115.661 245.413 113.68 245.413 110.635C245.413 107.619 247.217 105.609 249.938 105.609C252.126 105.609 253.397 106.673 253.959 108.565H256.916C256.354 105.106 253.841 102.948 249.938 102.948C245.413 102.948 242.309 106.377 242.309 110.635C242.309 114.922 245.413 118.322 249.997 118.322C253.752 118.322 256.325 116.312 257.034 112.557H254.077C253.545 114.626 252.126 115.661 249.938 115.661Z" fill="white"/>
<path d="M268.883 108.772V109.009C262.111 109.009 259.006 110.812 259.006 114.183C259.006 116.844 260.751 118.322 263.53 118.322C266.576 118.322 268.143 116.637 268.883 114.479V118.026H271.84V109.068C271.84 104.958 269.681 102.948 265.689 102.948C262.022 102.948 259.716 104.751 259.243 108.181H262.2C262.436 106.644 263.619 105.609 265.689 105.609C267.7 105.609 268.883 106.644 268.883 108.772ZM262.111 114.035C262.111 112.261 264.004 111.138 268.883 111.138C268.883 113.68 267.256 115.779 264.211 115.779C262.909 115.779 262.111 115.159 262.111 114.035Z" fill="white"/>
</g>
</svg>
