<svg width="466" height="124" viewBox="0 0 466 124" fill="none" xmlns="http://www.w3.org/2000/svg">
<g id="&#208;&#161;&#208;&#190;&#209;&#130;&#209;&#128;&#209;&#131;&#208;&#180;&#208;&#189;&#208;&#184;&#208;&#186;&#208;&#184; &#208;&#188;&#208;&#184;&#208;&#189;&#208;&#184;&#208;&#188;&#208;&#176;&#209;&#128;&#208;&#186;&#208;&#181;&#209;&#130;&#208;&#190;&#208;&#178; &#209;&#134;&#208;&#181;&#208;&#189;&#209;&#143;&#209;&#130; &#209;&#128;&#208;&#176;&#208;&#183;&#208;&#189;&#208;&#190;&#209;&#129;&#209;&#130;&#208;&#190;&#209;&#128;&#208;&#190;&#208;&#189;&#208;&#189;&#208;&#181;&#208;&#181; &#209;&#128;&#208;&#176;&#208;&#183;&#208;&#178;&#208;&#184;&#209;&#130;&#208;&#184;&#208;&#181;, &#208;&#178;&#208;&#190;&#208;&#183;&#208;&#188;&#208;&#190;&#208;&#182;&#208;&#189;&#208;&#190;&#209;&#129;&#209;&#130;&#209;&#140; &#208;&#189;&#208;&#176;&#209;&#135;&#208;&#176;&#209;&#130;&#209;&#140; &#209;&#128;&#208;&#176;&#208;&#177;&#208;&#190;&#209;&#130;&#209;&#131; &#208;&#177;&#208;&#181;&#208;&#183;&#194;&#160;&#208;&#190;&#208;&#191;&#209;&#139;&#209;&#130;&#208;&#176; &#208;&#184; &#208;&#189;&#208;&#176;&#209;&#131;&#209;&#135;&#208;&#184;&#209;&#130;&#209;&#140;&#209;&#129;&#209;&#143; &#208;&#189;&#208;&#190;&#208;&#178;&#208;&#190;&#208;&#188;&#209;&#131;.">
<path d="M20.4598 7.07407C19.3361 2.22527 15.7286 0.273926 10.8791 0.273926C4.75818 0.273926 0.381836 4.67924 0.381836 10.9176C0.381836 17.156 4.75818 21.5613 10.8791 21.5613C16.2017 21.5613 19.4248 19.2256 20.7259 14.436H17.355C16.2609 17.363 14.4275 18.7526 10.8791 18.7526C6.59151 18.7526 3.63452 15.589 3.63452 10.9176C3.63452 6.24623 6.59151 3.08268 10.8791 3.08268C13.984 3.08268 16.113 4.44271 17.0001 7.07407H20.4598Z" fill="white"/>
<path d="M30.5073 21.5613C35.0907 21.5613 38.3433 18.1613 38.3433 13.8742C38.3433 9.58717 35.0907 6.1871 30.5073 6.1871C25.924 6.1871 22.6713 9.58717 22.6713 13.8742C22.6713 18.1613 25.924 21.5613 30.5073 21.5613ZM30.5073 18.9004C27.6982 18.9004 25.7761 16.683 25.7761 13.8742C25.7761 11.0655 27.6982 8.84802 30.5073 8.84802C33.3165 8.84802 35.2385 11.0655 35.2385 13.8742C35.2385 16.683 33.3165 18.9004 30.5073 18.9004Z" fill="white"/>
<path d="M44.5581 21.2657H47.5151V9.14368H52.6603V6.48276H39.4129V9.14368H44.5581V21.2657Z" fill="white"/>
<path d="M58.1644 6.48276H55.2074V27.1788H58.1644V17.9543C59.2289 20.1422 61.2397 21.5613 63.9305 21.5613C68.0408 21.5613 70.7316 18.1613 70.7316 13.8742C70.7316 9.58717 67.9816 6.1871 63.9305 6.1871C61.2397 6.1871 59.2289 7.60626 58.1644 9.79413V6.48276ZM62.8956 8.84802C65.6752 8.84802 67.6268 10.7994 67.6268 13.8742C67.6268 16.9491 65.6752 18.9004 62.8956 18.9004C60.2343 18.9004 58.1644 16.8604 58.1644 13.8742C58.1644 10.9176 60.2343 8.84802 62.8956 8.84802Z" fill="white"/>
<path d="M79.8819 22.0344L86.1507 6.48276H83.2824L78.9356 17.5108L74.5297 6.48276H71.3658L77.3389 21.3248C76.3926 23.9562 75.8012 24.5179 72.6964 24.5179V27.1788C77.1319 27.1788 78.2851 26.0258 79.8819 22.0344Z" fill="white"/>
<path d="M86.3344 24.5179H89.1435V21.2657H99.9661V24.5179H102.775V18.6048H100.705V6.48276H89.3801V8.16801C89.3801 14.5542 88.7887 17.156 88.1677 18.6048H86.3344V24.5179ZM91.0951 18.6048C91.6274 17.2447 92.1005 15.1455 92.1596 9.14368H97.7483V18.6048H91.0951Z" fill="white"/>
<path d="M105.164 21.2657H108.121V15.0569H115.07V21.2657H118.027V6.48276H115.07V12.3959H108.121V6.48276H105.164V21.2657Z" fill="white"/>
<path d="M121.74 21.2657H124.697L131.941 10.7402V21.2657H134.898V6.48276H131.941L124.697 17.0082V6.48276H121.74V21.2657Z" fill="white"/>
<path d="M138.633 21.2657H141.59V14.3177L148.184 21.2657H152.176L144.754 13.5194L151.614 6.48276H148.065L141.59 13.1351V6.48276H138.633V21.2657Z" fill="white"/>
<path d="M153.822 21.2657H156.779L164.023 10.7402V21.2657H166.98V6.48276H164.023L156.779 17.0082V6.48276H153.822V21.2657Z" fill="white"/>
<path d="M177.703 21.2657H180.512V9.97153L185.066 21.2657H187.432L191.985 9.97153V21.2657H194.942V6.48276H190.773L186.397 17.3926L181.991 6.48276H177.703V21.2657Z" fill="white"/>
<path d="M198.668 21.2657H201.625L208.869 10.7402V21.2657H211.826V6.48276H208.869L201.625 17.0082V6.48276H198.668V21.2657Z" fill="white"/>
<path d="M215.561 21.2657H218.518V15.0569H225.466V21.2657H228.423V6.48276H225.466V12.3959H218.518V6.48276H215.561V21.2657Z" fill="white"/>
<path d="M232.136 21.2657H235.093L242.337 10.7402V21.2657H245.294V6.48276H242.337L235.093 17.0082V6.48276H232.136V21.2657Z" fill="white"/>
<path d="M249.029 21.2657H251.838V9.97153L256.392 21.2657H258.757L263.311 9.97153V21.2657H266.268V6.48276H262.099L257.722 17.3926L253.316 6.48276H249.029V21.2657Z" fill="white"/>
<path d="M279.278 12.0116V12.2481C272.507 12.2481 269.402 14.0516 269.402 17.4221C269.402 20.083 271.147 21.5613 273.926 21.5613C276.972 21.5613 278.539 19.8761 279.278 17.7178V21.2657H282.235V12.3072C282.235 8.19757 280.077 6.1871 276.085 6.1871C272.418 6.1871 270.112 7.99061 269.639 11.4203H272.596C272.832 9.88283 274.015 8.84802 276.085 8.84802C278.096 8.84802 279.278 9.88283 279.278 12.0116ZM272.507 17.2743C272.507 15.5003 274.399 14.3768 279.278 14.3768C279.278 16.9195 277.652 19.0187 274.606 19.0187C273.305 19.0187 272.507 18.3978 272.507 17.2743Z" fill="white"/>
<path d="M288.775 6.48276H285.818V27.1788H288.775V17.9543C289.839 20.1422 291.85 21.5613 294.541 21.5613C298.651 21.5613 301.342 18.1613 301.342 13.8742C301.342 9.58717 298.592 6.1871 294.541 6.1871C291.85 6.1871 289.839 7.60626 288.775 9.79413V6.48276ZM293.506 8.84802C296.286 8.84802 298.237 10.7994 298.237 13.8742C298.237 16.9491 296.286 18.9004 293.506 18.9004C290.845 18.9004 288.775 16.8604 288.775 13.8742C288.775 10.9176 290.845 8.84802 293.506 8.84802Z" fill="white"/>
<path d="M304.184 21.2657H307.141V14.3177L313.735 21.2657H317.727L310.305 13.5194L317.165 6.48276H313.616L307.141 13.1351V6.48276H304.184V21.2657Z" fill="white"/>
<path d="M325.741 18.9891C323.02 18.9891 321.305 17.0969 321.098 14.4064H333.34C333.399 14.1107 333.429 13.7855 333.429 13.4899C333.429 9.43934 330.295 6.1871 325.741 6.1871C321.187 6.1871 318.053 9.5576 318.053 13.8742C318.053 18.3387 321.187 21.5613 325.741 21.5613C329.555 21.5613 332.01 19.817 332.867 16.683H330.028C329.437 18.043 328.136 18.9891 325.741 18.9891ZM325.741 8.75933C328.136 8.75933 329.733 10.2376 330.265 12.3368H321.246C321.808 10.1785 323.493 8.75933 325.741 8.75933Z" fill="white"/>
<path d="M339.939 21.2657H342.896V9.14368H348.042V6.48276H334.794V9.14368H339.939V21.2657Z" fill="white"/>
<path d="M356.96 21.5613C361.543 21.5613 364.796 18.1613 364.796 13.8742C364.796 9.58717 361.543 6.1871 356.96 6.1871C352.377 6.1871 349.124 9.58717 349.124 13.8742C349.124 18.1613 352.377 21.5613 356.96 21.5613ZM356.96 18.9004C354.151 18.9004 352.229 16.683 352.229 13.8742C352.229 11.0655 354.151 8.84802 356.96 8.84802C359.769 8.84802 361.691 11.0655 361.691 13.8742C361.691 16.683 359.769 18.9004 356.96 18.9004Z" fill="white"/>
<path d="M367.626 21.2657H374.693C378.744 21.2657 380.045 19.1369 380.045 17.1265C380.045 15.1455 378.715 14.022 376.556 13.6673C378.449 13.1646 379.395 11.8637 379.395 10.3263C379.395 7.87235 377.591 6.48276 374.309 6.48276H367.626V21.2657ZM374.161 12.6325H370.524V8.99585H374.161C375.699 8.99585 376.349 9.79413 376.349 10.8289C376.349 11.8342 375.699 12.6325 374.161 12.6325ZM374.368 14.9977C376.29 14.9977 376.941 15.8847 376.941 16.8308C376.941 17.8952 376.29 18.7526 374.516 18.7526H370.524V14.9977H374.368Z" fill="white"/>
<path d="M12.949 56.7716H15.7582V50.8584H13.6883V38.7364H10.7313V50.8584H4.07807V38.7364H1.12108V53.5193H12.949V56.7716Z" fill="white"/>
<path d="M24.9595 51.2428C22.2391 51.2428 20.524 49.3505 20.317 46.6601H32.559C32.6181 46.3644 32.6477 46.0392 32.6477 45.7435C32.6477 41.693 29.5133 38.4408 24.9595 38.4408C20.4057 38.4408 17.2713 41.8113 17.2713 46.1279C17.2713 50.5923 20.4057 53.815 24.9595 53.815C28.774 53.815 31.2283 52.0706 32.0858 48.9366H29.2471C28.6557 50.2967 27.3547 51.2428 24.9595 51.2428ZM24.9595 41.013C27.3547 41.013 28.9514 42.4913 29.4837 44.5904H20.4649C21.0267 42.4321 22.7122 41.013 24.9595 41.013Z" fill="white"/>
<path d="M35.4845 53.5193H38.4415V47.3105H45.3904V53.5193H48.3474V38.7364H45.3904V44.6496H38.4415V38.7364H35.4845V53.5193Z" fill="white"/>
<path d="M54.5733 53.5193L58.6835 48.2862H61.1378V53.5193H64.0948V38.7364H57.619C53.627 38.7364 51.8529 41.2199 51.8529 43.7035C51.8529 45.8026 53.1244 47.3401 55.5491 47.9018L51.0249 53.5193H54.5733ZM57.7077 45.98C55.7561 45.98 54.9577 44.8565 54.9577 43.7035C54.9577 42.4026 55.7561 41.3678 57.5598 41.3678H61.1378V45.98H57.7077Z" fill="white"/>
<path d="M71.789 53.5193H74.746V41.3973H79.8911V38.7364H66.6438V41.3973H71.789V53.5193Z" fill="white"/>
<path d="M92.3835 38.7364H89.4265V59.4325H92.3835V50.208C93.448 52.3958 95.4587 53.815 98.1496 53.815C102.26 53.815 104.951 50.4149 104.951 46.1279C104.951 41.8408 102.201 38.4408 98.1496 38.4408C95.4587 38.4408 93.448 39.8599 92.3835 42.0478V38.7364ZM97.1147 41.1017C99.8942 41.1017 101.846 43.053 101.846 46.1279C101.846 49.2027 99.8942 51.1541 97.1147 51.1541C94.4534 51.1541 92.3835 49.114 92.3835 46.1279C92.3835 43.1713 94.4534 41.1017 97.1147 41.1017Z" fill="white"/>
<path d="M116.933 44.2652V44.5018C110.161 44.5018 107.056 46.3053 107.056 49.6758C107.056 52.3367 108.801 53.815 111.581 53.815C114.626 53.815 116.193 52.1297 116.933 49.9714V53.5193H119.89V44.5609C119.89 40.4512 117.731 38.4408 113.739 38.4408C110.073 38.4408 107.766 40.2443 107.293 43.6739H110.25C110.486 42.1365 111.669 41.1017 113.739 41.1017C115.75 41.1017 116.933 42.1365 116.933 44.2652ZM110.161 49.5279C110.161 47.754 112.054 46.6305 116.933 46.6305C116.933 49.1732 115.306 51.2723 112.261 51.2723C110.96 51.2723 110.161 50.6514 110.161 49.5279Z" fill="white"/>
<path d="M129.12 53.815C133.674 53.815 135.566 51.6271 135.566 49.2323C135.566 47.5766 134.384 46.2461 132.491 45.8322C134.177 45.3887 135.093 44.1174 135.093 42.6095C135.093 40.3625 133.29 38.4408 129.15 38.4408C125.394 38.4408 123.029 40.3921 122.733 43.4374H125.808C126.074 42.2252 126.873 41.1017 129.091 41.1017C131.072 41.1017 131.988 41.9887 131.988 43.0826C131.988 44.147 131.308 44.8565 129.209 44.8565H127.169V47.3696H129.652C131.693 47.3696 132.462 48.1383 132.462 49.1436C132.462 50.208 131.781 51.1541 129.12 51.1541C126.873 51.1541 125.867 50.208 125.513 48.6705H122.437C122.733 51.7158 124.803 53.815 129.12 53.815Z" fill="white"/>
<path d="M138.546 53.5193H141.503V47.3105H148.452V53.5193H151.409V38.7364H148.452V44.6496H141.503V38.7364H138.546V53.5193Z" fill="white"/>
<path d="M162.07 53.815C166.654 53.815 169.906 50.4149 169.906 46.1279C169.906 41.8408 166.654 38.4408 162.07 38.4408C157.487 38.4408 154.234 41.8408 154.234 46.1279C154.234 50.4149 157.487 53.815 162.07 53.815ZM162.07 51.1541C159.261 51.1541 157.339 48.9366 157.339 46.1279C157.339 43.3191 159.261 41.1017 162.07 41.1017C164.879 41.1017 166.801 43.3191 166.801 46.1279C166.801 48.9366 164.879 51.1541 162.07 51.1541Z" fill="white"/>
<path d="M179.478 51.1541C176.817 51.1541 174.954 49.1732 174.954 46.1279C174.954 43.1122 176.758 41.1017 179.478 41.1017C181.666 41.1017 182.938 42.166 183.5 44.0583H186.457C185.895 40.5991 183.381 38.4408 179.478 38.4408C174.954 38.4408 171.849 41.8704 171.849 46.1279C171.849 50.4149 174.954 53.815 179.537 53.815C183.293 53.815 185.865 51.8045 186.575 48.0497H183.618C183.086 50.1193 181.666 51.1541 179.478 51.1541Z" fill="white"/>
<path d="M193.101 53.5193H196.058V41.3973H201.203V38.7364H187.955V41.3973H193.101V53.5193Z" fill="white"/>
<path d="M210.121 53.815C214.705 53.815 217.957 50.4149 217.957 46.1279C217.957 41.8408 214.705 38.4408 210.121 38.4408C205.538 38.4408 202.285 41.8408 202.285 46.1279C202.285 50.4149 205.538 53.815 210.121 53.815ZM210.121 51.1541C207.312 51.1541 205.39 48.9366 205.39 46.1279C205.39 43.3191 207.312 41.1017 210.121 41.1017C212.93 41.1017 214.853 43.3191 214.853 46.1279C214.853 48.9366 212.93 51.1541 210.121 51.1541Z" fill="white"/>
<path d="M223.744 38.7364H220.787V59.4325H223.744V50.208C224.809 52.3958 226.82 53.815 229.51 53.815C233.621 53.815 236.311 50.4149 236.311 46.1279C236.311 41.8408 233.561 38.4408 229.51 38.4408C226.82 38.4408 224.809 39.8599 223.744 42.0478V38.7364ZM228.475 41.1017C231.255 41.1017 233.207 43.053 233.207 46.1279C233.207 49.2027 231.255 51.1541 228.475 51.1541C225.814 51.1541 223.744 49.114 223.744 46.1279C223.744 43.1713 225.814 41.1017 228.475 41.1017Z" fill="white"/>
<path d="M246.102 53.815C250.685 53.815 253.938 50.4149 253.938 46.1279C253.938 41.8408 250.685 38.4408 246.102 38.4408C241.519 38.4408 238.266 41.8408 238.266 46.1279C238.266 50.4149 241.519 53.815 246.102 53.815ZM246.102 51.1541C243.293 51.1541 241.371 48.9366 241.371 46.1279C241.371 43.3191 243.293 41.1017 246.102 41.1017C248.911 41.1017 250.833 43.3191 250.833 46.1279C250.833 48.9366 248.911 51.1541 246.102 51.1541Z" fill="white"/>
<path d="M256.768 53.5193H259.725V47.3105H266.674V53.5193H269.631V38.7364H266.674V44.6496H259.725V38.7364H256.768V53.5193Z" fill="white"/>
<path d="M273.343 53.5193H276.3V47.3105H283.249V53.5193H286.206V38.7364H283.249V44.6496H276.3V38.7364H273.343V53.5193Z" fill="white"/>
<path d="M296.72 51.2428C293.999 51.2428 292.284 49.3505 292.077 46.6601H304.319C304.378 46.3644 304.408 46.0392 304.408 45.7435C304.408 41.693 301.273 38.4408 296.72 38.4408C292.166 38.4408 289.031 41.8113 289.031 46.1279C289.031 50.5923 292.166 53.815 296.72 53.815C300.534 53.815 302.988 52.0706 303.846 48.9366H301.007C300.416 50.2967 299.115 51.2428 296.72 51.2428ZM296.72 41.013C299.115 41.013 300.711 42.4913 301.244 44.5904H292.225C292.787 42.4321 294.472 41.013 296.72 41.013Z" fill="white"/>
<path d="M314.046 51.2428C311.325 51.2428 309.61 49.3505 309.403 46.6601H321.645C321.704 46.3644 321.734 46.0392 321.734 45.7435C321.734 41.693 318.599 38.4408 314.046 38.4408C309.492 38.4408 306.357 41.8113 306.357 46.1279C306.357 50.5923 309.492 53.815 314.046 53.815C317.86 53.815 320.314 52.0706 321.172 48.9366H318.333C317.742 50.2967 316.441 51.2428 314.046 51.2428ZM314.046 41.013C316.441 41.013 318.038 42.4913 318.57 44.5904H309.551C310.113 42.4321 311.798 41.013 314.046 41.013Z" fill="white"/>
<path d="M334.516 38.7364H331.559V59.4325H334.516V50.208C335.58 52.3958 337.591 53.815 340.282 53.815C344.392 53.815 347.083 50.4149 347.083 46.1279C347.083 41.8408 344.333 38.4408 340.282 38.4408C337.591 38.4408 335.58 39.8599 334.516 42.0478V38.7364ZM339.247 41.1017C342.027 41.1017 343.978 43.053 343.978 46.1279C343.978 49.2027 342.027 51.1541 339.247 51.1541C336.586 51.1541 334.516 49.114 334.516 46.1279C334.516 43.1713 336.586 41.1017 339.247 41.1017Z" fill="white"/>
<path d="M359.065 44.2652V44.5018C352.294 44.5018 349.189 46.3053 349.189 49.6758C349.189 52.3367 350.933 53.815 353.713 53.815C356.759 53.815 358.326 52.1297 359.065 49.9714V53.5193H362.022V44.5609C362.022 40.4512 359.863 38.4408 355.872 38.4408C352.205 38.4408 349.898 40.2443 349.425 43.6739H352.382C352.619 42.1365 353.802 41.1017 355.872 41.1017C357.882 41.1017 359.065 42.1365 359.065 44.2652ZM352.294 49.5279C352.294 47.754 354.186 46.6305 359.065 46.6305C359.065 49.1732 357.439 51.2723 354.393 51.2723C353.092 51.2723 352.294 50.6514 352.294 49.5279Z" fill="white"/>
<path d="M371.253 53.815C375.806 53.815 377.699 51.6271 377.699 49.2323C377.699 47.5766 376.516 46.2461 374.624 45.8322C376.309 45.3887 377.226 44.1174 377.226 42.6095C377.226 40.3625 375.422 38.4408 371.282 38.4408C367.527 38.4408 365.161 40.3921 364.865 43.4374H367.941C368.207 42.2252 369.005 41.1017 371.223 41.1017C373.204 41.1017 374.121 41.9887 374.121 43.0826C374.121 44.147 373.441 44.8565 371.341 44.8565H369.301V47.3696H371.785C373.825 47.3696 374.594 48.1383 374.594 49.1436C374.594 50.208 373.914 51.1541 371.253 51.1541C369.005 51.1541 368 50.208 367.645 48.6705H364.57C364.865 51.7158 366.935 53.815 371.253 53.815Z" fill="white"/>
<path d="M380.678 53.5193H387.746C391.797 53.5193 393.098 51.3906 393.098 49.3801C393.098 47.3992 391.767 46.2757 389.608 45.9209C391.501 45.4183 392.447 44.1174 392.447 42.58C392.447 40.126 390.643 38.7364 387.361 38.7364H380.678V53.5193ZM387.213 44.8861H383.576V41.2495H387.213C388.751 41.2495 389.402 42.0478 389.402 43.0826C389.402 44.0878 388.751 44.8861 387.213 44.8861ZM387.42 47.2514C389.342 47.2514 389.993 48.1383 389.993 49.0845C389.993 50.1488 389.342 51.0062 387.568 51.0062H383.576V47.2514H387.42Z" fill="white"/>
<path d="M395.954 53.5193H398.911L406.156 42.9939V53.5193H409.113V38.7364H406.156L398.911 49.2619V38.7364H395.954V53.5193Z" fill="white"/>
<path d="M416.81 53.5193H419.767V41.3973H424.912V38.7364H411.664V41.3973H416.81V53.5193Z" fill="white"/>
<path d="M427.459 53.5193H430.416L437.661 42.9939V53.5193H440.617V38.7364H437.661L430.416 49.2619V38.7364H427.459V53.5193Z" fill="white"/>
<path d="M451.153 51.2428C448.432 51.2428 446.717 49.3505 446.51 46.6601H458.752C458.812 46.3644 458.841 46.0392 458.841 45.7435C458.841 41.693 455.707 38.4408 451.153 38.4408C446.599 38.4408 443.465 41.8113 443.465 46.1279C443.465 50.5923 446.599 53.815 451.153 53.815C454.967 53.815 457.422 52.0706 458.279 48.9366H455.441C454.849 50.2967 453.548 51.2428 451.153 51.2428ZM451.153 41.013C453.548 41.013 455.145 42.4913 455.677 44.5904H446.658C447.22 42.4321 448.906 41.013 451.153 41.013Z" fill="white"/>
<path d="M461.744 56.1803H463.341L464.612 53.4011C465.056 52.4254 465.174 51.9228 465.174 51.568C465.174 50.3558 464.198 49.4688 462.986 49.4688C461.744 49.4688 460.798 50.3558 460.798 51.568C460.798 52.3367 461.123 53.0758 462.247 53.5785L461.744 56.1803Z" fill="white"/>
<path d="M1.12108 85.773H8.18829C12.2394 85.773 13.5404 83.6442 13.5404 81.6338C13.5404 79.6529 12.2098 78.5294 10.0512 78.1746C11.9437 77.6719 12.8899 76.371 12.8899 74.8336C12.8899 72.3797 11.0861 70.9901 7.80388 70.9901H1.12108V85.773ZM7.65603 77.1398H4.01893V73.5032H7.65603C9.19366 73.5032 9.8442 74.3014 9.8442 75.3362C9.8442 76.3415 9.19366 77.1398 7.65603 77.1398ZM7.86302 79.505C9.78506 79.505 10.4356 80.392 10.4356 81.3381C10.4356 82.4025 9.78506 83.2599 8.01087 83.2599H4.01893V79.505H7.86302Z" fill="white"/>
<path d="M23.2015 86.0686C27.7848 86.0686 31.0375 82.6686 31.0375 78.3815C31.0375 74.0945 27.7848 70.6944 23.2015 70.6944C18.6181 70.6944 15.3655 74.0945 15.3655 78.3815C15.3655 82.6686 18.6181 86.0686 23.2015 86.0686ZM23.2015 83.4077C20.3923 83.4077 18.4703 81.1903 18.4703 78.3815C18.4703 75.5728 20.3923 73.3553 23.2015 73.3553C26.0106 73.3553 27.9327 75.5728 27.9327 78.3815C27.9327 81.1903 26.0106 83.4077 23.2015 83.4077Z" fill="white"/>
<path d="M39.3709 86.0686C43.9247 86.0686 45.8171 83.8808 45.8171 81.4859C45.8171 79.8303 44.6343 78.4998 42.7419 78.0859C44.4273 77.6424 45.344 76.371 45.344 74.8632C45.344 72.6162 43.5402 70.6944 39.4005 70.6944C35.6451 70.6944 33.2795 72.6458 32.9838 75.691H36.0591C36.3252 74.4788 37.1236 73.3553 39.3413 73.3553C41.3225 73.3553 42.2392 74.2423 42.2392 75.3362C42.2392 76.4006 41.5591 77.1102 39.4596 77.1102H37.4193V79.6233H39.9032C41.9435 79.6233 42.7123 80.392 42.7123 81.3972C42.7123 82.4616 42.0322 83.4077 39.3709 83.4077C37.1236 83.4077 36.1182 82.4616 35.7634 80.9242H32.6881C32.9838 83.9695 35.0537 86.0686 39.3709 86.0686Z" fill="white"/>
<path d="M48.7968 85.773H51.6059V74.4788L56.1597 85.773H58.5253L63.079 74.4788V85.773H66.036V70.9901H61.8667L57.4903 81.8999L53.0844 70.9901H48.7968V85.773Z" fill="white"/>
<path d="M76.7103 86.0686C81.2936 86.0686 84.5463 82.6686 84.5463 78.3815C84.5463 74.0945 81.2936 70.6944 76.7103 70.6944C72.1269 70.6944 68.8743 74.0945 68.8743 78.3815C68.8743 82.6686 72.1269 86.0686 76.7103 86.0686ZM76.7103 83.4077C73.9011 83.4077 71.9791 81.1903 71.9791 78.3815C71.9791 75.5728 73.9011 73.3553 76.7103 73.3553C79.5194 73.3553 81.4415 75.5728 81.4415 78.3815C81.4415 81.1903 79.5194 83.4077 76.7103 83.4077Z" fill="white"/>
<path d="M94.8713 85.773H97.8283V78.8546L104.127 85.773H108.03L100.933 78.0267L107.468 70.9901H104.008L97.8283 77.6424V70.9901H94.8713V77.6424L88.6912 70.9901H85.0836L91.7664 78.1746L84.8175 85.773H88.5729L94.8713 78.8546V85.773Z" fill="white"/>
<path d="M109.785 85.773H112.742V79.5642H119.691V85.773H122.648V70.9901H119.691V76.9032H112.742V70.9901H109.785V85.773Z" fill="white"/>
<path d="M133.309 86.0686C137.892 86.0686 141.145 82.6686 141.145 78.3815C141.145 74.0945 137.892 70.6944 133.309 70.6944C128.726 70.6944 125.473 74.0945 125.473 78.3815C125.473 82.6686 128.726 86.0686 133.309 86.0686ZM133.309 83.4077C130.5 83.4077 128.578 81.1903 128.578 78.3815C128.578 75.5728 130.5 73.3553 133.309 73.3553C136.118 73.3553 138.04 75.5728 138.04 78.3815C138.04 81.1903 136.118 83.4077 133.309 83.4077Z" fill="white"/>
<path d="M150.717 83.4077C148.055 83.4077 146.193 81.4268 146.193 78.3815C146.193 75.3658 147.996 73.3553 150.717 73.3553C152.905 73.3553 154.176 74.4197 154.738 76.3119H157.695C157.133 72.8527 154.62 70.6944 150.717 70.6944C146.193 70.6944 143.088 74.124 143.088 78.3815C143.088 82.6686 146.193 86.0686 150.776 86.0686C154.531 86.0686 157.104 84.0582 157.814 80.3033H154.857C154.324 82.3729 152.905 83.4077 150.717 83.4077Z" fill="white"/>
<path d="M164.339 85.773H167.296V73.651H172.441V70.9901H159.194V73.651H164.339V85.773Z" fill="white"/>
<path d="M174.989 85.773H181.464C185.456 85.773 187.231 83.2008 187.231 80.6581C187.231 78.0859 185.456 75.6319 181.464 75.6319H177.946V70.9901H174.989V85.773ZM181.376 78.2337C183.327 78.2337 184.126 79.4163 184.126 80.6581C184.126 82.0477 183.327 83.1416 181.524 83.1416H177.946V78.2337H181.376Z" fill="white"/>
<path d="M196.762 85.773H199.719V79.5642H206.668V85.773H209.625V70.9901H206.668V76.9032H199.719V70.9901H196.762V85.773Z" fill="white"/>
<path d="M222.622 76.5189V76.7554C215.85 76.7554 212.746 78.5589 212.746 81.9294C212.746 84.5904 214.49 86.0686 217.27 86.0686C220.316 86.0686 221.883 84.3834 222.622 82.2251V85.773H225.579V76.8145C225.579 72.7049 223.42 70.6944 219.428 70.6944C215.762 70.6944 213.455 72.4979 212.982 75.9276H215.939C216.176 74.3901 217.359 73.3553 219.428 73.3553C221.439 73.3553 222.622 74.3901 222.622 76.5189ZM215.85 81.7816C215.85 80.0076 217.743 78.8841 222.622 78.8841C222.622 81.4268 220.996 83.526 217.95 83.526C216.649 83.526 215.85 82.9051 215.85 81.7816Z" fill="white"/>
<path d="M228.866 74.8336C228.866 79.3868 231.616 80.6877 235.076 80.6877C236.288 80.6877 237.412 80.5398 238.476 80.2737V85.773H241.433V70.9901H238.476V77.7015C237.53 77.938 236.584 78.0267 235.697 78.0267C233.183 78.0267 231.823 77.2285 231.823 74.8336V70.9901H228.866V74.8336Z" fill="white"/>
<path d="M254.3 76.5189V76.7554C247.528 76.7554 244.424 78.5589 244.424 81.9294C244.424 84.5904 246.168 86.0686 248.948 86.0686C251.993 86.0686 253.561 84.3834 254.3 82.2251V85.773H257.257V76.8145C257.257 72.7049 255.098 70.6944 251.106 70.6944C247.44 70.6944 245.133 72.4979 244.66 75.9276H247.617C247.854 74.3901 249.036 73.3553 251.106 73.3553C253.117 73.3553 254.3 74.3901 254.3 76.5189ZM247.528 81.7816C247.528 80.0076 249.421 78.8841 254.3 78.8841C254.3 81.4268 252.674 83.526 249.628 83.526C248.327 83.526 247.528 82.9051 247.528 81.7816Z" fill="white"/>
<path d="M264.513 85.773H267.47V73.651H272.615V70.9901H259.368V73.651H264.513V85.773Z" fill="white"/>
<path d="M275.162 85.773H281.638C285.63 85.773 287.404 83.2008 287.404 80.6581C287.404 78.0859 285.63 75.6319 281.638 75.6319H278.119V70.9901H275.162V85.773ZM281.549 78.2337C283.501 78.2337 284.299 79.4163 284.299 80.6581C284.299 82.0477 283.501 83.1416 281.697 83.1416H278.119V78.2337H281.549Z" fill="white"/>
<path d="M299.893 70.9901H296.936V91.6862H299.893V82.4616C300.957 84.6495 302.968 86.0686 305.659 86.0686C309.769 86.0686 312.46 82.6686 312.46 78.3815C312.46 74.0945 309.71 70.6944 305.659 70.6944C302.968 70.6944 300.957 72.1136 299.893 74.3014V70.9901ZM304.624 73.3553C307.403 73.3553 309.355 75.3067 309.355 78.3815C309.355 81.4564 307.403 83.4077 304.624 83.4077C301.962 83.4077 299.893 81.3677 299.893 78.3815C299.893 75.4249 301.962 73.3553 304.624 73.3553Z" fill="white"/>
<path d="M324.442 76.5189V76.7554C317.67 76.7554 314.565 78.5589 314.565 81.9294C314.565 84.5904 316.31 86.0686 319.09 86.0686C322.135 86.0686 323.703 84.3834 324.442 82.2251V85.773H327.399V76.8145C327.399 72.7049 325.24 70.6944 321.248 70.6944C317.582 70.6944 315.275 72.4979 314.802 75.9276H317.759C317.996 74.3901 319.178 73.3553 321.248 73.3553C323.259 73.3553 324.442 74.3901 324.442 76.5189ZM317.67 81.7816C317.67 80.0076 319.563 78.8841 324.442 78.8841C324.442 81.4268 322.815 83.526 319.77 83.526C318.469 83.526 317.67 82.9051 317.67 81.7816Z" fill="white"/>
<path d="M338.049 86.0686C342.75 86.0686 345.885 82.7868 345.885 78.6772C345.885 74.6267 343.312 71.3153 339.113 71.3153C336.333 71.3153 334.057 72.9118 333.081 75.218C333.199 70.8127 334.5 68.95 339.527 68.2996C342.573 67.9152 344.643 67.2943 345.116 64.4856H342.336C342.129 65.2247 341.065 65.4612 339.054 65.6978C332.844 66.4369 330.242 69.5118 330.242 76.6667C330.242 79.2094 330.567 81.2198 331.543 82.7277C332.696 84.5608 335.032 86.0686 338.049 86.0686ZM338.049 83.4077C335.299 83.4077 333.347 81.4564 333.347 78.6772C333.347 75.9571 335.299 73.9762 338.049 73.9762C340.828 73.9762 342.78 75.9571 342.78 78.6772C342.78 81.4564 340.828 83.4077 338.049 83.4077Z" fill="white"/>
<path d="M355.661 86.0686C360.244 86.0686 363.497 82.6686 363.497 78.3815C363.497 74.0945 360.244 70.6944 355.661 70.6944C351.077 70.6944 347.825 74.0945 347.825 78.3815C347.825 82.6686 351.077 86.0686 355.661 86.0686ZM355.661 83.4077C352.852 83.4077 350.929 81.1903 350.929 78.3815C350.929 75.5728 352.852 73.3553 355.661 73.3553C358.47 73.3553 360.392 75.5728 360.392 78.3815C360.392 81.1903 358.47 83.4077 355.661 83.4077Z" fill="white"/>
<path d="M369.711 85.773H372.668V73.651H377.814V70.9901H364.566V73.651H369.711V85.773Z" fill="white"/>
<path d="M387.103 86.5417L393.371 70.9901H390.503L386.156 82.0181L381.751 70.9901H378.587L384.56 85.8321C383.613 88.4635 383.022 89.0252 379.917 89.0252V91.6862C384.353 91.6862 385.506 90.5331 387.103 86.5417Z" fill="white"/>
<path d="M8.18829 118.322C12.8899 118.322 16.0243 115.04 16.0243 110.931C16.0243 106.88 13.4517 103.569 9.2528 103.569C6.47323 103.569 4.19635 105.165 3.22055 107.472C3.33883 103.066 4.6399 101.204 9.66678 100.553C12.7125 100.169 14.7824 99.548 15.2555 96.7392H12.4759C12.2689 97.4784 11.2044 97.7149 9.19367 97.9514C2.98399 98.6906 0.381836 101.765 0.381836 108.92C0.381836 111.463 0.707105 113.474 1.68291 114.981C2.83614 116.814 5.17216 118.322 8.18829 118.322ZM8.18829 115.661C5.43829 115.661 3.48667 113.71 3.48667 110.931C3.48667 108.211 5.43829 106.23 8.18829 106.23C10.9679 106.23 12.9195 108.211 12.9195 110.931C12.9195 113.71 10.9679 115.661 8.18829 115.661Z" fill="white"/>
<path d="M25.6525 115.75C22.9321 115.75 21.2171 113.858 21.0101 111.167H33.252C33.3111 110.872 33.3407 110.546 33.3407 110.251C33.3407 106.2 30.2063 102.948 25.6525 102.948C21.0988 102.948 17.9644 106.319 17.9644 110.635C17.9644 115.1 21.0988 118.322 25.6525 118.322C29.4671 118.322 31.9214 116.578 32.7789 113.444H29.9402C29.3488 114.804 28.0477 115.75 25.6525 115.75ZM25.6525 105.52C28.0477 105.52 29.6445 106.999 30.1767 109.098H21.1579C21.7197 106.939 23.4052 105.52 25.6525 105.52Z" fill="white"/>
<path d="M41.681 118.322C46.2348 118.322 48.1273 116.134 48.1273 113.74C48.1273 112.084 46.9445 110.753 45.052 110.34C46.7375 109.896 47.6542 108.625 47.6542 107.117C47.6542 104.87 45.8504 102.948 41.7106 102.948C37.9552 102.948 35.5896 104.899 35.2939 107.945H38.3692C38.6353 106.732 39.4337 105.609 41.6515 105.609C43.6327 105.609 44.5493 106.496 44.5493 107.59C44.5493 108.654 43.8692 109.364 41.7698 109.364H39.7294V111.877H42.2133C44.2536 111.877 45.0224 112.646 45.0224 113.651C45.0224 114.715 44.3423 115.661 41.681 115.661C39.4337 115.661 38.4284 114.715 38.0735 113.178H34.9982C35.2939 116.223 37.3638 118.322 41.681 118.322Z" fill="white"/>
<path d="M65.044 118.322C69.6274 118.322 72.8801 114.922 72.8801 110.635C72.8801 106.348 69.6274 102.948 65.044 102.948C60.4607 102.948 57.208 106.348 57.208 110.635C57.208 114.922 60.4607 118.322 65.044 118.322ZM65.044 115.661C62.2349 115.661 60.3128 113.444 60.3128 110.635C60.3128 107.826 62.2349 105.609 65.044 105.609C67.8532 105.609 69.7752 107.826 69.7752 110.635C69.7752 113.444 67.8532 115.661 65.044 115.661Z" fill="white"/>
<path d="M75.71 118.027H78.667V105.905H85.3202V118.027H88.2772V103.244H75.71V118.027Z" fill="white"/>
<path d="M91.9965 118.027H98.4723C102.464 118.027 104.238 115.454 104.238 112.912C104.238 110.34 102.464 107.886 98.4723 107.886H94.9535V103.244H91.9965V118.027ZM106.22 118.027H109.177V103.244H106.22V118.027ZM98.3836 110.487C100.335 110.487 101.134 111.67 101.134 112.912C101.134 114.301 100.335 115.395 98.5315 115.395H94.9535V110.487H98.3836Z" fill="white"/>
<path d="M116.866 118.027H119.823V105.905H124.968V103.244H111.721V105.905H116.866V118.027Z" fill="white"/>
<path d="M136.222 108.773V109.009C129.451 109.009 126.346 110.813 126.346 114.183C126.346 116.844 128.091 118.322 130.87 118.322C133.916 118.322 135.483 116.637 136.222 114.479V118.027H139.179V109.068C139.179 104.959 137.021 102.948 133.029 102.948C129.362 102.948 127.056 104.752 126.583 108.181H129.54C129.776 106.644 130.959 105.609 133.029 105.609C135.04 105.609 136.222 106.644 136.222 108.773ZM129.451 114.035C129.451 112.261 131.343 111.138 136.222 111.138C136.222 113.68 134.596 115.78 131.55 115.78C130.249 115.78 129.451 115.159 129.451 114.035Z" fill="white"/>
<path d="M149.75 118.027H152.707L159.952 107.501V118.027H162.909V103.244H159.952L152.707 113.769V103.244H149.75V118.027Z" fill="white"/>
<path d="M173.631 118.027H176.588V111.818H183.537V118.027H186.494V103.244H183.537V109.157H176.588V103.244H173.631V118.027Z" fill="white"/>
<path d="M199.492 108.773V109.009C192.72 109.009 189.615 110.813 189.615 114.183C189.615 116.844 191.36 118.322 194.139 118.322C197.185 118.322 198.752 116.637 199.492 114.479V118.027H202.449V109.068C202.449 104.959 200.29 102.948 196.298 102.948C192.631 102.948 190.325 104.752 189.852 108.181H192.809C193.045 106.644 194.228 105.609 196.298 105.609C198.309 105.609 199.492 106.644 199.492 108.773ZM192.72 114.035C192.72 112.261 194.613 111.138 199.492 111.138C199.492 113.68 197.865 115.78 194.82 115.78C193.519 115.78 192.72 115.159 192.72 114.035Z" fill="white"/>
<path d="M212.629 118.795L218.898 103.244H216.029L211.683 114.272L207.277 103.244H204.113L210.086 118.086C209.139 120.717 208.548 121.279 205.443 121.279V123.94C209.879 123.94 211.032 122.787 212.629 118.795Z" fill="white"/>
<path d="M220.549 107.087C220.549 111.64 223.299 112.941 226.759 112.941C227.971 112.941 229.095 112.793 230.16 112.527V118.027H233.117V103.244H230.16V109.955C229.213 110.192 228.267 110.28 227.38 110.28C224.867 110.28 223.506 109.482 223.506 107.087V103.244H220.549V107.087Z" fill="white"/>
<path d="M236.843 118.027H239.8L247.044 107.501V118.027H250.001V103.244H247.044L239.8 113.769V103.244H236.843V118.027Z" fill="white"/>
<path d="M257.698 118.027H260.655V105.905H265.8V103.244H252.553V105.905H257.698V118.027Z" fill="white"/>
<path d="M268.347 118.027H274.823C278.815 118.027 280.589 115.454 280.589 112.912C280.589 110.34 278.815 107.886 274.823 107.886H271.304V103.244H268.347V118.027ZM274.735 110.487C276.686 110.487 277.485 111.67 277.485 112.912C277.485 114.301 276.686 115.395 274.882 115.395H271.304V110.487H274.735Z" fill="white"/>
<path d="M289.874 115.661C287.213 115.661 285.35 113.68 285.35 110.635C285.35 107.619 287.154 105.609 289.874 105.609C292.062 105.609 293.334 106.673 293.896 108.566H296.853C296.291 105.106 293.778 102.948 289.874 102.948C285.35 102.948 282.245 106.378 282.245 110.635C282.245 114.922 285.35 118.322 289.933 118.322C293.689 118.322 296.261 116.312 296.971 112.557H294.014C293.482 114.627 292.062 115.661 289.874 115.661Z" fill="white"/>
<path d="M302.048 118.027L306.158 112.793H308.612V118.027H311.569V103.244H305.094C301.102 103.244 299.327 105.727 299.327 108.211C299.327 110.31 300.599 111.847 303.024 112.409L298.499 118.027H302.048ZM305.182 110.487C303.231 110.487 302.432 109.364 302.432 108.211C302.432 106.91 303.231 105.875 305.034 105.875H308.612V110.487H305.182Z" fill="white"/>
<path d="M322.289 118.027H325.246V111.818H332.195V118.027H335.152V103.244H332.195V109.157H325.246V103.244H322.289V118.027Z" fill="white"/>
<path d="M345.814 118.322C350.397 118.322 353.65 114.922 353.65 110.635C353.65 106.348 350.397 102.948 345.814 102.948C341.23 102.948 337.978 106.348 337.978 110.635C337.978 114.922 341.23 118.322 345.814 118.322ZM345.814 115.661C343.004 115.661 341.082 113.444 341.082 110.635C341.082 107.826 343.004 105.609 345.814 105.609C348.623 105.609 350.545 107.826 350.545 110.635C350.545 113.444 348.623 115.661 345.814 115.661Z" fill="white"/>
<path d="M356.48 118.027H363.547C367.598 118.027 368.899 115.898 368.899 113.887C368.899 111.907 367.568 110.783 365.41 110.428C367.302 109.926 368.248 108.625 368.248 107.087C368.248 104.633 366.445 103.244 363.162 103.244H356.48V118.027ZM363.015 109.393H359.377V105.757H363.015C364.552 105.757 365.203 106.555 365.203 107.59C365.203 108.595 364.552 109.393 363.015 109.393ZM363.222 111.759C365.144 111.759 365.794 112.646 365.794 113.592C365.794 114.656 365.144 115.514 363.369 115.514H359.377V111.759H363.222Z" fill="white"/>
<path d="M378.56 118.322C383.143 118.322 386.396 114.922 386.396 110.635C386.396 106.348 383.143 102.948 378.56 102.948C373.977 102.948 370.724 106.348 370.724 110.635C370.724 114.922 373.977 118.322 378.56 118.322ZM378.56 115.661C375.751 115.661 373.829 113.444 373.829 110.635C373.829 107.826 375.751 105.609 378.56 105.609C381.369 105.609 383.291 107.826 383.291 110.635C383.291 113.444 381.369 115.661 378.56 115.661Z" fill="white"/>
<path d="M389.226 118.027H392.035V106.732L396.589 118.027H398.954L403.508 106.732V118.027H406.465V103.244H402.296L397.919 114.154L393.514 103.244H389.226V118.027Z" fill="white"/>
<path d="M416.932 118.795L423.201 103.244H420.333L415.986 114.272L411.58 103.244H408.416L414.389 118.086C413.443 120.717 412.852 121.279 409.747 121.279V123.94C414.182 123.94 415.336 122.787 416.932 118.795Z" fill="white"/>
<path d="M425.273 118.322C426.485 118.322 427.461 117.347 427.461 116.075C427.461 114.893 426.485 113.976 425.273 113.976C424.031 113.976 423.085 114.893 423.085 116.075C423.085 117.347 424.031 118.322 425.273 118.322Z" fill="white"/>
</g>
</svg>
