<svg width="437" height="87" viewBox="0 0 437 87" fill="none" xmlns="http://www.w3.org/2000/svg">
<g id="&#208;&#161;&#208;&#190;&#209;&#130;&#209;&#128;&#209;&#131;&#208;&#180;&#208;&#189;&#208;&#184;&#208;&#186;&#208;&#176;&#208;&#188; &#208;&#191;&#209;&#128;&#208;&#181;&#208;&#180;&#208;&#190;&#209;&#129;&#209;&#130;&#208;&#176;&#208;&#178;&#208;&#187;&#209;&#143;&#208;&#181;&#209;&#130;&#209;&#129;&#209;&#143; &#208;&#186;&#208;&#190;&#209;&#128;&#208;&#191;&#208;&#190;&#209;&#128;&#208;&#176;&#209;&#130;&#208;&#184;&#208;&#178;&#208;&#189;&#209;&#139;&#208;&#185; &#209;&#130;&#209;&#128;&#208;&#176;&#208;&#189;&#209;&#129;&#208;&#191;&#208;&#190;&#209;&#128;&#209;&#130; &#208;&#184;&#194;&#160;&#208;&#191;&#208;&#184;&#209;&#130;&#208;&#176;&#208;&#189;&#208;&#184;&#208;&#181;.">
<path d="M20.4598 7.32749C19.3361 2.47869 15.7286 0.527344 10.8791 0.527344C4.75818 0.527344 0.381836 4.93265 0.381836 11.171C0.381836 17.4094 4.75818 21.8147 10.8791 21.8147C16.2017 21.8147 19.4248 19.479 20.7259 14.6894H17.355C16.2609 17.6164 14.4275 19.006 10.8791 19.006C6.59151 19.006 3.63452 15.8424 3.63452 11.171C3.63452 6.49964 6.59151 3.3361 10.8791 3.3361C13.984 3.3361 16.113 4.69613 17.0001 7.32749H20.4598Z" fill="white"/>
<path d="M30.5073 21.8147C35.0907 21.8147 38.3433 18.4147 38.3433 14.1276C38.3433 9.84058 35.0907 6.44051 30.5073 6.44051C25.924 6.44051 22.6713 9.84058 22.6713 14.1276C22.6713 18.4147 25.924 21.8147 30.5073 21.8147ZM30.5073 19.1538C27.6982 19.1538 25.7761 16.9364 25.7761 14.1276C25.7761 11.3189 27.6982 9.10144 30.5073 9.10144C33.3165 9.10144 35.2385 11.3189 35.2385 14.1276C35.2385 16.9364 33.3165 19.1538 30.5073 19.1538Z" fill="white"/>
<path d="M44.5581 21.5191H47.5151V9.39709H52.6603V6.73617H39.4129V9.39709H44.5581V21.5191Z" fill="white"/>
<path d="M58.1644 6.73617H55.2074V27.4323H58.1644V18.2077C59.2289 20.3956 61.2397 21.8147 63.9305 21.8147C68.0408 21.8147 70.7316 18.4147 70.7316 14.1276C70.7316 9.84058 67.9816 6.44051 63.9305 6.44051C61.2397 6.44051 59.2289 7.85967 58.1644 10.0475V6.73617ZM62.8956 9.10144C65.6752 9.10144 67.6268 11.0528 67.6268 14.1276C67.6268 17.2025 65.6752 19.1538 62.8956 19.1538C60.2343 19.1538 58.1644 17.1138 58.1644 14.1276C58.1644 11.171 60.2343 9.10144 62.8956 9.10144Z" fill="white"/>
<path d="M79.8819 22.2878L86.1507 6.73617H83.2824L78.9357 17.7642L74.5297 6.73617H71.3658L77.3389 21.5782C76.3926 24.2096 75.8012 24.7713 72.6964 24.7713V27.4323C77.1319 27.4323 78.2851 26.2792 79.8819 22.2878Z" fill="white"/>
<path d="M86.3344 24.7713H89.1435V21.5191H99.9661V24.7713H102.775V18.8582H100.705V6.73617H89.3801V8.42142C89.3801 14.8076 88.7887 17.4094 88.1677 18.8582H86.3344V24.7713ZM91.0951 18.8582C91.6274 17.4981 92.1005 15.399 92.1596 9.39709H97.7483V18.8582H91.0951Z" fill="white"/>
<path d="M105.164 21.5191H108.121V15.3103H115.07V21.5191H118.027V6.73617H115.07V12.6493H108.121V6.73617H105.164V21.5191Z" fill="white"/>
<path d="M121.74 21.5191H124.697L131.941 10.9937V21.5191H134.898V6.73617H131.941L124.697 17.2616V6.73617H121.74V21.5191Z" fill="white"/>
<path d="M138.633 21.5191H141.59V14.5711L148.184 21.5191H152.176L144.754 13.7728L151.614 6.73617H148.065L141.59 13.3885V6.73617H138.633V21.5191Z" fill="white"/>
<path d="M162.674 12.265V12.5015C155.902 12.5015 152.797 14.305 152.797 17.6755C152.797 20.3365 154.542 21.8147 157.322 21.8147C160.367 21.8147 161.934 20.1295 162.674 17.9712V21.5191H165.631V12.5606C165.631 8.45099 163.472 6.44051 159.48 6.44051C155.813 6.44051 153.507 8.24403 153.034 11.6737H155.991C156.227 10.1362 157.41 9.10144 159.48 9.10144C161.491 9.10144 162.674 10.1362 162.674 12.265ZM155.902 17.5277C155.902 15.7537 157.795 14.6302 162.674 14.6302C162.674 17.1729 161.047 19.2721 158.002 19.2721C156.701 19.2721 155.902 18.6512 155.902 17.5277Z" fill="white"/>
<path d="M169.213 21.5191H172.022V10.2249L176.576 21.5191H178.942L183.495 10.2249V21.5191H186.452V6.73617H182.283L177.907 17.646L173.501 6.73617H169.213V21.5191Z" fill="white"/>
<path d="M197.166 21.5191H200.123V9.39709H206.776V21.5191H209.733V6.73617H197.166V21.5191Z" fill="white"/>
<path d="M216.41 6.73617H213.453V27.4323H216.41V18.2077C217.474 20.3956 219.485 21.8147 222.176 21.8147C226.286 21.8147 228.977 18.4147 228.977 14.1276C228.977 9.84058 226.227 6.44051 222.176 6.44051C219.485 6.44051 217.474 7.85967 216.41 10.0475V6.73617ZM221.141 9.10144C223.92 9.10144 225.872 11.0528 225.872 14.1276C225.872 17.2025 223.92 19.1538 221.141 19.1538C218.479 19.1538 216.41 17.1138 216.41 14.1276C216.41 11.171 218.479 9.10144 221.141 9.10144Z" fill="white"/>
<path d="M238.619 19.2425C235.899 19.2425 234.184 17.3503 233.977 14.6598H246.219C246.278 14.3642 246.307 14.0389 246.307 13.7433C246.307 9.69275 243.173 6.44051 238.619 6.44051C234.066 6.44051 230.931 9.81102 230.931 14.1276C230.931 18.5921 234.066 21.8147 238.619 21.8147C242.434 21.8147 244.888 20.0704 245.746 16.9364H242.907C242.316 18.2964 241.014 19.2425 238.619 19.2425ZM238.619 9.01274C241.014 9.01274 242.611 10.491 243.144 12.5902H234.125C234.687 10.4319 236.372 9.01274 238.619 9.01274Z" fill="white"/>
<path d="M247.236 24.7713H250.045V21.5191H260.868V24.7713H263.677V18.8582H261.607V6.73617H250.282V8.42142C250.282 14.8076 249.69 17.4094 249.07 18.8582H247.236V24.7713ZM251.997 18.8582C252.529 17.4981 253.002 15.399 253.061 9.39709H258.65V18.8582H251.997Z" fill="white"/>
<path d="M273.015 21.8147C277.598 21.8147 280.851 18.4147 280.851 14.1276C280.851 9.84058 277.598 6.44051 273.015 6.44051C268.432 6.44051 265.179 9.84058 265.179 14.1276C265.179 18.4147 268.432 21.8147 273.015 21.8147ZM273.015 19.1538C270.206 19.1538 268.284 16.9364 268.284 14.1276C268.284 11.3189 270.206 9.10144 273.015 9.10144C275.824 9.10144 277.746 11.3189 277.746 14.1276C277.746 16.9364 275.824 19.1538 273.015 19.1538Z" fill="white"/>
<path d="M290.423 19.1538C287.762 19.1538 285.899 17.1729 285.899 14.1276C285.899 11.1119 287.703 9.10144 290.423 9.10144C292.611 9.10144 293.883 10.1658 294.445 12.058H297.401C296.84 8.59882 294.326 6.44051 290.423 6.44051C285.899 6.44051 282.794 9.87015 282.794 14.1276C282.794 18.4147 285.899 21.8147 290.482 21.8147C294.238 21.8147 296.81 19.8043 297.52 16.0494H294.563C294.031 18.119 292.611 19.1538 290.423 19.1538Z" fill="white"/>
<path d="M304.046 21.5191H307.002V9.39709H312.148V6.73617H298.9V9.39709H304.046V21.5191Z" fill="white"/>
<path d="M323.402 12.265V12.5015C316.631 12.5015 313.526 14.305 313.526 17.6755C313.526 20.3365 315.271 21.8147 318.05 21.8147C321.096 21.8147 322.663 20.1295 323.402 17.9712V21.5191H326.359V12.5606C326.359 8.45099 324.201 6.44051 320.209 6.44051C316.542 6.44051 314.236 8.24403 313.762 11.6737H316.719C316.956 10.1362 318.139 9.10144 320.209 9.10144C322.219 9.10144 323.402 10.1362 323.402 12.265ZM316.631 17.5277C316.631 15.7537 318.523 14.6302 323.402 14.6302C323.402 17.1729 321.776 19.2721 318.73 19.2721C317.429 19.2721 316.631 18.6512 316.631 17.5277Z" fill="white"/>
<path d="M329.942 21.5191H337.009C341.06 21.5191 342.361 19.3903 342.361 17.3799C342.361 15.399 341.03 14.2755 338.872 13.9207C340.764 13.418 341.711 12.1172 341.711 10.5797C341.711 8.12576 339.907 6.73617 336.625 6.73617H329.942V21.5191ZM336.477 12.8859H332.84V9.24927H336.477C338.014 9.24927 338.665 10.0475 338.665 11.0823C338.665 12.0876 338.014 12.8859 336.477 12.8859ZM336.684 15.2511C338.606 15.2511 339.256 16.1381 339.256 17.0842C339.256 18.1486 338.606 19.006 336.832 19.006H332.84V15.2511H336.684Z" fill="white"/>
<path d="M346.407 14.1276C346.348 17.7938 345.934 18.8582 343.746 18.8582V21.8147C347.797 21.8147 349.039 19.8043 349.187 14.1868L349.305 9.39709H354.687V21.5191H357.644V6.73617H346.555L346.407 14.1276Z" fill="white"/>
<path d="M363.873 21.5191L367.983 16.2859H370.438V21.5191H373.395V6.73617H366.919C362.927 6.73617 361.153 9.2197 361.153 11.7032C361.153 13.8024 362.424 15.3398 364.849 15.9016L360.325 21.5191H363.873ZM367.008 13.9798C365.056 13.9798 364.258 12.8563 364.258 11.7032C364.258 10.4023 365.056 9.36753 366.86 9.36753H370.438V13.9798H367.008Z" fill="white"/>
<path d="M383.928 19.2425C381.207 19.2425 379.492 17.3503 379.285 14.6598H391.527C391.586 14.3642 391.616 14.0389 391.616 13.7433C391.616 9.69275 388.481 6.44051 383.928 6.44051C379.374 6.44051 376.24 9.81102 376.24 14.1276C376.24 18.5921 379.374 21.8147 383.928 21.8147C387.742 21.8147 390.196 20.0704 391.054 16.9364H388.215C387.624 18.2964 386.323 19.2425 383.928 19.2425ZM383.928 9.01274C386.323 9.01274 387.92 10.491 388.452 12.5902H379.433C379.995 10.4319 381.68 9.01274 383.928 9.01274Z" fill="white"/>
<path d="M398.126 21.5191H401.083V9.39709H406.228V6.73617H392.981V9.39709H398.126V21.5191Z" fill="white"/>
<path d="M414.94 19.1538C412.279 19.1538 410.416 17.1729 410.416 14.1276C410.416 11.1119 412.22 9.10144 414.94 9.10144C417.128 9.10144 418.4 10.1658 418.962 12.058H421.918C421.357 8.59882 418.843 6.44051 414.94 6.44051C410.416 6.44051 407.311 9.87015 407.311 14.1276C407.311 18.4147 410.416 21.8147 414.999 21.8147C418.755 21.8147 421.327 19.8043 422.037 16.0494H419.08C418.548 18.119 417.128 19.1538 414.94 19.1538Z" fill="white"/>
<path d="M427.114 21.5191L431.224 16.2859H433.678V21.5191H436.635V6.73617H430.159C426.167 6.73617 424.393 9.2197 424.393 11.7032C424.393 13.8024 425.665 15.3398 428.089 15.9016L423.565 21.5191H427.114ZM430.248 13.9798C428.296 13.9798 427.498 12.8563 427.498 11.7032C427.498 10.4023 428.296 9.36753 430.1 9.36753H433.678V13.9798H430.248Z" fill="white"/>
<path d="M1.12108 53.7727H4.07807V46.8247L10.6722 53.7727H14.6641L7.24205 46.0265L14.1023 38.9898H10.5539L4.07807 45.6421V38.9898H1.12108V53.7727Z" fill="white"/>
<path d="M22.8261 54.0684C27.4094 54.0684 30.6621 50.6683 30.6621 46.3813C30.6621 42.0942 27.4094 38.6941 22.8261 38.6941C18.2427 38.6941 14.9901 42.0942 14.9901 46.3813C14.9901 50.6683 18.2427 54.0684 22.8261 54.0684ZM22.8261 51.4075C20.0169 51.4075 18.0949 49.19 18.0949 46.3813C18.0949 43.5725 20.0169 41.3551 22.8261 41.3551C25.6352 41.3551 27.5573 43.5725 27.5573 46.3813C27.5573 49.19 25.6352 51.4075 22.8261 51.4075Z" fill="white"/>
<path d="M36.449 38.9898H33.492V59.6859H36.449V50.4613C37.5135 52.6492 39.5243 54.0684 42.2152 54.0684C46.3254 54.0684 49.0162 50.6683 49.0162 46.3813C49.0162 42.0942 46.2662 38.6941 42.2152 38.6941C39.5243 38.6941 37.5135 40.1133 36.449 42.3012V38.9898ZM41.1802 41.3551C43.9598 41.3551 45.9114 43.3064 45.9114 46.3813C45.9114 49.4561 43.9598 51.4075 41.1802 51.4075C38.5189 51.4075 36.449 49.3674 36.449 46.3813C36.449 43.4247 38.5189 41.3551 41.1802 41.3551Z" fill="white"/>
<path d="M51.8577 53.7727H54.8147V41.6507H61.4679V53.7727H64.4249V38.9898H51.8577V53.7727Z" fill="white"/>
<path d="M75.0932 54.0684C79.6765 54.0684 82.9292 50.6683 82.9292 46.3813C82.9292 42.0942 79.6765 38.6941 75.0932 38.6941C70.5098 38.6941 67.2572 42.0942 67.2572 46.3813C67.2572 50.6683 70.5098 54.0684 75.0932 54.0684ZM75.0932 51.4075C72.284 51.4075 70.362 49.19 70.362 46.3813C70.362 43.5725 72.284 41.3551 75.0932 41.3551C77.9023 41.3551 79.8244 43.5725 79.8244 46.3813C79.8244 49.19 77.9023 51.4075 75.0932 51.4075Z" fill="white"/>
<path d="M88.7161 38.9898H85.7591V59.6859H88.7161V50.4613C89.7806 52.6492 91.7914 54.0684 94.4823 54.0684C98.5925 54.0684 101.283 50.6683 101.283 46.3813C101.283 42.0942 98.5333 38.6941 94.4823 38.6941C91.7914 38.6941 89.7806 40.1133 88.7161 42.3012V38.9898ZM93.4473 41.3551C96.2269 41.3551 98.1785 43.3064 98.1785 46.3813C98.1785 49.4561 96.2269 51.4075 93.4473 51.4075C90.786 51.4075 88.7161 49.3674 88.7161 46.3813C88.7161 43.4247 90.786 41.3551 93.4473 41.3551Z" fill="white"/>
<path d="M113.265 44.5186V44.7551C106.494 44.7551 103.389 46.5587 103.389 49.9292C103.389 52.5901 105.134 54.0684 107.913 54.0684C110.959 54.0684 112.526 52.3831 113.265 50.2248V53.7727H116.222V44.8143C116.222 40.7046 114.064 38.6941 110.072 38.6941C106.405 38.6941 104.099 40.4977 103.626 43.9273H106.583C106.819 42.3899 108.002 41.3551 110.072 41.3551C112.083 41.3551 113.265 42.3899 113.265 44.5186ZM106.494 49.7813C106.494 48.0074 108.386 46.8839 113.265 46.8839C113.265 49.4265 111.639 51.5257 108.593 51.5257C107.292 51.5257 106.494 50.9048 106.494 49.7813Z" fill="white"/>
<path d="M123.479 53.7727H126.436V41.6507H131.581V38.9898H118.333V41.6507H123.479V53.7727Z" fill="white"/>
<path d="M134.128 53.7727H137.085L144.329 43.2473V53.7727H147.286V38.9898H144.329L137.085 49.5152V38.9898H134.128V53.7727Z" fill="white"/>
<path d="M151.021 53.7727H158.088C162.139 53.7727 163.44 51.644 163.44 49.6335C163.44 47.6526 162.11 46.5291 159.951 46.1743C161.843 45.6717 162.79 44.3708 162.79 42.8334C162.79 40.3794 160.986 38.9898 157.704 38.9898H151.021V53.7727ZM157.556 45.1395H153.919V41.5029H157.556C159.093 41.5029 159.744 42.3012 159.744 43.336C159.744 44.3412 159.093 45.1395 157.556 45.1395ZM157.763 47.5048C159.685 47.5048 160.335 48.3917 160.335 49.3378C160.335 50.4022 159.685 51.2596 157.911 51.2596H153.919V47.5048H157.763Z" fill="white"/>
<path d="M166.297 53.7727H169.254V47.5639H176.203V53.7727H179.16V38.9898H176.203V44.903H169.254V38.9898H166.297V53.7727Z" fill="white"/>
<path d="M182.872 53.7727H189.348C193.34 53.7727 195.114 51.2005 195.114 48.6578C195.114 46.0856 193.34 43.6316 189.348 43.6316H185.829V38.9898H182.872V53.7727ZM197.095 53.7727H200.052V38.9898H197.095V53.7727ZM189.259 46.2334C191.211 46.2334 192.009 47.4161 192.009 48.6578C192.009 50.0474 191.211 51.1414 189.407 51.1414H185.829V46.2334H189.259Z" fill="white"/>
<path d="M205.849 33.0766C205.849 35.5602 207.475 37.2159 210.373 37.2159C213.271 37.2159 214.897 35.5602 214.897 33.0766H212.265C212.265 34.4662 211.556 35.1167 210.373 35.1167C209.19 35.1167 208.48 34.4662 208.48 33.0766H205.849ZM203.779 53.7727H206.736L213.98 43.2473V53.7727H216.937V38.9898H213.98L206.736 49.5152V38.9898H203.779V53.7727Z" fill="white"/>
<path d="M231.622 53.7727H234.579V41.6507H239.725V38.9898H226.477V41.6507H231.622V53.7727Z" fill="white"/>
<path d="M245.229 38.9898H242.272V59.6859H245.229V50.4613C246.293 52.6492 248.304 54.0684 250.995 54.0684C255.105 54.0684 257.796 50.6683 257.796 46.3813C257.796 42.0942 255.046 38.6941 250.995 38.6941C248.304 38.6941 246.293 40.1133 245.229 42.3012V38.9898ZM249.96 41.3551C252.739 41.3551 254.691 43.3064 254.691 46.3813C254.691 49.4561 252.739 51.4075 249.96 51.4075C247.299 51.4075 245.229 49.3674 245.229 46.3813C245.229 43.4247 247.299 41.3551 249.96 41.3551Z" fill="white"/>
<path d="M269.778 44.5186V44.7551C263.006 44.7551 259.902 46.5587 259.902 49.9292C259.902 52.5901 261.646 54.0684 264.426 54.0684C267.471 54.0684 269.039 52.3831 269.778 50.2248V53.7727H272.735V44.8143C272.735 40.7046 270.576 38.6941 266.584 38.6941C262.918 38.6941 260.611 40.4977 260.138 43.9273H263.095C263.332 42.3899 264.514 41.3551 266.584 41.3551C268.595 41.3551 269.778 42.3899 269.778 44.5186ZM263.006 49.7813C263.006 48.0074 264.899 46.8839 269.778 46.8839C269.778 49.4265 268.152 51.5257 265.106 51.5257C263.805 51.5257 263.006 50.9048 263.006 49.7813Z" fill="white"/>
<path d="M276.317 53.7727H279.274V47.5639H286.223V53.7727H289.18V38.9898H286.223V44.903H279.274V38.9898H276.317V53.7727Z" fill="white"/>
<path d="M299.635 51.4075C296.973 51.4075 295.111 49.4265 295.111 46.3813C295.111 43.3656 296.914 41.3551 299.635 41.3551C301.823 41.3551 303.094 42.4194 303.656 44.3117H306.613C306.051 40.8525 303.538 38.6941 299.635 38.6941C295.111 38.6941 292.006 42.1238 292.006 46.3813C292.006 50.6683 295.111 54.0684 299.694 54.0684C303.449 54.0684 306.022 52.0579 306.732 48.303H303.775C303.242 50.3727 301.823 51.4075 299.635 51.4075Z" fill="white"/>
<path d="M309.584 53.7727H312.541V41.6507H319.194V53.7727H322.151V38.9898H309.584V53.7727Z" fill="white"/>
<path d="M332.819 54.0684C337.402 54.0684 340.655 50.6683 340.655 46.3813C340.655 42.0942 337.402 38.6941 332.819 38.6941C328.236 38.6941 324.983 42.0942 324.983 46.3813C324.983 50.6683 328.236 54.0684 332.819 54.0684ZM332.819 51.4075C330.01 51.4075 328.088 49.19 328.088 46.3813C328.088 43.5725 330.01 41.3551 332.819 41.3551C335.628 41.3551 337.55 43.5725 337.55 46.3813C337.55 49.19 335.628 51.4075 332.819 51.4075Z" fill="white"/>
<path d="M346.442 38.9898H343.485V59.6859H346.442V50.4613C347.507 52.6492 349.517 54.0684 352.208 54.0684C356.318 54.0684 359.009 50.6683 359.009 46.3813C359.009 42.0942 356.259 38.6941 352.208 38.6941C349.517 38.6941 347.507 40.1133 346.442 42.3012V38.9898ZM351.173 41.3551C353.953 41.3551 355.904 43.3064 355.904 46.3813C355.904 49.4561 353.953 51.4075 351.173 51.4075C348.512 51.4075 346.442 49.3674 346.442 46.3813C346.442 43.4247 348.512 41.3551 351.173 41.3551Z" fill="white"/>
<path d="M365.236 53.7727H368.193V41.6507H373.338V38.9898H360.09V41.6507H365.236V53.7727Z" fill="white"/>
<path d="M1.12108 86.0264H4.07807L11.3227 75.5009V86.0264H14.2797V71.2434H11.3227L4.07807 81.7689V71.2434H1.12108V86.0264Z" fill="white"/>
<path d="M25.0022 86.0264H27.9592V73.9044H34.6125V86.0264H37.5694V71.2434H25.0022V86.0264Z" fill="white"/>
<path d="M41.2888 86.0264H44.2458L51.4904 75.5009V86.0264H54.4474V71.2434H51.4904L44.2458 81.7689V71.2434H41.2888V86.0264Z" fill="white"/>
<path d="M62.1441 86.0264H65.1011V73.9044H70.2463V71.2434H56.9989V73.9044H62.1441V86.0264Z" fill="white"/>
<path d="M81.5008 76.7723V77.0088C74.7293 77.0088 71.6245 78.8123 71.6245 82.1828C71.6245 84.8437 73.3691 86.322 76.1487 86.322C79.1944 86.322 80.7616 84.6368 81.5008 82.4785V86.0264H84.4578V77.0679C84.4578 72.9583 82.2992 70.9478 78.3073 70.9478C74.6406 70.9478 72.3342 72.7513 71.8611 76.1809H74.818C75.0546 74.6435 76.2374 73.6087 78.3073 73.6087C80.318 73.6087 81.5008 74.6435 81.5008 76.7723ZM74.7293 82.035C74.7293 80.261 76.6218 79.1375 81.5008 79.1375C81.5008 81.6802 79.8745 83.7794 76.8288 83.7794C75.5277 83.7794 74.7293 83.1585 74.7293 82.035Z" fill="white"/>
<path d="M88.0404 86.0264H90.9974V79.8175H97.9463V86.0264H100.903V71.2434H97.9463V77.1566H90.9974V71.2434H88.0404V86.0264Z" fill="white"/>
<path d="M104.616 86.0264H107.573L114.817 75.5009V86.0264H117.774V71.2434H114.817L107.573 81.7689V71.2434H104.616V86.0264Z" fill="white"/>
<path d="M128.31 83.7498C125.589 83.7498 123.874 81.8576 123.667 79.1671H135.909C135.968 78.8714 135.998 78.5462 135.998 78.2505C135.998 74.2 132.864 70.9478 128.31 70.9478C123.756 70.9478 120.622 74.3183 120.622 78.6349C120.622 83.0993 123.756 86.322 128.31 86.322C132.124 86.322 134.579 84.5776 135.436 81.4436H132.597C132.006 82.8037 130.705 83.7498 128.31 83.7498ZM128.31 73.52C130.705 73.52 132.302 74.9983 132.834 77.0975H123.815C124.377 74.9392 126.062 73.52 128.31 73.52Z" fill="white"/>
<path d="M140.143 86.322C141.355 86.322 142.331 85.3463 142.331 84.075C142.331 82.8924 141.355 81.9758 140.143 81.9758C138.901 81.9758 137.955 82.8924 137.955 84.075C137.955 85.3463 138.901 86.322 140.143 86.322Z" fill="white"/>
</g>
</svg>
