<svg width="442" height="157" viewBox="0 0 442 157" fill="none" xmlns="http://www.w3.org/2000/svg">
<g id="&#208;&#147;&#208;&#190;&#209;&#128;&#208;&#190;&#208;&#180;&#209;&#129;&#208;&#186;&#208;&#190;&#208;&#181; &#208;&#177;&#208;&#184;&#209;&#129;&#209;&#130;&#209;&#128;&#208;&#190; &#194;&#171;&#208;&#144;&#208;&#146; &#208;&#147;&#209;&#128;&#208;&#176;&#208;&#189;&#208;&#180;-&#208;&#186;&#208;&#176;&#209;&#132;&#208;&#181;&#194;&#187;, &#208;&#186;&#208;&#190;&#209;&#128;&#208;&#189;&#208;&#181;&#209;&#128;&#209;&#139; &#208;&#178; &#208;&#188;&#208;&#176;&#208;&#179;&#208;&#176;&#208;&#183;&#208;&#184;&#208;&#189;&#208;&#176;&#209;&#133; &#209;&#129;&#194;&#160;&#208;&#191;&#209;&#128;&#208;&#184;&#208;&#179;&#208;&#190;&#209;&#130;&#208;&#190;&#208;&#178;&#208;&#187;&#208;&#181;&#208;&#189;&#208;&#184;&#208;&#181;&#208;&#188; &#208;&#189;&#208;&#176; &#208;&#188;&#208;&#181;&#209;&#129;&#209;&#130;&#208;&#176;&#209;&#133; &#208;&#184;&#194;&#160;&#208;&#186;&#208;&#176;&#209;&#132;&#208;&#181;&#209;&#130;&#208;&#181;&#209;&#128;&#208;&#184;&#208;&#184; &#209;&#129; &#208;&#178;&#209;&#139;&#208;&#191;&#208;&#181;&#209;&#135;&#208;&#186;&#208;&#190;&#208;&#185; &#208;&#184; &#208;&#186;&#208;&#190;&#209;&#132;&#208;&#181; &#209;&#129;&#208;&#190;&#208;&#177;&#209;&#129;&#209;&#130;&#208;&#178;&#208;&#181;&#208;&#189;&#208;&#189;&#208;&#190;&#208;&#185; &#208;&#190;&#208;&#177;&#208;&#182;&#208;&#176;&#209;&#128;&#208;&#186;&#208;&#184;.">
<path d="M1.26883 21.7879H4.37367V3.90056H14.871V1.0918H1.26883V21.7879Z" fill="white"/>
<path d="M21.2955 22.0836C25.8788 22.0836 29.1315 18.6835 29.1315 14.3964C29.1315 10.1094 25.8788 6.70932 21.2955 6.70932C16.7122 6.70932 13.4595 10.1094 13.4595 14.3964C13.4595 18.6835 16.7122 22.0836 21.2955 22.0836ZM21.2955 19.4226C18.4864 19.4226 16.5643 17.2052 16.5643 14.3964C16.5643 11.5877 18.4864 9.37024 21.2955 9.37024C24.1046 9.37024 26.0267 11.5877 26.0267 14.3964C26.0267 17.2052 24.1046 19.4226 21.2955 19.4226Z" fill="white"/>
<path d="M34.9184 7.00498H31.9615V27.7011H34.9184V18.4765C35.983 20.6644 37.9937 22.0836 40.6846 22.0836C44.7948 22.0836 47.4857 18.6835 47.4857 14.3964C47.4857 10.1094 44.7357 6.70932 40.6846 6.70932C37.9937 6.70932 35.983 8.12848 34.9184 10.3164V7.00498ZM39.6496 9.37024C42.4292 9.37024 44.3808 11.3216 44.3808 14.3964C44.3808 17.4713 42.4292 19.4226 39.6496 19.4226C36.9883 19.4226 34.9184 17.3826 34.9184 14.3964C34.9184 11.4399 36.9883 9.37024 39.6496 9.37024Z" fill="white"/>
<path d="M57.2761 22.0836C61.8594 22.0836 65.1121 18.6835 65.1121 14.3964C65.1121 10.1094 61.8594 6.70932 57.2761 6.70932C52.6927 6.70932 49.44 10.1094 49.44 14.3964C49.44 18.6835 52.6927 22.0836 57.2761 22.0836ZM57.2761 19.4226C54.4669 19.4226 52.5449 17.2052 52.5449 14.3964C52.5449 11.5877 54.4669 9.37024 57.2761 9.37024C60.0852 9.37024 62.0072 11.5877 62.0072 14.3964C62.0072 17.2052 60.0852 19.4226 57.2761 19.4226Z" fill="white"/>
<path d="M66.3226 25.0401H69.1317V21.7879H79.9543V25.0401H82.7635V19.127H80.6936V7.00498H69.3683V8.69023C69.3683 15.0765 68.7769 17.6783 68.1559 19.127H66.3226V25.0401ZM71.0834 19.127C71.6156 17.7669 72.0887 15.6678 72.1479 9.6659H77.7366V19.127H71.0834Z" fill="white"/>
<path d="M91.8946 19.4226C89.2333 19.4226 87.3704 17.4417 87.3704 14.3964C87.3704 11.3807 89.1741 9.37024 91.8946 9.37024C94.0827 9.37024 95.3542 10.4346 95.9161 12.3268H98.8731C98.3112 8.86763 95.7978 6.70932 91.8946 6.70932C87.3704 6.70932 84.2655 10.139 84.2655 14.3964C84.2655 18.6835 87.3704 22.0836 91.9537 22.0836C95.7091 22.0836 98.2817 20.0731 98.9913 16.3182H96.0343C95.5021 18.3878 94.0827 19.4226 91.8946 19.4226Z" fill="white"/>
<path d="M101.843 21.7879H104.8V14.8399L111.395 21.7879H115.386L107.964 14.0417L114.825 7.00498H111.276L104.8 13.6573V7.00498H101.843V21.7879Z" fill="white"/>
<path d="M123.548 22.0836C128.132 22.0836 131.384 18.6835 131.384 14.3964C131.384 10.1094 128.132 6.70932 123.548 6.70932C118.965 6.70932 115.712 10.1094 115.712 14.3964C115.712 18.6835 118.965 22.0836 123.548 22.0836ZM123.548 19.4226C120.739 19.4226 118.817 17.2052 118.817 14.3964C118.817 11.5877 120.739 9.37024 123.548 9.37024C126.358 9.37024 128.28 11.5877 128.28 14.3964C128.28 17.2052 126.358 19.4226 123.548 19.4226Z" fill="white"/>
<path d="M141.015 19.5113C138.295 19.5113 136.58 17.6191 136.373 14.9286H148.615C148.674 14.633 148.704 14.3077 148.704 14.0121C148.704 9.96156 145.569 6.70932 141.015 6.70932C136.462 6.70932 133.327 10.0798 133.327 14.3964C133.327 18.8609 136.462 22.0836 141.015 22.0836C144.83 22.0836 147.284 20.3392 148.142 17.2052H145.303C144.712 18.5652 143.411 19.5113 141.015 19.5113ZM141.015 9.28155C143.411 9.28155 145.007 10.7598 145.54 12.859H136.521C137.083 10.7007 138.768 9.28155 141.015 9.28155Z" fill="white"/>
<path d="M165.596 22.0836C170.298 22.0836 173.432 18.8018 173.432 14.6921C173.432 10.6416 170.859 7.3302 166.66 7.3302C163.881 7.3302 161.604 8.92676 160.628 11.2329C160.746 6.82758 162.048 4.96493 167.074 4.31448C170.12 3.93013 172.19 3.30925 172.663 0.500488H169.884C169.677 1.23963 168.612 1.47616 166.601 1.71269C160.392 2.45183 157.789 5.52668 157.789 12.6816C157.789 15.2243 158.115 17.2348 159.091 18.7426C160.244 20.5757 162.58 22.0836 165.596 22.0836ZM165.596 19.4226C162.846 19.4226 160.894 17.4713 160.894 14.6921C160.894 11.972 162.846 9.99113 165.596 9.99113C168.375 9.99113 170.327 11.972 170.327 14.6921C170.327 17.4713 168.375 19.4226 165.596 19.4226Z" fill="white"/>
<path d="M176.259 21.7879H179.216L186.461 11.2625V21.7879H189.418V7.00498H186.461L179.216 17.5304V7.00498H176.259V21.7879Z" fill="white"/>
<path d="M199.894 19.4226C197.233 19.4226 195.37 17.4417 195.37 14.3964C195.37 11.3807 197.174 9.37024 199.894 9.37024C202.082 9.37024 203.354 10.4346 203.915 12.3268H206.872C206.311 8.86763 203.797 6.70932 199.894 6.70932C195.37 6.70932 192.265 10.139 192.265 14.3964C192.265 18.6835 195.37 22.0836 199.953 22.0836C203.708 22.0836 206.281 20.0731 206.991 16.3182H204.034C203.502 18.3878 202.082 19.4226 199.894 19.4226Z" fill="white"/>
<path d="M213.516 21.7879H216.473V9.6659H221.619V7.00498H208.371V9.6659H213.516V21.7879Z" fill="white"/>
<path d="M227.123 7.00498H224.166V27.7011H227.123V18.4765C228.187 20.6644 230.198 22.0836 232.889 22.0836C236.999 22.0836 239.69 18.6835 239.69 14.3964C239.69 10.1094 236.94 6.70932 232.889 6.70932C230.198 6.70932 228.187 8.12848 227.123 10.3164V7.00498ZM231.854 9.37024C234.634 9.37024 236.585 11.3216 236.585 14.3964C236.585 17.4713 234.634 19.4226 231.854 19.4226C229.193 19.4226 227.123 17.3826 227.123 14.3964C227.123 11.4399 229.193 9.37024 231.854 9.37024Z" fill="white"/>
<path d="M249.48 22.0836C254.064 22.0836 257.316 18.6835 257.316 14.3964C257.316 10.1094 254.064 6.70932 249.48 6.70932C244.897 6.70932 241.644 10.1094 241.644 14.3964C241.644 18.6835 244.897 22.0836 249.48 22.0836ZM249.48 19.4226C246.671 19.4226 244.749 17.2052 244.749 14.3964C244.749 11.5877 246.671 9.37024 249.48 9.37024C252.29 9.37024 254.212 11.5877 254.212 14.3964C254.212 17.2052 252.29 19.4226 249.48 19.4226Z" fill="white"/>
<path d="M274.083 18.3287L270.032 14.0712L274.083 9.81373L272.161 8.18761L266.484 14.1895L272.161 20.1618L274.083 18.3287ZM280.441 18.3287L276.39 14.0712L280.441 9.81373L278.519 8.18761L272.842 14.1895L278.519 20.1618L280.441 18.3287Z" fill="white"/>
<path d="M282.168 21.7879H285.214L287.402 16.0226H295.918L298.136 21.7879H301.388L293.405 1.0918H290.152L282.168 21.7879ZM288.437 13.3616L291.63 4.93537L294.883 13.3616H288.437Z" fill="white"/>
<path d="M312.689 21.7879C317.45 21.7879 319.342 18.92 319.342 15.8747C319.342 13.7164 317.923 11.5581 314.433 11.0259C317.243 10.2868 318.307 8.30587 318.307 6.41366C318.307 3.75273 316.444 1.0918 311.802 1.0918H303.552V21.7879H312.689ZM311.713 3.84143C314.049 3.84143 315.054 5.17189 315.054 6.85715C315.054 8.48327 314.019 9.99113 311.565 9.99113H306.657V3.84143H311.713ZM312.6 12.6521C315.025 12.6521 316.089 14.1008 316.089 15.8747C316.089 17.5009 315.025 19.0383 312.452 19.0383H306.657V12.6521H312.6Z" fill="white"/>
<path d="M328.934 21.7879H332.039V3.90056H342.537V1.0918H328.934V21.7879Z" fill="white"/>
<path d="M344.969 7.00498H342.012V27.7011H344.969V18.4765C346.034 20.6644 348.044 22.0836 350.735 22.0836C354.846 22.0836 357.536 18.6835 357.536 14.3964C357.536 10.1094 354.786 6.70932 350.735 6.70932C348.044 6.70932 346.034 8.12848 344.969 10.3164V7.00498ZM349.7 9.37024C352.48 9.37024 354.432 11.3216 354.432 14.3964C354.432 17.4713 352.48 19.4226 349.7 19.4226C347.039 19.4226 344.969 17.3826 344.969 14.3964C344.969 11.4399 347.039 9.37024 349.7 9.37024Z" fill="white"/>
<path d="M369.518 12.5338V12.7703C362.747 12.7703 359.642 14.5738 359.642 17.9443C359.642 20.6053 361.387 22.0836 364.166 22.0836C367.212 22.0836 368.779 20.3983 369.518 18.24V21.7879H372.475V12.8295C372.475 8.7198 370.317 6.70932 366.325 6.70932C362.658 6.70932 360.352 8.51283 359.879 11.9425H362.836C363.072 10.4051 364.255 9.37024 366.325 9.37024C368.336 9.37024 369.518 10.4051 369.518 12.5338ZM362.747 17.7965C362.747 16.0226 364.639 14.8991 369.518 14.8991C369.518 17.4417 367.892 19.5409 364.846 19.5409C363.545 19.5409 362.747 18.92 362.747 17.7965Z" fill="white"/>
<path d="M376.058 21.7879H379.015V15.5791H385.964V21.7879H388.921V7.00498H385.964V12.9181H379.015V7.00498H376.058V21.7879Z" fill="white"/>
<path d="M391.303 25.0401H394.112V21.7879H404.934V25.0401H407.744V19.127H405.674V7.00498H394.348V8.69023C394.348 15.0765 393.757 17.6783 393.136 19.127H391.303V25.0401ZM396.063 19.127C396.596 17.7669 397.069 15.6678 397.128 9.6659H402.717V19.127H396.063Z" fill="white"/>
<path d="M419.743 15.5791V12.9181H409.837V15.5791H419.743Z" fill="white"/>
<path d="M1.12098 54.0416H4.07797V47.0936L10.6721 54.0416H14.664L7.24195 46.2953L14.1022 39.2586H10.5538L4.07797 45.911V39.2586H1.12098V54.0416Z" fill="white"/>
<path d="M25.162 44.7875V45.024C18.3905 45.024 15.2857 46.8275 15.2857 50.198C15.2857 52.8589 17.0303 54.3372 19.8099 54.3372C22.8556 54.3372 24.4228 52.652 25.162 50.4937V54.0416H28.119V45.0831C28.119 40.9735 25.9604 38.963 21.9685 38.963C18.3018 38.963 15.9953 40.7665 15.5222 44.1961H18.4792C18.7158 42.6587 19.8986 41.6239 21.9685 41.6239C23.9792 41.6239 25.162 42.6587 25.162 44.7875ZM18.3905 50.0502C18.3905 48.2762 20.283 47.1527 25.162 47.1527C25.162 49.6954 23.5357 51.7946 20.49 51.7946C19.1889 51.7946 18.3905 51.1737 18.3905 50.0502Z" fill="white"/>
<path d="M38.9462 59.9547H41.9032V54.3372C46.2795 54.1303 50.0349 51.3806 50.0349 46.6501C50.0349 41.9196 46.2795 39.1404 41.9032 38.963V33.3455H38.9462V38.963C34.5699 39.1404 30.8145 41.9196 30.8145 46.6501C30.8145 51.3806 34.5699 54.1303 38.9462 54.3372V59.9547ZM33.9193 46.6501C33.9193 43.3387 36.344 41.6535 38.9462 41.5352V51.765C36.344 51.6467 33.9193 49.9615 33.9193 46.6501ZM41.9032 41.5352C44.4758 41.6535 46.9301 43.3387 46.9301 46.6501C46.9301 49.9615 44.4758 51.6467 41.9032 51.765V41.5352Z" fill="white"/>
<path d="M59.6694 51.765C56.9489 51.765 55.2339 49.8728 55.0269 47.1823H67.2688C67.328 46.8866 67.3576 46.5614 67.3576 46.2657C67.3576 42.2152 64.2231 38.963 59.6694 38.963C55.1156 38.963 51.9812 42.3335 51.9812 46.6501C51.9812 51.1145 55.1156 54.3372 59.6694 54.3372C63.4839 54.3372 65.9382 52.5928 66.7957 49.4589H63.957C63.3656 50.8189 62.0645 51.765 59.6694 51.765ZM59.6694 41.5352C62.0645 41.5352 63.6613 43.0135 64.1936 45.1127H55.1748C55.7366 42.9544 57.4221 41.5352 59.6694 41.5352Z" fill="white"/>
<path d="M76.8476 42.2744L80.8987 46.5318L76.8476 50.7893L78.7697 52.4154L84.4471 46.4136L78.7697 40.4413L76.8476 42.2744ZM70.4901 42.2744L74.5412 46.5318L70.4901 50.7893L72.4121 52.4154L78.0896 46.4136L72.4121 40.4413L70.4901 42.2744Z" fill="white"/>
<path d="M87.8754 56.7025H89.4721L90.7436 53.9233C91.1872 52.9476 91.3055 52.445 91.3055 52.0902C91.3055 50.878 90.3297 49.991 89.1173 49.991C87.8754 49.991 86.9291 50.878 86.9291 52.0902C86.9291 52.8589 87.2544 53.5981 88.3781 54.1007L87.8754 56.7025Z" fill="white"/>
<path d="M101.439 54.0416H104.396V47.0936L110.99 54.0416H114.982L107.56 46.2953L114.42 39.2586H110.872L104.396 45.911V39.2586H101.439V54.0416Z" fill="white"/>
<path d="M123.144 54.3372C127.728 54.3372 130.98 50.9372 130.98 46.6501C130.98 42.3631 127.728 38.963 123.144 38.963C118.561 38.963 115.308 42.3631 115.308 46.6501C115.308 50.9372 118.561 54.3372 123.144 54.3372ZM123.144 51.6763C120.335 51.6763 118.413 49.4589 118.413 46.6501C118.413 43.8413 120.335 41.6239 123.144 41.6239C125.953 41.6239 127.875 43.8413 127.875 46.6501C127.875 49.4589 125.953 51.6763 123.144 51.6763Z" fill="white"/>
<path d="M136.767 39.2586H133.81V59.9547H136.767V50.7302C137.832 52.9181 139.842 54.3372 142.533 54.3372C146.643 54.3372 149.334 50.9372 149.334 46.6501C149.334 42.3631 146.584 38.963 142.533 38.963C139.842 38.963 137.832 40.3821 136.767 42.57V39.2586ZM141.498 41.6239C144.278 41.6239 146.229 43.5753 146.229 46.6501C146.229 49.725 144.278 51.6763 141.498 51.6763C138.837 51.6763 136.767 49.6363 136.767 46.6501C136.767 43.6935 138.837 41.6239 141.498 41.6239Z" fill="white"/>
<path d="M152.176 54.0416H155.133V47.8327H162.082V54.0416H165.039V39.2586H162.082V45.1718H155.133V39.2586H152.176V54.0416Z" fill="white"/>
<path d="M175.552 51.765C172.832 51.765 171.117 49.8728 170.91 47.1823H183.152C183.211 46.8866 183.24 46.5614 183.24 46.2657C183.24 42.2152 180.106 38.963 175.552 38.963C170.998 38.963 167.864 42.3335 167.864 46.6501C167.864 51.1145 170.998 54.3372 175.552 54.3372C179.367 54.3372 181.821 52.5928 182.679 49.4589H179.84C179.248 50.8189 177.947 51.765 175.552 51.765ZM175.552 41.5352C177.947 41.5352 179.544 43.0135 180.076 45.1127H171.058C171.619 42.9544 173.305 41.5352 175.552 41.5352Z" fill="white"/>
<path d="M189.034 39.2586H186.077V59.9547H189.034V50.7302C190.099 52.9181 192.109 54.3372 194.8 54.3372C198.911 54.3372 201.601 50.9372 201.601 46.6501C201.601 42.3631 198.851 38.963 194.8 38.963C192.109 38.963 190.099 40.3821 189.034 42.57V39.2586ZM193.765 41.6239C196.545 41.6239 198.497 43.5753 198.497 46.6501C198.497 49.725 196.545 51.6763 193.765 51.6763C191.104 51.6763 189.034 49.6363 189.034 46.6501C189.034 43.6935 191.104 41.6239 193.765 41.6239Z" fill="white"/>
<path d="M204.443 54.0416H210.919C214.911 54.0416 216.685 51.4693 216.685 48.9267C216.685 46.3544 214.911 43.9005 210.919 43.9005H207.4V39.2586H204.443V54.0416ZM218.666 54.0416H221.623V39.2586H218.666V54.0416ZM210.83 46.5023C212.782 46.5023 213.58 47.6849 213.58 48.9267C213.58 50.3163 212.782 51.4102 210.978 51.4102H207.4V46.5023H210.83Z" fill="white"/>
<path d="M232.338 54.0416H239.405C243.456 54.0416 244.757 51.9128 244.757 49.9023C244.757 47.9214 243.427 46.7979 241.268 46.4431C243.161 45.9405 244.107 44.6396 244.107 43.1022C244.107 40.6482 242.303 39.2586 239.021 39.2586H232.338V54.0416ZM238.873 45.4083H235.236V41.7717H238.873C240.411 41.7717 241.061 42.57 241.061 43.6048C241.061 44.6101 240.411 45.4083 238.873 45.4083ZM239.08 47.7736C241.002 47.7736 241.652 48.6606 241.652 49.6067C241.652 50.6711 241.002 51.5285 239.228 51.5285H235.236V47.7736H239.08Z" fill="white"/>
<path d="M254.746 54.0416H257.556V42.7474L262.109 54.0416H264.475L269.029 42.7474V54.0416H271.986V39.2586H267.816L263.44 50.1684L259.034 39.2586H254.746V54.0416Z" fill="white"/>
<path d="M284.996 44.7875V45.024C278.224 45.024 275.12 46.8275 275.12 50.198C275.12 52.8589 276.864 54.3372 279.644 54.3372C282.689 54.3372 284.257 52.652 284.996 50.4937V54.0416H287.953V45.0831C287.953 40.9735 285.794 38.963 281.802 38.963C278.136 38.963 275.829 40.7665 275.356 44.1961H278.313C278.55 42.6587 279.732 41.6239 281.802 41.6239C283.813 41.6239 284.996 42.6587 284.996 44.7875ZM278.224 50.0502C278.224 48.2762 280.117 47.1527 284.996 47.1527C284.996 49.6954 283.37 51.7946 280.324 51.7946C279.023 51.7946 278.224 51.1737 278.224 50.0502Z" fill="white"/>
<path d="M291.535 54.0416H294.492V41.9196H301.53V39.2586H291.535V54.0416Z" fill="white"/>
<path d="M312.775 44.7875V45.024C306.004 45.024 302.899 46.8275 302.899 50.198C302.899 52.8589 304.644 54.3372 307.423 54.3372C310.469 54.3372 312.036 52.652 312.775 50.4937V54.0416H315.732V45.0831C315.732 40.9735 313.574 38.963 309.582 38.963C305.915 38.963 303.609 40.7665 303.136 44.1961H306.093C306.329 42.6587 307.512 41.6239 309.582 41.6239C311.593 41.6239 312.775 42.6587 312.775 44.7875ZM306.004 50.0502C306.004 48.2762 307.896 47.1527 312.775 47.1527C312.775 49.6954 311.149 51.7946 308.103 51.7946C306.802 51.7946 306.004 51.1737 306.004 50.0502Z" fill="white"/>
<path d="M324.963 54.3372C329.517 54.3372 331.409 52.1494 331.409 49.7545C331.409 48.0988 330.226 46.7684 328.334 46.3544C330.019 45.911 330.936 44.6396 330.936 43.1318C330.936 40.8848 329.132 38.963 324.992 38.963C321.237 38.963 318.871 40.9143 318.576 43.9596H321.651C321.917 42.7474 322.716 41.6239 324.933 41.6239C326.914 41.6239 327.831 42.5109 327.831 43.6048C327.831 44.6692 327.151 45.3788 325.052 45.3788H323.011V47.8919H325.495C327.535 47.8919 328.304 48.6606 328.304 49.6658C328.304 50.7302 327.624 51.6763 324.963 51.6763C322.716 51.6763 321.71 50.7302 321.355 49.1928H318.28C318.576 52.238 320.646 54.3372 324.963 54.3372Z" fill="white"/>
<path d="M334.389 54.0416H337.346L344.59 43.5161V54.0416H347.547V39.2586H344.59L337.346 49.7841V39.2586H334.389V54.0416Z" fill="white"/>
<path d="M351.282 54.0416H354.239V47.8327H361.188V54.0416H364.145V39.2586H361.188V45.1718H354.239V39.2586H351.282V54.0416Z" fill="white"/>
<path d="M377.142 44.7875V45.024C370.37 45.024 367.266 46.8275 367.266 50.198C367.266 52.8589 369.01 54.3372 371.79 54.3372C374.835 54.3372 376.403 52.652 377.142 50.4937V54.0416H380.099V45.0831C380.099 40.9735 377.94 38.963 373.948 38.963C370.282 38.963 367.975 40.7665 367.502 44.1961H370.459C370.696 42.6587 371.878 41.6239 373.948 41.6239C375.959 41.6239 377.142 42.6587 377.142 44.7875ZM370.37 50.0502C370.37 48.2762 372.263 47.1527 377.142 47.1527C377.142 49.6954 375.516 51.7946 372.47 51.7946C371.169 51.7946 370.37 51.1737 370.37 50.0502Z" fill="white"/>
<path d="M385.456 54.0416L389.329 48.7493L393.144 54.0416H396.663L391.222 46.5023L396.426 39.2586H393.233L389.684 44.344L386.018 39.2586H382.499L387.792 46.591L382.203 54.0416H385.456Z" fill="white"/>
<path d="M7.86292 83.93C5.20163 83.93 3.33873 81.9491 3.33873 78.9038C3.33873 75.888 5.14249 73.8776 7.86292 73.8776C10.0511 73.8776 11.3226 74.9419 11.8844 76.8342H14.8414C14.2796 73.3749 11.7661 71.2166 7.86292 71.2166C3.33873 71.2166 0.233887 74.6463 0.233887 78.9038C0.233887 83.1908 3.33873 86.5909 7.92206 86.5909C11.6774 86.5909 14.25 84.5804 14.9597 80.8255H12.0027C11.4704 82.8952 10.0511 83.93 7.86292 83.93Z" fill="white"/>
<path d="M24.8 86.2952H27.757V74.1732H34.4102V86.2952H37.3672V71.5123H24.8V86.2952Z" fill="white"/>
<path d="M44.0435 71.5123H41.0865V92.2084H44.0435V82.9839C45.108 85.1717 47.1188 86.5909 49.8097 86.5909C53.9199 86.5909 56.6107 83.1908 56.6107 78.9038C56.6107 74.6167 53.8607 71.2166 49.8097 71.2166C47.1188 71.2166 45.108 72.6358 44.0435 74.8237V71.5123ZM48.7747 73.8776C51.5543 73.8776 53.5059 75.8289 53.5059 78.9038C53.5059 81.9786 51.5543 83.93 48.7747 83.93C46.1134 83.93 44.0435 81.8899 44.0435 78.9038C44.0435 75.9472 46.1134 73.8776 48.7747 73.8776Z" fill="white"/>
<path d="M59.4522 86.2952H62.4092L69.6538 75.7698V86.2952H72.6108V71.5123H69.6538L62.4092 82.0378V71.5123H59.4522V86.2952Z" fill="white"/>
<path d="M76.3452 86.2952H79.3022V74.1732H86.3398V71.5123H76.3452V86.2952Z" fill="white"/>
<path d="M95.0759 86.5909C99.6592 86.5909 102.912 83.1908 102.912 78.9038C102.912 74.6167 99.6592 71.2166 95.0759 71.2166C90.4925 71.2166 87.2398 74.6167 87.2398 78.9038C87.2398 83.1908 90.4925 86.5909 95.0759 86.5909ZM95.0759 83.93C92.2667 83.93 90.3447 81.7125 90.3447 78.9038C90.3447 76.095 92.2667 73.8776 95.0759 73.8776C97.885 73.8776 99.8071 76.095 99.8071 78.9038C99.8071 81.7125 97.885 83.93 95.0759 83.93Z" fill="white"/>
<path d="M109.127 86.2952H112.084V74.1732H117.229V71.5123H103.981V74.1732H109.127V86.2952Z" fill="white"/>
<path d="M126.147 86.5909C130.731 86.5909 133.983 83.1908 133.983 78.9038C133.983 74.6167 130.731 71.2166 126.147 71.2166C121.564 71.2166 118.311 74.6167 118.311 78.9038C118.311 83.1908 121.564 86.5909 126.147 86.5909ZM126.147 83.93C123.338 83.93 121.416 81.7125 121.416 78.9038C121.416 76.095 123.338 73.8776 126.147 73.8776C128.956 73.8776 130.879 76.095 130.879 78.9038C130.879 81.7125 128.956 83.93 126.147 83.93Z" fill="white"/>
<path d="M136.813 86.2952H143.881C147.932 86.2952 149.233 84.1665 149.233 82.156C149.233 80.1751 147.902 79.0516 145.743 78.6968C147.636 78.1942 148.582 76.8933 148.582 75.3559C148.582 72.9019 146.778 71.5123 143.496 71.5123H136.813V86.2952ZM143.348 77.662H139.711V74.0254H143.348C144.886 74.0254 145.536 74.8237 145.536 75.8585C145.536 76.8637 144.886 77.662 143.348 77.662ZM143.555 80.0273C145.477 80.0273 146.128 80.9142 146.128 81.8604C146.128 82.9247 145.477 83.7821 143.703 83.7821H139.711V80.0273H143.555Z" fill="white"/>
<path d="M153.279 78.9038C153.22 82.5699 152.806 83.6343 150.618 83.6343V86.5909C154.669 86.5909 155.911 84.5804 156.058 78.9629L156.177 74.1732H161.558V86.2952H164.515V71.5123H153.427L153.279 78.9038Z" fill="white"/>
<path d="M175.032 84.0187C172.312 84.0187 170.597 82.1264 170.39 79.436H182.632C182.691 79.1403 182.721 78.8151 182.721 78.5194C182.721 74.4689 179.586 71.2166 175.032 71.2166C170.479 71.2166 167.344 74.5872 167.344 78.9038C167.344 83.3682 170.479 86.5909 175.032 86.5909C178.847 86.5909 181.301 84.8465 182.159 81.7125H179.32C178.729 83.0725 177.428 84.0187 175.032 84.0187ZM175.032 73.7889C177.428 73.7889 179.024 75.2672 179.557 77.3663H170.538C171.1 75.208 172.785 73.7889 175.032 73.7889Z" fill="white"/>
<path d="M185.557 86.2952H188.514V80.0864H195.463V86.2952H198.42V71.5123H195.463V77.4255H188.514V71.5123H185.557V86.2952Z" fill="white"/>
<path d="M202.133 86.2952H205.09L212.334 75.7698V86.2952H215.291V71.5123H212.334L205.09 82.0378V71.5123H202.133V86.2952Z" fill="white"/>
<path d="M225.827 84.0187C223.106 84.0187 221.391 82.1264 221.184 79.436H233.426C233.485 79.1403 233.515 78.8151 233.515 78.5194C233.515 74.4689 230.381 71.2166 225.827 71.2166C221.273 71.2166 218.139 74.5872 218.139 78.9038C218.139 83.3682 221.273 86.5909 225.827 86.5909C229.641 86.5909 232.096 84.8465 232.953 81.7125H230.114C229.523 83.0725 228.222 84.0187 225.827 84.0187ZM225.827 73.7889C228.222 73.7889 229.819 75.2672 230.351 77.3663H221.332C221.894 75.208 223.579 73.7889 225.827 73.7889Z" fill="white"/>
<path d="M236.352 86.2952H239.161V75.0011L243.715 86.2952H246.08L250.634 75.0011V86.2952H253.591V71.5123H249.422L245.045 82.4221L240.639 71.5123H236.352V86.2952Z" fill="white"/>
<path d="M264.305 86.2952H267.262V80.0864H274.211V86.2952H277.168V71.5123H274.211V77.4255H267.262V71.5123H264.305V86.2952Z" fill="white"/>
<path d="M290.165 77.0411V77.2776C283.393 77.2776 280.289 79.0812 280.289 82.4517C280.289 85.1126 282.033 86.5909 284.813 86.5909C287.858 86.5909 289.426 84.9056 290.165 82.7473V86.2952H293.122V77.3368C293.122 73.2271 290.963 71.2166 286.971 71.2166C283.305 71.2166 280.998 73.0202 280.525 76.4498H283.482C283.719 74.9124 284.901 73.8776 286.971 73.8776C288.982 73.8776 290.165 74.9124 290.165 77.0411ZM283.393 82.3038C283.393 80.5299 285.286 79.4064 290.165 79.4064C290.165 81.9491 288.539 84.0482 285.493 84.0482C284.192 84.0482 283.393 83.4273 283.393 82.3038Z" fill="white"/>
<path d="M303.693 86.2952H306.502V75.0011L311.056 86.2952H313.421L317.975 75.0011V86.2952H320.932V71.5123H316.763L312.386 82.4221L307.98 71.5123H303.693V86.2952Z" fill="white"/>
<path d="M331.458 84.0187C328.738 84.0187 327.023 82.1264 326.816 79.436H339.058C339.117 79.1403 339.146 78.8151 339.146 78.5194C339.146 74.4689 336.012 71.2166 331.458 71.2166C326.905 71.2166 323.77 74.5872 323.77 78.9038C323.77 83.3682 326.905 86.5909 331.458 86.5909C335.273 86.5909 337.727 84.8465 338.585 81.7125H335.746C335.155 83.0725 333.853 84.0187 331.458 84.0187ZM331.458 73.7889C333.853 73.7889 335.45 75.2672 335.982 77.3663H326.964C327.526 75.208 329.211 73.7889 331.458 73.7889Z" fill="white"/>
<path d="M348.725 83.93C346.064 83.93 344.201 81.9491 344.201 78.9038C344.201 75.888 346.005 73.8776 348.725 73.8776C350.913 73.8776 352.185 74.9419 352.747 76.8342H355.704C355.142 73.3749 352.628 71.2166 348.725 71.2166C344.201 71.2166 341.096 74.6463 341.096 78.9038C341.096 83.1908 344.201 86.5909 348.784 86.5909C352.54 86.5909 355.112 84.5804 355.822 80.8255H352.865C352.333 82.8952 350.913 83.93 348.725 83.93Z" fill="white"/>
<path d="M362.348 86.2952H365.305V74.1732H370.45V71.5123H357.203V74.1732H362.348V86.2952Z" fill="white"/>
<path d="M381.704 77.0411V77.2776C374.933 77.2776 371.828 79.0812 371.828 82.4517C371.828 85.1126 373.573 86.5909 376.352 86.5909C379.398 86.5909 380.965 84.9056 381.704 82.7473V86.2952H384.661V77.3368C384.661 73.2271 382.503 71.2166 378.511 71.2166C374.844 71.2166 372.538 73.0202 372.065 76.4498H375.022C375.258 74.9124 376.441 73.8776 378.511 73.8776C380.522 73.8776 381.704 74.9124 381.704 77.0411ZM374.933 82.3038C374.933 80.5299 376.825 79.4064 381.704 79.4064C381.704 81.9491 380.078 84.0482 377.032 84.0482C375.731 84.0482 374.933 83.4273 374.933 82.3038Z" fill="white"/>
<path d="M390.018 86.2952L393.892 81.0029L397.706 86.2952H401.225L395.784 78.7559L400.989 71.5123H397.795L394.247 76.5976L390.58 71.5123H387.061L392.354 78.8446L386.766 86.2952H390.018Z" fill="white"/>
<path d="M1.12098 118.549H4.07797L11.3226 108.023V118.549H14.2796V103.766H11.3226L4.07797 114.291V103.766H1.12098V118.549Z" fill="white"/>
<path d="M25.0021 118.549H27.9591V111.601L34.5532 118.549H38.5452L31.1231 110.803L37.9833 103.766H34.4349L27.9591 110.418V103.766H25.0021V118.549Z" fill="white"/>
<path d="M49.0432 109.295V109.531C42.2716 109.531 39.1668 111.335 39.1668 114.705C39.1668 117.366 40.9114 118.845 43.691 118.845C46.7367 118.845 48.3039 117.159 49.0432 115.001V118.549H52.0001V109.59C52.0001 105.481 49.8415 103.47 45.8496 103.47C42.1829 103.47 39.8765 105.274 39.4034 108.703H42.3604C42.5969 107.166 43.7797 106.131 45.8496 106.131C47.8604 106.131 49.0432 107.166 49.0432 109.295ZM42.2717 114.558C42.2717 112.784 44.1641 111.66 49.0432 111.66C49.0432 114.203 47.4168 116.302 44.3711 116.302C43.07 116.302 42.2717 115.681 42.2717 114.558Z" fill="white"/>
<path d="M62.8273 124.462H65.7843V118.845C70.1607 118.638 73.9161 115.888 73.9161 111.157C73.9161 106.427 70.1607 103.648 65.7843 103.47V97.8528H62.8273V103.47C58.451 103.648 54.6956 106.427 54.6956 111.157C54.6956 115.888 58.451 118.638 62.8273 118.845V124.462ZM57.8005 111.157C57.8005 107.846 60.2252 106.161 62.8273 106.043V116.272C60.2252 116.154 57.8005 114.469 57.8005 111.157ZM65.7843 106.043C68.3569 106.161 70.8112 107.846 70.8112 111.157C70.8112 114.469 68.3569 116.154 65.7843 116.272V106.043Z" fill="white"/>
<path d="M83.5505 116.272C80.8301 116.272 79.115 114.38 78.9081 111.69H91.15C91.2091 111.394 91.2387 111.069 91.2387 110.773C91.2387 106.723 88.1043 103.47 83.5505 103.47C78.9968 103.47 75.8624 106.841 75.8624 111.157C75.8624 115.622 78.9968 118.845 83.5505 118.845C87.365 118.845 89.8194 117.1 90.6769 113.966H87.8382C87.2468 115.326 85.9457 116.272 83.5505 116.272ZM83.5505 106.043C85.9457 106.043 87.5425 107.521 88.0747 109.62H79.0559C79.6177 107.462 81.3032 106.043 83.5505 106.043Z" fill="white"/>
<path d="M97.7492 118.549H100.706V106.427H105.851V103.766H92.604V106.427H97.7492V118.549Z" fill="white"/>
<path d="M114.622 116.272C111.902 116.272 110.187 114.38 109.98 111.69H122.221C122.281 111.394 122.31 111.069 122.31 110.773C122.31 106.723 119.176 103.47 114.622 103.47C110.068 103.47 106.934 106.841 106.934 111.157C106.934 115.622 110.068 118.845 114.622 118.845C118.437 118.845 120.891 117.1 121.748 113.966H118.91C118.318 115.326 117.017 116.272 114.622 116.272ZM114.622 106.043C117.017 106.043 118.614 107.521 119.146 109.62H110.127C110.689 107.462 112.375 106.043 114.622 106.043Z" fill="white"/>
<path d="M128.104 103.766H125.147V124.462H128.104V115.238C129.169 117.425 131.179 118.845 133.87 118.845C137.98 118.845 140.671 115.444 140.671 111.157C140.671 106.87 137.921 103.47 133.87 103.47C131.179 103.47 129.169 104.889 128.104 107.077V103.766ZM132.835 106.131C135.615 106.131 137.566 108.083 137.566 111.157C137.566 114.232 135.615 116.184 132.835 116.184C130.174 116.184 128.104 114.144 128.104 111.157C128.104 108.201 130.174 106.131 132.835 106.131Z" fill="white"/>
<path d="M143.513 118.549H146.47L153.714 108.023V118.549H156.671V103.766H153.714L146.47 114.291V103.766H143.513V118.549Z" fill="white"/>
<path d="M160.406 118.549H163.363L170.607 108.023V118.549H173.564V103.766H170.607L163.363 114.291V103.766H160.406V118.549Z" fill="white"/>
<path d="M191.029 116.184C188.367 116.184 186.505 114.203 186.505 111.157C186.505 108.142 188.308 106.131 191.029 106.131C193.217 106.131 194.488 107.196 195.05 109.088H198.007C197.445 105.629 194.932 103.47 191.029 103.47C186.505 103.47 183.4 106.9 183.4 111.157C183.4 115.444 186.505 118.845 191.088 118.845C194.843 118.845 197.416 116.834 198.126 113.079H195.169C194.636 115.149 193.217 116.184 191.029 116.184Z" fill="white"/>
<path d="M207.966 118.549H215.033C219.084 118.549 220.385 116.42 220.385 114.41C220.385 112.429 219.055 111.305 216.896 110.95C218.788 110.448 219.735 109.147 219.735 107.61C219.735 105.156 217.931 103.766 214.649 103.766H207.966V118.549ZM214.501 109.916H210.864V106.279H214.501C216.038 106.279 216.689 107.077 216.689 108.112C216.689 109.117 216.038 109.916 214.501 109.916ZM214.708 112.281C216.63 112.281 217.28 113.168 217.28 114.114C217.28 115.178 216.63 116.036 214.856 116.036H210.864V112.281H214.708Z" fill="white"/>
<path d="M223.242 118.549H229.718C233.709 118.549 235.484 115.977 235.484 113.434C235.484 110.862 233.709 108.408 229.718 108.408H226.199V103.766H223.242V118.549ZM237.465 118.549H240.422V103.766H237.465V118.549ZM229.629 111.01C231.58 111.01 232.379 112.192 232.379 113.434C232.379 114.824 231.58 115.918 229.777 115.918H226.199V111.01H229.629Z" fill="white"/>
<path d="M244.149 118.549H247.106V106.427H253.759V118.549H256.716V103.766H244.149V118.549Z" fill="white"/>
<path d="M267.236 116.272C264.516 116.272 262.801 114.38 262.594 111.69H274.836C274.895 111.394 274.924 111.069 274.924 110.773C274.924 106.723 271.79 103.47 267.236 103.47C262.682 103.47 259.548 106.841 259.548 111.157C259.548 115.622 262.682 118.845 267.236 118.845C271.051 118.845 273.505 117.1 274.363 113.966H271.524C270.932 115.326 269.631 116.272 267.236 116.272ZM267.236 106.043C269.631 106.043 271.228 107.521 271.76 109.62H262.742C263.303 107.462 264.989 106.043 267.236 106.043Z" fill="white"/>
<path d="M277.466 107.61C277.466 112.163 280.216 113.464 283.675 113.464C284.888 113.464 286.011 113.316 287.076 113.05V118.549H290.033V103.766H287.076V110.477C286.129 110.714 285.183 110.803 284.296 110.803C281.783 110.803 280.423 110.004 280.423 107.61V103.766H277.466V107.61Z" fill="white"/>
<path d="M293.759 118.549H296.716V111.601L303.31 118.549H307.302L299.88 110.803L306.74 103.766H303.192L296.716 110.418V103.766H293.759V118.549Z" fill="white"/>
<path d="M315.464 118.845C320.047 118.845 323.3 115.444 323.3 111.157C323.3 106.87 320.047 103.47 315.464 103.47C310.881 103.47 307.628 106.87 307.628 111.157C307.628 115.444 310.881 118.845 315.464 118.845ZM315.464 116.184C312.655 116.184 310.733 113.966 310.733 111.157C310.733 108.349 312.655 106.131 315.464 106.131C318.273 106.131 320.195 108.349 320.195 111.157C320.195 113.966 318.273 116.184 315.464 116.184Z" fill="white"/>
<path d="M328.2 97.8528C328.2 100.336 329.826 101.992 332.724 101.992C335.622 101.992 337.248 100.336 337.248 97.8528H334.617C334.617 99.2424 333.907 99.8928 332.724 99.8928C331.541 99.8928 330.832 99.2424 330.832 97.8528H328.2ZM326.13 118.549H329.087L336.332 108.023V118.549H339.289V103.766H336.332L329.087 114.291V103.766H326.13V118.549Z" fill="white"/>
<path d="M350.011 118.549H352.968L360.213 108.023V118.549H363.17V103.766H360.213L352.968 114.291V103.766H350.011V118.549Z" fill="white"/>
<path d="M373.892 118.549H376.849V111.601L383.443 118.549H387.435L380.013 110.803L386.873 103.766H383.325L376.849 110.418V103.766H373.892V118.549Z" fill="white"/>
<path d="M395.597 118.845C400.181 118.845 403.433 115.444 403.433 111.157C403.433 106.87 400.181 103.47 395.597 103.47C391.014 103.47 387.761 106.87 387.761 111.157C387.761 115.444 391.014 118.845 395.597 118.845ZM395.597 116.184C392.788 116.184 390.866 113.966 390.866 111.157C390.866 108.349 392.788 106.131 395.597 106.131C398.406 106.131 400.328 108.349 400.328 111.157C400.328 113.966 398.406 116.184 395.597 116.184Z" fill="white"/>
<path d="M413.508 124.462H416.465V118.845C420.841 118.638 424.597 115.888 424.597 111.157C424.597 106.427 420.841 103.648 416.465 103.47V97.8528H413.508V103.47C409.131 103.648 405.376 106.427 405.376 111.157C405.376 115.888 409.131 118.638 413.508 118.845V124.462ZM408.481 111.157C408.481 107.846 410.906 106.161 413.508 106.043V116.272C410.906 116.154 408.481 114.469 408.481 111.157ZM416.465 106.043C419.037 106.161 421.492 107.846 421.492 111.157C421.492 114.469 419.037 116.154 416.465 116.272V106.043Z" fill="white"/>
<path d="M434.231 116.272C431.511 116.272 429.796 114.38 429.589 111.69H441.83C441.89 111.394 441.919 111.069 441.919 110.773C441.919 106.723 438.785 103.47 434.231 103.47C429.677 103.47 426.543 106.841 426.543 111.157C426.543 115.622 429.677 118.845 434.231 118.845C438.046 118.845 440.5 117.1 441.357 113.966H438.519C437.927 115.326 436.626 116.272 434.231 116.272ZM434.231 106.043C436.626 106.043 438.223 107.521 438.755 109.62H429.736C430.298 107.462 431.984 106.043 434.231 106.043Z" fill="white"/>
<path d="M7.86292 148.437C5.20163 148.437 3.33873 146.456 3.33873 143.411C3.33873 140.395 5.14249 138.385 7.86292 138.385C10.0511 138.385 11.3226 139.449 11.8844 141.341H14.8414C14.2796 137.882 11.7661 135.724 7.86292 135.724C3.33873 135.724 0.233887 139.154 0.233887 143.411C0.233887 147.698 3.33873 151.098 7.92206 151.098C11.6774 151.098 14.25 149.088 14.9597 145.333H12.0027C11.4704 147.402 10.0511 148.437 7.86292 148.437Z" fill="white"/>
<path d="M24.6163 151.098C29.1997 151.098 32.4524 147.698 32.4524 143.411C32.4524 139.124 29.1997 135.724 24.6163 135.724C20.033 135.724 16.7803 139.124 16.7803 143.411C16.7803 147.698 20.033 151.098 24.6163 151.098ZM24.6163 148.437C21.8072 148.437 19.8852 146.22 19.8852 143.411C19.8852 140.602 21.8072 138.385 24.6163 138.385C27.4255 138.385 29.3475 140.602 29.3475 143.411C29.3475 146.22 27.4255 148.437 24.6163 148.437Z" fill="white"/>
<path d="M42.3495 151.098C47.0511 151.098 50.1855 147.816 50.1855 143.707C50.1855 139.656 47.6129 136.345 43.414 136.345C40.6344 136.345 38.3576 137.941 37.3818 140.248C37.5 135.842 38.8011 133.98 43.828 133.329C46.8737 132.945 48.9436 132.324 49.4167 129.515H46.6371C46.4301 130.254 45.3656 130.491 43.3549 130.727C37.1452 131.466 34.5431 134.541 34.5431 141.696C34.5431 144.239 34.8683 146.249 35.8441 147.757C36.9974 149.59 39.3334 151.098 42.3495 151.098ZM42.3495 148.437C39.5995 148.437 37.6479 146.486 37.6479 143.707C37.6479 140.987 39.5995 139.006 42.3495 139.006C45.1291 139.006 47.0807 140.987 47.0807 143.707C47.0807 146.486 45.1291 148.437 42.3495 148.437Z" fill="white"/>
<path d="M59.7546 148.437C57.0933 148.437 55.2304 146.456 55.2304 143.411C55.2304 140.395 57.0342 138.385 59.7546 138.385C61.9428 138.385 63.2143 139.449 63.7761 141.341H66.7331C66.1713 137.882 63.6578 135.724 59.7546 135.724C55.2304 135.724 52.1256 139.154 52.1256 143.411C52.1256 147.698 55.2304 151.098 59.8138 151.098C63.5691 151.098 66.1417 149.088 66.8514 145.333H63.8944C63.3621 147.402 61.9428 148.437 59.7546 148.437Z" fill="white"/>
<path d="M73.3771 150.803H76.3341V138.681H81.4792V136.02H68.2319V138.681H73.3771V150.803Z" fill="white"/>
<path d="M84.0264 150.803H91.0936C95.1447 150.803 96.4458 148.674 96.4458 146.663C96.4458 144.682 95.1151 143.559 92.9565 143.204C94.849 142.702 95.7952 141.401 95.7952 139.863C95.7952 137.409 93.9915 136.02 90.7092 136.02H84.0264V150.803ZM90.5614 142.169H86.9243V138.533H90.5614C92.099 138.533 92.7495 139.331 92.7495 140.366C92.7495 141.371 92.099 142.169 90.5614 142.169ZM90.7684 144.535C92.6904 144.535 93.341 145.422 93.341 146.368C93.341 147.432 92.6904 148.289 90.9162 148.289H86.9243V144.535H90.7684Z" fill="white"/>
<path d="M105.959 148.526C103.239 148.526 101.523 146.634 101.316 143.943H113.558C113.618 143.648 113.647 143.322 113.647 143.027C113.647 138.976 110.513 135.724 105.959 135.724C101.405 135.724 98.2708 139.094 98.2708 143.411C98.2708 147.876 101.405 151.098 105.959 151.098C109.773 151.098 112.228 149.354 113.085 146.22H110.247C109.655 147.58 108.354 148.526 105.959 148.526ZM105.959 138.296C108.354 138.296 109.951 139.774 110.483 141.874H101.464C102.026 139.715 103.712 138.296 105.959 138.296Z" fill="white"/>
<path d="M116.484 150.803H119.441V144.594H126.39V150.803H129.347V136.02H126.39V141.933H119.441V136.02H116.484V150.803Z" fill="white"/>
<path d="M133.059 150.803H136.016V144.594H142.965V150.803H145.922V136.02H142.965V141.933H136.016V136.02H133.059V150.803Z" fill="white"/>
<path d="M156.584 151.098C161.167 151.098 164.42 147.698 164.42 143.411C164.42 139.124 161.167 135.724 156.584 135.724C152 135.724 148.748 139.124 148.748 143.411C148.748 147.698 152 151.098 156.584 151.098ZM156.584 148.437C153.774 148.437 151.852 146.22 151.852 143.411C151.852 140.602 153.774 138.385 156.584 138.385C159.393 138.385 161.315 140.602 161.315 143.411C161.315 146.22 159.393 148.437 156.584 148.437Z" fill="white"/>
<path d="M169.319 130.106C169.319 132.59 170.946 134.246 173.844 134.246C176.741 134.246 178.368 132.59 178.368 130.106H175.736C175.736 131.496 175.026 132.146 173.844 132.146C172.661 132.146 171.951 131.496 171.951 130.106H169.319ZM167.25 150.803H170.206L177.451 140.277V150.803H180.408V136.02H177.451L170.206 146.545V136.02H167.25V150.803Z" fill="white"/>
<path d="M198.08 151.098C202.663 151.098 205.916 147.698 205.916 143.411C205.916 139.124 202.663 135.724 198.08 135.724C193.496 135.724 190.244 139.124 190.244 143.411C190.244 147.698 193.496 151.098 198.08 151.098ZM198.08 148.437C195.27 148.437 193.348 146.22 193.348 143.411C193.348 140.602 195.27 138.385 198.08 138.385C200.889 138.385 202.811 140.602 202.811 143.411C202.811 146.22 200.889 148.437 198.08 148.437Z" fill="white"/>
<path d="M215.813 151.098C220.514 151.098 223.649 147.816 223.649 143.707C223.649 139.656 221.076 136.345 216.877 136.345C214.098 136.345 211.821 137.941 210.845 140.248C210.963 135.842 212.264 133.98 217.291 133.329C220.337 132.945 222.407 132.324 222.88 129.515H220.1C219.893 130.254 218.829 130.491 216.818 130.727C210.608 131.466 208.006 134.541 208.006 141.696C208.006 144.239 208.332 146.249 209.307 147.757C210.461 149.59 212.797 151.098 215.813 151.098ZM215.813 148.437C213.063 148.437 211.111 146.486 211.111 143.707C211.111 140.987 213.063 139.006 215.813 139.006C218.592 139.006 220.544 140.987 220.544 143.707C220.544 146.486 218.592 148.437 215.813 148.437Z" fill="white"/>
<path d="M234.115 150.803H237.072V143.884L243.371 150.803H247.274L240.177 143.056L246.712 136.02H243.252L237.072 142.672V136.02H234.115V142.672L227.935 136.02H224.328L231.011 143.204L224.062 150.803H227.817L234.115 143.884V150.803Z" fill="white"/>
<path d="M257.881 141.548V141.785C251.109 141.785 248.004 143.588 248.004 146.959C248.004 149.62 249.749 151.098 252.528 151.098C255.574 151.098 257.141 149.413 257.881 147.255V150.803H260.838V141.844C260.838 137.734 258.679 135.724 254.687 135.724C251.02 135.724 248.714 137.527 248.241 140.957H251.198C251.434 139.42 252.617 138.385 254.687 138.385C256.698 138.385 257.881 139.42 257.881 141.548ZM251.109 146.811C251.109 145.037 253.002 143.914 257.881 143.914C257.881 146.456 256.254 148.556 253.208 148.556C251.907 148.556 251.109 147.935 251.109 146.811Z" fill="white"/>
<path d="M267.377 136.02H264.42V156.716H267.377V147.491C268.442 149.679 270.452 151.098 273.143 151.098C277.253 151.098 279.944 147.698 279.944 143.411C279.944 139.124 277.194 135.724 273.143 135.724C270.452 135.724 268.442 137.143 267.377 139.331V136.02ZM272.108 138.385C274.888 138.385 276.839 140.336 276.839 143.411C276.839 146.486 274.888 148.437 272.108 148.437C269.447 148.437 267.377 146.397 267.377 143.411C267.377 140.455 269.447 138.385 272.108 138.385Z" fill="white"/>
<path d="M282.786 150.803H285.743V143.855L292.337 150.803H296.329L288.907 143.056L295.767 136.02H292.219L285.743 142.672V136.02H282.786V150.803Z" fill="white"/>
<path d="M297.975 150.803H300.932L308.177 140.277V150.803H311.134V136.02H308.177L300.932 146.545V136.02H297.975V150.803Z" fill="white"/>
<path d="M316.465 151.098C317.677 151.098 318.653 150.123 318.653 148.851C318.653 147.669 317.677 146.752 316.465 146.752C315.223 146.752 314.277 147.669 314.277 148.851C314.277 150.123 315.223 151.098 316.465 151.098Z" fill="white"/>
</g>
</svg>
