<svg width="491" height="189" viewBox="0 0 491 189" fill="none" xmlns="http://www.w3.org/2000/svg">
<g id="&#208;&#161;&#208;&#190;&#208;&#177;&#209;&#129;&#209;&#130;&#208;&#178;&#208;&#181;&#208;&#189;&#208;&#189;&#208;&#190;&#208;&#181; &#208;&#186;&#209;&#131;&#208;&#187;&#208;&#184;&#208;&#189;&#208;&#176;&#209;&#128;&#208;&#189;&#208;&#190;&#208;&#181;, &#209;&#133;&#208;&#187;&#208;&#181;&#208;&#177;&#208;&#190;&#208;&#191;&#208;&#181;&#208;&#186;&#208;&#176;&#209;&#128;&#208;&#189;&#208;&#190;&#208;&#181; &#208;&#184; &#208;&#186;&#208;&#190;&#208;&#189;&#208;&#180;&#208;&#184;&#209;&#130;&#208;&#181;&#209;&#128;&#209;&#129;&#208;&#186;&#208;&#190;&#208;&#181; &#208;&#191;&#209;&#128;&#208;&#190;&#208;&#184;&#208;&#183;&#208;&#178;&#208;&#190;&#208;&#180;&#209;&#129;&#209;&#130;&#208;&#178;&#208;&#190;, &#208;&#189;&#208;&#176; &#209;&#132;&#208;&#176;&#208;&#177;&#209;&#128;&#208;&#184;&#208;&#186;&#208;&#176;&#209;&#133;-&#208;&#186;&#209;&#131;&#209;&#133;&#208;&#189;&#209;&#143;&#209;&#133; &#208;&#178;&#209;&#139;&#208;&#191;&#209;&#131;&#209;&#129;&#208;&#186;&#208;&#176;&#208;&#181;&#209;&#130;&#209;&#129;&#209;&#143; &#208;&#177;&#208;&#190;&#208;&#187;&#208;&#181;&#208;&#181; 1000 &#208;&#189;&#208;&#176;&#208;&#184;&#208;&#188;&#208;&#181;&#208;&#189;&#208;&#190;&#208;&#178;&#208;&#176;&#208;&#189;&#208;&#184;&#208;&#185; &#209;&#129;&#208;&#178;&#208;&#181;&#208;&#182;&#208;&#181;&#208;&#185; &#208;&#191;&#209;&#128;&#208;&#190;&#208;&#180;&#209;&#131;&#208;&#186;&#209;&#134;&#208;&#184;&#208;&#184; &#208;&#190;&#208;&#177;&#209;&#138;&#209;&#145;&#208;&#188;&#208;&#190;&#208;&#188; &#208;&#180;&#208;&#190; 35 &#209;&#130;&#208;&#190;&#208;&#189;&#208;&#189; &#208;&#178; &#209;&#129;&#209;&#131;&#209;&#130;&#208;&#186;&#208;&#184;.">
<path d="M21.4598 7.59581C20.3361 2.747 16.7286 0.795658 11.8791 0.795658C5.75817 0.795658 1.38183 5.20097 1.38183 11.4394C1.38183 17.6778 5.75817 22.0831 11.8791 22.0831C17.2017 22.0831 20.4248 19.7474 21.7259 14.9577H18.3549C17.2609 17.8847 15.4275 19.2743 11.8791 19.2743C7.5915 19.2743 4.63451 16.1108 4.63451 11.4394C4.63451 6.76796 7.5915 3.60442 11.8791 3.60442C14.984 3.60442 17.113 4.96444 18.0001 7.59581H21.4598Z" fill="white"/>
<path d="M31.5073 22.0831C36.0906 22.0831 39.3433 18.683 39.3433 14.396C39.3433 10.1089 36.0906 6.70883 31.5073 6.70883C26.924 6.70883 23.6713 10.1089 23.6713 14.396C23.6713 18.683 26.924 22.0831 31.5073 22.0831ZM31.5073 19.4221C28.6982 19.4221 26.7761 17.2047 26.7761 14.396C26.7761 11.5872 28.6982 9.36976 31.5073 9.36976C34.3165 9.36976 36.2385 11.5872 36.2385 14.396C36.2385 17.2047 34.3165 19.4221 31.5073 19.4221Z" fill="white"/>
<path d="M49.2405 22.0831C53.9421 22.0831 57.0765 18.8013 57.0765 14.6916C57.0765 10.6411 54.5039 7.32971 50.305 7.32971C47.5254 7.32971 45.2485 8.92627 44.2727 11.2324C44.391 6.82709 45.6921 4.96444 50.719 4.314C53.7647 3.92964 55.8346 3.30876 56.3077 0.5H53.5281C53.3211 1.23915 52.2566 1.47567 50.2458 1.7122C44.0362 2.45135 41.434 5.5262 41.434 12.6811C41.434 15.2238 41.7593 17.2343 42.7351 18.7421C43.8883 20.5752 46.2243 22.0831 49.2405 22.0831ZM49.2405 19.4221C46.4905 19.4221 44.5389 17.4708 44.5389 14.6916C44.5389 11.9716 46.4905 9.99064 49.2405 9.99064C52.02 9.99064 53.9717 11.9716 53.9717 14.6916C53.9717 17.4708 52.02 19.4221 49.2405 19.4221Z" fill="white"/>
<path d="M66.6456 19.4221C63.9843 19.4221 62.1214 17.4412 62.1214 14.396C62.1214 11.3802 63.9252 9.36976 66.6456 9.36976C68.8338 9.36976 70.1053 10.4341 70.6671 12.3263H73.6241C73.0623 8.86714 70.5488 6.70883 66.6456 6.70883C62.1214 6.70883 59.0166 10.1385 59.0166 14.396C59.0166 18.683 62.1214 22.0831 66.7047 22.0831C70.4601 22.0831 73.0327 20.0726 73.7424 16.3177H70.7854C70.2531 18.3873 68.8338 19.4221 66.6456 19.4221Z" fill="white"/>
<path d="M80.2681 21.7874H83.2251V9.66541H88.3702V7.00449H75.1229V9.66541H80.2681V21.7874Z" fill="white"/>
<path d="M90.9174 21.7874H97.9846C102.036 21.7874 103.337 19.6587 103.337 17.6482C103.337 15.6673 102.006 14.5438 99.8475 14.189C101.74 13.6864 102.686 12.3855 102.686 10.848C102.686 8.39408 100.882 7.00449 97.6002 7.00449H90.9174V21.7874ZM97.4523 13.1542H93.8152V9.51759H97.4523C98.99 9.51759 99.6405 10.3159 99.6405 11.3507C99.6405 12.3559 98.99 13.1542 97.4523 13.1542ZM97.6593 15.5195C99.5814 15.5195 100.232 16.4064 100.232 17.3525C100.232 18.4169 99.5814 19.2743 97.8072 19.2743H93.8152V15.5195H97.6593Z" fill="white"/>
<path d="M112.85 19.5108C110.13 19.5108 108.414 17.6186 108.207 14.9281H120.449C120.509 14.6325 120.538 14.3073 120.538 14.0116C120.538 9.96107 117.404 6.70883 112.85 6.70883C108.296 6.70883 105.162 10.0793 105.162 14.396C105.162 18.8604 108.296 22.0831 112.85 22.0831C116.664 22.0831 119.119 20.3387 119.976 17.2047H117.138C116.546 18.5647 115.245 19.5108 112.85 19.5108ZM112.85 9.28106C115.245 9.28106 116.842 10.7594 117.374 12.8585H108.355C108.917 10.7002 110.603 9.28106 112.85 9.28106Z" fill="white"/>
<path d="M123.375 21.7874H126.332V15.5786H133.281V21.7874H136.238V7.00449H133.281V12.9177H126.332V7.00449H123.375V21.7874Z" fill="white"/>
<path d="M139.95 21.7874H142.907V15.5786H149.856V21.7874H152.813V7.00449H149.856V12.9177H142.907V7.00449H139.95V21.7874Z" fill="white"/>
<path d="M163.475 22.0831C168.058 22.0831 171.311 18.683 171.311 14.396C171.311 10.1089 168.058 6.70883 163.475 6.70883C158.891 6.70883 155.638 10.1089 155.638 14.396C155.638 18.683 158.891 22.0831 163.475 22.0831ZM163.475 19.4221C160.665 19.4221 158.743 17.2047 158.743 14.396C158.743 11.5872 160.665 9.36976 163.475 9.36976C166.284 9.36976 168.206 11.5872 168.206 14.396C168.206 17.2047 166.284 19.4221 163.475 19.4221Z" fill="white"/>
<path d="M180.942 19.5108C178.221 19.5108 176.506 17.6186 176.299 14.9281H188.541C188.6 14.6325 188.63 14.3073 188.63 14.0116C188.63 9.96107 185.495 6.70883 180.942 6.70883C176.388 6.70883 173.253 10.0793 173.253 14.396C173.253 18.8604 176.388 22.0831 180.942 22.0831C184.756 22.0831 187.21 20.3387 188.068 17.2047H185.229C184.638 18.5647 183.337 19.5108 180.942 19.5108ZM180.942 9.28106C183.337 9.28106 184.933 10.7594 185.466 12.8585H176.447C177.009 10.7002 178.694 9.28106 180.942 9.28106Z" fill="white"/>
<path d="M198.455 21.7874H201.412V14.8394L208.006 21.7874H211.998L204.576 14.0412L211.436 7.00449H207.888L201.412 13.6568V7.00449H198.455V21.7874Z" fill="white"/>
<path d="M220.097 22.5561L226.366 7.00449H223.498L219.151 18.0326L214.745 7.00449H211.581L217.554 21.8465C216.608 24.4779 216.017 25.0397 212.912 25.0397V27.7006C217.347 27.7006 218.5 26.5475 220.097 22.5561Z" fill="white"/>
<path d="M228.752 14.396C228.693 18.0621 228.279 19.1265 226.091 19.1265V22.0831C230.142 22.0831 231.384 20.0726 231.532 14.4551L231.65 9.66541H237.032V21.7874H239.989V7.00449H228.9L228.752 14.396Z" fill="white"/>
<path d="M243.705 21.7874H246.662L253.906 11.262V21.7874H256.863V7.00449H253.906L246.662 17.5299V7.00449H243.705V21.7874Z" fill="white"/>
<path d="M260.598 21.7874H263.555V15.5786H270.504V21.7874H273.461V7.00449H270.504V12.9177H263.555V7.00449H260.598V21.7874Z" fill="white"/>
<path d="M286.458 12.5333V12.7698C279.687 12.7698 276.582 14.5733 276.582 17.9439C276.582 20.6048 278.326 22.0831 281.106 22.0831C284.152 22.0831 285.719 20.3978 286.458 18.2395V21.7874H289.415V12.829C289.415 8.71931 287.256 6.70883 283.264 6.70883C279.598 6.70883 277.291 8.51235 276.818 11.942H279.775C280.012 10.4046 281.195 9.36976 283.264 9.36976C285.275 9.36976 286.458 10.4046 286.458 12.5333ZM279.687 17.796C279.687 16.0221 281.579 14.8986 286.458 14.8986C286.458 17.4412 284.832 19.5404 281.786 19.5404C280.485 19.5404 279.687 18.9195 279.687 17.796Z" fill="white"/>
<path d="M295.955 7.00449H292.998V27.7006H295.955V18.476C297.019 20.6639 299.03 22.0831 301.721 22.0831C305.831 22.0831 308.522 18.683 308.522 14.396C308.522 10.1089 305.772 6.70883 301.721 6.70883C299.03 6.70883 297.019 8.12799 295.955 10.3159V7.00449ZM300.686 9.36976C303.465 9.36976 305.417 11.3211 305.417 14.396C305.417 17.4708 303.465 19.4221 300.686 19.4221C298.024 19.4221 295.955 17.3821 295.955 14.396C295.955 11.4394 298.024 9.36976 300.686 9.36976Z" fill="white"/>
<path d="M311.363 21.7874H314.32V15.5786H321.269V21.7874H324.226V7.00449H321.269V12.9177H314.32V7.00449H311.363V21.7874Z" fill="white"/>
<path d="M334.888 22.0831C339.471 22.0831 342.724 18.683 342.724 14.396C342.724 10.1089 339.471 6.70883 334.888 6.70883C330.304 6.70883 327.051 10.1089 327.051 14.396C327.051 18.683 330.304 22.0831 334.888 22.0831ZM334.888 19.4221C332.078 19.4221 330.156 17.2047 330.156 14.396C330.156 11.5872 332.078 9.36976 334.888 9.36976C337.697 9.36976 339.619 11.5872 339.619 14.396C339.619 17.2047 337.697 19.4221 334.888 19.4221Z" fill="white"/>
<path d="M352.355 19.5108C349.634 19.5108 347.919 17.6186 347.712 14.9281H359.954C360.013 14.6325 360.043 14.3073 360.043 14.0116C360.043 9.96107 356.908 6.70883 352.355 6.70883C347.801 6.70883 344.666 10.0793 344.666 14.396C344.666 18.8604 347.801 22.0831 352.355 22.0831C356.169 22.0831 358.623 20.3387 359.481 17.2047H356.642C356.051 18.5647 354.75 19.5108 352.355 19.5108ZM352.355 9.28106C354.75 9.28106 356.346 10.7594 356.879 12.8585H347.86C348.422 10.7002 350.107 9.28106 352.355 9.28106Z" fill="white"/>
<path d="M362.946 24.4483H364.542L365.814 21.6692C366.257 20.6935 366.376 20.1909 366.376 19.8361C366.376 18.6239 365.4 17.7369 364.188 17.7369C362.946 17.7369 361.999 18.6239 361.999 19.8361C361.999 20.6048 362.325 21.3439 363.448 21.8465L362.946 24.4483Z" fill="white"/>
<path d="M3.89527 54.0411L7.76892 48.7488L11.5834 54.0411H15.1023L9.6614 46.5018L14.8657 39.2581H11.6721L8.12376 44.3435L4.45709 39.2581H0.938277L6.23129 46.5905L0.642578 54.0411H3.89527Z" fill="white"/>
<path d="M18.8177 46.6496C18.7585 50.3158 18.3446 51.3801 16.1564 51.3801V54.3367C20.2075 54.3367 21.4494 52.3263 21.5972 46.7087L21.7155 41.9191H27.0972V54.0411H30.0542V39.2581H18.9655L18.8177 46.6496Z" fill="white"/>
<path d="M40.5712 51.7645C37.8507 51.7645 36.1357 49.8723 35.9287 47.1818H48.1706C48.2298 46.8861 48.2594 46.5609 48.2594 46.2653C48.2594 42.2147 45.1249 38.9625 40.5712 38.9625C36.0174 38.9625 32.883 42.333 32.883 46.6496C32.883 51.1141 36.0174 54.3367 40.5712 54.3367C44.3857 54.3367 46.84 52.5923 47.6975 49.4584H44.8588C44.2674 50.8184 42.9663 51.7645 40.5712 51.7645ZM40.5712 41.5347C42.9663 41.5347 44.5631 43.013 45.0954 45.1122H36.0766C36.6384 42.9539 38.3239 41.5347 40.5712 41.5347Z" fill="white"/>
<path d="M58.1634 54.3367C62.865 54.3367 65.9994 51.0549 65.9994 46.9453C65.9994 42.8947 63.4269 39.5834 59.2279 39.5834C56.4484 39.5834 54.1715 41.1799 53.1957 43.4861C53.314 39.0808 54.615 37.2181 59.6419 36.5677C62.6876 36.1833 64.7575 35.5624 65.2306 32.7537H62.4511C62.2441 33.4928 61.1796 33.7293 59.1688 33.9659C52.9591 34.705 50.357 37.7799 50.357 44.9348C50.357 47.4775 50.6822 49.4879 51.658 50.9958C52.8113 52.8289 55.1473 54.3367 58.1634 54.3367ZM58.1634 51.6758C55.4134 51.6758 53.4618 49.7245 53.4618 46.9453C53.4618 44.2252 55.4134 42.2443 58.1634 42.2443C60.943 42.2443 62.8946 44.2252 62.8946 46.9453C62.8946 49.7245 60.943 51.6758 58.1634 51.6758Z" fill="white"/>
<path d="M75.7755 54.3367C80.3589 54.3367 83.6115 50.9367 83.6115 46.6496C83.6115 42.3626 80.3589 38.9625 75.7755 38.9625C71.1922 38.9625 67.9395 42.3626 67.9395 46.6496C67.9395 50.9367 71.1922 54.3367 75.7755 54.3367ZM75.7755 51.6758C72.9664 51.6758 71.0443 49.4584 71.0443 46.6496C71.0443 43.8409 72.9664 41.6234 75.7755 41.6234C78.5847 41.6234 80.5067 43.8409 80.5067 46.6496C80.5067 49.4584 78.5847 51.6758 75.7755 51.6758Z" fill="white"/>
<path d="M86.4415 54.0411H89.3985V41.9191H96.0517V54.0411H99.0087V39.2581H86.4415V54.0411Z" fill="white"/>
<path d="M109.529 51.7645C106.809 51.7645 105.094 49.8723 104.887 47.1818H117.129C117.188 46.8861 117.217 46.5609 117.217 46.2653C117.217 42.2147 114.083 38.9625 109.529 38.9625C104.975 38.9625 101.841 42.333 101.841 46.6496C101.841 51.1141 104.975 54.3367 109.529 54.3367C113.344 54.3367 115.798 52.5923 116.655 49.4584H113.817C113.225 50.8184 111.924 51.7645 109.529 51.7645ZM109.529 41.5347C111.924 41.5347 113.521 43.013 114.053 45.1122H105.034C105.596 42.9539 107.282 41.5347 109.529 41.5347Z" fill="white"/>
<path d="M120.054 54.0411H123.011V47.0931L129.605 54.0411H133.597L126.175 46.2948L133.035 39.2581H129.487L123.011 45.9105V39.2581H120.054V54.0411Z" fill="white"/>
<path d="M144.095 44.787V45.0235C137.324 45.0235 134.219 46.827 134.219 50.1975C134.219 52.8584 135.963 54.3367 138.743 54.3367C141.789 54.3367 143.356 52.6515 144.095 50.4932V54.0411H147.052V45.0826C147.052 40.973 144.894 38.9625 140.902 38.9625C137.235 38.9625 134.928 40.766 134.455 44.1956H137.412C137.649 42.6582 138.832 41.6234 140.902 41.6234C142.912 41.6234 144.095 42.6582 144.095 44.787ZM137.324 50.0497C137.324 48.2757 139.216 47.1522 144.095 47.1522C144.095 49.6949 142.469 51.7941 139.423 51.7941C138.122 51.7941 137.324 51.1732 137.324 50.0497Z" fill="white"/>
<path d="M153.592 39.2581H150.635V59.9542H153.592V50.7297C154.656 52.9176 156.667 54.3367 159.358 54.3367C163.468 54.3367 166.159 50.9367 166.159 46.6496C166.159 42.3626 163.409 38.9625 159.358 38.9625C156.667 38.9625 154.656 40.3816 153.592 42.5695V39.2581ZM158.323 41.6234C161.102 41.6234 163.054 43.5748 163.054 46.6496C163.054 49.7245 161.102 51.6758 158.323 51.6758C155.662 51.6758 153.592 49.6358 153.592 46.6496C153.592 43.693 155.662 41.6234 158.323 41.6234Z" fill="white"/>
<path d="M169 54.0411H171.957V47.8322H178.906V54.0411H181.863V39.2581H178.906V45.1713H171.957V39.2581H169V54.0411Z" fill="white"/>
<path d="M192.525 54.3367C197.108 54.3367 200.361 50.9367 200.361 46.6496C200.361 42.3626 197.108 38.9625 192.525 38.9625C187.941 38.9625 184.689 42.3626 184.689 46.6496C184.689 50.9367 187.941 54.3367 192.525 54.3367ZM192.525 51.6758C189.715 51.6758 187.793 49.4584 187.793 46.6496C187.793 43.8409 189.715 41.6234 192.525 41.6234C195.334 41.6234 197.256 43.8409 197.256 46.6496C197.256 49.4584 195.334 51.6758 192.525 51.6758Z" fill="white"/>
<path d="M209.992 51.7645C207.271 51.7645 205.556 49.8723 205.349 47.1818H217.591C217.65 46.8861 217.68 46.5609 217.68 46.2653C217.68 42.2147 214.545 38.9625 209.992 38.9625C205.438 38.9625 202.303 42.333 202.303 46.6496C202.303 51.1141 205.438 54.3367 209.992 54.3367C213.806 54.3367 216.26 52.5923 217.118 49.4584H214.279C213.688 50.8184 212.387 51.7645 209.992 51.7645ZM209.992 41.5347C212.387 41.5347 213.984 43.013 214.516 45.1122H205.497C206.059 42.9539 207.744 41.5347 209.992 41.5347Z" fill="white"/>
<path d="M227.505 54.0411H230.462L237.707 43.5156V54.0411H240.663V39.2581H237.707L230.462 49.7836V39.2581H227.505V54.0411Z" fill="white"/>
<path d="M251.386 54.0411H254.343V47.0931L260.937 54.0411H264.929L257.507 46.2948L264.367 39.2581H260.819L254.343 45.9105V39.2581H251.386V54.0411Z" fill="white"/>
<path d="M273.091 54.3367C277.674 54.3367 280.927 50.9367 280.927 46.6496C280.927 42.3626 277.674 38.9625 273.091 38.9625C268.508 38.9625 265.255 42.3626 265.255 46.6496C265.255 50.9367 268.508 54.3367 273.091 54.3367ZM273.091 51.6758C270.282 51.6758 268.36 49.4584 268.36 46.6496C268.36 43.8409 270.282 41.6234 273.091 41.6234C275.9 41.6234 277.822 43.8409 277.822 46.6496C277.822 49.4584 275.9 51.6758 273.091 51.6758Z" fill="white"/>
<path d="M283.757 54.0411H286.714V47.8322H293.663V54.0411H296.62V39.2581H293.663V45.1713H286.714V39.2581H283.757V54.0411Z" fill="white"/>
<path d="M299.002 57.2933H301.811V54.0411H312.633V57.2933H315.443V51.3801H313.373V39.2581H302.047V40.9434C302.047 47.3296 301.456 49.9314 300.835 51.3801H299.002V57.2933ZM303.762 51.3801C304.295 50.0201 304.768 47.9209 304.827 41.9191H310.416V51.3801H303.762Z" fill="white"/>
<path d="M317.832 54.0411H320.789L328.033 43.5156V54.0411H330.99V39.2581H328.033L320.789 49.7836V39.2581H317.832V54.0411Z" fill="white"/>
<path d="M338.687 54.0411H341.644V41.9191H346.789V39.2581H333.542V41.9191H338.687V54.0411Z" fill="white"/>
<path d="M355.56 51.7645C352.839 51.7645 351.124 49.8723 350.917 47.1818H363.159C363.218 46.8861 363.248 46.5609 363.248 46.2653C363.248 42.2147 360.114 38.9625 355.56 38.9625C351.006 38.9625 347.872 42.333 347.872 46.6496C347.872 51.1141 351.006 54.3367 355.56 54.3367C359.374 54.3367 361.829 52.5923 362.686 49.4584H359.847C359.256 50.8184 357.955 51.7645 355.56 51.7645ZM355.56 41.5347C357.955 41.5347 359.552 43.013 360.084 45.1122H351.065C351.627 42.9539 353.313 41.5347 355.56 41.5347Z" fill="white"/>
<path d="M369.042 39.2581H366.085V59.9542H369.042V50.7297C370.106 52.9176 372.117 54.3367 374.808 54.3367C378.918 54.3367 381.609 50.9367 381.609 46.6496C381.609 42.3626 378.859 38.9625 374.808 38.9625C372.117 38.9625 370.106 40.3816 369.042 42.5695V39.2581ZM373.773 41.6234C376.553 41.6234 378.504 43.5748 378.504 46.6496C378.504 49.7245 376.553 51.6758 373.773 51.6758C371.112 51.6758 369.042 49.6358 369.042 46.6496C369.042 43.693 371.112 41.6234 373.773 41.6234Z" fill="white"/>
<path d="M391.193 51.6758C388.531 51.6758 386.668 49.6949 386.668 46.6496C386.668 43.6339 388.472 41.6234 391.193 41.6234C393.381 41.6234 394.652 42.6878 395.214 44.58H398.171C397.609 41.1208 395.096 38.9625 391.193 38.9625C386.668 38.9625 383.563 42.3921 383.563 46.6496C383.563 50.9367 386.668 54.3367 391.252 54.3367C395.007 54.3367 397.58 52.3263 398.289 48.5714H395.332C394.8 50.641 393.381 51.6758 391.193 51.6758Z" fill="white"/>
<path d="M401.141 54.0411H404.098V47.0931L410.692 54.0411H414.684L407.262 46.2948L414.123 39.2581H410.574L404.098 45.9105V39.2581H401.141V54.0411Z" fill="white"/>
<path d="M422.846 54.3367C427.43 54.3367 430.682 50.9367 430.682 46.6496C430.682 42.3626 427.43 38.9625 422.846 38.9625C418.263 38.9625 415.01 42.3626 415.01 46.6496C415.01 50.9367 418.263 54.3367 422.846 54.3367ZM422.846 51.6758C420.037 51.6758 418.115 49.4584 418.115 46.6496C418.115 43.8409 420.037 41.6234 422.846 41.6234C425.656 41.6234 427.578 43.8409 427.578 46.6496C427.578 49.4584 425.656 51.6758 422.846 51.6758Z" fill="white"/>
<path d="M440.313 51.7645C437.593 51.7645 435.878 49.8723 435.671 47.1818H447.913C447.972 46.8861 448.002 46.5609 448.002 46.2653C448.002 42.2147 444.867 38.9625 440.313 38.9625C435.76 38.9625 432.625 42.333 432.625 46.6496C432.625 51.1141 435.76 54.3367 440.313 54.3367C444.128 54.3367 446.582 52.5923 447.44 49.4584H444.601C444.01 50.8184 442.709 51.7645 440.313 51.7645ZM440.313 41.5347C442.709 41.5347 444.305 43.013 444.838 45.1122H435.819C436.381 42.9539 438.066 41.5347 440.313 41.5347Z" fill="white"/>
<path d="M2.12107 86.2947H5.07806V74.1727H11.7313V86.2947H14.6883V71.5118H2.12107V86.2947Z" fill="white"/>
<path d="M21.3646 71.5118H18.4076V92.2079H21.3646V82.9834C22.4291 85.1712 24.4399 86.5904 27.1307 86.5904C31.241 86.5904 33.9318 83.1903 33.9318 78.9033C33.9318 74.6162 31.1818 71.2161 27.1307 71.2161C24.4399 71.2161 22.4291 72.6353 21.3646 74.8232V71.5118ZM26.0958 73.8771C28.8754 73.8771 30.827 75.8284 30.827 78.9033C30.827 81.9781 28.8754 83.9295 26.0958 83.9295C23.4345 83.9295 21.3646 81.8894 21.3646 78.9033C21.3646 75.9467 23.4345 73.8771 26.0958 73.8771Z" fill="white"/>
<path d="M43.7222 86.5904C48.3056 86.5904 51.5582 83.1903 51.5582 78.9033C51.5582 74.6162 48.3056 71.2161 43.7222 71.2161C39.1389 71.2161 35.8862 74.6162 35.8862 78.9033C35.8862 83.1903 39.1389 86.5904 43.7222 86.5904ZM43.7222 83.9295C40.9131 83.9295 38.991 81.712 38.991 78.9033C38.991 76.0945 40.9131 73.8771 43.7222 73.8771C46.5314 73.8771 48.4534 76.0945 48.4534 78.9033C48.4534 81.712 46.5314 83.9295 43.7222 83.9295Z" fill="white"/>
<path d="M54.3882 86.2947H57.3452L64.5898 75.7693V86.2947H67.5468V71.5118H64.5898L57.3452 82.0373V71.5118H54.3882V86.2947Z" fill="white"/>
<path d="M76.929 86.5904C81.4827 86.5904 83.3752 84.4025 83.3752 82.0077C83.3752 80.352 82.1924 79.0215 80.2999 78.6076C81.9854 78.1641 82.9021 76.8928 82.9021 75.3849C82.9021 73.1379 81.0983 71.2161 76.9586 71.2161C73.2032 71.2161 70.8376 73.1675 70.5419 76.2128H73.6172C73.8833 75.0006 74.6817 73.8771 76.8994 73.8771C78.8806 73.8771 79.7973 74.7641 79.7973 75.858C79.7973 76.9224 79.1172 77.6319 77.0177 77.6319H74.9774V80.145H77.4612C79.5016 80.145 80.2704 80.9137 80.2704 81.919C80.2704 82.9834 79.5903 83.9295 76.929 83.9295C74.6817 83.9295 73.6763 82.9834 73.3215 81.4459H70.2462C70.5419 84.4912 72.6118 86.5904 76.929 86.5904Z" fill="white"/>
<path d="M86.3549 86.2947H93.422C97.4731 86.2947 98.7742 84.166 98.7742 82.1555C98.7742 80.1746 97.4436 79.0511 95.285 78.6963C97.1774 78.1937 98.1237 76.8928 98.1237 75.3554C98.1237 72.9014 96.3199 71.5118 93.0376 71.5118H86.3549V86.2947ZM92.8898 77.6615H89.2527V74.0249H92.8898C94.4274 74.0249 95.078 74.8232 95.078 75.858C95.078 76.8632 94.4274 77.6615 92.8898 77.6615ZM93.0968 80.0268C95.0188 80.0268 95.6694 80.9137 95.6694 81.8599C95.6694 82.9242 95.0188 83.7816 93.2446 83.7816H89.2527V80.0268H93.0968Z" fill="white"/>
<path d="M108.435 86.5904C113.019 86.5904 116.271 83.1903 116.271 78.9033C116.271 74.6162 113.019 71.2161 108.435 71.2161C103.852 71.2161 100.599 74.6162 100.599 78.9033C100.599 83.1903 103.852 86.5904 108.435 86.5904ZM108.435 83.9295C105.626 83.9295 103.704 81.712 103.704 78.9033C103.704 76.0945 105.626 73.8771 108.435 73.8771C111.244 73.8771 113.166 76.0945 113.166 78.9033C113.166 81.712 111.244 83.9295 108.435 83.9295Z" fill="white"/>
<path d="M117.482 89.547H120.291V86.2947H131.114V89.547H133.923V83.6338H131.853V71.5118H120.527V73.1971C120.527 79.5833 119.936 82.1851 119.315 83.6338H117.482V89.547ZM122.243 83.6338C122.775 82.2738 123.248 80.1746 123.307 74.1727H128.896V83.6338H122.243Z" fill="white"/>
<path d="M143.054 83.9295C140.392 83.9295 138.53 81.9486 138.53 78.9033C138.53 75.8876 140.333 73.8771 143.054 73.8771C145.242 73.8771 146.513 74.9414 147.075 76.8337H150.032C149.47 73.3745 146.957 71.2161 143.054 71.2161C138.53 71.2161 135.425 74.6458 135.425 78.9033C135.425 83.1903 138.53 86.5904 143.113 86.5904C146.868 86.5904 149.441 84.5799 150.151 80.8251H147.194C146.661 82.8947 145.242 83.9295 143.054 83.9295Z" fill="white"/>
<path d="M156.676 86.2947H159.633V74.1727H164.778V71.5118H151.531V74.1727H156.676V86.2947Z" fill="white"/>
<path d="M167.326 86.2947H174.393C178.444 86.2947 179.745 84.166 179.745 82.1555C179.745 80.1746 178.414 79.0511 176.256 78.6963C178.148 78.1937 179.094 76.8928 179.094 75.3554C179.094 72.9014 177.291 71.5118 174.008 71.5118H167.326V86.2947ZM173.86 77.6615H170.223V74.0249H173.86C175.398 74.0249 176.049 74.8232 176.049 75.858C176.049 76.8632 175.398 77.6615 173.86 77.6615ZM174.067 80.0268C175.99 80.0268 176.64 80.9137 176.64 81.8599C176.64 82.9242 175.99 83.7816 174.215 83.7816H170.223V80.0268H174.067Z" fill="white"/>
<path d="M189.406 86.5904C193.989 86.5904 197.242 83.1903 197.242 78.9033C197.242 74.6162 193.989 71.2161 189.406 71.2161C184.823 71.2161 181.57 74.6162 181.57 78.9033C181.57 83.1903 184.823 86.5904 189.406 86.5904ZM189.406 83.9295C186.597 83.9295 184.675 81.712 184.675 78.9033C184.675 76.0945 186.597 73.8771 189.406 73.8771C192.215 73.8771 194.137 76.0945 194.137 78.9033C194.137 81.712 192.215 83.9295 189.406 83.9295Z" fill="white"/>
<path d="M200.138 88.9557H201.735L203.006 86.1765C203.45 85.2008 203.568 84.6982 203.568 84.3434C203.568 83.1312 202.592 82.2442 201.38 82.2442C200.138 82.2442 199.192 83.1312 199.192 84.3434C199.192 85.1121 199.517 85.8512 200.641 86.3539L200.138 88.9557Z" fill="white"/>
<path d="M213.702 86.2947H216.659V80.0859H223.608V86.2947H226.565V71.5118H223.608V77.425H216.659V71.5118H213.702V86.2947Z" fill="white"/>
<path d="M239.562 77.0406V77.2772C232.791 77.2772 229.686 79.0807 229.686 82.4512C229.686 85.1121 231.43 86.5904 234.21 86.5904C237.256 86.5904 238.823 84.9051 239.562 82.7468V86.2947H242.519V77.3363C242.519 73.2266 240.36 71.2161 236.368 71.2161C232.702 71.2161 230.395 73.0197 229.922 76.4493H232.879C233.116 74.9119 234.299 73.8771 236.368 73.8771C238.379 73.8771 239.562 74.9119 239.562 77.0406ZM232.791 82.3033C232.791 80.5294 234.683 79.4059 239.562 79.4059C239.562 81.9486 237.936 84.0477 234.89 84.0477C233.589 84.0477 232.791 83.4268 232.791 82.3033Z" fill="white"/>
<path d="M260.334 92.2079H263.291V86.5904C267.668 86.3834 271.423 83.6338 271.423 78.9033C271.423 74.1727 267.668 71.3935 263.291 71.2161V65.5986H260.334V71.2161C255.958 71.3935 252.203 74.1727 252.203 78.9033C252.203 83.6338 255.958 86.3834 260.334 86.5904V92.2079ZM255.308 78.9033C255.308 75.5919 257.732 73.9066 260.334 73.7884V84.0182C257.732 83.8999 255.308 82.2146 255.308 78.9033ZM263.291 73.7884C265.864 73.9066 268.318 75.5919 268.318 78.9033C268.318 82.2146 265.864 83.8999 263.291 84.0182V73.7884Z" fill="white"/>
<path d="M283.397 77.0406V77.2772C276.626 77.2772 273.521 79.0807 273.521 82.4512C273.521 85.1121 275.265 86.5904 278.045 86.5904C281.091 86.5904 282.658 84.9051 283.397 82.7468V86.2947H286.354V77.3363C286.354 73.2266 284.195 71.2161 280.204 71.2161C276.537 71.2161 274.23 73.0197 273.757 76.4493H276.714C276.951 74.9119 278.134 73.8771 280.204 73.8771C282.214 73.8771 283.397 74.9119 283.397 77.0406ZM276.626 82.3033C276.626 80.5294 278.518 79.4059 283.397 79.4059C283.397 81.9486 281.771 84.0477 278.725 84.0477C277.424 84.0477 276.626 83.4268 276.626 82.3033Z" fill="white"/>
<path d="M297.004 86.5904C301.705 86.5904 304.84 83.3086 304.84 79.1989C304.84 75.1484 302.267 71.837 298.068 71.837C295.289 71.837 293.012 73.4336 292.036 75.7397C292.154 71.3344 293.455 69.4718 298.482 68.8213C301.528 68.437 303.598 67.8161 304.071 65.0073H301.292C301.085 65.7465 300.02 65.983 298.009 66.2195C291.8 66.9587 289.197 70.0335 289.197 77.1884C289.197 79.7311 289.523 81.7416 290.498 83.2495C291.652 85.0825 293.988 86.5904 297.004 86.5904ZM297.004 83.9295C294.254 83.9295 292.302 81.9781 292.302 79.1989C292.302 76.4789 294.254 74.498 297.004 74.498C299.783 74.498 301.735 76.4789 301.735 79.1989C301.735 81.9781 299.783 83.9295 297.004 83.9295Z" fill="white"/>
<path d="M310.624 71.5118H307.667V92.2079H310.624V82.9834C311.689 85.1712 313.699 86.5904 316.39 86.5904C320.5 86.5904 323.191 83.1903 323.191 78.9033C323.191 74.6162 320.441 71.2161 316.39 71.2161C313.699 71.2161 311.689 72.6353 310.624 74.8232V71.5118ZM315.355 73.8771C318.135 73.8771 320.086 75.8284 320.086 78.9033C320.086 81.9781 318.135 83.9295 315.355 83.9295C312.694 83.9295 310.624 81.8894 310.624 78.9033C310.624 75.9467 312.694 73.8771 315.355 73.8771Z" fill="white"/>
<path d="M326.033 86.2947H328.99L336.234 75.7693V86.2947H339.191V71.5118H336.234L328.99 82.0373V71.5118H326.033V86.2947Z" fill="white"/>
<path d="M342.926 86.2947H345.883V79.3468L352.477 86.2947H356.469L349.047 78.5485L355.907 71.5118H352.358L345.883 78.1641V71.5118H342.926V86.2947Z" fill="white"/>
<path d="M366.967 77.0406V77.2772C360.195 77.2772 357.09 79.0807 357.09 82.4512C357.09 85.1121 358.835 86.5904 361.615 86.5904C364.66 86.5904 366.227 84.9051 366.967 82.7468V86.2947H369.924V77.3363C369.924 73.2266 367.765 71.2161 363.773 71.2161C360.106 71.2161 357.8 73.0197 357.327 76.4493H360.284C360.52 74.9119 361.703 73.8771 363.773 73.8771C365.784 73.8771 366.967 74.9119 366.967 77.0406ZM360.195 82.3033C360.195 80.5294 362.088 79.4059 366.967 79.4059C366.967 81.9486 365.34 84.0477 362.295 84.0477C360.994 84.0477 360.195 83.4268 360.195 82.3033Z" fill="white"/>
<path d="M375.28 86.2947L379.154 81.0024L382.969 86.2947H386.487L381.047 78.7554L386.251 71.5118H383.057L379.509 76.5971L375.842 71.5118H372.323L377.616 78.8441L372.028 86.2947H375.28Z" fill="white"/>
<path d="M397.151 80.0859V77.425H387.245V80.0859H397.151Z" fill="white"/>
<path d="M400.593 86.2947H403.55V79.3468L410.144 86.2947H414.136L406.714 78.5485L413.574 71.5118H410.026L403.55 78.1641V71.5118H400.593V86.2947Z" fill="white"/>
<path d="M422.235 87.0634L428.504 71.5118H425.636L421.289 82.5399L416.883 71.5118H413.719L419.692 86.3539C418.746 88.9852 418.154 89.547 415.05 89.547V92.2079C419.485 92.2079 420.638 91.0548 422.235 87.0634Z" fill="white"/>
<path d="M432.081 86.2947L435.955 81.0024L439.769 86.2947H443.288L437.847 78.7554L443.052 71.5118H439.858L436.31 76.5971L432.643 71.5118H429.124L434.417 78.8441L428.829 86.2947H432.081Z" fill="white"/>
<path d="M445.525 86.2947H448.482V80.0859H455.431V86.2947H458.388V71.5118H455.431V77.425H448.482V71.5118H445.525V86.2947Z" fill="white"/>
<path d="M464.614 86.2947L468.724 81.0616H471.178V86.2947H474.135V71.5118H467.66C463.668 71.5118 461.893 73.9953 461.893 76.4789C461.893 78.578 463.165 80.1155 465.59 80.6772L461.065 86.2947H464.614ZM467.748 78.7554C465.797 78.7554 464.998 77.6319 464.998 76.4789C464.998 75.178 465.797 74.1432 467.6 74.1432H471.178V78.7554H467.748Z" fill="white"/>
<path d="M479.641 86.2947L483.515 81.0024L487.33 86.2947H490.848L485.408 78.7554L490.612 71.5118H487.418L483.87 76.5971L480.203 71.5118H476.684L481.977 78.8441L476.389 86.2947H479.641Z" fill="white"/>
<path d="M2.12107 118.548H9.18828C13.2394 118.548 14.5404 116.42 14.5404 114.409C14.5404 112.428 13.2098 111.305 11.0512 110.95C12.9437 110.447 13.8899 109.146 13.8899 107.609C13.8899 105.155 12.0861 103.765 8.80387 103.765H2.12107V118.548ZM8.65602 109.915H5.01892V106.279H8.65602C10.1937 106.279 10.8442 107.077 10.8442 108.112C10.8442 109.117 10.1937 109.915 8.65602 109.915ZM8.86301 112.28C10.7851 112.28 11.4356 113.167 11.4356 114.114C11.4356 115.178 10.7851 116.035 9.01086 116.035H5.01892V112.28H8.86301Z" fill="white"/>
<path d="M17.3969 118.548H23.8727C27.8647 118.548 29.6389 115.976 29.6389 113.434C29.6389 110.861 27.8647 108.407 23.8727 108.407H20.3539V103.765H17.3969V118.548ZM31.62 118.548H34.577V103.765H31.62V118.548ZM23.784 111.009C25.7356 111.009 26.534 112.192 26.534 113.434C26.534 114.823 25.7356 115.917 23.9319 115.917H20.3539V111.009H23.784Z" fill="white"/>
<path d="M38.3038 118.548H41.2608V106.426H47.914V118.548H50.871V103.765H38.3038V118.548Z" fill="white"/>
<path d="M61.3322 119.317L67.6011 103.765H64.7328L60.386 114.794L55.9801 103.765H52.8161L58.7892 118.608C57.843 121.239 57.2516 121.801 54.1468 121.801V124.462C58.5822 124.462 59.7355 123.309 61.3322 119.317Z" fill="white"/>
<path d="M75.8573 116.183C73.196 116.183 71.3331 114.202 71.3331 111.157C71.3331 108.141 73.1369 106.131 75.8573 106.131C78.0455 106.131 79.317 107.195 79.8788 109.087H82.8358C82.274 105.628 79.7605 103.47 75.8573 103.47C71.3331 103.47 68.2283 106.899 68.2283 111.157C68.2283 115.444 71.3331 118.844 75.9164 118.844C79.6718 118.844 82.2444 116.834 82.9541 113.079H79.9971C79.4648 115.148 78.0455 116.183 75.8573 116.183Z" fill="white"/>
<path d="M85.8062 118.548H88.7632V111.6L95.3573 118.548H99.3492L91.9272 110.802L98.7874 103.765H95.239L88.7632 110.418V103.765H85.8062V118.548Z" fill="white"/>
<path d="M109.847 109.294V109.531C103.076 109.531 99.9709 111.334 99.9709 114.705C99.9709 117.366 101.715 118.844 104.495 118.844C107.541 118.844 109.108 117.159 109.847 115V118.548H112.804V109.59C112.804 105.48 110.646 103.47 106.654 103.47C102.987 103.47 100.681 105.273 100.207 108.703H103.164C103.401 107.166 104.584 106.131 106.654 106.131C108.664 106.131 109.847 107.166 109.847 109.294ZM103.076 114.557C103.076 112.783 104.968 111.66 109.847 111.66C109.847 114.202 108.221 116.301 105.175 116.301C103.874 116.301 103.076 115.681 103.076 114.557Z" fill="white"/>
<path d="M123.188 116.272C120.467 116.272 118.752 114.38 118.545 111.689H130.787C130.846 111.393 130.876 111.068 130.876 110.773C130.876 106.722 127.742 103.47 123.188 103.47C118.634 103.47 115.5 106.84 115.5 111.157C115.5 115.621 118.634 118.844 123.188 118.844C127.002 118.844 129.457 117.1 130.314 113.966H127.475C126.884 115.326 125.583 116.272 123.188 116.272ZM123.188 106.042C125.583 106.042 127.18 107.52 127.712 109.62H118.693C119.255 107.461 120.941 106.042 123.188 106.042Z" fill="white"/>
<path d="M137.386 118.548H140.343V106.426H145.489V103.765H132.241V106.426H137.386V118.548Z" fill="white"/>
<path d="M154.2 116.183C151.539 116.183 149.676 114.202 149.676 111.157C149.676 108.141 151.48 106.131 154.2 106.131C156.388 106.131 157.66 107.195 158.222 109.087H161.179C160.617 105.628 158.103 103.47 154.2 103.47C149.676 103.47 146.571 106.899 146.571 111.157C146.571 115.444 149.676 118.844 154.259 118.844C158.015 118.844 160.587 116.834 161.297 113.079H158.34C157.808 115.148 156.388 116.183 154.2 116.183Z" fill="white"/>
<path d="M166.374 118.548L170.484 113.315H172.938V118.548H175.895V103.765H169.419C165.428 103.765 163.653 106.249 163.653 108.733C163.653 110.832 164.925 112.369 167.35 112.931L162.825 118.548H166.374ZM169.508 111.009C167.557 111.009 166.758 109.886 166.758 108.733C166.758 107.432 167.557 106.397 169.36 106.397H172.938V111.009H169.508Z" fill="white"/>
<path d="M193.682 118.844C198.384 118.844 201.519 115.562 201.519 111.453C201.519 107.402 198.946 104.091 194.747 104.091C191.967 104.091 189.691 105.687 188.715 107.993C188.833 103.588 190.134 101.725 195.161 101.075C198.207 100.691 200.277 100.07 200.75 97.261H197.97C197.763 98.0001 196.699 98.2366 194.688 98.4732C188.478 99.2123 185.876 102.287 185.876 109.442C185.876 111.985 186.201 113.995 187.177 115.503C188.33 117.336 190.666 118.844 193.682 118.844ZM193.682 116.183C190.932 116.183 188.981 114.232 188.981 111.453C188.981 108.733 190.932 106.752 193.682 106.752C196.462 106.752 198.414 108.733 198.414 111.453C198.414 114.232 196.462 116.183 193.682 116.183Z" fill="white"/>
<path d="M211.295 118.844C215.878 118.844 219.131 115.444 219.131 111.157C219.131 106.87 215.878 103.47 211.295 103.47C206.711 103.47 203.459 106.87 203.459 111.157C203.459 115.444 206.711 118.844 211.295 118.844ZM211.295 116.183C208.485 116.183 206.563 113.966 206.563 111.157C206.563 108.348 208.485 106.131 211.295 106.131C214.104 106.131 216.026 108.348 216.026 111.157C216.026 113.966 214.104 116.183 211.295 116.183Z" fill="white"/>
<path d="M222.862 111.157C222.802 114.823 222.388 115.887 220.2 115.887V118.844C224.251 118.844 225.493 116.834 225.641 111.216L225.759 106.426H231.141V118.548H234.098V103.765H223.009L222.862 111.157Z" fill="white"/>
<path d="M244.615 116.272C241.895 116.272 240.18 114.38 239.973 111.689H252.214C252.274 111.393 252.303 111.068 252.303 110.773C252.303 106.722 249.169 103.47 244.615 103.47C240.061 103.47 236.927 106.84 236.927 111.157C236.927 115.621 240.061 118.844 244.615 118.844C248.43 118.844 250.884 117.1 251.741 113.966H248.903C248.311 115.326 247.01 116.272 244.615 116.272ZM244.615 106.042C247.01 106.042 248.607 107.52 249.139 109.62H240.12C240.682 107.461 242.368 106.042 244.615 106.042Z" fill="white"/>
<path d="M261.941 116.272C259.221 116.272 257.506 114.38 257.299 111.689H269.541C269.6 111.393 269.629 111.068 269.629 110.773C269.629 106.722 266.495 103.47 261.941 103.47C257.387 103.47 254.253 106.84 254.253 111.157C254.253 115.621 257.387 118.844 261.941 118.844C265.756 118.844 268.21 117.1 269.067 113.966H266.229C265.637 115.326 264.336 116.272 261.941 116.272ZM261.941 106.042C264.336 106.042 265.933 107.52 266.465 109.62H257.447C258.008 107.461 259.694 106.042 261.941 106.042Z" fill="white"/>
<path d="M284.925 97.8523H281.82C281.82 99.508 281.081 100.218 279.425 100.218H277.976V102.583H281.82V118.548H284.925V97.8523Z" fill="white"/>
<path d="M296.777 118.844C301.745 118.844 304.761 114.734 304.761 108.2C304.761 101.666 301.745 97.5566 296.777 97.5566C291.809 97.5566 288.793 101.666 288.793 108.2C288.793 114.734 291.809 118.844 296.777 118.844ZM296.777 116.035C293.672 116.035 292.046 113.167 292.046 108.2C292.046 103.233 293.672 100.365 296.777 100.365C299.882 100.365 301.508 103.233 301.508 108.2C301.508 113.167 299.882 116.035 296.777 116.035Z" fill="white"/>
<path d="M314.998 118.844C319.966 118.844 322.982 114.734 322.982 108.2C322.982 101.666 319.966 97.5566 314.998 97.5566C310.031 97.5566 307.014 101.666 307.014 108.2C307.014 114.734 310.031 118.844 314.998 118.844ZM314.998 116.035C311.893 116.035 310.267 113.167 310.267 108.2C310.267 103.233 311.893 100.365 314.998 100.365C318.103 100.365 319.729 103.233 319.729 108.2C319.729 113.167 318.103 116.035 314.998 116.035Z" fill="white"/>
<path d="M333.22 118.844C338.187 118.844 341.203 114.734 341.203 108.2C341.203 101.666 338.187 97.5566 333.22 97.5566C328.252 97.5566 325.236 101.666 325.236 108.2C325.236 114.734 328.252 118.844 333.22 118.844ZM333.22 116.035C330.115 116.035 328.488 113.167 328.488 108.2C328.488 103.233 330.115 100.365 333.22 100.365C336.324 100.365 337.951 103.233 337.951 108.2C337.951 113.167 336.324 116.035 333.22 116.035Z" fill="white"/>
<path d="M2.12107 150.802H5.07806V144.593H12.027V150.802H14.984V136.019H12.027V141.932H5.07806V136.019H2.12107V150.802Z" fill="white"/>
<path d="M27.9813 141.548V141.784C21.2098 141.784 18.105 143.588 18.105 146.958C18.105 149.619 19.8496 151.098 22.6292 151.098C25.6749 151.098 27.2421 149.412 27.9813 147.254V150.802H30.9383V141.844C30.9383 137.734 28.7797 135.723 24.7878 135.723C21.1211 135.723 18.8147 137.527 18.3415 140.957H21.2985C21.5351 139.419 22.7179 138.384 24.7878 138.384C26.7985 138.384 27.9813 139.419 27.9813 141.548ZM21.2098 146.811C21.2098 145.037 23.1023 143.913 27.9813 143.913C27.9813 146.456 26.355 148.555 23.3093 148.555C22.0082 148.555 21.2098 147.934 21.2098 146.811Z" fill="white"/>
<path d="M34.5209 150.802H37.4779L44.7225 140.277V150.802H47.6795V136.019H44.7225L37.4779 146.545V136.019H34.5209V150.802Z" fill="white"/>
<path d="M51.4139 150.802H54.223V139.508L58.7768 150.802H61.1424L65.6961 139.508V150.802H68.6531V136.019H64.4838L60.1074 146.929L55.7015 136.019H51.4139V150.802Z" fill="white"/>
<path d="M79.1795 148.525C76.4591 148.525 74.744 146.633 74.5371 143.943H86.779C86.8381 143.647 86.8677 143.322 86.8677 143.026C86.8677 138.976 83.7333 135.723 79.1795 135.723C74.6258 135.723 71.4914 139.094 71.4914 143.411C71.4914 147.875 74.6258 151.098 79.1795 151.098C82.994 151.098 85.4483 149.353 86.3059 146.219H83.4672C82.8758 147.579 81.5747 148.525 79.1795 148.525ZM79.1795 138.296C81.5747 138.296 83.1715 139.774 83.7037 141.873H74.6849C75.2467 139.715 76.9322 138.296 79.1795 138.296Z" fill="white"/>
<path d="M89.7046 150.802H92.6615V144.593H99.6105V150.802H102.567V136.019H99.6105V141.932H92.6615V136.019H89.7046V150.802Z" fill="white"/>
<path d="M113.229 151.098C117.812 151.098 121.065 147.698 121.065 143.411C121.065 139.124 117.812 135.723 113.229 135.723C108.645 135.723 105.393 139.124 105.393 143.411C105.393 147.698 108.645 151.098 113.229 151.098ZM113.229 148.437C110.42 148.437 108.498 146.219 108.498 143.411C108.498 140.602 110.42 138.384 113.229 138.384C116.038 138.384 117.96 140.602 117.96 143.411C117.96 146.219 116.038 148.437 113.229 148.437Z" fill="white"/>
<path d="M123.895 150.802H130.962C135.013 150.802 136.314 148.673 136.314 146.663C136.314 144.682 134.983 143.558 132.825 143.204C134.717 142.701 135.664 141.4 135.664 139.863C135.664 137.409 133.86 136.019 130.578 136.019H123.895V150.802ZM130.43 142.169H126.793V138.532H130.43C131.967 138.532 132.618 139.331 132.618 140.365C132.618 141.371 131.967 142.169 130.43 142.169ZM130.637 144.534C132.559 144.534 133.209 145.421 133.209 146.367C133.209 147.432 132.559 148.289 130.785 148.289H126.793V144.534H130.637Z" fill="white"/>
<path d="M148.456 141.548V141.784C141.684 141.784 138.579 143.588 138.579 146.958C138.579 149.619 140.324 151.098 143.103 151.098C146.149 151.098 147.716 149.412 148.456 147.254V150.802H151.413V141.844C151.413 137.734 149.254 135.723 145.262 135.723C141.595 135.723 139.289 137.527 138.816 140.957H141.773C142.009 139.419 143.192 138.384 145.262 138.384C147.273 138.384 148.456 139.419 148.456 141.548ZM141.684 146.811C141.684 145.037 143.577 143.913 148.456 143.913C148.456 146.456 146.829 148.555 143.784 148.555C142.482 148.555 141.684 147.934 141.684 146.811Z" fill="white"/>
<path d="M154.995 150.802H157.952V144.593H164.901V150.802H167.858V136.019H164.901V141.932H157.952V136.019H154.995V150.802Z" fill="white"/>
<path d="M171.57 150.802H174.527L181.772 140.277V150.802H184.729V136.019H181.772L174.527 146.545V136.019H171.57V150.802Z" fill="white"/>
<path d="M190.533 130.106C190.533 132.589 192.16 134.245 195.057 134.245C197.955 134.245 199.582 132.589 199.582 130.106H196.95C196.95 131.496 196.24 132.146 195.057 132.146C193.875 132.146 193.165 131.496 193.165 130.106H190.533ZM188.463 150.802H191.42L198.665 140.277V150.802H201.622V136.019H198.665L191.42 146.545V136.019H188.463V150.802Z" fill="white"/>
<path d="M219.086 148.437C216.425 148.437 214.562 146.456 214.562 143.411C214.562 140.395 216.366 138.384 219.086 138.384C221.275 138.384 222.546 139.449 223.108 141.341H226.065C225.503 137.882 222.99 135.723 219.086 135.723C214.562 135.723 211.457 139.153 211.457 143.411C211.457 147.698 214.562 151.098 219.146 151.098C222.901 151.098 225.474 149.087 226.183 145.332H223.226C222.694 147.402 221.275 148.437 219.086 148.437Z" fill="white"/>
<path d="M229.035 150.802H236.103C240.154 150.802 241.455 148.673 241.455 146.663C241.455 144.682 240.124 143.558 237.965 143.204C239.858 142.701 240.804 141.4 240.804 139.863C240.804 137.409 239 136.019 235.718 136.019H229.035V150.802ZM235.57 142.169H231.933V138.532H235.57C237.108 138.532 237.758 139.331 237.758 140.365C237.758 141.371 237.108 142.169 235.57 142.169ZM235.777 144.534C237.699 144.534 238.35 145.421 238.35 146.367C238.35 147.432 237.699 148.289 235.925 148.289H231.933V144.534H235.777Z" fill="white"/>
<path d="M250.968 148.525C248.247 148.525 246.532 146.633 246.325 143.943H258.567C258.627 143.647 258.656 143.322 258.656 143.026C258.656 138.976 255.522 135.723 250.968 135.723C246.414 135.723 243.28 139.094 243.28 143.411C243.28 147.875 246.414 151.098 250.968 151.098C254.782 151.098 257.237 149.353 258.094 146.219H255.256C254.664 147.579 253.363 148.525 250.968 148.525ZM250.968 138.296C253.363 138.296 254.96 139.774 255.492 141.873H246.473C247.035 139.715 248.721 138.296 250.968 138.296Z" fill="white"/>
<path d="M269.132 150.802H272.089V143.884L278.388 150.802H282.291L275.194 143.056L281.729 136.019H278.27L272.089 142.671V136.019H269.132V142.671L262.952 136.019H259.345L266.028 143.204L259.079 150.802H262.834L269.132 143.884V150.802Z" fill="white"/>
<path d="M290.414 148.525C287.693 148.525 285.978 146.633 285.771 143.943H298.013C298.072 143.647 298.102 143.322 298.102 143.026C298.102 138.976 294.967 135.723 290.414 135.723C285.86 135.723 282.726 139.094 282.726 143.411C282.726 147.875 285.86 151.098 290.414 151.098C294.228 151.098 296.683 149.353 297.54 146.219H294.701C294.11 147.579 292.809 148.525 290.414 148.525ZM290.414 138.296C292.809 138.296 294.406 139.774 294.938 141.873H285.919C286.481 139.715 288.166 138.296 290.414 138.296Z" fill="white"/>
<path d="M303.009 130.106C303.009 132.589 304.635 134.245 307.533 134.245C310.431 134.245 312.057 132.589 312.057 130.106H309.425C309.425 131.496 308.716 132.146 307.533 132.146C306.35 132.146 305.64 131.496 305.64 130.106H303.009ZM300.939 150.802H303.896L311.14 140.277V150.802H314.097V136.019H311.14L303.896 146.545V136.019H300.939V150.802Z" fill="white"/>
<path d="M324.82 150.802H327.777V138.68H334.43V150.802H337.387V136.019H324.82V150.802Z" fill="white"/>
<path d="M344.063 136.019H341.106V156.715H344.063V147.491C345.128 149.679 347.139 151.098 349.83 151.098C353.94 151.098 356.631 147.698 356.631 143.411C356.631 139.124 353.881 135.723 349.83 135.723C347.139 135.723 345.128 137.143 344.063 139.331V136.019ZM348.795 138.384C351.574 138.384 353.526 140.336 353.526 143.411C353.526 146.485 351.574 148.437 348.795 148.437C346.133 148.437 344.063 146.397 344.063 143.411C344.063 140.454 346.133 138.384 348.795 138.384Z" fill="white"/>
<path d="M366.421 151.098C371.004 151.098 374.257 147.698 374.257 143.411C374.257 139.124 371.004 135.723 366.421 135.723C361.838 135.723 358.585 139.124 358.585 143.411C358.585 147.698 361.838 151.098 366.421 151.098ZM366.421 148.437C363.612 148.437 361.69 146.219 361.69 143.411C361.69 140.602 363.612 138.384 366.421 138.384C369.23 138.384 371.152 140.602 371.152 143.411C371.152 146.219 369.23 148.437 366.421 148.437Z" fill="white"/>
<path d="M375.468 154.054H378.277V150.802H389.099V154.054H391.908V148.141H389.839V136.019H378.513V137.704C378.513 144.091 377.922 146.692 377.301 148.141H375.468V154.054ZM380.228 148.141C380.761 146.781 381.234 144.682 381.293 138.68H386.882V148.141H380.228Z" fill="white"/>
<path d="M401.04 151.571L407.308 136.019H404.44L400.093 147.047L395.687 136.019H392.523L398.497 150.861C397.55 153.493 396.959 154.054 393.854 154.054V156.715C398.29 156.715 399.443 155.562 401.04 151.571Z" fill="white"/>
<path d="M409.256 150.802H412.213V143.854L418.807 150.802H422.799L415.377 143.056L422.237 136.019H418.689L412.213 142.671V136.019H409.256V150.802Z" fill="white"/>
<path d="M436.273 154.054H439.082V148.141H437.012V136.019H434.055V148.141H427.402V136.019H424.445V150.802H436.273V154.054Z" fill="white"/>
<path d="M441.482 150.802H444.439L451.684 140.277V150.802H454.641V136.019H451.684L444.439 146.545V136.019H441.482V150.802Z" fill="white"/>
<path d="M458.375 150.802H461.332L468.577 140.277V150.802H471.534V136.019H468.577L461.332 146.545V136.019H458.375V150.802Z" fill="white"/>
<path d="M9.07 183.351C13.6533 183.351 16.906 179.951 16.906 175.664C16.906 171.377 13.6533 167.977 9.07 167.977C4.48667 167.977 1.23398 171.377 1.23398 175.664C1.23398 179.951 4.48667 183.351 9.07 183.351ZM9.07 180.69C6.26086 180.69 4.33882 178.473 4.33882 175.664C4.33882 172.855 6.26086 170.638 9.07 170.638C11.8791 170.638 13.8012 172.855 13.8012 175.664C13.8012 178.473 11.8791 180.69 9.07 180.69Z" fill="white"/>
<path d="M26.8032 183.351C31.5048 183.351 34.6392 180.07 34.6392 175.96C34.6392 171.909 32.0666 168.598 27.8677 168.598C25.0881 168.598 22.8112 170.195 21.8354 172.501C21.9537 168.095 23.2548 166.233 28.2817 165.582C31.3274 165.198 33.3972 164.577 33.8704 161.768H31.0908C30.8838 162.507 29.8193 162.744 27.8085 162.98C21.5989 163.72 18.9967 166.794 18.9967 173.949C18.9967 176.492 19.322 178.503 20.2978 180.01C21.451 181.843 23.787 183.351 26.8032 183.351ZM26.8032 180.69C24.0532 180.69 22.1015 178.739 22.1015 175.96C22.1015 173.24 24.0532 171.259 26.8032 171.259C29.5827 171.259 31.5343 173.24 31.5343 175.96C31.5343 178.739 29.5827 180.69 26.8032 180.69Z" fill="white"/>
<path d="M39.2475 183.056H45.7233C49.7152 183.056 51.4894 180.483 51.4894 177.941C51.4894 175.369 49.7152 172.915 45.7233 172.915H42.2045V168.273H35.6991V170.934H39.2475V183.056ZM45.6346 175.516C47.5862 175.516 48.3846 176.699 48.3846 177.941C48.3846 179.33 47.5862 180.424 45.7824 180.424H42.2045V175.516H45.6346Z" fill="white"/>
<path d="M57.8562 165.908C58.9207 165.908 59.7782 165.05 59.7782 163.986C59.7782 162.921 58.9207 162.064 57.8562 162.064C56.7917 162.064 55.9341 162.921 55.9341 163.986C55.9341 165.05 56.7917 165.908 57.8562 165.908ZM63.7701 165.908C64.8347 165.908 65.6922 165.05 65.6922 163.986C65.6922 162.921 64.8347 162.064 63.7701 162.064C62.7056 162.064 61.8481 162.921 61.8481 163.986C61.8481 165.05 62.7056 165.908 63.7701 165.908ZM60.8427 180.779C58.1223 180.779 56.4072 178.887 56.2003 176.196H68.4422C68.5013 175.901 68.5309 175.576 68.5309 175.28C68.5309 171.229 65.3965 167.977 60.8427 167.977C56.289 167.977 53.1546 171.348 53.1546 175.664C53.1546 180.129 56.289 183.351 60.8427 183.351C64.6572 183.351 67.1115 181.607 67.9691 178.473H65.1304C64.539 179.833 63.2379 180.779 60.8427 180.779ZM60.8427 170.549C63.2379 170.549 64.8347 172.028 65.3669 174.127H56.3481C56.9099 171.969 58.5954 170.549 60.8427 170.549Z" fill="white"/>
<path d="M71.3678 183.056H74.1769V171.762L78.7307 183.056H81.0963L85.65 171.762V183.056H88.607V168.273H84.4377L80.0613 179.183L75.6554 168.273H71.3678V183.056Z" fill="white"/>
<path d="M99.2813 183.351C103.865 183.351 107.117 179.951 107.117 175.664C107.117 171.377 103.865 167.977 99.2813 167.977C94.6979 167.977 91.4453 171.377 91.4453 175.664C91.4453 179.951 94.6979 183.351 99.2813 183.351ZM99.2813 180.69C96.4721 180.69 94.5501 178.473 94.5501 175.664C94.5501 172.855 96.4721 170.638 99.2813 170.638C102.09 170.638 104.012 172.855 104.012 175.664C104.012 178.473 102.09 180.69 99.2813 180.69Z" fill="white"/>
<path d="M109.947 183.056H112.756V171.762L117.31 183.056H119.676L124.229 171.762V183.056H127.186V168.273H123.017L118.641 179.183L114.235 168.273H109.947V183.056Z" fill="white"/>
<path d="M136.569 186.308H139.379V183.056H150.201V186.308H153.01V180.395H150.94V168.273H139.615V169.958C139.615 176.344 139.024 178.946 138.403 180.395H136.569V186.308ZM141.33 180.395C141.862 179.035 142.336 176.936 142.395 170.934H147.983V180.395H141.33Z" fill="white"/>
<path d="M162.348 183.351C166.932 183.351 170.184 179.951 170.184 175.664C170.184 171.377 166.932 167.977 162.348 167.977C157.765 167.977 154.512 171.377 154.512 175.664C154.512 179.951 157.765 183.351 162.348 183.351ZM162.348 180.69C159.539 180.69 157.617 178.473 157.617 175.664C157.617 172.855 159.539 170.638 162.348 170.638C165.157 170.638 167.08 172.855 167.08 175.664C167.08 178.473 165.157 180.69 162.348 180.69Z" fill="white"/>
<path d="M186.833 183.351C191.978 183.351 194.314 180.454 194.314 177.054C194.314 174.6 192.599 172.796 190.175 172.353C192.304 171.762 193.575 169.781 193.575 167.711C193.575 164.666 191.446 162.064 186.656 162.064C182.398 162.064 179.589 164.518 179.382 168.687H182.634C182.812 166.381 184.024 164.873 186.656 164.873C189.051 164.873 190.322 166.351 190.322 168.007C190.322 169.988 189.199 171.2 186.715 171.2H184.882V173.802H186.863C189.642 173.802 191.062 174.925 191.062 176.995C191.062 179.094 189.908 180.543 186.833 180.543C184.054 180.543 182.752 179.183 182.368 176.995H179.115C179.322 180.631 181.806 183.351 186.833 183.351Z" fill="white"/>
<path d="M203.986 183.351C208.924 183.351 211.319 180.01 211.319 176.492C211.319 171.998 208.599 169.189 204.134 169.189C202.419 169.189 201.029 169.751 200.053 170.49L200.645 165.168H209.93V162.36H198.279L197.037 173.624H199.698C200.615 172.649 202.005 171.998 203.956 171.998C206.677 171.998 208.067 173.831 208.067 176.403C208.067 178.769 206.677 180.543 203.986 180.543C201.295 180.543 200.053 179.183 199.669 176.995H196.416C196.594 180.602 198.93 183.351 203.986 183.351Z" fill="white"/>
<path d="M225.114 183.056H228.071V170.934H233.217V168.273H219.969V170.934H225.114V183.056Z" fill="white"/>
<path d="M242.135 183.351C246.718 183.351 249.971 179.951 249.971 175.664C249.971 171.377 246.718 167.977 242.135 167.977C237.552 167.977 234.299 171.377 234.299 175.664C234.299 179.951 237.552 183.351 242.135 183.351ZM242.135 180.69C239.326 180.69 237.404 178.473 237.404 175.664C237.404 172.855 239.326 170.638 242.135 170.638C244.944 170.638 246.866 172.855 246.866 175.664C246.866 178.473 244.944 180.69 242.135 180.69Z" fill="white"/>
<path d="M252.801 183.056H255.758V176.847H262.707V183.056H265.664V168.273H262.707V174.186H255.758V168.273H252.801V183.056Z" fill="white"/>
<path d="M269.376 183.056H272.333V176.847H279.282V183.056H282.239V168.273H279.282V174.186H272.333V168.273H269.376V183.056Z" fill="white"/>
<path d="M292.94 183.056H300.007C304.058 183.056 305.359 180.927 305.359 178.916C305.359 176.936 304.029 175.812 301.87 175.457C303.762 174.955 304.709 173.654 304.709 172.116C304.709 169.662 302.905 168.273 299.623 168.273H292.94V183.056ZM299.475 174.422H295.838V170.786H299.475C301.012 170.786 301.663 171.584 301.663 172.619C301.663 173.624 301.012 174.422 299.475 174.422ZM299.682 176.788C301.604 176.788 302.254 177.675 302.254 178.621C302.254 179.685 301.604 180.543 299.83 180.543H295.838V176.788H299.682Z" fill="white"/>
<path d="M322.09 180.69C319.429 180.69 317.566 178.71 317.566 175.664C317.566 172.649 319.37 170.638 322.09 170.638C324.278 170.638 325.55 171.702 326.112 173.595H329.069C328.507 170.135 325.993 167.977 322.09 167.977C317.566 167.977 314.461 171.407 314.461 175.664C314.461 179.951 317.566 183.351 322.149 183.351C325.905 183.351 328.477 181.341 329.187 177.586H326.23C325.698 179.656 324.278 180.69 322.09 180.69Z" fill="white"/>
<path d="M338.492 183.824L344.761 168.273H341.893L337.546 179.301L333.14 168.273H329.976L335.949 183.115C335.003 185.746 334.412 186.308 331.307 186.308V188.969C335.742 188.969 336.895 187.816 338.492 183.824Z" fill="white"/>
<path d="M350.671 183.056H353.628V170.934H358.773V168.273H345.526V170.934H350.671V183.056Z" fill="white"/>
<path d="M361.32 183.056H364.277V176.108L370.871 183.056H374.863L367.441 175.309L374.301 168.273H370.753L364.277 174.925V168.273H361.32V183.056Z" fill="white"/>
<path d="M376.509 183.056H379.466L386.711 172.53V183.056H389.668V168.273H386.711L379.466 178.798V168.273H376.509V183.056Z" fill="white"/>
<path d="M394.999 183.351C396.212 183.351 397.187 182.376 397.187 181.104C397.187 179.922 396.212 179.005 394.999 179.005C393.757 179.005 392.811 179.922 392.811 181.104C392.811 182.376 393.757 183.351 394.999 183.351Z" fill="white"/>
</g>
</svg>
