<svg width="430" height="157" viewBox="0 0 430 157" fill="none" xmlns="http://www.w3.org/2000/svg">
<g id="&#208;&#151;&#208;&#180;&#208;&#181;&#209;&#129;&#209;&#140; &#208;&#177;&#209;&#131;&#208;&#180;&#208;&#181;&#209;&#130; &#208;&#184;&#208;&#189;&#209;&#130;&#208;&#181;&#209;&#128;&#208;&#181;&#209;&#129;&#208;&#189;&#208;&#190; &#209;&#129;&#208;&#190;&#208;&#178;&#208;&#181;&#209;&#128;&#209;&#136;&#208;&#181;&#208;&#189;&#209;&#129;&#209;&#130;&#208;&#178;&#208;&#190;&#208;&#178;&#208;&#176;&#209;&#130;&#209;&#140;&#209;&#129;&#209;&#143; &#208;&#178;&#194;&#160;&#208;&#191;&#209;&#128;&#208;&#190;&#209;&#132;&#208;&#181;&#209;&#129;&#209;&#129;&#208;&#184;&#208;&#184;, &#209;&#129;&#209;&#130;&#208;&#176;&#208;&#189;&#208;&#190;&#208;&#178;&#208;&#184;&#209;&#130;&#209;&#140;&#209;&#129;&#209;&#143; &#209;&#141;&#208;&#186;&#209;&#129;&#208;&#191;&#208;&#181;&#209;&#128;&#209;&#130;&#208;&#190;&#208;&#188; &#208;&#184; &#209;&#131;&#209;&#135;&#208;&#176;&#209;&#129;&#209;&#130;&#208;&#178;&#208;&#190;&#208;&#178;&#208;&#176;&#209;&#130;&#209;&#140; &#208;&#178;&#194;&#160;&#209;&#143;&#209;&#128;&#208;&#186;&#208;&#190;&#208;&#185; &#208;&#186;&#208;&#190;&#209;&#128;&#208;&#191;&#208;&#190;&#209;&#128;&#208;&#176;&#209;&#130;&#208;&#184;&#208;&#178;&#208;&#189;&#208;&#190;&#208;&#185; &#208;&#182;&#208;&#184;&#208;&#183;&#208;&#189;&#208;&#184;.">
<path d="M8.54287 22.3077C13.9837 22.3077 16.3789 19.4102 16.3789 16.2467C16.3789 13.8518 14.723 11.9005 12.0913 11.3092C14.102 10.6292 15.5805 8.73696 15.5805 6.48995C15.5805 3.56293 13.2445 1.02027 8.33588 1.02027C3.69341 1.02027 0.736417 3.53337 0.440719 7.3178H3.66384C4.16653 5.33688 5.4676 3.82902 8.27674 3.82902C11.0563 3.82902 12.3278 5.15949 12.3278 6.75604C12.3278 8.79609 11.2042 10.1857 8.39502 10.1857H5.61545V12.9944H8.54287C11.8843 12.9944 13.1262 14.3545 13.1262 16.158C13.1262 17.9319 11.5886 19.4989 8.54287 19.4989C5.34932 19.4989 3.72298 18.0502 3.36814 15.6849H0.14502C0.381579 19.5285 3.13158 22.3077 8.54287 22.3077Z" fill="white"/>
<path d="M17.6649 25.2643H20.4741V22.012H31.2967V25.2643H34.1058V19.3511H32.0359V7.2291H20.7106V8.91435C20.7106 15.3006 20.1193 17.9024 19.4983 19.3511H17.6649V25.2643ZM22.4257 19.3511C22.958 17.9911 23.4311 15.8919 23.4902 9.89002H29.0789V19.3511H22.4257Z" fill="white"/>
<path d="M43.296 19.7355C40.5756 19.7355 38.8606 17.8432 38.6536 15.1527H50.8955C50.9546 14.8571 50.9842 14.5319 50.9842 14.2362C50.9842 10.1857 47.8498 6.93344 43.296 6.93344C38.7423 6.93344 35.6079 10.3039 35.6079 14.6206C35.6079 19.085 38.7423 22.3077 43.296 22.3077C47.1106 22.3077 49.5649 20.5633 50.4224 17.4293H47.5837C46.9923 18.7893 45.6912 19.7355 43.296 19.7355ZM43.296 9.50567C45.6912 9.50567 47.288 10.984 47.8202 13.0831H38.8014C39.3632 10.9248 41.0487 9.50567 43.296 9.50567Z" fill="white"/>
<path d="M60.563 19.6468C57.9017 19.6468 56.0388 17.6658 56.0388 14.6206C56.0388 11.6048 57.8426 9.59437 60.563 9.59437C62.7512 9.59437 64.0227 10.6587 64.5845 12.5509H67.5415C66.9797 9.09174 64.4662 6.93344 60.563 6.93344C56.0388 6.93344 52.934 10.3631 52.934 14.6206C52.934 18.9076 56.0388 22.3077 60.6222 22.3077C64.3775 22.3077 66.9501 20.2972 67.6598 16.5423H64.7028C64.1705 18.6119 62.7512 19.6468 60.563 19.6468Z" fill="white"/>
<path d="M70.5119 22.012H76.9877C80.9796 22.012 82.7538 19.4398 82.7538 16.8971C82.7538 14.3249 80.9796 11.8709 76.9877 11.8709H73.4689V7.2291H70.5119V22.012ZM76.899 14.4727C78.8506 14.4727 79.649 15.6554 79.649 16.8971C79.649 18.2867 78.8506 19.3807 77.0468 19.3807H73.4689V14.4727H76.899Z" fill="white"/>
<path d="M99.3522 22.3077C104.054 22.3077 107.188 19.0259 107.188 14.9162C107.188 10.8657 104.616 7.55432 100.417 7.55432C97.6372 7.55432 95.3603 9.15088 94.3845 11.457C94.5028 7.0517 95.8039 5.18905 100.831 4.5386C103.876 4.15425 105.946 3.53337 106.419 0.724609H103.64C103.433 1.46375 102.368 1.70028 100.358 1.93681C94.1479 2.67595 91.5458 5.7508 91.5458 12.9057C91.5458 15.4484 91.8711 17.4589 92.8469 18.9667C94.0001 20.7998 96.3361 22.3077 99.3522 22.3077ZM99.3522 19.6468C96.6022 19.6468 94.6506 17.6954 94.6506 14.9162C94.6506 12.1962 96.6022 10.2152 99.3522 10.2152C102.132 10.2152 104.083 12.1962 104.083 14.9162C104.083 17.6954 102.132 19.6468 99.3522 19.6468Z" fill="white"/>
<path d="M116.324 22.7807L122.593 7.2291H119.725L115.378 18.2572L110.972 7.2291H107.808L113.781 22.0712C112.835 24.7025 112.244 25.2643 109.139 25.2643V27.9252C113.574 27.9252 114.727 26.7721 116.324 22.7807Z" fill="white"/>
<path d="M122.777 25.2643H125.586V22.012H136.408V25.2643H139.218V19.3511H137.148V7.2291H125.822V8.91435C125.822 15.3006 125.231 17.9024 124.61 19.3511H122.777V25.2643ZM127.537 19.3511C128.07 17.9911 128.543 15.8919 128.602 9.89002H134.191V19.3511H127.537Z" fill="white"/>
<path d="M148.408 19.7355C145.687 19.7355 143.972 17.8432 143.765 15.1527H156.007C156.066 14.8571 156.096 14.5319 156.096 14.2362C156.096 10.1857 152.962 6.93344 148.408 6.93344C143.854 6.93344 140.72 10.3039 140.72 14.6206C140.72 19.085 143.854 22.3077 148.408 22.3077C152.222 22.3077 154.677 20.5633 155.534 17.4293H152.695C152.104 18.7893 150.803 19.7355 148.408 19.7355ZM148.408 9.50567C150.803 9.50567 152.4 10.984 152.932 13.0831H143.913C144.475 10.9248 146.16 9.50567 148.408 9.50567Z" fill="white"/>
<path d="M162.606 22.012H165.563V9.89002H170.709V7.2291H157.461V9.89002H162.606V22.012Z" fill="white"/>
<path d="M180.244 22.012H183.201L190.446 11.4866V22.012H193.403V7.2291H190.446L183.201 17.7545V7.2291H180.244V22.012Z" fill="white"/>
<path d="M197.137 22.012H200.094V15.8032H207.043V22.012H210V7.2291H207.043V13.1423H200.094V7.2291H197.137V22.012Z" fill="white"/>
<path d="M217.675 22.012H220.632V9.89002H225.777V7.2291H212.529V9.89002H217.675V22.012Z" fill="white"/>
<path d="M234.547 19.7355C231.827 19.7355 230.112 17.8432 229.905 15.1527H242.147C242.206 14.8571 242.236 14.5319 242.236 14.2362C242.236 10.1857 239.101 6.93344 234.547 6.93344C229.994 6.93344 226.859 10.3039 226.859 14.6206C226.859 19.085 229.994 22.3077 234.547 22.3077C238.362 22.3077 240.816 20.5633 241.674 17.4293H238.835C238.244 18.7893 236.943 19.7355 234.547 19.7355ZM234.547 9.50567C236.943 9.50567 238.539 10.984 239.072 13.0831H230.053C230.615 10.9248 232.3 9.50567 234.547 9.50567Z" fill="white"/>
<path d="M248.029 7.2291H245.072V27.9252H248.029V18.7006C249.094 20.8885 251.105 22.3077 253.796 22.3077C257.906 22.3077 260.597 18.9076 260.597 14.6206C260.597 10.3335 257.847 6.93344 253.796 6.93344C251.105 6.93344 249.094 8.3526 248.029 10.5405V7.2291ZM252.761 9.59437C255.54 9.59437 257.492 11.5457 257.492 14.6206C257.492 17.6954 255.54 19.6468 252.761 19.6468C250.099 19.6468 248.029 17.6067 248.029 14.6206C248.029 11.664 250.099 9.59437 252.761 9.59437Z" fill="white"/>
<path d="M270.239 19.7355C267.519 19.7355 265.804 17.8432 265.597 15.1527H277.839C277.898 14.8571 277.927 14.5319 277.927 14.2362C277.927 10.1857 274.793 6.93344 270.239 6.93344C265.685 6.93344 262.551 10.3039 262.551 14.6206C262.551 19.085 265.685 22.3077 270.239 22.3077C274.054 22.3077 276.508 20.5633 277.366 17.4293H274.527C273.935 18.7893 272.634 19.7355 270.239 19.7355ZM270.239 9.50567C272.634 9.50567 274.231 10.984 274.763 13.0831H265.745C266.306 10.9248 267.992 9.50567 270.239 9.50567Z" fill="white"/>
<path d="M287.506 19.6468C284.845 19.6468 282.982 17.6658 282.982 14.6206C282.982 11.6048 284.786 9.59437 287.506 9.59437C289.694 9.59437 290.966 10.6587 291.528 12.5509H294.485C293.923 9.09174 291.409 6.93344 287.506 6.93344C282.982 6.93344 279.877 10.3631 279.877 14.6206C279.877 18.9076 282.982 22.3077 287.565 22.3077C291.321 22.3077 293.893 20.2972 294.603 16.5423H291.646C291.114 18.6119 289.694 19.6468 287.506 19.6468Z" fill="white"/>
<path d="M297.455 22.012H300.412V15.8032H307.361V22.012H310.318V7.2291H307.361V13.1423H300.412V7.2291H297.455V22.012Z" fill="white"/>
<path d="M320.979 22.3077C325.563 22.3077 328.815 18.9076 328.815 14.6206C328.815 10.3335 325.563 6.93344 320.979 6.93344C316.396 6.93344 313.143 10.3335 313.143 14.6206C313.143 18.9076 316.396 22.3077 320.979 22.3077ZM320.979 19.6468C318.17 19.6468 316.248 17.4293 316.248 14.6206C316.248 11.8118 318.17 9.59437 320.979 9.59437C323.788 9.59437 325.71 11.8118 325.71 14.6206C325.71 17.4293 323.788 19.6468 320.979 19.6468Z" fill="white"/>
<path d="M7.86276 51.9004C5.20147 51.9004 3.33857 49.9195 3.33857 46.8742C3.33857 43.8585 5.14233 41.848 7.86276 41.848C10.0509 41.848 11.3224 42.9124 11.8843 44.8046H14.8413C14.2794 41.3454 11.766 39.1871 7.86276 39.1871C3.33857 39.1871 0.233729 42.6167 0.233729 46.8742C0.233729 51.1613 3.33857 54.5613 7.9219 54.5613C11.6773 54.5613 14.2499 52.5509 14.9595 48.796H12.0025C11.4703 50.8656 10.0509 51.9004 7.86276 51.9004Z" fill="white"/>
<path d="M24.6162 54.5613C29.1995 54.5613 32.4522 51.1613 32.4522 46.8742C32.4522 42.5872 29.1995 39.1871 24.6162 39.1871C20.0329 39.1871 16.7802 42.5872 16.7802 46.8742C16.7802 51.1613 20.0329 54.5613 24.6162 54.5613ZM24.6162 51.9004C21.807 51.9004 19.885 49.683 19.885 46.8742C19.885 44.0655 21.807 41.848 24.6162 41.848C27.4253 41.848 29.3474 44.0655 29.3474 46.8742C29.3474 49.683 27.4253 51.9004 24.6162 51.9004Z" fill="white"/>
<path d="M35.2821 54.2657H42.3493C46.4004 54.2657 47.7015 52.1369 47.7015 50.1265C47.7015 48.1455 46.3708 47.022 44.2122 46.6673C46.1047 46.1646 47.051 44.8637 47.051 43.3263C47.051 40.8723 45.2472 39.4828 41.9649 39.4828H35.2821V54.2657ZM41.8171 45.6325H38.18V41.9958H41.8171C43.3547 41.9958 44.0053 42.7941 44.0053 43.8289C44.0053 44.8342 43.3547 45.6325 41.8171 45.6325ZM42.0241 47.9977C43.9461 47.9977 44.5967 48.8847 44.5967 49.8308C44.5967 50.8952 43.9461 51.7526 42.1719 51.7526H38.18V47.9977H42.0241Z" fill="white"/>
<path d="M57.2147 51.9891C54.4943 51.9891 52.7792 50.0969 52.5722 47.4064H64.8141C64.8733 47.1107 64.9029 46.7855 64.9029 46.4899C64.9029 42.4393 61.7684 39.1871 57.2147 39.1871C52.6609 39.1871 49.5265 42.5576 49.5265 46.8742C49.5265 51.3387 52.6609 54.5613 57.2147 54.5613C61.0292 54.5613 63.4835 52.817 64.341 49.683H61.5023C60.9109 51.043 59.6098 51.9891 57.2147 51.9891ZM57.2147 41.7593C59.6098 41.7593 61.2066 43.2376 61.7389 45.3368H52.7201C53.2819 43.1785 54.9674 41.7593 57.2147 41.7593Z" fill="white"/>
<path d="M70.6967 39.4828H67.7397V60.1789H70.6967V50.9543C71.7612 53.1422 73.772 54.5613 76.4628 54.5613C80.5731 54.5613 83.2639 51.1613 83.2639 46.8742C83.2639 42.5872 80.5139 39.1871 76.4628 39.1871C73.772 39.1871 71.7612 40.6063 70.6967 42.7941V39.4828ZM75.4279 41.848C78.2075 41.848 80.1591 43.7994 80.1591 46.8742C80.1591 49.9491 78.2075 51.9004 75.4279 51.9004C72.7666 51.9004 70.6967 49.8604 70.6967 46.8742C70.6967 43.9176 72.7666 41.848 75.4279 41.848Z" fill="white"/>
<path d="M86.1054 54.2657H106.213V39.4828H103.256V51.5456H97.6376V39.4828H94.6807V51.5456H89.0624V39.4828H86.1054V54.2657Z" fill="white"/>
<path d="M116.73 51.9891C114.009 51.9891 112.294 50.0969 112.087 47.4064H124.329C124.388 47.1107 124.418 46.7855 124.418 46.4899C124.418 42.4393 121.284 39.1871 116.73 39.1871C112.176 39.1871 109.042 42.5576 109.042 46.8742C109.042 51.3387 112.176 54.5613 116.73 54.5613C120.544 54.5613 122.999 52.817 123.856 49.683H121.018C120.426 51.043 119.125 51.9891 116.73 51.9891ZM116.73 41.7593C119.125 41.7593 120.722 43.2376 121.254 45.3368H112.235C112.797 43.1785 114.483 41.7593 116.73 41.7593Z" fill="white"/>
<path d="M127.255 54.2657H130.212V48.0569H137.161V54.2657H140.118V39.4828H137.161V45.3959H130.212V39.4828H127.255V54.2657Z" fill="white"/>
<path d="M150.572 51.9004C147.911 51.9004 146.048 49.9195 146.048 46.8742C146.048 43.8585 147.852 41.848 150.572 41.848C152.76 41.848 154.032 42.9124 154.594 44.8046H157.551C156.989 41.3454 154.475 39.1871 150.572 39.1871C146.048 39.1871 142.943 42.6167 142.943 46.8742C142.943 51.1613 146.048 54.5613 150.631 54.5613C154.387 54.5613 156.959 52.5509 157.669 48.796H154.712C154.18 50.8656 152.76 51.9004 150.572 51.9004Z" fill="white"/>
<path d="M164.195 54.2657H167.152V42.1437H172.297V39.4828H159.049V42.1437H164.195V54.2657Z" fill="white"/>
<path d="M174.844 54.2657H181.911C185.962 54.2657 187.263 52.1369 187.263 50.1265C187.263 48.1455 185.933 47.022 183.774 46.6673C185.667 46.1646 186.613 44.8637 186.613 43.3263C186.613 40.8723 184.809 39.4828 181.527 39.4828H174.844V54.2657ZM181.379 45.6325H177.742V41.9958H181.379C182.917 41.9958 183.567 42.7941 183.567 43.8289C183.567 44.8342 182.917 45.6325 181.379 45.6325ZM181.586 47.9977C183.508 47.9977 184.158 48.8847 184.158 49.8308C184.158 50.8952 183.508 51.7526 181.734 51.7526H177.742V47.9977H181.586Z" fill="white"/>
<path d="M196.924 54.5613C201.508 54.5613 204.76 51.1613 204.76 46.8742C204.76 42.5872 201.508 39.1871 196.924 39.1871C192.341 39.1871 189.088 42.5872 189.088 46.8742C189.088 51.1613 192.341 54.5613 196.924 54.5613ZM196.924 51.9004C194.115 51.9004 192.193 49.683 192.193 46.8742C192.193 44.0655 194.115 41.848 196.924 41.848C199.733 41.848 201.656 44.0655 201.656 46.8742C201.656 49.683 199.733 51.9004 196.924 51.9004Z" fill="white"/>
<path d="M207.59 54.2657H214.657C218.709 54.2657 220.01 52.1369 220.01 50.1265C220.01 48.1455 218.679 47.022 216.52 46.6673C218.413 46.1646 219.359 44.8637 219.359 43.3263C219.359 40.8723 217.555 39.4828 214.273 39.4828H207.59V54.2657ZM214.125 45.6325H210.488V41.9958H214.125C215.663 41.9958 216.313 42.7941 216.313 43.8289C216.313 44.8342 215.663 45.6325 214.125 45.6325ZM214.332 47.9977C216.254 47.9977 216.905 48.8847 216.905 49.8308C216.905 50.8952 216.254 51.7526 214.48 51.7526H210.488V47.9977H214.332Z" fill="white"/>
<path d="M232.151 45.0116V45.2481C225.38 45.2481 222.275 47.0516 222.275 50.4221C222.275 53.083 224.019 54.5613 226.799 54.5613C229.845 54.5613 231.412 52.8761 232.151 50.7178V54.2657H235.108V45.3072C235.108 41.1976 232.949 39.1871 228.958 39.1871C225.291 39.1871 222.984 40.9906 222.511 44.4202H225.468C225.705 42.8828 226.888 41.848 228.958 41.848C230.968 41.848 232.151 42.8828 232.151 45.0116ZM225.38 50.2743C225.38 48.5003 227.272 47.3768 232.151 47.3768C232.151 49.9195 230.525 52.0187 227.479 52.0187C226.178 52.0187 225.38 51.3978 225.38 50.2743Z" fill="white"/>
<path d="M242.364 54.2657H245.321V42.1437H250.466V39.4828H237.219V42.1437H242.364V54.2657Z" fill="white"/>
<path d="M253.014 54.2657H259.489C263.481 54.2657 265.256 51.6935 265.256 49.1508C265.256 46.5786 263.481 44.1246 259.489 44.1246H255.971V39.4828H253.014V54.2657ZM259.401 46.7264C261.352 46.7264 262.151 47.909 262.151 49.1508C262.151 50.5404 261.352 51.6343 259.549 51.6343H255.971V46.7264H259.401Z" fill="white"/>
<path d="M274.54 51.9004C271.879 51.9004 270.016 49.9195 270.016 46.8742C270.016 43.8585 271.82 41.848 274.54 41.848C276.729 41.848 278 42.9124 278.562 44.8046H281.519C280.957 41.3454 278.444 39.1871 274.54 39.1871C270.016 39.1871 266.911 42.6167 266.911 46.8742C266.911 51.1613 270.016 54.5613 274.6 54.5613C278.355 54.5613 280.928 52.5509 281.637 48.796H278.68C278.148 50.8656 276.729 51.9004 274.54 51.9004Z" fill="white"/>
<path d="M286.714 54.2657L290.824 49.0325H293.279V54.2657H296.236V39.4828H289.76C285.768 39.4828 283.994 41.9663 283.994 44.4498C283.994 46.549 285.265 48.0864 287.69 48.6482L283.166 54.2657H286.714ZM289.848 46.7264C287.897 46.7264 287.098 45.6029 287.098 44.4498C287.098 43.1489 287.897 42.1141 289.701 42.1141H293.279V46.7264H289.848Z" fill="white"/>
<path d="M1.12083 86.5193H8.18803C12.2391 86.5193 13.5402 84.3906 13.5402 82.3801C13.5402 80.3992 12.2095 79.2757 10.0509 78.9209C11.9434 78.4183 12.8896 77.1174 12.8896 75.58C12.8896 73.126 11.0859 71.7364 7.80362 71.7364H1.12083V86.5193ZM7.65577 77.8861H4.01868V74.2495H7.65577C9.19341 74.2495 9.84395 75.0478 9.84395 76.0826C9.84395 77.0878 9.19341 77.8861 7.65577 77.8861ZM7.86276 80.2514C9.78481 80.2514 10.4353 81.1384 10.4353 82.0845C10.4353 83.1488 9.78481 84.0062 8.01061 84.0062H4.01868V80.2514H7.86276Z" fill="white"/>
<path d="M23.5293 86.5193H26.4862V74.3973H33.1395V86.5193H36.0965V71.7364H23.5293V86.5193Z" fill="white"/>
<path d="M42.7728 71.7364H39.8158V92.4325H42.7728V83.208C43.8373 85.3958 45.8481 86.815 48.5389 86.815C52.6491 86.815 55.34 83.4149 55.34 79.1279C55.34 74.8408 52.59 71.4408 48.5389 71.4408C45.8481 71.4408 43.8373 72.8599 42.7728 75.0478V71.7364ZM47.504 74.1017C50.2835 74.1017 52.2352 76.053 52.2352 79.1279C52.2352 82.2027 50.2835 84.1541 47.504 84.1541C44.8427 84.1541 42.7728 82.114 42.7728 79.1279C42.7728 76.1713 44.8427 74.1017 47.504 74.1017Z" fill="white"/>
<path d="M65.1304 86.815C69.7137 86.815 72.9664 83.4149 72.9664 79.1279C72.9664 74.8408 69.7137 71.4408 65.1304 71.4408C60.5471 71.4408 57.2944 74.8408 57.2944 79.1279C57.2944 83.4149 60.5471 86.815 65.1304 86.815ZM65.1304 84.1541C62.3213 84.1541 60.3992 81.9366 60.3992 79.1279C60.3992 76.3191 62.3213 74.1017 65.1304 74.1017C67.9395 74.1017 69.8616 76.3191 69.8616 79.1279C69.8616 81.9366 67.9395 84.1541 65.1304 84.1541Z" fill="white"/>
<path d="M83.041 92.4325H85.998V86.815C90.3743 86.608 94.1297 83.8584 94.1297 79.1279C94.1297 74.3973 90.3743 71.6181 85.998 71.4408V65.8232H83.041V71.4408C78.6646 71.6181 74.9093 74.3973 74.9093 79.1279C74.9093 83.8584 78.6646 86.608 83.041 86.815V92.4325ZM78.0141 79.1279C78.0141 75.8165 80.4388 74.1312 83.041 74.013V84.2428C80.4388 84.1245 78.0141 82.4392 78.0141 79.1279ZM85.998 74.013C88.5705 74.1312 91.0248 75.8165 91.0248 79.1279C91.0248 82.4392 88.5705 84.1245 85.998 84.2428V74.013Z" fill="white"/>
<path d="M103.764 84.2428C101.044 84.2428 99.3287 82.3505 99.1217 79.6601H111.364C111.423 79.3644 111.452 79.0392 111.452 78.7435C111.452 74.693 108.318 71.4408 103.764 71.4408C99.2104 71.4408 96.076 74.8113 96.076 79.1279C96.076 83.5923 99.2104 86.815 103.764 86.815C107.579 86.815 110.033 85.0706 110.891 81.9366H108.052C107.46 83.2967 106.159 84.2428 103.764 84.2428ZM103.764 74.013C106.159 74.013 107.756 75.4913 108.288 77.5904H99.2695C99.8314 75.4321 101.517 74.013 103.764 74.013Z" fill="white"/>
<path d="M121.031 84.1541C118.37 84.1541 116.507 82.1732 116.507 79.1279C116.507 76.1122 118.311 74.1017 121.031 74.1017C123.219 74.1017 124.491 75.166 125.053 77.0583H128.01C127.448 73.5991 124.934 71.4408 121.031 71.4408C116.507 71.4408 113.402 74.8704 113.402 79.1279C113.402 83.4149 116.507 86.815 121.09 86.815C124.846 86.815 127.418 84.8045 128.128 81.0497H125.171C124.639 83.1193 123.219 84.1541 121.031 84.1541Z" fill="white"/>
<path d="M137.578 84.1541C134.916 84.1541 133.053 82.1732 133.053 79.1279C133.053 76.1122 134.857 74.1017 137.578 74.1017C139.766 74.1017 141.037 75.166 141.599 77.0583H144.556C143.994 73.5991 141.481 71.4408 137.578 71.4408C133.053 71.4408 129.949 74.8704 129.949 79.1279C129.949 83.4149 133.053 86.815 137.637 86.815C141.392 86.815 143.965 84.8045 144.674 81.0497H141.717C141.185 83.1193 139.766 84.1541 137.578 84.1541Z" fill="white"/>
<path d="M147.526 86.5193H150.483L157.728 75.9939V86.5193H160.685V71.7364H157.728L150.483 82.2619V71.7364H147.526V86.5193Z" fill="white"/>
<path d="M164.419 86.5193H167.376L174.621 75.9939V86.5193H177.578V71.7364H174.621L167.376 82.2619V71.7364H164.419V86.5193Z" fill="white"/>
<path d="M181.667 89.1803H183.264L184.535 86.4011C184.979 85.4254 185.097 84.9228 185.097 84.568C185.097 83.3558 184.122 82.4688 182.909 82.4688C181.667 82.4688 180.721 83.3558 180.721 84.568C180.721 85.3367 181.046 86.0758 182.17 86.5785L181.667 89.1803Z" fill="white"/>
<path d="M201.973 84.1541C199.312 84.1541 197.449 82.1732 197.449 79.1279C197.449 76.1122 199.252 74.1017 201.973 74.1017C204.161 74.1017 205.433 75.166 205.994 77.0583H208.951C208.39 73.5991 205.876 71.4408 201.973 71.4408C197.449 71.4408 194.344 74.8704 194.344 79.1279C194.344 83.4149 197.449 86.815 202.032 86.815C205.787 86.815 208.36 84.8045 209.07 81.0497H206.113C205.58 83.1193 204.161 84.1541 201.973 84.1541Z" fill="white"/>
<path d="M215.595 86.5193H218.552V74.3973H223.698V71.7364H210.45V74.3973H215.595V86.5193Z" fill="white"/>
<path d="M234.952 77.2652V77.5018C228.181 77.5018 225.076 79.3053 225.076 82.6758C225.076 85.3367 226.82 86.815 229.6 86.815C232.646 86.815 234.213 85.1297 234.952 82.9714V86.5193H237.909V77.5609C237.909 73.4512 235.751 71.4408 231.759 71.4408C228.092 71.4408 225.785 73.2443 225.312 76.6739H228.269C228.506 75.1365 229.689 74.1017 231.759 74.1017C233.769 74.1017 234.952 75.1365 234.952 77.2652ZM228.181 82.5279C228.181 80.754 230.073 79.6305 234.952 79.6305C234.952 82.1732 233.326 84.2723 230.28 84.2723C228.979 84.2723 228.181 83.6514 228.181 82.5279Z" fill="white"/>
<path d="M241.492 86.5193H244.449V80.3105H251.398V86.5193H254.355V71.7364H251.398V77.6496H244.449V71.7364H241.492V86.5193Z" fill="white"/>
<path d="M265.016 86.815C269.599 86.815 272.852 83.4149 272.852 79.1279C272.852 74.8408 269.599 71.4408 265.016 71.4408C260.433 71.4408 257.18 74.8408 257.18 79.1279C257.18 83.4149 260.433 86.815 265.016 86.815ZM265.016 84.1541C262.207 84.1541 260.285 81.9366 260.285 79.1279C260.285 76.3191 262.207 74.1017 265.016 74.1017C267.825 74.1017 269.747 76.3191 269.747 79.1279C269.747 81.9366 267.825 84.1541 265.016 84.1541Z" fill="white"/>
<path d="M275.682 86.5193H282.749C286.8 86.5193 288.101 84.3906 288.101 82.3801C288.101 80.3992 286.771 79.2757 284.612 78.9209C286.504 78.4183 287.451 77.1174 287.451 75.58C287.451 73.126 285.647 71.7364 282.365 71.7364H275.682V86.5193ZM282.217 77.8861H278.58V74.2495H282.217C283.754 74.2495 284.405 75.0478 284.405 76.0826C284.405 77.0878 283.754 77.8861 282.217 77.8861ZM282.424 80.2514C284.346 80.2514 284.996 81.1384 284.996 82.0845C284.996 83.1488 284.346 84.0062 282.572 84.0062H278.58V80.2514H282.424Z" fill="white"/>
<path d="M290.958 86.5193H293.915L301.159 75.9939V86.5193H304.116V71.7364H301.159L293.915 82.2619V71.7364H290.958V86.5193Z" fill="white"/>
<path d="M311.813 86.5193H314.77V74.3973H319.915V71.7364H306.668V74.3973H311.813V86.5193Z" fill="white"/>
<path d="M322.462 86.5193H328.938C332.93 86.5193 334.704 83.9471 334.704 81.4044C334.704 78.8322 332.93 76.3783 328.938 76.3783H325.419V71.7364H322.462V86.5193ZM328.849 78.98C330.801 78.98 331.599 80.1627 331.599 81.4044C331.599 82.794 330.801 83.888 328.997 83.888H325.419V78.98H328.849Z" fill="white"/>
<path d="M343.989 84.1541C341.328 84.1541 339.465 82.1732 339.465 79.1279C339.465 76.1122 341.269 74.1017 343.989 74.1017C346.177 74.1017 347.449 75.166 348.011 77.0583H350.968C350.406 73.5991 347.893 71.4408 343.989 71.4408C339.465 71.4408 336.36 74.8704 336.36 79.1279C336.36 83.4149 339.465 86.815 344.048 86.815C347.804 86.815 350.376 84.8045 351.086 81.0497H348.129C347.597 83.1193 346.177 84.1541 343.989 84.1541Z" fill="white"/>
<path d="M356.163 86.5193L360.273 81.2862H362.727V86.5193H365.684V71.7364H359.209C355.217 71.7364 353.442 74.2199 353.442 76.7035C353.442 78.8027 354.714 80.3401 357.139 80.9018L352.614 86.5193H356.163ZM359.297 78.98C357.346 78.98 356.547 77.8565 356.547 76.7035C356.547 75.4026 357.346 74.3678 359.149 74.3678H362.727V78.98H359.297Z" fill="white"/>
<path d="M7.47835 116.467C5.1719 116.467 3.66384 115.462 3.13158 113.451H0.233729C0.884267 117.176 3.48642 119.069 7.41921 119.069C12.2095 119.069 14.9595 115.669 14.9595 111.382C14.9595 107.124 12.2095 103.694 7.47835 103.694C3.39771 103.694 0.943407 105.794 0.352009 109.164H3.24986C3.81169 107.331 5.1719 106.296 7.47835 106.296C9.87352 106.296 11.4407 107.715 11.8843 109.992H5.61545V112.505H11.9138C11.559 114.929 9.93266 116.467 7.47835 116.467Z" fill="white"/>
<path d="M17.8116 118.773H20.7686V111.825L27.3627 118.773H31.3547L23.9326 111.027L30.7928 103.99H27.2444L20.7686 110.642V103.99H17.8116V118.773Z" fill="white"/>
<path d="M39.3097 116.408C36.6484 116.408 34.7855 114.427 34.7855 111.382C34.7855 108.366 36.5892 106.355 39.3097 106.355C41.4978 106.355 42.7693 107.42 43.3312 109.312H46.2881C45.7263 105.853 43.2129 103.694 39.3097 103.694C34.7855 103.694 31.6806 107.124 31.6806 111.382C31.6806 115.669 34.7855 119.069 39.3688 119.069C43.1242 119.069 45.6967 117.058 46.4064 113.303H43.4494C42.9172 115.373 41.4978 116.408 39.3097 116.408Z" fill="white"/>
<path d="M49.2585 118.773H52.2155V106.651H58.8687V118.773H61.8257V103.99H49.2585V118.773Z" fill="white"/>
<path d="M72.3462 116.496C69.6257 116.496 67.9107 114.604 67.7037 111.914H79.9456C80.0048 111.618 80.0343 111.293 80.0343 110.997C80.0343 106.947 76.8999 103.694 72.3462 103.694C67.7924 103.694 64.658 107.065 64.658 111.382C64.658 115.846 67.7924 119.069 72.3462 119.069C76.1607 119.069 78.615 117.324 79.4725 114.19H76.6338C76.0424 115.55 74.7413 116.496 72.3462 116.496ZM72.3462 106.267C74.7413 106.267 76.3381 107.745 76.8703 109.844H67.8515C68.4134 107.686 70.0988 106.267 72.3462 106.267Z" fill="white"/>
<path d="M85.8282 103.99H82.8712V124.686H85.8282V115.462C86.8927 117.649 88.9034 119.069 91.5943 119.069C95.7045 119.069 98.3954 115.669 98.3954 111.382C98.3954 107.094 95.6454 103.694 91.5943 103.694C88.9034 103.694 86.8927 105.114 85.8282 107.301V103.99ZM90.5594 106.355C93.3389 106.355 95.2905 108.307 95.2905 111.382C95.2905 114.456 93.3389 116.408 90.5594 116.408C87.8981 116.408 85.8282 114.368 85.8282 111.382C85.8282 108.425 87.8981 106.355 90.5594 106.355Z" fill="white"/>
<path d="M104.622 118.773H107.579V106.651H112.724V103.99H99.4765V106.651H104.622V118.773Z" fill="white"/>
<path d="M121.642 119.069C126.226 119.069 129.478 115.669 129.478 111.382C129.478 107.094 126.226 103.694 121.642 103.694C117.059 103.694 113.806 107.094 113.806 111.382C113.806 115.669 117.059 119.069 121.642 119.069ZM121.642 116.408C118.833 116.408 116.911 114.19 116.911 111.382C116.911 108.573 118.833 106.355 121.642 106.355C124.452 106.355 126.374 108.573 126.374 111.382C126.374 114.19 124.452 116.408 121.642 116.408Z" fill="white"/>
<path d="M132.308 118.773H135.117V107.479L139.671 118.773H142.037L146.591 107.479V118.773H149.548V103.99H145.378L141.002 114.9L136.596 103.99H132.308V118.773Z" fill="white"/>
<path d="M160.261 118.773H163.218L170.463 108.248V118.773H173.42V103.99H170.463L163.218 114.516V103.99H160.261V118.773Z" fill="white"/>
<path d="M190.884 119.542L197.153 103.99H194.285L189.938 115.018L185.532 103.99H182.368L188.341 118.832C187.395 121.463 186.804 122.025 183.699 122.025V124.686C188.134 124.686 189.287 123.533 190.884 119.542Z" fill="white"/>
<path d="M198.805 107.834C198.805 112.387 201.555 113.688 205.014 113.688C206.227 113.688 207.35 113.54 208.415 113.274V118.773H211.372V103.99H208.415V110.702C207.469 110.938 206.523 111.027 205.635 111.027C203.122 111.027 201.762 110.228 201.762 107.834V103.99H198.805V107.834Z" fill="white"/>
<path d="M224.239 109.519V109.755C217.467 109.755 214.362 111.559 214.362 114.929C214.362 117.59 216.107 119.069 218.887 119.069C221.932 119.069 223.5 117.383 224.239 115.225V118.773H227.196V109.815C227.196 105.705 225.037 103.694 221.045 103.694C217.379 103.694 215.072 105.498 214.599 108.928H217.556C217.793 107.39 218.975 106.355 221.045 106.355C223.056 106.355 224.239 107.39 224.239 109.519ZM217.467 114.782C217.467 113.008 219.36 111.884 224.239 111.884C224.239 114.427 222.612 116.526 219.567 116.526C218.266 116.526 217.467 115.905 217.467 114.782Z" fill="white"/>
<path d="M237.52 116.408C234.859 116.408 232.996 114.427 232.996 111.382C232.996 108.366 234.8 106.355 237.52 106.355C239.708 106.355 240.98 107.42 241.542 109.312H244.499C243.937 105.853 241.424 103.694 237.52 103.694C232.996 103.694 229.891 107.124 229.891 111.382C229.891 115.669 232.996 119.069 237.579 119.069C241.335 119.069 243.907 117.058 244.617 113.303H241.66C241.128 115.373 239.708 116.408 237.52 116.408Z" fill="white"/>
<path d="M251.143 118.773H254.1V106.651H259.245V103.99H245.998V106.651H251.143V118.773Z" fill="white"/>
<path d="M261.792 118.773H268.859C272.91 118.773 274.211 116.644 274.211 114.634C274.211 112.653 272.881 111.529 270.722 111.175C272.615 110.672 273.561 109.371 273.561 107.834C273.561 105.38 271.757 103.99 268.475 103.99H261.792V118.773ZM268.327 110.14H264.69V106.503H268.327C269.865 106.503 270.515 107.301 270.515 108.336C270.515 109.341 269.865 110.14 268.327 110.14ZM268.534 112.505C270.456 112.505 271.107 113.392 271.107 114.338C271.107 115.402 270.456 116.26 268.682 116.26H264.69V112.505H268.534Z" fill="white"/>
<path d="M283.873 119.069C288.456 119.069 291.709 115.669 291.709 111.382C291.709 107.094 288.456 103.694 283.873 103.694C279.289 103.694 276.036 107.094 276.036 111.382C276.036 115.669 279.289 119.069 283.873 119.069ZM283.873 116.408C281.063 116.408 279.141 114.19 279.141 111.382C279.141 108.573 281.063 106.355 283.873 106.355C286.682 106.355 288.604 108.573 288.604 111.382C288.604 114.19 286.682 116.408 283.873 116.408Z" fill="white"/>
<path d="M294.538 118.773H301.606C305.657 118.773 306.958 116.644 306.958 114.634C306.958 112.653 305.627 111.529 303.469 111.175C305.361 110.672 306.307 109.371 306.307 107.834C306.307 105.38 304.504 103.99 301.221 103.99H294.538V118.773ZM301.073 110.14H297.436V106.503H301.073C302.611 106.503 303.262 107.301 303.262 108.336C303.262 109.341 302.611 110.14 301.073 110.14ZM301.28 112.505C303.202 112.505 303.853 113.392 303.853 114.338C303.853 115.402 303.202 116.26 301.428 116.26H297.436V112.505H301.28Z" fill="white"/>
<path d="M319.099 109.519V109.755C312.328 109.755 309.223 111.559 309.223 114.929C309.223 117.59 310.968 119.069 313.747 119.069C316.793 119.069 318.36 117.383 319.099 115.225V118.773H322.056V109.815C322.056 105.705 319.898 103.694 315.906 103.694C312.239 103.694 309.933 105.498 309.459 108.928H312.417C312.653 107.39 313.836 106.355 315.906 106.355C317.916 106.355 319.099 107.39 319.099 109.519ZM312.328 114.782C312.328 113.008 314.22 111.884 319.099 111.884C319.099 114.427 317.473 116.526 314.427 116.526C313.126 116.526 312.328 115.905 312.328 114.782Z" fill="white"/>
<path d="M329.312 118.773H332.269V106.651H337.415V103.99H324.167V106.651H329.312V118.773Z" fill="white"/>
<path d="M339.962 118.773H346.438C350.43 118.773 352.204 116.201 352.204 113.658C352.204 111.086 350.43 108.632 346.438 108.632H342.919V103.99H339.962V118.773ZM346.349 111.234C348.3 111.234 349.099 112.416 349.099 113.658C349.099 115.048 348.3 116.142 346.497 116.142H342.919V111.234H346.349Z" fill="white"/>
<path d="M1.12083 151.027H8.18803C12.2391 151.027 13.5402 148.898 13.5402 146.887C13.5402 144.907 12.2095 143.783 10.0509 143.428C11.9434 142.926 12.8896 141.625 12.8896 140.087C12.8896 137.633 11.0859 136.244 7.80362 136.244H1.12083V151.027ZM7.65577 142.393H4.01868V138.757H7.65577C9.19341 138.757 9.84395 139.555 9.84395 140.59C9.84395 141.595 9.19341 142.393 7.65577 142.393ZM7.86276 144.759C9.78481 144.759 10.4353 145.646 10.4353 146.592C10.4353 147.656 9.78481 148.514 8.01061 148.514H4.01868V144.759H7.86276Z" fill="white"/>
<path d="M26.0427 151.027L30.1529 145.794H32.6072V151.027H35.5642V136.244H29.0884C25.0965 136.244 23.3223 138.727 23.3223 141.211C23.3223 143.31 24.5938 144.847 27.0185 145.409L22.4943 151.027H26.0427ZM29.1771 143.487C27.2255 143.487 26.4271 142.364 26.4271 141.211C26.4271 139.91 27.2255 138.875 29.0293 138.875H32.6072V143.487H29.1771Z" fill="white"/>
<path d="M42.253 136.244H39.296V156.94H42.253V147.715C43.3175 149.903 45.3283 151.322 48.0191 151.322C52.1294 151.322 54.8202 147.922 54.8202 143.635C54.8202 139.348 52.0702 135.948 48.0191 135.948C45.3283 135.948 43.3175 137.367 42.253 139.555V136.244ZM46.9842 138.609C49.7638 138.609 51.7154 140.56 51.7154 143.635C51.7154 146.71 49.7638 148.661 46.9842 148.661C44.3229 148.661 42.253 146.621 42.253 143.635C42.253 140.679 44.3229 138.609 46.9842 138.609Z" fill="white"/>
<path d="M57.6617 151.027H60.6187V144.079L67.2128 151.027H71.2047L63.7827 143.28L70.6429 136.244H67.0945L60.6187 142.896V136.244H57.6617V151.027Z" fill="white"/>
<path d="M79.3667 151.322C83.95 151.322 87.2027 147.922 87.2027 143.635C87.2027 139.348 83.95 135.948 79.3667 135.948C74.7834 135.948 71.5307 139.348 71.5307 143.635C71.5307 147.922 74.7834 151.322 79.3667 151.322ZM79.3667 148.661C76.5575 148.661 74.6355 146.444 74.6355 143.635C74.6355 140.826 76.5575 138.609 79.3667 138.609C82.1758 138.609 84.0979 140.826 84.0979 143.635C84.0979 146.444 82.1758 148.661 79.3667 148.661Z" fill="white"/>
<path d="M92.1025 130.331C92.1025 132.814 93.7289 134.47 96.6267 134.47C99.5246 134.47 101.151 132.814 101.151 130.331H98.5192C98.5192 131.72 97.8095 132.371 96.6267 132.371C95.4439 132.371 94.7343 131.72 94.7343 130.331H92.1025ZM90.0326 151.027H92.9896L100.234 140.501V151.027H103.191V136.244H100.234L92.9896 146.769V136.244H90.0326V151.027Z" fill="white"/>
<path d="M113.914 151.027H116.871V144.079L123.465 151.027H127.457L120.035 143.28L126.895 136.244H123.347L116.871 142.896V136.244H113.914V151.027Z" fill="white"/>
<path d="M135.619 151.322C140.202 151.322 143.455 147.922 143.455 143.635C143.455 139.348 140.202 135.948 135.619 135.948C131.035 135.948 127.783 139.348 127.783 143.635C127.783 147.922 131.035 151.322 135.619 151.322ZM135.619 148.661C132.81 148.661 130.888 146.444 130.888 143.635C130.888 140.826 132.81 138.609 135.619 138.609C138.428 138.609 140.35 140.826 140.35 143.635C140.35 146.444 138.428 148.661 135.619 148.661Z" fill="white"/>
<path d="M149.242 136.244H146.285V156.94H149.242V147.715C150.306 149.903 152.317 151.322 155.008 151.322C159.118 151.322 161.809 147.922 161.809 143.635C161.809 139.348 159.059 135.948 155.008 135.948C152.317 135.948 150.306 137.367 149.242 139.555V136.244ZM153.973 138.609C156.752 138.609 158.704 140.56 158.704 143.635C158.704 146.71 156.752 148.661 153.973 148.661C151.312 148.661 149.242 146.621 149.242 143.635C149.242 140.679 151.312 138.609 153.973 138.609Z" fill="white"/>
<path d="M164.65 151.027H167.607V138.905H174.261V151.027H177.218V136.244H164.65V151.027Z" fill="white"/>
<path d="M187.886 151.322C192.469 151.322 195.722 147.922 195.722 143.635C195.722 139.348 192.469 135.948 187.886 135.948C183.303 135.948 180.05 139.348 180.05 143.635C180.05 147.922 183.303 151.322 187.886 151.322ZM187.886 148.661C185.077 148.661 183.155 146.444 183.155 143.635C183.155 140.826 185.077 138.609 187.886 138.609C190.695 138.609 192.617 140.826 192.617 143.635C192.617 146.444 190.695 148.661 187.886 148.661Z" fill="white"/>
<path d="M201.509 136.244H198.552V156.94H201.509V147.715C202.573 149.903 204.584 151.322 207.275 151.322C211.385 151.322 214.076 147.922 214.076 143.635C214.076 139.348 211.326 135.948 207.275 135.948C204.584 135.948 202.573 137.367 201.509 139.555V136.244ZM206.24 138.609C209.02 138.609 210.971 140.56 210.971 143.635C210.971 146.71 209.02 148.661 206.24 148.661C203.579 148.661 201.509 146.621 201.509 143.635C201.509 140.679 203.579 138.609 206.24 138.609Z" fill="white"/>
<path d="M226.058 141.773V142.009C219.287 142.009 216.182 143.813 216.182 147.183C216.182 149.844 217.926 151.322 220.706 151.322C223.752 151.322 225.319 149.637 226.058 147.479V151.027H229.015V142.068C229.015 137.959 226.856 135.948 222.865 135.948C219.198 135.948 216.891 137.752 216.418 141.181H219.375C219.612 139.644 220.795 138.609 222.865 138.609C224.875 138.609 226.058 139.644 226.058 141.773ZM219.287 147.035C219.287 145.261 221.179 144.138 226.058 144.138C226.058 146.68 224.432 148.78 221.386 148.78C220.085 148.78 219.287 148.159 219.287 147.035Z" fill="white"/>
<path d="M236.271 151.027H239.228V138.905H244.373V136.244H231.126V138.905H236.271V151.027Z" fill="white"/>
<path d="M246.921 151.027H249.878L257.122 140.501V151.027H260.079V136.244H257.122L249.878 146.769V136.244H246.921V151.027Z" fill="white"/>
<path d="M263.814 151.027H270.881C274.932 151.027 276.233 148.898 276.233 146.887C276.233 144.907 274.902 143.783 272.744 143.428C274.636 142.926 275.582 141.625 275.582 140.087C275.582 137.633 273.779 136.244 270.496 136.244H263.814V151.027ZM270.348 142.393H266.711V138.757H270.348C271.886 138.757 272.537 139.555 272.537 140.59C272.537 141.595 271.886 142.393 270.348 142.393ZM270.555 144.759C272.477 144.759 273.128 145.646 273.128 146.592C273.128 147.656 272.477 148.514 270.703 148.514H266.711V144.759H270.555Z" fill="white"/>
<path d="M279.089 151.027H282.046V144.818H288.995V151.027H291.952V136.244H288.995V142.157H282.046V136.244H279.089V151.027Z" fill="white"/>
<path d="M302.614 151.322C307.197 151.322 310.45 147.922 310.45 143.635C310.45 139.348 307.197 135.948 302.614 135.948C298.03 135.948 294.778 139.348 294.778 143.635C294.778 147.922 298.03 151.322 302.614 151.322ZM302.614 148.661C299.804 148.661 297.882 146.444 297.882 143.635C297.882 140.826 299.804 138.609 302.614 138.609C305.423 138.609 307.345 140.826 307.345 143.635C307.345 146.444 305.423 148.661 302.614 148.661Z" fill="white"/>
<path d="M315.349 130.331C315.349 132.814 316.976 134.47 319.874 134.47C322.772 134.47 324.398 132.814 324.398 130.331H321.766C321.766 131.72 321.056 132.371 319.874 132.371C318.691 132.371 317.981 131.72 317.981 130.331H315.349ZM313.28 151.027H316.237L323.481 140.501V151.027H326.438V136.244H323.481L316.237 146.769V136.244H313.28V151.027Z" fill="white"/>
<path d="M345.233 151.027H348.19V144.108L354.489 151.027H358.392L351.295 143.28L357.83 136.244H354.37L348.19 142.896V136.244H345.233V142.896L339.053 136.244H335.446L342.128 143.428L335.18 151.027H338.935L345.233 144.108V151.027Z" fill="white"/>
<path d="M360.147 151.027H363.104L370.348 140.501V151.027H373.305V136.244H370.348L363.104 146.769V136.244H360.147V151.027Z" fill="white"/>
<path d="M382.688 151.322C387.241 151.322 389.134 149.134 389.134 146.74C389.134 145.084 387.951 143.753 386.058 143.34C387.744 142.896 388.661 141.625 388.661 140.117C388.661 137.87 386.857 135.948 382.717 135.948C378.962 135.948 376.596 137.899 376.3 140.945H379.376C379.642 139.732 380.44 138.609 382.658 138.609C384.639 138.609 385.556 139.496 385.556 140.59C385.556 141.654 384.876 142.364 382.776 142.364H380.736V144.877H383.22C385.26 144.877 386.029 145.646 386.029 146.651C386.029 147.715 385.349 148.661 382.688 148.661C380.44 148.661 379.435 147.715 379.08 146.178H376.005C376.3 149.223 378.37 151.322 382.688 151.322Z" fill="white"/>
<path d="M392.113 151.027H395.07V144.818H402.019V151.027H404.976V136.244H402.019V142.157H395.07V136.244H392.113V151.027Z" fill="white"/>
<path d="M408.689 151.027H411.646L418.89 140.501V151.027H421.847V136.244H418.89L411.646 146.769V136.244H408.689V151.027Z" fill="white"/>
<path d="M427.178 151.322C428.391 151.322 429.367 150.347 429.367 149.075C429.367 147.893 428.391 146.976 427.178 146.976C425.936 146.976 424.99 147.893 424.99 149.075C424.99 150.347 425.936 151.322 427.178 151.322Z" fill="white"/>
</g>
</svg>
