<svg width="461" height="92" viewBox="0 0 461 92" fill="none" xmlns="http://www.w3.org/2000/svg">
<g id="&#208;&#157;&#208;&#176;&#209;&#136;&#208;&#184; &#209;&#129;&#208;&#190;&#209;&#130;&#209;&#128;&#209;&#131;&#208;&#180;&#208;&#189;&#208;&#184;&#208;&#186;&#208;&#184; &#208;&#190;&#209;&#130;&#208;&#186;&#209;&#128;&#209;&#139;&#208;&#178;&#208;&#176;&#209;&#142;&#209;&#130; &#208;&#189;&#208;&#190;&#208;&#178;&#209;&#139;&#208;&#181; &#209;&#128;&#208;&#181;&#209;&#134;&#208;&#181;&#208;&#191;&#209;&#130;&#209;&#131;&#209;&#128;&#209;&#139; &#208;&#184; &#208;&#186;&#208;&#176;&#208;&#182;&#208;&#180;&#209;&#139;&#208;&#185; &#208;&#180;&#208;&#181;&#208;&#189;&#209;&#140; &#209;&#128;&#208;&#176;&#208;&#180;&#209;&#131;&#209;&#142;&#209;&#130; &#208;&#186;&#208;&#187;&#208;&#184;&#208;&#181;&#208;&#189;&#209;&#130;&#208;&#190;&#208;&#178; &#208;&#178;&#208;&#186;&#209;&#131;&#209;&#129;&#208;&#189;&#208;&#190;&#208;&#185; &#208;&#181;&#208;&#180;&#208;&#190;&#208;&#185;.">
<path d="M0.268943 21.5193H3.37378V12.5018H13.8711V21.5193H16.9759V0.823242H13.8711V9.693H3.37378V0.823242H0.268943V21.5193Z" fill="white"/>
<path d="M30.1396 12.2652V12.5018C23.3681 12.5018 20.2633 14.3053 20.2633 17.6758C20.2633 20.3367 22.0079 21.815 24.7875 21.815C27.8332 21.815 29.4004 20.1297 30.1396 17.9714V21.5193H33.0966V12.5609C33.0966 8.45123 30.938 6.44075 26.9461 6.44075C23.2794 6.44075 20.9729 8.24427 20.4998 11.6739H23.4568C23.6934 10.1365 24.8762 9.10168 26.9461 9.10168C28.9568 9.10168 30.1396 10.1365 30.1396 12.2652ZM23.3681 17.528C23.3681 15.754 25.2606 14.6305 30.1396 14.6305C30.1396 17.1732 28.5133 19.2723 25.4676 19.2723C24.1665 19.2723 23.3681 18.6515 23.3681 17.528Z" fill="white"/>
<path d="M36.6792 21.5193H56.7867V6.73641H53.8297V18.7993H48.2114V6.73641H45.2544V18.7993H39.6362V6.73641H36.6792V21.5193Z" fill="white"/>
<path d="M60.5026 21.5193H63.4596L70.7042 10.9939V21.5193H73.6612V6.73641H70.7042L63.4596 17.2619V6.73641H60.5026V21.5193Z" fill="white"/>
<path d="M91.1257 19.1541C88.4644 19.1541 86.6015 17.1732 86.6015 14.1279C86.6015 11.1122 88.4052 9.10168 91.1257 9.10168C93.3138 9.10168 94.5853 10.1661 95.1472 12.0583H98.1042C97.5423 8.59906 95.0289 6.44075 91.1257 6.44075C86.6015 6.44075 83.4966 9.87039 83.4966 14.1279C83.4966 18.4149 86.6015 21.815 91.1848 21.815C94.9402 21.815 97.5128 19.8045 98.2224 16.0497H95.2654C94.7332 18.1193 93.3138 19.1541 91.1257 19.1541Z" fill="white"/>
<path d="M107.879 21.815C112.462 21.815 115.715 18.4149 115.715 14.1279C115.715 9.84083 112.462 6.44075 107.879 6.44075C103.296 6.44075 100.043 9.84083 100.043 14.1279C100.043 18.4149 103.296 21.815 107.879 21.815ZM107.879 19.1541C105.07 19.1541 103.148 16.9366 103.148 14.1279C103.148 11.3191 105.07 9.10168 107.879 9.10168C110.688 9.10168 112.61 11.3191 112.61 14.1279C112.61 16.9366 110.688 19.1541 107.879 19.1541Z" fill="white"/>
<path d="M121.93 21.5193H124.887V9.39734H130.032V6.73641H116.785V9.39734H121.93V21.5193Z" fill="white"/>
<path d="M135.536 6.73641H132.579V27.4325H135.536V18.208C136.601 20.3958 138.611 21.815 141.302 21.815C145.413 21.815 148.103 18.4149 148.103 14.1279C148.103 9.84083 145.353 6.44075 141.302 6.44075C138.611 6.44075 136.601 7.85992 135.536 10.0478V6.73641ZM140.267 9.10168C143.047 9.10168 144.999 11.053 144.999 14.1279C144.999 17.2027 143.047 19.1541 140.267 19.1541C137.606 19.1541 135.536 17.114 135.536 14.1279C135.536 11.1713 137.606 9.10168 140.267 9.10168Z" fill="white"/>
<path d="M157.254 22.2881L163.522 6.73641H160.654L156.307 17.7645L151.901 6.73641H148.738L154.711 21.5785C153.764 24.2098 153.173 24.7716 150.068 24.7716V27.4325C154.504 27.4325 155.657 26.2794 157.254 22.2881Z" fill="white"/>
<path d="M163.706 24.7716H166.515V21.5193H177.338V24.7716H180.147V18.8584H178.077V6.73641H166.752V8.42167C166.752 14.8079 166.16 17.4097 165.539 18.8584H163.706V24.7716ZM168.467 18.8584C168.999 17.4984 169.472 15.3992 169.531 9.39734H175.12V18.8584H168.467Z" fill="white"/>
<path d="M182.536 21.5193H185.493V15.3105H192.442V21.5193H195.399V6.73641H192.442V12.6496H185.493V6.73641H182.536V21.5193Z" fill="white"/>
<path d="M199.111 21.5193H202.068L209.313 10.9939V21.5193H212.27V6.73641H209.313L202.068 17.2619V6.73641H199.111V21.5193Z" fill="white"/>
<path d="M216.004 21.5193H218.961V14.5714L225.555 21.5193H229.547L222.125 13.7731L228.986 6.73641H225.437L218.961 13.3887V6.73641H216.004V21.5193Z" fill="white"/>
<path d="M231.194 21.5193H234.151L241.395 10.9939V21.5193H244.352V6.73641H241.395L234.151 17.2619V6.73641H231.194V21.5193Z" fill="white"/>
<path d="M262.024 21.815C266.607 21.815 269.86 18.4149 269.86 14.1279C269.86 9.84083 266.607 6.44075 262.024 6.44075C257.44 6.44075 254.188 9.84083 254.188 14.1279C254.188 18.4149 257.44 21.815 262.024 21.815ZM262.024 19.1541C259.215 19.1541 257.293 16.9366 257.293 14.1279C257.293 11.3191 259.215 9.10168 262.024 9.10168C264.833 9.10168 266.755 11.3191 266.755 14.1279C266.755 16.9366 264.833 19.1541 262.024 19.1541Z" fill="white"/>
<path d="M276.074 21.5193H279.031V9.39734H284.177V6.73641H270.929V9.39734H276.074V21.5193Z" fill="white"/>
<path d="M286.724 21.5193H289.681V14.5714L296.275 21.5193H300.267L292.845 13.7731L299.705 6.73641H296.157L289.681 13.3887V6.73641H286.724V21.5193Z" fill="white"/>
<path d="M304.87 6.73641H301.913V27.4325H304.87V18.208C305.935 20.3958 307.945 21.815 310.636 21.815C314.746 21.815 317.437 18.4149 317.437 14.1279C317.437 9.84083 314.687 6.44075 310.636 6.44075C307.945 6.44075 305.935 7.85992 304.87 10.0478V6.73641ZM309.601 9.10168C312.381 9.10168 314.332 11.053 314.332 14.1279C314.332 17.2027 312.381 19.1541 309.601 19.1541C306.94 19.1541 304.87 17.114 304.87 14.1279C304.87 11.1713 306.94 9.10168 309.601 9.10168Z" fill="white"/>
<path d="M320.279 21.5193H326.754C330.746 21.5193 332.521 18.9471 332.521 16.4044C332.521 13.8322 330.746 11.3783 326.754 11.3783H323.236V6.73641H320.279V21.5193ZM334.502 21.5193H337.459V6.73641H334.502V21.5193ZM326.666 13.98C328.617 13.98 329.416 15.1627 329.416 16.4044C329.416 17.794 328.617 18.888 326.814 18.888H323.236V13.98H326.666Z" fill="white"/>
<path d="M341.186 21.5193H348.253C352.304 21.5193 353.605 19.3906 353.605 17.3801C353.605 15.3992 352.274 14.2757 350.116 13.9209C352.008 13.4183 352.954 12.1174 352.954 10.58C352.954 8.12601 351.151 6.73641 347.868 6.73641H341.186V21.5193ZM347.72 12.8861H344.083V9.24951H347.72C349.258 9.24951 349.909 10.0478 349.909 11.0826C349.909 12.0878 349.258 12.8861 347.72 12.8861ZM347.927 15.2514C349.85 15.2514 350.5 16.1384 350.5 17.0845C350.5 18.1488 349.85 19.0062 348.075 19.0062H344.083V15.2514H347.927Z" fill="white"/>
<path d="M365.746 12.2652V12.5018C358.975 12.5018 355.87 14.3053 355.87 17.6758C355.87 20.3367 357.615 21.815 360.394 21.815C363.44 21.815 365.007 20.1297 365.746 17.9714V21.5193H368.703V12.5609C368.703 8.45123 366.545 6.44075 362.553 6.44075C358.886 6.44075 356.58 8.24427 356.107 11.6739H359.064C359.3 10.1365 360.483 9.10168 362.553 9.10168C364.564 9.10168 365.746 10.1365 365.746 12.2652ZM358.975 17.528C358.975 15.754 360.867 14.6305 365.746 14.6305C365.746 17.1732 364.12 19.2723 361.074 19.2723C359.773 19.2723 358.975 18.6515 358.975 17.528Z" fill="white"/>
<path d="M372.286 21.5193H375.243V15.2218H377.668C378.17 18.9767 381.127 21.815 385.149 21.815C389.555 21.815 392.689 18.4149 392.689 14.1279C392.689 9.84083 389.555 6.44075 385.149 6.44075C381.305 6.44075 378.407 9.04255 377.756 12.5609H375.243V6.73641H372.286V21.5193ZM385.149 19.1541C382.517 19.1541 380.713 16.9366 380.713 14.1279C380.713 11.3191 382.517 9.10168 385.149 9.10168C387.781 9.10168 389.584 11.3191 389.584 14.1279C389.584 16.9366 387.781 19.1541 385.149 19.1541Z" fill="white"/>
<path d="M398.917 21.5193H401.874V9.39734H407.019V6.73641H393.771V9.39734H398.917V21.5193Z" fill="white"/>
<path d="M0.121094 53.773H3.07808V47.5642H10.027V53.773H12.984V38.9901H10.027V44.9032H3.07808V38.9901H0.121094V53.773Z" fill="white"/>
<path d="M23.6453 54.0687C28.2287 54.0687 31.4813 50.6686 31.4813 46.3815C31.4813 42.0945 28.2287 38.6944 23.6453 38.6944C19.062 38.6944 15.8093 42.0945 15.8093 46.3815C15.8093 50.6686 19.062 54.0687 23.6453 54.0687ZM23.6453 51.4077C20.8362 51.4077 18.9141 49.1903 18.9141 46.3815C18.9141 43.5728 20.8362 41.3553 23.6453 41.3553C26.4545 41.3553 28.3765 43.5728 28.3765 46.3815C28.3765 49.1903 26.4545 51.4077 23.6453 51.4077Z" fill="white"/>
<path d="M34.3113 53.773H41.3785C45.4296 53.773 46.7306 51.6442 46.7306 49.6338C46.7306 47.6529 45.4 46.5294 43.2414 46.1746C45.1339 45.672 46.0801 44.3711 46.0801 42.8336C46.0801 40.3797 44.2763 38.9901 40.9941 38.9901H34.3113V53.773ZM40.8462 45.1398H37.2091V41.5032H40.8462C42.3839 41.5032 43.0344 42.3014 43.0344 43.3363C43.0344 44.3415 42.3839 45.1398 40.8462 45.1398ZM41.0532 47.505C42.9753 47.505 43.6258 48.392 43.6258 49.3381C43.6258 50.4025 42.9753 51.2599 41.2011 51.2599H37.2091V47.505H41.0532Z" fill="white"/>
<path d="M49.5871 53.773H56.0629C60.0549 53.773 61.8291 51.2008 61.8291 48.6581C61.8291 46.0859 60.0549 43.6319 56.0629 43.6319H52.5441V38.9901H49.5871V53.773ZM63.8102 53.773H66.7672V38.9901H63.8102V53.773ZM55.9742 46.2337C57.9258 46.2337 58.7242 47.4163 58.7242 48.6581C58.7242 50.0477 57.9258 51.1416 56.1221 51.1416H52.5441V46.2337H55.9742Z" fill="white"/>
<path d="M77.295 51.4964C74.5746 51.4964 72.8596 49.6042 72.6526 46.9137H84.8945C84.9536 46.6181 84.9832 46.2928 84.9832 45.9972C84.9832 41.9467 81.8488 38.6944 77.295 38.6944C72.7413 38.6944 69.6069 42.0649 69.6069 46.3815C69.6069 50.846 72.7413 54.0687 77.295 54.0687C81.1096 54.0687 83.5639 52.3243 84.4214 49.1903H81.5827C80.9913 50.5503 79.6902 51.4964 77.295 51.4964ZM77.295 41.2666C79.6902 41.2666 81.287 42.7449 81.8192 44.8441H72.8004C73.3622 42.6858 75.0477 41.2666 77.295 41.2666Z" fill="white"/>
<path d="M97.7653 38.9901H94.8083V59.6862H97.7653V50.4616C98.8298 52.6495 100.841 54.0687 103.531 54.0687C107.642 54.0687 110.332 50.6686 110.332 46.3815C110.332 42.0945 107.582 38.6944 103.531 38.6944C100.841 38.6944 98.8298 40.1136 97.7653 42.3014V38.9901ZM102.496 41.3553C105.276 41.3553 107.228 43.3067 107.228 46.3815C107.228 49.4564 105.276 51.4077 102.496 51.4077C99.8352 51.4077 97.7653 49.3677 97.7653 46.3815C97.7653 43.4249 99.8352 41.3553 102.496 41.3553Z" fill="white"/>
<path d="M119.975 51.4964C117.255 51.4964 115.54 49.6042 115.333 46.9137H127.574C127.634 46.6181 127.663 46.2928 127.663 45.9972C127.663 41.9467 124.529 38.6944 119.975 38.6944C115.421 38.6944 112.287 42.0649 112.287 46.3815C112.287 50.846 115.421 54.0687 119.975 54.0687C123.79 54.0687 126.244 52.3243 127.101 49.1903H124.263C123.671 50.5503 122.37 51.4964 119.975 51.4964ZM119.975 41.2666C122.37 41.2666 123.967 42.7449 124.499 44.8441H115.48C116.042 42.6858 117.728 41.2666 119.975 41.2666Z" fill="white"/>
<path d="M142.328 57.0252H145.137V51.1121H143.067V38.9901H140.11V51.1121H133.457V38.9901H130.5V53.773H142.328V57.0252Z" fill="white"/>
<path d="M154.338 51.4964C151.618 51.4964 149.903 49.6042 149.696 46.9137H161.938C161.997 46.6181 162.027 46.2928 162.027 45.9972C162.027 41.9467 158.892 38.6944 154.338 38.6944C149.785 38.6944 146.65 42.0649 146.65 46.3815C146.65 50.846 149.785 54.0687 154.338 54.0687C158.153 54.0687 160.607 52.3243 161.465 49.1903H158.626C158.035 50.5503 156.734 51.4964 154.338 51.4964ZM154.338 41.2666C156.734 41.2666 158.33 42.7449 158.863 44.8441H149.844C150.406 42.6858 152.091 41.2666 154.338 41.2666Z" fill="white"/>
<path d="M164.863 53.773H167.82V41.651H174.474V53.773H177.431V38.9901H164.863V53.773Z" fill="white"/>
<path d="M185.112 53.773H188.069V41.651H193.215V38.9901H179.967V41.651H185.112V53.773Z" fill="white"/>
<path d="M202.504 54.5417L208.772 38.9901H205.904L201.557 50.0181L197.152 38.9901H193.988L199.961 53.8321C199.014 56.4635 198.423 57.0252 195.318 57.0252V59.6862C199.754 59.6862 200.907 58.5331 202.504 54.5417Z" fill="white"/>
<path d="M213.677 38.9901H210.72V59.6862H213.677V50.4616C214.741 52.6495 216.752 54.0687 219.443 54.0687C223.553 54.0687 226.244 50.6686 226.244 46.3815C226.244 42.0945 223.494 38.6944 219.443 38.6944C216.752 38.6944 214.741 40.1136 213.677 42.3014V38.9901ZM218.408 41.3553C221.188 41.3553 223.139 43.3067 223.139 46.3815C223.139 49.4564 221.188 51.4077 218.408 51.4077C215.747 51.4077 213.677 49.3677 213.677 46.3815C213.677 43.4249 215.747 41.3553 218.408 41.3553Z" fill="white"/>
<path d="M229.086 53.773H235.561C239.553 53.773 241.328 51.2008 241.328 48.6581C241.328 46.0859 239.553 43.6319 235.561 43.6319H232.043V38.9901H229.086V53.773ZM243.309 53.773H246.266V38.9901H243.309V53.773ZM235.473 46.2337C237.424 46.2337 238.223 47.4163 238.223 48.6581C238.223 50.0477 237.424 51.1416 235.621 51.1416H232.043V46.2337H235.473Z" fill="white"/>
<path d="M256.981 53.773H259.938L267.182 43.2475V53.773H270.139V38.9901H267.182L259.938 49.5155V38.9901H256.981V53.773Z" fill="white"/>
<path d="M280.862 53.773H283.819V46.825L290.413 53.773H294.405L286.983 46.0267L293.843 38.9901H290.295L283.819 45.6424V38.9901H280.862V53.773Z" fill="white"/>
<path d="M304.903 44.5189V44.7554C298.131 44.7554 295.026 46.5589 295.026 49.9294C295.026 52.5904 296.771 54.0687 299.551 54.0687C302.596 54.0687 304.164 52.3834 304.903 50.2251V53.773H307.86V44.8145C307.86 40.7049 305.701 38.6944 301.709 38.6944C298.043 38.6944 295.736 40.4979 295.263 43.9276H298.22C298.457 42.3901 299.639 41.3553 301.709 41.3553C303.72 41.3553 304.903 42.3901 304.903 44.5189ZM298.131 49.7816C298.131 48.0076 300.024 46.8842 304.903 46.8842C304.903 49.4268 303.276 51.526 300.231 51.526C298.93 51.526 298.131 50.9051 298.131 49.7816Z" fill="white"/>
<path d="M319.515 53.773H322.472V46.8546L328.77 53.773H332.674L325.577 46.0267L332.112 38.9901H328.652L322.472 45.6424V38.9901H319.515V45.6424L313.335 38.9901H309.727L316.41 46.1746L309.461 53.773H313.217L319.515 46.8546V53.773Z" fill="white"/>
<path d="M333.098 57.0252H335.907V53.773H346.729V57.0252H349.539V51.1121H347.469V38.9901H336.143V40.6753C336.143 47.0615 335.552 49.6633 334.931 51.1121H333.098V57.0252ZM337.858 51.1121C338.391 49.752 338.864 47.6529 338.923 41.651H344.512V51.1121H337.858Z" fill="white"/>
<path d="M351.928 53.773H358.404C362.395 53.773 364.17 51.2008 364.17 48.6581C364.17 46.0859 362.395 43.6319 358.404 43.6319H354.885V38.9901H351.928V53.773ZM366.151 53.773H369.108V38.9901H366.151V53.773ZM358.315 46.2337C360.266 46.2337 361.065 47.4163 361.065 48.6581C361.065 50.0477 360.266 51.1416 358.463 51.1416H354.885V46.2337H358.315Z" fill="white"/>
<path d="M374.904 33.0769C374.904 35.5604 376.531 37.2161 379.429 37.2161C382.326 37.2161 383.953 35.5604 383.953 33.0769H381.321C381.321 34.4665 380.611 35.1169 379.429 35.1169C378.246 35.1169 377.536 34.4665 377.536 33.0769H374.904ZM372.835 53.773H375.792L383.036 43.2475V53.773H385.993V38.9901H383.036L375.792 49.5155V38.9901H372.835V53.773Z" fill="white"/>
<path d="M395.385 57.0252H398.194V53.773H409.017V57.0252H411.826V51.1121H409.756V38.9901H398.431V40.6753C398.431 47.0615 397.839 49.6633 397.218 51.1121H395.385V57.0252ZM400.146 51.1121C400.678 49.752 401.151 47.6529 401.21 41.651H406.799V51.1121H400.146Z" fill="white"/>
<path d="M421.016 51.4964C418.296 51.4964 416.581 49.6042 416.374 46.9137H428.616C428.675 46.6181 428.704 46.2928 428.704 45.9972C428.704 41.9467 425.57 38.6944 421.016 38.6944C416.462 38.6944 413.328 42.0649 413.328 46.3815C413.328 50.846 416.462 54.0687 421.016 54.0687C424.831 54.0687 427.285 52.3243 428.142 49.1903H425.304C424.712 50.5503 423.411 51.4964 421.016 51.4964ZM421.016 41.2666C423.411 41.2666 425.008 42.7449 425.54 44.8441H416.522C417.083 42.6858 418.769 41.2666 421.016 41.2666Z" fill="white"/>
<path d="M431.541 53.773H434.498V47.5642H441.447V53.773H444.404V38.9901H441.447V44.9032H434.498V38.9901H431.541V53.773Z" fill="white"/>
<path d="M448.116 53.773H454.592C458.584 53.773 460.358 51.2008 460.358 48.6581C460.358 46.0859 458.584 43.6319 454.592 43.6319H451.073V38.9901H448.116V53.773ZM454.504 46.2337C456.455 46.2337 457.254 47.4163 457.254 48.6581C457.254 50.0477 456.455 51.1416 454.651 51.1416H451.073V46.2337H454.504Z" fill="white"/>
<path d="M3.07808 71.2437H0.121094V91.9398H3.07808V82.7153C4.1426 84.9031 6.15335 86.3223 8.84421 86.3223C12.9544 86.3223 15.6453 82.9222 15.6453 78.6352C15.6453 74.3481 12.8953 70.9481 8.84421 70.9481C6.15335 70.9481 4.1426 72.3672 3.07808 74.5551V71.2437ZM7.80927 73.609C10.5888 73.609 12.5404 75.5603 12.5404 78.6352C12.5404 81.71 10.5888 83.6614 7.80927 83.6614C5.14798 83.6614 3.07808 81.6213 3.07808 78.6352C3.07808 75.6786 5.14798 73.609 7.80927 73.609Z" fill="white"/>
<path d="M27.6273 76.7725V77.0091C20.8558 77.0091 17.751 78.8126 17.751 82.1831C17.751 84.844 19.4956 86.3223 22.2752 86.3223C25.3209 86.3223 26.8881 84.6371 27.6273 82.4787V86.0266H30.5843V77.0682C30.5843 72.9585 28.4257 70.9481 24.4338 70.9481C20.7671 70.9481 18.4607 72.7516 17.9875 76.1812H20.9445C21.1811 74.6438 22.3639 73.609 24.4338 73.609C26.4445 73.609 27.6273 74.6438 27.6273 76.7725ZM20.8558 82.0353C20.8558 80.2613 22.7483 79.1378 27.6273 79.1378C27.6273 81.6805 26.001 83.7796 22.9553 83.7796C21.6542 83.7796 20.8558 83.1588 20.8558 82.0353Z" fill="white"/>
<path d="M32.8363 89.2789H35.6454V86.0266H46.468V89.2789H49.2771V83.3657H47.2072V71.2437H35.882V72.929C35.882 79.3152 35.2906 81.917 34.6696 83.3657H32.8363V89.2789ZM37.597 83.3657C38.1293 82.0057 38.6024 79.9065 38.6615 73.9046H44.2502V83.3657H37.597Z" fill="white"/>
<path d="M58.4082 86.7954L64.677 71.2437H61.8087L57.462 82.2718L53.056 71.2437H49.8921L55.8652 86.0858C54.919 88.7171 54.3276 89.2789 51.2227 89.2789V91.9398C55.6582 91.9398 56.8114 90.7867 58.4082 86.7954Z" fill="white"/>
<path d="M66.6245 86.0266H69.5815V79.7291H72.0062C72.5089 83.484 75.4659 86.3223 79.4874 86.3223C83.8933 86.3223 87.0277 82.9222 87.0277 78.6352C87.0277 74.3481 83.8933 70.9481 79.4874 70.9481C75.6433 70.9481 72.7454 73.5499 72.0949 77.0682H69.5815V71.2437H66.6245V86.0266ZM79.4874 83.6614C76.8557 83.6614 75.0519 81.4439 75.0519 78.6352C75.0519 75.8264 76.8557 73.609 79.4874 73.609C82.1191 73.609 83.9229 75.8264 83.9229 78.6352C83.9229 81.4439 82.1191 83.6614 79.4874 83.6614Z" fill="white"/>
<path d="M93.2552 86.0266H96.2122V73.9046H101.357V71.2437H88.11V73.9046H93.2552V86.0266Z" fill="white"/>
<path d="M110.893 86.0266H113.85V79.0787L120.444 86.0266H124.436L117.014 78.2804L123.874 71.2437H120.325L113.85 77.896V71.2437H110.893V86.0266Z" fill="white"/>
<path d="M127.56 78.6352C127.501 82.3013 127.087 83.3657 124.899 83.3657V86.3223C128.95 86.3223 130.192 84.3118 130.34 78.6943L130.458 73.9046H135.84V86.0266H138.797V71.2437H127.708L127.56 78.6352Z" fill="white"/>
<path d="M142.513 86.0266H145.47L152.714 75.5012V86.0266H155.671V71.2437H152.714L145.47 81.7692V71.2437H142.513V86.0266Z" fill="white"/>
<path d="M166.207 83.7501C163.486 83.7501 161.771 81.8579 161.564 79.1674H173.806C173.865 78.8717 173.895 78.5465 173.895 78.2508C173.895 74.2003 170.761 70.9481 166.207 70.9481C161.653 70.9481 158.519 74.3186 158.519 78.6352C158.519 83.0996 161.653 86.3223 166.207 86.3223C170.021 86.3223 172.476 84.5779 173.333 81.4439H170.494C169.903 82.804 168.602 83.7501 166.207 83.7501ZM166.207 73.5203C168.602 73.5203 170.199 74.9986 170.731 77.0978H161.712C162.274 74.9395 163.96 73.5203 166.207 73.5203Z" fill="white"/>
<path d="M176.732 86.0266H179.689V79.8178H186.638V86.0266H189.595V71.2437H186.638V77.1569H179.689V71.2437H176.732V86.0266Z" fill="white"/>
<path d="M197.27 86.0266H200.227V73.9046H205.372V71.2437H192.124V73.9046H197.27V86.0266Z" fill="white"/>
<path d="M214.29 86.3223C218.874 86.3223 222.126 82.9222 222.126 78.6352C222.126 74.3481 218.874 70.9481 214.29 70.9481C209.707 70.9481 206.454 74.3481 206.454 78.6352C206.454 82.9222 209.707 86.3223 214.29 86.3223ZM214.29 83.6614C211.481 83.6614 209.559 81.4439 209.559 78.6352C209.559 75.8264 211.481 73.609 214.29 73.609C217.099 73.609 219.021 75.8264 219.021 78.6352C219.021 81.4439 217.099 83.6614 214.29 83.6614Z" fill="white"/>
<path d="M224.956 86.0266H232.023C236.074 86.0266 237.376 83.8979 237.376 81.8874C237.376 79.9065 236.045 78.783 233.886 78.4282C235.779 77.9256 236.725 76.6247 236.725 75.0873C236.725 72.6333 234.921 71.2437 231.639 71.2437H224.956V86.0266ZM231.491 77.3934H227.854V73.7568H231.491C233.029 73.7568 233.679 74.5551 233.679 75.5899C233.679 76.5951 233.029 77.3934 231.491 77.3934ZM231.698 79.7587C233.62 79.7587 234.271 80.6457 234.271 81.5918C234.271 82.6561 233.62 83.5135 231.846 83.5135H227.854V79.7587H231.698Z" fill="white"/>
<path d="M247.365 86.0266H254.432C258.483 86.0266 259.784 83.8979 259.784 81.8874C259.784 79.9065 258.453 78.783 256.295 78.4282C258.187 77.9256 259.133 76.6247 259.133 75.0873C259.133 72.6333 257.33 71.2437 254.047 71.2437H247.365V86.0266ZM253.9 77.3934H250.263V73.7568H253.9C255.437 73.7568 256.088 74.5551 256.088 75.5899C256.088 76.5951 255.437 77.3934 253.9 77.3934ZM254.107 79.7587C256.029 79.7587 256.679 80.6457 256.679 81.5918C256.679 82.6561 256.029 83.5135 254.254 83.5135H250.263V79.7587H254.107Z" fill="white"/>
<path d="M262.641 86.0266H265.597V79.0787L272.192 86.0266H276.184L268.761 78.2804L275.622 71.2437H272.073L265.597 77.896V71.2437H262.641V86.0266Z" fill="white"/>
<path d="M284.283 86.7954L290.552 71.2437H287.683L283.337 82.2718L278.931 71.2437H275.767L281.74 86.0858C280.794 88.7171 280.202 89.2789 277.097 89.2789V91.9398C281.533 91.9398 282.686 90.7867 284.283 86.7954Z" fill="white"/>
<path d="M298.808 83.6614C296.147 83.6614 294.284 81.6805 294.284 78.6352C294.284 75.6195 296.087 73.609 298.808 73.609C300.996 73.609 302.268 74.6734 302.829 76.5656H305.786C305.225 73.1064 302.711 70.9481 298.808 70.9481C294.284 70.9481 291.179 74.3777 291.179 78.6352C291.179 82.9222 294.284 86.3223 298.867 86.3223C302.622 86.3223 305.195 84.3118 305.905 80.557H302.948C302.415 82.6266 300.996 83.6614 298.808 83.6614Z" fill="white"/>
<path d="M308.757 86.0266H311.714V79.8178H318.663V86.0266H321.62V71.2437H318.663V77.1569H311.714V71.2437H308.757V86.0266Z" fill="white"/>
<path d="M332.281 86.3223C336.864 86.3223 340.117 82.9222 340.117 78.6352C340.117 74.3481 336.864 70.9481 332.281 70.9481C327.698 70.9481 324.445 74.3481 324.445 78.6352C324.445 82.9222 327.698 86.3223 332.281 86.3223ZM332.281 83.6614C329.472 83.6614 327.55 81.4439 327.55 78.6352C327.55 75.8264 329.472 73.609 332.281 73.609C335.09 73.609 337.012 75.8264 337.012 78.6352C337.012 81.4439 335.09 83.6614 332.281 83.6614Z" fill="white"/>
<path d="M345.017 65.3306C345.017 67.8141 346.643 69.4698 349.541 69.4698C352.439 69.4698 354.065 67.8141 354.065 65.3306H351.434C351.434 66.7201 350.724 67.3706 349.541 67.3706C348.358 67.3706 347.649 66.7201 347.649 65.3306H345.017ZM342.947 86.0266H345.904L353.149 75.5012V86.0266H356.106V71.2437H353.149L345.904 81.7692V71.2437H342.947V86.0266Z" fill="white"/>
<path d="M373.629 83.7501C370.909 83.7501 369.194 81.8579 368.987 79.1674H381.229C381.288 78.8717 381.317 78.5465 381.317 78.2508C381.317 74.2003 378.183 70.9481 373.629 70.9481C369.076 70.9481 365.941 74.3186 365.941 78.6352C365.941 83.0996 369.076 86.3223 373.629 86.3223C377.444 86.3223 379.898 84.5779 380.756 81.4439H377.917C377.325 82.804 376.024 83.7501 373.629 83.7501ZM373.629 73.5203C376.024 73.5203 377.621 74.9986 378.153 77.0978H369.135C369.696 74.9395 371.382 73.5203 373.629 73.5203Z" fill="white"/>
<path d="M382.246 89.2789H385.055V86.0266H395.878V89.2789H398.687V83.3657H396.617V71.2437H385.292V72.929C385.292 79.3152 384.7 81.917 384.079 83.3657H382.246V89.2789ZM387.007 83.3657C387.539 82.0057 388.012 79.9065 388.071 73.9046H393.66V83.3657H387.007Z" fill="white"/>
<path d="M408.025 86.3223C412.608 86.3223 415.861 82.9222 415.861 78.6352C415.861 74.3481 412.608 70.9481 408.025 70.9481C403.442 70.9481 400.189 74.3481 400.189 78.6352C400.189 82.9222 403.442 86.3223 408.025 86.3223ZM408.025 83.6614C405.216 83.6614 403.294 81.4439 403.294 78.6352C403.294 75.8264 405.216 73.609 408.025 73.609C410.834 73.609 412.756 75.8264 412.756 78.6352C412.756 81.4439 410.834 83.6614 408.025 83.6614Z" fill="white"/>
<path d="M420.761 65.3306C420.761 67.8141 422.387 69.4698 425.285 69.4698C428.183 69.4698 429.809 67.8141 429.809 65.3306H427.178C427.178 66.7201 426.468 67.3706 425.285 67.3706C424.102 67.3706 423.393 66.7201 423.393 65.3306H420.761ZM418.691 86.0266H421.648L428.893 75.5012V86.0266H431.85V71.2437H428.893L421.648 81.7692V71.2437H418.691V86.0266Z" fill="white"/>
<path d="M437.181 86.3223C438.393 86.3223 439.369 85.3466 439.369 84.0753C439.369 82.8927 438.393 81.9761 437.181 81.9761C435.939 81.9761 434.993 82.8927 434.993 84.0753C434.993 85.3466 435.939 86.3223 437.181 86.3223Z" fill="white"/>
</g>
</svg>
