<svg width="439" height="124" viewBox="0 0 439 124" fill="none" xmlns="http://www.w3.org/2000/svg">
<g id="&#208;&#148;&#209;&#128;&#209;&#131;&#208;&#182;&#208;&#189;&#209;&#139;&#208;&#185; &#208;&#186;&#208;&#190;&#208;&#187;&#208;&#187;&#208;&#181;&#208;&#186;&#209;&#130;&#208;&#184;&#208;&#178; &#208;&#184;&#194;&#160;&#208;&#186;&#208;&#190;&#209;&#128;&#208;&#191;&#208;&#190;&#209;&#128;&#208;&#176;&#209;&#130;&#208;&#184;&#208;&#178;&#208;&#189;&#209;&#139;&#208;&#181; &#208;&#188;&#208;&#181;&#209;&#128;&#208;&#190;&#208;&#191;&#209;&#128;&#208;&#184;&#209;&#143;&#209;&#130;&#208;&#184;&#209;&#143; &#208;&#190;&#209;&#129;&#208;&#190;&#208;&#177;&#208;&#181;&#208;&#189;&#208;&#189;&#208;&#190; &#208;&#189;&#209;&#128;&#208;&#176;&#208;&#178;&#209;&#143;&#209;&#130;&#209;&#129;&#209;&#143; &#208;&#189;&#208;&#176;&#209;&#136;&#208;&#184;&#208;&#188; &#209;&#129;&#208;&#190;&#209;&#130;&#209;&#128;&#209;&#131;&#208;&#180;&#208;&#189;&#208;&#184;&#208;&#186;&#208;&#176;&#208;&#188;.">
<path d="M0.405762 24.8138H3.36275V21.2659H17.8816V24.8138H20.8386V18.4572H18.473V0.569824H3.89501V6.09864C3.89501 11.9231 3.30361 15.9145 2.26866 18.4572H0.405762V24.8138ZM6.852 6.09864V3.37858H15.3681V18.4572H5.3735C6.31974 15.9145 6.852 12.337 6.852 6.09864Z" fill="white"/>
<path d="M26.2445 6.483H23.2875V27.1791H26.2445V17.9545C27.309 20.1424 29.3198 21.5616 32.0107 21.5616C36.1209 21.5616 38.8117 18.1615 38.8117 13.8745C38.8117 9.58741 36.0617 6.18734 32.0107 6.18734C29.3198 6.18734 27.309 7.6065 26.2445 9.79437V6.483ZM30.9757 8.84826C33.7553 8.84826 35.7069 10.7996 35.7069 13.8745C35.7069 16.9493 33.7553 18.9007 30.9757 18.9007C28.3144 18.9007 26.2445 16.8606 26.2445 13.8745C26.2445 10.9179 28.3144 8.84826 30.9757 8.84826Z" fill="white"/>
<path d="M47.962 22.0346L54.2308 6.483H51.3625L47.0158 17.5111L42.6098 6.483H39.4459L45.419 21.3251C44.4728 23.9564 43.8814 24.5182 40.7765 24.5182V27.1791C45.212 27.1791 46.3652 26.026 47.962 22.0346Z" fill="white"/>
<path d="M63.9621 21.2659H66.9191V14.3475L73.2175 21.2659H77.1207L70.0239 13.5197L76.5589 6.483H73.0992L66.9191 13.1353V6.483H63.9621V13.1353L57.782 6.483H54.1744L60.8572 13.6675L53.9083 21.2659H57.6637L63.9621 14.3475V21.2659Z" fill="white"/>
<path d="M78.8755 21.2659H81.8325V15.0571H88.7814V21.2659H91.7384V6.483H88.7814V12.3962H81.8325V6.483H78.8755V21.2659Z" fill="white"/>
<path d="M95.4508 21.2659H101.927C105.919 21.2659 107.693 18.6937 107.693 16.151C107.693 13.5788 105.919 11.1248 101.927 11.1248H98.4078V6.483H95.4508V21.2659ZM109.674 21.2659H112.631V6.483H109.674V21.2659ZM101.838 13.7266C103.789 13.7266 104.588 14.9093 104.588 16.151C104.588 17.5406 103.789 18.6346 101.986 18.6346H98.4078V13.7266H101.838Z" fill="white"/>
<path d="M118.428 0.569824C118.428 3.05336 120.054 4.70904 122.952 4.70904C125.85 4.70904 127.476 3.05336 127.476 0.569824H124.844C124.844 1.95942 124.134 2.60987 122.952 2.60987C121.769 2.60987 121.059 1.95942 121.059 0.569824H118.428ZM116.358 21.2659H119.315L126.559 10.7405V21.2659H129.516V6.483H126.559L119.315 17.0084V6.483H116.358V21.2659Z" fill="white"/>
<path d="M140.239 21.2659H143.196V14.3179L149.79 21.2659H153.782L146.36 13.5197L153.22 6.483H149.672L143.196 13.1353V6.483H140.239V21.2659Z" fill="white"/>
<path d="M161.944 21.5616C166.527 21.5616 169.78 18.1615 169.78 13.8745C169.78 9.58741 166.527 6.18734 161.944 6.18734C157.36 6.18734 154.108 9.58741 154.108 13.8745C154.108 18.1615 157.36 21.5616 161.944 21.5616ZM161.944 18.9007C159.135 18.9007 157.213 16.6832 157.213 13.8745C157.213 11.0657 159.135 8.84826 161.944 8.84826C164.753 8.84826 166.675 11.0657 166.675 13.8745C166.675 16.6832 164.753 18.9007 161.944 18.9007Z" fill="white"/>
<path d="M173.511 13.8745C173.452 17.5406 173.038 18.605 170.849 18.605V21.5616C174.9 21.5616 176.142 19.5511 176.29 13.9336L176.409 9.14392H181.79V21.2659H184.747V6.483H173.659L173.511 13.8745Z" fill="white"/>
<path d="M189.942 13.8745C189.882 17.5406 189.468 18.605 187.28 18.605V21.5616C191.331 21.5616 192.573 19.5511 192.721 13.9336L192.839 9.14392H198.221V21.2659H201.178V6.483H190.089L189.942 13.8745Z" fill="white"/>
<path d="M211.695 18.9894C208.975 18.9894 207.26 17.0971 207.053 14.4066H219.295C219.354 14.111 219.383 13.7858 219.383 13.4901C219.383 9.43958 216.249 6.18734 211.695 6.18734C207.141 6.18734 204.007 9.55784 204.007 13.8745C204.007 18.3389 207.141 21.5616 211.695 21.5616C215.51 21.5616 217.964 19.8172 218.821 16.6832H215.983C215.391 18.0432 214.09 18.9894 211.695 18.9894ZM211.695 8.75957C214.09 8.75957 215.687 10.2379 216.219 12.337H207.2C207.762 10.1787 209.448 8.75957 211.695 8.75957Z" fill="white"/>
<path d="M222.22 21.2659H225.177V14.3179L231.771 21.2659H235.763L228.341 13.5197L235.201 6.483H231.653L225.177 13.1353V6.483H222.22V21.2659Z" fill="white"/>
<path d="M241.227 21.2659H244.184V9.14392H249.329V6.483H236.082V9.14392H241.227V21.2659Z" fill="white"/>
<path d="M251.877 21.2659H254.834L262.078 10.7405V21.2659H265.035V6.483H262.078L254.834 17.0084V6.483H251.877V21.2659Z" fill="white"/>
<path d="M268.77 21.2659H275.837C279.888 21.2659 281.189 19.1372 281.189 17.1267C281.189 15.1458 279.858 14.0223 277.7 13.6675C279.592 13.1649 280.538 11.864 280.538 10.3266C280.538 7.87259 278.735 6.483 275.452 6.483H268.77V21.2659ZM275.305 12.6327H271.667V8.99609H275.305C276.842 8.99609 277.493 9.79437 277.493 10.8292C277.493 11.8344 276.842 12.6327 275.305 12.6327ZM275.512 14.998C277.434 14.998 278.084 15.8849 278.084 16.831C278.084 17.8954 277.434 18.7528 275.659 18.7528H271.667V14.998H275.512Z" fill="white"/>
<path d="M2.12082 53.5196H5.0778L12.3224 42.9941V53.5196H15.2794V38.7367H12.3224L5.0778 49.2621V38.7367H2.12082V53.5196Z" fill="white"/>
<path d="M26.002 53.5196H28.959V46.5716L35.553 53.5196H39.545L32.1229 45.7733L38.9832 38.7367H35.4348L28.959 45.389V38.7367H26.002V53.5196Z" fill="white"/>
<path d="M47.707 53.8152C52.2903 53.8152 55.543 50.4152 55.543 46.1281C55.543 41.8411 52.2903 38.441 47.707 38.441C43.1236 38.441 39.8709 41.8411 39.8709 46.1281C39.8709 50.4152 43.1236 53.8152 47.707 53.8152ZM47.707 51.1543C44.8978 51.1543 42.9758 48.9369 42.9758 46.1281C42.9758 43.3194 44.8978 41.1019 47.707 41.1019C50.5161 41.1019 52.4381 43.3194 52.4381 46.1281C52.4381 48.9369 50.5161 51.1543 47.707 51.1543Z" fill="white"/>
<path d="M61.3299 38.7367H58.3729V59.4328H61.3299V50.2082C62.3944 52.3961 64.4052 53.8152 67.096 53.8152C71.2062 53.8152 73.8971 50.4152 73.8971 46.1281C73.8971 41.8411 71.1471 38.441 67.096 38.441C64.4052 38.441 62.3944 39.8602 61.3299 42.048V38.7367ZM66.0611 41.1019C68.8407 41.1019 70.7923 43.0533 70.7923 46.1281C70.7923 49.203 68.8407 51.1543 66.0611 51.1543C63.3998 51.1543 61.3299 49.1143 61.3299 46.1281C61.3299 43.1715 63.3998 41.1019 66.0611 41.1019Z" fill="white"/>
<path d="M76.7386 53.5196H79.6956V41.3976H86.3488V53.5196H89.3058V38.7367H76.7386V53.5196Z" fill="white"/>
<path d="M99.9741 53.8152C104.557 53.8152 107.81 50.4152 107.81 46.1281C107.81 41.8411 104.557 38.441 99.9741 38.441C95.3907 38.441 92.138 41.8411 92.138 46.1281C92.138 50.4152 95.3907 53.8152 99.9741 53.8152ZM99.9741 51.1543C97.1649 51.1543 95.2429 48.9369 95.2429 46.1281C95.2429 43.3194 97.1649 41.1019 99.9741 41.1019C102.783 41.1019 104.705 43.3194 104.705 46.1281C104.705 48.9369 102.783 51.1543 99.9741 51.1543Z" fill="white"/>
<path d="M113.597 38.7367H110.64V59.4328H113.597V50.2082C114.662 52.3961 116.672 53.8152 119.363 53.8152C123.473 53.8152 126.164 50.4152 126.164 46.1281C126.164 41.8411 123.414 38.441 119.363 38.441C116.672 38.441 114.662 39.8602 113.597 42.048V38.7367ZM118.328 41.1019C121.108 41.1019 123.059 43.0533 123.059 46.1281C123.059 49.203 121.108 51.1543 118.328 51.1543C115.667 51.1543 113.597 49.1143 113.597 46.1281C113.597 43.1715 115.667 41.1019 118.328 41.1019Z" fill="white"/>
<path d="M138.146 44.2655V44.502C131.375 44.502 128.27 46.3055 128.27 49.676C128.27 52.3369 130.015 53.8152 132.794 53.8152C135.84 53.8152 137.407 52.13 138.146 49.9717V53.5196H141.103V44.5611C141.103 40.4515 138.945 38.441 134.953 38.441C131.286 38.441 128.98 40.2445 128.506 43.6741H131.463C131.7 42.1367 132.883 41.1019 134.953 41.1019C136.963 41.1019 138.146 42.1367 138.146 44.2655ZM131.375 49.5282C131.375 47.7542 133.267 46.6307 138.146 46.6307C138.146 49.1734 136.52 51.2726 133.474 51.2726C132.173 51.2726 131.375 50.6517 131.375 49.5282Z" fill="white"/>
<path d="M148.359 53.5196H151.316V41.3976H156.462V38.7367H143.214V41.3976H148.359V53.5196Z" fill="white"/>
<path d="M159.009 53.5196H161.966L169.21 42.9941V53.5196H172.167V38.7367H169.21L161.966 49.2621V38.7367H159.009V53.5196Z" fill="white"/>
<path d="M175.902 53.5196H182.969C187.02 53.5196 188.321 51.3908 188.321 49.3804C188.321 47.3994 186.99 46.2759 184.832 45.9212C186.724 45.4185 187.67 44.1176 187.67 42.5802C187.67 40.1262 185.867 38.7367 182.584 38.7367H175.902V53.5196ZM182.437 44.8863H178.8V41.2497H182.437C183.974 41.2497 184.625 42.048 184.625 43.0828C184.625 44.0881 183.974 44.8863 182.437 44.8863ZM182.644 47.2516C184.566 47.2516 185.216 48.1386 185.216 49.0847C185.216 50.1491 184.566 51.0065 182.791 51.0065H178.8V47.2516H182.644Z" fill="white"/>
<path d="M191.178 53.5196H194.135V47.3108H201.083V53.5196H204.04V38.7367H201.083V44.6498H194.135V38.7367H191.178V53.5196Z" fill="white"/>
<path d="M207.753 53.5196H214.229C218.221 53.5196 219.995 50.9473 219.995 48.4047C219.995 45.8325 218.221 43.3785 214.229 43.3785H210.71V38.7367H207.753V53.5196ZM221.976 53.5196H224.933V38.7367H221.976V53.5196ZM214.14 45.9803C216.092 45.9803 216.89 47.1629 216.89 48.4047C216.89 49.7943 216.092 50.8882 214.288 50.8882H210.71V45.9803H214.14Z" fill="white"/>
<path d="M235.461 51.243C232.74 51.243 231.025 49.3508 230.818 46.6603H243.06C243.119 46.3646 243.149 46.0394 243.149 45.7438C243.149 41.6932 240.015 38.441 235.461 38.441C230.907 38.441 227.773 41.8115 227.773 46.1281C227.773 50.5926 230.907 53.8152 235.461 53.8152C239.275 53.8152 241.73 52.0709 242.587 48.9369H239.748C239.157 50.2969 237.856 51.243 235.461 51.243ZM235.461 41.0132C237.856 41.0132 239.453 42.4915 239.985 44.5907H230.966C231.528 42.4324 233.213 41.0132 235.461 41.0132Z" fill="white"/>
<path d="M252.974 53.5196H255.783V42.2254L260.337 53.5196H262.702L267.256 42.2254V53.5196H270.213V38.7367H266.044L261.668 49.6465L257.262 38.7367H252.974V53.5196Z" fill="white"/>
<path d="M280.74 51.243C278.019 51.243 276.304 49.3508 276.097 46.6603H288.339C288.398 46.3646 288.428 46.0394 288.428 45.7438C288.428 41.6932 285.293 38.441 280.74 38.441C276.186 38.441 273.051 41.8115 273.051 46.1281C273.051 50.5926 276.186 53.8152 280.74 53.8152C284.554 53.8152 287.008 52.0709 287.866 48.9369H285.027C284.436 50.2969 283.135 51.243 280.74 51.243ZM280.74 41.0132C283.135 41.0132 284.732 42.4915 285.264 44.5907H276.245C276.807 42.4324 278.492 41.0132 280.74 41.0132Z" fill="white"/>
<path d="M294.222 38.7367H291.265V59.4328H294.222V50.2082C295.286 52.3961 297.297 53.8152 299.988 53.8152C304.098 53.8152 306.789 50.4152 306.789 46.1281C306.789 41.8411 304.039 38.441 299.988 38.441C297.297 38.441 295.286 39.8602 294.222 42.048V38.7367ZM298.953 41.1019C301.732 41.1019 303.684 43.0533 303.684 46.1281C303.684 49.203 301.732 51.1543 298.953 51.1543C296.292 51.1543 294.222 49.1143 294.222 46.1281C294.222 43.1715 296.292 41.1019 298.953 41.1019Z" fill="white"/>
<path d="M316.579 53.8152C321.163 53.8152 324.415 50.4152 324.415 46.1281C324.415 41.8411 321.163 38.441 316.579 38.441C311.996 38.441 308.743 41.8411 308.743 46.1281C308.743 50.4152 311.996 53.8152 316.579 53.8152ZM316.579 51.1543C313.77 51.1543 311.848 48.9369 311.848 46.1281C311.848 43.3194 313.77 41.1019 316.579 41.1019C319.388 41.1019 321.31 43.3194 321.31 46.1281C321.31 48.9369 319.388 51.1543 316.579 51.1543Z" fill="white"/>
<path d="M327.245 53.5196H330.202V41.3976H336.855V53.5196H339.812V38.7367H327.245V53.5196Z" fill="white"/>
<path d="M346.489 38.7367H343.532V59.4328H346.489V50.2082C347.553 52.3961 349.564 53.8152 352.255 53.8152C356.365 53.8152 359.056 50.4152 359.056 46.1281C359.056 41.8411 356.306 38.441 352.255 38.441C349.564 38.441 347.553 39.8602 346.489 42.048V38.7367ZM351.22 41.1019C354 41.1019 355.951 43.0533 355.951 46.1281C355.951 49.203 354 51.1543 351.22 51.1543C348.559 51.1543 346.489 49.1143 346.489 46.1281C346.489 43.1715 348.559 41.1019 351.22 41.1019Z" fill="white"/>
<path d="M361.897 53.5196H364.854L372.099 42.9941V53.5196H375.056V38.7367H372.099L364.854 49.2621V38.7367H361.897V53.5196Z" fill="white"/>
<path d="M381.304 53.5196L385.414 48.2864H387.868V53.5196H390.825V38.7367H384.35C380.358 38.7367 378.583 41.2202 378.583 43.7037C378.583 45.8029 379.855 47.3403 382.28 47.9021L377.755 53.5196H381.304ZM384.438 45.9803C382.487 45.9803 381.688 44.8568 381.688 43.7037C381.688 42.4028 382.487 41.368 384.29 41.368H387.868V45.9803H384.438Z" fill="white"/>
<path d="M398.52 53.5196H401.477V41.3976H406.622V38.7367H393.374V41.3976H398.52V53.5196Z" fill="white"/>
<path d="M409.169 53.5196H412.126L419.37 42.9941V53.5196H422.327V38.7367H419.37L412.126 49.2621V38.7367H409.169V53.5196Z" fill="white"/>
<path d="M428.575 53.5196L432.685 48.2864H435.14V53.5196H438.097V38.7367H431.621C427.629 38.7367 425.855 41.2202 425.855 43.7037C425.855 45.8029 427.126 47.3403 429.551 47.9021L425.027 53.5196H428.575ZM431.71 45.9803C429.758 45.9803 428.96 44.8568 428.96 43.7037C428.96 42.4028 429.758 41.368 431.562 41.368H435.14V45.9803H431.71Z" fill="white"/>
<path d="M9.06974 86.0689C13.6531 86.0689 16.9058 82.6688 16.9058 78.3818C16.9058 74.0947 13.6531 70.6946 9.06974 70.6946C4.48641 70.6946 1.23372 74.0947 1.23372 78.3818C1.23372 82.6688 4.48641 86.0689 9.06974 86.0689ZM9.06974 83.408C6.2606 83.408 4.33856 81.1905 4.33856 78.3818C4.33856 75.573 6.2606 73.3556 9.06974 73.3556C11.8789 73.3556 13.8009 75.573 13.8009 78.3818C13.8009 81.1905 11.8789 83.408 9.06974 83.408Z" fill="white"/>
<path d="M26.4776 83.408C23.8163 83.408 21.9534 81.4271 21.9534 78.3818C21.9534 75.3661 23.7572 73.3556 26.4776 73.3556C28.6658 73.3556 29.9373 74.4199 30.4991 76.3122H33.4561C32.8943 72.853 30.3809 70.6946 26.4776 70.6946C21.9534 70.6946 18.8486 74.1243 18.8486 78.3818C18.8486 82.6688 21.9534 86.0689 26.5368 86.0689C30.2921 86.0689 32.8647 84.0584 33.5744 80.3036H30.6174C30.0852 82.3732 28.6658 83.408 26.4776 83.408Z" fill="white"/>
<path d="M43.231 86.0689C47.8144 86.0689 51.0671 82.6688 51.0671 78.3818C51.0671 74.0947 47.8144 70.6946 43.231 70.6946C38.6477 70.6946 35.395 74.0947 35.395 78.3818C35.395 82.6688 38.6477 86.0689 43.231 86.0689ZM43.231 83.408C40.4219 83.408 38.4999 81.1905 38.4999 78.3818C38.4999 75.573 40.4219 73.3556 43.231 73.3556C46.0402 73.3556 47.9622 75.573 47.9622 78.3818C47.9622 81.1905 46.0402 83.408 43.231 83.408Z" fill="white"/>
<path d="M60.9642 86.0689C65.6658 86.0689 68.8002 82.7871 68.8002 78.6774C68.8002 74.6269 66.2276 71.3155 62.0287 71.3155C59.2491 71.3155 56.9723 72.9121 55.9965 75.2182C56.1147 70.8129 57.4158 68.9503 62.4427 68.2998C65.4884 67.9155 67.5583 67.2946 68.0314 64.4858H65.2518C65.0448 65.225 63.9803 65.4615 61.9696 65.698C55.7599 66.4372 53.1577 69.512 53.1577 76.667C53.1577 79.2096 53.483 81.2201 54.4588 82.728C55.6121 84.561 57.9481 86.0689 60.9642 86.0689ZM60.9642 83.408C58.2142 83.408 56.2626 81.4566 56.2626 78.6774C56.2626 75.9574 58.2142 73.9765 60.9642 73.9765C63.7438 73.9765 65.6954 75.9574 65.6954 78.6774C65.6954 81.4566 63.7438 83.408 60.9642 83.408Z" fill="white"/>
<path d="M78.4285 83.4967C75.708 83.4967 73.993 81.6044 73.786 78.914H86.0279C86.0871 78.6183 86.1166 78.2931 86.1166 77.9974C86.1166 73.9469 82.9822 70.6946 78.4285 70.6946C73.8747 70.6946 70.7403 74.0652 70.7403 78.3818C70.7403 82.8462 73.8747 86.0689 78.4285 86.0689C82.243 86.0689 84.6973 84.3245 85.5548 81.1905H82.7161C82.1247 82.5506 80.8236 83.4967 78.4285 83.4967ZM78.4285 73.2669C80.8236 73.2669 82.4204 74.7452 82.9527 76.8443H73.9338C74.4957 74.686 76.1811 73.2669 78.4285 73.2669Z" fill="white"/>
<path d="M88.9535 85.7732H91.9105V79.5644H98.8594V85.7732H101.816V70.9903H98.8594V76.9035H91.9105V70.9903H88.9535V85.7732Z" fill="white"/>
<path d="M105.529 85.7732H108.486V79.5644H115.435V85.7732H118.392V70.9903H115.435V76.9035H108.486V70.9903H105.529V85.7732Z" fill="white"/>
<path d="M129.053 86.0689C133.636 86.0689 136.889 82.6688 136.889 78.3818C136.889 74.0947 133.636 70.6946 129.053 70.6946C124.47 70.6946 121.217 74.0947 121.217 78.3818C121.217 82.6688 124.47 86.0689 129.053 86.0689ZM129.053 83.408C126.244 83.408 124.322 81.1905 124.322 78.3818C124.322 75.573 126.244 73.3556 129.053 73.3556C131.862 73.3556 133.784 75.573 133.784 78.3818C133.784 81.1905 131.862 83.408 129.053 83.408Z" fill="white"/>
<path d="M146.707 85.7732H149.664V79.5644H156.613V85.7732H159.57V70.9903H156.613V76.9035H149.664V70.9903H146.707V85.7732Z" fill="white"/>
<path d="M166.239 70.9903H163.283V91.6864H166.239V82.4619C167.304 84.6497 169.315 86.0689 172.006 86.0689C176.116 86.0689 178.807 82.6688 178.807 78.3818C178.807 74.0947 176.057 70.6946 172.006 70.6946C169.315 70.6946 167.304 72.1138 166.239 74.3017V70.9903ZM170.971 73.3556C173.75 73.3556 175.702 75.3069 175.702 78.3818C175.702 81.4566 173.75 83.408 170.971 83.408C168.309 83.408 166.239 81.3679 166.239 78.3818C166.239 75.4252 168.309 73.3556 170.971 73.3556Z" fill="white"/>
<path d="M190.789 76.5191V76.7557C184.017 76.7557 180.912 78.5592 180.912 81.9297C180.912 84.5906 182.657 86.0689 185.437 86.0689C188.482 86.0689 190.049 84.3836 190.789 82.2253V85.7732H193.746V76.8148C193.746 72.7051 191.587 70.6946 187.595 70.6946C183.929 70.6946 181.622 72.4982 181.149 75.9278H184.106C184.342 74.3904 185.525 73.3556 187.595 73.3556C189.606 73.3556 190.789 74.3904 190.789 76.5191ZM184.017 81.7818C184.017 80.0079 185.91 78.8844 190.789 78.8844C190.789 81.4271 189.162 83.5262 186.117 83.5262C184.816 83.5262 184.017 82.9053 184.017 81.7818Z" fill="white"/>
<path d="M197.328 85.7732H204.395C208.447 85.7732 209.748 83.6445 209.748 81.634C209.748 79.6531 208.417 78.5296 206.258 78.1748C208.151 77.6722 209.097 76.3713 209.097 74.8339C209.097 72.3799 207.293 70.9903 204.011 70.9903H197.328V85.7732ZM203.863 77.14H200.226V73.5034H203.863C205.401 73.5034 206.051 74.3017 206.051 75.3365C206.051 76.3417 205.401 77.14 203.863 77.14ZM204.07 79.5053C205.992 79.5053 206.643 80.3923 206.643 81.3384C206.643 82.4027 205.992 83.2601 204.218 83.2601H200.226V79.5053H204.07Z" fill="white"/>
<path d="M214.973 85.7732L219.083 80.5401H221.538V85.7732H224.495V70.9903H218.019C214.027 70.9903 212.253 73.4738 212.253 75.9574C212.253 78.0565 213.524 79.594 215.949 80.1557L211.425 85.7732H214.973ZM218.108 78.2339C216.156 78.2339 215.358 77.1104 215.358 75.9574C215.358 74.6565 216.156 73.6217 217.96 73.6217H221.538V78.2339H218.108Z" fill="white"/>
<path d="M232.189 85.7732H235.146V73.6512H240.291V70.9903H227.044V73.6512H232.189V85.7732Z" fill="white"/>
<path d="M249.003 83.408C246.341 83.408 244.478 81.4271 244.478 78.3818C244.478 75.3661 246.282 73.3556 249.003 73.3556C251.191 73.3556 252.462 74.4199 253.024 76.3122H255.981C255.419 72.853 252.906 70.6946 249.003 70.6946C244.478 70.6946 241.374 74.1243 241.374 78.3818C241.374 82.6688 244.478 86.0689 249.062 86.0689C252.817 86.0689 255.39 84.0584 256.099 80.3036H253.142C252.61 82.3732 251.191 83.408 249.003 83.408Z" fill="white"/>
<path d="M261.176 85.7732L265.286 80.5401H267.741V85.7732H270.698V70.9903H264.222C260.23 70.9903 258.456 73.4738 258.456 75.9574C258.456 78.0565 259.727 79.594 262.152 80.1557L257.628 85.7732H261.176ZM264.311 78.2339C262.359 78.2339 261.561 77.1104 261.561 75.9574C261.561 74.6565 262.359 73.6217 264.163 73.6217H267.741V78.2339H264.311Z" fill="white"/>
<path d="M281.418 85.7732H284.375V79.5644H291.324V85.7732H294.281V70.9903H291.324V76.9035H284.375V70.9903H281.418V85.7732Z" fill="white"/>
<path d="M307.278 76.5191V76.7557C300.506 76.7557 297.402 78.5592 297.402 81.9297C297.402 84.5906 299.146 86.0689 301.926 86.0689C304.971 86.0689 306.539 84.3836 307.278 82.2253V85.7732H310.235V76.8148C310.235 72.7051 308.076 70.6946 304.084 70.6946C300.418 70.6946 298.111 72.4982 297.638 75.9278H300.595C300.832 74.3904 302.014 73.3556 304.084 73.3556C306.095 73.3556 307.278 74.3904 307.278 76.5191ZM300.506 81.7818C300.506 80.0079 302.399 78.8844 307.278 78.8844C307.278 81.4271 305.652 83.5262 302.606 83.5262C301.305 83.5262 300.506 82.9053 300.506 81.7818Z" fill="white"/>
<path d="M313.818 85.7732H333.925V70.9903H330.968V83.0532H325.35V70.9903H322.393V83.0532H316.774V70.9903H313.818V85.7732Z" fill="white"/>
<path d="M337.641 85.7732H340.598L347.843 75.2478V85.7732H350.799V70.9903H347.843L340.598 81.5158V70.9903H337.641V85.7732Z" fill="white"/>
<path d="M354.534 85.7732H357.343V74.4791L361.897 85.7732H364.262L368.816 74.4791V85.7732H371.773V70.9903H367.604L363.227 81.9001L358.821 70.9903H354.534V85.7732Z" fill="white"/>
<path d="M8.86275 115.662C6.20146 115.662 4.33856 113.681 4.33856 110.635C4.33856 107.62 6.14232 105.609 8.86275 105.609C11.0509 105.609 12.3224 106.674 12.8843 108.566H15.8412C15.2794 105.107 12.766 102.948 8.86275 102.948C4.33856 102.948 1.23372 106.378 1.23372 110.635C1.23372 114.922 4.33856 118.323 8.92189 118.323C12.6773 118.323 15.2498 116.312 15.9595 112.557H13.0025C12.4703 114.627 11.0509 115.662 8.86275 115.662Z" fill="white"/>
<path d="M25.6162 118.323C30.1995 118.323 33.4522 114.922 33.4522 110.635C33.4522 106.348 30.1995 102.948 25.6162 102.948C21.0328 102.948 17.7802 106.348 17.7802 110.635C17.7802 114.922 21.0328 118.323 25.6162 118.323ZM25.6162 115.662C22.807 115.662 20.885 113.444 20.885 110.635C20.885 107.827 22.807 105.609 25.6162 105.609C28.4253 105.609 30.3474 107.827 30.3474 110.635C30.3474 113.444 28.4253 115.662 25.6162 115.662Z" fill="white"/>
<path d="M39.667 118.027H42.6239V105.905H47.7691V103.244H34.5218V105.905H39.667V118.027Z" fill="white"/>
<path d="M53.2733 103.244H50.3163V123.94H53.2733V114.716C54.3378 116.903 56.3485 118.323 59.0394 118.323C63.1496 118.323 65.8405 114.922 65.8405 110.635C65.8405 106.348 63.0905 102.948 59.0394 102.948C56.3485 102.948 54.3378 104.367 53.2733 106.555V103.244ZM58.0044 105.609C60.784 105.609 62.7356 107.561 62.7356 110.635C62.7356 113.71 60.784 115.662 58.0044 115.662C55.3432 115.662 53.2733 113.622 53.2733 110.635C53.2733 107.679 55.3432 105.609 58.0044 105.609Z" fill="white"/>
<path d="M74.9907 118.796L81.2595 103.244H78.3913L74.0445 114.272L69.6386 103.244H66.4746L72.4477 118.086C71.5015 120.717 70.9101 121.279 67.8052 121.279V123.94C72.2407 123.94 73.394 122.787 74.9907 118.796Z" fill="white"/>
<path d="M81.4432 121.279H84.2523V118.027H95.0749V121.279H97.8841V115.366H95.8142V103.244H84.4889V104.929C84.4889 111.315 83.8975 113.917 83.2765 115.366H81.4432V121.279ZM86.204 115.366C86.7362 114.006 87.2093 111.907 87.2685 105.905H92.8572V115.366H86.204Z" fill="white"/>
<path d="M100.273 118.027H103.23V111.818H110.179V118.027H113.136V103.244H110.179V109.157H103.23V103.244H100.273V118.027Z" fill="white"/>
<path d="M116.849 118.027H119.806L127.05 107.501V118.027H130.007V103.244H127.05L119.806 113.769V103.244H116.849V118.027Z" fill="white"/>
<path d="M133.741 118.027H136.698V111.079L143.293 118.027H147.284L139.862 110.281L146.723 103.244H143.174L136.698 109.896V103.244H133.741V118.027Z" fill="white"/>
<path d="M157.782 108.773V109.009C151.011 109.009 147.906 110.813 147.906 114.183C147.906 116.844 149.651 118.323 152.43 118.323C155.476 118.323 157.043 116.637 157.782 114.479V118.027H160.739V109.068C160.739 104.959 158.581 102.948 154.589 102.948C150.922 102.948 148.616 104.752 148.143 108.181H151.1C151.336 106.644 152.519 105.609 154.589 105.609C156.6 105.609 157.782 106.644 157.782 108.773ZM151.011 114.035C151.011 112.262 152.903 111.138 157.782 111.138C157.782 113.681 156.156 115.78 153.11 115.78C151.809 115.78 151.011 115.159 151.011 114.035Z" fill="white"/>
<path d="M164.322 118.027H167.131V106.733L171.685 118.027H174.051L178.604 106.733V118.027H181.561V103.244H177.392L173.016 114.154L168.61 103.244H164.322V118.027Z" fill="white"/>
<path d="M186.883 118.323C188.096 118.323 189.072 117.347 189.072 116.076C189.072 114.893 188.096 113.976 186.883 113.976C185.641 113.976 184.695 114.893 184.695 116.076C184.695 117.347 185.641 118.323 186.883 118.323Z" fill="white"/>
</g>
</svg>
