<svg width="471" height="189" viewBox="0 0 471 189" fill="none" xmlns="http://www.w3.org/2000/svg">
<g id="&#208;&#145;&#208;&#176;&#209;&#128;&#208;&#188;&#208;&#181;&#208;&#189;&#209;&#139;-&#208;&#190;&#209;&#132;&#208;&#184;&#209;&#134;&#208;&#184;&#208;&#176;&#208;&#189;&#209;&#130;&#209;&#139;, &#208;&#177;&#208;&#176;&#209;&#128;&#208;&#184;&#209;&#129;&#209;&#130;&#208;&#176;, &#208;&#191;&#208;&#190;&#208;&#178;&#208;&#176;&#209;&#128;&#208;&#176; &#208;&#184; &#209;&#129;&#209;&#131;&#209;&#136;&#208;&#184;&#209;&#129;&#209;&#130;&#209;&#139; &#208;&#189;&#208;&#176;&#208;&#185;&#208;&#180;&#209;&#131;&#209;&#130; &#208;&#183;&#208;&#180;&#208;&#181;&#209;&#129;&#209;&#140; &#208;&#178;&#208;&#190;&#208;&#183;&#208;&#188;&#208;&#190;&#208;&#182;&#208;&#189;&#208;&#190;&#209;&#129;&#209;&#130;&#209;&#140; &#209;&#128;&#208;&#176;&#208;&#183;&#208;&#178;&#208;&#184;&#208;&#178;&#208;&#176;&#209;&#130;&#209;&#140; &#209;&#129;&#208;&#178;&#208;&#190;&#208;&#184; &#208;&#189;&#208;&#176;&#208;&#178;&#209;&#139;&#208;&#186;&#208;&#184;, &#209;&#131;&#208;&#179;&#208;&#190;&#209;&#137;&#208;&#176;&#209;&#130;&#209;&#140; &#208;&#179;&#208;&#190;&#209;&#129;&#209;&#130;&#208;&#181;&#208;&#185; &#208;&#178;&#208;&#186;&#209;&#131;&#209;&#129;&#208;&#189;&#209;&#139;&#208;&#188;&#208;&#184; &#208;&#177;&#208;&#187;&#209;&#142;&#208;&#180;&#208;&#176;&#208;&#188;&#208;&#184;, &#209;&#131;&#208;&#183;&#208;&#189;&#208;&#176;&#208;&#178;&#208;&#176;&#209;&#130;&#209;&#140; &#208;&#189;&#208;&#190;&#208;&#178;&#208;&#190;&#208;&#181; &#208;&#184;&#194;&#160;&#208;&#191;&#208;&#190;&#208;&#178;&#209;&#139;&#209;&#136;&#208;&#176;&#209;&#130;&#209;&#140; &#209;&#141;&#208;&#186;&#209;&#129;&#208;&#191;&#208;&#181;&#209;&#128;&#209;&#130;&#208;&#184;&#208;&#183;&#209;&#131;.">
<path d="M10.406 21.7581C15.1668 21.7581 17.0593 18.772 17.0593 15.6084C17.0593 12.504 15.1668 9.42916 10.406 9.42916H4.37377V3.87078H15.4625V1.06202H1.26893V21.7581H10.406ZM10.3173 12.2379C12.7421 12.2379 13.8066 13.7458 13.8066 15.6084C13.8066 17.3232 12.7421 18.9494 10.1695 18.9494H4.37377V12.2379H10.3173Z" fill="white"/>
<path d="M28.8006 12.504V12.7405C22.0291 12.7405 18.9242 14.544 18.9242 17.9146C18.9242 20.5755 20.6689 22.0538 23.4484 22.0538C26.4941 22.0538 28.0613 20.3685 28.8006 18.2102V21.7581H31.7576V12.7997C31.7576 8.69001 29.599 6.67953 25.607 6.67953C21.9404 6.67953 19.6339 8.48305 19.1608 11.9127H22.1178C22.3543 10.3753 23.5371 9.34046 25.607 9.34046C27.6178 9.34046 28.8006 10.3753 28.8006 12.504ZM22.0291 17.7667C22.0291 15.9928 23.9216 14.8693 28.8006 14.8693C28.8006 17.4119 27.1742 19.5111 24.1285 19.5111C22.8275 19.5111 22.0291 18.8902 22.0291 17.7667Z" fill="white"/>
<path d="M38.2971 6.97519H35.3401V27.6713H38.2971V18.4467C39.3617 20.6346 41.3724 22.0538 44.0633 22.0538C48.1735 22.0538 50.8643 18.6537 50.8643 14.3667C50.8643 10.0796 48.1143 6.67953 44.0633 6.67953C41.3724 6.67953 39.3617 8.09869 38.2971 10.2866V6.97519ZM43.0283 9.34046C45.8079 9.34046 47.7595 11.2918 47.7595 14.3667C47.7595 17.4415 45.8079 19.3928 43.0283 19.3928C40.367 19.3928 38.2971 17.3528 38.2971 14.3667C38.2971 11.4101 40.367 9.34046 43.0283 9.34046Z" fill="white"/>
<path d="M53.7058 21.7581H56.515V10.464L61.0687 21.7581H63.4343L67.9881 10.464V21.7581H70.9451V6.97519H66.7757L62.3994 17.885L57.9935 6.97519H53.7058V21.7581Z" fill="white"/>
<path d="M81.4715 19.4815C78.7511 19.4815 77.036 17.5893 76.829 14.8988H89.071C89.1301 14.6032 89.1597 14.278 89.1597 13.9823C89.1597 9.93178 86.0253 6.67953 81.4715 6.67953C76.9177 6.67953 73.7833 10.05 73.7833 14.3667C73.7833 18.8311 76.9177 22.0538 81.4715 22.0538C85.286 22.0538 87.7403 20.3094 88.5978 17.1754H85.7591C85.1677 18.5354 83.8667 19.4815 81.4715 19.4815ZM81.4715 9.25176C83.8667 9.25176 85.4634 10.7301 85.9957 12.8292H76.9769C77.5387 10.6709 79.2242 9.25176 81.4715 9.25176Z" fill="white"/>
<path d="M91.9965 21.7581H94.9535V15.5493H101.902V21.7581H104.859V6.97519H101.902V12.8884H94.9535V6.97519H91.9965V21.7581Z" fill="white"/>
<path d="M108.572 21.7581H115.048C119.04 21.7581 120.814 19.1859 120.814 16.6432C120.814 14.071 119.04 11.617 115.048 11.617H111.529V6.97519H108.572V21.7581ZM122.795 21.7581H125.752V6.97519H122.795V21.7581ZM114.959 14.2188C116.911 14.2188 117.709 15.4015 117.709 16.6432C117.709 18.0328 116.911 19.1268 115.107 19.1268H111.529V14.2188H114.959Z" fill="white"/>
<path d="M139.089 15.5493V12.8884H129.183V15.5493H139.089Z" fill="white"/>
<path d="M149.48 22.0538C154.063 22.0538 157.316 18.6537 157.316 14.3667C157.316 10.0796 154.063 6.67953 149.48 6.67953C144.897 6.67953 141.644 10.0796 141.644 14.3667C141.644 18.6537 144.897 22.0538 149.48 22.0538ZM149.48 19.3928C146.671 19.3928 144.749 17.1754 144.749 14.3667C144.749 11.5579 146.671 9.34046 149.48 9.34046C152.289 9.34046 154.211 11.5579 154.211 14.3667C154.211 17.1754 152.289 19.3928 149.48 19.3928Z" fill="white"/>
<path d="M167.391 27.6713H170.348V22.0538C174.724 21.8468 178.479 19.0972 178.479 14.3667C178.479 9.63612 174.724 6.85693 170.348 6.67953V1.06202H167.391V6.67953C163.014 6.85693 159.259 9.63612 159.259 14.3667C159.259 19.0972 163.014 21.8468 167.391 22.0538V27.6713ZM162.364 14.3667C162.364 11.0553 164.788 9.37003 167.391 9.25176V19.4815C164.788 19.3633 162.364 17.678 162.364 14.3667ZM170.348 9.25176C172.92 9.37003 175.374 11.0553 175.374 14.3667C175.374 17.678 172.92 19.3633 170.348 19.4815V9.25176Z" fill="white"/>
<path d="M181.313 21.7581H184.27L191.514 11.2327V21.7581H194.471V6.97519H191.514L184.27 17.5006V6.97519H181.313V21.7581Z" fill="white"/>
<path d="M210.034 25.0104H212.843V19.0972H210.773V6.97519H207.816V19.0972H201.163V6.97519H198.206V21.7581H210.034V25.0104Z" fill="white"/>
<path d="M215.243 21.7581H218.2L225.445 11.2327V21.7581H228.402V6.97519H225.445L218.2 17.5006V6.97519H215.243V21.7581Z" fill="white"/>
<path d="M241.421 12.504V12.7405C234.649 12.7405 231.544 14.544 231.544 17.9146C231.544 20.5755 233.289 22.0538 236.069 22.0538C239.114 22.0538 240.682 20.3685 241.421 18.2102V21.7581H244.378V12.7997C244.378 8.69001 242.219 6.67953 238.227 6.67953C234.561 6.67953 232.254 8.48305 231.781 11.9127H234.738C234.975 10.3753 236.157 9.34046 238.227 9.34046C240.238 9.34046 241.421 10.3753 241.421 12.504ZM234.649 17.7667C234.649 15.9928 236.542 14.8693 241.421 14.8693C241.421 17.4119 239.794 19.5111 236.749 19.5111C235.448 19.5111 234.649 18.8902 234.649 17.7667Z" fill="white"/>
<path d="M247.96 21.7581H250.917V15.5493H257.866V21.7581H260.823V6.97519H257.866V12.8884H250.917V6.97519H247.96V21.7581Z" fill="white"/>
<path d="M268.498 21.7581H271.455V9.63612H276.6V6.97519H263.353V9.63612H268.498V21.7581Z" fill="white"/>
<path d="M279.147 21.7581H285.623C289.615 21.7581 291.389 19.1859 291.389 16.6432C291.389 14.071 289.615 11.617 285.623 11.617H282.104V6.97519H279.147V21.7581ZM293.371 21.7581H296.327V6.97519H293.371V21.7581ZM285.534 14.2188C287.486 14.2188 288.284 15.4015 288.284 16.6432C288.284 18.0328 287.486 19.1268 285.682 19.1268H282.104V14.2188H285.534Z" fill="white"/>
<path d="M300.409 24.419H302.006L303.277 21.6399C303.721 20.6642 303.839 20.1616 303.839 19.8068C303.839 18.5946 302.863 17.7076 301.651 17.7076C300.409 17.7076 299.463 18.5946 299.463 19.8068C299.463 20.5755 299.788 21.3146 300.912 21.8173L300.409 24.419Z" fill="white"/>
<path d="M321.04 22.0538C325.742 22.0538 328.876 18.772 328.876 14.6623C328.876 10.6118 326.304 7.30042 322.105 7.30042C319.325 7.30042 317.048 8.89697 316.072 11.2031C316.191 6.7978 317.492 4.93515 322.519 4.2847C325.564 3.90034 327.634 3.27946 328.107 0.470703H325.328C325.121 1.20985 324.056 1.44638 322.045 1.6829C315.836 2.42205 313.234 5.4969 313.234 12.6518C313.234 15.1945 313.559 17.205 314.535 18.7128C315.688 20.5459 318.024 22.0538 321.04 22.0538ZM321.04 19.3928C318.29 19.3928 316.338 17.4415 316.338 14.6623C316.338 11.9423 318.29 9.96134 321.04 9.96134C323.82 9.96134 325.771 11.9423 325.771 14.6623C325.771 17.4415 323.82 19.3928 321.04 19.3928Z" fill="white"/>
<path d="M340.555 12.504V12.7405C333.784 12.7405 330.679 14.544 330.679 17.9146C330.679 20.5755 332.423 22.0538 335.203 22.0538C338.249 22.0538 339.816 20.3685 340.555 18.2102V21.7581H343.512V12.7997C343.512 8.69001 341.353 6.67953 337.361 6.67953C333.695 6.67953 331.388 8.48305 330.915 11.9127H333.872C334.109 10.3753 335.292 9.34046 337.361 9.34046C339.372 9.34046 340.555 10.3753 340.555 12.504ZM333.784 17.7667C333.784 15.9928 335.676 14.8693 340.555 14.8693C340.555 17.4119 338.929 19.5111 335.883 19.5111C334.582 19.5111 333.784 18.8902 333.784 17.7667Z" fill="white"/>
<path d="M350.052 6.97519H347.095V27.6713H350.052V18.4467C351.116 20.6346 353.127 22.0538 355.818 22.0538C359.928 22.0538 362.619 18.6537 362.619 14.3667C362.619 10.0796 359.869 6.67953 355.818 6.67953C353.127 6.67953 351.116 8.09869 350.052 10.2866V6.97519ZM354.783 9.34046C357.562 9.34046 359.514 11.2918 359.514 14.3667C359.514 17.4415 357.562 19.3928 354.783 19.3928C352.121 19.3928 350.052 17.3528 350.052 14.3667C350.052 11.4101 352.121 9.34046 354.783 9.34046Z" fill="white"/>
<path d="M365.46 21.7581H368.417L375.662 11.2327V21.7581H378.619V6.97519H375.662L368.417 17.5006V6.97519H365.46V21.7581Z" fill="white"/>
<path d="M389.095 19.3928C386.434 19.3928 384.571 17.4119 384.571 14.3667C384.571 11.3509 386.375 9.34046 389.095 9.34046C391.283 9.34046 392.555 10.4048 393.117 12.297H396.074C395.512 8.83784 392.998 6.67953 389.095 6.67953C384.571 6.67953 381.466 10.1092 381.466 14.3667C381.466 18.6537 384.571 22.0538 389.154 22.0538C392.91 22.0538 395.482 20.0433 396.192 16.2884H393.235C392.703 18.358 391.283 19.3928 389.095 19.3928Z" fill="white"/>
<path d="M402.718 21.7581H405.675V9.63612H410.82V6.97519H397.573V9.63612H402.718V21.7581Z" fill="white"/>
<path d="M422.074 12.504V12.7405C415.303 12.7405 412.198 14.544 412.198 17.9146C412.198 20.5755 413.943 22.0538 416.722 22.0538C419.768 22.0538 421.335 20.3685 422.074 18.2102V21.7581H425.031V12.7997C425.031 8.69001 422.873 6.67953 418.881 6.67953C415.214 6.67953 412.908 8.48305 412.435 11.9127H415.392C415.628 10.3753 416.811 9.34046 418.881 9.34046C420.892 9.34046 422.074 10.3753 422.074 12.504ZM415.303 17.7667C415.303 15.9928 417.195 14.8693 422.074 14.8693C422.074 17.4119 420.448 19.5111 417.402 19.5111C416.101 19.5111 415.303 18.8902 415.303 17.7667Z" fill="white"/>
<path d="M428.969 24.419H430.566L431.837 21.6399C432.281 20.6642 432.399 20.1616 432.399 19.8068C432.399 18.5946 431.423 17.7076 430.211 17.7076C428.969 17.7076 428.023 18.5946 428.023 19.8068C428.023 20.5755 428.348 21.3146 429.471 21.8173L428.969 24.419Z" fill="white"/>
<path d="M1.12108 54.0118H4.07807V41.8898H10.7313V54.0118H13.6883V39.2289H1.12108V54.0118Z" fill="white"/>
<path d="M24.3566 54.3074C28.9399 54.3074 32.1926 50.9074 32.1926 46.6203C32.1926 42.3333 28.9399 38.9332 24.3566 38.9332C19.7732 38.9332 16.5205 42.3333 16.5205 46.6203C16.5205 50.9074 19.7732 54.3074 24.3566 54.3074ZM24.3566 51.6465C21.5474 51.6465 19.6254 49.4291 19.6254 46.6203C19.6254 43.8116 21.5474 41.5941 24.3566 41.5941C27.1657 41.5941 29.0877 43.8116 29.0877 46.6203C29.0877 49.4291 27.1657 51.6465 24.3566 51.6465Z" fill="white"/>
<path d="M35.0225 54.0118H42.0897C46.1408 54.0118 47.4419 51.883 47.4419 49.8726C47.4419 47.8916 46.1112 46.7681 43.9526 46.4134C45.8451 45.9107 46.7913 44.6098 46.7913 43.0724C46.7913 40.6184 44.9876 39.2289 41.7053 39.2289H35.0225V54.0118ZM41.5574 45.3785H37.9204V41.7419H41.5574C43.0951 41.7419 43.7456 42.5402 43.7456 43.575C43.7456 44.5803 43.0951 45.3785 41.5574 45.3785ZM41.7644 47.7438C43.6865 47.7438 44.337 48.6308 44.337 49.5769C44.337 50.6413 43.6865 51.4987 41.9123 51.4987H37.9204V47.7438H41.7644Z" fill="white"/>
<path d="M59.5833 44.7577V44.9942C52.8118 44.9942 49.707 46.7977 49.707 50.1682C49.707 52.8291 51.4516 54.3074 54.2312 54.3074C57.2769 54.3074 58.8441 52.6222 59.5833 50.4639V54.0118H62.5403V45.0533C62.5403 40.9437 60.3817 38.9332 56.3898 38.9332C52.7231 38.9332 50.4166 40.7367 49.9435 44.1663H52.9005C53.1371 42.6289 54.3199 41.5941 56.3898 41.5941C58.4005 41.5941 59.5833 42.6289 59.5833 44.7577ZM52.8118 50.0204C52.8118 48.2464 54.7043 47.1229 59.5833 47.1229C59.5833 49.6656 57.957 51.7648 54.9113 51.7648C53.6102 51.7648 52.8118 51.1439 52.8118 50.0204Z" fill="white"/>
<path d="M69.0799 39.2289H66.1229V59.9249H69.0799V50.7004C70.1444 52.8883 72.1551 54.3074 74.846 54.3074C78.9562 54.3074 81.6471 50.9074 81.6471 46.6203C81.6471 42.3333 78.8971 38.9332 74.846 38.9332C72.1551 38.9332 70.1444 40.3524 69.0799 42.5402V39.2289ZM73.811 41.5941C76.5906 41.5941 78.5422 43.5455 78.5422 46.6203C78.5422 49.6952 76.5906 51.6465 73.811 51.6465C71.1497 51.6465 69.0799 49.6065 69.0799 46.6203C69.0799 43.6637 71.1497 41.5941 73.811 41.5941Z" fill="white"/>
<path d="M93.6291 44.7577V44.9942C86.8576 44.9942 83.7528 46.7977 83.7528 50.1682C83.7528 52.8291 85.4974 54.3074 88.277 54.3074C91.3227 54.3074 92.8899 52.6222 93.6291 50.4639V54.0118H96.5861V45.0533C96.5861 40.9437 94.4275 38.9332 90.4356 38.9332C86.7689 38.9332 84.4624 40.7367 83.9893 44.1663H86.9463C87.1829 42.6289 88.3657 41.5941 90.4356 41.5941C92.4463 41.5941 93.6291 42.6289 93.6291 44.7577ZM86.8576 50.0204C86.8576 48.2464 88.7501 47.1229 93.6291 47.1229C93.6291 49.6656 92.0028 51.7648 88.9571 51.7648C87.656 51.7648 86.8576 51.1439 86.8576 50.0204Z" fill="white"/>
<path d="M107.157 54.0118H110.114L117.358 43.4863V54.0118H120.315V39.2289H117.358L110.114 49.7543V39.2289H107.157V54.0118Z" fill="white"/>
<path d="M137.78 51.6465C135.119 51.6465 133.256 49.6656 133.256 46.6203C133.256 43.6046 135.06 41.5941 137.78 41.5941C139.968 41.5941 141.24 42.6585 141.801 44.5507H144.758C144.197 41.0915 141.683 38.9332 137.78 38.9332C133.256 38.9332 130.151 42.3628 130.151 46.6203C130.151 50.9074 133.256 54.3074 137.839 54.3074C141.594 54.3074 144.167 52.297 144.877 48.5421H141.92C141.387 50.6117 139.968 51.6465 137.78 51.6465Z" fill="white"/>
<path d="M154.182 54.7805L160.451 39.2289H157.583L153.236 50.2569L148.83 39.2289H145.666L151.639 54.0709C150.693 56.7023 150.101 57.264 146.997 57.264V59.9249C151.432 59.9249 152.585 58.7719 154.182 54.7805Z" fill="white"/>
<path d="M162.398 54.0118H182.506V39.2289H179.549V51.2917H173.931V39.2289H170.974V51.2917H165.355V39.2289H162.398V54.0118Z" fill="white"/>
<path d="M186.222 54.0118H189.179L196.423 43.4863V54.0118H199.38V39.2289H196.423L189.179 49.7543V39.2289H186.222V54.0118Z" fill="white"/>
<path d="M209.857 51.6465C207.195 51.6465 205.332 49.6656 205.332 46.6203C205.332 43.6046 207.136 41.5941 209.857 41.5941C212.045 41.5941 213.316 42.6585 213.878 44.5507H216.835C216.273 41.0915 213.76 38.9332 209.857 38.9332C205.332 38.9332 202.228 42.3628 202.228 46.6203C202.228 50.9074 205.332 54.3074 209.916 54.3074C213.671 54.3074 216.244 52.297 216.953 48.5421H213.996C213.464 50.6117 212.045 51.6465 209.857 51.6465Z" fill="white"/>
<path d="M223.479 54.0118H226.436V41.8898H231.581V39.2289H218.334V41.8898H223.479V54.0118Z" fill="white"/>
<path d="M234.128 54.0118H240.604C244.596 54.0118 246.37 51.4395 246.37 48.8969C246.37 46.3247 244.596 43.8707 240.604 43.8707H237.085V39.2289H234.128V54.0118ZM248.352 54.0118H251.308V39.2289H248.352V54.0118ZM240.515 46.4725C242.467 46.4725 243.265 47.6551 243.265 48.8969C243.265 50.2865 242.467 51.3804 240.663 51.3804H237.085V46.4725H240.515Z" fill="white"/>
<path d="M262.023 54.0118H264.98V47.8029H271.929V54.0118H274.886V39.2289H271.929V45.142H264.98V39.2289H262.023V54.0118Z" fill="white"/>
<path d="M287.884 44.7577V44.9942C281.112 44.9942 278.007 46.7977 278.007 50.1682C278.007 52.8291 279.752 54.3074 282.532 54.3074C285.577 54.3074 287.144 52.6222 287.884 50.4639V54.0118H290.841V45.0533C290.841 40.9437 288.682 38.9332 284.69 38.9332C281.023 38.9332 278.717 40.7367 278.244 44.1663H281.201C281.437 42.6289 282.62 41.5941 284.69 41.5941C286.701 41.5941 287.884 42.6289 287.884 44.7577ZM281.112 50.0204C281.112 48.2464 283.005 47.1229 287.884 47.1229C287.884 49.6656 286.257 51.7648 283.212 51.7648C281.911 51.7648 281.112 51.1439 281.112 50.0204Z" fill="white"/>
<path d="M296.493 33.3157C296.493 35.7992 298.119 37.4549 301.017 37.4549C303.915 37.4549 305.542 35.7992 305.542 33.3157H302.91C302.91 34.7053 302.2 35.3557 301.017 35.3557C299.835 35.3557 299.125 34.7053 299.125 33.3157H296.493ZM294.423 54.0118H297.38L304.625 43.4863V54.0118H307.582V39.2289H304.625L297.38 49.7543V39.2289H294.423V54.0118Z" fill="white"/>
<path d="M309.986 57.264H312.795V54.0118H323.617V57.264H326.426V51.3509H324.357V39.2289H313.031V40.9141C313.031 47.3003 312.44 49.9021 311.819 51.3509H309.986V57.264ZM314.746 51.3509C315.279 49.9908 315.752 47.8916 315.811 41.8898H321.4V51.3509H314.746Z" fill="white"/>
<path d="M335.557 54.7805L341.826 39.2289H338.958L334.611 50.2569L330.205 39.2289H327.041L333.014 54.0709C332.068 56.7023 331.477 57.264 328.372 57.264V59.9249C332.807 59.9249 333.961 58.7719 335.557 54.7805Z" fill="white"/>
<path d="M347.736 54.0118H350.693V41.8898H355.838V39.2289H342.591V41.8898H347.736V54.0118Z" fill="white"/>
<path d="M371.022 54.3074C375.575 54.3074 377.468 52.1196 377.468 49.7247C377.468 48.069 376.285 46.7386 374.392 46.3247C376.078 45.8812 376.995 44.6098 376.995 43.102C376.995 40.855 375.191 38.9332 371.051 38.9332C367.296 38.9332 364.93 40.8845 364.634 43.9298H367.71C367.976 42.7176 368.774 41.5941 370.992 41.5941C372.973 41.5941 373.89 42.4811 373.89 43.575C373.89 44.6394 373.21 45.349 371.11 45.349H369.07V47.8621H371.554C373.594 47.8621 374.363 48.6308 374.363 49.636C374.363 50.7004 373.683 51.6465 371.022 51.6465C368.774 51.6465 367.769 50.7004 367.414 49.163H364.339C364.634 52.2083 366.704 54.3074 371.022 54.3074Z" fill="white"/>
<path d="M378.828 57.264H381.637V54.0118H392.46V57.264H395.269V51.3509H393.199V39.2289H381.874V40.9141C381.874 47.3003 381.282 49.9021 380.661 51.3509H378.828V57.264ZM383.589 51.3509C384.121 49.9908 384.594 47.8916 384.653 41.8898H390.242V51.3509H383.589Z" fill="white"/>
<path d="M404.459 51.7352C401.739 51.7352 400.024 49.843 399.817 47.1525H412.059C412.118 46.8568 412.147 46.5316 412.147 46.236C412.147 42.1854 409.013 38.9332 404.459 38.9332C399.905 38.9332 396.771 42.3037 396.771 46.6203C396.771 51.0848 399.905 54.3074 404.459 54.3074C408.274 54.3074 410.728 52.563 411.585 49.4291H408.747C408.155 50.7891 406.854 51.7352 404.459 51.7352ZM404.459 41.5054C406.854 41.5054 408.451 42.9837 408.983 45.0829H399.964C400.526 42.9246 402.212 41.5054 404.459 41.5054Z" fill="white"/>
<path d="M421.726 51.6465C419.065 51.6465 417.202 49.6656 417.202 46.6203C417.202 43.6046 419.006 41.5941 421.726 41.5941C423.914 41.5941 425.186 42.6585 425.748 44.5507H428.704C428.143 41.0915 425.629 38.9332 421.726 38.9332C417.202 38.9332 414.097 42.3628 414.097 46.6203C414.097 50.9074 417.202 54.3074 421.785 54.3074C425.541 54.3074 428.113 52.297 428.823 48.5421H425.866C425.334 50.6117 423.914 51.6465 421.726 51.6465Z" fill="white"/>
<path d="M431.675 54.0118H438.151C442.143 54.0118 443.917 51.4395 443.917 48.8969C443.917 46.3247 442.143 43.8707 438.151 43.8707H434.632V39.2289H431.675V54.0118ZM438.062 46.4725C440.014 46.4725 440.812 47.6551 440.812 48.8969C440.812 50.2865 440.014 51.3804 438.21 51.3804H434.632V46.4725H438.062Z" fill="white"/>
<path d="M1.12108 86.2654H8.18829C12.2394 86.2654 13.5404 84.1367 13.5404 82.1262C13.5404 80.1453 12.2098 79.0218 10.0512 78.667C11.9437 78.1644 12.8899 76.8635 12.8899 75.3261C12.8899 72.8721 11.0861 71.4825 7.80388 71.4825H1.12108V86.2654ZM7.65603 77.6322H4.01893V73.9956H7.65603C9.19366 73.9956 9.8442 74.7939 9.8442 75.8287C9.8442 76.8339 9.19366 77.6322 7.65603 77.6322ZM7.86302 79.9975C9.78506 79.9975 10.4356 80.8845 10.4356 81.8306C10.4356 82.8949 9.78506 83.7523 8.01087 83.7523H4.01893V79.9975H7.86302Z" fill="white"/>
<path d="M23.2015 86.5611C27.7848 86.5611 31.0375 83.161 31.0375 78.874C31.0375 74.5869 27.7848 71.1869 23.2015 71.1869C18.6181 71.1869 15.3655 74.5869 15.3655 78.874C15.3655 83.161 18.6181 86.5611 23.2015 86.5611ZM23.2015 83.9002C20.3923 83.9002 18.4703 81.6827 18.4703 78.874C18.4703 76.0652 20.3923 73.8478 23.2015 73.8478C26.0106 73.8478 27.9327 76.0652 27.9327 78.874C27.9327 81.6827 26.0106 83.9002 23.2015 83.9002Z" fill="white"/>
<path d="M39.3709 86.5611C43.9247 86.5611 45.8171 84.3732 45.8171 81.9784C45.8171 80.3227 44.6343 78.9922 42.7419 78.5783C44.4273 78.1348 45.344 76.8635 45.344 75.3556C45.344 73.1086 43.5402 71.1869 39.4005 71.1869C35.6451 71.1869 33.2795 73.1382 32.9838 76.1835H36.0591C36.3252 74.9713 37.1236 73.8478 39.3413 73.8478C41.3225 73.8478 42.2392 74.7348 42.2392 75.8287C42.2392 76.8931 41.5591 77.6026 39.4596 77.6026H37.4193V80.1157H39.9032C41.9435 80.1157 42.7123 80.8845 42.7123 81.8897C42.7123 82.9541 42.0322 83.9002 39.3709 83.9002C37.1236 83.9002 36.1182 82.9541 35.7634 81.4166H32.6881C32.9838 84.4619 35.0537 86.5611 39.3709 86.5611Z" fill="white"/>
<path d="M48.7968 86.2654H51.6059V74.9713L56.1597 86.2654H58.5253L63.079 74.9713V86.2654H66.036V71.4825H61.8667L57.4903 82.3923L53.0844 71.4825H48.7968V86.2654Z" fill="white"/>
<path d="M76.7103 86.5611C81.2936 86.5611 84.5463 83.161 84.5463 78.874C84.5463 74.5869 81.2936 71.1869 76.7103 71.1869C72.1269 71.1869 68.8743 74.5869 68.8743 78.874C68.8743 83.161 72.1269 86.5611 76.7103 86.5611ZM76.7103 83.9002C73.9011 83.9002 71.9791 81.6827 71.9791 78.874C71.9791 76.0652 73.9011 73.8478 76.7103 73.8478C79.5194 73.8478 81.4415 76.0652 81.4415 78.874C81.4415 81.6827 79.5194 83.9002 76.7103 83.9002Z" fill="white"/>
<path d="M94.8713 86.2654H97.8283V79.347L104.127 86.2654H108.03L100.933 78.5192L107.468 71.4825H104.008L97.8283 78.1348V71.4825H94.8713V78.1348L88.6912 71.4825H85.0836L91.7664 78.667L84.8175 86.2654H88.5729L94.8713 79.347V86.2654Z" fill="white"/>
<path d="M109.785 86.2654H112.742V80.0566H119.691V86.2654H122.648V71.4825H119.691V77.3957H112.742V71.4825H109.785V86.2654Z" fill="white"/>
<path d="M133.309 86.5611C137.892 86.5611 141.145 83.161 141.145 78.874C141.145 74.5869 137.892 71.1869 133.309 71.1869C128.726 71.1869 125.473 74.5869 125.473 78.874C125.473 83.161 128.726 86.5611 133.309 86.5611ZM133.309 83.9002C130.5 83.9002 128.578 81.6827 128.578 78.874C128.578 76.0652 130.5 73.8478 133.309 73.8478C136.118 73.8478 138.04 76.0652 138.04 78.874C138.04 81.6827 136.118 83.9002 133.309 83.9002Z" fill="white"/>
<path d="M150.717 83.9002C148.055 83.9002 146.193 81.9193 146.193 78.874C146.193 75.8583 147.996 73.8478 150.717 73.8478C152.905 73.8478 154.176 74.9121 154.738 76.8044H157.695C157.133 73.3452 154.62 71.1869 150.717 71.1869C146.193 71.1869 143.088 74.6165 143.088 78.874C143.088 83.161 146.193 86.5611 150.776 86.5611C154.531 86.5611 157.104 84.5506 157.814 80.7958H154.857C154.324 82.8654 152.905 83.9002 150.717 83.9002Z" fill="white"/>
<path d="M164.339 86.2654H167.296V74.1434H172.441V71.4825H159.194V74.1434H164.339V86.2654Z" fill="white"/>
<path d="M174.989 86.2654H181.464C185.456 86.2654 187.231 83.6932 187.231 81.1505C187.231 78.5783 185.456 76.1243 181.464 76.1243H177.946V71.4825H174.989V86.2654ZM181.376 78.7261C183.327 78.7261 184.126 79.9088 184.126 81.1505C184.126 82.5401 183.327 83.6341 181.524 83.6341H177.946V78.7261H181.376Z" fill="white"/>
<path d="M199.719 71.4825H196.762V92.1786H199.719V82.9541C200.783 85.1419 202.794 86.5611 205.485 86.5611C209.595 86.5611 212.286 83.161 212.286 78.874C212.286 74.5869 209.536 71.1869 205.485 71.1869C202.794 71.1869 200.783 72.606 199.719 74.7939V71.4825ZM204.45 73.8478C207.229 73.8478 209.181 75.7991 209.181 78.874C209.181 81.9488 207.229 83.9002 204.45 83.9002C201.789 83.9002 199.719 81.8601 199.719 78.874C199.719 75.9174 201.789 73.8478 204.45 73.8478Z" fill="white"/>
<path d="M224.268 77.0113V77.2479C217.496 77.2479 214.392 79.0514 214.392 82.4219C214.392 85.0828 216.136 86.5611 218.916 86.5611C221.962 86.5611 223.529 84.8758 224.268 82.7175V86.2654H227.225V77.307C227.225 73.1973 225.066 71.1869 221.074 71.1869C217.408 71.1869 215.101 72.9904 214.628 76.42H217.585C217.822 74.8826 219.005 73.8478 221.074 73.8478C223.085 73.8478 224.268 74.8826 224.268 77.0113ZM217.496 82.274C217.496 80.5001 219.389 79.3766 224.268 79.3766C224.268 81.9193 222.642 84.0184 219.596 84.0184C218.295 84.0184 217.496 83.3975 217.496 82.274Z" fill="white"/>
<path d="M236.455 86.5611C241.009 86.5611 242.902 84.3732 242.902 81.9784C242.902 80.3227 241.719 78.9922 239.826 78.5783C241.512 78.1348 242.429 76.8635 242.429 75.3556C242.429 73.1086 240.625 71.1869 236.485 71.1869C232.73 71.1869 230.364 73.1382 230.068 76.1835H233.144C233.41 74.9713 234.208 73.8478 236.426 73.8478C238.407 73.8478 239.324 74.7348 239.324 75.8287C239.324 76.8931 238.644 77.6026 236.544 77.6026H234.504V80.1157H236.988C239.028 80.1157 239.797 80.8845 239.797 81.8897C239.797 82.9541 239.117 83.9002 236.455 83.9002C234.208 83.9002 233.203 82.9541 232.848 81.4166H229.773C230.068 84.4619 232.138 86.5611 236.455 86.5611Z" fill="white"/>
<path d="M245.881 86.2654H252.948C257 86.2654 258.301 84.1367 258.301 82.1262C258.301 80.1453 256.97 79.0218 254.811 78.667C256.704 78.1644 257.65 76.8635 257.65 75.3261C257.65 72.8721 255.846 71.4825 252.564 71.4825H245.881V86.2654ZM252.416 77.6322H248.779V73.9956H252.416C253.954 73.9956 254.604 74.7939 254.604 75.8287C254.604 76.8339 253.954 77.6322 252.416 77.6322ZM252.623 79.9975C254.545 79.9975 255.196 80.8845 255.196 81.8306C255.196 82.8949 254.545 83.7523 252.771 83.7523H248.779V79.9975H252.623Z" fill="white"/>
<path d="M261.157 86.2654H264.114L271.359 75.74V86.2654H274.316V71.4825H271.359L264.114 82.008V71.4825H261.157V86.2654Z" fill="white"/>
<path d="M278.05 86.2654H285.117C289.168 86.2654 290.469 84.1367 290.469 82.1262C290.469 80.1453 289.139 79.0218 286.98 78.667C288.873 78.1644 289.819 76.8635 289.819 75.3261C289.819 72.8721 288.015 71.4825 284.733 71.4825H278.05V86.2654ZM284.585 77.6322H280.948V73.9956H284.585C286.123 73.9956 286.773 74.7939 286.773 75.8287C286.773 76.8339 286.123 77.6322 284.585 77.6322ZM284.792 79.9975C286.714 79.9975 287.365 80.8845 287.365 81.8306C287.365 82.8949 286.714 83.7523 284.94 83.7523H280.948V79.9975H284.792Z" fill="white"/>
<path d="M302.611 77.0113V77.2479C295.839 77.2479 292.735 79.0514 292.735 82.4219C292.735 85.0828 294.479 86.5611 297.259 86.5611C300.304 86.5611 301.872 84.8758 302.611 82.7175V86.2654H305.568V77.307C305.568 73.1973 303.409 71.1869 299.417 71.1869C295.751 71.1869 293.444 72.9904 292.971 76.42H295.928C296.165 74.8826 297.347 73.8478 299.417 73.8478C301.428 73.8478 302.611 74.8826 302.611 77.0113ZM295.839 82.274C295.839 80.5001 297.732 79.3766 302.611 79.3766C302.611 81.9193 300.984 84.0184 297.939 84.0184C296.638 84.0184 295.839 83.3975 295.839 82.274Z" fill="white"/>
<path d="M312.824 86.2654H315.781V74.1434H320.926V71.4825H307.679V74.1434H312.824V86.2654Z" fill="white"/>
<path d="M323.473 86.2654H329.949C333.941 86.2654 335.715 83.6932 335.715 81.1505C335.715 78.5783 333.941 76.1243 329.949 76.1243H326.43V71.4825H323.473V86.2654ZM329.86 78.7261C331.812 78.7261 332.61 79.9088 332.61 81.1505C332.61 82.5401 331.812 83.6341 330.008 83.6341H326.43V78.7261H329.86Z" fill="white"/>
<path d="M351.988 83.9002C349.327 83.9002 347.464 81.9193 347.464 78.874C347.464 75.8583 349.268 73.8478 351.988 73.8478C354.177 73.8478 355.448 74.9121 356.01 76.8044H358.967C358.405 73.3452 355.892 71.1869 351.988 71.1869C347.464 71.1869 344.359 74.6165 344.359 78.874C344.359 83.161 347.464 86.5611 352.048 86.5611C355.803 86.5611 358.376 84.5506 359.085 80.7958H356.128C355.596 82.8654 354.177 83.9002 351.988 83.9002Z" fill="white"/>
<path d="M361.937 86.2654H369.005C373.056 86.2654 374.357 84.1367 374.357 82.1262C374.357 80.1453 373.026 79.0218 370.867 78.667C372.76 78.1644 373.706 76.8635 373.706 75.3261C373.706 72.8721 371.902 71.4825 368.62 71.4825H361.937V86.2654ZM368.472 77.6322H364.835V73.9956H368.472C370.01 73.9956 370.66 74.7939 370.66 75.8287C370.66 76.8339 370.01 77.6322 368.472 77.6322ZM368.679 79.9975C370.601 79.9975 371.252 80.8845 371.252 81.8306C371.252 82.8949 370.601 83.7523 368.827 83.7523H364.835V79.9975H368.679Z" fill="white"/>
<path d="M384.018 86.5611C388.601 86.5611 391.854 83.161 391.854 78.874C391.854 74.5869 388.601 71.1869 384.018 71.1869C379.434 71.1869 376.182 74.5869 376.182 78.874C376.182 83.161 379.434 86.5611 384.018 86.5611ZM384.018 83.9002C381.209 83.9002 379.287 81.6827 379.287 78.874C379.287 76.0652 381.209 73.8478 384.018 73.8478C386.827 73.8478 388.749 76.0652 388.749 78.874C388.749 81.6827 386.827 83.9002 384.018 83.9002Z" fill="white"/>
<path d="M394.684 86.2654H397.641L404.885 75.74V86.2654H407.842V71.4825H404.885L397.641 82.008V71.4825H394.684V86.2654Z" fill="white"/>
<path d="M1.12108 118.519H4.07807V112.31H11.027V118.519H13.984V103.736H11.027V109.649H4.07807V103.736H1.12108V118.519Z" fill="white"/>
<path d="M26.9813 109.265V109.502C20.2098 109.502 17.105 111.305 17.105 114.676C17.105 117.336 18.8496 118.815 21.6292 118.815C24.6749 118.815 26.2421 117.13 26.9813 114.971V118.519H29.9383V109.561C29.9383 105.451 27.7797 103.441 23.7878 103.441C20.1211 103.441 17.8147 105.244 17.3416 108.674H20.2985C20.5351 107.136 21.7179 106.101 23.7878 106.101C25.7985 106.101 26.9813 107.136 26.9813 109.265ZM20.2098 114.528C20.2098 112.754 22.1023 111.63 26.9813 111.63C26.9813 114.173 25.355 116.272 22.3093 116.272C21.0082 116.272 20.2098 115.651 20.2098 114.528Z" fill="white"/>
<path d="M33.5209 118.519H40.5881C44.6392 118.519 45.9403 116.39 45.9403 114.38C45.9403 112.399 44.6096 111.275 42.451 110.921C44.3435 110.418 45.2897 109.117 45.2897 107.58C45.2897 105.126 43.486 103.736 40.2037 103.736H33.5209V118.519ZM40.0559 109.886H36.4188V106.249H40.0559C41.5935 106.249 42.244 107.048 42.244 108.082C42.244 109.088 41.5935 109.886 40.0559 109.886ZM40.2628 112.251C42.1849 112.251 42.8354 113.138 42.8354 114.084C42.8354 115.149 42.1849 116.006 40.4107 116.006H36.4188V112.251H40.2628Z" fill="white"/>
<path d="M48.7968 118.519H55.2726C59.2645 118.519 61.0387 115.947 61.0387 113.404C61.0387 110.832 59.2645 108.378 55.2726 108.378H51.7537V103.736H48.7968V118.519ZM63.0199 118.519H65.9769V103.736H63.0199V118.519ZM55.1839 110.98C57.1355 110.98 57.9339 112.162 57.9339 113.404C57.9339 114.794 57.1355 115.888 55.3317 115.888H51.7537V110.98H55.1839Z" fill="white"/>
<path d="M69.7036 118.519H72.6606V111.571L79.2547 118.519H83.2466L75.8246 110.773L82.6848 103.736H79.1364L72.6606 110.388V103.736H69.7036V118.519Z" fill="white"/>
<path d="M84.8928 118.519H87.8498L95.0944 107.994V118.519H98.0514V103.736H95.0944L87.8498 114.262V103.736H84.8928V118.519Z" fill="white"/>
<path d="M102.141 121.18H103.737L105.009 118.401C105.452 117.425 105.571 116.923 105.571 116.568C105.571 115.356 104.595 114.469 103.383 114.469C102.141 114.469 101.194 115.356 101.194 116.568C101.194 117.336 101.52 118.076 102.643 118.578L102.141 121.18Z" fill="white"/>
<path d="M122.446 119.288L128.715 103.736H125.847L121.5 114.764L117.094 103.736H113.93L119.903 118.578C118.957 121.21 118.366 121.771 115.261 121.771V124.432C119.696 124.432 120.85 123.279 122.446 119.288Z" fill="white"/>
<path d="M130.663 118.519H133.62V106.397H140.657V103.736H130.663V118.519Z" fill="white"/>
<path d="M149.393 118.815C153.977 118.815 157.229 115.415 157.229 111.128C157.229 106.841 153.977 103.441 149.393 103.441C144.81 103.441 141.557 106.841 141.557 111.128C141.557 115.415 144.81 118.815 149.393 118.815ZM149.393 116.154C146.584 116.154 144.662 113.936 144.662 111.128C144.662 108.319 146.584 106.101 149.393 106.101C152.202 106.101 154.124 108.319 154.124 111.128C154.124 113.936 152.202 116.154 149.393 116.154Z" fill="white"/>
<path d="M160.059 118.519H179.428V121.771H182.237V115.858H180.167V103.736H177.21V115.799H171.592V103.736H168.635V115.799H163.016V103.736H160.059V118.519Z" fill="white"/>
<path d="M193.774 109.265V109.502C187.003 109.502 183.898 111.305 183.898 114.676C183.898 117.336 185.642 118.815 188.422 118.815C191.468 118.815 193.035 117.13 193.774 114.971V118.519H196.731V109.561C196.731 105.451 194.572 103.441 190.58 103.441C186.914 103.441 184.607 105.244 184.134 108.674H187.091C187.328 107.136 188.511 106.101 190.58 106.101C192.591 106.101 193.774 107.136 193.774 109.265ZM187.003 114.528C187.003 112.754 188.895 111.63 193.774 111.63C193.774 114.173 192.148 116.272 189.102 116.272C187.801 116.272 187.003 115.651 187.003 114.528Z" fill="white"/>
<path d="M203.987 118.519H206.944V106.397H212.089V103.736H198.842V106.397H203.987V118.519Z" fill="white"/>
<path d="M214.637 118.519H221.112C225.104 118.519 226.878 115.947 226.878 113.404C226.878 110.832 225.104 108.378 221.112 108.378H217.593V103.736H214.637V118.519ZM221.024 110.98C222.975 110.98 223.774 112.162 223.774 113.404C223.774 114.794 222.975 115.888 221.171 115.888H217.593V110.98H221.024Z" fill="white"/>
<path d="M236.41 118.519H239.367V106.397H246.404V103.736H236.41V118.519Z" fill="white"/>
<path d="M255.14 118.815C259.724 118.815 262.976 115.415 262.976 111.128C262.976 106.841 259.724 103.441 255.14 103.441C250.557 103.441 247.304 106.841 247.304 111.128C247.304 115.415 250.557 118.815 255.14 118.815ZM255.14 116.154C252.331 116.154 250.409 113.936 250.409 111.128C250.409 108.319 252.331 106.101 255.14 106.101C257.949 106.101 259.872 108.319 259.872 111.128C259.872 113.936 257.949 116.154 255.14 116.154Z" fill="white"/>
<path d="M272.548 116.154C269.887 116.154 268.024 114.173 268.024 111.128C268.024 108.112 269.828 106.101 272.548 106.101C274.736 106.101 276.008 107.166 276.57 109.058H279.527C278.965 105.599 276.451 103.441 272.548 103.441C268.024 103.441 264.919 106.87 264.919 111.128C264.919 115.415 268.024 118.815 272.607 118.815C276.363 118.815 278.935 116.804 279.645 113.049H276.688C276.156 115.119 274.736 116.154 272.548 116.154Z" fill="white"/>
<path d="M286.171 118.519H289.128V106.397H294.273V103.736H281.026V106.397H286.171V118.519Z" fill="white"/>
<path d="M303.044 116.243C300.323 116.243 298.608 114.35 298.401 111.66H310.643C310.702 111.364 310.732 111.039 310.732 110.743C310.732 106.693 307.597 103.441 303.044 103.441C298.49 103.441 295.355 106.811 295.355 111.128C295.355 115.592 298.49 118.815 303.044 118.815C306.858 118.815 309.312 117.07 310.17 113.936H307.331C306.74 115.296 305.439 116.243 303.044 116.243ZM303.044 106.013C305.439 106.013 307.035 107.491 307.568 109.59H298.549C299.111 107.432 300.796 106.013 303.044 106.013Z" fill="white"/>
<path d="M315.638 97.823C315.638 100.307 317.265 101.962 320.163 101.962C323.061 101.962 324.687 100.307 324.687 97.823H322.055C322.055 99.2126 321.345 99.863 320.163 99.863C318.98 99.863 318.27 99.2126 318.27 97.823H315.638ZM313.569 118.519H316.526L323.77 107.994V118.519H326.727V103.736H323.77L316.526 114.262V103.736H313.569V118.519Z" fill="white"/>
<path d="M337.45 118.519H344.517C348.568 118.519 349.869 116.39 349.869 114.38C349.869 112.399 348.538 111.275 346.38 110.921C348.272 110.418 349.219 109.117 349.219 107.58C349.219 105.126 347.415 103.736 344.133 103.736H337.45V118.519ZM343.985 109.886H340.348V106.249H343.985C345.522 106.249 346.173 107.048 346.173 108.082C346.173 109.088 345.522 109.886 343.985 109.886ZM344.192 112.251C346.114 112.251 346.764 113.138 346.764 114.084C346.764 115.149 346.114 116.006 344.34 116.006H340.348V112.251H344.192Z" fill="white"/>
<path d="M352.726 118.519H355.683V111.571L362.277 118.519H366.269L358.847 110.773L365.707 103.736H362.158L355.683 110.388V103.736H352.726V118.519Z" fill="white"/>
<path d="M374.368 119.288L380.637 103.736H377.769L373.422 114.764L369.016 103.736H365.852L371.825 118.578C370.879 121.21 370.287 121.771 367.182 121.771V124.432C371.618 124.432 372.771 123.279 374.368 119.288Z" fill="white"/>
<path d="M388.893 116.154C386.232 116.154 384.369 114.173 384.369 111.128C384.369 108.112 386.173 106.101 388.893 106.101C391.081 106.101 392.353 107.166 392.915 109.058H395.872C395.31 105.599 392.796 103.441 388.893 103.441C384.369 103.441 381.264 106.87 381.264 111.128C381.264 115.415 384.369 118.815 388.952 118.815C392.708 118.815 395.28 116.804 395.99 113.049H393.033C392.501 115.119 391.081 116.154 388.893 116.154Z" fill="white"/>
<path d="M398.842 118.519H401.799V112.31H408.748V118.519H411.705V103.736H408.748V109.649H401.799V103.736H398.842V118.519Z" fill="white"/>
<path d="M415.417 118.519H421.893C425.885 118.519 427.659 115.947 427.659 113.404C427.659 110.832 425.885 108.378 421.893 108.378H418.374V103.736H415.417V118.519ZM429.64 118.519H432.597V103.736H429.64V118.519ZM421.804 110.98C423.756 110.98 424.554 112.162 424.554 113.404C424.554 114.794 423.756 115.888 421.952 115.888H418.374V110.98H421.804Z" fill="white"/>
<path d="M436.324 118.519H439.133V107.225L443.687 118.519H446.053L450.606 107.225V118.519H453.563V103.736H449.394L445.018 114.646L440.612 103.736H436.324V118.519Z" fill="white"/>
<path d="M457.289 118.519H460.246L467.49 107.994V118.519H470.447V103.736H467.49L460.246 114.262V103.736H457.289V118.519Z" fill="white"/>
<path d="M8.18829 151.068C12.8899 151.068 16.0243 147.787 16.0243 143.677C16.0243 139.626 13.4517 136.315 9.2528 136.315C6.47323 136.315 4.19635 137.912 3.22055 140.218C3.33883 135.812 4.6399 133.95 9.66678 133.299C12.7125 132.915 14.7824 132.294 15.2555 129.485H12.4759C12.2689 130.224 11.2044 130.461 9.19367 130.698C2.98399 131.437 0.381836 134.512 0.381836 141.666C0.381836 144.209 0.707105 146.22 1.68291 147.727C2.83614 149.561 5.17216 151.068 8.18829 151.068ZM8.18829 148.407C5.43829 148.407 3.48667 146.456 3.48667 143.677C3.48667 140.957 5.43829 138.976 8.18829 138.976C10.9679 138.976 12.9195 140.957 12.9195 143.677C12.9195 146.456 10.9679 148.407 8.18829 148.407Z" fill="white"/>
<path d="M19.5792 143.381C19.52 147.047 19.106 148.112 16.9179 148.112V151.068C20.969 151.068 22.2109 149.058 22.3587 143.44L22.477 138.651H27.8587V150.773H30.8157V135.99H19.727L19.5792 143.381Z" fill="white"/>
<path d="M34.5316 150.773H37.4886V144.475H39.9133C40.416 148.23 43.373 151.068 47.3945 151.068C51.8004 151.068 54.9348 147.668 54.9348 143.381C54.9348 139.094 51.8004 135.694 47.3945 135.694C43.5504 135.694 40.6526 138.296 40.002 141.814H37.4886V135.99H34.5316V150.773ZM47.3945 148.407C44.7628 148.407 42.959 146.19 42.959 143.381C42.959 140.573 44.7628 138.355 47.3945 138.355C50.0262 138.355 51.83 140.573 51.83 143.381C51.83 146.19 50.0262 148.407 47.3945 148.407Z" fill="white"/>
<path d="M56.1581 154.025H58.9672V150.773H69.7898V154.025H72.5989V148.112H70.529V135.99H59.2037V137.675C59.2037 144.061 58.6123 146.663 57.9914 148.112H56.1581V154.025ZM60.9188 148.112C61.4511 146.752 61.9242 144.653 61.9833 138.651H67.572V148.112H60.9188Z" fill="white"/>
<path d="M84.1286 141.519V141.755C77.3571 141.755 74.2523 143.559 74.2523 146.929C74.2523 149.59 75.9969 151.068 78.7765 151.068C81.8222 151.068 83.3894 149.383 84.1286 147.225V150.773H87.0856V141.814C87.0856 137.705 84.927 135.694 80.9351 135.694C77.2684 135.694 74.962 137.498 74.4888 140.927H77.4458C77.6824 139.39 78.8652 138.355 80.9351 138.355C82.9458 138.355 84.1286 139.39 84.1286 141.519ZM77.3571 146.781C77.3571 145.007 79.2496 143.884 84.1286 143.884C84.1286 146.427 82.5023 148.526 79.4566 148.526C78.1555 148.526 77.3571 147.905 77.3571 146.781Z" fill="white"/>
<path d="M90.6682 150.773H93.4773V139.479L98.0311 150.773H100.397L104.95 139.479V150.773H107.907V135.99H103.738L99.3617 146.9L94.9558 135.99H90.6682V150.773Z" fill="white"/>
<path d="M111.633 150.773H114.59L121.834 140.247V150.773H124.791V135.99H121.834L114.59 146.515V135.99H111.633V150.773Z" fill="white"/>
<path d="M128.881 153.434H130.477L131.749 150.654C132.192 149.679 132.311 149.176 132.311 148.821C132.311 147.609 131.335 146.722 130.123 146.722C128.881 146.722 127.934 147.609 127.934 148.821C127.934 149.59 128.26 150.329 129.383 150.832L128.881 153.434Z" fill="white"/>
<path d="M149.186 151.541L155.455 135.99H152.587L148.24 147.018L143.834 135.99H140.67L146.643 150.832C145.697 153.463 145.106 154.025 142.001 154.025V156.686C146.436 156.686 147.59 155.533 149.186 151.541Z" fill="white"/>
<path d="M162.762 151.068C167.315 151.068 169.208 148.881 169.208 146.486C169.208 144.83 168.025 143.5 166.133 143.086C167.818 142.642 168.735 141.371 168.735 139.863C168.735 137.616 166.931 135.694 162.791 135.694C159.036 135.694 156.67 137.646 156.375 140.691H159.45C159.716 139.479 160.514 138.355 162.732 138.355C164.713 138.355 165.63 139.242 165.63 140.336C165.63 141.4 164.95 142.11 162.85 142.11H160.81V144.623H163.294C165.334 144.623 166.103 145.392 166.103 146.397C166.103 147.461 165.423 148.407 162.762 148.407C160.514 148.407 159.509 147.461 159.154 145.924H156.079C156.375 148.969 158.444 151.068 162.762 151.068Z" fill="white"/>
<path d="M172.188 150.773H175.145V144.564H182.093V150.773H185.05V135.99H182.093V141.903H175.145V135.99H172.188V150.773Z" fill="white"/>
<path d="M198.048 141.519V141.755C191.276 141.755 188.171 143.559 188.171 146.929C188.171 149.59 189.916 151.068 192.696 151.068C195.741 151.068 197.309 149.383 198.048 147.225V150.773H201.005V141.814C201.005 137.705 198.846 135.694 194.854 135.694C191.188 135.694 188.881 137.498 188.408 140.927H191.365C191.602 139.39 192.784 138.355 194.854 138.355C196.865 138.355 198.048 139.39 198.048 141.519ZM191.276 146.781C191.276 145.007 193.169 143.884 198.048 143.884C198.048 146.427 196.421 148.526 193.376 148.526C192.075 148.526 191.276 147.905 191.276 146.781Z" fill="white"/>
<path d="M204.587 150.773H211.655C215.706 150.773 217.007 148.644 217.007 146.634C217.007 144.653 215.676 143.529 213.517 143.174C215.41 142.672 216.356 141.371 216.356 139.833C216.356 137.379 214.552 135.99 211.27 135.99H204.587V150.773ZM211.122 142.14H207.485V138.503H211.122C212.66 138.503 213.31 139.301 213.31 140.336C213.31 141.341 212.66 142.14 211.122 142.14ZM211.329 144.505C213.251 144.505 213.902 145.392 213.902 146.338C213.902 147.402 213.251 148.26 211.477 148.26H207.485V144.505H211.329Z" fill="white"/>
<path d="M229.148 141.519V141.755C222.377 141.755 219.272 143.559 219.272 146.929C219.272 149.59 221.016 151.068 223.796 151.068C226.842 151.068 228.409 149.383 229.148 147.225V150.773H232.105V141.814C232.105 137.705 229.947 135.694 225.955 135.694C222.288 135.694 219.981 137.498 219.508 140.927H222.465C222.702 139.39 223.885 138.355 225.955 138.355C227.965 138.355 229.148 139.39 229.148 141.519ZM222.377 146.781C222.377 145.007 224.269 143.884 229.148 143.884C229.148 146.427 227.522 148.526 224.476 148.526C223.175 148.526 222.377 147.905 222.377 146.781Z" fill="white"/>
<path d="M239.361 150.773H242.318V138.651H247.463V135.99H234.216V138.651H239.361V150.773Z" fill="white"/>
<path d="M250.011 150.773H256.486C260.478 150.773 262.253 148.201 262.253 145.658C262.253 143.086 260.478 140.632 256.486 140.632H252.968V135.99H250.011V150.773ZM256.398 143.233C258.349 143.233 259.148 144.416 259.148 145.658C259.148 147.047 258.349 148.141 256.546 148.141H252.968V143.233H256.398Z" fill="white"/>
<path d="M271.784 150.773H274.741V144.564H281.69V150.773H284.647V135.99H281.69V141.903H274.741V135.99H271.784V150.773Z" fill="white"/>
<path d="M295.308 151.068C299.891 151.068 303.144 147.668 303.144 143.381C303.144 139.094 299.891 135.694 295.308 135.694C290.725 135.694 287.472 139.094 287.472 143.381C287.472 147.668 290.725 151.068 295.308 151.068ZM295.308 148.407C292.499 148.407 290.577 146.19 290.577 143.381C290.577 140.573 292.499 138.355 295.308 138.355C298.117 138.355 300.039 140.573 300.039 143.381C300.039 146.19 298.117 148.407 295.308 148.407Z" fill="white"/>
<path d="M305.974 150.773H313.041C317.092 150.773 318.393 148.644 318.393 146.634C318.393 144.653 317.063 143.529 314.904 143.174C316.797 142.672 317.743 141.371 317.743 139.833C317.743 137.379 315.939 135.99 312.657 135.99H305.974V150.773ZM312.509 142.14H308.872V138.503H312.509C314.047 138.503 314.697 139.301 314.697 140.336C314.697 141.341 314.047 142.14 312.509 142.14ZM312.716 144.505C314.638 144.505 315.288 145.392 315.288 146.338C315.288 147.402 314.638 148.26 312.864 148.26H308.872V144.505H312.716Z" fill="white"/>
<path d="M328.054 151.068C332.638 151.068 335.89 147.668 335.89 143.381C335.89 139.094 332.638 135.694 328.054 135.694C323.471 135.694 320.218 139.094 320.218 143.381C320.218 147.668 323.471 151.068 328.054 151.068ZM328.054 148.407C325.245 148.407 323.323 146.19 323.323 143.381C323.323 140.573 325.245 138.355 328.054 138.355C330.864 138.355 332.786 140.573 332.786 143.381C332.786 146.19 330.864 148.407 328.054 148.407Z" fill="white"/>
<path d="M345.521 148.496C342.801 148.496 341.086 146.604 340.879 143.913H353.121C353.18 143.618 353.21 143.293 353.21 142.997C353.21 138.946 350.075 135.694 345.521 135.694C340.968 135.694 337.833 139.065 337.833 143.381C337.833 147.846 340.968 151.068 345.521 151.068C349.336 151.068 351.79 149.324 352.648 146.19H349.809C349.218 147.55 347.917 148.496 345.521 148.496ZM345.521 138.266C347.917 138.266 349.513 139.745 350.046 141.844H341.027C341.589 139.686 343.274 138.266 345.521 138.266Z" fill="white"/>
<path d="M1.12108 183.026H4.07807L11.3227 172.501V183.026H14.2797V168.243H11.3227L4.07807 178.769V168.243H1.12108V183.026Z" fill="white"/>
<path d="M25.0022 183.026H27.9592V170.904H34.6124V183.026H37.5694V168.243H25.0022V183.026Z" fill="white"/>
<path d="M48.2377 183.322C52.821 183.322 56.0737 179.922 56.0737 175.635C56.0737 171.348 52.821 167.948 48.2377 167.948C43.6544 167.948 40.4017 171.348 40.4017 175.635C40.4017 179.922 43.6544 183.322 48.2377 183.322ZM48.2377 180.661C45.4286 180.661 43.5065 178.444 43.5065 175.635C43.5065 172.826 45.4286 170.609 48.2377 170.609C51.0468 170.609 52.9689 172.826 52.9689 175.635C52.9689 178.444 51.0468 180.661 48.2377 180.661Z" fill="white"/>
<path d="M58.9037 183.026H65.9709C70.0219 183.026 71.323 180.898 71.323 178.887C71.323 176.906 69.9924 175.783 67.8338 175.428C69.7262 174.925 70.6725 173.624 70.6725 172.087C70.6725 169.633 68.8687 168.243 65.5865 168.243H58.9037V183.026ZM65.4386 174.393H61.8015V170.757H65.4386C66.9762 170.757 67.6268 171.555 67.6268 172.59C67.6268 173.595 66.9762 174.393 65.4386 174.393ZM65.6456 176.758C67.5676 176.758 68.2182 177.645 68.2182 178.592C68.2182 179.656 67.5676 180.513 65.7934 180.513H61.8015V176.758H65.6456Z" fill="white"/>
<path d="M74.1795 183.026H80.6553C84.6473 183.026 86.4215 180.454 86.4215 177.912C86.4215 175.339 84.6473 172.885 80.6553 172.885H77.1365V168.243H74.1795V183.026ZM88.4026 183.026H91.3596V168.243H88.4026V183.026ZM80.5666 175.487C82.5182 175.487 83.3166 176.67 83.3166 177.912C83.3166 179.301 82.5182 180.395 80.7145 180.395H77.1365V175.487H80.5666Z" fill="white"/>
<path d="M95.0863 183.026H115.194V168.243H112.237V180.306H106.619V168.243H103.662V180.306H98.0433V168.243H95.0863V183.026Z" fill="white"/>
<path d="M128.195 173.772V174.009C121.423 174.009 118.318 175.812 118.318 179.183C118.318 181.844 120.063 183.322 122.843 183.322C125.888 183.322 127.455 181.637 128.195 179.479V183.026H131.152V174.068C131.152 169.958 128.993 167.948 125.001 167.948C121.334 167.948 119.028 169.751 118.555 173.181H121.512C121.748 171.644 122.931 170.609 125.001 170.609C127.012 170.609 128.195 171.644 128.195 173.772ZM121.423 179.035C121.423 177.261 123.316 176.138 128.195 176.138C128.195 178.68 126.568 180.779 123.523 180.779C122.222 180.779 121.423 180.159 121.423 179.035Z" fill="white"/>
<path d="M138.408 183.026H141.365V170.904H146.51V168.243H133.263V170.904H138.408V183.026Z" fill="white"/>
<path d="M149.057 183.026H155.533C159.525 183.026 161.299 180.454 161.299 177.912C161.299 175.339 159.525 172.885 155.533 172.885H152.014V168.243H149.057V183.026ZM155.444 175.487C157.396 175.487 158.194 176.67 158.194 177.912C158.194 179.301 157.396 180.395 155.592 180.395H152.014V175.487H155.444Z" fill="white"/>
<path d="M177.188 180.72C174.881 180.72 173.373 179.715 172.841 177.705H169.943C170.594 181.43 173.196 183.322 177.129 183.322C181.919 183.322 184.669 179.922 184.669 175.635C184.669 171.377 181.919 167.948 177.188 167.948C173.107 167.948 170.653 170.047 170.062 173.418H172.959C173.521 171.584 174.881 170.55 177.188 170.55C179.583 170.55 181.15 171.969 181.594 174.245H175.325V176.758H181.623C181.268 179.183 179.642 180.72 177.188 180.72Z" fill="white"/>
<path d="M187.521 183.026H190.478V176.078L197.072 183.026H201.064L193.642 175.28L200.502 168.243H196.954L190.478 174.896V168.243H187.521V183.026Z" fill="white"/>
<path d="M209.019 180.661C206.358 180.661 204.495 178.68 204.495 175.635C204.495 172.619 206.299 170.609 209.019 170.609C211.207 170.609 212.479 171.673 213.041 173.565H215.998C215.436 170.106 212.922 167.948 209.019 167.948C204.495 167.948 201.39 171.377 201.39 175.635C201.39 179.922 204.495 183.322 209.078 183.322C212.834 183.322 215.406 181.312 216.116 177.557H213.159C212.627 179.626 211.207 180.661 209.019 180.661Z" fill="white"/>
<path d="M218.968 183.026H221.925V170.904H228.578V183.026H231.535V168.243H218.968V183.026Z" fill="white"/>
<path d="M242.056 180.75C239.335 180.75 237.62 178.858 237.413 176.167H249.655C249.714 175.871 249.744 175.546 249.744 175.251C249.744 171.2 246.609 167.948 242.056 167.948C237.502 167.948 234.367 171.318 234.367 175.635C234.367 180.099 237.502 183.322 242.056 183.322C245.87 183.322 248.324 181.578 249.182 178.444H246.343C245.752 179.804 244.451 180.75 242.056 180.75ZM242.056 170.52C244.451 170.52 246.048 171.998 246.58 174.098H237.561C238.123 171.939 239.808 170.52 242.056 170.52Z" fill="white"/>
<path d="M255.538 168.243H252.581V188.94H255.538V179.715C256.602 181.903 258.613 183.322 261.304 183.322C265.414 183.322 268.105 179.922 268.105 175.635C268.105 171.348 265.355 167.948 261.304 167.948C258.613 167.948 256.602 169.367 255.538 171.555V168.243ZM260.269 170.609C263.048 170.609 265 172.56 265 175.635C265 178.71 263.048 180.661 260.269 180.661C257.608 180.661 255.538 178.621 255.538 175.635C255.538 172.678 257.608 170.609 260.269 170.609Z" fill="white"/>
<path d="M274.331 183.026H277.288V170.904H282.433V168.243H269.186V170.904H274.331V183.026Z" fill="white"/>
<path d="M284.98 183.026H287.938L295.182 172.501V183.026H298.139V168.243H295.182L287.938 178.769V168.243H284.98V183.026Z" fill="white"/>
<path d="M307.521 183.322C312.075 183.322 313.968 181.134 313.968 178.739C313.968 177.084 312.785 175.753 310.892 175.339C312.578 174.896 313.494 173.624 313.494 172.117C313.494 169.87 311.691 167.948 307.551 167.948C303.796 167.948 301.43 169.899 301.134 172.944H304.209C304.476 171.732 305.274 170.609 307.492 170.609C309.473 170.609 310.39 171.496 310.39 172.59C310.39 173.654 309.71 174.364 307.61 174.364H305.57V176.877H308.054C310.094 176.877 310.863 177.645 310.863 178.651C310.863 179.715 310.183 180.661 307.521 180.661C305.274 180.661 304.269 179.715 303.914 178.178H300.839C301.134 181.223 303.204 183.322 307.521 183.322Z" fill="white"/>
<path d="M323.4 183.795L329.669 168.243H326.801L322.454 179.272L318.048 168.243H314.884L320.857 183.086C319.911 185.717 319.32 186.279 316.215 186.279V188.94C320.65 188.94 321.804 187.787 323.4 183.795Z" fill="white"/>
<path d="M331.741 183.322C332.953 183.322 333.929 182.346 333.929 181.075C333.929 179.892 332.953 178.976 331.741 178.976C330.499 178.976 329.552 179.892 329.552 181.075C329.552 182.346 330.499 183.322 331.741 183.322Z" fill="white"/>
</g>
</svg>
