<svg width="403" height="124" viewBox="0 0 403 124" fill="none" xmlns="http://www.w3.org/2000/svg">
<g id="&#208;&#151;&#208;&#180;&#208;&#181;&#209;&#129;&#209;&#140; &#208;&#186;&#208;&#176;&#208;&#182;&#208;&#180;&#209;&#139;&#208;&#185; &#209;&#129;&#208;&#188;&#208;&#190;&#208;&#182;&#208;&#181;&#209;&#130; &#208;&#189;&#208;&#176;&#208;&#185;&#209;&#130;&#208;&#184; &#208;&#180;&#208;&#181;&#208;&#187;&#208;&#190; &#208;&#191;&#208;&#190;&#194;&#160;&#208;&#180;&#209;&#131;&#209;&#136;&#208;&#181;, &#208;&#189;&#208;&#176;&#209;&#131;&#209;&#135;&#208;&#184;&#209;&#130;&#209;&#140;&#209;&#129;&#209;&#143; &#208;&#189;&#208;&#190;&#208;&#178;&#208;&#190;&#208;&#188;&#209;&#131; &#208;&#184;&#194;&#160;&#209;&#128;&#208;&#176;&#208;&#183;&#208;&#178;&#208;&#184;&#209;&#130;&#209;&#140; &#209;&#129;&#208;&#178;&#208;&#190;&#208;&#184; &#208;&#191;&#209;&#128;&#208;&#190;&#209;&#132;&#208;&#181;&#209;&#129;&#209;&#129;&#208;&#184;&#208;&#190;&#208;&#189;&#208;&#176;&#208;&#187;&#209;&#140;&#208;&#189;&#209;&#139;&#208;&#181; &#208;&#189;&#208;&#176;&#208;&#178;&#209;&#139;&#208;&#186;&#208;&#184;.">
<path d="M9.54321 21.5618C14.9841 21.5618 17.3792 18.6644 17.3792 15.5008C17.3792 13.106 15.7233 11.1546 13.0916 10.5633C15.1024 9.88332 16.5809 7.9911 16.5809 5.7441C16.5809 2.81708 14.2448 0.274414 9.33623 0.274414C4.69375 0.274414 1.73676 2.78751 1.44106 6.57194H4.66418C5.16687 4.59103 6.46795 3.08317 9.27709 3.08317C12.0567 3.08317 13.3282 4.41363 13.3282 6.01019C13.3282 8.05023 12.2045 9.43983 9.39537 9.43983H6.6158V12.2486H9.54321C12.8846 12.2486 14.1265 13.6086 14.1265 15.4121C14.1265 17.1861 12.5889 18.7531 9.54321 18.7531C6.34967 18.7531 4.72332 17.3043 4.36848 14.9391H1.14537C1.38193 18.7826 4.13193 21.5618 9.54321 21.5618Z" fill="white"/>
<path d="M18.6653 24.5184H21.4744V21.2662H32.297V24.5184H35.1062V18.6052H33.0363V6.48324H21.711V8.1685C21.711 14.5547 21.1196 17.1565 20.4986 18.6052H18.6653V24.5184ZM23.426 18.6052C23.9583 17.2452 24.4314 15.146 24.4906 9.14417H30.0793V18.6052H23.426Z" fill="white"/>
<path d="M44.2964 18.9896C41.576 18.9896 39.8609 17.0974 39.6539 14.4069H51.8958C51.955 14.1112 51.9846 13.786 51.9846 13.4903C51.9846 9.43983 48.8501 6.18758 44.2964 6.18758C39.7426 6.18758 36.6082 9.55809 36.6082 13.8747C36.6082 18.3391 39.7426 21.5618 44.2964 21.5618C48.1109 21.5618 50.5652 19.8174 51.4227 16.6835H48.584C47.9926 18.0435 46.6915 18.9896 44.2964 18.9896ZM44.2964 8.75981C46.6915 8.75981 48.2883 10.2381 48.8206 12.3373H39.8018C40.3636 10.179 42.0491 8.75981 44.2964 8.75981Z" fill="white"/>
<path d="M61.5634 18.9009C58.9021 18.9009 57.0392 16.92 57.0392 13.8747C57.0392 10.859 58.8429 8.84851 61.5634 8.84851C63.7515 8.84851 65.023 9.91288 65.5849 11.8051H68.5418C67.98 8.34589 65.4666 6.18758 61.5634 6.18758C57.0392 6.18758 53.9343 9.61722 53.9343 13.8747C53.9343 18.1618 57.0392 21.5618 61.6225 21.5618C65.3779 21.5618 67.9504 19.5513 68.6601 15.7965H65.7031C65.1709 17.8661 63.7515 18.9009 61.5634 18.9009Z" fill="white"/>
<path d="M71.5122 21.2662H77.988C81.98 21.2662 83.7542 18.6939 83.7542 16.1513C83.7542 13.579 81.98 11.1251 77.988 11.1251H74.4692V6.48324H71.5122V21.2662ZM77.8993 13.7269C79.8509 13.7269 80.6493 14.9095 80.6493 16.1513C80.6493 17.5409 79.8509 18.6348 78.0472 18.6348H74.4692V13.7269H77.8993Z" fill="white"/>
<path d="M93.2854 21.2662H96.2424V14.3182L102.836 21.2662H106.828L99.4063 13.5199L106.267 6.48324H102.718L96.2424 13.1356V6.48324H93.2854V21.2662Z" fill="white"/>
<path d="M117.326 12.0121V12.2486C110.555 12.2486 107.45 14.0521 107.45 17.4226C107.45 20.0835 109.195 21.5618 111.974 21.5618C115.02 21.5618 116.587 19.8766 117.326 17.7183V21.2662H120.283V12.3077C120.283 8.19806 118.125 6.18758 114.133 6.18758C110.466 6.18758 108.16 7.9911 107.687 11.4207H110.644C110.88 9.88332 112.063 8.84851 114.133 8.84851C116.144 8.84851 117.326 9.88332 117.326 12.0121ZM110.555 17.2748C110.555 15.5008 112.447 14.3773 117.326 14.3773C117.326 16.92 115.7 19.0192 112.654 19.0192C111.353 19.0192 110.555 18.3983 110.555 17.2748Z" fill="white"/>
<path d="M131.939 21.2662H134.896V14.3478L141.194 21.2662H145.097L138 13.5199L144.535 6.48324H141.076L134.896 13.1356V6.48324H131.939V13.1356L125.758 6.48324H122.151L128.834 13.6677L121.885 21.2662H125.64L131.939 14.3478V21.2662Z" fill="white"/>
<path d="M145.521 24.5184H148.33V21.2662H159.153V24.5184H161.962V18.6052H159.892V6.48324H148.567V8.1685C148.567 14.5547 147.976 17.1565 147.355 18.6052H145.521V24.5184ZM150.282 18.6052C150.814 17.2452 151.287 15.146 151.347 9.14417H156.935V18.6052H150.282Z" fill="white"/>
<path d="M164.351 21.2662H170.827C174.819 21.2662 176.593 18.6939 176.593 16.1513C176.593 13.579 174.819 11.1251 170.827 11.1251H167.308V6.48324H164.351V21.2662ZM178.574 21.2662H181.531V6.48324H178.574V21.2662ZM170.738 13.7269C172.69 13.7269 173.488 14.9095 173.488 16.1513C173.488 17.5409 172.69 18.6348 170.886 18.6348H167.308V13.7269H170.738Z" fill="white"/>
<path d="M187.328 0.570072C187.328 3.0536 188.954 4.70929 191.852 4.70929C194.75 4.70929 196.376 3.0536 196.376 0.570072H193.745C193.745 1.95967 193.035 2.61012 191.852 2.61012C190.669 2.61012 189.96 1.95967 189.96 0.570072H187.328ZM185.258 21.2662H188.215L195.46 10.7407V21.2662H198.417V6.48324H195.46L188.215 17.0087V6.48324H185.258V21.2662Z" fill="white"/>
<path d="M215.881 18.9009C213.22 18.9009 211.357 16.92 211.357 13.8747C211.357 10.859 213.161 8.84851 215.881 8.84851C218.069 8.84851 219.341 9.91288 219.903 11.8051H222.86C222.298 8.34589 219.784 6.18758 215.881 6.18758C211.357 6.18758 208.252 9.61722 208.252 13.8747C208.252 18.1618 211.357 21.5618 215.94 21.5618C219.696 21.5618 222.268 19.5513 222.978 15.7965H220.021C219.489 17.8661 218.069 18.9009 215.881 18.9009Z" fill="white"/>
<path d="M225.83 21.2662H228.639V9.97201L233.193 21.2662H235.559L240.112 9.97201V21.2662H243.069V6.48324H238.9L234.524 17.393L230.118 6.48324H225.83V21.2662Z" fill="white"/>
<path d="M253.744 21.5618C258.327 21.5618 261.58 18.1618 261.58 13.8747C261.58 9.58766 258.327 6.18758 253.744 6.18758C249.16 6.18758 245.908 9.58766 245.908 13.8747C245.908 18.1618 249.16 21.5618 253.744 21.5618ZM253.744 18.9009C250.934 18.9009 249.012 16.6835 249.012 13.8747C249.012 11.0659 250.934 8.84851 253.744 8.84851C256.553 8.84851 258.475 11.0659 258.475 13.8747C258.475 16.6835 256.553 18.9009 253.744 18.9009Z" fill="white"/>
<path d="M271.905 21.2662H274.862V14.3478L281.16 21.2662H285.063L277.966 13.5199L284.501 6.48324H281.042L274.862 13.1356V6.48324H271.905V13.1356L265.725 6.48324H262.117L268.8 13.6677L261.851 21.2662H265.606L271.905 14.3478V21.2662Z" fill="white"/>
<path d="M293.186 18.9896C290.465 18.9896 288.75 17.0974 288.543 14.4069H300.785C300.845 14.1112 300.874 13.786 300.874 13.4903C300.874 9.43983 297.74 6.18758 293.186 6.18758C288.632 6.18758 285.498 9.55809 285.498 13.8747C285.498 18.3391 288.632 21.5618 293.186 21.5618C297 21.5618 299.455 19.8174 300.312 16.6835H297.474C296.882 18.0435 295.581 18.9896 293.186 18.9896ZM293.186 8.75981C295.581 8.75981 297.178 10.2381 297.71 12.3373H288.691C289.253 10.179 290.939 8.75981 293.186 8.75981Z" fill="white"/>
<path d="M307.385 21.2662H310.342V9.14417H315.487V6.48324H302.239V9.14417H307.385V21.2662Z" fill="white"/>
<path d="M325.022 21.2662H327.979V15.0573H334.928V21.2662H337.885V6.48324H334.928V12.3964H327.979V6.48324H325.022V21.2662Z" fill="white"/>
<path d="M350.882 12.0121V12.2486C344.111 12.2486 341.006 14.0521 341.006 17.4226C341.006 20.0835 342.751 21.5618 345.53 21.5618C348.576 21.5618 350.143 19.8766 350.882 17.7183V21.2662H353.839V12.3077C353.839 8.19806 351.681 6.18758 347.689 6.18758C344.022 6.18758 341.716 7.9911 341.243 11.4207H344.2C344.436 9.88332 345.619 8.84851 347.689 8.84851C349.7 8.84851 350.882 9.88332 350.882 12.0121ZM344.111 17.2748C344.111 15.5008 346.003 14.3773 350.882 14.3773C350.882 16.92 349.256 19.0192 346.21 19.0192C344.909 19.0192 344.111 18.3983 344.111 17.2748Z" fill="white"/>
<path d="M359.492 0.570072C359.492 3.0536 361.118 4.70929 364.016 4.70929C366.914 4.70929 368.54 3.0536 368.54 0.570072H365.908C365.908 1.95967 365.199 2.61012 364.016 2.61012C362.833 2.61012 362.124 1.95967 362.124 0.570072H359.492ZM357.422 21.2662H360.379L367.624 10.7407V21.2662H370.58V6.48324H367.624L360.379 17.0087V6.48324H357.422V21.2662Z" fill="white"/>
<path d="M378.277 21.2662H381.234V9.14417H386.379V6.48324H373.132V9.14417H378.277V21.2662Z" fill="white"/>
<path d="M388.927 21.2662H391.884L399.128 10.7407V21.2662H402.085V6.48324H399.128L391.884 17.0087V6.48324H388.927V21.2662Z" fill="white"/>
<path d="M0.790527 56.7721H3.59967V53.5198H14.4222V56.7721H17.2314V50.8589H15.1615V38.7369H3.83623V40.4221C3.83623 46.8084 3.24483 49.4102 2.62386 50.8589H0.790527V56.7721ZM5.55128 50.8589C6.08354 49.4989 6.55666 47.3997 6.6158 41.3978H12.2045V50.8589H5.55128Z" fill="white"/>
<path d="M26.4216 51.2433C23.7012 51.2433 21.9861 49.351 21.7791 46.6605H34.0211C34.0802 46.3649 34.1098 46.0397 34.1098 45.744C34.1098 41.6935 30.9754 38.4412 26.4216 38.4412C21.8679 38.4412 18.7334 41.8117 18.7334 46.1284C18.7334 50.5928 21.8679 53.8155 26.4216 53.8155C30.2361 53.8155 32.6904 52.0711 33.548 48.9371H30.7092C30.1179 50.2971 28.8168 51.2433 26.4216 51.2433ZM26.4216 41.0135C28.8168 41.0135 30.4136 42.4918 30.9458 44.5909H21.927C22.4888 42.4326 24.1743 41.0135 26.4216 41.0135Z" fill="white"/>
<path d="M37.992 46.1284C37.9328 49.7945 37.5189 50.8589 35.3307 50.8589V53.8155C39.3818 53.8155 40.6237 51.805 40.7716 46.1875L40.8898 41.3978H46.2716V53.5198H49.2285V38.7369H38.1398L37.992 46.1284Z" fill="white"/>
<path d="M59.8933 53.8155C64.4767 53.8155 67.7294 50.4154 67.7294 46.1284C67.7294 41.8413 64.4767 38.4412 59.8933 38.4412C55.31 38.4412 52.0573 41.8413 52.0573 46.1284C52.0573 50.4154 55.31 53.8155 59.8933 53.8155ZM59.8933 51.1546C57.0842 51.1546 55.1622 48.9371 55.1622 46.1284C55.1622 43.3196 57.0842 41.1022 59.8933 41.1022C62.7025 41.1022 64.6245 43.3196 64.6245 46.1284C64.6245 48.9371 62.7025 51.1546 59.8933 51.1546Z" fill="white"/>
<path d="M77.5475 53.5198H80.5045V41.3978H87.1577V53.5198H90.1147V38.7369H77.5475V53.5198Z" fill="white"/>
<path d="M100.783 53.8155C105.366 53.8155 108.619 50.4154 108.619 46.1284C108.619 41.8413 105.366 38.4412 100.783 38.4412C96.1996 38.4412 92.9469 41.8413 92.9469 46.1284C92.9469 50.4154 96.1996 53.8155 100.783 53.8155ZM100.783 51.1546C97.9738 51.1546 96.0518 48.9371 96.0518 46.1284C96.0518 43.3196 97.9738 41.1022 100.783 41.1022C103.592 41.1022 105.514 43.3196 105.514 46.1284C105.514 48.9371 103.592 51.1546 100.783 51.1546Z" fill="white"/>
<path d="M117.106 56.7721H119.916V53.5198H130.738V56.7721H133.547V50.8589H131.477V38.7369H120.152V40.4221C120.152 46.8084 119.561 49.4102 118.94 50.8589H117.106V56.7721ZM121.867 50.8589C122.399 49.4989 122.873 47.3997 122.932 41.3978H128.52V50.8589H121.867Z" fill="white"/>
<path d="M142.678 54.2885L148.947 38.7369H146.079L141.732 49.765L137.326 38.7369H134.162L140.135 53.579C139.189 56.2103 138.598 56.7721 135.493 56.7721V59.433C139.928 59.433 141.082 58.2799 142.678 54.2885Z" fill="white"/>
<path d="M150.895 53.5198H171.002V38.7369H168.045V50.7998H162.427V38.7369H159.47V50.7998H153.852V38.7369H150.895V53.5198Z" fill="white"/>
<path d="M181.519 51.2433C178.799 51.2433 177.084 49.351 176.877 46.6605H189.119C189.178 46.3649 189.207 46.0397 189.207 45.744C189.207 41.6935 186.073 38.4412 181.519 38.4412C176.965 38.4412 173.831 41.8117 173.831 46.1284C173.831 50.5928 176.965 53.8155 181.519 53.8155C185.334 53.8155 187.788 52.0711 188.646 48.9371H185.807C185.215 50.2971 183.914 51.2433 181.519 51.2433ZM181.519 41.0135C183.914 41.0135 185.511 42.4918 186.043 44.5909H177.025C177.586 42.4326 179.272 41.0135 181.519 41.0135Z" fill="white"/>
<path d="M192.11 56.1807H193.707L194.979 53.4016C195.422 52.4259 195.54 51.9233 195.54 51.5685C195.54 50.3563 194.565 49.4693 193.352 49.4693C192.11 49.4693 191.164 50.3563 191.164 51.5685C191.164 52.3372 191.489 53.0763 192.613 53.579L192.11 56.1807Z" fill="white"/>
<path d="M205.674 53.5198H208.631V47.311H215.58V53.5198H218.537V38.7369H215.58V44.6501H208.631V38.7369H205.674V53.5198Z" fill="white"/>
<path d="M231.534 44.2657V44.5022C224.763 44.5022 221.658 46.3058 221.658 49.6763C221.658 52.3372 223.403 53.8155 226.182 53.8155C229.228 53.8155 230.795 52.1302 231.534 49.9719V53.5198H234.491V44.5614C234.491 40.4517 232.333 38.4412 228.341 38.4412C224.674 38.4412 222.368 40.2448 221.895 43.6744H224.852C225.088 42.137 226.271 41.1022 228.341 41.1022C230.352 41.1022 231.534 42.137 231.534 44.2657ZM224.763 49.5284C224.763 47.7545 226.655 46.631 231.534 46.631C231.534 49.1736 229.908 51.2728 226.862 51.2728C225.561 51.2728 224.763 50.6519 224.763 49.5284Z" fill="white"/>
<path d="M244.671 54.2885L250.94 38.7369H248.072L243.725 49.765L239.319 38.7369H236.155L242.128 53.579C241.182 56.2103 240.591 56.7721 237.486 56.7721V59.433C241.921 59.433 243.075 58.2799 244.671 54.2885Z" fill="white"/>
<path d="M252.592 42.5805C252.592 47.1336 255.342 48.4345 258.802 48.4345C260.014 48.4345 261.138 48.2867 262.202 48.0206V53.5198H265.159V38.7369H262.202V45.4483C261.256 45.6849 260.31 45.7736 259.423 45.7736C256.909 45.7736 255.549 44.9753 255.549 42.5805V38.7369H252.592V42.5805Z" fill="white"/>
<path d="M268.885 53.5198H271.842L279.087 42.9944V53.5198H282.044V38.7369H279.087L271.842 49.2623V38.7369H268.885V53.5198Z" fill="white"/>
<path d="M289.741 53.5198H292.698V41.3978H297.843V38.7369H284.596V41.3978H289.741V53.5198Z" fill="white"/>
<path d="M300.39 53.5198H306.866C310.858 53.5198 312.632 50.9476 312.632 48.4049C312.632 45.8327 310.858 43.3787 306.866 43.3787H303.347V38.7369H300.39V53.5198ZM306.777 45.9805C308.729 45.9805 309.527 47.1632 309.527 48.4049C309.527 49.7945 308.729 50.8885 306.925 50.8885H303.347V45.9805H306.777Z" fill="white"/>
<path d="M321.917 51.1546C319.256 51.1546 317.393 49.1736 317.393 46.1284C317.393 43.1126 319.197 41.1022 321.917 41.1022C324.105 41.1022 325.377 42.1665 325.939 44.0588H328.895C328.334 40.5995 325.82 38.4412 321.917 38.4412C317.393 38.4412 314.288 41.8709 314.288 46.1284C314.288 50.4154 317.393 53.8155 321.976 53.8155C325.732 53.8155 328.304 51.805 329.014 48.0501H326.057C325.525 50.1198 324.105 51.1546 321.917 51.1546Z" fill="white"/>
<path d="M334.091 53.5198L338.201 48.2867H340.655V53.5198H343.612V38.7369H337.136C333.144 38.7369 331.37 41.2204 331.37 43.704C331.37 45.8031 332.642 47.3406 335.066 47.9023L330.542 53.5198H334.091ZM337.225 45.9805C335.273 45.9805 334.475 44.857 334.475 43.704C334.475 42.4031 335.273 41.3683 337.077 41.3683H340.655V45.9805H337.225Z" fill="white"/>
<path d="M2.12117 85.7735H5.07816V79.5646H12.0271V85.7735H14.9841V70.9906H12.0271V76.9037H5.07816V70.9906H2.12117V85.7735Z" fill="white"/>
<path d="M25.6454 86.0691C30.2287 86.0691 33.4814 82.6691 33.4814 78.382C33.4814 74.095 30.2287 70.6949 25.6454 70.6949C21.0621 70.6949 17.8094 74.095 17.8094 78.382C17.8094 82.6691 21.0621 86.0691 25.6454 86.0691ZM25.6454 83.4082C22.8363 83.4082 20.9142 81.1908 20.9142 78.382C20.9142 75.5733 22.8363 73.3558 25.6454 73.3558C28.4545 73.3558 30.3766 75.5733 30.3766 78.382C30.3766 81.1908 28.4545 83.4082 25.6454 83.4082Z" fill="white"/>
<path d="M36.3114 85.7735H43.3786C47.4296 85.7735 48.7307 83.6447 48.7307 81.6343C48.7307 79.6533 47.4001 78.5298 45.2415 78.1751C47.1339 77.6724 48.0802 76.3715 48.0802 74.8341C48.0802 72.3801 46.2764 70.9906 42.9942 70.9906H36.3114V85.7735ZM42.8463 77.1402H39.2092V73.5036H42.8463C44.3839 73.5036 45.0345 74.3019 45.0345 75.3367C45.0345 76.342 44.3839 77.1402 42.8463 77.1402ZM43.0533 79.5055C44.9753 79.5055 45.6259 80.3925 45.6259 81.3386C45.6259 82.403 44.9753 83.2604 43.2011 83.2604H39.2092V79.5055H43.0533Z" fill="white"/>
<path d="M58.3918 86.0691C62.9751 86.0691 66.2278 82.6691 66.2278 78.382C66.2278 74.095 62.9751 70.6949 58.3918 70.6949C53.8084 70.6949 50.5557 74.095 50.5557 78.382C50.5557 82.6691 53.8084 86.0691 58.3918 86.0691ZM58.3918 83.4082C55.5826 83.4082 53.6606 81.1908 53.6606 78.382C53.6606 75.5733 55.5826 73.3558 58.3918 73.3558C61.2009 73.3558 63.1229 75.5733 63.1229 78.382C63.1229 81.1908 61.2009 83.4082 58.3918 83.4082Z" fill="white"/>
<path d="M69.0577 85.7735H71.8668V74.4793L76.4206 85.7735H78.7862L83.34 74.4793V85.7735H86.2969V70.9906H82.1276L77.7513 81.9003L73.3453 70.9906H69.0577V85.7735Z" fill="white"/>
<path d="M96.7642 86.5422L103.033 70.9906H100.165L95.818 82.0186L91.4121 70.9906H88.2481L94.2212 85.8326C93.275 88.464 92.6836 89.0257 89.5787 89.0257V91.6867C94.0142 91.6867 95.1674 90.5336 96.7642 86.5422Z" fill="white"/>
<path d="M111.969 85.7735H114.926L122.17 75.248V85.7735H125.127V70.9906H122.17L114.926 81.516V70.9906H111.969V85.7735Z" fill="white"/>
<path d="M138.807 70.9906H135.85V91.6867H138.807V82.4621C139.871 84.65 141.882 86.0691 144.573 86.0691C148.683 86.0691 151.374 82.6691 151.374 78.382C151.374 74.095 148.624 70.6949 144.573 70.6949C141.882 70.6949 139.871 72.1141 138.807 74.3019V70.9906ZM143.538 73.3558C146.318 73.3558 148.269 75.3072 148.269 78.382C148.269 81.4569 146.318 83.4082 143.538 83.4082C140.877 83.4082 138.807 81.3682 138.807 78.382C138.807 75.4254 140.877 73.3558 143.538 73.3558Z" fill="white"/>
<path d="M163.356 76.5194V76.7559C156.585 76.7559 153.48 78.5594 153.48 81.9299C153.48 84.5908 155.224 86.0691 158.004 86.0691C161.05 86.0691 162.617 84.3839 163.356 82.2256V85.7735H166.313V76.815C166.313 72.7054 164.154 70.6949 160.163 70.6949C156.496 70.6949 154.189 72.4984 153.716 75.928H156.673C156.91 74.3906 158.093 73.3558 160.163 73.3558C162.173 73.3558 163.356 74.3906 163.356 76.5194ZM156.585 81.7821C156.585 80.0081 158.477 78.8846 163.356 78.8846C163.356 81.4273 161.73 83.5265 158.684 83.5265C157.383 83.5265 156.585 82.9056 156.585 81.7821Z" fill="white"/>
<path d="M175.544 86.0691C180.097 86.0691 181.99 83.8813 181.99 81.4864C181.99 79.8307 180.807 78.5003 178.914 78.0864C180.6 77.6429 181.517 76.3715 181.517 74.8637C181.517 72.6167 179.713 70.6949 175.573 70.6949C171.818 70.6949 169.452 72.6462 169.156 75.6915H172.232C172.498 74.4793 173.296 73.3558 175.514 73.3558C177.495 73.3558 178.412 74.2428 178.412 75.3367C178.412 76.4011 177.732 77.1107 175.632 77.1107H173.592V79.6238H176.076C178.116 79.6238 178.885 80.3925 178.885 81.3977C178.885 82.4621 178.205 83.4082 175.544 83.4082C173.296 83.4082 172.291 82.4621 171.936 80.9247H168.861C169.156 83.97 171.226 86.0691 175.544 86.0691Z" fill="white"/>
<path d="M184.969 85.7735H192.037C196.088 85.7735 197.389 83.6447 197.389 81.6343C197.389 79.6533 196.058 78.5298 193.899 78.1751C195.792 77.6724 196.738 76.3715 196.738 74.8341C196.738 72.3801 194.934 70.9906 191.652 70.9906H184.969V85.7735ZM191.504 77.1402H187.867V73.5036H191.504C193.042 73.5036 193.692 74.3019 193.692 75.3367C193.692 76.342 193.042 77.1402 191.504 77.1402ZM191.711 79.5055C193.633 79.5055 194.284 80.3925 194.284 81.3386C194.284 82.403 193.633 83.2604 191.859 83.2604H187.867V79.5055H191.711Z" fill="white"/>
<path d="M200.245 85.7735H203.202L210.447 75.248V85.7735H213.404V70.9906H210.447L203.202 81.516V70.9906H200.245V85.7735Z" fill="white"/>
<path d="M221.101 85.7735H224.058V73.6515H229.203V70.9906H215.955V73.6515H221.101V85.7735Z" fill="white"/>
<path d="M231.75 85.7735H238.226C242.218 85.7735 243.992 83.2012 243.992 80.6586C243.992 78.0864 242.218 75.6324 238.226 75.6324H234.707V70.9906H231.75V85.7735ZM238.137 78.2342C240.089 78.2342 240.887 79.4168 240.887 80.6586C240.887 82.0482 240.089 83.1421 238.285 83.1421H234.707V78.2342H238.137Z" fill="white"/>
<path d="M260.265 83.4082C257.604 83.4082 255.741 81.4273 255.741 78.382C255.741 75.3663 257.544 73.3558 260.265 73.3558C262.453 73.3558 263.725 74.4202 264.286 76.3124H267.243C266.682 72.8532 264.168 70.6949 260.265 70.6949C255.741 70.6949 252.636 74.1245 252.636 78.382C252.636 82.6691 255.741 86.0691 260.324 86.0691C264.079 86.0691 266.652 84.0587 267.362 80.3038H264.405C263.872 82.3734 262.453 83.4082 260.265 83.4082Z" fill="white"/>
<path d="M270.214 85.7735H277.281C281.332 85.7735 282.633 83.6447 282.633 81.6343C282.633 79.6533 281.303 78.5298 279.144 78.1751C281.036 77.6724 281.983 76.3715 281.983 74.8341C281.983 72.3801 280.179 70.9906 276.897 70.9906H270.214V85.7735ZM276.749 77.1402H273.112V73.5036H276.749C278.286 73.5036 278.937 74.3019 278.937 75.3367C278.937 76.342 278.286 77.1402 276.749 77.1402ZM276.956 79.5055C278.878 79.5055 279.528 80.3925 279.528 81.3386C279.528 82.403 278.878 83.2604 277.104 83.2604H273.112V79.5055H276.956Z" fill="white"/>
<path d="M292.294 86.0691C296.878 86.0691 300.13 82.6691 300.13 78.382C300.13 74.095 296.878 70.6949 292.294 70.6949C287.711 70.6949 284.458 74.095 284.458 78.382C284.458 82.6691 287.711 86.0691 292.294 86.0691ZM292.294 83.4082C289.485 83.4082 287.563 81.1908 287.563 78.382C287.563 75.5733 289.485 73.3558 292.294 73.3558C295.103 73.3558 297.025 75.5733 297.025 78.382C297.025 81.1908 295.103 83.4082 292.294 83.4082Z" fill="white"/>
<path d="M302.96 85.7735H305.917L313.162 75.248V85.7735H316.119V70.9906H313.162L305.917 81.516V70.9906H302.96V85.7735Z" fill="white"/>
<path d="M2.12117 118.027H5.07816V105.905H11.7314V118.027H14.6884V103.244H2.12117V118.027Z" fill="white"/>
<path d="M21.3647 103.244H18.4077V123.94H21.3647V114.716C22.4292 116.904 24.44 118.323 27.1308 118.323C31.241 118.323 33.9319 114.923 33.9319 110.636C33.9319 106.349 31.1819 102.949 27.1308 102.949C24.44 102.949 22.4292 104.368 21.3647 106.556V103.244ZM26.0959 105.609C28.8755 105.609 30.8271 107.561 30.8271 110.636C30.8271 113.711 28.8755 115.662 26.0959 115.662C23.4346 115.662 21.3647 113.622 21.3647 110.636C21.3647 107.679 23.4346 105.609 26.0959 105.609Z" fill="white"/>
<path d="M43.7223 118.323C48.3056 118.323 51.5583 114.923 51.5583 110.636C51.5583 106.349 48.3056 102.949 43.7223 102.949C39.139 102.949 35.8863 106.349 35.8863 110.636C35.8863 114.923 39.139 118.323 43.7223 118.323ZM43.7223 115.662C40.9132 115.662 38.9911 113.444 38.9911 110.636C38.9911 107.827 40.9132 105.609 43.7223 105.609C46.5315 105.609 48.4535 107.827 48.4535 110.636C48.4535 113.444 46.5315 115.662 43.7223 115.662Z" fill="white"/>
<path d="M61.6329 123.94H64.5899V118.323C68.9662 118.116 72.7216 115.366 72.7216 110.636C72.7216 105.905 68.9662 103.126 64.5899 102.949V97.331H61.6329V102.949C57.2565 103.126 53.5012 105.905 53.5012 110.636C53.5012 115.366 57.2565 118.116 61.6329 118.323V123.94ZM56.606 110.636C56.606 107.324 59.0307 105.639 61.6329 105.521V115.751C59.0307 115.632 56.606 113.947 56.606 110.636ZM64.5899 105.521C67.1625 105.639 69.6168 107.324 69.6168 110.636C69.6168 113.947 67.1625 115.632 64.5899 115.751V105.521Z" fill="white"/>
<path d="M82.3561 115.751C79.6356 115.751 77.9206 113.858 77.7136 111.168H89.9555C90.0147 110.872 90.0442 110.547 90.0442 110.251C90.0442 106.201 86.9098 102.949 82.3561 102.949C77.8023 102.949 74.6679 106.319 74.6679 110.636C74.6679 115.1 77.8023 118.323 82.3561 118.323C86.1706 118.323 88.6249 116.578 89.4824 113.444H86.6437C86.0523 114.804 84.7512 115.751 82.3561 115.751ZM82.3561 105.521C84.7512 105.521 86.348 106.999 86.8802 109.098H77.8614C78.4233 106.94 80.1088 105.521 82.3561 105.521Z" fill="white"/>
<path d="M99.623 115.662C96.9617 115.662 95.0988 113.681 95.0988 110.636C95.0988 107.62 96.9026 105.609 99.623 105.609C101.811 105.609 103.083 106.674 103.645 108.566H106.602C106.04 105.107 103.526 102.949 99.623 102.949C95.0988 102.949 91.994 106.378 91.994 110.636C91.994 114.923 95.0988 118.323 99.6822 118.323C103.438 118.323 106.01 116.312 106.72 112.557H103.763C103.231 114.627 101.811 115.662 99.623 115.662Z" fill="white"/>
<path d="M116.169 115.662C113.508 115.662 111.645 113.681 111.645 110.636C111.645 107.62 113.449 105.609 116.169 105.609C118.358 105.609 119.629 106.674 120.191 108.566H123.148C122.586 105.107 120.073 102.949 116.169 102.949C111.645 102.949 108.54 106.378 108.54 110.636C108.54 114.923 111.645 118.323 116.229 118.323C119.984 118.323 122.557 116.312 123.266 112.557H120.309C119.777 114.627 118.358 115.662 116.169 115.662Z" fill="white"/>
<path d="M126.118 118.027H129.075L136.32 107.502V118.027H139.277V103.244H136.32L129.075 113.77V103.244H126.118V118.027Z" fill="white"/>
<path d="M149.96 118.323C154.544 118.323 157.796 114.923 157.796 110.636C157.796 106.349 154.544 102.949 149.96 102.949C145.377 102.949 142.124 106.349 142.124 110.636C142.124 114.923 145.377 118.323 149.96 118.323ZM149.96 115.662C147.151 115.662 145.229 113.444 145.229 110.636C145.229 107.827 147.151 105.609 149.96 105.609C152.769 105.609 154.691 107.827 154.691 110.636C154.691 113.444 152.769 115.662 149.96 115.662Z" fill="white"/>
<path d="M160.626 118.027H163.583V111.818H170.532V118.027H173.489V103.244H170.532V109.157H163.583V103.244H160.626V118.027Z" fill="white"/>
<path d="M186.486 108.773V109.01C179.715 109.01 176.61 110.813 176.61 114.184C176.61 116.844 178.355 118.323 181.134 118.323C184.18 118.323 185.747 116.638 186.486 114.479V118.027H189.443V109.069C189.443 104.959 187.285 102.949 183.293 102.949C179.626 102.949 177.32 104.752 176.847 108.182H179.804C180.04 106.644 181.223 105.609 183.293 105.609C185.304 105.609 186.486 106.644 186.486 108.773ZM179.715 114.036C179.715 112.262 181.607 111.138 186.486 111.138C186.486 113.681 184.86 115.78 181.814 115.78C180.513 115.78 179.715 115.159 179.715 114.036Z" fill="white"/>
<path d="M194.505 110.636C194.445 114.302 194.031 115.366 191.843 115.366V118.323C195.894 118.323 197.136 116.312 197.284 110.695L197.402 105.905H202.784V118.027H205.741V103.244H194.652L194.505 110.636Z" fill="white"/>
<path d="M209.457 118.027H215.933C219.925 118.027 221.699 115.455 221.699 112.912C221.699 110.34 219.925 107.886 215.933 107.886H212.414V103.244H209.457V118.027ZM215.844 110.488C217.796 110.488 218.594 111.67 218.594 112.912C218.594 114.302 217.796 115.396 215.992 115.396H212.414V110.488H215.844Z" fill="white"/>
<path d="M224.242 118.027H227.199V111.818H234.148V118.027H237.105V103.244H234.148V109.157H227.199V103.244H224.242V118.027Z" fill="white"/>
<path d="M240.817 118.027H247.293C251.285 118.027 253.059 115.455 253.059 112.912C253.059 110.34 251.285 107.886 247.293 107.886H243.774V103.244H240.817V118.027ZM255.04 118.027H257.997V103.244H255.04V118.027ZM247.204 110.488C249.156 110.488 249.954 111.67 249.954 112.912C249.954 114.302 249.156 115.396 247.352 115.396H243.774V110.488H247.204Z" fill="white"/>
<path d="M268.525 115.751C265.805 115.751 264.09 113.858 263.883 111.168H276.125C276.184 110.872 276.213 110.547 276.213 110.251C276.213 106.201 273.079 102.949 268.525 102.949C263.971 102.949 260.837 106.319 260.837 110.636C260.837 115.1 263.971 118.323 268.525 118.323C272.34 118.323 274.794 116.578 275.651 113.444H272.813C272.221 114.804 270.92 115.751 268.525 115.751ZM268.525 105.521C270.92 105.521 272.517 106.999 273.049 109.098H264.03C264.592 106.94 266.278 105.521 268.525 105.521Z" fill="white"/>
<path d="M286.038 118.027H288.995V111.818H295.944V118.027H298.901V103.244H295.944V109.157H288.995V103.244H286.038V118.027Z" fill="white"/>
<path d="M311.899 108.773V109.01C305.127 109.01 302.022 110.813 302.022 114.184C302.022 116.844 303.767 118.323 306.546 118.323C309.592 118.323 311.159 116.638 311.899 114.479V118.027H314.856V109.069C314.856 104.959 312.697 102.949 308.705 102.949C305.038 102.949 302.732 104.752 302.259 108.182H305.216C305.452 106.644 306.635 105.609 308.705 105.609C310.716 105.609 311.899 106.644 311.899 108.773ZM305.127 114.036C305.127 112.262 307.02 111.138 311.899 111.138C311.899 113.681 310.272 115.78 307.227 115.78C305.925 115.78 305.127 115.159 305.127 114.036Z" fill="white"/>
<path d="M318.438 118.027H325.505C329.556 118.027 330.858 115.898 330.858 113.888C330.858 111.907 329.527 110.784 327.368 110.429C329.261 109.926 330.207 108.625 330.207 107.088C330.207 104.634 328.403 103.244 325.121 103.244H318.438V118.027ZM324.973 109.394H321.336V105.757H324.973C326.511 105.757 327.161 106.556 327.161 107.59C327.161 108.596 326.511 109.394 324.973 109.394ZM325.18 111.759C327.102 111.759 327.753 112.646 327.753 113.592C327.753 114.657 327.102 115.514 325.328 115.514H321.336V111.759H325.18Z" fill="white"/>
<path d="M333.714 118.027H340.19C344.182 118.027 345.956 115.455 345.956 112.912C345.956 110.34 344.182 107.886 340.19 107.886H336.671V103.244H333.714V118.027ZM347.937 118.027H350.894V103.244H347.937V118.027ZM340.101 110.488C342.053 110.488 342.851 111.67 342.851 112.912C342.851 114.302 342.053 115.396 340.249 115.396H336.671V110.488H340.101Z" fill="white"/>
<path d="M354.621 118.027H357.578V111.079L364.172 118.027H368.164L360.742 110.281L367.602 103.244H364.054L357.578 109.897V103.244H354.621V118.027Z" fill="white"/>
<path d="M369.81 118.027H372.767L380.012 107.502V118.027H382.969V103.244H380.012L372.767 113.77V103.244H369.81V118.027Z" fill="white"/>
<path d="M388.3 118.323C389.512 118.323 390.488 117.347 390.488 116.076C390.488 114.893 389.512 113.977 388.3 113.977C387.058 113.977 386.112 114.893 386.112 116.076C386.112 117.347 387.058 118.323 388.3 118.323Z" fill="white"/>
</g>
</svg>
