<svg width="505" height="216" viewBox="0 0 505 216" fill="none" xmlns="http://www.w3.org/2000/svg">
<g id="&#208;&#157;&#208;&#176;&#208;&#180;&#208;&#181;&#208;&#182;&#208;&#189;&#208;&#190;&#208;&#181; &#209;&#133;&#209;&#128;&#208;&#176;&#208;&#189;&#208;&#181;&#208;&#189;&#208;&#184;&#208;&#181; &#208;&#184;&#194;&#160;&#209;&#130;&#209;&#128;&#208;&#176;&#208;&#189;&#209;&#129;&#208;&#191;&#208;&#190;&#209;&#128;&#209;&#130;&#208;&#184;&#209;&#128;&#208;&#190;&#208;&#178;&#208;&#186;&#208;&#176; &#209;&#130;&#208;&#190;&#208;&#178;&#208;&#176;&#209;&#128;&#208;&#190;&#208;&#178; &#208;&#180;&#208;&#190;&#194;&#160;&#208;&#189;&#208;&#176;&#209;&#136;&#208;&#184;&#209;&#133; &#208;&#186;&#208;&#187;&#208;&#184;&#208;&#181;&#208;&#189;&#209;&#130;&#208;&#190;&#208;&#178;. &#208;&#145;&#208;&#190;&#208;&#187;&#208;&#181;&#208;&#181; 45 &#209;&#130;&#209;&#139;&#209;&#129; &#208;&#188;&#194;&#178; &#208;&#191;&#209;&#128;&#208;&#190;&#209;&#129;&#209;&#130;&#208;&#190;&#209;&#128;&#208;&#189;&#209;&#139;&#209;&#133; &#209;&#129;&#208;&#186;&#208;&#187;&#208;&#176;&#208;&#180;&#209;&#129;&#208;&#186;&#208;&#184;&#209;&#133; &#208;&#191;&#208;&#190;&#208;&#188;&#208;&#181;&#209;&#137;&#208;&#181;&#208;&#189;&#208;&#184;&#208;&#185; &#209;&#128;&#208;&#176;&#208;&#183;&#208;&#189;&#208;&#190;&#208;&#179;&#208;&#190; &#208;&#189;&#208;&#176;&#208;&#183;&#208;&#189;&#208;&#176;&#209;&#135;&#208;&#181;&#208;&#189;&#208;&#184;&#209;&#143;, &#209;&#129;&#208;&#190;&#208;&#178;&#209;&#128;&#208;&#181;&#208;&#188;&#208;&#181;&#208;&#189;&#208;&#189;&#208;&#190;&#208;&#181; &#208;&#190;&#208;&#177;&#208;&#190;&#209;&#128;&#209;&#131;&#208;&#180;&#208;&#190;&#208;&#178;&#208;&#176;&#208;&#189;&#208;&#184;&#208;&#181; &#208;&#184;&#194;&#160;&#208;&#191;&#209;&#128;&#208;&#190;&#208;&#179;&#209;&#128;&#208;&#176;&#208;&#188;&#208;&#188;&#208;&#189;&#208;&#190;&#208;&#181; &#208;&#190;&#208;&#177;&#208;&#181;&#209;&#129;&#208;&#191;&#208;&#181;&#209;&#135;&#208;&#181;&#208;&#189;&#208;&#184;&#208;&#181;.">
<path d="M1.73631 21.325H4.84115V12.3074H15.3385V21.325H18.4433V0.628906H15.3385V9.49866H4.84115V0.628906H1.73631V21.325Z" fill="white"/>
<path d="M31.607 12.0709V12.3074C24.8355 12.3074 21.7306 14.1109 21.7306 17.4814C21.7306 20.1424 23.4753 21.6207 26.2548 21.6207C29.3005 21.6207 30.8677 19.9354 31.607 17.7771V21.325H34.564V12.3666C34.564 8.2569 32.4054 6.24642 28.4134 6.24642C24.7468 6.24642 22.4403 8.04994 21.9672 11.4796H24.9242C25.1607 9.94215 26.3435 8.90735 28.4134 8.90735C30.4242 8.90735 31.607 9.94215 31.607 12.0709ZM24.8355 17.3336C24.8355 15.5597 26.728 14.4362 31.607 14.4362C31.607 16.9788 29.9806 19.078 26.9349 19.078C25.6339 19.078 24.8355 18.4571 24.8355 17.3336Z" fill="white"/>
<path d="M36.8159 24.5772H39.625V21.325H50.4476V24.5772H53.2568V18.6641H51.1869V6.54208H39.8616V8.22733C39.8616 14.6136 39.2702 17.2154 38.6492 18.6641H36.8159V24.5772ZM41.5767 18.6641C42.1089 17.3041 42.582 15.2049 42.6412 9.203H48.2299V18.6641H41.5767Z" fill="white"/>
<path d="M62.447 19.0484C59.7266 19.0484 58.0115 17.1562 57.8045 14.4657H70.0465C70.1056 14.1701 70.1352 13.8448 70.1352 13.5492C70.1352 9.49866 67.0008 6.24642 62.447 6.24642C57.8932 6.24642 54.7588 9.61693 54.7588 13.9335C54.7588 18.398 57.8932 21.6207 62.447 21.6207C66.2615 21.6207 68.7158 19.8763 69.5733 16.7423H66.7346C66.1432 18.1023 64.8422 19.0484 62.447 19.0484ZM62.447 8.81865C64.8422 8.81865 66.4389 10.2969 66.9712 12.3961H57.9524C58.5142 10.2378 60.1997 8.81865 62.447 8.81865Z" fill="white"/>
<path d="M80.6115 21.325H83.5685V14.4066L89.8668 21.325H93.7701L86.6733 13.5787L93.2082 6.54208H89.7486L83.5685 13.1944V6.54208H80.6115V13.1944L74.4314 6.54208H70.8238L77.5066 13.7266L70.5577 21.325H74.3131L80.6115 14.4066V21.325Z" fill="white"/>
<path d="M95.5248 21.325H98.4818V15.1162H105.431V21.325H108.388V6.54208H105.431V12.4552H98.4818V6.54208H95.5248V21.325Z" fill="white"/>
<path d="M119.049 21.6207C123.632 21.6207 126.885 18.2206 126.885 13.9335C126.885 9.64649 123.632 6.24642 119.049 6.24642C114.466 6.24642 111.213 9.64649 111.213 13.9335C111.213 18.2206 114.466 21.6207 119.049 21.6207ZM119.049 18.9597C116.24 18.9597 114.318 16.7423 114.318 13.9335C114.318 11.1248 116.24 8.90735 119.049 8.90735C121.858 8.90735 123.78 11.1248 123.78 13.9335C123.78 16.7423 121.858 18.9597 119.049 18.9597Z" fill="white"/>
<path d="M136.516 19.0484C133.796 19.0484 132.081 17.1562 131.874 14.4657H144.116C144.175 14.1701 144.204 13.8448 144.204 13.5492C144.204 9.49866 141.07 6.24642 136.516 6.24642C131.962 6.24642 128.828 9.61693 128.828 13.9335C128.828 18.398 131.962 21.6207 136.516 21.6207C140.331 21.6207 142.785 19.8763 143.642 16.7423H140.804C140.212 18.1023 138.911 19.0484 136.516 19.0484ZM136.516 8.81865C138.911 8.81865 140.508 10.2969 141.04 12.3961H132.021C132.583 10.2378 134.269 8.81865 136.516 8.81865Z" fill="white"/>
<path d="M155.804 21.325L159.677 16.0327L163.492 21.325H167.011L161.57 13.7857L166.774 6.54208H163.58L160.032 11.6274L156.365 6.54208H152.847L158.14 13.8744L152.551 21.325H155.804Z" fill="white"/>
<path d="M172.204 6.54208H169.247V27.2382H172.204V18.0136C173.269 20.2015 175.28 21.6207 177.971 21.6207C182.081 21.6207 184.772 18.2206 184.772 13.9335C184.772 9.64649 182.022 6.24642 177.971 6.24642C175.28 6.24642 173.269 7.66558 172.204 9.85345V6.54208ZM176.936 8.90735C179.715 8.90735 181.667 10.8587 181.667 13.9335C181.667 17.0084 179.715 18.9597 176.936 18.9597C174.274 18.9597 172.204 16.9197 172.204 13.9335C172.204 10.977 174.274 8.90735 176.936 8.90735Z" fill="white"/>
<path d="M196.754 12.0709V12.3074C189.982 12.3074 186.877 14.1109 186.877 17.4814C186.877 20.1424 188.622 21.6207 191.402 21.6207C194.447 21.6207 196.014 19.9354 196.754 17.7771V21.325H199.711V12.3666C199.711 8.2569 197.552 6.24642 193.56 6.24642C189.893 6.24642 187.587 8.04994 187.114 11.4796H190.071C190.307 9.94215 191.49 8.90735 193.56 8.90735C195.571 8.90735 196.754 9.94215 196.754 12.0709ZM189.982 17.3336C189.982 15.5597 191.875 14.4362 196.754 14.4362C196.754 16.9788 195.127 19.078 192.082 19.078C190.781 19.078 189.982 18.4571 189.982 17.3336Z" fill="white"/>
<path d="M203.293 21.325H206.25V15.1162H213.199V21.325H216.156V6.54208H213.199V12.4552H206.25V6.54208H203.293V21.325Z" fill="white"/>
<path d="M226.67 19.0484C223.949 19.0484 222.234 17.1562 222.027 14.4657H234.269C234.328 14.1701 234.358 13.8448 234.358 13.5492C234.358 9.49866 231.223 6.24642 226.67 6.24642C222.116 6.24642 218.981 9.61693 218.981 13.9335C218.981 18.398 222.116 21.6207 226.67 21.6207C230.484 21.6207 232.938 19.8763 233.796 16.7423H230.957C230.366 18.1023 229.065 19.0484 226.67 19.0484ZM226.67 8.81865C229.065 8.81865 230.662 10.2969 231.194 12.3961H222.175C222.737 10.2378 224.422 8.81865 226.67 8.81865Z" fill="white"/>
<path d="M237.195 21.325H240.152V15.1162H247.101V21.325H250.058V6.54208H247.101V12.4552H240.152V6.54208H237.195V21.325Z" fill="white"/>
<path d="M253.77 21.325H256.727L263.972 10.7996V21.325H266.929V6.54208H263.972L256.727 17.0675V6.54208H253.77V21.325Z" fill="white"/>
<path d="M277.464 19.0484C274.744 19.0484 273.029 17.1562 272.822 14.4657H285.064C285.123 14.1701 285.152 13.8448 285.152 13.5492C285.152 9.49866 282.018 6.24642 277.464 6.24642C272.91 6.24642 269.776 9.61693 269.776 13.9335C269.776 18.398 272.91 21.6207 277.464 21.6207C281.279 21.6207 283.733 19.8763 284.59 16.7423H281.752C281.16 18.1023 279.859 19.0484 277.464 19.0484ZM277.464 8.81865C279.859 8.81865 281.456 10.2969 281.988 12.3961H272.969C273.531 10.2378 275.217 8.81865 277.464 8.81865Z" fill="white"/>
<path d="M1.58846 53.5787H4.54545L11.7901 43.0532V53.5787H14.7471V38.7957H11.7901L4.54545 49.3212V38.7957H1.58846V53.5787Z" fill="white"/>
<path d="M29.432 53.5787H32.389V41.4567H37.5341V38.7957H24.2868V41.4567H29.432V53.5787Z" fill="white"/>
<path d="M43.0383 38.7957H40.0813V59.4918H43.0383V50.2673C44.1028 52.4552 46.1136 53.8743 48.8044 53.8743C52.9146 53.8743 55.6055 50.4743 55.6055 46.1872C55.6055 41.9002 52.8555 38.5001 48.8044 38.5001C46.1136 38.5001 44.1028 39.9192 43.0383 42.1071V38.7957ZM47.7695 41.161C50.549 41.161 52.5007 43.1124 52.5007 46.1872C52.5007 49.2621 50.549 51.2134 47.7695 51.2134C45.1082 51.2134 43.0383 49.1734 43.0383 46.1872C43.0383 43.2306 45.1082 41.161 47.7695 41.161Z" fill="white"/>
<path d="M67.5875 44.3246V44.5611C60.816 44.5611 57.7112 46.3646 57.7112 49.7351C57.7112 52.396 59.4558 53.8743 62.2354 53.8743C65.2811 53.8743 66.8483 52.1891 67.5875 50.0308V53.5787H70.5445V44.6202C70.5445 40.5106 68.3859 38.5001 64.394 38.5001C60.7273 38.5001 58.4209 40.3036 57.9478 43.7332H60.9047C61.1413 42.1958 62.3241 41.161 64.394 41.161C66.4047 41.161 67.5875 42.1958 67.5875 44.3246ZM60.816 49.5873C60.816 47.8133 62.7085 46.6898 67.5875 46.6898C67.5875 49.2325 65.9612 51.3317 62.9155 51.3317C61.6144 51.3317 60.816 50.7108 60.816 49.5873Z" fill="white"/>
<path d="M74.1271 53.5787H77.0841V47.3698H84.033V53.5787H86.99V38.7957H84.033V44.7089H77.0841V38.7957H74.1271V53.5787Z" fill="white"/>
<path d="M97.4444 51.2134C94.7831 51.2134 92.9202 49.2325 92.9202 46.1872C92.9202 43.1715 94.7239 41.161 97.4444 41.161C99.6325 41.161 100.904 42.2254 101.466 44.1176H104.423C103.861 40.6584 101.348 38.5001 97.4444 38.5001C92.9202 38.5001 89.8153 41.9297 89.8153 46.1872C89.8153 50.4743 92.9202 53.8743 97.5035 53.8743C101.259 53.8743 103.831 51.8638 104.541 48.109H101.584C101.052 50.1786 99.6325 51.2134 97.4444 51.2134Z" fill="white"/>
<path d="M107.393 53.5787H110.35V41.4567H117.003V53.5787H119.96V38.7957H107.393V53.5787Z" fill="white"/>
<path d="M130.629 53.8743C135.212 53.8743 138.465 50.4743 138.465 46.1872C138.465 41.9002 135.212 38.5001 130.629 38.5001C126.045 38.5001 122.793 41.9002 122.793 46.1872C122.793 50.4743 126.045 53.8743 130.629 53.8743ZM130.629 51.2134C127.82 51.2134 125.898 48.996 125.898 46.1872C125.898 43.3784 127.82 41.161 130.629 41.161C133.438 41.161 135.36 43.3784 135.36 46.1872C135.36 48.996 133.438 51.2134 130.629 51.2134Z" fill="white"/>
<path d="M144.252 38.7957H141.295V59.4918H144.252V50.2673C145.316 52.4552 147.327 53.8743 150.018 53.8743C154.128 53.8743 156.819 50.4743 156.819 46.1872C156.819 41.9002 154.069 38.5001 150.018 38.5001C147.327 38.5001 145.316 39.9192 144.252 42.1071V38.7957ZM148.983 41.161C151.762 41.161 153.714 43.1124 153.714 46.1872C153.714 49.2621 151.762 51.2134 148.983 51.2134C146.322 51.2134 144.252 49.1734 144.252 46.1872C144.252 43.2306 146.322 41.161 148.983 41.161Z" fill="white"/>
<path d="M163.045 53.5787H166.002V41.4567H171.147V38.7957H157.9V41.4567H163.045V53.5787Z" fill="white"/>
<path d="M173.695 53.5787H176.651L183.896 43.0532V53.5787H186.853V38.7957H183.896L176.651 49.3212V38.7957H173.695V53.5787Z" fill="white"/>
<path d="M193.544 38.7957H190.587V59.4918H193.544V50.2673C194.609 52.4552 196.62 53.8743 199.311 53.8743C203.421 53.8743 206.112 50.4743 206.112 46.1872C206.112 41.9002 203.362 38.5001 199.311 38.5001C196.62 38.5001 194.609 39.9192 193.544 42.1071V38.7957ZM198.276 41.161C201.055 41.161 203.007 43.1124 203.007 46.1872C203.007 49.2621 201.055 51.2134 198.276 51.2134C195.614 51.2134 193.544 49.1734 193.544 46.1872C193.544 43.2306 195.614 41.161 198.276 41.161Z" fill="white"/>
<path d="M215.902 53.8743C220.485 53.8743 223.738 50.4743 223.738 46.1872C223.738 41.9002 220.485 38.5001 215.902 38.5001C211.319 38.5001 208.066 41.9002 208.066 46.1872C208.066 50.4743 211.319 53.8743 215.902 53.8743ZM215.902 51.2134C213.093 51.2134 211.171 48.996 211.171 46.1872C211.171 43.3784 213.093 41.161 215.902 41.161C218.711 41.161 220.633 43.3784 220.633 46.1872C220.633 48.996 218.711 51.2134 215.902 51.2134Z" fill="white"/>
<path d="M226.568 53.5787H233.635C237.686 53.5787 238.987 51.4499 238.987 49.4394C238.987 47.4585 237.657 46.335 235.498 45.9802C237.391 45.4776 238.337 44.1767 238.337 42.6393C238.337 40.1853 236.533 38.7957 233.251 38.7957H226.568V53.5787ZM233.103 44.9454H229.466V41.3088H233.103C234.641 41.3088 235.291 42.1071 235.291 43.1419C235.291 44.1472 234.641 44.9454 233.103 44.9454ZM233.31 47.3107C235.232 47.3107 235.883 48.1977 235.883 49.1438C235.883 50.2082 235.232 51.0656 233.458 51.0656H229.466V47.3107H233.31Z" fill="white"/>
<path d="M241.844 53.5787H244.801V46.6307L251.395 53.5787H255.387L247.965 45.8324L254.825 38.7957H251.277L244.801 45.4481V38.7957H241.844V53.5787Z" fill="white"/>
<path d="M265.885 44.3246V44.5611C259.113 44.5611 256.009 46.3646 256.009 49.7351C256.009 52.396 257.753 53.8743 260.533 53.8743C263.578 53.8743 265.146 52.1891 265.885 50.0308V53.5787H268.842V44.6202C268.842 40.5106 266.683 38.5001 262.691 38.5001C259.025 38.5001 256.718 40.3036 256.245 43.7332H259.202C259.439 42.1958 260.621 41.161 262.691 41.161C264.702 41.161 265.885 42.1958 265.885 44.3246ZM259.113 49.5873C259.113 47.8133 261.006 46.6898 265.885 46.6898C265.885 49.2325 264.259 51.3317 261.213 51.3317C259.912 51.3317 259.113 50.7108 259.113 49.5873Z" fill="white"/>
<path d="M283.375 53.5787H286.332V41.4567H291.477V38.7957H278.23V41.4567H283.375V53.5787Z" fill="white"/>
<path d="M300.396 53.8743C304.979 53.8743 308.232 50.4743 308.232 46.1872C308.232 41.9002 304.979 38.5001 300.396 38.5001C295.812 38.5001 292.56 41.9002 292.56 46.1872C292.56 50.4743 295.812 53.8743 300.396 53.8743ZM300.396 51.2134C297.587 51.2134 295.665 48.996 295.665 46.1872C295.665 43.3784 297.587 41.161 300.396 41.161C303.205 41.161 305.127 43.3784 305.127 46.1872C305.127 48.996 303.205 51.2134 300.396 51.2134Z" fill="white"/>
<path d="M311.062 53.5787H318.129C322.18 53.5787 323.481 51.4499 323.481 49.4394C323.481 47.4585 322.15 46.335 319.992 45.9802C321.884 45.4776 322.831 44.1767 322.831 42.6393C322.831 40.1853 321.027 38.7957 317.744 38.7957H311.062V53.5787ZM317.597 44.9454H313.96V41.3088H317.597C319.134 41.3088 319.785 42.1071 319.785 43.1419C319.785 44.1472 319.134 44.9454 317.597 44.9454ZM317.804 47.3107C319.726 47.3107 320.376 48.1977 320.376 49.1438C320.376 50.2082 319.726 51.0656 317.951 51.0656H313.96V47.3107H317.804Z" fill="white"/>
<path d="M335.622 44.3246V44.5611C328.851 44.5611 325.746 46.3646 325.746 49.7351C325.746 52.396 327.491 53.8743 330.27 53.8743C333.316 53.8743 334.883 52.1891 335.622 50.0308V53.5787H338.579V44.6202C338.579 40.5106 336.421 38.5001 332.429 38.5001C328.762 38.5001 326.456 40.3036 325.983 43.7332H328.94C329.176 42.1958 330.359 41.161 332.429 41.161C334.44 41.161 335.622 42.1958 335.622 44.3246ZM328.851 49.5873C328.851 47.8133 330.743 46.6898 335.622 46.6898C335.622 49.2325 333.996 51.3317 330.95 51.3317C329.649 51.3317 328.851 50.7108 328.851 49.5873Z" fill="white"/>
<path d="M345.119 38.7957H342.162V59.4918H345.119V50.2673C346.184 52.4552 348.194 53.8743 350.885 53.8743C354.995 53.8743 357.686 50.4743 357.686 46.1872C357.686 41.9002 354.936 38.5001 350.885 38.5001C348.194 38.5001 346.184 39.9192 345.119 42.1071V38.7957ZM349.85 41.161C352.63 41.161 354.581 43.1124 354.581 46.1872C354.581 49.2621 352.63 51.2134 349.85 51.2134C347.189 51.2134 345.119 49.1734 345.119 46.1872C345.119 43.2306 347.189 41.161 349.85 41.161Z" fill="white"/>
<path d="M367.477 53.8743C372.06 53.8743 375.313 50.4743 375.313 46.1872C375.313 41.9002 372.06 38.5001 367.477 38.5001C362.893 38.5001 359.641 41.9002 359.641 46.1872C359.641 50.4743 362.893 53.8743 367.477 53.8743ZM367.477 51.2134C364.668 51.2134 362.745 48.996 362.745 46.1872C362.745 43.3784 364.668 41.161 367.477 41.161C370.286 41.161 372.208 43.3784 372.208 46.1872C372.208 48.996 370.286 51.2134 367.477 51.2134Z" fill="white"/>
<path d="M378.143 53.5787H385.21C389.261 53.5787 390.562 51.4499 390.562 49.4394C390.562 47.4585 389.231 46.335 387.073 45.9802C388.965 45.4776 389.911 44.1767 389.911 42.6393C389.911 40.1853 388.108 38.7957 384.825 38.7957H378.143V53.5787ZM384.678 44.9454H381.04V41.3088H384.678C386.215 41.3088 386.866 42.1071 386.866 43.1419C386.866 44.1472 386.215 44.9454 384.678 44.9454ZM384.885 47.3107C386.807 47.3107 387.457 48.1977 387.457 49.1438C387.457 50.2082 386.807 51.0656 385.032 51.0656H381.04V47.3107H384.885Z" fill="white"/>
<path d="M0.257812 89.0846H3.06695V85.8323H13.8895V89.0846H16.6987V83.1714H14.6288V71.0494H3.30351V72.7346C3.30351 79.1209 2.71211 81.7227 2.09115 83.1714H0.257812V89.0846ZM5.01857 83.1714C5.55082 81.8114 6.02394 79.7122 6.08308 73.7103H11.6718V83.1714H5.01857Z" fill="white"/>
<path d="M26.0368 86.128C30.6201 86.128 33.8728 82.7279 33.8728 78.4409C33.8728 74.1538 30.6201 70.7537 26.0368 70.7537C21.4534 70.7537 18.2007 74.1538 18.2007 78.4409C18.2007 82.7279 21.4534 86.128 26.0368 86.128ZM26.0368 83.4671C23.2276 83.4671 21.3056 81.2496 21.3056 78.4409C21.3056 75.6321 23.2276 73.4147 26.0368 73.4147C28.8459 73.4147 30.7679 75.6321 30.7679 78.4409C30.7679 81.2496 28.8459 83.4671 26.0368 83.4671Z" fill="white"/>
<path d="M43.6909 85.8323H46.6479V79.6235H53.5968V85.8323H56.5538V71.0494H53.5968V76.9626H46.6479V71.0494H43.6909V85.8323Z" fill="white"/>
<path d="M69.5512 76.5782V76.8147C62.7797 76.8147 59.6748 78.6183 59.6748 81.9888C59.6748 84.6497 61.4194 86.128 64.199 86.128C67.2447 86.128 68.8119 84.4427 69.5512 82.2844V85.8323H72.5082V76.8739C72.5082 72.7642 70.3496 70.7537 66.3576 70.7537C62.6909 70.7537 60.3845 72.5573 59.9114 75.9869H62.8684C63.1049 74.4495 64.2877 73.4147 66.3576 73.4147C68.3684 73.4147 69.5512 74.4495 69.5512 76.5782ZM62.7797 81.8409C62.7797 80.067 64.6721 78.9435 69.5512 78.9435C69.5512 81.4861 67.9248 83.5853 64.8791 83.5853C63.578 83.5853 62.7797 82.9644 62.7797 81.8409Z" fill="white"/>
<path d="M76.0907 85.8323H96.1983V71.0494H93.2413V83.1123H87.623V71.0494H84.666V83.1123H79.0477V71.0494H76.0907V85.8323Z" fill="white"/>
<path d="M99.9141 85.8323H102.871L110.116 75.3069V85.8323H113.073V71.0494H110.116L102.871 81.5748V71.0494H99.9141V85.8323Z" fill="white"/>
<path d="M118.581 85.8323L122.455 80.54L126.269 85.8323H129.788L124.347 78.293L129.552 71.0494H126.358L122.81 76.1347L119.143 71.0494H115.624L120.917 78.3817L115.329 85.8323H118.581Z" fill="white"/>
<path d="M139.013 85.8323H141.97V78.8843L148.564 85.8323H152.556L145.134 78.0861L151.995 71.0494H148.446L141.97 77.7017V71.0494H139.013V85.8323Z" fill="white"/>
<path d="M155.681 78.4409C155.622 82.107 155.208 83.1714 153.02 83.1714V86.128C157.071 86.128 158.313 84.1175 158.461 78.5L158.579 73.7103H163.961V85.8323H166.918V71.0494H155.829L155.681 78.4409Z" fill="white"/>
<path d="M170.634 85.8323H173.591L180.835 75.3069V85.8323H183.792V71.0494H180.835L173.591 81.5748V71.0494H170.634V85.8323Z" fill="white"/>
<path d="M194.328 83.5558C191.607 83.5558 189.892 81.6635 189.685 78.973H201.927C201.986 78.6774 202.016 78.3522 202.016 78.0565C202.016 74.006 198.881 70.7537 194.328 70.7537C189.774 70.7537 186.639 74.1242 186.639 78.4409C186.639 82.9053 189.774 86.128 194.328 86.128C198.142 86.128 200.596 84.3836 201.454 81.2496H198.615C198.024 82.6096 196.723 83.5558 194.328 83.5558ZM194.328 73.326C196.723 73.326 198.32 74.8043 198.852 76.9034H189.833C190.395 74.7451 192.08 73.326 194.328 73.326Z" fill="white"/>
<path d="M204.853 85.8323H207.81V79.6235H214.759V85.8323H217.716V71.0494H214.759V76.9626H207.81V71.0494H204.853V85.8323Z" fill="white"/>
<path d="M225.39 85.8323H228.347V73.7103H233.492V71.0494H220.245V73.7103H225.39V85.8323Z" fill="white"/>
<path d="M242.411 86.128C246.994 86.128 250.247 82.7279 250.247 78.4409C250.247 74.1538 246.994 70.7537 242.411 70.7537C237.828 70.7537 234.575 74.1538 234.575 78.4409C234.575 82.7279 237.828 86.128 242.411 86.128ZM242.411 83.4671C239.602 83.4671 237.68 81.2496 237.68 78.4409C237.68 75.6321 239.602 73.4147 242.411 73.4147C245.22 73.4147 247.142 75.6321 247.142 78.4409C247.142 81.2496 245.22 83.4671 242.411 83.4671Z" fill="white"/>
<path d="M253.077 85.8323H260.144C264.195 85.8323 265.496 83.7036 265.496 81.6931C265.496 79.7122 264.166 78.5887 262.007 78.2339C263.9 77.7313 264.846 76.4304 264.846 74.893C264.846 72.439 263.042 71.0494 259.76 71.0494H253.077V85.8323ZM259.612 77.1991H255.975V73.5625H259.612C261.15 73.5625 261.8 74.3608 261.8 75.3956C261.8 76.4008 261.15 77.1991 259.612 77.1991ZM259.819 79.5644C261.741 79.5644 262.391 80.4513 262.391 81.3974C262.391 82.4618 261.741 83.3192 259.967 83.3192H255.975V79.5644H259.819Z" fill="white"/>
<path d="M270.094 86.128C271.306 86.128 272.282 85.1523 272.282 83.881C272.282 82.6983 271.306 81.7818 270.094 81.7818C268.852 81.7818 267.906 82.6983 267.906 83.881C267.906 85.1523 268.852 86.128 270.094 86.128Z" fill="white"/>
<path d="M291.701 85.8323C296.462 85.8323 298.354 82.8462 298.354 79.6826C298.354 76.5782 296.462 73.5034 291.701 73.5034H285.669V67.945H296.757V65.1362H282.564V85.8323H291.701ZM291.612 76.3121C294.037 76.3121 295.101 77.82 295.101 79.6826C295.101 81.3974 294.037 83.0236 291.464 83.0236H285.669V76.3121H291.612Z" fill="white"/>
<path d="M308.048 86.128C312.631 86.128 315.884 82.7279 315.884 78.4409C315.884 74.1538 312.631 70.7537 308.048 70.7537C303.465 70.7537 300.212 74.1538 300.212 78.4409C300.212 82.7279 303.465 86.128 308.048 86.128ZM308.048 83.4671C305.239 83.4671 303.317 81.2496 303.317 78.4409C303.317 75.6321 305.239 73.4147 308.048 73.4147C310.857 73.4147 312.779 75.6321 312.779 78.4409C312.779 81.2496 310.857 83.4671 308.048 83.4671Z" fill="white"/>
<path d="M319.615 78.4409C319.556 82.107 319.142 83.1714 316.954 83.1714V86.128C321.005 86.128 322.247 84.1175 322.395 78.5L322.513 73.7103H327.895V85.8323H330.852V71.0494H319.763L319.615 78.4409Z" fill="white"/>
<path d="M341.368 83.5558C338.648 83.5558 336.933 81.6635 336.726 78.973H348.968C349.027 78.6774 349.057 78.3522 349.057 78.0565C349.057 74.006 345.922 70.7537 341.368 70.7537C336.815 70.7537 333.68 74.1242 333.68 78.4409C333.68 82.9053 336.815 86.128 341.368 86.128C345.183 86.128 347.637 84.3836 348.495 81.2496H345.656C345.065 82.6096 343.764 83.5558 341.368 83.5558ZM341.368 73.326C343.764 73.326 345.36 74.8043 345.893 76.9034H336.874C337.436 74.7451 339.121 73.326 341.368 73.326Z" fill="white"/>
<path d="M358.695 83.5558C355.974 83.5558 354.259 81.6635 354.052 78.973H366.294C366.353 78.6774 366.383 78.3522 366.383 78.0565C366.383 74.006 363.248 70.7537 358.695 70.7537C354.141 70.7537 351.006 74.1242 351.006 78.4409C351.006 82.9053 354.141 86.128 358.695 86.128C362.509 86.128 364.963 84.3836 365.821 81.2496H362.982C362.391 82.6096 361.09 83.5558 358.695 83.5558ZM358.695 73.326C361.09 73.326 362.687 74.8043 363.219 76.9034H354.2C354.762 74.7451 356.447 73.326 358.695 73.326Z" fill="white"/>
<path d="M391.141 81.6931V78.8843H388.479V65.1362H385.375L374.729 79.6235V81.6931H385.375V85.8323H388.479V81.6931H391.141ZM378.366 78.8843L385.375 69.3641V78.8843H378.366Z" fill="white"/>
<path d="M400.22 86.128C405.158 86.128 407.554 82.787 407.554 79.2687C407.554 74.7747 404.833 71.9659 400.368 71.9659C398.653 71.9659 397.263 72.5277 396.287 73.2668L396.879 67.945H406.164V65.1362H394.513L393.271 76.4008H395.933C396.849 75.4251 398.239 74.7747 400.191 74.7747C402.911 74.7747 404.301 76.6078 404.301 79.18C404.301 81.5453 402.911 83.3192 400.22 83.3192C397.529 83.3192 396.287 81.9592 395.903 79.7713H392.65C392.828 83.3784 395.164 86.128 400.22 86.128Z" fill="white"/>
<path d="M421.349 85.8323H424.306V73.7103H429.451V71.0494H416.203V73.7103H421.349V85.8323Z" fill="white"/>
<path d="M431.998 85.8323H438.474C442.466 85.8323 444.24 83.2601 444.24 80.7174C444.24 78.1452 442.466 75.6912 438.474 75.6912H434.955V71.0494H431.998V85.8323ZM446.221 85.8323H449.178V71.0494H446.221V85.8323ZM438.385 78.293C440.337 78.293 441.135 79.4757 441.135 80.7174C441.135 82.107 440.337 83.201 438.533 83.201H434.955V78.293H438.385Z" fill="white"/>
<path d="M459.647 83.4671C456.985 83.4671 455.123 81.4861 455.123 78.4409C455.123 75.4251 456.926 73.4147 459.647 73.4147C461.835 73.4147 463.106 74.479 463.668 76.3713H466.625C466.063 72.912 463.55 70.7537 459.647 70.7537C455.123 70.7537 452.018 74.1834 452.018 78.4409C452.018 82.7279 455.123 86.128 459.706 86.128C463.461 86.128 466.034 84.1175 466.743 80.3626H463.786C463.254 82.4323 461.835 83.4671 459.647 83.4671Z" fill="white"/>
<path d="M476.584 85.8323H479.393V74.5382L483.947 85.8323H486.312L490.866 74.5382V85.8323H493.823V71.0494H489.654L485.277 81.9592L480.871 71.0494H476.584V85.8323Z" fill="white"/>
<path d="M504.734 73.5329H496.395V71.9364L499.796 68.625C500.604 67.8563 501.205 67.2354 501.599 66.7623C502.013 66.2696 502.289 65.836 502.427 65.4614C502.585 65.0672 502.664 64.6533 502.664 64.2197C502.664 63.5889 502.477 63.1159 502.102 62.8005C501.747 62.4852 501.274 62.3275 500.683 62.3275C500.091 62.3275 499.549 62.4457 499.056 62.6823C498.583 62.8991 498.09 63.2046 497.578 63.5988L496.543 62.2388C497.115 61.746 497.736 61.3518 498.406 61.0561C499.096 60.7605 499.865 60.6126 500.712 60.6126C501.974 60.6126 502.96 60.928 503.669 61.5588C504.399 62.1698 504.763 63.0173 504.763 64.1014C504.763 64.7519 504.625 65.353 504.349 65.9049C504.093 66.4371 503.709 66.989 503.196 67.5606C502.703 68.1125 502.092 68.7334 501.363 69.4233L498.968 71.6998H504.734V73.5329Z" fill="white"/>
<path d="M1.58846 118.086H4.54545V105.964H11.1987V118.086H14.1557V103.303H1.58846V118.086Z" fill="white"/>
<path d="M20.832 103.303H17.875V123.999H20.832V114.775C21.8965 116.962 23.9073 118.382 26.5981 118.382C30.7083 118.382 33.3992 114.982 33.3992 110.695C33.3992 106.407 30.6492 103.007 26.5981 103.007C23.9073 103.007 21.8965 104.427 20.832 106.614V103.303ZM25.5632 105.668C28.3427 105.668 30.2944 107.62 30.2944 110.695C30.2944 113.769 28.3427 115.721 25.5632 115.721C22.9019 115.721 20.832 113.681 20.832 110.695C20.832 107.738 22.9019 105.668 25.5632 105.668Z" fill="white"/>
<path d="M43.1896 118.382C47.7729 118.382 51.0256 114.982 51.0256 110.695C51.0256 106.407 47.7729 103.007 43.1896 103.007C38.6063 103.007 35.3536 106.407 35.3536 110.695C35.3536 114.982 38.6063 118.382 43.1896 118.382ZM43.1896 115.721C40.3805 115.721 38.4584 113.503 38.4584 110.695C38.4584 107.886 40.3805 105.668 43.1896 105.668C45.9987 105.668 47.9208 107.886 47.9208 110.695C47.9208 113.503 45.9987 115.721 43.1896 115.721Z" fill="white"/>
<path d="M60.5975 115.721C57.9362 115.721 56.0733 113.74 56.0733 110.695C56.0733 107.679 57.8771 105.668 60.5975 105.668C62.7857 105.668 64.0572 106.733 64.619 108.625H67.576C67.0142 105.166 64.5007 103.007 60.5975 103.007C56.0733 103.007 52.9685 106.437 52.9685 110.695C52.9685 114.982 56.0733 118.382 60.6566 118.382C64.412 118.382 66.9846 116.371 67.6943 112.616H64.7373C64.205 114.686 62.7857 115.721 60.5975 115.721Z" fill="white"/>
<path d="M74.22 118.086H77.177V105.964H82.3221V103.303H69.0748V105.964H74.22V118.086Z" fill="white"/>
<path d="M91.2407 118.382C95.824 118.382 99.0767 114.982 99.0767 110.695C99.0767 106.407 95.824 103.007 91.2407 103.007C86.6573 103.007 83.4047 106.407 83.4047 110.695C83.4047 114.982 86.6573 118.382 91.2407 118.382ZM91.2407 115.721C88.4315 115.721 86.5095 113.503 86.5095 110.695C86.5095 107.886 88.4315 105.668 91.2407 105.668C94.0498 105.668 95.9719 107.886 95.9719 110.695C95.9719 113.503 94.0498 115.721 91.2407 115.721Z" fill="white"/>
<path d="M104.864 103.303H101.907V123.999H104.864V114.775C105.928 116.962 107.939 118.382 110.63 118.382C114.74 118.382 117.431 114.982 117.431 110.695C117.431 106.407 114.681 103.007 110.63 103.007C107.939 103.007 105.928 104.427 104.864 106.614V103.303ZM109.595 105.668C112.374 105.668 114.326 107.62 114.326 110.695C114.326 113.769 112.374 115.721 109.595 115.721C106.934 115.721 104.864 113.681 104.864 110.695C104.864 107.738 106.934 105.668 109.595 105.668Z" fill="white"/>
<path d="M120.272 118.086H123.229V111.877H130.178V118.086H133.135V103.303H130.178V109.216H123.229V103.303H120.272V118.086Z" fill="white"/>
<path d="M136.848 118.086H143.323C147.315 118.086 149.09 115.514 149.09 112.971C149.09 110.399 147.315 107.945 143.323 107.945H139.805V103.303H136.848V118.086ZM151.071 118.086H154.028V103.303H151.071V118.086ZM143.235 110.547C145.186 110.547 145.985 111.729 145.985 112.971C145.985 114.361 145.186 115.455 143.383 115.455H139.805V110.547H143.235Z" fill="white"/>
<path d="M159.529 118.086L163.402 112.794L167.217 118.086H170.736L165.295 110.547L170.499 103.303H167.306L163.757 108.388L160.09 103.303H156.572L161.865 110.635L156.276 118.086H159.529Z" fill="white"/>
<path d="M186.703 115.721C184.041 115.721 182.179 113.74 182.179 110.695C182.179 107.679 183.982 105.668 186.703 105.668C188.891 105.668 190.162 106.733 190.724 108.625H193.681C193.119 105.166 190.606 103.007 186.703 103.007C182.179 103.007 179.074 106.437 179.074 110.695C179.074 114.982 182.179 118.382 186.762 118.382C190.517 118.382 193.09 116.371 193.799 112.616H190.842C190.31 114.686 188.891 115.721 186.703 115.721Z" fill="white"/>
<path d="M196.652 118.086H199.609V111.138L206.203 118.086H210.195L202.773 110.34L209.633 103.303H206.084L199.609 109.955V103.303H196.652V118.086Z" fill="white"/>
<path d="M213.319 110.695C213.26 114.361 212.846 115.425 210.658 115.425V118.382C214.709 118.382 215.951 116.371 216.099 110.754L216.217 105.964H221.599V118.086H224.556V103.303H213.467L213.319 110.695Z" fill="white"/>
<path d="M237.557 108.832V109.068C230.785 109.068 227.68 110.872 227.68 114.242C227.68 116.903 229.425 118.382 232.205 118.382C235.25 118.382 236.817 116.696 237.557 114.538V118.086H240.514V109.128C240.514 105.018 238.355 103.007 234.363 103.007C230.696 103.007 228.39 104.811 227.917 108.241H230.874C231.11 106.703 232.293 105.668 234.363 105.668C236.374 105.668 237.557 106.703 237.557 108.832ZM230.785 114.095C230.785 112.321 232.678 111.197 237.557 111.197C237.557 113.74 235.93 115.839 232.885 115.839C231.584 115.839 230.785 115.218 230.785 114.095Z" fill="white"/>
<path d="M242.766 121.338H245.575V118.086H256.397V121.338H259.206V115.425H257.137V103.303H245.811V104.988C245.811 111.375 245.22 113.976 244.599 115.425H242.766V121.338ZM247.526 115.425C248.059 114.065 248.532 111.966 248.591 105.964H254.18V115.425H247.526Z" fill="white"/>
<path d="M268.338 115.721C265.676 115.721 263.813 113.74 263.813 110.695C263.813 107.679 265.617 105.668 268.338 105.668C270.526 105.668 271.797 106.733 272.359 108.625H275.316C274.754 105.166 272.241 103.007 268.338 103.007C263.813 103.007 260.709 106.437 260.709 110.695C260.709 114.982 263.813 118.382 268.397 118.382C272.152 118.382 274.725 116.371 275.434 112.616H272.477C271.945 114.686 270.526 115.721 268.338 115.721Z" fill="white"/>
<path d="M278.286 118.086H281.243V111.138L287.838 118.086H291.829L284.407 110.34L291.268 103.303H287.719L281.243 109.955V103.303H278.286V118.086Z" fill="white"/>
<path d="M293.476 118.086H296.433L303.677 107.561V118.086H306.634V103.303H303.677L296.433 113.828V103.303H293.476V118.086Z" fill="white"/>
<path d="M312.143 118.086L316.016 112.794L319.831 118.086H323.35L317.909 110.547L323.113 103.303H319.92L316.371 108.388L312.705 103.303H309.186L314.479 110.635L308.89 118.086H312.143Z" fill="white"/>
<path d="M332.575 118.086H335.532V105.964H342.185V118.086H345.142V103.303H332.575V118.086Z" fill="white"/>
<path d="M355.81 118.382C360.394 118.382 363.646 114.982 363.646 110.695C363.646 106.407 360.394 103.007 355.81 103.007C351.227 103.007 347.974 106.407 347.974 110.695C347.974 114.982 351.227 118.382 355.81 118.382ZM355.81 115.721C353.001 115.721 351.079 113.503 351.079 110.695C351.079 107.886 353.001 105.668 355.81 105.668C358.62 105.668 360.542 107.886 360.542 110.695C360.542 113.503 358.62 115.721 355.81 115.721Z" fill="white"/>
<path d="M366.476 118.086H369.286V106.792L373.839 118.086H376.205L380.759 106.792V118.086H383.716V103.303H379.546L375.17 114.213L370.764 103.303H366.476V118.086Z" fill="white"/>
<path d="M394.242 115.809C391.522 115.809 389.807 113.917 389.6 111.227H401.841C401.901 110.931 401.93 110.606 401.93 110.31C401.93 106.26 398.796 103.007 394.242 103.007C389.688 103.007 386.554 106.378 386.554 110.695C386.554 115.159 389.688 118.382 394.242 118.382C398.057 118.382 400.511 116.637 401.368 113.503H398.53C397.938 114.863 396.637 115.809 394.242 115.809ZM394.242 105.58C396.637 105.58 398.234 107.058 398.766 109.157H389.747C390.309 106.999 391.995 105.58 394.242 105.58Z" fill="white"/>
<path d="M404.767 118.086H424.135V121.338H426.944V115.425H424.875V103.303H421.918V115.366H416.299V103.303H413.342V115.366H407.724V103.303H404.767V118.086Z" fill="white"/>
<path d="M436.142 115.809C433.422 115.809 431.707 113.917 431.5 111.227H443.742C443.801 110.931 443.831 110.606 443.831 110.31C443.831 106.26 440.696 103.007 436.142 103.007C431.589 103.007 428.454 106.378 428.454 110.695C428.454 115.159 431.589 118.382 436.142 118.382C439.957 118.382 442.411 116.637 443.269 113.503H440.43C439.839 114.863 438.538 115.809 436.142 115.809ZM436.142 105.58C438.538 105.58 440.134 107.058 440.667 109.157H431.648C432.21 106.999 433.895 105.58 436.142 105.58Z" fill="white"/>
<path d="M446.667 118.086H449.624V111.877H456.573V118.086H459.53V103.303H456.573V109.216H449.624V103.303H446.667V118.086Z" fill="white"/>
<path d="M463.243 118.086H466.2L473.444 107.561V118.086H476.401V103.303H473.444L466.2 113.828V103.303H463.243V118.086Z" fill="white"/>
<path d="M482.206 97.3899C482.206 99.8734 483.832 101.529 486.73 101.529C489.628 101.529 491.254 99.8734 491.254 97.3899H488.622C488.622 98.7795 487.913 99.4299 486.73 99.4299C485.547 99.4299 484.837 98.7795 484.837 97.3899H482.206ZM480.136 118.086H483.093L490.337 107.561V118.086H493.294V103.303H490.337L483.093 113.828V103.303H480.136V118.086Z" fill="white"/>
<path d="M4.54545 135.557H1.58846V156.253H4.54545V147.028C5.60996 149.216 7.62072 150.635 10.3116 150.635C14.4218 150.635 17.1127 147.235 17.1127 142.948C17.1127 138.661 14.3627 135.261 10.3116 135.261C7.62072 135.261 5.60996 136.68 4.54545 138.868V135.557ZM9.27663 137.922C12.0562 137.922 14.0078 139.873 14.0078 142.948C14.0078 146.023 12.0562 147.974 9.27663 147.974C6.61534 147.974 4.54545 145.934 4.54545 142.948C4.54545 139.992 6.61534 137.922 9.27663 137.922Z" fill="white"/>
<path d="M29.0947 141.086V141.322C22.3232 141.322 19.2184 143.126 19.2184 146.496C19.2184 149.157 20.963 150.635 23.7425 150.635C26.7882 150.635 28.3555 148.95 29.0947 146.792V150.34H32.0517V141.381C32.0517 137.272 29.8931 135.261 25.9012 135.261C22.2345 135.261 19.928 137.065 19.4549 140.494H22.4119C22.6485 138.957 23.8313 137.922 25.9012 137.922C27.9119 137.922 29.0947 138.957 29.0947 141.086ZM22.3232 146.348C22.3232 144.574 24.2157 143.451 29.0947 143.451C29.0947 145.993 27.4684 148.093 24.4227 148.093C23.1216 148.093 22.3232 147.472 22.3232 146.348Z" fill="white"/>
<path d="M41.2821 150.635C45.8359 150.635 47.7284 148.447 47.7284 146.053C47.7284 144.397 46.5456 143.066 44.6531 142.653C46.3386 142.209 47.2552 140.938 47.2552 139.43C47.2552 137.183 45.4515 135.261 41.3117 135.261C37.5563 135.261 35.1907 137.212 34.895 140.258H37.9703C38.2364 139.045 39.0348 137.922 41.2525 137.922C43.2337 137.922 44.1504 138.809 44.1504 139.903C44.1504 140.967 43.4703 141.677 41.3708 141.677H39.3305V144.19H41.8144C43.8547 144.19 44.6235 144.959 44.6235 145.964C44.6235 147.028 43.9434 147.974 41.2821 147.974C39.0348 147.974 38.0294 147.028 37.6746 145.491H34.5993C34.895 148.536 36.9649 150.635 41.2821 150.635Z" fill="white"/>
<path d="M50.708 150.34H53.665V144.131H60.6139V150.34H63.5709V135.557H60.6139V141.47H53.665V135.557H50.708V150.34Z" fill="white"/>
<path d="M74.2322 150.635C78.8156 150.635 82.0682 147.235 82.0682 142.948C82.0682 138.661 78.8156 135.261 74.2322 135.261C69.6489 135.261 66.3962 138.661 66.3962 142.948C66.3962 147.235 69.6489 150.635 74.2322 150.635ZM74.2322 147.974C71.4231 147.974 69.501 145.757 69.501 142.948C69.501 140.139 71.4231 137.922 74.2322 137.922C77.0414 137.922 78.9634 140.139 78.9634 142.948C78.9634 145.757 77.0414 147.974 74.2322 147.974Z" fill="white"/>
<path d="M84.8982 150.34H87.8552V138.218H94.8928V135.557H84.8982V150.34Z" fill="white"/>
<path d="M103.629 150.635C108.212 150.635 111.465 147.235 111.465 142.948C111.465 138.661 108.212 135.261 103.629 135.261C99.0455 135.261 95.7928 138.661 95.7928 142.948C95.7928 147.235 99.0455 150.635 103.629 150.635ZM103.629 147.974C100.82 147.974 98.8977 145.757 98.8977 142.948C98.8977 140.139 100.82 137.922 103.629 137.922C106.438 137.922 108.36 140.139 108.36 142.948C108.36 145.757 106.438 147.974 103.629 147.974Z" fill="white"/>
<path d="M121.283 150.34H124.24V144.131H131.189V150.34H134.146V135.557H131.189V141.47H124.24V135.557H121.283V150.34Z" fill="white"/>
<path d="M147.143 141.086V141.322C140.372 141.322 137.267 143.126 137.267 146.496C137.267 149.157 139.012 150.635 141.791 150.635C144.837 150.635 146.404 148.95 147.143 146.792V150.34H150.1V141.381C150.1 137.272 147.942 135.261 143.95 135.261C140.283 135.261 137.977 137.065 137.503 140.494H140.46C140.697 138.957 141.88 137.922 143.95 137.922C145.96 137.922 147.143 138.957 147.143 141.086ZM140.372 146.348C140.372 144.574 142.264 143.451 147.143 143.451C147.143 145.993 145.517 148.093 142.471 148.093C141.17 148.093 140.372 147.472 140.372 146.348Z" fill="white"/>
<path d="M159.331 150.635C163.884 150.635 165.777 148.447 165.777 146.053C165.777 144.397 164.594 143.066 162.702 142.653C164.387 142.209 165.304 140.938 165.304 139.43C165.304 137.183 163.5 135.261 159.36 135.261C155.605 135.261 153.239 137.212 152.944 140.258H156.019C156.285 139.045 157.083 137.922 159.301 137.922C161.282 137.922 162.199 138.809 162.199 139.903C162.199 140.967 161.519 141.677 159.419 141.677H157.379V144.19H159.863C161.903 144.19 162.672 144.959 162.672 145.964C162.672 147.028 161.992 147.974 159.331 147.974C157.083 147.974 156.078 147.028 155.723 145.491H152.648C152.944 148.536 155.013 150.635 159.331 150.635Z" fill="white"/>
<path d="M168.757 150.34H171.714V144.131H178.662V150.34H181.619V135.557H178.662V141.47H171.714V135.557H168.757V150.34Z" fill="white"/>
<path d="M194.617 141.086V141.322C187.845 141.322 184.74 143.126 184.74 146.496C184.74 149.157 186.485 150.635 189.265 150.635C192.31 150.635 193.878 148.95 194.617 146.792V150.34H197.574V141.381C197.574 137.272 195.415 135.261 191.423 135.261C187.757 135.261 185.45 137.065 184.977 140.494H187.934C188.171 138.957 189.353 137.922 191.423 137.922C193.434 137.922 194.617 138.957 194.617 141.086ZM187.845 146.348C187.845 144.574 189.738 143.451 194.617 143.451C194.617 145.993 192.99 148.093 189.945 148.093C188.644 148.093 187.845 147.472 187.845 146.348Z" fill="white"/>
<path d="M200.861 139.4C200.861 143.953 203.611 145.254 207.07 145.254C208.283 145.254 209.406 145.106 210.471 144.84V150.34H213.428V135.557H210.471V142.268C209.525 142.505 208.578 142.593 207.691 142.593C205.178 142.593 203.818 141.795 203.818 139.4V135.557H200.861V139.4Z" fill="white"/>
<path d="M223.955 148.063C221.235 148.063 219.52 146.171 219.313 143.48H231.555C231.614 143.185 231.643 142.859 231.643 142.564C231.643 138.513 228.509 135.261 223.955 135.261C219.401 135.261 216.267 138.632 216.267 142.948C216.267 147.413 219.401 150.635 223.955 150.635C227.77 150.635 230.224 148.891 231.082 145.757H228.243C227.651 147.117 226.35 148.063 223.955 148.063ZM223.955 137.833C226.35 137.833 227.947 139.312 228.479 141.411H219.461C220.022 139.252 221.708 137.833 223.955 137.833Z" fill="white"/>
<path d="M234.48 150.34H237.437V144.131H244.386V150.34H247.343V135.557H244.386V141.47H237.437V135.557H234.48V150.34Z" fill="white"/>
<path d="M251.056 150.34H254.013L261.257 139.814V150.34H264.214V135.557H261.257L254.013 146.082V135.557H251.056V150.34Z" fill="white"/>
<path d="M270.462 150.34L274.572 145.106H277.026V150.34H279.983V135.557H273.508C269.516 135.557 267.742 138.04 267.742 140.524C267.742 142.623 269.013 144.16 271.438 144.722L266.914 150.34H270.462ZM273.596 142.8C271.645 142.8 270.846 141.677 270.846 140.524C270.846 139.223 271.645 138.188 273.449 138.188H277.026V142.8H273.596Z" fill="white"/>
<path d="M284.07 153.001H285.667L286.938 150.221C287.382 149.246 287.5 148.743 287.5 148.388C287.5 147.176 286.524 146.289 285.312 146.289C284.07 146.289 283.124 147.176 283.124 148.388C283.124 149.157 283.449 149.896 284.573 150.399L284.07 153.001Z" fill="white"/>
<path d="M304.376 147.974C301.715 147.974 299.852 145.993 299.852 142.948C299.852 139.932 301.655 137.922 304.376 137.922C306.564 137.922 307.836 138.986 308.397 140.879H311.354C310.793 137.419 308.279 135.261 304.376 135.261C299.852 135.261 296.747 138.691 296.747 142.948C296.747 147.235 299.852 150.635 304.435 150.635C308.19 150.635 310.763 148.625 311.473 144.87H308.516C307.983 146.94 306.564 147.974 304.376 147.974Z" fill="white"/>
<path d="M321.129 150.635C325.713 150.635 328.965 147.235 328.965 142.948C328.965 138.661 325.713 135.261 321.129 135.261C316.546 135.261 313.293 138.661 313.293 142.948C313.293 147.235 316.546 150.635 321.129 150.635ZM321.129 147.974C318.32 147.974 316.398 145.757 316.398 142.948C316.398 140.139 318.32 137.922 321.129 137.922C323.938 137.922 325.861 140.139 325.861 142.948C325.861 145.757 323.938 147.974 321.129 147.974Z" fill="white"/>
<path d="M331.795 150.34H338.862C342.914 150.34 344.215 148.211 344.215 146.2C344.215 144.22 342.884 143.096 340.725 142.741C342.618 142.239 343.564 140.938 343.564 139.4C343.564 136.946 341.76 135.557 338.478 135.557H331.795V150.34ZM338.33 141.706H334.693V138.07H338.33C339.868 138.07 340.518 138.868 340.518 139.903C340.518 140.908 339.868 141.706 338.33 141.706ZM338.537 144.072C340.459 144.072 341.11 144.959 341.11 145.905C341.11 146.969 340.459 147.827 338.685 147.827H334.693V144.072H338.537Z" fill="white"/>
<path d="M350.028 135.557H347.071V156.253H350.028V147.028C351.093 149.216 353.103 150.635 355.794 150.635C359.904 150.635 362.595 147.235 362.595 142.948C362.595 138.661 359.845 135.261 355.794 135.261C353.103 135.261 351.093 136.68 350.028 138.868V135.557ZM354.759 137.922C357.539 137.922 359.49 139.873 359.49 142.948C359.49 146.023 357.539 147.974 354.759 147.974C352.098 147.974 350.028 145.934 350.028 142.948C350.028 139.992 352.098 137.922 354.759 137.922Z" fill="white"/>
<path d="M372.238 148.063C369.517 148.063 367.802 146.171 367.595 143.48H379.837C379.896 143.185 379.926 142.859 379.926 142.564C379.926 138.513 376.792 135.261 372.238 135.261C367.684 135.261 364.55 138.632 364.55 142.948C364.55 147.413 367.684 150.635 372.238 150.635C376.052 150.635 378.507 148.891 379.364 145.757H376.525C375.934 147.117 374.633 148.063 372.238 148.063ZM372.238 137.833C374.633 137.833 376.23 139.312 376.762 141.411H367.743C368.305 139.252 369.991 137.833 372.238 137.833Z" fill="white"/>
<path d="M382.763 150.34H385.572V139.045L390.126 150.34H392.491L397.045 139.045V150.34H400.002V135.557H395.833L391.456 146.467L387.051 135.557H382.763V150.34Z" fill="white"/>
<path d="M410.529 148.063C407.808 148.063 406.093 146.171 405.886 143.48H418.128C418.187 143.185 418.217 142.859 418.217 142.564C418.217 138.513 415.082 135.261 410.529 135.261C405.975 135.261 402.84 138.632 402.84 142.948C402.84 147.413 405.975 150.635 410.529 150.635C414.343 150.635 416.797 148.891 417.655 145.757H414.816C414.225 147.117 412.924 148.063 410.529 148.063ZM410.529 137.833C412.924 137.833 414.521 139.312 415.053 141.411H406.034C406.596 139.252 408.281 137.833 410.529 137.833Z" fill="white"/>
<path d="M421.054 150.34H424.011V144.131H430.96V150.34H433.917V135.557H430.96V141.47H424.011V135.557H421.054V150.34Z" fill="white"/>
<path d="M437.629 150.34H440.586V144.131H447.535V150.34H450.492V135.557H447.535V141.47H440.586V135.557H437.629V150.34Z" fill="white"/>
<path d="M461.153 150.635C465.736 150.635 468.989 147.235 468.989 142.948C468.989 138.661 465.736 135.261 461.153 135.261C456.57 135.261 453.317 138.661 453.317 142.948C453.317 147.235 456.57 150.635 461.153 150.635ZM461.153 147.974C458.344 147.974 456.422 145.757 456.422 142.948C456.422 140.139 458.344 137.922 461.153 137.922C463.962 137.922 465.884 140.139 465.884 142.948C465.884 145.757 463.962 147.974 461.153 147.974Z" fill="white"/>
<path d="M478.62 148.063C475.9 148.063 474.185 146.171 473.978 143.48H486.22C486.279 143.185 486.308 142.859 486.308 142.564C486.308 138.513 483.174 135.261 478.62 135.261C474.066 135.261 470.932 138.632 470.932 142.948C470.932 147.413 474.066 150.635 478.62 150.635C482.435 150.635 484.889 148.891 485.747 145.757H482.908C482.316 147.117 481.015 148.063 478.62 148.063ZM478.62 137.833C481.015 137.833 482.612 139.312 483.144 141.411H474.126C474.687 139.252 476.373 137.833 478.62 137.833Z" fill="white"/>
<path d="M8.53738 182.889C13.1207 182.889 16.3734 179.489 16.3734 175.202C16.3734 170.915 13.1207 167.515 8.53738 167.515C3.95405 167.515 0.701361 170.915 0.701361 175.202C0.701361 179.489 3.95405 182.889 8.53738 182.889ZM8.53738 180.228C5.72824 180.228 3.8062 178.011 3.8062 175.202C3.8062 172.393 5.72824 170.176 8.53738 170.176C11.3465 170.176 13.2686 172.393 13.2686 175.202C13.2686 178.011 11.3465 180.228 8.53738 180.228Z" fill="white"/>
<path d="M26.2705 182.889C30.9722 182.889 34.1066 179.607 34.1066 175.497C34.1066 171.447 31.534 168.136 27.3351 168.136C24.5555 168.136 22.2786 169.732 21.3028 172.038C21.4211 167.633 22.7222 165.77 27.749 165.12C30.7947 164.736 32.8646 164.115 33.3377 161.306H30.5582C30.3512 162.045 29.2867 162.282 27.2759 162.518C21.0662 163.257 18.4641 166.332 18.4641 173.487C18.4641 176.03 18.7894 178.04 19.7652 179.548C20.9184 181.381 23.2544 182.889 26.2705 182.889ZM26.2705 180.228C23.5205 180.228 21.5689 178.277 21.5689 175.497C21.5689 172.777 23.5205 170.797 26.2705 170.797C29.0501 170.797 31.0017 172.777 31.0017 175.497C31.0017 178.277 29.0501 180.228 26.2705 180.228Z" fill="white"/>
<path d="M43.8826 182.889C48.466 182.889 51.7187 179.489 51.7187 175.202C51.7187 170.915 48.466 167.515 43.8826 167.515C39.2993 167.515 36.0466 170.915 36.0466 175.202C36.0466 179.489 39.2993 182.889 43.8826 182.889ZM43.8826 180.228C41.0735 180.228 39.1515 178.011 39.1515 175.202C39.1515 172.393 41.0735 170.176 43.8826 170.176C46.6918 170.176 48.6138 172.393 48.6138 175.202C48.6138 178.011 46.6918 180.228 43.8826 180.228Z" fill="white"/>
<path d="M57.5056 167.81H54.5486V188.506H57.5056V179.282C58.5701 181.47 60.5809 182.889 63.2717 182.889C67.3819 182.889 70.0728 179.489 70.0728 175.202C70.0728 170.915 67.3228 167.515 63.2717 167.515C60.5809 167.515 58.5701 168.934 57.5056 171.122V167.81ZM62.2368 170.176C65.0163 170.176 66.968 172.127 66.968 175.202C66.968 178.277 65.0163 180.228 62.2368 180.228C59.5755 180.228 57.5056 178.188 57.5056 175.202C57.5056 172.245 59.5755 170.176 62.2368 170.176Z" fill="white"/>
<path d="M79.2231 183.362L85.4919 167.81H82.6236L78.2768 178.838L73.8709 167.81H70.7069L76.6801 182.652C75.7338 185.284 75.1424 185.846 72.0376 185.846V188.506C76.4731 188.506 77.6263 187.353 79.2231 183.362Z" fill="white"/>
<path d="M85.6755 185.846H88.4847V182.593H99.3073V185.846H102.116V179.932H100.047V167.81H88.7212V169.496C88.7212 175.882 88.1298 178.484 87.5089 179.932H85.6755V185.846ZM90.4363 179.932C90.9686 178.572 91.4417 176.473 91.5008 170.471H97.0895V179.932H90.4363Z" fill="white"/>
<path d="M111.454 182.889C116.038 182.889 119.291 179.489 119.291 175.202C119.291 170.915 116.038 167.515 111.454 167.515C106.871 167.515 103.618 170.915 103.618 175.202C103.618 179.489 106.871 182.889 111.454 182.889ZM111.454 180.228C108.645 180.228 106.723 178.011 106.723 175.202C106.723 172.393 108.645 170.176 111.454 170.176C114.264 170.176 116.186 172.393 116.186 175.202C116.186 178.011 114.264 180.228 111.454 180.228Z" fill="white"/>
<path d="M122.12 182.593H129.188C133.239 182.593 134.54 180.465 134.54 178.454C134.54 176.473 133.209 175.35 131.051 174.995C132.943 174.492 133.889 173.191 133.889 171.654C133.889 169.2 132.085 167.81 128.803 167.81H122.12V182.593ZM128.655 173.96H125.018V170.323H128.655C130.193 170.323 130.844 171.122 130.844 172.157C130.844 173.162 130.193 173.96 128.655 173.96ZM128.862 176.325C130.784 176.325 131.435 177.212 131.435 178.158C131.435 179.223 130.784 180.08 129.01 180.08H125.018V176.325H128.862Z" fill="white"/>
<path d="M146.681 173.339V173.576C139.91 173.576 136.805 175.379 136.805 178.75C136.805 181.411 138.549 182.889 141.329 182.889C144.375 182.889 145.942 181.204 146.681 179.045V182.593H149.638V173.635C149.638 169.525 147.48 167.515 143.488 167.515C139.821 167.515 137.515 169.318 137.041 172.748H139.998C140.235 171.21 141.418 170.176 143.488 170.176C145.498 170.176 146.681 171.21 146.681 173.339ZM139.91 178.602C139.91 176.828 141.802 175.704 146.681 175.704C146.681 178.247 145.055 180.346 142.009 180.346C140.708 180.346 139.91 179.725 139.91 178.602Z" fill="white"/>
<path d="M153.221 182.593H156.178V176.384H163.127V182.593H166.084V167.81H163.127V173.724H156.178V167.81H153.221V182.593Z" fill="white"/>
<path d="M169.796 182.593H172.753L179.998 172.068V182.593H182.955V167.81H179.998L172.753 178.336V167.81H169.796V182.593Z" fill="white"/>
<path d="M193.49 180.317C190.77 180.317 189.055 178.424 188.848 175.734H201.09C201.149 175.438 201.178 175.113 201.178 174.817C201.178 170.767 198.044 167.515 193.49 167.515C188.936 167.515 185.802 170.885 185.802 175.202C185.802 179.666 188.936 182.889 193.49 182.889C197.305 182.889 199.759 181.145 200.617 178.011H197.778C197.186 179.371 195.885 180.317 193.49 180.317ZM193.49 170.087C195.885 170.087 197.482 171.565 198.014 173.664H188.996C189.557 171.506 191.243 170.087 193.49 170.087Z" fill="white"/>
<path d="M211.003 182.593H213.96L221.205 172.068V182.593H224.162V167.81H221.205L213.96 178.336V167.81H211.003V182.593Z" fill="white"/>
<path d="M234.885 182.593H237.842V170.471H244.495V182.593H247.452V167.81H234.885V182.593Z" fill="white"/>
<path d="M254.128 167.81H251.171V188.506H254.128V179.282C255.193 181.47 257.203 182.889 259.894 182.889C264.004 182.889 266.695 179.489 266.695 175.202C266.695 170.915 263.945 167.515 259.894 167.515C257.203 167.515 255.193 168.934 254.128 171.122V167.81ZM258.859 170.176C261.639 170.176 263.59 172.127 263.59 175.202C263.59 178.277 261.639 180.228 258.859 180.228C256.198 180.228 254.128 178.188 254.128 175.202C254.128 172.245 256.198 170.176 258.859 170.176Z" fill="white"/>
<path d="M276.486 182.889C281.069 182.889 284.322 179.489 284.322 175.202C284.322 170.915 281.069 167.515 276.486 167.515C271.902 167.515 268.65 170.915 268.65 175.202C268.65 179.489 271.902 182.889 276.486 182.889ZM276.486 180.228C273.677 180.228 271.755 178.011 271.755 175.202C271.755 172.393 273.677 170.176 276.486 170.176C279.295 170.176 281.217 172.393 281.217 175.202C281.217 178.011 279.295 180.228 276.486 180.228Z" fill="white"/>
<path d="M287.152 182.593H290.109V170.471H297.146V167.81H287.152V182.593Z" fill="white"/>
<path d="M302.641 167.81H299.684V188.506H302.641V179.282C303.706 181.47 305.716 182.889 308.407 182.889C312.518 182.889 315.208 179.489 315.208 175.202C315.208 170.915 312.458 167.515 308.407 167.515C305.716 167.515 303.706 168.934 302.641 171.122V167.81ZM307.372 170.176C310.152 170.176 312.104 172.127 312.104 175.202C312.104 178.277 310.152 180.228 307.372 180.228C304.711 180.228 302.641 178.188 302.641 175.202C302.641 172.245 304.711 170.176 307.372 170.176Z" fill="white"/>
<path d="M327.19 173.339V173.576C320.419 173.576 317.314 175.379 317.314 178.75C317.314 181.411 319.059 182.889 321.838 182.889C324.884 182.889 326.451 181.204 327.19 179.045V182.593H330.147V173.635C330.147 169.525 327.989 167.515 323.997 167.515C320.33 167.515 318.024 169.318 317.551 172.748H320.508C320.744 171.21 321.927 170.176 323.997 170.176C326.008 170.176 327.19 171.21 327.19 173.339ZM320.419 178.602C320.419 176.828 322.311 175.704 327.19 175.704C327.19 178.247 325.564 180.346 322.518 180.346C321.217 180.346 320.419 179.725 320.419 178.602Z" fill="white"/>
<path d="M333.73 182.593H336.539V171.299L341.093 182.593H343.458L348.012 171.299V182.593H350.969V167.81H346.8L342.424 178.72L338.018 167.81H333.73V182.593Z" fill="white"/>
<path d="M354.695 182.593H357.504V171.299L362.058 182.593H364.423L368.977 171.299V182.593H371.934V167.81H367.764L363.388 178.72L358.982 167.81H354.695V182.593Z" fill="white"/>
<path d="M375.659 182.593H378.616V176.384H385.565V182.593H388.522V167.81H385.565V173.724H378.616V167.81H375.659V182.593Z" fill="white"/>
<path d="M399.183 182.889C403.767 182.889 407.019 179.489 407.019 175.202C407.019 170.915 403.767 167.515 399.183 167.515C394.6 167.515 391.347 170.915 391.347 175.202C391.347 179.489 394.6 182.889 399.183 182.889ZM399.183 180.228C396.374 180.228 394.452 178.011 394.452 175.202C394.452 172.393 396.374 170.176 399.183 170.176C401.993 170.176 403.915 172.393 403.915 175.202C403.915 178.011 401.993 180.228 399.183 180.228Z" fill="white"/>
<path d="M416.65 180.317C413.93 180.317 412.215 178.424 412.008 175.734H424.25C424.309 175.438 424.339 175.113 424.339 174.817C424.339 170.767 421.204 167.515 416.65 167.515C412.097 167.515 408.962 170.885 408.962 175.202C408.962 179.666 412.097 182.889 416.65 182.889C420.465 182.889 422.919 181.145 423.777 178.011H420.938C420.347 179.371 419.046 180.317 416.65 180.317ZM416.65 170.087C419.046 170.087 420.642 171.565 421.175 173.664H412.156C412.718 171.506 414.403 170.087 416.65 170.087Z" fill="white"/>
<path d="M8.53738 215.143C13.1207 215.143 16.3734 211.743 16.3734 207.455C16.3734 203.168 13.1207 199.768 8.53738 199.768C3.95405 199.768 0.701361 203.168 0.701361 207.455C0.701361 211.743 3.95405 215.143 8.53738 215.143ZM8.53738 212.482C5.72824 212.482 3.8062 210.264 3.8062 207.455C3.8062 204.647 5.72824 202.429 8.53738 202.429C11.3465 202.429 13.2686 204.647 13.2686 207.455C13.2686 210.264 11.3465 212.482 8.53738 212.482Z" fill="white"/>
<path d="M26.2705 215.143C30.9722 215.143 34.1066 211.861 34.1066 207.751C34.1066 203.701 31.534 200.389 27.3351 200.389C24.5555 200.389 22.2786 201.986 21.3028 204.292C21.4211 199.887 22.7222 198.024 27.749 197.374C30.7947 196.989 32.8646 196.368 33.3377 193.56H30.5582C30.3512 194.299 29.2867 194.535 27.2759 194.772C21.0662 195.511 18.4641 198.586 18.4641 205.741C18.4641 208.283 18.7894 210.294 19.7652 211.802C20.9184 213.635 23.2544 215.143 26.2705 215.143ZM26.2705 212.482C23.5205 212.482 21.5689 210.53 21.5689 207.751C21.5689 205.031 23.5205 203.05 26.2705 203.05C29.0501 203.05 31.0017 205.031 31.0017 207.751C31.0017 210.53 29.0501 212.482 26.2705 212.482Z" fill="white"/>
<path d="M43.7348 212.57C41.0144 212.57 39.2993 210.678 39.0923 207.988H51.3343C51.3934 207.692 51.423 207.367 51.423 207.071C51.423 203.021 48.2886 199.768 43.7348 199.768C39.181 199.768 36.0466 203.139 36.0466 207.455C36.0466 211.92 39.181 215.143 43.7348 215.143C47.5493 215.143 50.0036 213.398 50.8611 210.264H48.0224C47.431 211.624 46.13 212.57 43.7348 212.57ZM43.7348 202.341C46.13 202.341 47.7267 203.819 48.259 205.918H39.2402C39.802 203.76 41.4875 202.341 43.7348 202.341Z" fill="white"/>
<path d="M61.0018 212.482C58.3405 212.482 56.4776 210.501 56.4776 207.455C56.4776 204.44 58.2813 202.429 61.0018 202.429C63.1899 202.429 64.4614 203.494 65.0233 205.386H67.9803C67.4184 201.927 64.905 199.768 61.0018 199.768C56.4776 199.768 53.3727 203.198 53.3727 207.455C53.3727 211.743 56.4776 215.143 61.0609 215.143C64.8163 215.143 67.3889 213.132 68.0985 209.377H65.1416C64.6093 211.447 63.1899 212.482 61.0018 212.482Z" fill="white"/>
<path d="M70.9507 214.847H73.9076V202.725H80.5609V214.847H83.5179V200.064H70.9507V214.847Z" fill="white"/>
<path d="M94.0383 212.57C91.3178 212.57 89.6028 210.678 89.3958 207.988H101.638C101.697 207.692 101.726 207.367 101.726 207.071C101.726 203.021 98.592 199.768 94.0383 199.768C89.4845 199.768 86.3501 203.139 86.3501 207.455C86.3501 211.92 89.4845 215.143 94.0383 215.143C97.8528 215.143 100.307 213.398 101.165 210.264H98.3259C97.7345 211.624 96.4334 212.57 94.0383 212.57ZM94.0383 202.341C96.4334 202.341 98.0302 203.819 98.5625 205.918H89.5436C90.1055 203.76 91.791 202.341 94.0383 202.341Z" fill="white"/>
<path d="M104.268 203.908C104.268 208.461 107.018 209.762 110.477 209.762C111.69 209.762 112.813 209.614 113.878 209.348V214.847H116.835V200.064H113.878V206.775C112.932 207.012 111.985 207.101 111.098 207.101C108.585 207.101 107.225 206.302 107.225 203.908V200.064H104.268V203.908Z" fill="white"/>
<path d="M127.362 212.57C124.642 212.57 122.927 210.678 122.72 207.988H134.962C135.021 207.692 135.05 207.367 135.05 207.071C135.05 203.021 131.916 199.768 127.362 199.768C122.808 199.768 119.674 203.139 119.674 207.455C119.674 211.92 122.808 215.143 127.362 215.143C131.177 215.143 133.631 213.398 134.489 210.264H131.65C131.058 211.624 129.757 212.57 127.362 212.57ZM127.362 202.341C129.757 202.341 131.354 203.819 131.886 205.918H122.868C123.429 203.76 125.115 202.341 127.362 202.341Z" fill="white"/>
<path d="M137.887 214.847H140.844V208.638H147.793V214.847H150.75V200.064H147.793V205.977H140.844V200.064H137.887V214.847Z" fill="white"/>
<path d="M154.463 214.847H157.419L164.664 204.322V214.847H167.621V200.064H164.664L157.419 210.589V200.064H154.463V214.847Z" fill="white"/>
<path d="M178.157 212.57C175.436 212.57 173.721 210.678 173.514 207.988H185.756C185.815 207.692 185.845 207.367 185.845 207.071C185.845 203.021 182.71 199.768 178.157 199.768C173.603 199.768 170.468 203.139 170.468 207.455C170.468 211.92 173.603 215.143 178.157 215.143C181.971 215.143 184.425 213.398 185.283 210.264H182.444C181.853 211.624 180.552 212.57 178.157 212.57ZM178.157 202.341C180.552 202.341 182.148 203.819 182.681 205.918H173.662C174.224 203.76 175.909 202.341 178.157 202.341Z" fill="white"/>
<path d="M189.99 215.143C191.202 215.143 192.178 214.167 192.178 212.896C192.178 211.713 191.202 210.796 189.99 210.796C188.748 210.796 187.801 211.713 187.801 212.896C187.801 214.167 188.748 215.143 189.99 215.143Z" fill="white"/>
</g>
</svg>
