<svg width="518" height="286" viewBox="0 0 518 286" fill="none" xmlns="http://www.w3.org/2000/svg">
<g id="&#208;&#146; &#194;&#171;&#208;&#144;&#208;&#183;&#208;&#177;&#209;&#131;&#208;&#186;&#208;&#181; &#208;&#178;&#208;&#186;&#209;&#131;&#209;&#129;&#208;&#176;&#194;&#187; &#208;&#181;&#209;&#129;&#209;&#130;&#209;&#140; &#208;&#184;&#208;&#189;&#209;&#133;&#208;&#176;&#209;&#131;&#209;&#129; &#208;&#180;&#208;&#184;&#208;&#183;&#208;&#176;&#208;&#185;&#208;&#189;-&#209;&#129;&#209;&#130;&#209;&#131;&#208;&#180;&#208;&#184;&#209;&#143;, &#208;&#177;&#208;&#190;&#208;&#187;&#209;&#140;&#209;&#136;&#208;&#190;&#208;&#185; &#208;&#180;&#208;&#181;&#208;&#191;&#208;&#176;&#209;&#128;&#209;&#130;&#208;&#176;&#208;&#188;&#208;&#181;&#208;&#189;&#209;&#130; &#209;&#128;&#208;&#176;&#208;&#183;&#208;&#178;&#208;&#184;&#209;&#130;&#208;&#184;&#209;&#143; &#209;&#134;&#208;&#184;&#209;&#132;&#209;&#128;&#208;&#190;&#208;&#178;&#209;&#139;&#209;&#133; &#208;&#191;&#209;&#128;&#208;&#190;&#208;&#180;&#209;&#131;&#208;&#186;&#209;&#130;&#208;&#190;&#208;&#178;, &#208;&#186;&#208;&#190;&#208;&#188;&#208;&#188;&#208;&#181;&#209;&#128;&#209;&#135;&#208;&#181;&#209;&#129;&#208;&#186;&#208;&#190;&#208;&#181; &#209;&#131;&#208;&#191;&#209;&#128;&#208;&#176;&#208;&#178;&#208;&#187;&#208;&#181;&#208;&#189;&#208;&#184;&#208;&#181; &#208;&#184; &#208;&#188;&#208;&#189;&#208;&#190;&#208;&#182;&#208;&#181;&#209;&#129;&#209;&#130;&#208;&#178;&#208;&#190; &#208;&#180;&#209;&#128;&#209;&#131;&#208;&#179;&#208;&#184;&#209;&#133; &#209;&#141;&#208;&#186;&#209;&#129;&#208;&#191;&#208;&#181;&#209;&#128;&#209;&#130;&#208;&#189;&#209;&#139;&#209;&#133; &#208;&#180;&#208;&#181;&#208;&#191;&#208;&#176;&#209;&#128;&#209;&#130;&#208;&#176;&#208;&#188;&#208;&#181;&#208;&#189;&#209;&#130;&#208;&#190;&#208;&#178;. &#208;&#154;&#208;&#190;&#208;&#187;&#208;&#187;&#208;&#181;&#208;&#179;&#208;&#184; &#209;&#129;&#208;&#190;&#208;&#183;&#208;&#180;&#208;&#176;&#209;&#142;&#209;&#130; &#209;&#132;&#209;&#131;&#208;&#180;-&#209;&#129;&#208;&#181;&#209;&#128;&#208;&#178;&#208;&#184;&#209;&#129;&#209;&#139;, &#208;&#191;&#208;&#190;&#208;&#180;&#208;&#180;&#208;&#181;&#209;&#128;&#208;&#182;&#208;&#184;&#208;&#178;&#208;&#176;&#209;&#142;&#209;&#130; &#209;&#128;&#208;&#176;&#208;&#177;&#208;&#190;&#209;&#130;&#209;&#131; &#208;&#188;&#208;&#176;&#208;&#179;&#208;&#176;&#208;&#183;&#208;&#184;&#208;&#189;&#208;&#190;&#208;&#178; &#208;&#184;&#194;&#160;&#209;&#131;&#208;&#187;&#209;&#131;&#209;&#135;&#209;&#136;&#208;&#176;&#209;&#142;&#209;&#130; &#208;&#186;&#208;&#187;&#208;&#184;&#208;&#181;&#208;&#189;&#209;&#130;&#209;&#129;&#208;&#186;&#208;&#184;&#208;&#185; &#208;&#190;&#208;&#191;&#209;&#139;&#209;&#130;.">
<path d="M11.4058 21.7874C16.1666 21.7874 18.059 18.9195 18.059 15.8742C18.059 13.7159 16.6397 11.5576 13.1504 11.0254C15.9596 10.2863 17.0241 8.30538 17.0241 6.41317C17.0241 3.75224 15.1612 1.09132 10.5187 1.09132H2.26872V21.7874H11.4058ZM10.43 3.84094C12.766 3.84094 13.7714 5.1714 13.7714 6.85666C13.7714 8.48278 12.7365 9.99064 10.2822 9.99064H5.37356V3.84094H10.43ZM11.3171 12.6516C13.7418 12.6516 14.8064 14.1003 14.8064 15.8742C14.8064 17.5004 13.7418 19.0378 11.1693 19.0378H5.37356V12.6516H11.3171Z" fill="white"/>
<path d="M34.4525 18.3282L30.4015 14.0707L34.4525 9.81324L32.5305 8.18712L26.8531 14.189L32.5305 20.1613L34.4525 18.3282ZM40.8101 18.3282L36.759 14.0707L40.8101 9.81324L38.888 8.18712L33.2106 14.189L38.888 20.1613L40.8101 18.3282Z" fill="white"/>
<path d="M42.5371 21.7874H45.5828L47.771 16.0221H56.2871L58.5049 21.7874H61.7576L53.7737 1.09132H50.521L42.5371 21.7874ZM48.806 13.3611L51.9995 4.93488L55.2522 13.3611H48.806Z" fill="white"/>
<path d="M69.4208 22.0831C73.9746 22.0831 75.867 19.8952 75.867 17.5004C75.867 15.8447 74.6842 14.5142 72.7918 14.1003C74.4772 13.6568 75.3939 12.3855 75.3939 10.8776C75.3939 8.63061 73.5901 6.70883 69.4504 6.70883C65.695 6.70883 63.3294 8.66017 63.0337 11.7055H66.109C66.3751 10.4933 67.1735 9.36976 69.3912 9.36976C71.3724 9.36976 72.2891 10.2567 72.2891 11.3507C72.2891 12.415 71.609 13.1246 69.5095 13.1246H67.4692V15.6377H69.953C71.9934 15.6377 72.7622 16.4064 72.7622 17.4117C72.7622 18.476 72.0821 19.4221 69.4208 19.4221C67.1735 19.4221 66.1681 18.476 65.8133 16.9386H62.738C63.0337 19.9839 65.1036 22.0831 69.4208 22.0831Z" fill="white"/>
<path d="M85.9139 22.0831C90.6155 22.0831 93.7499 18.8013 93.7499 14.6916C93.7499 10.6411 91.1773 7.32971 86.9784 7.32971C84.1988 7.32971 81.9219 8.92627 80.9461 11.2324C81.0644 6.82709 82.3655 4.96444 87.3924 4.314C90.4381 3.92964 92.5079 3.30876 92.9811 0.5H90.2015C89.9945 1.23915 88.93 1.47567 86.9192 1.7122C80.7096 2.45135 78.1074 5.52619 78.1074 12.6811C78.1074 15.2238 78.4327 17.2343 79.4085 18.7421C80.5617 20.5752 82.8977 22.0831 85.9139 22.0831ZM85.9139 19.4221C83.1639 19.4221 81.2122 17.4708 81.2122 14.6916C81.2122 11.9715 83.1639 9.99064 85.9139 9.99064C88.6934 9.99064 90.6451 11.9715 90.6451 14.6916C90.6451 17.4708 88.6934 19.4221 85.9139 19.4221Z" fill="white"/>
<path d="M102.886 22.5561L109.155 7.00449H106.286L101.94 18.0325L97.5337 7.00449H94.3697L100.343 21.8465C99.3966 24.4779 98.8052 25.0397 95.7003 25.0397V27.7006C100.136 27.7006 101.289 26.5475 102.886 22.5561Z" fill="white"/>
<path d="M111.102 21.7874H114.059V14.8394L120.653 21.7874H124.645L117.223 14.0412L124.083 7.00449H120.535L114.059 13.6568V7.00449H111.102V21.7874Z" fill="white"/>
<path d="M132.659 19.5108C129.939 19.5108 128.224 17.6186 128.017 14.9281H140.259C140.318 14.6325 140.347 14.3073 140.347 14.0116C140.347 9.96107 137.213 6.70883 132.659 6.70883C128.105 6.70883 124.971 10.0793 124.971 14.396C124.971 18.8604 128.105 22.0831 132.659 22.0831C136.474 22.0831 138.928 20.3387 139.786 17.2047H136.947C136.355 18.5647 135.054 19.5108 132.659 19.5108ZM132.659 9.28106C135.054 9.28106 136.651 10.7594 137.183 12.8585H128.165C128.726 10.7002 130.412 9.28106 132.659 9.28106Z" fill="white"/>
<path d="M202.186 19.4221C199.525 19.4221 197.662 17.4412 197.662 14.396C197.662 11.3802 199.465 9.36976 202.186 9.36976C204.374 9.36976 205.646 10.4341 206.207 12.3263H209.164C208.603 8.86714 206.089 6.70883 202.186 6.70883C197.662 6.70883 194.557 10.1385 194.557 14.396C194.557 18.683 197.662 22.0831 202.245 22.0831C206 22.0831 208.573 20.0726 209.283 16.3177H206.326C205.793 18.3873 204.374 19.4221 202.186 19.4221ZM221.259 12.5333V12.7698C214.487 12.7698 211.382 14.5733 211.382 17.9439C211.382 20.6048 213.127 22.0831 215.906 22.0831C218.952 22.0831 220.519 20.3978 221.259 18.2395V21.7874H224.215V12.829C224.215 8.71931 222.057 6.70883 218.065 6.70883C214.398 6.70883 212.092 8.51235 211.619 11.942H214.576C214.812 10.4046 215.995 9.36976 218.065 9.36976C220.076 9.36976 221.259 10.4046 221.259 12.5333ZM187.519 22.5561L193.788 7.00449H190.92L186.573 18.0325L182.167 7.00449H179.003L184.976 21.8465C184.03 24.4779 183.439 25.0397 180.334 25.0397V27.7006C184.769 27.7006 185.922 26.5475 187.519 22.5561ZM150.172 21.7874H157.24C161.291 21.7874 162.592 19.6587 162.592 17.6482C162.592 15.6673 161.261 14.5438 159.103 14.189C160.995 13.6864 161.941 12.3855 161.941 10.848C161.941 8.39408 160.138 7.00449 156.855 7.00449H150.172V21.7874ZM165.49 21.7874H168.447V14.8394L175.041 21.7874H179.033L171.611 14.0412L178.471 7.00449H174.922L168.447 13.6568V7.00449H165.49V21.7874ZM156.707 13.1542H153.07V9.51759H156.707C158.245 9.51759 158.896 10.3159 158.896 11.3507C158.896 12.3559 158.245 13.1542 156.707 13.1542ZM214.487 17.796C214.487 16.0221 216.379 14.8986 221.259 14.8986C221.259 17.4412 219.632 19.5404 216.586 19.5404C215.285 19.5404 214.487 18.9195 214.487 17.796ZM156.914 15.5195C158.836 15.5195 159.487 16.4064 159.487 17.3525C159.487 18.4169 158.836 19.2743 157.062 19.2743H153.07V15.5195H156.914Z" fill="white"/>
<path d="M234.447 10.0202L238.498 14.2777L234.447 18.5352L236.369 20.1613L242.046 14.1594L236.369 8.18712L234.447 10.0202ZM228.089 10.0202L232.14 14.2777L228.089 18.5352L230.011 20.1613L235.689 14.1594L230.011 8.18712L228.089 10.0202Z" fill="white"/>
<path d="M258.909 19.5108C256.188 19.5108 254.473 17.6186 254.266 14.9281H266.508C266.567 14.6325 266.597 14.3073 266.597 14.0116C266.597 9.96107 263.463 6.70883 258.909 6.70883C254.355 6.70883 251.221 10.0793 251.221 14.396C251.221 18.8604 254.355 22.0831 258.909 22.0831C262.723 22.0831 265.178 20.3387 266.035 17.2047H263.196C262.605 18.5647 261.304 19.5108 258.909 19.5108ZM258.909 9.28106C261.304 9.28106 262.901 10.7594 263.433 12.8585H254.414C254.976 10.7002 256.662 9.28106 258.909 9.28106Z" fill="white"/>
<path d="M276.176 19.4221C273.514 19.4221 271.652 17.4412 271.652 14.396C271.652 11.3802 273.455 9.36976 276.176 9.36976C278.364 9.36976 279.635 10.4341 280.197 12.3263H283.154C282.592 8.86714 280.079 6.70883 276.176 6.70883C271.652 6.70883 268.547 10.1385 268.547 14.396C268.547 18.683 271.652 22.0831 276.235 22.0831C279.99 22.0831 282.563 20.0726 283.273 16.3177H280.316C279.783 18.3873 278.364 19.4221 276.176 19.4221Z" fill="white"/>
<path d="M289.798 21.7874H292.755V9.66541H297.9V7.00449H284.653V9.66541H289.798V21.7874Z" fill="white"/>
<path d="M300.448 21.7874H306.923C310.915 21.7874 312.69 19.2152 312.69 16.6725C312.69 14.1003 310.915 11.6463 306.923 11.6463H303.405V7.00449H300.448V21.7874ZM306.835 14.2481C308.786 14.2481 309.585 15.4308 309.585 16.6725C309.585 18.0621 308.786 19.1561 306.983 19.1561H303.405V14.2481H306.835Z" fill="white"/>
<path d="M322.221 21.7874H325.178L332.422 11.262V21.7874H335.379V7.00449H332.422L325.178 17.5299V7.00449H322.221V21.7874Z" fill="white"/>
<path d="M339.114 21.7874H342.071V15.5786H349.02V21.7874H351.977V7.00449H349.02V12.9177H342.071V7.00449H339.114V21.7874Z" fill="white"/>
<path d="M357.463 21.7874L361.337 16.4951L365.151 21.7874H368.67L363.229 14.2481L368.434 7.00449H365.24L361.692 12.0898L358.025 7.00449H354.506L359.799 14.3368L354.211 21.7874H357.463Z" fill="white"/>
<path d="M379.903 12.5333V12.7698C373.132 12.7698 370.027 14.5733 370.027 17.9439C370.027 20.6048 371.772 22.0831 374.551 22.0831C377.597 22.0831 379.164 20.3978 379.903 18.2395V21.7874H382.86V12.829C382.86 8.71931 380.702 6.70883 376.71 6.70883C373.043 6.70883 370.737 8.51235 370.263 11.942H373.22C373.457 10.4046 374.64 9.36976 376.71 9.36976C378.72 9.36976 379.903 10.4046 379.903 12.5333ZM373.132 17.796C373.132 16.0221 375.024 14.8986 379.903 14.8986C379.903 17.4412 378.277 19.5404 375.231 19.5404C373.93 19.5404 373.132 18.9195 373.132 17.796Z" fill="white"/>
<path d="M393.04 22.5561L399.309 7.00449H396.441L392.094 18.0325L387.688 7.00449H384.524L390.497 21.8465C389.551 24.4779 388.96 25.0397 385.855 25.0397V27.7006C390.29 27.7006 391.444 26.5475 393.04 22.5561Z" fill="white"/>
<path d="M407.565 19.4221C404.904 19.4221 403.041 17.4412 403.041 14.396C403.041 11.3802 404.845 9.36976 407.565 9.36976C409.754 9.36976 411.025 10.4341 411.587 12.3263H414.544C413.982 8.86714 411.469 6.70883 407.565 6.70883C403.041 6.70883 399.936 10.1385 399.936 14.396C399.936 18.683 403.041 22.0831 407.625 22.0831C411.38 22.0831 413.953 20.0726 414.662 16.3177H411.705C411.173 18.3873 409.754 19.4221 407.565 19.4221Z" fill="white"/>
<path d="M0.790228 57.2933H3.59937V54.0411H14.422V57.2933H17.2311V51.3801H15.1612V39.2581H3.83593V40.9434C3.83593 47.3296 3.24453 49.9314 2.62356 51.3801H0.790228V57.2933ZM5.55098 51.3801C6.08324 50.0201 6.55636 47.9209 6.6155 41.9191H12.2042V51.3801H5.55098Z" fill="white"/>
<path d="M19.6202 54.0411H22.5772L29.8219 43.5156V54.0411H32.7788V39.2581H29.8219L22.5772 49.7836V39.2581H19.6202V54.0411Z" fill="white"/>
<path d="M42.161 54.3367C46.7148 54.3367 48.6073 52.1489 48.6073 49.754C48.6073 48.0983 47.4245 46.7679 45.532 46.3539C47.2175 45.9105 48.1342 44.6391 48.1342 43.1313C48.1342 40.8843 46.3304 38.9625 42.1906 38.9625C38.4352 38.9625 36.0697 40.9138 35.774 43.9591H38.8492C39.1154 42.7469 39.9137 41.6234 42.1315 41.6234C44.1127 41.6234 45.0293 42.5104 45.0293 43.6043C45.0293 44.6687 44.3492 45.3783 42.2498 45.3783H40.2094V47.8914H42.6933C44.7336 47.8914 45.5024 48.6601 45.5024 49.6653C45.5024 50.7297 44.8223 51.6758 42.161 51.6758C39.9137 51.6758 38.9084 50.7297 38.5535 49.1923H35.4783C35.774 52.2375 37.8438 54.3367 42.161 54.3367Z" fill="white"/>
<path d="M60.7275 44.787V45.0235C53.956 45.0235 50.8511 46.827 50.8511 50.1975C50.8511 52.8584 52.5958 54.3367 55.3753 54.3367C58.421 54.3367 59.9882 52.6515 60.7275 50.4932V54.0411H63.6845V45.0826C63.6845 40.973 61.5259 38.9625 57.5339 38.9625C53.8673 38.9625 51.5608 40.766 51.0877 44.1956H54.0447C54.2812 42.6582 55.464 41.6234 57.5339 41.6234C59.5447 41.6234 60.7275 42.6582 60.7275 44.787ZM53.956 50.0497C53.956 48.2757 55.8484 47.1522 60.7275 47.1522C60.7275 49.6949 59.1011 51.7941 56.0554 51.7941C54.7544 51.7941 53.956 51.1732 53.956 50.0497Z" fill="white"/>
<path d="M69.3369 33.345C69.3369 35.8285 70.9633 37.4842 73.8611 37.4842C76.759 37.4842 78.3853 35.8285 78.3853 33.345H75.7536C75.7536 34.7346 75.0439 35.385 73.8611 35.385C72.6783 35.385 71.9687 34.7346 71.9687 33.345H69.3369ZM67.267 54.0411H70.224L77.4687 43.5156V54.0411H80.4256V39.2581H77.4687L70.224 49.7836V39.2581H67.267V54.0411Z" fill="white"/>
<path d="M84.16 54.0411H87.117V47.8322H94.0659V54.0411H97.0229V39.2581H94.0659V45.1713H87.117V39.2581H84.16V54.0411Z" fill="white"/>
<path d="M110.346 47.8322V45.1713H100.44V47.8322H110.346Z" fill="white"/>
<path d="M120.53 51.6758C117.868 51.6758 116.005 49.6949 116.005 46.6496C116.005 43.6339 117.809 41.6234 120.53 41.6234C122.718 41.6234 123.989 42.6878 124.551 44.58H127.508C126.946 41.1208 124.433 38.9625 120.53 38.9625C116.005 38.9625 112.901 42.3921 112.901 46.6496C112.901 50.9367 116.005 54.3367 120.589 54.3367C124.344 54.3367 126.917 52.3263 127.626 48.5714H124.669C124.137 50.641 122.718 51.6758 120.53 51.6758Z" fill="white"/>
<path d="M134.152 54.0411H137.109V41.9191H142.254V39.2581H129.007V41.9191H134.152V54.0411Z" fill="white"/>
<path d="M151.543 54.8098L157.812 39.2581H154.944L150.597 50.2862L146.191 39.2581H143.027L149 54.1002C148.054 56.7316 147.463 57.2933 144.358 57.2933V59.9542C148.793 59.9542 149.947 58.8012 151.543 54.8098Z" fill="white"/>
<path d="M157.996 57.2933H160.805V54.0411H171.628V57.2933H174.437V51.3801H172.367V39.2581H161.041V40.9434C161.041 47.3296 160.45 49.9314 159.829 51.3801H157.996V57.2933ZM162.757 51.3801C163.289 50.0201 163.762 47.9209 163.821 41.9191H169.41V51.3801H162.757Z" fill="white"/>
<path d="M176.826 54.0411H179.783L187.027 43.5156V54.0411H189.984V39.2581H187.027L179.783 49.7836V39.2581H176.826V54.0411Z" fill="white"/>
<path d="M196.232 54.0411L200.342 48.8079H202.797V54.0411H205.754V39.2581H199.278C195.286 39.2581 193.512 41.7417 193.512 44.2252C193.512 46.3244 194.783 47.8618 197.208 48.4236L192.684 54.0411H196.232ZM199.367 46.5018C197.415 46.5018 196.617 45.3783 196.617 44.2252C196.617 42.9243 197.415 41.8895 199.219 41.8895H202.797V46.5018H199.367Z" fill="white"/>
<path d="M209.84 56.702H211.437L212.709 53.9228C213.152 52.9471 213.27 52.4445 213.27 52.0897C213.27 50.8775 212.295 49.9905 211.082 49.9905C209.84 49.9905 208.894 50.8775 208.894 52.0897C208.894 52.8584 209.219 53.5976 210.343 54.1002L209.84 56.702Z" fill="white"/>
<path d="M230.471 54.3367C235.173 54.3367 238.307 51.0549 238.307 46.9453C238.307 42.8947 235.735 39.5834 231.536 39.5834C228.756 39.5834 226.479 41.1799 225.504 43.4861C225.622 39.0807 226.923 37.2181 231.95 36.5676C234.996 36.1833 237.065 35.5624 237.539 32.7537H234.759C234.552 33.4928 233.488 33.7293 231.477 33.9659C225.267 34.705 222.665 37.7799 222.665 44.9348C222.665 47.4775 222.99 49.4879 223.966 50.9958C225.119 52.8289 227.455 54.3367 230.471 54.3367ZM230.471 51.6758C227.721 51.6758 225.77 49.7245 225.77 46.9453C225.77 44.2252 227.721 42.2443 230.471 42.2443C233.251 42.2443 235.203 44.2252 235.203 46.9453C235.203 49.7245 233.251 51.6758 230.471 51.6758Z" fill="white"/>
<path d="M248.083 54.3367C252.667 54.3367 255.92 50.9367 255.92 46.6496C255.92 42.3626 252.667 38.9625 248.083 38.9625C243.5 38.9625 240.247 42.3626 240.247 46.6496C240.247 50.9367 243.5 54.3367 248.083 54.3367ZM248.083 51.6758C245.274 51.6758 243.352 49.4584 243.352 46.6496C243.352 43.8409 245.274 41.6234 248.083 41.6234C250.893 41.6234 252.815 43.8409 252.815 46.6496C252.815 49.4584 250.893 51.6758 248.083 51.6758Z" fill="white"/>
<path d="M259.65 46.6496C259.591 50.3158 259.177 51.3801 256.989 51.3801V54.3367C261.04 54.3367 262.282 52.3262 262.43 46.7087L262.548 41.9191H267.93V54.0411H270.887V39.2581H259.798L259.65 46.6496Z" fill="white"/>
<path d="M274.603 54.0411H281.079C285.071 54.0411 286.845 51.4688 286.845 48.9262C286.845 46.3539 285.071 43.9 281.079 43.9H277.56V39.2581H274.603V54.0411ZM280.99 46.5018C282.942 46.5018 283.74 47.6844 283.74 48.9262C283.74 50.3158 282.942 51.4097 281.138 51.4097H277.56V46.5018H280.99Z" fill="white"/>
<path d="M289.388 54.0411H309.495V39.2581H306.538V51.321H300.92V39.2581H297.963V51.321H292.345V39.2581H289.388V54.0411Z" fill="white"/>
<path d="M320.16 54.3367C324.743 54.3367 327.996 50.9367 327.996 46.6496C327.996 42.3626 324.743 38.9625 320.16 38.9625C315.577 38.9625 312.324 42.3626 312.324 46.6496C312.324 50.9367 315.577 54.3367 320.16 54.3367ZM320.16 51.6758C317.351 51.6758 315.429 49.4584 315.429 46.6496C315.429 43.8409 317.351 41.6234 320.16 41.6234C322.969 41.6234 324.891 43.8409 324.891 46.6496C324.891 49.4584 322.969 51.6758 320.16 51.6758Z" fill="white"/>
<path d="M332.896 33.345C332.896 35.8285 334.522 37.4842 337.42 37.4842C340.318 37.4842 341.944 35.8285 341.944 33.345H339.313C339.313 34.7346 338.603 35.385 337.42 35.385C336.237 35.385 335.528 34.7346 335.528 33.345H332.896ZM330.826 54.0411H333.783L341.028 43.5156V54.0411H343.985V39.2581H341.028L333.783 49.7836V39.2581H330.826V54.0411Z" fill="white"/>
<path d="M0.790228 89.547H3.59937V86.2947H14.422V89.547H17.2311V83.6338H15.1612V71.5118H3.83593V73.1971C3.83593 79.5833 3.24453 82.1851 2.62356 83.6338H0.790228V89.547ZM5.55098 83.6338C6.08324 82.2738 6.55636 80.1746 6.6155 74.1727H12.2042V83.6338H5.55098Z" fill="white"/>
<path d="M26.4213 84.0182C23.7009 84.0182 21.9858 82.1259 21.7788 79.4354H34.0208C34.0799 79.1398 34.1095 78.8146 34.1095 78.5189C34.1095 74.4684 30.9751 71.2161 26.4213 71.2161C21.8676 71.2161 18.7331 74.5866 18.7331 78.9033C18.7331 83.3677 21.8676 86.5904 26.4213 86.5904C30.2358 86.5904 32.6901 84.846 33.5477 81.712H30.709C30.1176 83.0721 28.8165 84.0182 26.4213 84.0182ZM26.4213 73.7884C28.8165 73.7884 30.4133 75.2667 30.9455 77.3658H21.9267C22.4885 75.2075 24.174 73.7884 26.4213 73.7884Z" fill="white"/>
<path d="M36.9464 86.2947H39.9033V74.1727H46.5566V86.2947H49.5136V71.5118H36.9464V86.2947Z" fill="white"/>
<path d="M62.5178 77.0406V77.2771C55.7463 77.2771 52.6415 79.0807 52.6415 82.4512C52.6415 85.1121 54.3861 86.5904 57.1657 86.5904C60.2114 86.5904 61.7786 84.9051 62.5178 82.7468V86.2947H65.4748V77.3363C65.4748 73.2266 63.3162 71.2161 59.3243 71.2161C55.6576 71.2161 53.3512 73.0197 52.8781 76.4493H55.835C56.0716 74.9119 57.2544 73.8771 59.3243 73.8771C61.335 73.8771 62.5178 74.9119 62.5178 77.0406ZM55.7463 82.3033C55.7463 80.5294 57.6388 79.4059 62.5178 79.4059C62.5178 81.9485 60.8915 84.0477 57.8458 84.0477C56.5447 84.0477 55.7463 83.4268 55.7463 82.3033Z" fill="white"/>
<path d="M72.0144 71.5118H69.0574V92.2079H72.0144V82.9834C73.0789 85.1712 75.0897 86.5904 77.7805 86.5904C81.8907 86.5904 84.5816 83.1903 84.5816 78.9033C84.5816 74.6162 81.8316 71.2161 77.7805 71.2161C75.0897 71.2161 73.0789 72.6353 72.0144 74.8232V71.5118ZM76.7456 73.8771C79.5251 73.8771 81.4768 75.8284 81.4768 78.9033C81.4768 81.9781 79.5251 83.9295 76.7456 83.9295C74.0843 83.9295 72.0144 81.8894 72.0144 78.9033C72.0144 75.9467 74.0843 73.8771 76.7456 73.8771Z" fill="white"/>
<path d="M90.8079 86.2947H93.7649V74.1727H98.9101V71.5118H85.6628V74.1727H90.8079V86.2947Z" fill="white"/>
<path d="M110.165 77.0406V77.2771C103.393 77.2771 100.288 79.0807 100.288 82.4512C100.288 85.1121 102.033 86.5904 104.812 86.5904C107.858 86.5904 109.425 84.9051 110.165 82.7468V86.2947H113.122V77.3363C113.122 73.2266 110.963 71.2161 106.971 71.2161C103.304 71.2161 100.998 73.0197 100.525 76.4493H103.482C103.718 74.9119 104.901 73.8771 106.971 73.8771C108.982 73.8771 110.165 74.9119 110.165 77.0406ZM103.393 82.3033C103.393 80.5294 105.286 79.4059 110.165 79.4059C110.165 81.9485 108.538 84.0477 105.493 84.0477C104.192 84.0477 103.393 83.4268 103.393 82.3033Z" fill="white"/>
<path d="M116.704 86.2947H119.513V75.0006L124.067 86.2947H126.433L130.986 75.0006V86.2947H133.943V71.5118H129.774L125.398 82.4216L120.992 71.5118H116.704V86.2947Z" fill="white"/>
<path d="M144.47 84.0182C141.749 84.0182 140.034 82.1259 139.827 79.4354H152.069C152.128 79.1398 152.158 78.8146 152.158 78.5189C152.158 74.4684 149.024 71.2161 144.47 71.2161C139.916 71.2161 136.782 74.5866 136.782 78.9033C136.782 83.3677 139.916 86.5904 144.47 86.5904C148.284 86.5904 150.739 84.846 151.596 81.712H148.758C148.166 83.0721 146.865 84.0182 144.47 84.0182ZM144.47 73.7884C146.865 73.7884 148.462 75.2667 148.994 77.3658H139.975C140.537 75.2075 142.223 73.7884 144.47 73.7884Z" fill="white"/>
<path d="M154.995 86.2947H157.952V80.0859H164.901V86.2947H167.858V71.5118H164.901V77.425H157.952V71.5118H154.995V86.2947Z" fill="white"/>
<path d="M175.533 86.2947H178.49V74.1727H183.635V71.5118H170.387V74.1727H175.533V86.2947Z" fill="white"/>
<path d="M196.127 71.5118H193.17V92.2079H196.127V82.9834C197.192 85.1712 199.202 86.5904 201.893 86.5904C206.003 86.5904 208.694 83.1903 208.694 78.9033C208.694 74.6162 205.944 71.2161 201.893 71.2161C199.202 71.2161 197.192 72.6353 196.127 74.8232V71.5118ZM200.858 73.8771C203.638 73.8771 205.589 75.8284 205.589 78.9033C205.589 81.9781 203.638 83.9295 200.858 83.9295C198.197 83.9295 196.127 81.8894 196.127 78.9033C196.127 75.9467 198.197 73.8771 200.858 73.8771Z" fill="white"/>
<path d="M220.676 77.0406V77.2771C213.905 77.2771 210.8 79.0807 210.8 82.4512C210.8 85.1121 212.545 86.5904 215.324 86.5904C218.37 86.5904 219.937 84.9051 220.676 82.7468V86.2947H223.633V77.3363C223.633 73.2266 221.475 71.2161 217.483 71.2161C213.816 71.2161 211.51 73.0197 211.037 76.4493H213.994C214.23 74.9119 215.413 73.8771 217.483 73.8771C219.494 73.8771 220.676 74.9119 220.676 77.0406ZM213.905 82.3033C213.905 80.5294 215.797 79.4059 220.676 79.4059C220.676 81.9485 219.05 84.0477 216.004 84.0477C214.703 84.0477 213.905 83.4268 213.905 82.3033Z" fill="white"/>
<path d="M232.864 86.5904C237.418 86.5904 239.31 84.4025 239.31 82.0077C239.31 80.352 238.127 79.0215 236.235 78.6076C237.92 78.1641 238.837 76.8928 238.837 75.3849C238.837 73.1379 237.033 71.2161 232.893 71.2161C229.138 71.2161 226.772 73.1675 226.477 76.2128H229.552C229.818 75.0006 230.616 73.8771 232.834 73.8771C234.815 73.8771 235.732 74.764 235.732 75.858C235.732 76.9224 235.052 77.6319 232.952 77.6319H230.912V80.145H233.396C235.436 80.145 236.205 80.9137 236.205 81.919C236.205 82.9834 235.525 83.9295 232.864 83.9295C230.616 83.9295 229.611 82.9833 229.256 81.4459H226.181C226.477 84.4912 228.547 86.5904 232.864 86.5904Z" fill="white"/>
<path d="M242.29 86.2947H249.357C253.408 86.2947 254.709 84.166 254.709 82.1555C254.709 80.1746 253.378 79.0511 251.22 78.6963C253.112 78.1937 254.058 76.8928 254.058 75.3554C254.058 72.9014 252.255 71.5118 248.972 71.5118H242.29V86.2947ZM248.825 77.6615H245.187V74.0249H248.825C250.362 74.0249 251.013 74.8232 251.013 75.858C251.013 76.8632 250.362 77.6615 248.825 77.6615ZM249.032 80.0268C250.954 80.0268 251.604 80.9137 251.604 81.8598C251.604 82.9242 250.954 83.7816 249.179 83.7816H245.187V80.0268H249.032Z" fill="white"/>
<path d="M257.565 86.2947H260.522L267.767 75.7693V86.2947H270.724V71.5118H267.767L260.522 82.0372V71.5118H257.565V86.2947Z" fill="white"/>
<path d="M278.421 86.2947H281.378V74.1727H286.523V71.5118H273.276V74.1727H278.421V86.2947Z" fill="white"/>
<path d="M289.07 86.2947H292.027L299.272 75.7693V86.2947H302.229V71.5118H299.272L292.027 82.0372V71.5118H289.07V86.2947Z" fill="white"/>
<path d="M308.477 86.2947L312.587 81.0616H315.041V86.2947H317.998V71.5118H311.522C307.53 71.5118 305.756 73.9953 305.756 76.4789C305.756 78.578 307.028 80.1155 309.452 80.6772L304.928 86.2947H308.477ZM311.611 78.7554C309.659 78.7554 308.861 77.6319 308.861 76.4789C308.861 75.178 309.659 74.1432 311.463 74.1432H315.041V78.7554H311.611Z" fill="white"/>
<path d="M340.546 89.547H343.355V83.6338H341.285V71.5118H338.328V83.6338H331.675V71.5118H328.718V86.2947H340.546V89.547Z" fill="white"/>
<path d="M345.755 86.2947H348.712L355.957 75.7693V86.2947H358.914V71.5118H355.957L348.712 82.0372V71.5118H345.755V86.2947Z" fill="white"/>
<path d="M369.893 92.2079H372.85V86.5904C377.226 86.3834 380.982 83.6338 380.982 78.9033C380.982 74.1727 377.226 71.3935 372.85 71.2161V65.5986H369.893V71.2161C365.517 71.3935 361.761 74.1727 361.761 78.9033C361.761 83.6338 365.517 86.3834 369.893 86.5904V92.2079ZM364.866 78.9033C364.866 75.5919 367.291 73.9066 369.893 73.7884V84.0182C367.291 83.8999 364.866 82.2146 364.866 78.9033ZM372.85 73.7884C375.423 73.9066 377.877 75.5919 377.877 78.9033C377.877 82.2146 375.423 83.8999 372.85 84.0182V73.7884Z" fill="white"/>
<path d="M386.772 71.5118H383.815V92.2079H386.772V82.9834C387.837 85.1712 389.847 86.5904 392.538 86.5904C396.648 86.5904 399.339 83.1903 399.339 78.9033C399.339 74.6162 396.589 71.2161 392.538 71.2161C389.847 71.2161 387.837 72.6353 386.772 74.8232V71.5118ZM391.503 73.8771C394.283 73.8771 396.234 75.8284 396.234 78.9033C396.234 81.9781 394.283 83.9295 391.503 83.9295C388.842 83.9295 386.772 81.8894 386.772 78.9033C386.772 75.9467 388.842 73.8771 391.503 73.8771Z" fill="white"/>
<path d="M409.13 86.5904C413.713 86.5904 416.966 83.1903 416.966 78.9033C416.966 74.6162 413.713 71.2161 409.13 71.2161C404.546 71.2161 401.294 74.6162 401.294 78.9033C401.294 83.1903 404.546 86.5904 409.13 86.5904ZM409.13 83.9295C406.32 83.9295 404.398 81.712 404.398 78.9033C404.398 76.0945 406.32 73.8771 409.13 73.8771C411.939 73.8771 413.861 76.0945 413.861 78.9033C413.861 81.712 411.939 83.9295 409.13 83.9295Z" fill="white"/>
<path d="M419.796 86.2947H426.863C430.914 86.2947 432.215 84.166 432.215 82.1555C432.215 80.1746 430.884 79.0511 428.726 78.6963C430.618 78.1937 431.564 76.8928 431.564 75.3554C431.564 72.9014 429.761 71.5118 426.478 71.5118H419.796V86.2947ZM426.331 77.6615H422.693V74.0249H426.331C427.868 74.0249 428.519 74.8232 428.519 75.858C428.519 76.8632 427.868 77.6615 426.331 77.6615ZM426.538 80.0268C428.46 80.0268 429.11 80.9137 429.11 81.8598C429.11 82.9242 428.46 83.7816 426.685 83.7816H422.693V80.0268H426.538Z" fill="white"/>
<path d="M435.071 86.2947H441.547C445.539 86.2947 447.313 83.7225 447.313 81.1798C447.313 78.6076 445.539 76.1536 441.547 76.1536H438.028V71.5118H435.071V86.2947ZM449.295 86.2947H452.252V71.5118H449.295V86.2947ZM441.459 78.7554C443.41 78.7554 444.209 79.9381 444.209 81.1798C444.209 82.5694 443.41 83.6634 441.606 83.6634H438.028V78.7554H441.459Z" fill="white"/>
<path d="M457.752 86.2947L461.626 81.0024L465.441 86.2947H468.959L463.519 78.7554L468.723 71.5118H465.529L461.981 76.5971L458.314 71.5118H454.796L460.089 78.8441L454.5 86.2947H457.752Z" fill="white"/>
<path d="M2.12087 118.548H5.07786V106.426H11.7311V118.548H14.6881V103.765H2.12087V118.548Z" fill="white"/>
<path d="M21.3644 103.765H18.4074V124.462H21.3644V115.237C22.4289 117.425 24.4397 118.844 27.1305 118.844C31.2407 118.844 33.9316 115.444 33.9316 111.157C33.9316 106.87 31.1816 103.47 27.1305 103.47C24.4397 103.47 22.4289 104.889 21.3644 107.077V103.765ZM26.0956 106.131C28.8752 106.131 30.8268 108.082 30.8268 111.157C30.8268 114.232 28.8752 116.183 26.0956 116.183C23.4343 116.183 21.3644 114.143 21.3644 111.157C21.3644 108.2 23.4343 106.131 26.0956 106.131Z" fill="white"/>
<path d="M43.722 118.844C48.3053 118.844 51.558 115.444 51.558 111.157C51.558 106.87 48.3053 103.47 43.722 103.47C39.1387 103.47 35.886 106.87 35.886 111.157C35.886 115.444 39.1387 118.844 43.722 118.844ZM43.722 116.183C40.9129 116.183 38.9908 113.966 38.9908 111.157C38.9908 108.348 40.9129 106.131 43.722 106.131C46.5312 106.131 48.4532 108.348 48.4532 111.157C48.4532 113.966 46.5312 116.183 43.722 116.183Z" fill="white"/>
<path d="M52.7686 121.801H55.5777V118.548H66.4003V121.801H69.2094V115.887H67.1395V103.765H55.8143V105.451C55.8143 111.837 55.2229 114.439 54.6019 115.887H52.7686V121.801ZM57.5293 115.887C58.0616 114.527 58.5347 112.428 58.5938 106.426H64.1825V115.887H57.5293Z" fill="white"/>
<path d="M78.3405 119.317L84.6093 103.765H81.741L77.3943 114.794L72.9884 103.765H69.8244L75.7975 118.608C74.8513 121.239 74.2599 121.801 71.155 121.801V124.462C75.5905 124.462 76.7437 123.308 78.3405 119.317Z" fill="white"/>
<path d="M86.5568 118.548H89.5138V111.6L96.1078 118.548H100.1L92.6777 110.802L99.538 103.765H95.9896L89.5138 110.418V103.765H86.5568V118.548Z" fill="white"/>
<path d="M105.564 118.548H108.521V106.426H113.666V103.765H100.419V106.426H105.564V118.548Z" fill="white"/>
<path d="M122.585 118.844C127.168 118.844 130.421 115.444 130.421 111.157C130.421 106.87 127.168 103.47 122.585 103.47C118.001 103.47 114.749 106.87 114.749 111.157C114.749 115.444 118.001 118.844 122.585 118.844ZM122.585 116.183C119.776 116.183 117.854 113.966 117.854 111.157C117.854 108.348 119.776 106.131 122.585 106.131C125.394 106.131 127.316 108.348 127.316 111.157C127.316 113.966 125.394 116.183 122.585 116.183Z" fill="white"/>
<path d="M133.251 118.548H140.318C144.369 118.548 145.67 116.42 145.67 114.409C145.67 112.428 144.339 111.305 142.181 110.95C144.073 110.447 145.019 109.146 145.019 107.609C145.019 105.155 143.216 103.765 139.933 103.765H133.251V118.548ZM139.786 109.915H136.148V106.279H139.786C141.323 106.279 141.974 107.077 141.974 108.112C141.974 109.117 141.323 109.915 139.786 109.915ZM139.993 112.28C141.915 112.28 142.565 113.167 142.565 114.114C142.565 115.178 141.915 116.035 140.14 116.035H136.148V112.28H139.993Z" fill="white"/>
<path d="M149.026 121.209H150.622L151.894 118.43C152.338 117.454 152.456 116.952 152.456 116.597C152.456 115.385 151.48 114.498 150.268 114.498C149.026 114.498 148.079 115.385 148.079 116.597C148.079 117.366 148.405 118.105 149.528 118.608L149.026 121.209Z" fill="white"/>
<path d="M162.59 118.548H165.547V111.6L172.141 118.548H176.133L168.71 110.802L175.571 103.765H172.022L165.547 110.418V103.765H162.59V118.548Z" fill="white"/>
<path d="M184.295 118.844C188.878 118.844 192.131 115.444 192.131 111.157C192.131 106.87 188.878 103.47 184.295 103.47C179.711 103.47 176.458 106.87 176.458 111.157C176.458 115.444 179.711 118.844 184.295 118.844ZM184.295 116.183C181.485 116.183 179.563 113.966 179.563 111.157C179.563 108.348 181.485 106.131 184.295 106.131C187.104 106.131 189.026 108.348 189.026 111.157C189.026 113.966 187.104 116.183 184.295 116.183Z" fill="white"/>
<path d="M194.96 118.548H197.77V107.254L202.323 118.548H204.689L209.243 107.254V118.548H212.2V103.765H208.03L203.654 114.675L199.248 103.765H194.96V118.548Z" fill="white"/>
<path d="M215.925 118.548H218.734V107.254L223.288 118.548H225.654L230.207 107.254V118.548H233.164V103.765H228.995L224.619 114.675L220.213 103.765H215.925V118.548Z" fill="white"/>
<path d="M243.691 116.272C240.97 116.272 239.255 114.38 239.048 111.689H251.29C251.349 111.393 251.379 111.068 251.379 110.773C251.379 106.722 248.245 103.47 243.691 103.47C239.137 103.47 236.003 106.84 236.003 111.157C236.003 115.621 239.137 118.844 243.691 118.844C247.505 118.844 249.96 117.1 250.817 113.966H247.978C247.387 115.326 246.086 116.272 243.691 116.272ZM243.691 106.042C246.086 106.042 247.683 107.52 248.215 109.62H239.196C239.758 107.461 241.443 106.042 243.691 106.042Z" fill="white"/>
<path d="M257.173 103.765H254.216V124.462H257.173V115.237C258.237 117.425 260.248 118.844 262.939 118.844C267.049 118.844 269.74 115.444 269.74 111.157C269.74 106.87 266.99 103.47 262.939 103.47C260.248 103.47 258.237 104.889 257.173 107.077V103.765ZM261.904 106.131C264.684 106.131 266.635 108.082 266.635 111.157C266.635 114.232 264.684 116.183 261.904 116.183C259.243 116.183 257.173 114.143 257.173 111.157C257.173 108.2 259.243 106.131 261.904 106.131Z" fill="white"/>
<path d="M272.286 107.609C272.286 112.162 275.036 113.463 278.495 113.463C279.708 113.463 280.831 113.315 281.896 113.049V118.548H284.853V103.765H281.896V110.477C280.95 110.713 280.003 110.802 279.116 110.802C276.603 110.802 275.243 110.004 275.243 107.609V103.765H272.286V107.609Z" fill="white"/>
<path d="M295.38 116.272C292.66 116.272 290.945 114.38 290.738 111.689H302.98C303.039 111.393 303.068 111.068 303.068 110.773C303.068 106.722 299.934 103.47 295.38 103.47C290.827 103.47 287.692 106.84 287.692 111.157C287.692 115.621 290.827 118.844 295.38 118.844C299.195 118.844 301.649 117.1 302.507 113.966H299.668C299.077 115.326 297.775 116.272 295.38 116.272ZM295.38 106.042C297.775 106.042 299.372 107.52 299.904 109.62H290.886C291.448 107.461 293.133 106.042 295.38 106.042Z" fill="white"/>
<path d="M312.647 116.183C309.986 116.183 308.123 114.202 308.123 111.157C308.123 108.141 309.927 106.131 312.647 106.131C314.835 106.131 316.107 107.195 316.669 109.087H319.626C319.064 105.628 316.55 103.47 312.647 103.47C308.123 103.47 305.018 106.899 305.018 111.157C305.018 115.444 308.123 118.844 312.706 118.844C316.462 118.844 319.034 116.834 319.744 113.079H316.787C316.255 115.148 314.835 116.183 312.647 116.183Z" fill="white"/>
<path d="M322.596 118.548H325.553V111.6L332.147 118.548H336.139L328.717 110.802L335.577 103.765H332.029L325.553 110.418V103.765H322.596V118.548Z" fill="white"/>
<path d="M344.301 118.844C348.884 118.844 352.137 115.444 352.137 111.157C352.137 106.87 348.884 103.47 344.301 103.47C339.718 103.47 336.465 106.87 336.465 111.157C336.465 115.444 339.718 118.844 344.301 118.844ZM344.301 116.183C341.492 116.183 339.57 113.966 339.57 111.157C339.57 108.348 341.492 106.131 344.301 106.131C347.11 106.131 349.032 108.348 349.032 111.157C349.032 113.966 347.11 116.183 344.301 116.183Z" fill="white"/>
<path d="M361.768 116.272C359.048 116.272 357.333 114.38 357.126 111.689H369.368C369.427 111.393 369.456 111.068 369.456 110.773C369.456 106.722 366.322 103.47 361.768 103.47C357.214 103.47 354.08 106.84 354.08 111.157C354.08 115.621 357.214 118.844 361.768 118.844C365.583 118.844 368.037 117.1 368.894 113.966H366.056C365.464 115.326 364.163 116.272 361.768 116.272ZM361.768 106.042C364.163 106.042 365.76 107.52 366.292 109.62H357.273C357.835 107.461 359.521 106.042 361.768 106.042Z" fill="white"/>
<path d="M8.86281 151.571L15.1316 136.019H12.2633L7.91657 147.047L3.51066 136.019H0.34668L6.3198 150.861C5.37356 153.493 4.78216 154.054 1.67732 154.054V156.715C6.11281 156.715 7.26604 155.562 8.86281 151.571Z" fill="white"/>
<path d="M17.0791 150.802H20.0361V138.68H26.6893V150.802H29.6463V136.019H17.0791V150.802Z" fill="white"/>
<path d="M36.3226 136.019H33.3656V156.715H36.3226V147.491C37.3871 149.679 39.3979 151.098 42.0887 151.098C46.199 151.098 48.8898 147.698 48.8898 143.411C48.8898 139.124 46.1398 135.723 42.0887 135.723C39.3979 135.723 37.3871 137.143 36.3226 139.33V136.019ZM41.0538 138.384C43.8334 138.384 45.785 140.336 45.785 143.411C45.785 146.485 43.8334 148.437 41.0538 148.437C38.3925 148.437 36.3226 146.397 36.3226 143.411C36.3226 140.454 38.3925 138.384 41.0538 138.384Z" fill="white"/>
<path d="M60.8719 141.548V141.784C54.1004 141.784 50.9955 143.588 50.9955 146.958C50.9955 149.619 52.7401 151.098 55.5197 151.098C58.5654 151.098 60.1326 149.412 60.8719 147.254V150.802H63.8288V141.844C63.8288 137.734 61.6702 135.723 57.6783 135.723C54.0116 135.723 51.7052 137.527 51.2321 140.957H54.1891C54.4256 139.419 55.6084 138.384 57.6783 138.384C59.6891 138.384 60.8719 139.419 60.8719 141.548ZM54.1004 146.811C54.1004 145.037 55.9928 143.913 60.8719 143.913C60.8719 146.456 59.2455 148.555 56.1998 148.555C54.8987 148.555 54.1004 147.934 54.1004 146.811Z" fill="white"/>
<path d="M67.4114 150.802H74.4786C78.5297 150.802 79.8308 148.673 79.8308 146.663C79.8308 144.682 78.5001 143.558 76.3415 143.204C78.234 142.701 79.1802 141.4 79.1802 139.863C79.1802 137.409 77.3765 136.019 74.0942 136.019H67.4114V150.802ZM73.9464 142.169H70.3093V138.532H73.9464C75.484 138.532 76.1345 139.33 76.1345 140.365C76.1345 141.371 75.484 142.169 73.9464 142.169ZM74.1534 144.534C76.0754 144.534 76.7259 145.421 76.7259 146.367C76.7259 147.432 76.0754 148.289 74.3012 148.289H70.3093V144.534H74.1534Z" fill="white"/>
<path d="M83.877 143.411C83.8179 147.077 83.4039 148.141 81.2157 148.141V151.098C85.2668 151.098 86.5087 149.087 86.6566 143.47L86.7748 138.68H92.1566V150.802H95.1136V136.019H84.0249L83.877 143.411Z" fill="white"/>
<path d="M105.631 148.525C102.91 148.525 101.195 146.633 100.988 143.943H113.23C113.289 143.647 113.319 143.322 113.319 143.026C113.319 138.976 110.184 135.723 105.631 135.723C101.077 135.723 97.9423 139.094 97.9423 143.411C97.9423 147.875 101.077 151.098 105.631 151.098C109.445 151.098 111.899 149.353 112.757 146.219H109.918C109.327 147.579 108.026 148.525 105.631 148.525ZM105.631 138.296C108.026 138.296 109.622 139.774 110.155 141.873H101.136C101.698 139.715 103.383 138.296 105.631 138.296Z" fill="white"/>
<path d="M116.156 150.802H119.113V144.593H126.061V150.802H129.018V136.019H126.061V141.932H119.113V136.019H116.156V150.802Z" fill="white"/>
<path d="M132.731 150.802H135.688L142.932 140.277V150.802H145.889V136.019H142.932L135.688 146.545V136.019H132.731V150.802Z" fill="white"/>
<path d="M156.425 148.525C153.704 148.525 151.989 146.633 151.782 143.943H164.024C164.083 143.647 164.113 143.322 164.113 143.026C164.113 138.976 160.979 135.723 156.425 135.723C151.871 135.723 148.737 139.094 148.737 143.411C148.737 147.875 151.871 151.098 156.425 151.098C160.239 151.098 162.694 149.353 163.551 146.219H160.713C160.121 147.579 158.82 148.525 156.425 148.525ZM156.425 138.296C158.82 138.296 160.417 139.774 160.949 141.873H151.93C152.492 139.715 154.178 138.296 156.425 138.296Z" fill="white"/>
<path d="M173.938 150.802H176.895L184.14 140.277V150.802H187.097V136.019H184.14L176.895 146.545V136.019H173.938V150.802Z" fill="white"/>
<path d="M197.819 150.802H200.628V139.508L205.182 150.802H207.548L212.102 139.508V150.802H215.059V136.019H210.889L206.513 146.929L202.107 136.019H197.819V150.802Z" fill="white"/>
<path d="M218.784 150.802H221.741V144.593H228.69V150.802H231.647V136.019H228.69V141.932H221.741V136.019H218.784V150.802Z" fill="white"/>
<path d="M242.308 151.098C246.891 151.098 250.144 147.698 250.144 143.411C250.144 139.124 246.891 135.723 242.308 135.723C237.725 135.723 234.472 139.124 234.472 143.411C234.472 147.698 237.725 151.098 242.308 151.098ZM242.308 148.437C239.499 148.437 237.577 146.219 237.577 143.411C237.577 140.602 239.499 138.384 242.308 138.384C245.117 138.384 247.039 140.602 247.039 143.411C247.039 146.219 245.117 148.437 242.308 148.437Z" fill="white"/>
<path d="M260.469 150.802H263.426V143.884L269.724 150.802H273.628L266.531 143.056L273.066 136.019H269.606L263.426 142.671V136.019H260.469V142.671L254.289 136.019H250.681L257.364 143.204L250.415 150.802H254.171L260.469 143.884V150.802Z" fill="white"/>
<path d="M281.75 148.525C279.03 148.525 277.315 146.633 277.108 143.943H289.35C289.409 143.647 289.439 143.322 289.439 143.026C289.439 138.976 286.304 135.723 281.75 135.723C277.197 135.723 274.062 139.094 274.062 143.411C274.062 147.875 277.197 151.098 281.75 151.098C285.565 151.098 288.019 149.353 288.877 146.219H286.038C285.447 147.579 284.146 148.525 281.75 148.525ZM281.75 138.296C284.146 138.296 285.742 139.774 286.275 141.873H277.256C277.818 139.715 279.503 138.296 281.75 138.296Z" fill="white"/>
<path d="M299.017 148.437C296.356 148.437 294.493 146.456 294.493 143.411C294.493 140.395 296.297 138.384 299.017 138.384C301.206 138.384 302.477 139.449 303.039 141.341H305.996C305.434 137.882 302.921 135.723 299.017 135.723C294.493 135.723 291.388 139.153 291.388 143.411C291.388 147.698 294.493 151.098 299.077 151.098C302.832 151.098 305.405 149.087 306.114 145.332H303.157C302.625 147.402 301.206 148.437 299.017 148.437Z" fill="white"/>
<path d="M312.64 150.802H315.597V138.68H320.742V136.019H307.495V138.68H312.64V150.802Z" fill="white"/>
<path d="M323.289 150.802H330.356C334.407 150.802 335.709 148.673 335.709 146.663C335.709 144.682 334.378 143.558 332.219 143.204C334.112 142.701 335.058 141.4 335.058 139.863C335.058 137.409 333.254 136.019 329.972 136.019H323.289V150.802ZM329.824 142.169H326.187V138.532H329.824C331.362 138.532 332.012 139.33 332.012 140.365C332.012 141.371 331.362 142.169 329.824 142.169ZM330.031 144.534C331.953 144.534 332.604 145.421 332.604 146.367C332.604 147.432 331.953 148.289 330.179 148.289H326.187V144.534H330.031Z" fill="white"/>
<path d="M345.37 151.098C349.953 151.098 353.206 147.698 353.206 143.411C353.206 139.124 349.953 135.723 345.37 135.723C340.786 135.723 337.534 139.124 337.534 143.411C337.534 147.698 340.786 151.098 345.37 151.098ZM345.37 148.437C342.56 148.437 340.638 146.219 340.638 143.411C340.638 140.602 342.56 138.384 345.37 138.384C348.179 138.384 350.101 140.602 350.101 143.411C350.101 146.219 348.179 148.437 345.37 148.437Z" fill="white"/>
<path d="M361.693 154.054H364.502V150.802H375.325V154.054H378.134V148.141H376.064V136.019H364.739V137.704C364.739 144.091 364.147 146.692 363.526 148.141H361.693V154.054ZM366.454 148.141C366.986 146.781 367.459 144.682 367.518 138.68H373.107V148.141H366.454Z" fill="white"/>
<path d="M383.48 136.019H380.523V156.715H383.48V147.491C384.545 149.679 386.555 151.098 389.246 151.098C393.356 151.098 396.047 147.698 396.047 143.411C396.047 139.124 393.297 135.723 389.246 135.723C386.555 135.723 384.545 137.143 383.48 139.33V136.019ZM388.211 138.384C390.991 138.384 392.942 140.336 392.942 143.411C392.942 146.485 390.991 148.437 388.211 148.437C385.55 148.437 383.48 146.397 383.48 143.411C383.48 140.454 385.55 138.384 388.211 138.384Z" fill="white"/>
<path d="M405.198 151.571L411.466 136.019H408.598L404.251 147.047L399.845 136.019H396.681L402.655 150.861C401.708 153.493 401.117 154.054 398.012 154.054V156.715C402.448 156.715 403.601 155.562 405.198 151.571Z" fill="white"/>
<path d="M413.414 150.802H416.371V138.68H423.408V136.019H413.414V150.802Z" fill="white"/>
<path d="M425.946 150.802H428.903L436.148 140.277V150.802H439.105V136.019H436.148L428.903 146.545V136.019H425.946V150.802Z" fill="white"/>
<path d="M444.614 150.802L448.487 145.51L452.302 150.802H455.821L450.38 143.263L455.584 136.019H452.39L448.842 141.104L445.175 136.019H441.657L446.95 143.351L441.361 150.802H444.614Z" fill="white"/>
<path d="M8.4784 180.75C6.17195 180.75 4.66388 179.744 4.13163 177.734H1.23378C1.88431 181.459 4.48646 183.351 8.41926 183.351C13.2096 183.351 15.9596 179.951 15.9596 175.664C15.9596 171.407 13.2096 167.977 8.4784 167.977C4.39776 167.977 1.94345 170.076 1.35206 173.447H4.24991C4.81173 171.614 6.17195 170.579 8.4784 170.579C10.8736 170.579 12.4408 171.998 12.8843 174.275H6.6155V176.788H12.9139C12.559 179.212 10.9327 180.75 8.4784 180.75Z" fill="white"/>
<path d="M18.8117 183.056H21.7687V176.108L28.3628 183.056H32.3547L24.9327 175.309L31.7929 168.273H28.2445L21.7687 174.925V168.273H18.8117V183.056Z" fill="white"/>
<path d="M40.3097 180.69C37.6484 180.69 35.7855 178.71 35.7855 175.664C35.7855 172.649 37.5893 170.638 40.3097 170.638C42.4979 170.638 43.7694 171.702 44.3312 173.595H47.2882C46.7264 170.135 44.2129 167.977 40.3097 167.977C35.7855 167.977 32.6807 171.407 32.6807 175.664C32.6807 179.951 35.7855 183.351 40.3688 183.351C44.1242 183.351 46.6968 181.341 47.4065 177.586H44.4495C43.9172 179.656 42.4979 180.69 40.3097 180.69Z" fill="white"/>
<path d="M50.2586 183.056H53.2156V170.934H59.8688V183.056H62.8258V168.273H50.2586V183.056Z" fill="white"/>
<path d="M73.3462 180.779C70.6258 180.779 68.9107 178.887 68.7037 176.196H80.9457C81.0048 175.901 81.0344 175.576 81.0344 175.28C81.0344 171.229 77.9 167.977 73.3462 167.977C68.7924 167.977 65.658 171.348 65.658 175.664C65.658 180.129 68.7924 183.351 73.3462 183.351C77.1607 183.351 79.615 181.607 80.4725 178.473H77.6338C77.0424 179.833 75.7414 180.779 73.3462 180.779ZM73.3462 170.549C75.7414 170.549 77.3381 172.028 77.8704 174.127H68.8516C69.4134 171.969 71.0989 170.549 73.3462 170.549Z" fill="white"/>
<path d="M86.8282 168.273H83.8712V188.969H86.8282V179.744C87.8927 181.932 89.9035 183.351 92.5943 183.351C96.7046 183.351 99.3954 179.951 99.3954 175.664C99.3954 171.377 96.6454 167.977 92.5943 167.977C89.9035 167.977 87.8927 169.396 86.8282 171.584V168.273ZM91.5594 170.638C94.339 170.638 96.2906 172.589 96.2906 175.664C96.2906 178.739 94.339 180.69 91.5594 180.69C88.8981 180.69 86.8282 178.65 86.8282 175.664C86.8282 172.708 88.8981 170.638 91.5594 170.638Z" fill="white"/>
<path d="M105.622 183.056H108.579V170.934H113.724V168.273H100.477V170.934H105.622V183.056Z" fill="white"/>
<path d="M116.271 183.056H119.228V176.847H126.177V183.056H129.134V168.273H126.177V174.186H119.228V168.273H116.271V183.056Z" fill="white"/>
<path d="M132.846 183.056H139.322C143.314 183.056 145.088 180.483 145.088 177.941C145.088 175.369 143.314 172.915 139.322 172.915H135.803V168.273H132.846V183.056ZM147.069 183.056H150.026V168.273H147.069V183.056ZM139.233 175.516C141.185 175.516 141.983 176.699 141.983 177.941C141.983 179.33 141.185 180.424 139.381 180.424H135.803V175.516H139.233Z" fill="white"/>
<path d="M155.527 183.056L159.401 177.763L163.216 183.056H166.734L161.294 175.516L166.498 168.273H163.304L159.756 173.358L156.089 168.273H152.57L157.863 175.605L152.275 183.056H155.527Z" fill="white"/>
<path d="M174.629 186.308H177.438V183.056H188.261V186.308H191.07V180.395H189V168.273H177.675V169.958C177.675 176.344 177.083 178.946 176.462 180.395H174.629V186.308ZM179.39 180.395C179.922 179.035 180.395 176.936 180.454 170.934H186.043V180.395H179.39Z" fill="white"/>
<path d="M200.26 180.779C197.54 180.779 195.824 178.887 195.617 176.196H207.859C207.919 175.901 207.948 175.576 207.948 175.28C207.948 171.229 204.814 167.977 200.26 167.977C195.706 167.977 192.572 171.348 192.572 175.664C192.572 180.129 195.706 183.351 200.26 183.351C204.074 183.351 206.529 181.607 207.386 178.473H204.548C203.956 179.833 202.655 180.779 200.26 180.779ZM200.26 170.549C202.655 170.549 204.252 172.028 204.784 174.127H195.765C196.327 171.969 198.013 170.549 200.26 170.549Z" fill="white"/>
<path d="M210.785 183.056H213.742V170.934H220.395V183.056H223.352V168.273H210.785V183.056Z" fill="white"/>
<path d="M236.356 173.802V174.038C229.585 174.038 226.48 175.842 226.48 179.212C226.48 181.873 228.225 183.351 231.004 183.351C234.05 183.351 235.617 181.666 236.356 179.508V183.056H239.313V174.097C239.313 169.988 237.155 167.977 233.163 167.977C229.496 167.977 227.19 169.781 226.717 173.21H229.674C229.91 171.673 231.093 170.638 233.163 170.638C235.174 170.638 236.356 171.673 236.356 173.802ZM229.585 179.064C229.585 177.29 231.477 176.167 236.356 176.167C236.356 178.71 234.73 180.809 231.684 180.809C230.383 180.809 229.585 180.188 229.585 179.064Z" fill="white"/>
<path d="M245.853 168.273H242.896V188.969H245.853V179.744C246.918 181.932 248.928 183.351 251.619 183.351C255.729 183.351 258.42 179.951 258.42 175.664C258.42 171.377 255.67 167.977 251.619 167.977C248.928 167.977 246.918 169.396 245.853 171.584V168.273ZM250.584 170.638C253.364 170.638 255.315 172.589 255.315 175.664C255.315 178.739 253.364 180.69 250.584 180.69C247.923 180.69 245.853 178.65 245.853 175.664C245.853 172.708 247.923 170.638 250.584 170.638Z" fill="white"/>
<path d="M264.647 183.056H267.604V170.934H272.749V168.273H259.501V170.934H264.647V183.056Z" fill="white"/>
<path d="M284.003 173.802V174.038C277.232 174.038 274.127 175.842 274.127 179.212C274.127 181.873 275.872 183.351 278.651 183.351C281.697 183.351 283.264 181.666 284.003 179.508V183.056H286.96V174.097C286.96 169.988 284.802 167.977 280.81 167.977C277.143 167.977 274.837 169.781 274.363 173.21H277.32C277.557 171.673 278.74 170.638 280.81 170.638C282.82 170.638 284.003 171.673 284.003 173.802ZM277.232 179.064C277.232 177.29 279.124 176.167 284.003 176.167C284.003 178.71 282.377 180.809 279.331 180.809C278.03 180.809 277.232 180.188 277.232 179.064Z" fill="white"/>
<path d="M290.543 183.056H293.352V171.762L297.906 183.056H300.271L304.825 171.762V183.056H307.782V168.273H303.613L299.236 179.183L294.83 168.273H290.543V183.056Z" fill="white"/>
<path d="M318.309 180.779C315.588 180.779 313.873 178.887 313.666 176.196H325.908C325.967 175.901 325.997 175.576 325.997 175.28C325.997 171.229 322.862 167.977 318.309 167.977C313.755 167.977 310.62 171.348 310.62 175.664C310.62 180.129 313.755 183.351 318.309 183.351C322.123 183.351 324.577 181.607 325.435 178.473H322.596C322.005 179.833 320.704 180.779 318.309 180.779ZM318.309 170.549C320.704 170.549 322.3 172.028 322.833 174.127H313.814C314.376 171.969 316.061 170.549 318.309 170.549Z" fill="white"/>
<path d="M328.834 183.056H331.791V176.847H338.739V183.056H341.696V168.273H338.739V174.186H331.791V168.273H328.834V183.056Z" fill="white"/>
<path d="M349.371 183.056H352.328V170.934H357.473V168.273H344.226V170.934H349.371V183.056Z" fill="white"/>
<path d="M366.392 183.351C370.975 183.351 374.228 179.951 374.228 175.664C374.228 171.377 370.975 167.977 366.392 167.977C361.809 167.977 358.556 171.377 358.556 175.664C358.556 179.951 361.809 183.351 366.392 183.351ZM366.392 180.69C363.583 180.69 361.661 178.473 361.661 175.664C361.661 172.855 363.583 170.638 366.392 170.638C369.201 170.638 371.123 172.855 371.123 175.664C371.123 178.473 369.201 180.69 366.392 180.69Z" fill="white"/>
<path d="M377.058 183.056H384.125C388.176 183.056 389.477 180.927 389.477 178.916C389.477 176.936 388.147 175.812 385.988 175.457C387.88 174.955 388.827 173.654 388.827 172.116C388.827 169.662 387.023 168.273 383.741 168.273H377.058V183.056ZM383.593 174.422H379.956V170.786H383.593C385.13 170.786 385.781 171.584 385.781 172.619C385.781 173.624 385.13 174.422 383.593 174.422ZM383.8 176.788C385.722 176.788 386.372 177.675 386.372 178.621C386.372 179.685 385.722 180.543 383.948 180.543H379.956V176.788H383.8Z" fill="white"/>
<path d="M394.075 183.351C395.287 183.351 396.263 182.376 396.263 181.104C396.263 179.922 395.287 179.005 394.075 179.005C392.833 179.005 391.887 179.922 391.887 181.104C391.887 182.376 392.833 183.351 394.075 183.351Z" fill="white"/>
<path d="M406.545 183.056H409.649V173.151L419.201 183.056H423.34L412.961 172.353L422.778 162.36H419.082L409.649 171.969V162.36H406.545V183.056Z" fill="white"/>
<path d="M431.249 183.351C435.833 183.351 439.085 179.951 439.085 175.664C439.085 171.377 435.833 167.977 431.249 167.977C426.666 167.977 423.413 171.377 423.413 175.664C423.413 179.951 426.666 183.351 431.249 183.351ZM431.249 180.69C428.44 180.69 426.518 178.473 426.518 175.664C426.518 172.855 428.44 170.638 431.249 170.638C434.058 170.638 435.98 172.855 435.98 175.664C435.98 178.473 434.058 180.69 431.249 180.69Z" fill="white"/>
<path d="M442.816 175.664C442.757 179.33 442.343 180.395 440.155 180.395V183.351C444.206 183.351 445.448 181.341 445.596 175.723L445.714 170.934H451.096V183.056H454.053V168.273H442.964L442.816 175.664Z" fill="white"/>
<path d="M459.247 175.664C459.188 179.33 458.774 180.395 456.586 180.395V183.351C460.637 183.351 461.879 181.341 462.027 175.723L462.145 170.934H467.527V183.056H470.484V168.273H459.395L459.247 175.664Z" fill="white"/>
<path d="M481.001 180.779C478.28 180.779 476.565 178.887 476.358 176.196H488.6C488.659 175.901 488.689 175.576 488.689 175.28C488.689 171.229 485.554 167.977 481.001 167.977C476.447 167.977 473.312 171.348 473.312 175.664C473.312 180.129 476.447 183.351 481.001 183.351C484.815 183.351 487.269 181.607 488.127 178.473H485.288C484.697 179.833 483.396 180.779 481.001 180.779ZM481.001 170.549C483.396 170.549 484.993 172.028 485.525 174.127H476.506C477.068 171.969 478.753 170.549 481.001 170.549Z" fill="white"/>
<path d="M491.526 183.056H494.483V170.934H501.52V168.273H491.526V183.056Z" fill="white"/>
<path d="M504.058 183.056H507.015L514.26 172.53V183.056H517.217V168.273H514.26L507.015 178.798V168.273H504.058V183.056Z" fill="white"/>
<path d="M8.86281 212.944C6.20152 212.944 4.33862 210.963 4.33862 207.918C4.33862 204.902 6.14238 202.892 8.86281 202.892C11.051 202.892 12.3225 203.956 12.8843 205.848H15.8413C15.2795 202.389 12.766 200.231 8.86281 200.231C4.33862 200.231 1.23378 203.66 1.23378 207.918C1.23378 212.205 4.33862 215.605 8.92195 215.605C12.6773 215.605 15.2499 213.595 15.9596 209.84H13.0026C12.4703 211.909 11.051 212.944 8.86281 212.944Z" fill="white"/>
<path d="M25.6162 215.605C30.1996 215.605 33.4523 212.205 33.4523 207.918C33.4523 203.631 30.1996 200.231 25.6162 200.231C21.0329 200.231 17.7802 203.631 17.7802 207.918C17.7802 212.205 21.0329 215.605 25.6162 215.605ZM25.6162 212.944C22.8071 212.944 20.885 210.727 20.885 207.918C20.885 205.109 22.8071 202.892 25.6162 202.892C28.4254 202.892 30.3474 205.109 30.3474 207.918C30.3474 210.727 28.4254 212.944 25.6162 212.944Z" fill="white"/>
<path d="M41.7856 215.605C46.3394 215.605 48.2319 213.417 48.2319 211.022C48.2319 209.367 47.0491 208.036 45.1566 207.622C46.8421 207.179 47.7588 205.907 47.7588 204.4C47.7588 202.153 45.955 200.231 41.8152 200.231C38.0598 200.231 35.6943 202.182 35.3986 205.227H38.4738C38.74 204.015 39.5383 202.892 41.7561 202.892C43.7373 202.892 44.6539 203.779 44.6539 204.873C44.6539 205.937 43.9738 206.647 41.8744 206.647H39.834V209.16H42.3179C44.3582 209.16 45.127 209.928 45.127 210.934C45.127 211.998 44.4469 212.944 41.7856 212.944C39.5383 212.944 38.533 211.998 38.1781 210.461H35.1029C35.3986 213.506 37.4684 215.605 41.7856 215.605Z" fill="white"/>
<path d="M49.5921 218.562H52.4012V215.309H63.2238V218.562H66.033V212.648H63.9631V200.526H52.6378V202.212C52.6378 208.598 52.0464 211.2 51.4254 212.648H49.5921V218.562ZM54.3529 212.648C54.8851 211.288 55.3582 209.189 55.4174 203.187H61.0061V212.648H54.3529Z" fill="white"/>
<path d="M77.5627 206.055V206.292C70.7912 206.292 67.6863 208.095 67.6863 211.466C67.6863 214.127 69.431 215.605 72.2105 215.605C75.2562 215.605 76.8234 213.92 77.5627 211.761V215.309H80.5197V206.351C80.5197 202.241 78.3611 200.231 74.3691 200.231C70.7025 200.231 68.396 202.034 67.9229 205.464H70.8799C71.1164 203.926 72.2992 202.892 74.3691 202.892C76.3799 202.892 77.5627 203.926 77.5627 206.055ZM70.7912 211.318C70.7912 209.544 72.6836 208.42 77.5627 208.42C77.5627 210.963 75.9363 213.062 72.8906 213.062C71.5896 213.062 70.7912 212.441 70.7912 211.318Z" fill="white"/>
<path d="M84.1022 215.309H87.0592V209.012H89.484C89.9867 212.767 92.9436 215.605 96.9651 215.605C101.371 215.605 104.505 212.205 104.505 207.918C104.505 203.631 101.371 200.231 96.9651 200.231C93.1211 200.231 90.2232 202.833 89.5727 206.351H87.0592V200.526H84.1022V215.309ZM96.9651 212.944C94.3334 212.944 92.5297 210.727 92.5297 207.918C92.5297 205.109 94.3334 202.892 96.9651 202.892C99.5969 202.892 101.401 205.109 101.401 207.918C101.401 210.727 99.5969 212.944 96.9651 212.944Z" fill="white"/>
<path d="M110.733 215.309H113.69V203.187H118.835V200.526H105.588V203.187H110.733V215.309Z" fill="white"/>
<path d="M135.615 221.223H138.572V215.605C142.948 215.398 146.704 212.648 146.704 207.918C146.704 203.187 142.948 200.408 138.572 200.231V194.613H135.615V200.231C131.239 200.408 127.483 203.187 127.483 207.918C127.483 212.648 131.239 215.398 135.615 215.605V221.223ZM130.588 207.918C130.588 204.607 133.013 202.921 135.615 202.803V213.033C133.013 212.915 130.588 211.229 130.588 207.918ZM138.572 202.803C141.145 202.921 143.599 204.607 143.599 207.918C143.599 211.229 141.145 212.915 138.572 213.033V202.803Z" fill="white"/>
<path d="M155.846 216.078L162.115 200.526H159.247L154.9 211.554L150.494 200.526H147.33L153.303 215.368C152.357 218 151.765 218.562 148.66 218.562V221.223C153.096 221.223 154.249 220.069 155.846 216.078Z" fill="white"/>
<path d="M162.298 218.562H165.108V215.309H175.93V218.562H178.739V212.648H176.669V200.526H165.344V202.212C165.344 208.598 164.753 211.2 164.132 212.648H162.298V218.562ZM167.059 212.648C167.591 211.288 168.065 209.189 168.124 203.187H173.712V212.648H167.059Z" fill="white"/>
<path d="M190.739 209.101V206.44H180.833V209.101H190.739Z" fill="white"/>
<path d="M200.923 212.944C198.261 212.944 196.399 210.963 196.399 207.918C196.399 204.902 198.202 202.892 200.923 202.892C203.111 202.892 204.382 203.956 204.944 205.848H207.901C207.339 202.389 204.826 200.231 200.923 200.231C196.399 200.231 193.294 203.66 193.294 207.918C193.294 212.205 196.399 215.605 200.982 215.605C204.737 215.605 207.31 213.595 208.02 209.84H205.063C204.53 211.909 203.111 212.944 200.923 212.944Z" fill="white"/>
<path d="M217.528 213.033C214.808 213.033 213.093 211.141 212.886 208.45H225.128C225.187 208.154 225.216 207.829 225.216 207.534C225.216 203.483 222.082 200.231 217.528 200.231C212.975 200.231 209.84 203.601 209.84 207.918C209.84 212.382 212.975 215.605 217.528 215.605C221.343 215.605 223.797 213.861 224.655 210.727H221.816C221.225 212.087 219.923 213.033 217.528 213.033ZM217.528 202.803C219.923 202.803 221.52 204.281 222.053 206.38H213.034C213.596 204.222 215.281 202.803 217.528 202.803Z" fill="white"/>
<path d="M231.01 200.526H228.053V221.223H231.01V211.998C232.075 214.186 234.086 215.605 236.776 215.605C240.887 215.605 243.578 212.205 243.578 207.918C243.578 203.631 240.828 200.231 236.776 200.231C234.086 200.231 232.075 201.65 231.01 203.838V200.526ZM235.742 202.892C238.521 202.892 240.473 204.843 240.473 207.918C240.473 210.993 238.521 212.944 235.742 212.944C233.08 212.944 231.01 210.904 231.01 207.918C231.01 204.961 233.08 202.892 235.742 202.892Z" fill="white"/>
<path d="M246.419 215.309H253.486C257.537 215.309 258.838 213.181 258.838 211.17C258.838 209.189 257.508 208.066 255.349 207.711C257.242 207.208 258.188 205.907 258.188 204.37C258.188 201.916 256.384 200.526 253.102 200.526H246.419V215.309ZM252.954 206.676H249.317V203.04H252.954C254.492 203.04 255.142 203.838 255.142 204.873C255.142 205.878 254.492 206.676 252.954 206.676ZM253.161 209.041C255.083 209.041 255.734 209.928 255.734 210.874C255.734 211.939 255.083 212.796 253.309 212.796H249.317V209.041H253.161Z" fill="white"/>
<path d="M261.695 215.309H264.652L271.896 204.784V215.309H274.853V200.526H271.896L264.652 211.052V200.526H261.695V215.309Z" fill="white"/>
<path d="M285.33 212.944C282.668 212.944 280.806 210.963 280.806 207.918C280.806 204.902 282.609 202.892 285.33 202.892C287.518 202.892 288.789 203.956 289.351 205.848H292.308C291.746 202.389 289.233 200.231 285.33 200.231C280.806 200.231 277.701 203.66 277.701 207.918C277.701 212.205 280.806 215.605 285.389 215.605C289.144 215.605 291.717 213.595 292.427 209.84H289.47C288.937 211.909 287.518 212.944 285.33 212.944Z" fill="white"/>
<path d="M295.279 215.309H301.754C305.746 215.309 307.521 212.737 307.521 210.194C307.521 207.622 305.746 205.168 301.754 205.168H298.236V200.526H295.279V215.309ZM309.502 215.309H312.459V200.526H309.502V215.309ZM301.666 207.77C303.617 207.77 304.416 208.953 304.416 210.194C304.416 211.584 303.617 212.678 301.814 212.678H298.236V207.77H301.666Z" fill="white"/>
<path d="M316.54 217.97H318.137L319.409 215.191C319.852 214.215 319.97 213.713 319.97 213.358C319.97 212.146 318.995 211.259 317.782 211.259C316.54 211.259 315.594 212.146 315.594 213.358C315.594 214.127 315.919 214.866 317.043 215.368L316.54 217.97Z" fill="white"/>
<path d="M2.12087 247.563H5.07786V235.441H11.7311V247.563H14.6881V232.78H2.12087V247.563Z" fill="white"/>
<path d="M25.3563 247.859C29.9397 247.859 33.1924 244.459 33.1924 240.172C33.1924 235.884 29.9397 232.484 25.3563 232.484C20.773 232.484 17.5203 235.884 17.5203 240.172C17.5203 244.459 20.773 247.859 25.3563 247.859ZM25.3563 245.198C22.5472 245.198 20.6252 242.98 20.6252 240.172C20.6252 237.363 22.5472 235.145 25.3563 235.145C28.1655 235.145 30.0875 237.363 30.0875 240.172C30.0875 242.98 28.1655 245.198 25.3563 245.198Z" fill="white"/>
<path d="M34.4029 250.815H37.212V247.563H48.0346V250.815H50.8437V244.902H48.7738V232.78H37.4486V234.465C37.4486 240.852 36.8572 243.453 36.2362 244.902H34.4029V250.815ZM39.1636 244.902C39.6959 243.542 40.169 241.443 40.2281 235.441H45.8169V244.902H39.1636Z" fill="white"/>
<path d="M52.3354 250.815H55.1445V247.563H65.9671V250.815H68.7763V244.902H66.7064V232.78H55.3811V234.465C55.3811 240.852 54.7897 243.453 54.1687 244.902H52.3354V250.815ZM57.0962 244.902C57.6284 243.542 58.1015 241.443 58.1607 235.441H63.7494V244.902H57.0962Z" fill="white"/>
<path d="M77.9665 245.286C75.2461 245.286 73.531 243.394 73.324 240.704H85.5659C85.6251 240.408 85.6547 240.083 85.6547 239.787C85.6547 235.737 82.5203 232.484 77.9665 232.484C73.4127 232.484 70.2783 235.855 70.2783 240.172C70.2783 244.636 73.4127 247.859 77.9665 247.859C81.781 247.859 84.2353 246.114 85.0928 242.98H82.2541C81.6627 244.34 80.3616 245.286 77.9665 245.286ZM77.9665 235.057C80.3616 235.057 81.9584 236.535 82.4907 238.634H73.4719C74.0337 236.476 75.7192 235.057 77.9665 235.057Z" fill="white"/>
<path d="M91.4485 232.78H88.4915V253.476H91.4485V244.252C92.513 246.439 94.5238 247.859 97.2146 247.859C101.325 247.859 104.016 244.459 104.016 240.172C104.016 235.884 101.266 232.484 97.2146 232.484C94.5238 232.484 92.513 233.904 91.4485 236.091V232.78ZM96.1797 235.145C98.9593 235.145 100.911 237.097 100.911 240.172C100.911 243.246 98.9593 245.198 96.1797 245.198C93.5184 245.198 91.4485 243.158 91.4485 240.172C91.4485 237.215 93.5184 235.145 96.1797 235.145Z" fill="white"/>
<path d="M114.352 247.563H117.309V240.645L123.608 247.563H127.511L120.414 239.817L126.949 232.78H123.489L117.309 239.432V232.78H114.352V239.432L108.172 232.78H104.565L111.247 239.965L104.298 247.563H108.054L114.352 240.645V247.563Z" fill="white"/>
<path d="M129.266 247.563H132.223L139.467 237.038V247.563H142.424V232.78H139.467L132.223 243.306V232.78H129.266V247.563Z" fill="white"/>
<path d="M146.159 247.563H153.226C157.277 247.563 158.578 245.434 158.578 243.424C158.578 241.443 157.247 240.319 155.089 239.965C156.981 239.462 157.927 238.161 157.927 236.624C157.927 234.17 156.124 232.78 152.841 232.78H146.159V247.563ZM152.694 238.93H149.056V235.293H152.694C154.231 235.293 154.882 236.091 154.882 237.126C154.882 238.131 154.231 238.93 152.694 238.93ZM152.901 241.295C154.823 241.295 155.473 242.182 155.473 243.128C155.473 244.192 154.823 245.05 153.048 245.05H149.056V241.295H152.901Z" fill="white"/>
<path d="M170.719 238.309V238.545C163.948 238.545 160.843 240.349 160.843 243.719C160.843 246.38 162.588 247.859 165.367 247.859C168.413 247.859 169.98 246.173 170.719 244.015V247.563H173.676V238.605C173.676 234.495 171.518 232.484 167.526 232.484C163.859 232.484 161.553 234.288 161.08 237.718H164.037C164.273 236.18 165.456 235.145 167.526 235.145C169.537 235.145 170.719 236.18 170.719 238.309ZM163.948 243.572C163.948 241.798 165.84 240.674 170.719 240.674C170.719 243.217 169.093 245.316 166.047 245.316C164.746 245.316 163.948 244.695 163.948 243.572Z" fill="white"/>
<path d="M177.259 247.563H180.216V241.265H182.641C183.143 245.02 186.1 247.859 190.122 247.859C194.528 247.859 197.662 244.459 197.662 240.172C197.662 235.884 194.528 232.484 190.122 232.484C186.278 232.484 183.38 235.086 182.729 238.605H180.216V232.78H177.259V247.563ZM190.122 245.198C187.49 245.198 185.686 242.98 185.686 240.172C185.686 237.363 187.49 235.145 190.122 235.145C192.754 235.145 194.557 237.363 194.557 240.172C194.557 242.98 192.754 245.198 190.122 245.198Z" fill="white"/>
<path d="M203.89 247.563H206.847V235.441H211.992V232.78H198.744V235.441H203.89V247.563Z" fill="white"/>
<path d="M224.484 232.78H221.527V253.476H224.484V244.252C225.549 246.439 227.559 247.859 230.25 247.859C234.361 247.859 237.051 244.459 237.051 240.172C237.051 235.884 234.301 232.484 230.25 232.484C227.559 232.484 225.549 233.904 224.484 236.091V232.78ZM229.215 235.145C231.995 235.145 233.947 237.097 233.947 240.172C233.947 243.246 231.995 245.198 229.215 245.198C226.554 245.198 224.484 243.158 224.484 240.172C224.484 237.215 226.554 235.145 229.215 235.145Z" fill="white"/>
<path d="M249.033 238.309V238.545C242.262 238.545 239.157 240.349 239.157 243.719C239.157 246.38 240.902 247.859 243.681 247.859C246.727 247.859 248.294 246.173 249.033 244.015V247.563H251.99V238.605C251.99 234.495 249.832 232.484 245.84 232.484C242.173 232.484 239.867 234.288 239.394 237.718H242.351C242.587 236.18 243.77 235.145 245.84 235.145C247.851 235.145 249.033 236.18 249.033 238.309ZM242.262 243.572C242.262 241.798 244.154 240.674 249.033 240.674C249.033 243.217 247.407 245.316 244.361 245.316C243.06 245.316 242.262 244.695 242.262 243.572Z" fill="white"/>
<path d="M262.64 247.859C267.342 247.859 270.476 244.577 270.476 240.467C270.476 236.417 267.904 233.105 263.705 233.105C260.925 233.105 258.648 234.702 257.672 237.008C257.791 232.603 259.092 230.74 264.119 230.09C267.164 229.705 269.234 229.084 269.707 226.276H266.928C266.721 227.015 265.656 227.251 263.646 227.488C257.436 228.227 254.834 231.302 254.834 238.457C254.834 240.999 255.159 243.01 256.135 244.518C257.288 246.351 259.624 247.859 262.64 247.859ZM262.64 245.198C259.89 245.198 257.939 243.246 257.939 240.467C257.939 237.747 259.89 235.766 262.64 235.766C265.42 235.766 267.371 237.747 267.371 240.467C267.371 243.246 265.42 245.198 262.64 245.198Z" fill="white"/>
<path d="M280.252 247.859C284.836 247.859 288.088 244.459 288.088 240.172C288.088 235.884 284.836 232.484 280.252 232.484C275.669 232.484 272.416 235.884 272.416 240.172C272.416 244.459 275.669 247.859 280.252 247.859ZM280.252 245.198C277.443 245.198 275.521 242.98 275.521 240.172C275.521 237.363 277.443 235.145 280.252 235.145C283.061 235.145 284.983 237.363 284.983 240.172C284.983 242.98 283.061 245.198 280.252 245.198Z" fill="white"/>
<path d="M294.303 247.563H297.26V235.441H302.405V232.78H289.158V235.441H294.303V247.563Z" fill="white"/>
<path d="M311.694 248.332L317.963 232.78H315.095L310.748 243.808L306.342 232.78H303.178L309.151 247.622C308.205 250.254 307.614 250.815 304.509 250.815V253.476C308.944 253.476 310.098 252.323 311.694 248.332Z" fill="white"/>
<path d="M326.899 247.563H329.708V236.269L334.262 247.563H336.627L341.181 236.269V247.563H344.138V232.78H339.969L335.592 243.69L331.186 232.78H326.899V247.563Z" fill="white"/>
<path d="M357.148 238.309V238.545C350.377 238.545 347.272 240.349 347.272 243.719C347.272 246.38 349.017 247.859 351.796 247.859C354.842 247.859 356.409 246.173 357.148 244.015V247.563H360.105V238.605C360.105 234.495 357.947 232.484 353.955 232.484C350.288 232.484 347.982 234.288 347.509 237.718H350.466C350.702 236.18 351.885 235.145 353.955 235.145C355.966 235.145 357.148 236.18 357.148 238.309ZM350.377 243.572C350.377 241.798 352.269 240.674 357.148 240.674C357.148 243.217 355.522 245.316 352.476 245.316C351.175 245.316 350.377 244.695 350.377 243.572Z" fill="white"/>
<path d="M363.688 247.563H366.645V235.441H373.682V232.78H363.688V247.563Z" fill="white"/>
<path d="M384.928 238.309V238.545C378.156 238.545 375.052 240.349 375.052 243.719C375.052 246.38 376.796 247.859 379.576 247.859C382.621 247.859 384.189 246.173 384.928 244.015V247.563H387.885V238.605C387.885 234.495 385.726 232.484 381.734 232.484C378.068 232.484 375.761 234.288 375.288 237.718H378.245C378.482 236.18 379.664 235.145 381.734 235.145C383.745 235.145 384.928 236.18 384.928 238.309ZM378.156 243.572C378.156 241.798 380.049 240.674 384.928 240.674C384.928 243.217 383.301 245.316 380.256 245.316C378.955 245.316 378.156 244.695 378.156 243.572Z" fill="white"/>
<path d="M397.115 247.859C401.669 247.859 403.561 245.671 403.561 243.276C403.561 241.62 402.379 240.29 400.486 239.876C402.172 239.432 403.088 238.161 403.088 236.653C403.088 234.406 401.285 232.484 397.145 232.484C393.389 232.484 391.024 234.436 390.728 237.481H393.803C394.07 236.269 394.868 235.145 397.086 235.145C399.067 235.145 399.984 236.032 399.984 237.126C399.984 238.191 399.303 238.9 397.204 238.9H395.164V241.413H397.648C399.688 241.413 400.457 242.182 400.457 243.187C400.457 244.252 399.777 245.198 397.115 245.198C394.868 245.198 393.863 244.252 393.508 242.714H390.432C390.728 245.759 392.798 247.859 397.115 247.859Z" fill="white"/>
<path d="M406.541 247.563H409.498L416.743 237.038V247.563H419.7V232.78H416.743L409.498 243.306V232.78H406.541V247.563Z" fill="white"/>
<path d="M423.434 247.563H426.391V241.354H433.34V247.563H436.297V232.78H433.34V238.693H426.391V232.78H423.434V247.563Z" fill="white"/>
<path d="M446.958 247.859C451.542 247.859 454.794 244.459 454.794 240.172C454.794 235.884 451.542 232.484 446.958 232.484C442.375 232.484 439.122 235.884 439.122 240.172C439.122 244.459 442.375 247.859 446.958 247.859ZM446.958 245.198C444.149 245.198 442.227 242.98 442.227 240.172C442.227 237.363 444.149 235.145 446.958 235.145C449.767 235.145 451.689 237.363 451.689 240.172C451.689 242.98 449.767 245.198 446.958 245.198Z" fill="white"/>
<path d="M457.624 247.563H464.691C468.743 247.563 470.044 245.434 470.044 243.424C470.044 241.443 468.713 240.319 466.554 239.965C468.447 239.462 469.393 238.161 469.393 236.624C469.393 234.17 467.589 232.78 464.307 232.78H457.624V247.563ZM464.159 238.93H460.522V235.293H464.159C465.697 235.293 466.347 236.091 466.347 237.126C466.347 238.131 465.697 238.93 464.159 238.93ZM464.366 241.295C466.288 241.295 466.939 242.182 466.939 243.128C466.939 244.192 466.288 245.05 464.514 245.05H460.522V241.295H464.366Z" fill="white"/>
<path d="M2.12087 279.817H5.07786L12.3225 269.291V279.817H15.2795V265.034H12.3225L5.07786 275.559V265.034H2.12087V279.817Z" fill="white"/>
<path d="M32.744 280.585L39.0128 265.034H36.1445L31.7977 276.062L27.3918 265.034H24.2278L30.201 279.876C29.2547 282.507 28.6633 283.069 25.5585 283.069V285.73C29.994 285.73 31.1472 284.577 32.744 280.585Z" fill="white"/>
<path d="M41.3992 272.425C41.34 276.091 40.926 277.156 38.7379 277.156V280.112C42.7889 280.112 44.0309 278.102 44.1787 272.484L44.297 267.695H49.6787V279.817H52.6357V265.034H41.547L41.3992 272.425Z" fill="white"/>
<path d="M63.0935 280.585L69.3624 265.034H66.4941L62.1473 276.062L57.7414 265.034H54.5774L60.5505 279.876C59.6043 282.507 59.0129 283.069 55.908 283.069V285.73C60.3435 285.73 61.4968 284.577 63.0935 280.585Z" fill="white"/>
<path d="M71.0141 268.877C71.0141 273.43 73.7641 274.731 77.2238 274.731C78.4361 274.731 79.5598 274.583 80.6243 274.317V279.817H83.5813V265.034H80.6243V271.745C79.6781 271.982 78.7318 272.07 77.8447 272.07C75.3313 272.07 73.9711 271.272 73.9711 268.877V265.034H71.0141V268.877Z" fill="white"/>
<path d="M87.3076 279.817H107.415V265.034H104.458V277.097H98.8398V265.034H95.8828V277.097H90.2646V265.034H87.3076V279.817Z" fill="white"/>
<path d="M120.416 270.563V270.799C113.644 270.799 110.54 272.603 110.54 275.973C110.54 278.634 112.284 280.112 115.064 280.112C118.109 280.112 119.677 278.427 120.416 276.269V279.817H123.373V270.858C123.373 266.749 121.214 264.738 117.222 264.738C113.556 264.738 111.249 266.542 110.776 269.971H113.733C113.97 268.434 115.152 267.399 117.222 267.399C119.233 267.399 120.416 268.434 120.416 270.563ZM113.644 275.825C113.644 274.051 115.537 272.928 120.416 272.928C120.416 275.47 118.79 277.57 115.744 277.57C114.443 277.57 113.644 276.949 113.644 275.825Z" fill="white"/>
<path d="M126.955 279.817H129.912V273.519H132.337C132.84 277.274 135.797 280.112 139.818 280.112C144.224 280.112 147.359 276.712 147.359 272.425C147.359 268.138 144.224 264.738 139.818 264.738C135.974 264.738 133.076 267.34 132.426 270.858H129.912V265.034H126.955V279.817ZM139.818 277.451C137.187 277.451 135.383 275.234 135.383 272.425C135.383 269.616 137.187 267.399 139.818 267.399C142.45 267.399 144.254 269.616 144.254 272.425C144.254 275.234 142.45 277.451 139.818 277.451Z" fill="white"/>
<path d="M153.586 279.817H156.543V267.695H161.688V265.034H148.441V267.695H153.586V279.817Z" fill="white"/>
<path d="M171.224 279.817H174.181V272.869L180.775 279.817H184.767L177.345 272.07L184.205 265.034H180.657L174.181 271.686V265.034H171.224V279.817Z" fill="white"/>
<path d="M187.891 272.425C187.832 276.091 187.418 277.156 185.23 277.156V280.112C189.281 280.112 190.523 278.102 190.671 272.484L190.789 267.695H196.171V279.817H199.128V265.034H188.039L187.891 272.425Z" fill="white"/>
<path d="M202.844 279.817H205.801L213.045 269.291V279.817H216.002V265.034H213.045L205.801 275.559V265.034H202.844V279.817Z" fill="white"/>
<path d="M226.538 277.54C223.817 277.54 222.102 275.648 221.895 272.957H234.137C234.197 272.662 234.226 272.337 234.226 272.041C234.226 267.99 231.092 264.738 226.538 264.738C221.984 264.738 218.85 268.109 218.85 272.425C218.85 276.89 221.984 280.112 226.538 280.112C230.352 280.112 232.807 278.368 233.664 275.234H230.826C230.234 276.594 228.933 277.54 226.538 277.54ZM226.538 267.31C228.933 267.31 230.53 268.789 231.062 270.888H222.043C222.605 268.729 224.291 267.31 226.538 267.31Z" fill="white"/>
<path d="M237.063 279.817H240.02V273.608H246.969V279.817H249.926V265.034H246.969V270.947H240.02V265.034H237.063V279.817Z" fill="white"/>
<path d="M257.601 279.817H260.558V267.695H265.703V265.034H252.455V267.695H257.601V279.817Z" fill="white"/>
<path d="M274.414 277.451C271.753 277.451 269.89 275.47 269.89 272.425C269.89 269.409 271.694 267.399 274.414 267.399C276.602 267.399 277.874 268.463 278.436 270.356H281.393C280.831 266.896 278.318 264.738 274.414 264.738C269.89 264.738 266.785 268.168 266.785 272.425C266.785 276.712 269.89 280.112 274.473 280.112C278.229 280.112 280.801 278.102 281.511 274.347H278.554C278.022 276.417 276.602 277.451 274.414 277.451Z" fill="white"/>
<path d="M284.363 279.817H287.32V272.869L293.914 279.817H297.906L290.484 272.07L297.344 265.034H293.796L287.32 271.686V265.034H284.363V279.817Z" fill="white"/>
<path d="M299.552 279.817H302.509L309.754 269.291V279.817H312.711V265.034H309.754L302.509 275.559V265.034H299.552V279.817Z" fill="white"/>
<path d="M318.515 259.121C318.515 261.604 320.142 263.26 323.039 263.26C325.937 263.26 327.564 261.604 327.564 259.121H324.932C324.932 260.51 324.222 261.161 323.039 261.161C321.857 261.161 321.147 260.51 321.147 259.121H318.515ZM316.445 279.817H319.402L326.647 269.291V279.817H329.604V265.034H326.647L319.402 275.559V265.034H316.445V279.817Z" fill="white"/>
<path d="M347.275 280.112C351.859 280.112 355.111 276.712 355.111 272.425C355.111 268.138 351.859 264.738 347.275 264.738C342.692 264.738 339.439 268.138 339.439 272.425C339.439 276.712 342.692 280.112 347.275 280.112ZM347.275 277.451C344.466 277.451 342.544 275.234 342.544 272.425C342.544 269.616 344.466 267.399 347.275 267.399C350.085 267.399 352.007 269.616 352.007 272.425C352.007 275.234 350.085 277.451 347.275 277.451Z" fill="white"/>
<path d="M357.941 279.817H360.898V267.695H367.552V279.817H370.509V265.034H357.941V279.817Z" fill="white"/>
<path d="M374.228 279.817H380.704C384.696 279.817 386.47 277.244 386.47 274.702C386.47 272.13 384.696 269.676 380.704 269.676H377.185V265.034H374.228V279.817ZM388.451 279.817H391.408V265.034H388.451V279.817ZM380.615 272.277C382.567 272.277 383.365 273.46 383.365 274.702C383.365 276.091 382.567 277.185 380.763 277.185H377.185V272.277H380.615Z" fill="white"/>
<path d="M399.097 279.817H402.054V267.695H407.199V265.034H393.952V267.695H399.097V279.817Z" fill="white"/>
<path d="M409.264 280.112C410.476 280.112 411.452 279.137 411.452 277.865C411.452 276.683 410.476 275.766 409.264 275.766C408.022 275.766 407.076 276.683 407.076 277.865C407.076 279.137 408.022 280.112 409.264 280.112Z" fill="white"/>
</g>
</svg>
