<svg width="412" height="59" viewBox="0 0 412 59" fill="none" xmlns="http://www.w3.org/2000/svg">
<g id="&#208;&#145;&#208;&#190;&#208;&#187;&#209;&#140;&#209;&#136;&#208;&#184;&#208;&#181; &#209;&#132;&#208;&#190;&#209;&#128;&#208;&#188;&#208;&#176;&#209;&#130;&#209;&#139; &#208;&#188;&#208;&#176;&#208;&#179;&#208;&#176;&#208;&#183;&#208;&#184;&#208;&#189;&#208;&#190;&#208;&#178; &#208;&#178;&#194;&#160;&#208;&#191;&#208;&#190;&#208;&#180;&#208;&#188;&#208;&#190;&#209;&#129;&#208;&#186;&#208;&#190;&#208;&#178;&#208;&#189;&#209;&#139;&#209;&#133; &#208;&#179;&#208;&#190;&#209;&#128;&#208;&#190;&#208;&#180;&#208;&#176;&#209;&#133;.">
<path d="M9.40604 20.7879C14.1668 20.7879 16.0593 17.8017 16.0593 14.6382C16.0593 11.5338 14.1668 8.45893 9.40604 8.45893H3.37378V2.90055H14.4625V0.0917969H0.268943V20.7879H9.40604ZM9.31733 11.2677C11.7421 11.2677 12.8066 12.7755 12.8066 14.6382C12.8066 16.353 11.7421 17.9791 9.16948 17.9791H3.37378V11.2677H9.31733Z" fill="white"/>
<path d="M25.7533 21.0836C30.3367 21.0836 33.5894 17.6835 33.5894 13.3964C33.5894 9.10938 30.3367 5.70931 25.7533 5.70931C21.17 5.70931 17.9173 9.10938 17.9173 13.3964C17.9173 17.6835 21.17 21.0836 25.7533 21.0836ZM25.7533 18.4226C22.9442 18.4226 21.0222 16.2052 21.0222 13.3964C21.0222 10.5877 22.9442 8.37024 25.7533 8.37024C28.5625 8.37024 30.4845 10.5877 30.4845 13.3964C30.4845 16.2052 28.5625 18.4226 25.7533 18.4226Z" fill="white"/>
<path d="M37.3202 13.3964C37.2611 17.0626 36.8471 18.127 34.659 18.127V21.0836C38.71 21.0836 39.952 19.0731 40.0998 13.4556L40.2181 8.6659H45.5998V20.7879H48.5568V6.00497H37.4681L37.3202 13.3964Z" fill="white"/>
<path d="M52.2727 20.7879H58.7485C62.7404 20.7879 64.5146 18.2157 64.5146 15.673C64.5146 13.1008 62.7404 10.6468 58.7485 10.6468H55.2297V6.00497H52.2727V20.7879ZM58.6598 13.2486C60.6114 13.2486 61.4098 14.4312 61.4098 15.673C61.4098 17.0626 60.6114 18.1565 58.8076 18.1565H55.2297V13.2486H58.6598Z" fill="white"/>
<path d="M67.0576 20.7879H87.1651V6.00497H84.2082V18.0678H78.5899V6.00497H75.6329V18.0678H70.0146V6.00497H67.0576V20.7879Z" fill="white"/>
<path d="M90.881 20.7879H93.838L101.083 10.2625V20.7879H104.04V6.00497H101.083L93.838 16.5304V6.00497H90.881V20.7879Z" fill="white"/>
<path d="M114.575 18.5113C111.855 18.5113 110.14 16.6191 109.933 13.9286H122.174C122.234 13.633 122.263 13.3077 122.263 13.0121C122.263 8.96155 119.129 5.70931 114.575 5.70931C110.021 5.70931 106.887 9.07982 106.887 13.3964C106.887 17.8609 110.021 21.0836 114.575 21.0836C118.39 21.0836 120.844 19.3392 121.701 16.2052H118.863C118.271 17.5652 116.97 18.5113 114.575 18.5113ZM114.575 8.28154C116.97 8.28154 118.567 9.75983 119.099 11.859H110.08C110.642 9.7007 112.328 8.28154 114.575 8.28154Z" fill="white"/>
<path d="M139.333 26.7011H142.29V21.0836C146.666 20.8766 150.422 18.127 150.422 13.3964C150.422 8.6659 146.666 5.88671 142.29 5.70931V0.0917969H139.333V5.70931C134.957 5.88671 131.201 8.6659 131.201 13.3964C131.201 18.127 134.957 20.8766 139.333 21.0836V26.7011ZM134.306 13.3964C134.306 10.0851 136.731 8.3998 139.333 8.28154V18.5113C136.731 18.3931 134.306 16.7078 134.306 13.3964ZM142.29 8.28154C144.862 8.3998 147.317 10.0851 147.317 13.3964C147.317 16.7078 144.862 18.3931 142.29 18.5113V8.28154Z" fill="white"/>
<path d="M160.204 21.0836C164.787 21.0836 168.04 17.6835 168.04 13.3964C168.04 9.10938 164.787 5.70931 160.204 5.70931C155.621 5.70931 152.368 9.10938 152.368 13.3964C152.368 17.6835 155.621 21.0836 160.204 21.0836ZM160.204 18.4226C157.395 18.4226 155.473 16.2052 155.473 13.3964C155.473 10.5877 157.395 8.37024 160.204 8.37024C163.013 8.37024 164.935 10.5877 164.935 13.3964C164.935 16.2052 163.013 18.4226 160.204 18.4226Z" fill="white"/>
<path d="M173.827 6.00497H170.87V26.7011H173.827V17.4765C174.891 19.6644 176.902 21.0836 179.593 21.0836C183.703 21.0836 186.394 17.6835 186.394 13.3964C186.394 9.10938 183.644 5.70931 179.593 5.70931C176.902 5.70931 174.891 7.12847 173.827 9.31634V6.00497ZM178.558 8.37024C181.338 8.37024 183.289 10.3216 183.289 13.3964C183.289 16.4713 181.338 18.4226 178.558 18.4226C175.897 18.4226 173.827 16.3826 173.827 13.3964C173.827 10.4398 175.897 8.37024 178.558 8.37024Z" fill="white"/>
<path d="M189.236 20.7879H192.045V9.49374L196.598 20.7879H198.964L203.518 9.49374V20.7879H206.475V6.00497H202.305L197.929 16.9148L193.523 6.00497H189.236V20.7879Z" fill="white"/>
<path d="M219.485 11.5338V11.7703C212.714 11.7703 209.609 13.5738 209.609 16.9443C209.609 19.6053 211.353 21.0836 214.133 21.0836C217.179 21.0836 218.746 19.3983 219.485 17.24V20.7879H222.442V11.8294C222.442 7.71979 220.283 5.70931 216.292 5.70931C212.625 5.70931 210.318 7.51283 209.845 10.9425H212.802C213.039 9.40504 214.222 8.37024 216.292 8.37024C218.302 8.37024 219.485 9.40504 219.485 11.5338ZM212.714 16.7965C212.714 15.0226 214.606 13.8991 219.485 13.8991C219.485 16.4417 217.859 18.5409 214.813 18.5409C213.512 18.5409 212.714 17.92 212.714 16.7965Z" fill="white"/>
<path d="M229.698 20.7879H232.655V8.6659H237.8V6.00497H224.553V8.6659H229.698V20.7879Z" fill="white"/>
<path d="M240.348 20.7879H246.823C250.815 20.7879 252.589 18.2157 252.589 15.673C252.589 13.1008 250.815 10.6468 246.823 10.6468H243.305V6.00497H240.348V20.7879ZM254.571 20.7879H257.528V6.00497H254.571V20.7879ZM246.735 13.2486C248.686 13.2486 249.485 14.4312 249.485 15.673C249.485 17.0626 248.686 18.1565 246.883 18.1565H243.305V13.2486H246.735Z" fill="white"/>
<path d="M268.243 20.7879H271.052V9.49374L275.605 20.7879H277.971L282.525 9.49374V20.7879H285.482V6.00497H281.312L276.936 16.9148L272.53 6.00497H268.243V20.7879Z" fill="white"/>
<path d="M298.492 11.5338V11.7703C291.721 11.7703 288.616 13.5738 288.616 16.9443C288.616 19.6053 290.36 21.0836 293.14 21.0836C296.186 21.0836 297.753 19.3983 298.492 17.24V20.7879H301.449V11.8294C301.449 7.71979 299.29 5.70931 295.299 5.70931C291.632 5.70931 289.325 7.51283 288.852 10.9425H291.809C292.046 9.40504 293.229 8.37024 295.299 8.37024C297.309 8.37024 298.492 9.40504 298.492 11.5338ZM291.721 16.7965C291.721 15.0226 293.613 13.8991 298.492 13.8991C298.492 16.4417 296.866 18.5409 293.82 18.5409C292.519 18.5409 291.721 17.92 291.721 16.7965Z" fill="white"/>
<path d="M305.032 20.7879H307.989V8.6659H315.026V6.00497H305.032V20.7879Z" fill="white"/>
<path d="M326.272 11.5338V11.7703C319.5 11.7703 316.395 13.5738 316.395 16.9443C316.395 19.6053 318.14 21.0836 320.919 21.0836C323.965 21.0836 325.532 19.3983 326.272 17.24V20.7879H329.229V11.8294C329.229 7.71979 327.07 5.70931 323.078 5.70931C319.411 5.70931 317.105 7.51283 316.632 10.9425H319.589C319.825 9.40504 321.008 8.37024 323.078 8.37024C325.089 8.37024 326.272 9.40504 326.272 11.5338ZM319.5 16.7965C319.5 15.0226 321.393 13.8991 326.272 13.8991C326.272 16.4417 324.645 18.5409 321.6 18.5409C320.299 18.5409 319.5 17.92 319.5 16.7965Z" fill="white"/>
<path d="M338.459 21.0836C343.013 21.0836 344.905 18.8957 344.905 16.5008C344.905 14.8452 343.723 13.5147 341.83 13.1008C343.516 12.6573 344.432 11.386 344.432 9.8781C344.432 7.63109 342.628 5.70931 338.489 5.70931C334.733 5.70931 332.368 7.66066 332.072 10.7059H335.147C335.413 9.49374 336.212 8.37024 338.429 8.37024C340.411 8.37024 341.327 9.25721 341.327 10.3511C341.327 11.4155 340.647 12.1251 338.548 12.1251H336.507V14.6382H338.991C341.032 14.6382 341.8 15.4069 341.8 16.4121C341.8 17.4765 341.12 18.4226 338.459 18.4226C336.212 18.4226 335.206 17.4765 334.852 15.9391H331.776C332.072 18.9844 334.142 21.0836 338.459 21.0836Z" fill="white"/>
<path d="M347.885 20.7879H350.842L358.087 10.2625V20.7879H361.044V6.00497H358.087L350.842 16.5304V6.00497H347.885V20.7879Z" fill="white"/>
<path d="M364.778 20.7879H367.735V14.5791H374.684V20.7879H377.641V6.00497H374.684V11.9181H367.735V6.00497H364.778V20.7879Z" fill="white"/>
<path d="M388.302 21.0836C392.885 21.0836 396.138 17.6835 396.138 13.3964C396.138 9.10938 392.885 5.70931 388.302 5.70931C383.719 5.70931 380.466 9.10938 380.466 13.3964C380.466 17.6835 383.719 21.0836 388.302 21.0836ZM388.302 18.4226C385.493 18.4226 383.571 16.2052 383.571 13.3964C383.571 10.5877 385.493 8.37024 388.302 8.37024C391.111 8.37024 393.033 10.5877 393.033 13.3964C393.033 16.2052 391.111 18.4226 388.302 18.4226Z" fill="white"/>
<path d="M398.968 20.7879H406.035C410.086 20.7879 411.387 18.6592 411.387 16.6487C411.387 14.6678 410.057 13.5443 407.898 13.1895C409.791 12.6869 410.737 11.386 410.737 9.84853C410.737 7.39456 408.933 6.00497 405.651 6.00497H398.968V20.7879ZM405.503 12.1547H401.866V8.51807H405.503C407.041 8.51807 407.691 9.31634 407.691 10.3511C407.691 11.3564 407.041 12.1547 405.503 12.1547ZM405.71 14.5199C407.632 14.5199 408.283 15.4069 408.283 16.353C408.283 17.4174 407.632 18.2748 405.858 18.2748H401.866V14.5199H405.71Z" fill="white"/>
<path d="M0.121094 53.0416H7.1883C11.2394 53.0416 12.5404 50.9128 12.5404 48.9023C12.5404 46.9214 11.2098 45.7979 9.0512 45.4431C10.9437 44.9405 11.8899 43.6396 11.8899 42.1022C11.8899 39.6482 10.0861 38.2586 6.80389 38.2586H0.121094V53.0416ZM6.65604 44.4083H3.01894V40.7717H6.65604C8.19367 40.7717 8.84421 41.57 8.84421 42.6048C8.84421 43.6101 8.19367 44.4083 6.65604 44.4083ZM6.86303 46.7736C8.78507 46.7736 9.43561 47.6606 9.43561 48.6067C9.43561 49.6711 8.78507 50.5285 7.01088 50.5285H3.01894V46.7736H6.86303Z" fill="white"/>
<path d="M22.5295 53.0416H25.4865V40.9196H32.1397V53.0416H35.0967V38.2586H22.5295V53.0416Z" fill="white"/>
<path d="M45.765 53.3372C50.3483 53.3372 53.601 49.9371 53.601 45.6501C53.601 41.363 50.3483 37.963 45.765 37.963C41.1817 37.963 37.929 41.363 37.929 45.6501C37.929 49.9371 41.1817 53.3372 45.765 53.3372ZM45.765 50.6763C42.9558 50.6763 41.0338 48.4588 41.0338 45.6501C41.0338 42.8413 42.9558 40.6239 45.765 40.6239C48.5741 40.6239 50.4962 42.8413 50.4962 45.6501C50.4962 48.4588 48.5741 50.6763 45.765 50.6763Z" fill="white"/>
<path d="M54.8115 56.2938H57.6207V53.0416H68.4432V56.2938H71.2524V50.3806H69.1825V38.2586H57.8572V39.9439C57.8572 46.3301 57.2658 48.9319 56.6449 50.3806H54.8115V56.2938ZM59.5723 50.3806C60.1045 49.0206 60.5777 46.9214 60.6368 40.9196H66.2255V50.3806H59.5723Z" fill="white"/>
<path d="M73.6415 53.0416H76.4507V41.7474L81.0044 53.0416H83.37L87.9238 41.7474V53.0416H90.8808V38.2586H86.7114L82.3351 49.1684L77.9292 38.2586H73.6415V53.0416Z" fill="white"/>
<path d="M101.555 53.3372C106.138 53.3372 109.391 49.9371 109.391 45.6501C109.391 41.363 106.138 37.963 101.555 37.963C96.9717 37.963 93.719 41.363 93.719 45.6501C93.719 49.9371 96.9717 53.3372 101.555 53.3372ZM101.555 50.6763C98.7459 50.6763 96.8239 48.4588 96.8239 45.6501C96.8239 42.8413 98.7459 40.6239 101.555 40.6239C104.364 40.6239 106.286 42.8413 106.286 45.6501C106.286 48.4588 104.364 50.6763 101.555 50.6763Z" fill="white"/>
<path d="M118.963 50.6763C116.302 50.6763 114.439 48.6954 114.439 45.6501C114.439 42.6344 116.243 40.6239 118.963 40.6239C121.151 40.6239 122.423 41.6883 122.984 43.5805H125.941C125.38 40.1213 122.866 37.963 118.963 37.963C114.439 37.963 111.334 41.3926 111.334 45.6501C111.334 49.9371 114.439 53.3372 119.022 53.3372C122.777 53.3372 125.35 51.3267 126.06 47.5719H123.103C122.57 49.6415 121.151 50.6763 118.963 50.6763Z" fill="white"/>
<path d="M128.912 53.0416H131.869V46.0936L138.463 53.0416H142.455L135.033 45.2953L141.893 38.2586H138.345L131.869 44.9109V38.2586H128.912V53.0416Z" fill="white"/>
<path d="M150.617 53.3372C155.2 53.3372 158.453 49.9371 158.453 45.6501C158.453 41.363 155.2 37.963 150.617 37.963C146.033 37.963 142.781 41.363 142.781 45.6501C142.781 49.9371 146.033 53.3372 150.617 53.3372ZM150.617 50.6763C147.808 50.6763 145.886 48.4588 145.886 45.6501C145.886 42.8413 147.808 40.6239 150.617 40.6239C153.426 40.6239 155.348 42.8413 155.348 45.6501C155.348 48.4588 153.426 50.6763 150.617 50.6763Z" fill="white"/>
<path d="M161.283 53.0416H168.35C172.401 53.0416 173.702 50.9128 173.702 48.9023C173.702 46.9214 172.371 45.7979 170.213 45.4431C172.105 44.9405 173.052 43.6396 173.052 42.1022C173.052 39.6482 171.248 38.2586 167.966 38.2586H161.283V53.0416ZM167.818 44.4083H164.181V40.7717H167.818C169.355 40.7717 170.006 41.57 170.006 42.6048C170.006 43.6101 169.355 44.4083 167.818 44.4083ZM168.025 46.7736C169.947 46.7736 170.597 47.6606 170.597 48.6067C170.597 49.6711 169.947 50.5285 168.173 50.5285H164.181V46.7736H168.025Z" fill="white"/>
<path d="M176.559 53.0416H179.516V46.8327H186.465V53.0416H189.421V38.2586H186.465V44.1718H179.516V38.2586H176.559V53.0416Z" fill="white"/>
<path d="M193.134 53.0416H199.61C203.602 53.0416 205.376 50.4693 205.376 47.9267C205.376 45.3544 203.602 42.9005 199.61 42.9005H196.091V38.2586H193.134V53.0416ZM207.357 53.0416H210.314V38.2586H207.357V53.0416ZM199.521 45.5023C201.473 45.5023 202.271 46.6849 202.271 47.9267C202.271 49.3163 201.473 50.4102 199.669 50.4102H196.091V45.5023H199.521Z" fill="white"/>
<path d="M215.815 53.0416L219.689 47.7493L223.503 53.0416H227.022L221.581 45.5023L226.785 38.2586H223.592L220.043 43.344L216.377 38.2586H212.858L218.151 45.591L212.562 53.0416H215.815Z" fill="white"/>
<path d="M236.247 53.0416H239.204V40.9196H246.242V38.2586H236.247V53.0416Z" fill="white"/>
<path d="M254.978 53.3372C259.561 53.3372 262.814 49.9371 262.814 45.6501C262.814 41.363 259.561 37.963 254.978 37.963C250.394 37.963 247.142 41.363 247.142 45.6501C247.142 49.9371 250.394 53.3372 254.978 53.3372ZM254.978 50.6763C252.169 50.6763 250.247 48.4588 250.247 45.6501C250.247 42.8413 252.169 40.6239 254.978 40.6239C257.787 40.6239 259.709 42.8413 259.709 45.6501C259.709 48.4588 257.787 50.6763 254.978 50.6763Z" fill="white"/>
<path d="M268.601 38.2586H265.644V58.9547H268.601V49.7302C269.665 51.9181 271.676 53.3372 274.367 53.3372C278.477 53.3372 281.168 49.9371 281.168 45.6501C281.168 41.363 278.418 37.963 274.367 37.963C271.676 37.963 269.665 39.3821 268.601 41.57V38.2586ZM273.332 40.6239C276.111 40.6239 278.063 42.5752 278.063 45.6501C278.063 48.7249 276.111 50.6763 273.332 50.6763C270.671 50.6763 268.601 48.6362 268.601 45.6501C268.601 42.6935 270.671 40.6239 273.332 40.6239Z" fill="white"/>
<path d="M290.958 53.3372C295.542 53.3372 298.794 49.9371 298.794 45.6501C298.794 41.363 295.542 37.963 290.958 37.963C286.375 37.963 283.122 41.363 283.122 45.6501C283.122 49.9371 286.375 53.3372 290.958 53.3372ZM290.958 50.6763C288.149 50.6763 286.227 48.4588 286.227 45.6501C286.227 42.8413 288.149 40.6239 290.958 40.6239C293.767 40.6239 295.689 42.8413 295.689 45.6501C295.689 48.4588 293.767 50.6763 290.958 50.6763Z" fill="white"/>
<path d="M300.005 56.2938H302.814V53.0416H313.637V56.2938H316.446V50.3806H314.376V38.2586H303.051V39.9439C303.051 46.3301 302.459 48.9319 301.838 50.3806H300.005V56.2938ZM304.766 50.3806C305.298 49.0206 305.771 46.9214 305.83 40.9196H311.419V50.3806H304.766Z" fill="white"/>
<path d="M327.975 43.7874V44.024C321.204 44.024 318.099 45.8275 318.099 49.198C318.099 51.8589 319.844 53.3372 322.623 53.3372C325.669 53.3372 327.236 51.652 327.975 49.4937V53.0416H330.932V44.0831C330.932 39.9734 328.774 37.963 324.782 37.963C321.115 37.963 318.809 39.7665 318.336 43.1961H321.293C321.529 41.6587 322.712 40.6239 324.782 40.6239C326.793 40.6239 327.975 41.6587 327.975 43.7874ZM321.204 49.0502C321.204 47.2762 323.096 46.1527 327.975 46.1527C327.975 48.6954 326.349 50.7946 323.303 50.7946C322.002 50.7946 321.204 50.1737 321.204 49.0502Z" fill="white"/>
<path d="M336.289 53.0416L340.163 47.7493L343.977 53.0416H347.496L342.055 45.5023L347.26 38.2586H344.066L340.518 43.344L336.851 38.2586H333.332L338.625 45.591L333.036 53.0416H336.289Z" fill="white"/>
<path d="M351.33 53.3372C352.542 53.3372 353.518 52.3615 353.518 51.0902C353.518 49.9076 352.542 48.991 351.33 48.991C350.088 48.991 349.142 49.9076 349.142 51.0902C349.142 52.3615 350.088 53.3372 351.33 53.3372Z" fill="white"/>
</g>
</svg>
