<svg width="402" height="87" viewBox="0 0 402 87" fill="none" xmlns="http://www.w3.org/2000/svg">
<g id="&#208;&#157;&#208;&#181;&#208;&#177;&#208;&#190;&#208;&#187;&#209;&#140;&#209;&#136;&#208;&#184;&#208;&#181; &#208;&#188;&#208;&#176;&#208;&#179;&#208;&#176;&#208;&#183;&#208;&#184;&#208;&#189;&#209;&#139; &#209;&#131; &#208;&#180;&#208;&#190;&#208;&#188;&#208;&#176; &#209;&#129;&#194;&#160;&#208;&#183;&#208;&#190;&#208;&#189;&#208;&#190;&#208;&#185; &#208;&#186;&#208;&#176;&#209;&#132;&#208;&#181;&#209;&#130;&#208;&#181;&#209;&#128;&#208;&#184;&#209;&#143; &#208;&#184; &#209;&#129;&#208;&#178;&#208;&#181;&#208;&#182;&#208;&#181;&#208;&#185; &#208;&#178;&#209;&#139;&#208;&#191;&#208;&#181;&#209;&#135;&#208;&#186;&#208;&#190;&#208;&#185;.">
<path d="M1.26883 21.7879H4.37367V12.7703H14.871V21.7879H17.9758V1.0918H14.871V9.96156H4.37367V1.0918H1.26883V21.7879Z" fill="white"/>
<path d="M28.6556 19.5113C25.9352 19.5113 24.2202 17.6191 24.0132 14.9286H36.2551C36.3142 14.633 36.3438 14.3077 36.3438 14.0121C36.3438 9.96156 33.2094 6.70932 28.6556 6.70932C24.1019 6.70932 20.9675 10.0798 20.9675 14.3964C20.9675 18.8609 24.1019 22.0836 28.6556 22.0836C32.4702 22.0836 34.9245 20.3392 35.782 17.2052H32.9433C32.3519 18.5652 31.0508 19.5113 28.6556 19.5113ZM28.6556 9.28155C31.0508 9.28155 32.6476 10.7598 33.1798 12.859H24.161C24.7228 10.7007 26.4083 9.28155 28.6556 9.28155Z" fill="white"/>
<path d="M46.2479 22.0836C50.9495 22.0836 54.0839 18.8018 54.0839 14.6921C54.0839 10.6416 51.5113 7.3302 47.3124 7.3302C44.5328 7.3302 42.2559 8.92676 41.2801 11.2329C41.3984 6.82758 42.6995 4.96493 47.7264 4.31448C50.7721 3.93013 52.842 3.30925 53.3151 0.500488H50.5355C50.3285 1.23963 49.264 1.47616 47.2533 1.71269C41.0436 2.45183 38.4414 5.52668 38.4414 12.6816C38.4414 15.2243 38.7667 17.2348 39.7425 18.7426C40.8957 20.5757 43.2317 22.0836 46.2479 22.0836ZM46.2479 19.4226C43.4979 19.4226 41.5463 17.4713 41.5463 14.6921C41.5463 11.972 43.4979 9.99113 46.2479 9.99113C49.0274 9.99113 50.9791 11.972 50.9791 14.6921C50.9791 17.4713 49.0274 19.4226 46.2479 19.4226Z" fill="white"/>
<path d="M63.86 22.0836C68.4433 22.0836 71.696 18.6835 71.696 14.3964C71.696 10.1094 68.4433 6.70932 63.86 6.70932C59.2766 6.70932 56.024 10.1094 56.024 14.3964C56.024 18.6835 59.2766 22.0836 63.86 22.0836ZM63.86 19.4226C61.0508 19.4226 59.1288 17.2052 59.1288 14.3964C59.1288 11.5877 61.0508 9.37024 63.86 9.37024C66.6691 9.37024 68.5912 11.5877 68.5912 14.3964C68.5912 17.2052 66.6691 19.4226 63.86 19.4226Z" fill="white"/>
<path d="M75.4269 14.3964C75.3678 18.0626 74.9538 19.127 72.7656 19.127V22.0836C76.8167 22.0836 78.0586 20.0731 78.2065 14.4556L78.3247 9.6659H83.7065V21.7879H86.6635V7.00498H75.5747L75.4269 14.3964Z" fill="white"/>
<path d="M90.3793 21.7879H96.8551C100.847 21.7879 102.621 19.2157 102.621 16.673C102.621 14.1008 100.847 11.6468 96.8551 11.6468H93.3363V7.00498H90.3793V21.7879ZM96.7664 14.2486C98.718 14.2486 99.5164 15.4312 99.5164 16.673C99.5164 18.0626 98.718 19.1565 96.9143 19.1565H93.3363V14.2486H96.7664Z" fill="white"/>
<path d="M105.164 21.7879H125.272V7.00498H122.315V19.0678H116.697V7.00498H113.74V19.0678H108.121V7.00498H105.164V21.7879Z" fill="white"/>
<path d="M128.988 21.7879H131.945L139.189 11.2625V21.7879H142.146V7.00498H139.189L131.945 17.5304V7.00498H128.988V21.7879Z" fill="white"/>
<path d="M152.682 19.5113C149.961 19.5113 148.246 17.6191 148.039 14.9286H160.281C160.34 14.633 160.37 14.3077 160.37 14.0121C160.37 9.96156 157.235 6.70932 152.682 6.70932C148.128 6.70932 144.994 10.0798 144.994 14.3964C144.994 18.8609 148.128 22.0836 152.682 22.0836C156.496 22.0836 158.951 20.3392 159.808 17.2052H156.969C156.378 18.5652 155.077 19.5113 152.682 19.5113ZM152.682 9.28155C155.077 9.28155 156.674 10.7598 157.206 12.859H148.187C148.749 10.7007 150.434 9.28155 152.682 9.28155Z" fill="white"/>
<path d="M170.195 21.7879H173.004V10.4937L177.558 21.7879H179.923L184.477 10.4937V21.7879H187.434V7.00498H183.265L178.889 17.9148L174.483 7.00498H170.195V21.7879Z" fill="white"/>
<path d="M200.445 12.5338V12.7703C193.673 12.7703 190.568 14.5738 190.568 17.9443C190.568 20.6053 192.313 22.0836 195.092 22.0836C198.138 22.0836 199.705 20.3983 200.445 18.24V21.7879H203.401V12.8294C203.401 8.71979 201.243 6.70932 197.251 6.70932C193.584 6.70932 191.278 8.51283 190.805 11.9425H193.762C193.998 10.405 195.181 9.37024 197.251 9.37024C199.262 9.37024 200.445 10.4051 200.445 12.5338ZM193.673 17.7965C193.673 16.0226 195.565 14.8991 200.445 14.8991C200.445 17.4417 198.818 19.5409 195.772 19.5409C194.471 19.5409 193.673 18.92 193.673 17.7965Z" fill="white"/>
<path d="M206.984 21.7879H209.941V9.6659H216.979V7.00498H206.984V21.7879Z" fill="white"/>
<path d="M228.224 12.5338V12.7703C221.453 12.7703 218.348 14.5738 218.348 17.9443C218.348 20.6053 220.092 22.0836 222.872 22.0836C225.918 22.0836 227.485 20.3983 228.224 18.24V21.7879H231.181V12.8294C231.181 8.71979 229.022 6.70932 225.03 6.70932C221.364 6.70932 219.057 8.51283 218.584 11.9425H221.541C221.778 10.405 222.961 9.37024 225.03 9.37024C227.041 9.37024 228.224 10.4051 228.224 12.5338ZM221.453 17.7965C221.453 16.0226 223.345 14.8991 228.224 14.8991C228.224 17.4417 226.598 19.5409 223.552 19.5409C222.251 19.5409 221.453 18.92 221.453 17.7965Z" fill="white"/>
<path d="M240.411 22.0836C244.965 22.0836 246.858 19.8957 246.858 17.5009C246.858 15.8452 245.675 14.5147 243.782 14.1008C245.468 13.6573 246.385 12.386 246.385 10.8781C246.385 8.6311 244.581 6.70932 240.441 6.70932C236.686 6.70932 234.32 8.66066 234.024 11.7059H237.1C237.366 10.4937 238.164 9.37024 240.382 9.37024C242.363 9.37024 243.28 10.2572 243.28 11.3512C243.28 12.4155 242.6 13.1251 240.5 13.1251H238.46V15.6382H240.944C242.984 15.6382 243.753 16.4069 243.753 17.4122C243.753 18.4765 243.073 19.4226 240.411 19.4226C238.164 19.4226 237.159 18.4765 236.804 16.9391H233.729C234.024 19.9844 236.094 22.0836 240.411 22.0836Z" fill="white"/>
<path d="M249.837 21.7879H252.794L260.039 11.2625V21.7879H262.996V7.00498H260.039L252.794 17.5304V7.00498H249.837V21.7879Z" fill="white"/>
<path d="M266.73 21.7879H269.687V15.5791H276.636V21.7879H279.593V7.00498H276.636V12.9181H269.687V7.00498H266.73V21.7879Z" fill="white"/>
<path d="M283.306 21.7879H289.781C293.773 21.7879 295.548 19.2157 295.548 16.673C295.548 14.1008 293.773 11.6468 289.781 11.6468H286.263V7.00498H283.306V21.7879ZM297.529 21.7879H300.486V7.00498H297.529V21.7879ZM289.693 14.2486C291.644 14.2486 292.443 15.4312 292.443 16.673C292.443 18.0626 291.644 19.1565 289.841 19.1565H286.263V14.2486H289.693Z" fill="white"/>
<path d="M317.943 22.5566L324.211 7.00498H321.343L316.996 18.033L312.59 7.00498H309.426L315.4 21.847C314.453 24.4784 313.862 25.0401 310.757 25.0401V27.7011C315.193 27.7011 316.346 26.548 317.943 22.5566Z" fill="white"/>
<path d="M331.816 25.0401H334.626V21.7879H345.448V25.0401H348.257V19.127H346.187V7.00498H334.862V8.69023C334.862 15.0765 334.271 17.6782 333.65 19.127H331.816V25.0401ZM336.577 19.127C337.109 17.7669 337.582 15.6678 337.642 9.6659H343.23V19.127H336.577Z" fill="white"/>
<path d="M357.595 22.0836C362.179 22.0836 365.431 18.6835 365.431 14.3964C365.431 10.1094 362.179 6.70932 357.595 6.70932C353.012 6.70932 349.759 10.1094 349.759 14.3964C349.759 18.6835 353.012 22.0836 357.595 22.0836ZM357.595 19.4226C354.786 19.4226 352.864 17.2052 352.864 14.3964C352.864 11.5877 354.786 9.37024 357.595 9.37024C360.404 9.37024 362.326 11.5877 362.326 14.3964C362.326 17.2052 360.404 19.4226 357.595 19.4226Z" fill="white"/>
<path d="M368.261 21.7879H371.07V10.4937L375.624 21.7879H377.99L382.544 10.4937V21.7879H385.501V7.00498H381.331L376.955 17.9148L372.549 7.00498H368.261V21.7879Z" fill="white"/>
<path d="M398.511 12.5338V12.7703C391.739 12.7703 388.634 14.5738 388.634 17.9443C388.634 20.6053 390.379 22.0836 393.159 22.0836C396.204 22.0836 397.772 20.3983 398.511 18.24V21.7879H401.468V12.8294C401.468 8.71979 399.309 6.70932 395.317 6.70932C391.651 6.70932 389.344 8.51283 388.871 11.9425H391.828C392.065 10.405 393.247 9.37024 395.317 9.37024C397.328 9.37024 398.511 10.4051 398.511 12.5338ZM391.739 17.7965C391.739 16.0226 393.632 14.8991 398.511 14.8991C398.511 17.4417 396.884 19.5409 393.839 19.5409C392.538 19.5409 391.739 18.92 391.739 17.7965Z" fill="white"/>
<path d="M7.86292 51.6763C5.20163 51.6763 3.33873 49.6954 3.33873 46.6501C3.33873 43.6344 5.14249 41.6239 7.86292 41.6239C10.0511 41.6239 11.3226 42.6883 11.8844 44.5805H14.8414C14.2796 41.1213 11.7661 38.963 7.86292 38.963C3.33873 38.963 0.233887 42.3926 0.233887 46.6501C0.233887 50.9371 3.33873 54.3372 7.92206 54.3372C11.6774 54.3372 14.25 52.3267 14.9597 48.5719H12.0027C11.4704 50.6415 10.0511 51.6763 7.86292 51.6763Z" fill="white"/>
<path d="M30.4479 54.3372C35.0016 54.3372 36.8941 52.1493 36.8941 49.7545C36.8941 48.0988 35.7113 46.7684 33.8188 46.3544C35.5043 45.911 36.421 44.6396 36.421 43.1318C36.421 40.8848 34.6172 38.963 30.4774 38.963C26.722 38.963 24.3565 40.9143 24.0608 43.9596H27.136C27.4022 42.7474 28.2005 41.6239 30.4183 41.6239C32.3995 41.6239 33.3161 42.5109 33.3161 43.6048C33.3161 44.6692 32.636 45.3788 30.5366 45.3788H28.4962V47.8919H30.9801C33.0204 47.8919 33.7892 48.6606 33.7892 49.6658C33.7892 50.7302 33.1091 51.6763 30.4479 51.6763C28.2005 51.6763 27.1952 50.7302 26.8403 49.1928H23.7651C24.0608 52.238 26.1306 54.3372 30.4479 54.3372Z" fill="white"/>
<path d="M46.6783 54.3372C51.2616 54.3372 54.5143 50.9371 54.5143 46.6501C54.5143 42.363 51.2616 38.963 46.6783 38.963C42.0949 38.963 38.8422 42.363 38.8422 46.6501C38.8422 50.9371 42.0949 54.3372 46.6783 54.3372ZM46.6783 51.6763C43.8691 51.6763 41.9471 49.4589 41.9471 46.6501C41.9471 43.8413 43.8691 41.6239 46.6783 41.6239C49.4874 41.6239 51.4094 43.8413 51.4094 46.6501C51.4094 49.4589 49.4874 51.6763 46.6783 51.6763Z" fill="white"/>
<path d="M57.3442 54.0416H60.3012V47.8327H67.2501V54.0416H70.2071V39.2586H67.2501V45.1718H60.3012V39.2586H57.3442V54.0416Z" fill="white"/>
<path d="M80.8684 54.3372C85.4518 54.3372 88.7045 50.9371 88.7045 46.6501C88.7045 42.363 85.4518 38.963 80.8684 38.963C76.2851 38.963 73.0324 42.363 73.0324 46.6501C73.0324 50.9371 76.2851 54.3372 80.8684 54.3372ZM80.8684 51.6763C78.0593 51.6763 76.1373 49.4589 76.1373 46.6501C76.1373 43.8413 78.0593 41.6239 80.8684 41.6239C83.6776 41.6239 85.5996 43.8413 85.5996 46.6501C85.5996 49.4589 83.6776 51.6763 80.8684 51.6763Z" fill="white"/>
<path d="M93.6043 33.3455C93.6043 35.829 95.2306 37.4847 98.1285 37.4847C101.026 37.4847 102.653 35.829 102.653 33.3455H100.021C100.021 34.7351 99.3113 35.3855 98.1285 35.3855C96.9457 35.3855 96.236 34.7351 96.236 33.3455H93.6043ZM91.5344 54.0416H94.4914L101.736 43.5161V54.0416H104.693V39.2586H101.736L94.4914 49.7841V39.2586H91.5344V54.0416Z" fill="white"/>
<path d="M115.416 54.0416H118.373V47.0936L124.967 54.0416H128.959L121.537 46.2953L128.397 39.2586H124.848L118.373 45.911V39.2586H115.416V54.0416Z" fill="white"/>
<path d="M139.457 44.7874V45.024C132.685 45.024 129.58 46.8275 129.58 50.198C129.58 52.8589 131.325 54.3372 134.104 54.3372C137.15 54.3372 138.717 52.652 139.457 50.4937V54.0416H142.414V45.0831C142.414 40.9735 140.255 38.963 136.263 38.963C132.596 38.963 130.29 40.7665 129.817 44.1961H132.774C133.01 42.6587 134.193 41.6239 136.263 41.6239C138.274 41.6239 139.457 42.6587 139.457 44.7874ZM132.685 50.0502C132.685 48.2762 134.578 47.1527 139.457 47.1527C139.457 49.6954 137.83 51.7946 134.785 51.7946C133.483 51.7946 132.685 51.1737 132.685 50.0502Z" fill="white"/>
<path d="M153.241 59.9547H156.198V54.3372C160.574 54.1303 164.329 51.3806 164.329 46.6501C164.329 41.9196 160.574 39.1404 156.198 38.963V33.3455H153.241V38.963C148.864 39.1404 145.109 41.9196 145.109 46.6501C145.109 51.3806 148.864 54.1303 153.241 54.3372V59.9547ZM148.214 46.6501C148.214 43.3387 150.639 41.6535 153.241 41.5352V51.765C150.639 51.6467 148.214 49.9615 148.214 46.6501ZM156.198 41.5352C158.77 41.6535 161.225 43.3387 161.225 46.6501C161.225 49.9615 158.77 51.6467 156.198 51.765V41.5352Z" fill="white"/>
<path d="M173.964 51.765C171.244 51.765 169.528 49.8728 169.321 47.1823H181.563C181.623 46.8866 181.652 46.5614 181.652 46.2657C181.652 42.2152 178.518 38.963 173.964 38.963C169.41 38.963 166.276 42.3335 166.276 46.6501C166.276 51.1145 169.41 54.3372 173.964 54.3372C177.778 54.3372 180.233 52.5928 181.09 49.4589H178.252C177.66 50.8189 176.359 51.765 173.964 51.765ZM173.964 41.5352C176.359 41.5352 177.956 43.0135 178.488 45.1127H169.469C170.031 42.9544 171.717 41.5352 173.964 41.5352Z" fill="white"/>
<path d="M188.163 54.0416H191.12V41.9196H196.265V39.2586H183.017V41.9196H188.163V54.0416Z" fill="white"/>
<path d="M205.035 51.765C202.315 51.765 200.6 49.8728 200.393 47.1823H212.635C212.694 46.8866 212.724 46.5614 212.724 46.2657C212.724 42.2152 209.589 38.963 205.035 38.963C200.482 38.963 197.347 42.3335 197.347 46.6501C197.347 51.1145 200.482 54.3372 205.035 54.3372C208.85 54.3372 211.304 52.5928 212.162 49.4589H209.323C208.732 50.8189 207.431 51.765 205.035 51.765ZM205.035 41.5352C207.431 41.5352 209.027 43.0135 209.56 45.1127H200.541C201.103 42.9544 202.788 41.5352 205.035 41.5352Z" fill="white"/>
<path d="M218.517 39.2586H215.56V59.9547H218.517V50.7302C219.582 52.9181 221.593 54.3372 224.284 54.3372C228.394 54.3372 231.085 50.9371 231.085 46.6501C231.085 42.363 228.335 38.963 224.284 38.963C221.593 38.963 219.582 40.3821 218.517 42.57V39.2586ZM223.249 41.6239C226.028 41.6239 227.98 43.5752 227.98 46.6501C227.98 49.7249 226.028 51.6763 223.249 51.6763C220.587 51.6763 218.517 49.6362 218.517 46.6501C218.517 43.6935 220.587 41.6239 223.249 41.6239Z" fill="white"/>
<path d="M233.926 54.0416H236.883L244.128 43.5161V54.0416H247.085V39.2586H244.128L236.883 49.7841V39.2586H233.926V54.0416Z" fill="white"/>
<path d="M253.333 54.0416L257.443 48.8084H259.897V54.0416H262.854V39.2586H256.378C252.386 39.2586 250.612 41.7422 250.612 44.2257C250.612 46.3249 251.884 47.8623 254.308 48.424L249.784 54.0416H253.333ZM256.467 46.5023C254.515 46.5023 253.717 45.3788 253.717 44.2257C253.717 42.9248 254.515 41.89 256.319 41.89H259.897V46.5023H256.467Z" fill="white"/>
<path d="M273.574 54.0416H276.531L283.776 43.5161V54.0416H286.733V39.2586H283.776L276.531 49.7841V39.2586H273.574V54.0416Z" fill="white"/>
<path d="M304.197 51.6763C301.536 51.6763 299.673 49.6954 299.673 46.6501C299.673 43.6344 301.477 41.6239 304.197 41.6239C306.385 41.6239 307.657 42.6883 308.219 44.5805H311.176C310.614 41.1213 308.1 38.963 304.197 38.963C299.673 38.963 296.568 42.3926 296.568 46.6501C296.568 50.9371 299.673 54.3372 304.256 54.3372C308.012 54.3372 310.584 52.3267 311.294 48.5719H308.337C307.805 50.6415 306.385 51.6763 304.197 51.6763Z" fill="white"/>
<path d="M314.146 54.0416H321.213C325.264 54.0416 326.565 51.9128 326.565 49.9023C326.565 47.9214 325.235 46.7979 323.076 46.4431C324.969 45.9405 325.915 44.6396 325.915 43.1022C325.915 40.6482 324.111 39.2586 320.829 39.2586H314.146V54.0416ZM320.681 45.4083H317.044V41.7717H320.681C322.219 41.7717 322.869 42.57 322.869 43.6048C322.869 44.6101 322.219 45.4083 320.681 45.4083ZM320.888 47.7736C322.81 47.7736 323.461 48.6606 323.461 49.6067C323.461 50.6711 322.81 51.5285 321.036 51.5285H317.044V47.7736H320.888Z" fill="white"/>
<path d="M336.079 51.765C333.358 51.765 331.643 49.8728 331.436 47.1823H343.678C343.737 46.8866 343.767 46.5614 343.767 46.2657C343.767 42.2152 340.632 38.963 336.079 38.963C331.525 38.963 328.39 42.3335 328.39 46.6501C328.39 51.1145 331.525 54.3372 336.079 54.3372C339.893 54.3372 342.347 52.5928 343.205 49.4589H340.366C339.775 50.8189 338.474 51.765 336.079 51.765ZM336.079 41.5352C338.474 41.5352 340.071 43.0135 340.603 45.1127H331.584C332.146 42.9544 333.831 41.5352 336.079 41.5352Z" fill="white"/>
<path d="M354.243 54.0416H357.2V47.1232L363.498 54.0416H367.402L360.305 46.2953L366.84 39.2586H363.38L357.2 45.911V39.2586H354.243V45.911L348.063 39.2586H344.455L351.138 46.4431L344.189 54.0416H347.945L354.243 47.1232V54.0416Z" fill="white"/>
<path d="M375.524 51.765C372.804 51.765 371.089 49.8728 370.882 47.1823H383.124C383.183 46.8866 383.213 46.5614 383.213 46.2657C383.213 42.2152 380.078 38.963 375.524 38.963C370.971 38.963 367.836 42.3335 367.836 46.6501C367.836 51.1145 370.971 54.3372 375.524 54.3372C379.339 54.3372 381.793 52.5928 382.651 49.4589H379.812C379.221 50.8189 377.92 51.765 375.524 51.765ZM375.524 41.5352C377.92 41.5352 379.516 43.0135 380.049 45.1127H371.03C371.592 42.9544 373.277 41.5352 375.524 41.5352Z" fill="white"/>
<path d="M388.119 33.3455C388.119 35.829 389.746 37.4847 392.643 37.4847C395.541 37.4847 397.168 35.829 397.168 33.3455H394.536C394.536 34.7351 393.826 35.3855 392.643 35.3855C391.461 35.3855 390.751 34.7351 390.751 33.3455H388.119ZM386.049 54.0416H389.006L396.251 43.5161V54.0416H399.208V39.2586H396.251L389.006 49.7841V39.2586H386.049V54.0416Z" fill="white"/>
<path d="M1.12098 86.2952H8.18819C12.2393 86.2952 13.5403 84.1665 13.5403 82.156C13.5403 80.1751 12.2097 79.0516 10.0511 78.6968C11.9436 78.1942 12.8898 76.8933 12.8898 75.3559C12.8898 72.9019 11.086 71.5123 7.80378 71.5123H1.12098V86.2952ZM7.65593 77.662H4.01883V74.0254H7.65593C9.19357 74.0254 9.8441 74.8237 9.8441 75.8585C9.8441 76.8637 9.19357 77.662 7.65593 77.662ZM7.86292 80.0273C9.78496 80.0273 10.4355 80.9142 10.4355 81.8603C10.4355 82.9247 9.78496 83.7821 8.01077 83.7821H4.01883V80.0273H7.86292Z" fill="white"/>
<path d="M16.3968 86.2952H22.8726C26.8646 86.2952 28.6388 83.723 28.6388 81.1803C28.6388 78.6081 26.8646 76.1541 22.8726 76.1541H19.3538V71.5123H16.3968V86.2952ZM30.62 86.2952H33.577V71.5123H30.62V86.2952ZM22.7839 78.7559C24.7355 78.7559 25.5339 79.9386 25.5339 81.1803C25.5339 82.5699 24.7356 83.6639 22.9318 83.6639H19.3538V78.7559H22.7839Z" fill="white"/>
<path d="M37.3037 86.2952H40.2607V74.1732H46.9139V86.2952H49.8709V71.5123H37.3037V86.2952Z" fill="white"/>
<path d="M60.3913 84.0187C57.6709 84.0187 55.9558 82.1264 55.7488 79.4359H67.9908C68.0499 79.1403 68.0795 78.8151 68.0795 78.5194C68.0795 74.4689 64.9451 71.2166 60.3913 71.2166C55.8375 71.2166 52.7031 74.5871 52.7031 78.9038C52.7031 83.3682 55.8375 86.5909 60.3913 86.5909C64.2058 86.5909 66.6601 84.8465 67.5176 81.7125H64.6789C64.0875 83.0725 62.7865 84.0187 60.3913 84.0187ZM60.3913 73.7889C62.7865 73.7889 64.3832 75.2672 64.9155 77.3663H55.8967C56.4585 75.208 58.144 73.7889 60.3913 73.7889Z" fill="white"/>
<path d="M70.6206 75.3559C70.6206 79.909 73.3706 81.2099 76.8303 81.2099C78.0427 81.2099 79.1663 81.0621 80.2309 80.796V86.2952H83.1878V71.5123H80.2309V78.2237C79.2846 78.4603 78.3384 78.549 77.4513 78.549C74.9378 78.549 73.5776 77.7507 73.5776 75.3559V71.5123H70.6206V75.3559Z" fill="white"/>
<path d="M86.9141 86.2952H89.8711V79.3472L96.4652 86.2952H100.457L93.0351 78.549L99.8953 71.5123H96.3469L89.8711 78.1646V71.5123H86.9141V86.2952Z" fill="white"/>
<path d="M108.619 86.5909C113.202 86.5909 116.455 83.1908 116.455 78.9038C116.455 74.6167 113.202 71.2166 108.619 71.2166C104.036 71.2166 100.783 74.6167 100.783 78.9038C100.783 83.1908 104.036 86.5909 108.619 86.5909ZM108.619 83.93C105.81 83.93 103.888 81.7125 103.888 78.9038C103.888 76.095 105.81 73.8776 108.619 73.8776C111.428 73.8776 113.35 76.095 113.35 78.9038C113.35 81.7125 111.428 83.93 108.619 83.93Z" fill="white"/>
<path d="M121.355 65.5991C121.355 68.0827 122.981 69.7383 125.879 69.7383C128.777 69.7383 130.403 68.0827 130.403 65.5991H127.772C127.772 66.9887 127.062 67.6392 125.879 67.6392C124.696 67.6392 123.987 66.9887 123.987 65.5991H121.355ZM119.285 86.2952H122.242L129.487 75.7698V86.2952H132.444V71.5123H129.487L122.242 82.0377V71.5123H119.285V86.2952Z" fill="white"/>
<path d="M137.775 86.5909C138.987 86.5909 139.963 85.6152 139.963 84.3439C139.963 83.1612 138.987 82.2447 137.775 82.2447C136.533 82.2447 135.587 83.1612 135.587 84.3439C135.587 85.6152 136.533 86.5909 137.775 86.5909Z" fill="white"/>
</g>
</svg>
