<svg width="467" height="156" viewBox="0 0 467 156" fill="none" xmlns="http://www.w3.org/2000/svg">
<g id="&#208;&#148;&#208;&#184;&#208;&#178;&#208;&#184;&#208;&#183;&#208;&#184;&#208;&#190;&#208;&#189; &#208;&#186;&#208;&#190;&#208;&#188;&#208;&#191;&#208;&#176;&#208;&#189;&#208;&#184;&#208;&#184; &#208;&#178; &#209;&#129;&#208;&#181;&#208;&#178;&#208;&#181;&#209;&#128;&#208;&#189;&#208;&#190;&#208;&#185; &#209;&#129;&#209;&#130;&#208;&#190;&#208;&#187;&#208;&#184;&#209;&#134;&#208;&#181; &#208;&#178;&#208;&#186;&#208;&#187;&#209;&#142;&#209;&#135;&#208;&#176;&#208;&#181;&#209;&#130; &#209;&#129;&#209;&#131;&#208;&#191;&#208;&#181;&#209;&#128;&#208;&#188;&#208;&#176;&#209;&#128;&#208;&#186;&#208;&#181;&#209;&#130;&#209;&#139; &#194;&#171;&#208;&#144;&#208;&#183;&#208;&#177;&#209;&#131;&#208;&#186;&#208;&#176; &#208;&#178;&#208;&#186;&#209;&#131;&#209;&#129;&#208;&#176;&#194;&#187;, &#208;&#188;&#208;&#184;&#208;&#189;&#208;&#184;&#208;&#188;&#208;&#176;&#209;&#128;&#208;&#186;&#208;&#181;&#209;&#130;&#209;&#139; &#194;&#171;&#208;&#144;&#208;&#183;&#208;&#177;&#209;&#131;&#208;&#186;&#208;&#176; daily&#194;&#187;, &#209;&#128;&#208;&#181;&#209;&#129;&#209;&#130;&#208;&#190;&#209;&#128;&#208;&#176;&#208;&#189;&#208;&#189;&#209;&#131;&#209;&#142; &#209;&#129;&#208;&#187;&#209;&#131;&#208;&#182;&#208;&#177;&#209;&#131;, &#208;&#190;&#209;&#132;&#208;&#184;&#209;&#129; &#208;&#184; &#209;&#129;&#208;&#186;&#208;&#187;&#208;&#176;&#208;&#180;.">
<path d="M0.405762 24.3358H3.36275V20.7879H17.8816V24.3358H20.8386V17.9791H18.473V0.0917969H3.89501V5.62061C3.89501 11.4451 3.30361 15.4365 2.26866 17.9791H0.405762V24.3358ZM6.852 5.62061V2.90055H15.3681V17.9791H5.3735C6.31974 15.4365 6.852 11.859 6.852 5.62061Z" fill="white"/>
<path d="M23.2875 20.7879H26.2445L33.4892 10.2625V20.7879H36.4461V6.00497H33.4892L26.2445 16.5304V6.00497H23.2875V20.7879Z" fill="white"/>
<path d="M40.1805 20.7879H47.2477C51.2988 20.7879 52.5998 18.6592 52.5998 16.6487C52.5998 14.6678 51.2692 13.5443 49.1106 13.1895C51.0031 12.6868 51.9493 11.386 51.9493 9.84853C51.9493 7.39456 50.1456 6.00497 46.8633 6.00497H40.1805V20.7879ZM46.7154 12.1547H43.0783V8.51807H46.7154C48.2531 8.51807 48.9036 9.31634 48.9036 10.3511C48.9036 11.3564 48.2531 12.1547 46.7154 12.1547ZM46.9224 14.5199C48.8445 14.5199 49.495 15.4069 49.495 16.353C49.495 17.4174 48.8445 18.2748 47.0703 18.2748H43.0783V14.5199H46.9224Z" fill="white"/>
<path d="M55.4564 20.7879H58.4133L65.658 10.2625V20.7879H68.615V6.00497H65.658L58.4133 16.5304V6.00497H55.4564V20.7879Z" fill="white"/>
<path d="M77.9972 21.0836C82.5509 21.0836 84.4434 18.8957 84.4434 16.5008C84.4434 14.8452 83.2606 13.5147 81.3681 13.1008C83.0536 12.6573 83.9703 11.386 83.9703 9.8781C83.9703 7.63109 82.1665 5.70931 78.0267 5.70931C74.2713 5.70931 71.9058 7.66066 71.6101 10.7059H74.6853C74.9515 9.49374 75.7498 8.37024 77.9676 8.37024C79.9488 8.37024 80.8654 9.25721 80.8654 10.3511C80.8654 11.4155 80.1853 12.1251 78.0859 12.1251H76.0455V14.6382H78.5294C80.5697 14.6382 81.3386 15.4069 81.3386 16.4121C81.3386 17.4765 80.6584 18.4226 77.9972 18.4226C75.7498 18.4226 74.7445 17.4765 74.3896 15.9391H71.3144C71.6101 18.9844 73.68 21.0836 77.9972 21.0836Z" fill="white"/>
<path d="M87.423 20.7879H90.38L97.6246 10.2625V20.7879H100.582V6.00497H97.6246L90.38 16.5304V6.00497H87.423V20.7879Z" fill="white"/>
<path d="M111.265 21.0836C115.848 21.0836 119.101 17.6835 119.101 13.3964C119.101 9.10938 115.848 5.70931 111.265 5.70931C106.682 5.70931 103.429 9.10938 103.429 13.3964C103.429 17.6835 106.682 21.0836 111.265 21.0836ZM111.265 18.4226C108.456 18.4226 106.534 16.2052 106.534 13.3964C106.534 10.5877 108.456 8.37024 111.265 8.37024C114.074 8.37024 115.996 10.5877 115.996 13.3964C115.996 16.2052 114.074 18.4226 111.265 18.4226Z" fill="white"/>
<path d="M121.931 20.7879H124.888V14.5791H131.837V20.7879H134.794V6.00497H131.837V11.9181H124.888V6.00497H121.931V20.7879Z" fill="white"/>
<path d="M145.494 20.7879H148.451V13.8399L155.045 20.7879H159.037L151.615 13.0416L158.476 6.00497H154.927L148.451 12.6573V6.00497H145.494V20.7879Z" fill="white"/>
<path d="M167.199 21.0836C171.783 21.0836 175.035 17.6835 175.035 13.3964C175.035 9.10938 171.783 5.70931 167.199 5.70931C162.616 5.70931 159.363 9.10938 159.363 13.3964C159.363 17.6835 162.616 21.0836 167.199 21.0836ZM167.199 18.4226C164.39 18.4226 162.468 16.2052 162.468 13.3964C162.468 10.5877 164.39 8.37024 167.199 8.37024C170.008 8.37024 171.931 10.5877 171.931 13.3964C171.931 16.2052 170.008 18.4226 167.199 18.4226Z" fill="white"/>
<path d="M177.865 20.7879H180.674V9.49374L185.228 20.7879H187.594L192.148 9.49374V20.7879H195.105V6.00497H190.935L186.559 16.9148L182.153 6.00497H177.865V20.7879Z" fill="white"/>
<path d="M198.83 20.7879H201.787V8.66589H208.44V20.7879H211.397V6.00497H198.83V20.7879Z" fill="white"/>
<path d="M224.401 11.5338V11.7703C217.63 11.7703 214.525 13.5738 214.525 16.9443C214.525 19.6053 216.27 21.0836 219.049 21.0836C222.095 21.0836 223.662 19.3983 224.401 17.24V20.7879H227.358V11.8294C227.358 7.71979 225.2 5.70931 221.208 5.70931C217.541 5.70931 215.235 7.51283 214.762 10.9425H217.719C217.955 9.40504 219.138 8.37024 221.208 8.37024C223.219 8.37024 224.401 9.40504 224.401 11.5338ZM217.63 16.7965C217.63 15.0226 219.522 13.899 224.401 13.899C224.401 16.4417 222.775 18.5409 219.729 18.5409C218.428 18.5409 217.63 17.92 217.63 16.7965Z" fill="white"/>
<path d="M230.941 20.7879H233.898V14.5791H240.847V20.7879H243.804V6.00497H240.847V11.9181H233.898V6.00497H230.941V20.7879Z" fill="white"/>
<path d="M247.516 20.7879H250.473L257.718 10.2625V20.7879H260.675V6.00497H257.718L250.473 16.5304V6.00497H247.516V20.7879Z" fill="white"/>
<path d="M264.409 20.7879H267.366L274.611 10.2625V20.7879H277.568V6.00497H274.611L267.366 16.5304V6.00497H264.409V20.7879Z" fill="white"/>
<path d="M288.29 20.7879H295.358C299.409 20.7879 300.71 18.6592 300.71 16.6487C300.71 14.6678 299.379 13.5443 297.22 13.1895C299.113 12.6868 300.059 11.386 300.059 9.84853C300.059 7.39456 298.255 6.00497 294.973 6.00497H288.29V20.7879ZM294.825 12.1547H291.188V8.51807H294.825C296.363 8.51807 297.013 9.31634 297.013 10.3511C297.013 11.3564 296.363 12.1547 294.825 12.1547ZM295.032 14.5199C296.954 14.5199 297.605 15.4069 297.605 16.353C297.605 17.4174 296.954 18.2748 295.18 18.2748H291.188V14.5199H295.032Z" fill="white"/>
<path d="M317.441 18.4226C314.779 18.4226 312.917 16.4417 312.917 13.3964C312.917 10.3807 314.72 8.37024 317.441 8.37024C319.629 8.37024 320.9 9.43461 321.462 11.3268H324.419C323.857 7.86762 321.344 5.70931 317.441 5.70931C312.917 5.70931 309.812 9.13895 309.812 13.3964C309.812 17.6835 312.917 21.0836 317.5 21.0836C321.255 21.0836 323.828 19.0731 324.538 15.3182H321.581C321.048 17.3878 319.629 18.4226 317.441 18.4226Z" fill="white"/>
<path d="M334.046 18.5113C331.326 18.5113 329.611 16.6191 329.404 13.9286H341.646C341.705 13.633 341.734 13.3077 341.734 13.0121C341.734 8.96155 338.6 5.70931 334.046 5.70931C329.493 5.70931 326.358 9.07982 326.358 13.3964C326.358 17.8609 329.493 21.0836 334.046 21.0836C337.861 21.0836 340.315 19.3392 341.173 16.2052H338.334C337.743 17.5652 336.441 18.5113 334.046 18.5113ZM334.046 8.28154C336.441 8.28154 338.038 9.75983 338.57 11.859H329.552C330.114 9.7007 331.799 8.28154 334.046 8.28154Z" fill="white"/>
<path d="M344.571 20.7879H351.639C355.69 20.7879 356.991 18.6592 356.991 16.6487C356.991 14.6678 355.66 13.5443 353.501 13.1895C355.394 12.6868 356.34 11.386 356.34 9.84853C356.34 7.39456 354.536 6.00497 351.254 6.00497H344.571V20.7879ZM351.106 12.1547H347.469V8.51807H351.106C352.644 8.51807 353.294 9.31634 353.294 10.3511C353.294 11.3564 352.644 12.1547 351.106 12.1547ZM351.313 14.5199C353.235 14.5199 353.886 15.4069 353.886 16.353C353.886 17.4174 353.235 18.2748 351.461 18.2748H347.469V14.5199H351.313Z" fill="white"/>
<path d="M366.504 18.5113C363.783 18.5113 362.068 16.6191 361.861 13.9286H374.103C374.163 13.633 374.192 13.3077 374.192 13.0121C374.192 8.96155 371.058 5.70931 366.504 5.70931C361.95 5.70931 358.816 9.07982 358.816 13.3964C358.816 17.8609 361.95 21.0836 366.504 21.0836C370.318 21.0836 372.773 19.3392 373.63 16.2052H370.792C370.2 17.5652 368.899 18.5113 366.504 18.5113ZM366.504 8.28154C368.899 8.28154 370.496 9.75983 371.028 11.859H362.009C362.571 9.7007 364.257 8.28154 366.504 8.28154Z" fill="white"/>
<path d="M379.986 6.00497H377.029V26.7011H379.986V17.4765C381.05 19.6644 383.061 21.0836 385.752 21.0836C389.862 21.0836 392.553 17.6835 392.553 13.3964C392.553 9.10938 389.803 5.70931 385.752 5.70931C383.061 5.70931 381.05 7.12847 379.986 9.31634V6.00497ZM384.717 8.37024C387.497 8.37024 389.448 10.3216 389.448 13.3964C389.448 16.4713 387.497 18.4226 384.717 18.4226C382.056 18.4226 379.986 16.3826 379.986 13.3964C379.986 10.4398 382.056 8.37024 384.717 8.37024Z" fill="white"/>
<path d="M395.395 20.7879H398.352V14.5791H405.301V20.7879H408.258V6.00497H405.301V11.9181H398.352V6.00497H395.395V20.7879Z" fill="white"/>
<path d="M418.919 21.0836C423.502 21.0836 426.755 17.6835 426.755 13.3964C426.755 9.10938 423.502 5.70931 418.919 5.70931C414.336 5.70931 411.083 9.10938 411.083 13.3964C411.083 17.6835 414.336 21.0836 418.919 21.0836ZM418.919 18.4226C416.11 18.4226 414.188 16.2052 414.188 13.3964C414.188 10.5877 416.11 8.37024 418.919 8.37024C421.728 8.37024 423.65 10.5877 423.65 13.3964C423.65 16.2052 421.728 18.4226 418.919 18.4226Z" fill="white"/>
<path d="M431.655 0.0917969C431.655 2.57533 433.281 4.23102 436.179 4.23102C439.077 4.23102 440.703 2.57533 440.703 0.0917969H438.071C438.071 1.48139 437.362 2.13184 436.179 2.13184C434.996 2.13184 434.286 1.48139 434.286 0.0917969H431.655ZM429.585 20.7879H432.542L439.786 10.2625V20.7879H442.743V6.00497H439.786L432.542 16.5304V6.00497H429.585V20.7879Z" fill="white"/>
<path d="M8.86275 50.6763C6.20146 50.6763 4.33856 48.6954 4.33856 45.6501C4.33856 42.6344 6.14232 40.6239 8.86275 40.6239C11.0509 40.6239 12.3224 41.6883 12.8843 43.5805H15.8412C15.2794 40.1213 12.766 37.963 8.86275 37.963C4.33856 37.963 1.23372 41.3926 1.23372 45.6501C1.23372 49.9371 4.33856 53.3372 8.92189 53.3372C12.6773 53.3372 15.2498 51.3267 15.9595 47.5719H13.0025C12.4703 49.6415 11.0509 50.6763 8.86275 50.6763Z" fill="white"/>
<path d="M22.4852 53.0415H25.4422V40.9196H30.5874V38.2586H17.3401V40.9196H22.4852V53.0415Z" fill="white"/>
<path d="M39.5059 53.3372C44.0893 53.3372 47.342 49.9371 47.342 45.6501C47.342 41.363 44.0893 37.963 39.5059 37.963C34.9226 37.963 31.6699 41.363 31.6699 45.6501C31.6699 49.9371 34.9226 53.3372 39.5059 53.3372ZM39.5059 50.6763C36.6968 50.6763 34.7747 48.4588 34.7747 45.6501C34.7747 42.8413 36.6968 40.6239 39.5059 40.6239C42.3151 40.6239 44.2371 42.8413 44.2371 45.6501C44.2371 48.4588 42.3151 50.6763 39.5059 50.6763Z" fill="white"/>
<path d="M51.0728 45.6501C51.0137 49.3163 50.5997 50.3806 48.4116 50.3806V53.3372C52.4626 53.3372 53.7046 51.3267 53.8524 45.7092L53.9707 40.9196H59.3524V53.0415H62.3094V38.2586H51.2207L51.0728 45.6501Z" fill="white"/>
<path d="M66.0253 53.0415H68.9823L76.2269 42.5161V53.0415H79.1839V38.2586H76.2269L68.9823 48.7841V38.2586H66.0253V53.0415Z" fill="white"/>
<path d="M94.7462 56.2938H97.5553V50.3806H95.4854V38.2586H92.5285V50.3806H85.8752V38.2586H82.9182V53.0415H94.7462V56.2938Z" fill="white"/>
<path d="M106.757 50.765C104.036 50.765 102.321 48.8728 102.114 46.1823H114.356C114.415 45.8866 114.445 45.5614 114.445 45.2657C114.445 41.2152 111.31 37.963 106.757 37.963C102.203 37.963 99.0685 41.3335 99.0685 45.6501C99.0685 50.1145 102.203 53.3372 106.757 53.3372C110.571 53.3372 113.025 51.5928 113.883 48.4588H111.044C110.453 49.8189 109.152 50.765 106.757 50.765ZM106.757 40.5352C109.152 40.5352 110.749 42.0135 111.281 44.1127H102.262C102.824 41.9544 104.509 40.5352 106.757 40.5352Z" fill="white"/>
<path d="M124.27 53.0415H131.337C135.388 53.0415 136.689 50.9128 136.689 48.9023C136.689 46.9214 135.359 45.7979 133.2 45.4431C135.092 44.9405 136.039 43.6396 136.039 42.1022C136.039 39.6482 134.235 38.2586 130.953 38.2586H124.27V53.0415ZM130.805 44.4083H127.168V40.7717H130.805C132.342 40.7717 132.993 41.57 132.993 42.6048C132.993 43.61 132.342 44.4083 130.805 44.4083ZM131.012 46.7736C132.934 46.7736 133.584 47.6606 133.584 48.6067C133.584 49.671 132.934 50.5285 131.16 50.5285H127.168V46.7736H131.012Z" fill="white"/>
<path d="M139.546 53.0415H142.503V46.0936L149.097 53.0415H153.089L145.667 45.2953L152.527 38.2586H148.979L142.503 44.9109V38.2586H139.546V53.0415Z" fill="white"/>
<path d="M156.213 45.6501C156.154 49.3163 155.74 50.3806 153.552 50.3806V53.3372C157.603 53.3372 158.845 51.3267 158.993 45.7092L159.111 40.9196H164.493V53.0415H167.45V38.2586H156.361L156.213 45.6501Z" fill="white"/>
<path d="M171.166 53.0415H174.123V46.744H176.548C177.05 50.4989 180.007 53.3372 184.029 53.3372C188.435 53.3372 191.569 49.9371 191.569 45.6501C191.569 41.363 188.435 37.963 184.029 37.963C180.185 37.963 177.287 40.5648 176.636 44.0831H174.123V38.2586H171.166V53.0415ZM184.029 50.6763C181.397 50.6763 179.593 48.4588 179.593 45.6501C179.593 42.8413 181.397 40.6239 184.029 40.6239C186.66 40.6239 188.464 42.8413 188.464 45.6501C188.464 48.4588 186.66 50.6763 184.029 50.6763Z" fill="white"/>
<path d="M194.116 42.1022C194.116 46.6553 196.866 47.9562 200.326 47.9562C201.538 47.9562 202.662 47.8084 203.726 47.5423V53.0415H206.683V38.2586H203.726V44.9701C202.78 45.2066 201.834 45.2953 200.947 45.2953C198.433 45.2953 197.073 44.497 197.073 42.1022V38.2586H194.116V42.1022Z" fill="white"/>
<path d="M219.55 43.7874V44.024C212.779 44.024 209.674 45.8275 209.674 49.198C209.674 51.8589 211.418 53.3372 214.198 53.3372C217.244 53.3372 218.811 51.652 219.55 49.4936V53.0415H222.507V44.0831C222.507 39.9734 220.348 37.963 216.357 37.963C212.69 37.963 210.383 39.7665 209.91 43.1961H212.867C213.104 41.6587 214.287 40.6239 216.357 40.6239C218.367 40.6239 219.55 41.6587 219.55 43.7874ZM212.779 49.0502C212.779 47.2762 214.671 46.1527 219.55 46.1527C219.55 48.6954 217.924 50.7945 214.878 50.7945C213.577 50.7945 212.779 50.1737 212.779 49.0502Z" fill="white"/>
<path d="M232.891 50.765C230.17 50.765 228.455 48.8728 228.248 46.1823H240.49C240.549 45.8866 240.579 45.5614 240.579 45.2657C240.579 41.2152 237.444 37.963 232.891 37.963C228.337 37.963 225.203 41.3335 225.203 45.6501C225.203 50.1145 228.337 53.3372 232.891 53.3372C236.705 53.3372 239.16 51.5928 240.017 48.4588H237.178C236.587 49.8189 235.286 50.765 232.891 50.765ZM232.891 40.5352C235.286 40.5352 236.883 42.0135 237.415 44.1127H228.396C228.958 41.9544 230.643 40.5352 232.891 40.5352Z" fill="white"/>
<path d="M247.089 53.0415H250.046V40.9196H255.191V38.2586H241.944V40.9196H247.089V53.0415Z" fill="white"/>
<path d="M271.469 50.6763C268.807 50.6763 266.945 48.6954 266.945 45.6501C266.945 42.6344 268.748 40.6239 271.469 40.6239C273.657 40.6239 274.928 41.6883 275.49 43.5805H278.447C277.885 40.1213 275.372 37.963 271.469 37.963C266.945 37.963 263.84 41.3926 263.84 45.6501C263.84 49.9371 266.945 53.3372 271.528 53.3372C275.283 53.3372 277.856 51.3267 278.566 47.5719H275.609C275.076 49.6415 273.657 50.6763 271.469 50.6763Z" fill="white"/>
<path d="M287.871 53.8103L294.14 38.2586H291.271L286.925 49.2867L282.519 38.2586H279.355L285.328 53.1007C284.382 55.732 283.79 56.2938 280.685 56.2938V58.9547C285.121 58.9547 286.274 57.8017 287.871 53.8103Z" fill="white"/>
<path d="M296.087 53.0415H299.044V40.9196H305.697V53.0415H308.654V38.2586H296.087V53.0415Z" fill="white"/>
<path d="M319.175 50.765C316.454 50.765 314.739 48.8728 314.532 46.1823H326.774C326.833 45.8866 326.863 45.5614 326.863 45.2657C326.863 41.2152 323.728 37.963 319.175 37.963C314.621 37.963 311.487 41.3335 311.487 45.6501C311.487 50.1145 314.621 53.3372 319.175 53.3372C322.989 53.3372 325.444 51.5928 326.301 48.4588H323.462C322.871 49.8189 321.57 50.765 319.175 50.765ZM319.175 40.5352C321.57 40.5352 323.167 42.0135 323.699 44.1127H314.68C315.242 41.9544 316.927 40.5352 319.175 40.5352Z" fill="white"/>
<path d="M332.657 38.2586H329.7V58.9547H332.657V49.7302C333.721 51.918 335.732 53.3372 338.423 53.3372C342.533 53.3372 345.224 49.9371 345.224 45.6501C345.224 41.363 342.474 37.963 338.423 37.963C335.732 37.963 333.721 39.3821 332.657 41.57V38.2586ZM337.388 40.6239C340.168 40.6239 342.119 42.5752 342.119 45.6501C342.119 48.7249 340.168 50.6763 337.388 50.6763C334.727 50.6763 332.657 48.6362 332.657 45.6501C332.657 42.6935 334.727 40.6239 337.388 40.6239Z" fill="white"/>
<path d="M348.065 53.0415H350.875V41.7474L355.428 53.0415H357.794L362.348 41.7474V53.0415H365.305V38.2586H361.135L356.759 49.1684L352.353 38.2586H348.065V53.0415Z" fill="white"/>
<path d="M378.315 43.7874V44.024C371.543 44.024 368.439 45.8275 368.439 49.198C368.439 51.8589 370.183 53.3372 372.963 53.3372C376.009 53.3372 377.576 51.652 378.315 49.4936V53.0415H381.272V44.0831C381.272 39.9734 379.113 37.963 375.121 37.963C371.455 37.963 369.148 39.7665 368.675 43.1961H371.632C371.869 41.6587 373.052 40.6239 375.121 40.6239C377.132 40.6239 378.315 41.6587 378.315 43.7874ZM371.543 49.0502C371.543 47.2762 373.436 46.1527 378.315 46.1527C378.315 48.6954 376.689 50.7945 373.643 50.7945C372.342 50.7945 371.543 50.1737 371.543 49.0502Z" fill="white"/>
<path d="M387.812 38.2586H384.855V58.9547H387.812V49.7302C388.876 51.918 390.887 53.3372 393.578 53.3372C397.688 53.3372 400.379 49.9371 400.379 45.6501C400.379 41.363 397.629 37.963 393.578 37.963C390.887 37.963 388.876 39.3821 387.812 41.57V38.2586ZM392.543 40.6239C395.322 40.6239 397.274 42.5752 397.274 45.6501C397.274 48.7249 395.322 50.6763 392.543 50.6763C389.881 50.6763 387.812 48.6362 387.812 45.6501C387.812 42.6935 389.881 40.6239 392.543 40.6239Z" fill="white"/>
<path d="M403.22 53.0415H406.177V46.0936L412.771 53.0415H416.763L409.341 45.2953L416.201 38.2586H412.653L406.177 44.9109V38.2586H403.22V53.0415Z" fill="white"/>
<path d="M424.777 50.765C422.057 50.765 420.342 48.8728 420.135 46.1823H432.377C432.436 45.8866 432.466 45.5614 432.466 45.2657C432.466 41.2152 429.331 37.963 424.777 37.963C420.224 37.963 417.089 41.3335 417.089 45.6501C417.089 50.1145 420.224 53.3372 424.777 53.3372C428.592 53.3372 431.046 51.5928 431.904 48.4588H429.065C428.474 49.8189 427.173 50.765 424.777 50.765ZM424.777 40.5352C427.173 40.5352 428.769 42.0135 429.302 44.1127H420.283C420.845 41.9544 422.53 40.5352 424.777 40.5352Z" fill="white"/>
<path d="M438.976 53.0415H441.933V40.9196H447.078V38.2586H433.831V40.9196H438.976V53.0415Z" fill="white"/>
<path d="M449.625 53.0415H456.101C460.093 53.0415 461.867 50.4693 461.867 47.9267C461.867 45.3544 460.093 42.9005 456.101 42.9005H452.582V38.2586H449.625V53.0415ZM463.848 53.0415H466.805V38.2586H463.848V53.0415ZM456.012 45.5023C457.964 45.5023 458.762 46.6849 458.762 47.9267C458.762 49.3163 457.964 50.4102 456.16 50.4102H452.582V45.5023H456.012Z" fill="white"/>
<path d="M9.06974 81.836L5.01867 77.5785L9.06974 73.321L7.1477 71.6949L1.47028 77.6968L7.1477 83.6691L9.06974 81.836ZM15.4273 81.836L11.3762 77.5785L15.4273 73.321L13.5052 71.6949L7.8278 77.6968L13.5052 83.6691L15.4273 81.836Z" fill="white"/>
<path d="M17.1543 85.2952H20.2L22.3882 79.5299H30.9043L33.1221 85.2952H36.3748L28.3909 64.5991H25.1382L17.1543 85.2952ZM23.4231 76.8689L26.6167 68.4427L29.8694 76.8689H23.4231Z" fill="white"/>
<path d="M44.038 85.5909C48.5917 85.5909 50.4842 83.403 50.4842 81.0082C50.4842 79.3525 49.3014 78.022 47.409 77.6081C49.0944 77.1646 50.0111 75.8933 50.0111 74.3854C50.0111 72.1384 48.2073 70.2166 44.0676 70.2166C40.3122 70.2166 37.9466 72.168 37.6509 75.2133H40.7262C40.9923 74.0011 41.7907 72.8775 44.0084 72.8775C45.9896 72.8775 46.9063 73.7645 46.9063 74.8585C46.9063 75.9228 46.2262 76.6324 44.1267 76.6324H42.0864V79.1455H44.5702C46.6106 79.1455 47.3794 79.9142 47.3794 80.9195C47.3794 81.9838 46.6993 82.9299 44.038 82.9299C41.7907 82.9299 40.7853 81.9838 40.4305 80.4464H37.3552C37.6509 83.4917 39.7208 85.5909 44.038 85.5909Z" fill="white"/>
<path d="M60.5311 85.5909C65.2327 85.5909 68.3671 82.3091 68.3671 78.1994C68.3671 74.1489 65.7945 70.8375 61.5956 70.8375C58.816 70.8375 56.5391 72.4341 55.5633 74.7402C55.6816 70.3349 56.9827 68.4722 62.0095 67.8218C65.0552 67.4374 67.1251 66.8166 67.5983 64.0078H64.8187C64.6117 64.7469 63.5472 64.9835 61.5364 65.22C55.3268 65.9591 52.7246 69.034 52.7246 76.1889C52.7246 78.7316 53.0499 80.7421 54.0257 82.2499C55.1789 84.083 57.5149 85.5909 60.5311 85.5909ZM60.5311 82.9299C57.7811 82.9299 55.8294 80.9786 55.8294 78.1994C55.8294 75.4793 57.7811 73.4984 60.5311 73.4984C63.3106 73.4984 65.2622 75.4793 65.2622 78.1994C65.2622 80.9786 63.3106 82.9299 60.5311 82.9299Z" fill="white"/>
<path d="M77.503 86.0639L83.7718 70.5123H80.9035L76.5568 81.5403L72.1509 70.5123H68.9869L74.96 85.3543C74.0138 87.9857 73.4224 88.5474 70.3175 88.5474V91.2084C74.753 91.2084 75.9062 90.0553 77.503 86.0639Z" fill="white"/>
<path d="M85.7193 85.2952H88.6763V78.3472L95.2704 85.2952H99.2623L91.8403 77.549L98.7005 70.5123H95.1521L88.6763 77.1646V70.5123H85.7193V85.2952Z" fill="white"/>
<path d="M109.76 76.0411V76.2776C102.989 76.2776 99.884 78.0811 99.884 81.4516C99.884 84.1126 101.629 85.5909 104.408 85.5909C107.454 85.5909 109.021 83.9056 109.76 81.7473V85.2952H112.717V76.3368C112.717 72.2271 110.559 70.2166 106.567 70.2166C102.9 70.2166 100.594 72.0201 100.121 75.4498H103.077C103.314 73.9124 104.497 72.8775 106.567 72.8775C108.577 72.8775 109.76 73.9124 109.76 76.0411ZM102.989 81.3038C102.989 79.5299 104.881 78.4064 109.76 78.4064C109.76 80.949 108.134 83.0482 105.088 83.0482C103.787 83.0482 102.989 82.4273 102.989 81.3038Z" fill="white"/>
<path d="M175.301 82.9299C172.64 82.9299 170.777 80.949 170.777 77.9037C170.777 74.888 172.581 72.8775 175.301 72.8775C177.49 72.8775 178.761 73.9419 179.323 75.8341H182.28C181.718 72.3749 179.205 70.2166 175.301 70.2166C170.777 70.2166 167.672 73.6463 167.672 77.9037C167.672 82.1908 170.777 85.5909 175.361 85.5909C179.116 85.5909 181.689 83.5804 182.398 79.8255H179.441C178.909 81.8951 177.49 82.9299 175.301 82.9299ZM194.374 76.0411V76.2776C187.603 76.2776 184.498 78.0811 184.498 81.4516C184.498 84.1126 186.242 85.5909 189.022 85.5909C192.068 85.5909 193.635 83.9056 194.374 81.7473V85.2952H197.331V76.3368C197.331 72.2271 195.172 70.2166 191.181 70.2166C187.514 70.2166 185.207 72.0201 184.734 75.4498H187.691C187.928 73.9124 189.111 72.8775 191.181 72.8775C193.191 72.8775 194.374 73.9124 194.374 76.0411ZM160.635 86.0639L166.904 70.5123H164.035L159.689 81.5403L155.283 70.5123H152.119L158.092 85.3543C157.146 87.9857 156.554 88.5474 153.449 88.5474V91.2084C157.885 91.2084 159.038 90.0553 160.635 86.0639ZM123.288 85.2952H130.355C134.406 85.2952 135.707 83.1665 135.707 81.156C135.707 79.1751 134.377 78.0516 132.218 77.6968C134.111 77.1942 135.057 75.8933 135.057 74.3558C135.057 71.9019 133.253 70.5123 129.971 70.5123H123.288V85.2952ZM138.605 85.2952H141.562V78.3472L148.156 85.2952H152.148L144.726 77.549L151.586 70.5123H148.038L141.562 77.1646V70.5123H138.605V85.2952ZM129.823 76.662H126.186V73.0254H129.823C131.361 73.0254 132.011 73.8237 132.011 74.8585C132.011 75.8637 131.361 76.662 129.823 76.662ZM187.603 81.3038C187.603 79.5299 189.495 78.4064 194.374 78.4064C194.374 80.949 192.748 83.0482 189.702 83.0482C188.401 83.0482 187.603 82.4273 187.603 81.3038ZM130.03 79.0272C131.952 79.0272 132.603 79.9142 132.603 80.8603C132.603 81.9247 131.952 82.7821 130.178 82.7821H126.186V79.0272H130.03Z" fill="white"/>
<path d="M207.562 73.528L211.613 77.7855L207.562 82.043L209.484 83.6691L215.162 77.6672L209.484 71.6949L207.562 73.528ZM201.205 73.528L205.256 77.7855L201.205 82.043L203.127 83.6691L208.804 77.6672L203.127 71.6949L201.205 73.528Z" fill="white"/>
<path d="M218.59 87.9561H220.187L221.458 85.1769C221.902 84.2013 222.02 83.6986 222.02 83.3439C222.02 82.1317 221.044 81.2447 219.832 81.2447C218.59 81.2447 217.644 82.1317 217.644 83.3439C217.644 84.1126 217.969 84.8517 219.093 85.3543L218.59 87.9561Z" fill="white"/>
<path d="M232.154 85.2952H234.963V74.0011L239.517 85.2952H241.882L246.436 74.0011V85.2952H249.393V70.5123H245.224L240.847 81.4221L236.441 70.5123H232.154V85.2952Z" fill="white"/>
<path d="M253.118 85.2952H256.075L263.32 74.7698V85.2952H266.277V70.5123H263.32L256.075 81.0377V70.5123H253.118V85.2952Z" fill="white"/>
<path d="M270.011 85.2952H272.968V79.0864H279.917V85.2952H282.874V70.5123H279.917V76.4255H272.968V70.5123H270.011V85.2952Z" fill="white"/>
<path d="M286.587 85.2952H289.544L296.788 74.7698V85.2952H299.745V70.5123H296.788L289.544 81.0377V70.5123H286.587V85.2952Z" fill="white"/>
<path d="M303.48 85.2952H306.289V74.0011L310.842 85.2952H313.208L317.762 74.0011V85.2952H320.719V70.5123H316.549L312.173 81.4221L307.767 70.5123H303.48V85.2952Z" fill="white"/>
<path d="M333.729 76.0411V76.2776C326.958 76.2776 323.853 78.0811 323.853 81.4516C323.853 84.1126 325.597 85.5909 328.377 85.5909C331.423 85.5909 332.99 83.9056 333.729 81.7473V85.2952H336.686V76.3368C336.686 72.2271 334.527 70.2166 330.536 70.2166C326.869 70.2166 324.562 72.0201 324.089 75.4498H327.046C327.283 73.9124 328.466 72.8775 330.536 72.8775C332.546 72.8775 333.729 73.9124 333.729 76.0411ZM326.958 81.3038C326.958 79.5299 328.85 78.4064 333.729 78.4064C333.729 80.949 332.103 83.0482 329.057 83.0482C327.756 83.0482 326.958 82.4273 326.958 81.3038Z" fill="white"/>
<path d="M343.226 70.5123H340.269V91.2084H343.226V81.9838C344.29 84.1717 346.301 85.5909 348.992 85.5909C353.102 85.5909 355.793 82.1908 355.793 77.9037C355.793 73.6167 353.043 70.2166 348.992 70.2166C346.301 70.2166 344.29 71.6358 343.226 73.8237V70.5123ZM347.957 72.8775C350.736 72.8775 352.688 74.8289 352.688 77.9037C352.688 80.9786 350.736 82.9299 347.957 82.9299C345.296 82.9299 343.226 80.8899 343.226 77.9037C343.226 74.9472 345.296 72.8775 347.957 72.8775Z" fill="white"/>
<path d="M358.634 85.2952H361.591V78.3472L368.185 85.2952H372.177L364.755 77.549L371.616 70.5123H368.067L361.591 77.1646V70.5123H358.634V85.2952Z" fill="white"/>
<path d="M380.192 83.0186C377.471 83.0186 375.756 81.1264 375.549 78.4359H387.791C387.85 78.1403 387.88 77.815 387.88 77.5194C387.88 73.4689 384.745 70.2166 380.192 70.2166C375.638 70.2166 372.503 73.5871 372.503 77.9037C372.503 82.3682 375.638 85.5909 380.192 85.5909C384.006 85.5909 386.46 83.8465 387.318 80.7125H384.479C383.888 82.0725 382.587 83.0186 380.192 83.0186ZM380.192 72.7889C382.587 72.7889 384.183 74.2671 384.716 76.3663H375.697C376.259 74.208 377.944 72.7889 380.192 72.7889Z" fill="white"/>
<path d="M394.39 85.2952H397.347V73.1732H402.492V70.5123H389.245V73.1732H394.39V85.2952Z" fill="white"/>
<path d="M405.039 85.2952H411.515C415.507 85.2952 417.281 82.723 417.281 80.1803C417.281 77.6081 415.507 75.1541 411.515 75.1541H407.996V70.5123H405.039V85.2952ZM419.263 85.2952H422.22V70.5123H419.263V85.2952ZM411.427 77.7559C413.378 77.7559 414.177 78.9386 414.177 80.1803C414.177 81.5699 413.378 82.6638 411.574 82.6638H407.996V77.7559H411.427Z" fill="white"/>
<path d="M9.06974 114.09L5.01867 109.832L9.06974 105.575L7.1477 103.949L1.47028 109.95L7.1477 115.923L9.06974 114.09ZM15.4273 114.09L11.3762 109.832L15.4273 105.575L13.5052 103.949L7.8278 109.95L13.5052 115.923L15.4273 114.09Z" fill="white"/>
<path d="M17.1543 117.549H20.2L22.3882 111.784H30.9043L33.1221 117.549H36.3748L28.3909 96.8528H25.1382L17.1543 117.549ZM23.4231 109.123L26.6167 100.696L29.8694 109.123H23.4231Z" fill="white"/>
<path d="M44.038 117.845C48.5917 117.845 50.4842 115.657 50.4842 113.262C50.4842 111.606 49.3014 110.276 47.409 109.862C49.0944 109.418 50.0111 108.147 50.0111 106.639C50.0111 104.392 48.2073 102.47 44.0676 102.47C40.3122 102.47 37.9466 104.422 37.6509 107.467H40.7262C40.9923 106.255 41.7907 105.131 44.0084 105.131C45.9896 105.131 46.9063 106.018 46.9063 107.112C46.9063 108.176 46.2262 108.886 44.1267 108.886H42.0864V111.399H44.5702C46.6106 111.399 47.3794 112.168 47.3794 113.173C47.3794 114.237 46.6993 115.184 44.038 115.184C41.7907 115.184 40.7853 114.237 40.4305 112.7H37.3552C37.6509 115.745 39.7208 117.845 44.038 117.845Z" fill="white"/>
<path d="M60.5311 117.845C65.2327 117.845 68.3671 114.563 68.3671 110.453C68.3671 106.403 65.7945 103.091 61.5956 103.091C58.816 103.091 56.5391 104.688 55.5633 106.994C55.6816 102.589 56.9827 100.726 62.0095 100.075C65.0552 99.6911 67.1251 99.0702 67.5983 96.2614H64.8187C64.6117 97.0006 63.5472 97.2371 61.5364 97.4736C55.3268 98.2128 52.7246 101.288 52.7246 108.443C52.7246 110.985 53.0499 112.996 54.0257 114.504C55.1789 116.337 57.5149 117.845 60.5311 117.845ZM60.5311 115.184C57.7811 115.184 55.8294 113.232 55.8294 110.453C55.8294 107.733 57.7811 105.752 60.5311 105.752C63.3106 105.752 65.2622 107.733 65.2622 110.453C65.2622 113.232 63.3106 115.184 60.5311 115.184Z" fill="white"/>
<path d="M77.503 118.318L83.7718 102.766H80.9035L76.5568 113.794L72.1509 102.766H68.9869L74.96 117.608C74.0138 120.239 73.4224 120.801 70.3175 120.801V123.462C74.753 123.462 75.9062 122.309 77.503 118.318Z" fill="white"/>
<path d="M85.7193 117.549H88.6763V110.601L95.2704 117.549H99.2623L91.8403 109.803L98.7005 102.766H95.1521L88.6763 109.418V102.766H85.7193V117.549Z" fill="white"/>
<path d="M109.76 108.295V108.531C102.989 108.531 99.884 110.335 99.884 113.705C99.884 116.366 101.629 117.845 104.408 117.845C107.454 117.845 109.021 116.159 109.76 114.001V117.549H112.717V108.59C112.717 104.481 110.559 102.47 106.567 102.47C102.9 102.47 100.594 104.274 100.121 107.703H103.077C103.314 106.166 104.497 105.131 106.567 105.131C108.577 105.131 109.76 106.166 109.76 108.295ZM102.989 113.557C102.989 111.784 104.881 110.66 109.76 110.66C109.76 113.203 108.134 115.302 105.088 115.302C103.787 115.302 102.989 114.681 102.989 113.557Z" fill="white"/>
<path d="M134.968 117.549H137.925V96.8528H134.968V106.077C133.904 103.889 131.893 102.47 129.202 102.47C125.151 102.47 122.401 105.87 122.401 110.157C122.401 114.444 125.092 117.845 129.202 117.845C131.893 117.845 133.904 116.425 134.968 114.237V117.549ZM130.237 105.131C132.898 105.131 134.968 107.201 134.968 110.157C134.968 113.144 132.898 115.184 130.237 115.184C127.457 115.184 125.506 113.232 125.506 110.157C125.506 107.083 127.457 105.131 130.237 105.131Z" fill="white"/>
<path d="M150.939 108.295V108.531C144.167 108.531 141.062 110.335 141.062 113.705C141.062 116.366 142.807 117.845 145.587 117.845C148.632 117.845 150.199 116.159 150.939 114.001V117.549H153.896V108.59C153.896 104.481 151.737 102.47 147.745 102.47C144.078 102.47 141.772 104.274 141.299 107.703H144.256C144.492 106.166 145.675 105.131 147.745 105.131C149.756 105.131 150.939 106.166 150.939 108.295ZM144.167 113.557C144.167 111.784 146.06 110.66 150.939 110.66C150.939 113.203 149.312 115.302 146.267 115.302C144.966 115.302 144.167 114.681 144.167 113.557Z" fill="white"/>
<path d="M158.957 100.401C160.021 100.401 160.879 99.5433 160.879 98.4789C160.879 97.4145 160.021 96.5571 158.957 96.5571C157.892 96.5571 157.035 97.4145 157.035 98.4789C157.035 99.5433 157.892 100.401 158.957 100.401ZM157.478 117.549H160.435V102.766H157.478V117.549Z" fill="white"/>
<path d="M167.106 96.8528H164.149V117.549H167.106V96.8528Z" fill="white"/>
<path d="M177.561 118.318L183.83 102.766H180.962L176.615 113.794L172.209 102.766H169.045L175.018 117.608C174.072 120.239 173.481 120.801 170.376 120.801V123.462C174.811 123.462 175.965 122.309 177.561 118.318Z" fill="white"/>
<path d="M192.142 105.782L196.193 110.039L192.142 114.297L194.064 115.923L199.741 109.921L194.064 103.949L192.142 105.782ZM185.784 105.782L189.836 110.039L185.784 114.297L187.707 115.923L193.384 109.921L187.707 103.949L185.784 105.782Z" fill="white"/>
<path d="M203.17 120.21H204.767L206.038 117.431C206.482 116.455 206.6 115.952 206.6 115.598C206.6 114.385 205.624 113.498 204.412 113.498C203.17 113.498 202.223 114.385 202.223 115.598C202.223 116.366 202.549 117.105 203.672 117.608L203.17 120.21Z" fill="white"/>
<path d="M219.691 102.766H216.734V123.462H219.691V114.237C220.755 116.425 222.766 117.845 225.457 117.845C229.567 117.845 232.258 114.444 232.258 110.157C232.258 105.87 229.508 102.47 225.457 102.47C222.766 102.47 220.755 103.889 219.691 106.077V102.766ZM224.422 105.131C227.201 105.131 229.153 107.083 229.153 110.157C229.153 113.232 227.201 115.184 224.422 115.184C221.76 115.184 219.691 113.144 219.691 110.157C219.691 107.201 221.76 105.131 224.422 105.131Z" fill="white"/>
<path d="M241.9 115.272C239.18 115.272 237.465 113.38 237.258 110.69H249.5C249.559 110.394 249.588 110.069 249.588 109.773C249.588 105.723 246.454 102.47 241.9 102.47C237.347 102.47 234.212 105.841 234.212 110.157C234.212 114.622 237.347 117.845 241.9 117.845C245.715 117.845 248.169 116.1 249.027 112.966H246.188C245.597 114.326 244.295 115.272 241.9 115.272ZM241.9 105.043C244.295 105.043 245.892 106.521 246.424 108.62H237.406C237.967 106.462 239.653 105.043 241.9 105.043Z" fill="white"/>
<path d="M259.167 115.184C256.506 115.184 254.643 113.203 254.643 110.157C254.643 107.142 256.447 105.131 259.167 105.131C261.355 105.131 262.627 106.196 263.189 108.088H266.146C265.584 104.629 263.07 102.47 259.167 102.47C254.643 102.47 251.538 105.9 251.538 110.157C251.538 114.444 254.643 117.845 259.226 117.845C262.982 117.845 265.554 115.834 266.264 112.079H263.307C262.775 114.149 261.355 115.184 259.167 115.184Z" fill="white"/>
<path d="M272.79 117.549H275.747V105.427H280.892V102.766H267.645V105.427H272.79V117.549Z" fill="white"/>
<path d="M289.81 117.845C294.394 117.845 297.646 114.444 297.646 110.157C297.646 105.87 294.394 102.47 289.81 102.47C285.227 102.47 281.974 105.87 281.974 110.157C281.974 114.444 285.227 117.845 289.81 117.845ZM289.81 115.184C287.001 115.184 285.079 112.966 285.079 110.157C285.079 107.349 287.001 105.131 289.81 105.131C292.62 105.131 294.542 107.349 294.542 110.157C294.542 112.966 292.62 115.184 289.81 115.184Z" fill="white"/>
<path d="M303.433 102.766H300.476V123.462H303.433V114.237C304.498 116.425 306.509 117.845 309.2 117.845C313.31 117.845 316.001 114.444 316.001 110.157C316.001 105.87 313.251 102.47 309.2 102.47C306.509 102.47 304.498 103.889 303.433 106.077V102.766ZM308.165 105.131C310.944 105.131 312.896 107.083 312.896 110.157C312.896 113.232 310.944 115.184 308.165 115.184C305.503 115.184 303.433 113.144 303.433 110.157C303.433 107.201 305.503 105.131 308.165 105.131Z" fill="white"/>
<path d="M327.983 108.295V108.531C321.211 108.531 318.106 110.335 318.106 113.705C318.106 116.366 319.851 117.845 322.63 117.845C325.676 117.845 327.243 116.159 327.983 114.001V117.549H330.94V108.59C330.94 104.481 328.781 102.47 324.789 102.47C321.122 102.47 318.816 104.274 318.343 107.703H321.3C321.536 106.166 322.719 105.131 324.789 105.131C326.8 105.131 327.983 106.166 327.983 108.295ZM321.211 113.557C321.211 111.784 323.104 110.66 327.983 110.66C327.983 113.203 326.356 115.302 323.311 115.302C322.009 115.302 321.211 114.681 321.211 113.557Z" fill="white"/>
<path d="M334.522 117.549H337.479V111.34H344.428V117.549H347.385V102.766H344.428V108.679H337.479V102.766H334.522V117.549Z" fill="white"/>
<path d="M351.098 117.549H354.055V111.34H361.003V117.549H363.96V102.766H361.003V108.679H354.055V102.766H351.098V117.549Z" fill="white"/>
<path d="M374.415 118.318L380.684 102.766H377.815L373.469 113.794L369.063 102.766H365.899L371.872 117.608C370.926 120.239 370.334 120.801 367.229 120.801V123.462C371.665 123.462 372.818 122.309 374.415 118.318Z" fill="white"/>
<path d="M382.631 117.549H385.588V111.251H388.013C388.515 115.006 391.472 117.845 395.494 117.845C399.9 117.845 403.034 114.444 403.034 110.157C403.034 105.87 399.9 102.47 395.494 102.47C391.65 102.47 388.752 105.072 388.101 108.59H385.588V102.766H382.631V117.549ZM395.494 115.184C392.862 115.184 391.058 112.966 391.058 110.157C391.058 107.349 392.862 105.131 395.494 105.131C398.126 105.131 399.929 107.349 399.929 110.157C399.929 112.966 398.126 115.184 395.494 115.184Z" fill="white"/>
<path d="M8.86275 147.437C6.20146 147.437 4.33856 145.456 4.33856 142.411C4.33856 139.395 6.14232 137.385 8.86275 137.385C11.0509 137.385 12.3224 138.449 12.8843 140.341H15.8412C15.2794 136.882 12.766 134.724 8.86275 134.724C4.33856 134.724 1.23372 138.154 1.23372 142.411C1.23372 146.698 4.33856 150.098 8.92189 150.098C12.6773 150.098 15.2498 148.088 15.9595 144.333H13.0025C12.4703 146.402 11.0509 147.437 8.86275 147.437Z" fill="white"/>
<path d="M19.857 142.411C19.7978 146.077 19.3839 147.142 17.1957 147.142V150.098C21.2468 150.098 22.4887 148.088 22.6365 142.47L22.7548 137.681H28.1365V149.803H31.0935V135.02H20.0048L19.857 142.411Z" fill="white"/>
<path d="M41.5513 150.571L47.8202 135.02H44.9519L40.6051 146.048L36.1992 135.02H33.0352L39.0083 149.862C38.0621 152.493 37.4707 153.055 34.3659 153.055V155.716C38.8013 155.716 39.9546 154.563 41.5513 150.571Z" fill="white"/>
<path d="M57.5514 149.803H60.5084V142.884L66.8068 149.803H70.71L63.6133 142.056L70.1482 135.02H66.6885L60.5084 141.672V135.02H57.5514V141.672L51.3713 135.02H47.7638L54.4466 142.204L47.4977 149.803H51.253L57.5514 142.884V149.803Z" fill="white"/>
<path d="M79.3876 150.098C84.0892 150.098 87.2236 146.816 87.2236 142.707C87.2236 138.656 84.6511 135.345 80.4521 135.345C77.6726 135.345 75.3957 136.941 74.4199 139.248C74.5382 134.842 75.8392 132.98 80.8661 132.329C83.9118 131.945 85.9817 131.324 86.4548 128.515H83.6753C83.4683 129.254 82.4038 129.491 80.393 129.727C74.1833 130.466 71.5812 133.541 71.5812 140.696C71.5812 143.239 71.9064 145.249 72.8823 146.757C74.0355 148.59 76.3715 150.098 79.3876 150.098ZM79.3876 147.437C76.6376 147.437 74.686 145.486 74.686 142.707C74.686 139.987 76.6376 138.006 79.3876 138.006C82.1672 138.006 84.1188 139.987 84.1188 142.707C84.1188 145.486 82.1672 147.437 79.3876 147.437Z" fill="white"/>
<path d="M96.3596 150.571L102.628 135.02H99.7601L95.4134 146.048L91.0074 135.02H87.8435L93.8166 149.862C92.8703 152.493 92.2789 153.055 89.1741 153.055V155.716C93.6096 155.716 94.7628 154.563 96.3596 150.571Z" fill="white"/>
<path d="M103.458 152.463H105.055L106.326 149.684C106.77 148.709 106.888 148.206 106.888 147.851C106.888 146.639 105.912 145.752 104.7 145.752C103.458 145.752 102.512 146.639 102.512 147.851C102.512 148.62 102.837 149.359 103.961 149.862L103.458 152.463Z" fill="white"/>
<path d="M123.971 150.098C128.554 150.098 131.807 146.698 131.807 142.411C131.807 138.124 128.554 134.724 123.971 134.724C119.387 134.724 116.135 138.124 116.135 142.411C116.135 146.698 119.387 150.098 123.971 150.098ZM123.971 147.437C121.162 147.437 119.24 145.22 119.24 142.411C119.24 139.602 121.162 137.385 123.971 137.385C126.78 137.385 128.702 139.602 128.702 142.411C128.702 145.22 126.78 147.437 123.971 147.437Z" fill="white"/>
<path d="M141.881 155.716H144.838V150.098C149.215 149.891 152.97 147.142 152.97 142.411C152.97 137.681 149.215 134.901 144.838 134.724V129.106H141.881V134.724C137.505 134.901 133.75 137.681 133.75 142.411C133.75 147.142 137.505 149.891 141.881 150.098V155.716ZM136.854 142.411C136.854 139.1 139.279 137.414 141.881 137.296V147.526C139.279 147.408 136.854 145.722 136.854 142.411ZM144.838 137.296C147.411 137.414 149.865 139.1 149.865 142.411C149.865 145.722 147.411 147.408 144.838 147.526V137.296Z" fill="white"/>
<path d="M155.803 149.803H158.76L166.005 139.277V149.803H168.962V135.02H166.005L158.76 145.545V135.02H155.803V149.803Z" fill="white"/>
<path d="M179.438 147.437C176.777 147.437 174.914 145.456 174.914 142.411C174.914 139.395 176.718 137.385 179.438 137.385C181.626 137.385 182.898 138.449 183.46 140.341H186.417C185.855 136.882 183.341 134.724 179.438 134.724C174.914 134.724 171.809 138.154 171.809 142.411C171.809 146.698 174.914 150.098 179.497 150.098C183.253 150.098 185.825 148.088 186.535 144.333H183.578C183.046 146.402 181.626 147.437 179.438 147.437Z" fill="white"/>
<path d="M196.375 149.803H199.332L206.577 139.277V149.803H209.534V135.02H206.577L199.332 145.545V135.02H196.375V149.803Z" fill="white"/>
<path d="M226.998 147.437C224.337 147.437 222.474 145.456 222.474 142.411C222.474 139.395 224.278 137.385 226.998 137.385C229.187 137.385 230.458 138.449 231.02 140.341H233.977C233.415 136.882 230.902 134.724 226.998 134.724C222.474 134.724 219.369 138.154 219.369 142.411C219.369 146.698 222.474 150.098 227.058 150.098C230.813 150.098 233.386 148.088 234.095 144.333H231.138C230.606 146.402 229.187 147.437 226.998 147.437Z" fill="white"/>
<path d="M236.947 149.803H239.904V142.855L246.498 149.803H250.49L243.068 142.056L249.929 135.02H246.38L239.904 141.672V135.02H236.947V149.803Z" fill="white"/>
<path d="M253.615 142.411C253.556 146.077 253.142 147.142 250.954 147.142V150.098C255.005 150.098 256.247 148.088 256.395 142.47L256.513 137.681H261.895V149.803H264.852V135.02H253.763L253.615 142.411Z" fill="white"/>
<path d="M277.852 140.548V140.785C271.081 140.785 267.976 142.588 267.976 145.959C267.976 148.62 269.721 150.098 272.5 150.098C275.546 150.098 277.113 148.413 277.852 146.255V149.803H280.809V140.844C280.809 136.734 278.651 134.724 274.659 134.724C270.992 134.724 268.686 136.527 268.213 139.957H271.17C271.406 138.42 272.589 137.385 274.659 137.385C276.67 137.385 277.852 138.42 277.852 140.548ZM271.081 145.811C271.081 144.037 272.973 142.914 277.852 142.914C277.852 145.456 276.226 147.556 273.18 147.556C271.879 147.556 271.081 146.935 271.081 145.811Z" fill="white"/>
<path d="M283.061 153.055H285.87V149.803H296.693V153.055H299.502V147.142H297.432V135.02H286.107V136.705C286.107 143.091 285.516 145.693 284.895 147.142H283.061V153.055ZM287.822 147.142C288.354 145.782 288.827 143.682 288.887 137.681H294.475V147.142H287.822Z" fill="white"/>
<path d="M304.383 150.098C305.596 150.098 306.571 149.122 306.571 147.851C306.571 146.669 305.596 145.752 304.383 145.752C303.141 145.752 302.195 146.669 302.195 147.851C302.195 149.122 303.141 150.098 304.383 150.098Z" fill="white"/>
</g>
</svg>
