<svg width="293" height="113" viewBox="0 0 293 113" fill="none" xmlns="http://www.w3.org/2000/svg">
<g id="&#208;&#158;&#209;&#132;&#208;&#184;&#209;&#129; &#208;&#178;&#194;&#160;&#208;&#156;&#208;&#190;&#209;&#129;&#208;&#186;&#208;&#178;&#208;&#181;">
<path d="M25.3416 49.3375C39.6561 49.3375 49.8711 38.6535 49.8711 25.1473C49.8711 11.6411 39.6561 0.957031 25.3416 0.957031C11.0271 0.957031 0.812012 11.6411 0.812012 25.1473C0.812012 38.6535 11.0271 49.3375 25.3416 49.3375ZM25.3416 42.954C15.1937 42.954 8.20448 35.0922 8.20448 25.1473C8.20448 15.2024 15.1937 7.34057 25.3416 7.34057C35.4894 7.34057 42.4787 15.2024 42.4787 25.1473C42.4787 35.0922 35.4894 42.954 25.3416 42.954Z" fill="white"/>
<path d="M73.1013 62.1046H79.8217V49.3375C89.7679 48.8671 98.3029 42.618 98.3029 31.8668C98.3029 21.1156 89.7679 14.7992 79.8217 14.3961V1.62898H73.1013V14.3961C63.155 14.7992 54.6201 21.1156 54.6201 31.8668C54.6201 42.618 63.155 48.8671 73.1013 49.3375V62.1046ZM61.6765 31.8668C61.6765 24.3409 67.1873 20.5108 73.1013 20.242V43.4915C67.1873 43.2228 61.6765 39.3926 61.6765 31.8668ZM79.8217 20.242C85.6685 20.5108 91.2464 24.3409 91.2464 31.8668C91.2464 39.3926 85.6685 43.2228 79.8217 43.4915V20.242Z" fill="white"/>
<path d="M104.742 48.6656H111.463L127.928 24.7441V48.6656H134.648V15.068H127.928L111.463 38.9895V15.068H104.742V48.6656Z" fill="white"/>
<path d="M158.458 43.29C152.41 43.29 148.176 38.7879 148.176 31.8668C148.176 25.0129 152.275 20.4436 158.458 20.4436C163.431 20.4436 166.321 22.8626 167.598 27.1631H174.318C173.041 19.3013 167.329 14.3961 158.458 14.3961C148.176 14.3961 141.119 22.1907 141.119 31.8668C141.119 41.6101 148.176 49.3375 158.592 49.3375C167.127 49.3375 172.974 44.7682 174.587 36.2345H167.867C166.657 40.9381 163.431 43.29 158.458 43.29Z" fill="white"/>
<path d="M2.49212 111.829H18.5539C27.7609 111.829 30.7179 106.991 30.7179 102.422C30.7179 97.9196 27.6937 95.3662 22.7878 94.5598C27.0889 93.4175 29.2394 90.4609 29.2394 86.9668C29.2394 81.3896 25.14 78.2314 17.6803 78.2314H2.49212V111.829ZM17.3443 92.208H9.07814V83.943H17.3443C20.8389 83.943 22.3174 85.7573 22.3174 88.1091C22.3174 90.3937 20.8389 92.208 17.3443 92.208ZM17.8147 97.5836C22.183 97.5836 23.6615 99.5995 23.6615 101.75C23.6615 104.169 22.183 106.117 18.1507 106.117H9.07814V97.5836H17.8147Z" fill="white"/>
<path d="M53.7564 111.829H60.4768V72.7886L76.0682 111.829H81.7134L97.3048 72.7886V111.829H104.361V64.7924H94.1462L79.4284 101.683L64.7107 64.7924H53.7564V111.829Z" fill="white"/>
<path d="M128.936 112.501C139.353 112.501 146.745 104.773 146.745 95.0302C146.745 85.2869 139.353 77.5595 128.936 77.5595C118.519 77.5595 111.127 85.2869 111.127 95.0302C111.127 104.773 118.519 112.501 128.936 112.501ZM128.936 106.453C122.552 106.453 118.183 101.414 118.183 95.0302C118.183 88.6467 122.552 83.607 128.936 83.607C135.32 83.607 139.689 88.6467 139.689 95.0302C139.689 101.414 135.32 106.453 128.936 106.453Z" fill="white"/>
<path d="M168.499 106.453C162.451 106.453 158.217 101.951 158.217 95.0302C158.217 88.1763 162.317 83.607 168.499 83.607C173.472 83.607 176.362 86.0261 177.639 90.3265H184.36C183.083 82.4647 177.37 77.5595 168.499 77.5595C158.217 77.5595 151.161 85.3541 151.161 95.0302C151.161 104.773 158.217 112.501 168.634 112.501C177.169 112.501 183.015 107.932 184.628 99.3979H177.908C176.698 104.102 173.472 106.453 168.499 106.453Z" fill="white"/>
<path d="M191.11 111.829H197.831V96.0381L212.817 111.829H221.89L205.022 94.2239L220.613 78.2314H212.549L197.831 93.3503V78.2314H191.11V111.829Z" fill="white"/>
<path d="M225.631 111.829H241.693C250.9 111.829 253.857 106.991 253.857 102.422C253.857 97.9196 250.833 95.3662 245.927 94.5598C250.228 93.4175 252.379 90.4609 252.379 86.9668C252.379 81.3896 248.279 78.2314 240.82 78.2314H225.631V111.829ZM240.484 92.208H232.217V83.943H240.484C243.978 83.943 245.457 85.7573 245.457 88.1091C245.457 90.3937 243.978 92.208 240.484 92.208ZM240.954 97.5836C245.322 97.5836 246.801 99.5995 246.801 101.75C246.801 104.169 245.322 106.117 241.29 106.117H232.217V97.5836H240.954Z" fill="white"/>
<path d="M275.478 106.655C269.295 106.655 265.397 102.354 264.927 96.2397H292.75C292.884 95.5678 292.951 94.8286 292.951 94.1567C292.951 84.9509 285.828 77.5595 275.478 77.5595C265.129 77.5595 258.005 85.2197 258.005 95.0302C258.005 105.177 265.129 112.501 275.478 112.501C284.147 112.501 289.725 108.536 291.674 101.414H285.223C283.879 104.505 280.922 106.655 275.478 106.655ZM275.478 83.4054C280.922 83.4054 284.551 86.7652 285.76 91.536H265.263C266.54 86.6308 270.371 83.4054 275.478 83.4054Z" fill="white"/>
</g>
</svg>
