<svg width="487" height="126" viewBox="0 0 487 126" fill="none" xmlns="http://www.w3.org/2000/svg">
<g id="&#208;&#161;&#209;&#131;&#208;&#191;&#208;&#181;&#209;&#128;&#208;&#188;&#208;&#176;&#209;&#128;&#208;&#186;&#208;&#181;&#209;&#130;&#209;&#139; &#194;&#171;&#208;&#144;&#208;&#183;&#208;&#177;&#209;&#131;&#208;&#186;&#208;&#176; &#208;&#178;&#208;&#186;&#209;&#131;&#209;&#129;&#208;&#176;&#194;&#187;">
<path d="M46.4437 16.4124C43.89 5.3924 35.691 0.95752 24.6695 0.95752C10.7582 0.95752 0.812012 10.9696 0.812012 25.1478C0.812012 39.3259 10.7582 49.338 24.6695 49.338C36.7663 49.338 44.0916 44.0296 47.0486 33.144H39.3873C36.9007 39.7963 32.7341 42.9545 24.6695 42.9545C14.9249 42.9545 8.20448 35.7646 8.20448 25.1478C8.20448 14.5309 14.9249 7.34106 24.6695 7.34106C31.726 7.34106 36.5647 10.432 38.5808 16.4124H46.4437Z" fill="white"/>
<path d="M68.8086 50.4131L83.0559 15.0685H76.5371L66.6581 40.1323L56.6446 15.0685H49.4538L63.029 48.8004C60.8785 54.7808 59.5344 56.0575 52.4779 56.0575V62.1051C62.5586 62.1051 65.1796 59.4845 68.8086 50.4131Z" fill="white"/>
<path d="M87.4819 48.6661H94.2024V21.1161H109.323V48.6661H116.044V15.0685H87.4819V48.6661Z" fill="white"/>
<path d="M139.954 43.492C133.771 43.492 129.873 39.1915 129.403 33.0768H157.225C157.36 32.4048 157.427 31.6657 157.427 30.9937C157.427 21.788 150.303 14.3965 139.954 14.3965C129.604 14.3965 122.481 22.0568 122.481 31.8673C122.481 42.0137 129.604 49.338 139.954 49.338C148.623 49.338 154.201 45.3735 156.15 38.2508H149.698C148.354 41.3418 145.397 43.492 139.954 43.492ZM139.954 20.2425C145.397 20.2425 149.026 23.6023 150.236 28.3731H129.739C131.016 23.4679 134.846 20.2425 139.954 20.2425Z" fill="white"/>
<path d="M170.595 15.0685H163.874V62.1051H170.595V41.1402C173.014 46.1126 177.584 49.338 183.7 49.338C193.041 49.338 199.157 41.6106 199.157 31.8673C199.157 22.124 192.907 14.3965 183.7 14.3965C177.584 14.3965 173.014 17.6219 170.595 22.5943V15.0685ZM181.347 20.4441C187.665 20.4441 192.1 24.879 192.1 31.8673C192.1 38.8556 187.665 43.2904 181.347 43.2904C175.299 43.2904 170.595 38.654 170.595 31.8673C170.595 25.1478 175.299 20.4441 181.347 20.4441Z" fill="white"/>
<path d="M205.615 48.6661H211.999V22.9975L222.348 48.6661H227.725L238.074 22.9975V48.6661H244.795V15.0685H235.319L225.373 39.8635L215.359 15.0685H205.615V48.6661Z" fill="white"/>
<path d="M274.363 27.634V28.1715C258.974 28.1715 251.917 32.2704 251.917 39.9307C251.917 45.9783 255.882 49.338 262.199 49.338C269.122 49.338 272.683 45.5079 274.363 40.6026V48.6661H281.084V28.3059C281.084 18.9658 276.178 14.3965 267.105 14.3965C258.772 14.3965 253.53 18.4954 252.455 26.2901H259.175C259.713 22.7959 262.401 20.4441 267.105 20.4441C271.675 20.4441 274.363 22.7959 274.363 27.634ZM258.974 39.5947C258.974 35.563 263.275 33.0096 274.363 33.0096C274.363 38.7884 270.667 43.5592 263.745 43.5592C260.788 43.5592 258.974 42.1481 258.974 39.5947Z" fill="white"/>
<path d="M295.947 15.0685H289.226V62.1051H295.947V41.1402C298.366 46.1126 302.936 49.338 309.051 49.338C318.393 49.338 324.508 41.6106 324.508 31.8673C324.508 22.124 318.258 14.3965 309.051 14.3965C302.936 14.3965 298.366 17.6219 295.947 22.5943V15.0685ZM306.699 20.4441C313.016 20.4441 317.452 24.879 317.452 31.8673C317.452 38.8556 313.016 43.2904 306.699 43.2904C300.651 43.2904 295.947 38.654 295.947 31.8673C295.947 25.1478 300.651 20.4441 306.699 20.4441Z" fill="white"/>
<path d="M330.966 48.6661H337.687V32.8752L352.673 48.6661H361.746L344.878 31.0609L360.469 15.0685H352.404L337.687 30.1874V15.0685H330.966V48.6661Z" fill="white"/>
<path d="M379.96 43.492C373.777 43.492 369.879 39.1915 369.409 33.0768H397.231C397.366 32.4048 397.433 31.6657 397.433 30.9937C397.433 21.788 390.309 14.3965 379.96 14.3965C369.61 14.3965 362.487 22.0568 362.487 31.8673C362.487 42.0137 369.61 49.338 379.96 49.338C388.629 49.338 394.207 45.3735 396.156 38.2508H389.704C388.36 41.3418 385.403 43.492 379.96 43.492ZM379.96 20.2425C385.403 20.2425 389.032 23.6023 390.242 28.3731H369.745C371.022 23.4679 374.852 20.2425 379.96 20.2425Z" fill="white"/>
<path d="M412.229 48.6661H418.95V21.1161H430.643V15.0685H400.536V21.1161H412.229V48.6661Z" fill="white"/>
<path d="M436.432 48.6661H451.15C460.223 48.6661 464.255 42.8201 464.255 37.0413C464.255 31.1953 460.223 25.6181 451.15 25.6181H443.153V15.0685H436.432V48.6661ZM468.758 48.6661H475.478V15.0685H468.758V48.6661ZM450.949 31.5313C455.384 31.5313 457.199 34.2191 457.199 37.0413C457.199 40.1995 455.384 42.6857 451.285 42.6857H443.153V31.5313H450.949Z" fill="white"/>
<path d="M18.2851 103.968L9.07814 94.2915L18.2851 84.6154L13.9169 80.9197L1.01362 94.5603L13.9169 108.134L18.2851 103.968ZM32.7341 103.968L23.5271 94.2915L32.7341 84.6154L28.3658 80.9197L15.4625 94.5603L28.3658 108.134L32.7341 103.968Z" fill="white"/>
<path d="M36.6592 111.829H43.5813L48.5544 98.7264H67.9092L72.9495 111.829H80.342L62.1968 64.7929H54.8044L36.6592 111.829ZM50.9065 92.6789L58.1646 73.5282L65.5571 92.6789H50.9065Z" fill="white"/>
<path d="M97.7584 112.501C108.108 112.501 112.409 107.529 112.409 102.086C112.409 98.3232 109.721 95.2995 105.42 94.3587C109.25 93.3508 111.334 90.4614 111.334 87.0345C111.334 81.9276 107.234 77.56 97.8256 77.56C89.2907 77.56 83.9143 81.9948 83.2423 88.9159H90.2315C90.8364 86.1609 92.6509 83.6075 97.6912 83.6075C102.194 83.6075 104.277 85.6234 104.277 88.1096C104.277 90.5286 102.732 92.1413 97.96 92.1413H93.3229V97.8529H98.9681C103.605 97.8529 105.353 99.6 105.353 101.885C105.353 104.304 103.807 106.454 97.7584 106.454C92.6509 106.454 90.3659 104.304 89.5595 100.809H82.5702C83.2423 107.731 87.9466 112.501 97.7584 112.501Z" fill="white"/>
<path d="M135.243 112.501C145.928 112.501 153.052 105.043 153.052 95.7026C153.052 86.4969 147.205 78.9711 137.662 78.9711C131.345 78.9711 126.17 82.5996 123.952 87.8408C124.221 77.8287 127.178 73.5955 138.603 72.1172C145.525 71.2436 150.229 69.8325 151.305 63.449H144.987C144.517 65.1289 142.098 65.6664 137.528 66.204C123.415 67.8839 117.501 74.8721 117.501 91.1334C117.501 96.9121 118.24 101.481 120.458 104.908C123.079 109.074 128.388 112.501 135.243 112.501ZM135.243 106.454C128.993 106.454 124.557 102.019 124.557 95.7026C124.557 89.5207 128.993 85.0186 135.243 85.0186C141.56 85.0186 145.995 89.5207 145.995 95.7026C145.995 102.019 141.56 106.454 135.243 106.454Z" fill="white"/>
<path d="M173.815 113.577L188.063 78.2319H181.544L171.665 103.296L161.651 78.2319H154.46L168.036 111.964C165.885 117.944 164.541 119.221 157.485 119.221V125.268C167.565 125.268 170.186 122.648 173.815 113.577Z" fill="white"/>
<path d="M192.489 111.829H199.209V96.0386L214.196 111.829H223.268L206.4 94.2243L221.991 78.2319H213.927L199.209 93.3508V78.2319H192.489V111.829Z" fill="white"/>
<path d="M247.127 90.7974V91.335C231.738 91.335 224.681 95.4339 224.681 103.094C224.681 109.142 228.646 112.501 234.963 112.501C241.885 112.501 245.447 108.671 247.127 103.766V111.829H253.848V91.4693C253.848 82.1292 248.942 77.56 239.869 77.56C231.536 77.56 226.294 81.6589 225.219 89.4535H231.939C232.477 85.9593 235.165 83.6075 239.869 83.6075C244.439 83.6075 247.127 85.9593 247.127 90.7974ZM231.738 102.758C231.738 98.7264 236.039 96.173 247.127 96.173C247.127 101.952 243.431 106.723 236.509 106.723C233.552 106.723 231.738 105.312 231.738 102.758Z" fill="white"/>
<path d="M396.085 106.454C390.036 106.454 385.802 101.952 385.802 95.0307C385.802 88.1768 389.902 83.6075 396.085 83.6075C401.058 83.6075 403.948 86.0265 405.224 90.327H411.945C410.668 82.4652 404.956 77.56 396.085 77.56C385.802 77.56 378.746 85.3546 378.746 95.0307C378.746 104.774 385.802 112.501 396.219 112.501C404.754 112.501 410.601 107.932 412.214 99.3984H405.493C404.284 104.102 401.058 106.454 396.085 106.454ZM439.431 90.7974V91.335C424.042 91.335 416.985 95.4339 416.985 103.094C416.985 109.142 420.95 112.501 427.267 112.501C434.189 112.501 437.751 108.671 439.431 103.766V111.829H446.152V91.4693C446.152 82.1292 441.246 77.56 432.173 77.56C423.84 77.56 418.598 81.6589 417.523 89.4535H424.243C424.781 85.9593 427.469 83.6075 432.173 83.6075C436.743 83.6075 439.431 85.9593 439.431 90.7974ZM362.751 113.577L376.999 78.2319H370.48L360.601 103.296L350.587 78.2319H343.396L356.972 111.964C354.821 117.944 353.477 119.221 346.421 119.221V125.268C356.501 125.268 359.122 122.648 362.751 113.577ZM277.872 111.829H293.934C303.141 111.829 306.098 106.991 306.098 102.422C306.098 97.9201 303.074 95.3667 298.168 94.5603C302.469 93.418 304.62 90.4614 304.62 86.9673C304.62 81.3901 300.52 78.2319 293.06 78.2319H277.872V111.829ZM312.684 111.829H319.405V96.0386L334.391 111.829H343.464L326.595 94.2243L342.187 78.2319H334.122L319.405 93.3508V78.2319H312.684V111.829ZM292.724 92.2085H284.458V83.9435H292.724C296.219 83.9435 297.698 85.7578 297.698 88.1096C297.698 90.3942 296.219 92.2085 292.724 92.2085ZM424.042 102.758C424.042 98.7264 428.343 96.173 439.431 96.173C439.431 101.952 435.735 106.723 428.813 106.723C425.856 106.723 424.042 105.312 424.042 102.758ZM293.195 97.5841C297.563 97.5841 299.042 99.6 299.042 101.75C299.042 104.169 297.563 106.118 293.531 106.118H284.458V97.5841H293.195Z" fill="white"/>
<path d="M469.405 85.0858L478.612 94.7619L469.405 104.438L473.773 108.134L486.676 94.4931L473.773 80.9197L469.405 85.0858ZM454.956 85.0858L464.163 94.7619L454.956 104.438L459.324 108.134L472.227 94.4931L459.324 80.9197L454.956 85.0858Z" fill="white"/>
</g>
</svg>
