<svg width="497" height="61" viewBox="0 0 497 61" fill="none" xmlns="http://www.w3.org/2000/svg">
<path id="Vector" d="M0.57959 47.5306H7.65089V6.78572H30.8851V47.5306H37.9564V0.387756H0.57959V47.5306ZM62.6323 48.2041C73.0709 48.2041 80.4789 40.4592 80.4789 30.6939C80.4789 20.9286 73.0709 13.1837 62.6323 13.1837C52.1937 13.1837 44.7857 20.9286 44.7857 30.6939C44.7857 40.4592 52.1937 48.2041 62.6323 48.2041ZM62.6323 42.1429C56.2345 42.1429 51.857 37.0918 51.857 30.6939C51.857 24.2959 56.2345 19.2449 62.6323 19.2449C69.0301 19.2449 73.4076 24.2959 73.4076 30.6939C73.4076 37.0918 69.0301 42.1429 62.6323 42.1429ZM83.2359 54.9388H89.6337V47.5306H114.282V54.9388H120.68V41.4694H115.966V13.8571H90.1725V17.6959C90.1725 32.2429 88.8256 38.1694 87.4113 41.4694H83.2359V54.9388ZM94.0786 41.4694C95.2908 38.3714 96.3683 33.5898 96.503 19.9184H109.231V41.4694H94.0786ZM132.856 13.8571H126.121V61H132.856V39.9878C135.28 44.9714 139.86 48.2041 145.988 48.2041C155.349 48.2041 161.478 40.4592 161.478 30.6939C161.478 20.9286 155.215 13.1837 145.988 13.1837C139.86 13.1837 135.28 16.4163 132.856 21.4V13.8571ZM143.631 19.2449C149.962 19.2449 154.407 23.6898 154.407 30.6939C154.407 37.698 149.962 42.1429 143.631 42.1429C137.57 42.1429 132.856 37.4959 132.856 30.6939C132.856 23.9592 137.57 19.2449 143.631 19.2449ZM188.768 26.451V26.9898C173.346 26.9898 166.274 31.098 166.274 38.7755C166.274 44.8367 170.248 48.2041 176.578 48.2041C183.515 48.2041 187.084 44.3653 188.768 39.449V47.5306H195.502V27.1245C195.502 17.7633 190.586 13.1837 181.494 13.1837C173.143 13.1837 167.891 17.2918 166.813 25.1041H173.548C174.086 21.602 176.78 19.2449 181.494 19.2449C186.074 19.2449 188.768 21.602 188.768 26.451ZM173.346 38.4388C173.346 34.398 177.656 31.8388 188.768 31.8388C188.768 37.6306 185.064 42.4122 178.127 42.4122C175.164 42.4122 173.346 40.998 173.346 38.4388ZM216.524 48.2041C226.895 48.2041 231.205 43.2204 231.205 37.7653C231.205 33.9939 228.511 30.9633 224.201 30.0204C228.04 29.0102 230.127 26.1143 230.127 22.6796C230.127 17.5612 226.019 13.1837 216.591 13.1837C208.038 13.1837 202.65 17.6286 201.977 24.5653H208.981C209.587 21.8041 211.405 19.2449 216.456 19.2449C220.968 19.2449 223.056 21.2653 223.056 23.7571C223.056 26.1816 221.507 27.798 216.726 27.798H212.079V33.5224H217.736C222.383 33.5224 224.134 35.2735 224.134 37.5633C224.134 39.9878 222.585 42.1429 216.524 42.1429C211.405 42.1429 209.115 39.9878 208.307 36.4857H201.303C201.977 43.4224 206.691 48.2041 216.524 48.2041ZM234.303 54.9388H240.701V47.5306H265.349V54.9388H271.747V41.4694H267.033V13.8571H241.239V17.6959C241.239 32.2429 239.892 38.1694 238.478 41.4694H234.303V54.9388ZM245.145 41.4694C246.358 38.3714 247.435 33.5898 247.57 19.9184H260.298V41.4694H245.145ZM292.678 42.3449C286.482 42.3449 282.576 38.0347 282.105 31.9061H309.986C310.121 31.2327 310.188 30.4918 310.188 29.8184C310.188 20.5918 303.049 13.1837 292.678 13.1837C282.307 13.1837 275.168 20.8612 275.168 30.6939C275.168 40.8633 282.307 48.2041 292.678 48.2041C301.366 48.2041 306.955 44.2306 308.908 37.0918H302.443C301.096 40.1898 298.133 42.3449 292.678 42.3449ZM292.678 19.0429C298.133 19.0429 301.77 22.4102 302.982 27.1918H282.441C283.721 22.2755 287.56 19.0429 292.678 19.0429ZM319.03 30.6939C318.896 39.0449 317.953 41.4694 312.969 41.4694V48.2041C322.196 48.2041 325.024 43.6245 325.361 30.8286L325.63 19.9184H337.887V47.5306H344.622V13.8571H319.367L319.03 30.6939ZM368.574 42.3449C362.378 42.3449 358.472 38.0347 358.001 31.9061H385.882C386.016 31.2327 386.084 30.4918 386.084 29.8184C386.084 20.5918 378.945 13.1837 368.574 13.1837C358.203 13.1837 351.064 20.8612 351.064 30.6939C351.064 40.8633 358.203 48.2041 368.574 48.2041C377.262 48.2041 382.851 44.2306 384.804 37.0918H378.339C376.992 40.1898 374.029 42.3449 368.574 42.3449ZM368.574 19.0429C374.029 19.0429 377.666 22.4102 378.878 27.1918H358.337C359.617 22.2755 363.456 19.0429 368.574 19.0429ZM392.545 47.5306H399.279V33.3878H415.106V47.5306H421.84V13.8571H415.106V27.3265H399.279V13.8571H392.545V47.5306ZM430.295 47.5306H437.029L453.529 23.5551V47.5306H460.264V13.8571H453.529L437.029 37.8327V13.8571H430.295V47.5306ZM474.494 47.5306L483.855 35.6102H489.445V47.5306H496.179V13.8571H481.43C472.339 13.8571 468.298 19.5143 468.298 25.1714C468.298 29.9531 471.194 33.4551 476.716 34.7347L466.412 47.5306H474.494ZM481.632 30.3571C477.188 30.3571 475.369 27.798 475.369 25.1714C475.369 22.2082 477.188 19.851 481.296 19.851H489.445V30.3571H481.632Z" fill="#191919"/>
</svg>
