<svg width="541" height="125" viewBox="0 0 541 125" fill="none" xmlns="http://www.w3.org/2000/svg">
<g id="&#208;&#147;&#208;&#184;&#208;&#191;&#208;&#181;&#209;&#128;&#208;&#188;&#208;&#176;&#209;&#128;&#208;&#186;&#208;&#181;&#209;&#130;&#209;&#139; &#194;&#171;&#208;&#144;&#208;&#183;&#208;&#177;&#209;&#131;&#208;&#186;&#208;&#176; &#208;&#188;&#208;&#176;&#209;&#128;&#208;&#186;&#208;&#181;&#209;&#130;&#194;&#187;">
<path d="M1.82819 47.666H8.88464V7.01293H32.7422V0.629395H1.82819V47.666Z" fill="white"/>
<path d="M31.5503 47.666H38.2708L54.7358 23.7445V47.666H61.4563V14.0684H54.7358L38.2708 37.9899V14.0684H31.5503V47.666Z" fill="white"/>
<path d="M69.9434 47.666H76.6639V20.116H91.7848V47.666H98.5052V14.0684H69.9434V47.666Z" fill="white"/>
<path d="M122.415 42.492C116.232 42.492 112.335 38.1915 111.864 32.0767H139.687C139.821 31.4048 139.888 30.6656 139.888 29.9937C139.888 20.7879 132.765 13.3965 122.415 13.3965C112.066 13.3965 104.942 21.0567 104.942 30.8672C104.942 41.0137 112.066 48.3379 122.415 48.3379C131.085 48.3379 136.663 44.3734 138.612 37.2507H132.16C130.816 40.3417 127.859 42.492 122.415 42.492ZM122.415 19.2424C127.859 19.2424 131.488 22.6022 132.698 27.3731H112.2C113.477 22.4678 117.308 19.2424 122.415 19.2424Z" fill="white"/>
<path d="M153.056 14.0684H146.336V61.105H153.056V40.1401C155.476 45.1126 160.045 48.3379 166.161 48.3379C175.502 48.3379 181.618 40.6105 181.618 30.8672C181.618 21.1239 175.368 13.3965 166.161 13.3965C160.045 13.3965 155.476 16.6218 153.056 21.5943V14.0684ZM163.809 19.444C170.126 19.444 174.562 23.8789 174.562 30.8672C174.562 37.8555 170.126 42.2904 163.809 42.2904C157.761 42.2904 153.056 37.6539 153.056 30.8672C153.056 24.1477 157.761 19.444 163.809 19.444Z" fill="white"/>
<path d="M188.076 47.666H194.46V21.9974L204.81 47.666H210.186L220.536 21.9974V47.666H227.256V14.0684H217.78L207.834 38.8634L197.821 14.0684H188.076V47.666Z" fill="white"/>
<path d="M256.825 26.6339V27.1715C241.435 27.1715 234.379 31.2704 234.379 38.9306C234.379 44.9782 238.344 48.3379 244.661 48.3379C251.583 48.3379 255.145 44.5078 256.825 39.6026V47.666H263.545V27.3059C263.545 17.9657 258.639 13.3965 249.567 13.3965C241.234 13.3965 235.992 17.4954 234.916 25.29H241.637C242.174 21.7959 244.863 19.444 249.567 19.444C254.137 19.444 256.825 21.7959 256.825 26.6339ZM241.435 38.5946C241.435 34.5629 245.736 32.0095 256.825 32.0095C256.825 37.7883 253.129 42.5592 246.207 42.5592C243.25 42.5592 241.435 41.1481 241.435 38.5946Z" fill="white"/>
<path d="M278.408 14.0684H271.688V61.105H278.408V40.1401C280.827 45.1126 285.397 48.3379 291.513 48.3379C300.854 48.3379 306.97 40.6105 306.97 30.8672C306.97 21.1239 300.72 13.3965 291.513 13.3965C285.397 13.3965 280.827 16.6218 278.408 21.5943V14.0684ZM289.161 19.444C295.478 19.444 299.913 23.8789 299.913 30.8672C299.913 37.8555 295.478 42.2904 289.161 42.2904C283.112 42.2904 278.408 37.6539 278.408 30.8672C278.408 24.1477 283.112 19.444 289.161 19.444Z" fill="white"/>
<path d="M313.428 47.666H320.148V31.8751L335.135 47.666H344.207L327.339 30.0609L342.93 14.0684H334.866L320.148 29.1873V14.0684H313.428V47.666Z" fill="white"/>
<path d="M362.421 42.492C356.238 42.492 352.341 38.1915 351.87 32.0767H379.693C379.827 31.4048 379.894 30.6656 379.894 29.9937C379.894 20.7879 372.771 13.3965 362.421 13.3965C352.072 13.3965 344.948 21.0567 344.948 30.8672C344.948 41.0137 352.072 48.3379 362.421 48.3379C371.091 48.3379 376.669 44.3734 378.618 37.2507H372.166C370.822 40.3417 367.865 42.492 362.421 42.492ZM362.421 19.2424C367.865 19.2424 371.494 22.6022 372.704 27.3731H352.206C353.483 22.4678 357.314 19.2424 362.421 19.2424Z" fill="white"/>
<path d="M394.691 47.666H401.411V20.116H413.105V14.0684H382.997V20.116H394.691V47.666Z" fill="white"/>
<path d="M418.894 47.666H433.612C442.684 47.666 446.716 41.82 446.716 36.0412C446.716 30.1952 442.684 24.6181 433.612 24.6181H425.614V14.0684H418.894V47.666ZM451.219 47.666H457.94V14.0684H451.219V47.666ZM433.41 30.5312C437.846 30.5312 439.66 33.219 439.66 36.0412C439.66 39.1994 437.846 41.6856 433.746 41.6856H425.614V30.5312H433.41Z" fill="white"/>
<path d="M17.2852 102.968L8.07819 93.2915L17.2852 83.6154L12.9169 79.9196L0.0136719 93.5602L12.9169 107.134L17.2852 102.968ZM31.7341 102.968L22.5271 93.2915L31.7341 83.6154L27.3658 79.9196L14.4626 93.5602L27.3658 107.134L31.7341 102.968Z" fill="white"/>
<path d="M35.6593 110.829H42.5813L47.5544 97.7263H66.9093L71.9496 110.829H79.342L61.1969 63.7928H53.8044L35.6593 110.829ZM49.9066 91.6788L57.1646 72.5282L64.5571 91.6788H49.9066Z" fill="white"/>
<path d="M96.7585 111.501C107.108 111.501 111.409 106.529 111.409 101.086C111.409 97.3232 108.721 94.2994 104.42 93.3587C108.25 92.3507 110.334 89.4613 110.334 86.0344C110.334 80.9276 106.234 76.5599 96.8257 76.5599C88.2907 76.5599 82.9144 80.9948 82.2423 87.9158H89.2316C89.8364 85.1609 91.6509 82.6074 96.6913 82.6074C101.194 82.6074 103.277 84.6233 103.277 87.1095C103.277 89.5285 101.732 91.1412 96.9601 91.1412H92.323V96.8528H97.9681C102.605 96.8528 104.353 98.5999 104.353 100.885C104.353 103.304 102.807 105.454 96.7585 105.454C91.6509 105.454 89.366 103.304 88.5595 99.8094H81.5703C82.2423 106.73 86.9466 111.501 96.7585 111.501Z" fill="white"/>
<path d="M134.243 111.501C144.928 111.501 152.052 104.043 152.052 94.7026C152.052 85.4968 146.205 77.971 136.662 77.971C130.345 77.971 125.17 81.5995 122.952 86.8407C123.221 76.8287 126.178 72.5954 137.603 71.1171C144.525 70.2435 149.229 68.8324 150.305 62.4489H143.987C143.517 64.1288 141.098 64.6663 136.528 65.2039C122.415 66.8838 116.501 73.8721 116.501 90.1333C116.501 95.9121 117.24 100.481 119.458 103.908C122.079 108.074 127.388 111.501 134.243 111.501ZM134.243 105.454C127.993 105.454 123.557 101.019 123.557 94.7026C123.557 88.5206 127.993 84.0185 134.243 84.0185C140.56 84.0185 144.995 88.5206 144.995 94.7026C144.995 101.019 140.56 105.454 134.243 105.454Z" fill="white"/>
<path d="M172.815 112.576L187.063 77.2318H180.544L170.665 102.296L160.651 77.2318H153.461L167.036 110.964C164.885 116.944 163.541 118.221 156.485 118.221V124.268C166.565 124.268 169.186 121.648 172.815 112.576Z" fill="white"/>
<path d="M191.489 110.829H198.209V95.0385L213.196 110.829H222.268L205.4 93.2243L220.991 77.2318H212.927L198.209 92.3507V77.2318H191.489V110.829Z" fill="white"/>
<path d="M246.127 89.7973V90.3349C230.738 90.3349 223.681 94.4338 223.681 102.094C223.681 108.142 227.646 111.501 233.963 111.501C240.885 111.501 244.447 107.671 246.127 102.766V110.829H252.848V90.4693C252.848 81.1291 247.942 76.5599 238.869 76.5599C230.536 76.5599 225.294 80.6588 224.219 88.4534H230.939C231.477 84.9593 234.165 82.6074 238.869 82.6074C243.439 82.6074 246.127 84.9593 246.127 89.7973ZM230.738 101.758C230.738 97.7263 235.039 95.1729 246.127 95.1729C246.127 100.952 242.431 105.723 235.509 105.723C232.552 105.723 230.738 104.311 230.738 101.758Z" fill="white"/>
<path d="M276.872 110.829H283.257V85.1609L293.606 110.829H298.983L309.332 85.1609V110.829H316.052V77.2318H306.577L296.63 102.027L286.617 77.2318H276.872V110.829Z" fill="white"/>
<path d="M345.621 89.7973V90.3349C330.231 90.3349 323.175 94.4338 323.175 102.094C323.175 108.142 327.14 111.501 333.457 111.501C340.379 111.501 343.941 107.671 345.621 102.766V110.829H352.342V90.4693C352.342 81.1291 347.436 76.5599 338.363 76.5599C330.03 76.5599 324.788 80.6588 323.713 88.4534H330.433C330.971 84.9593 333.659 82.6074 338.363 82.6074C342.933 82.6074 345.621 84.9593 345.621 89.7973ZM330.231 101.758C330.231 97.7263 334.533 95.1729 345.621 95.1729C345.621 100.952 341.925 105.723 335.003 105.723C332.046 105.723 330.231 104.311 330.231 101.758Z" fill="white"/>
<path d="M367.204 77.2318H360.484V124.268H367.204V103.304C369.624 108.276 374.194 111.501 380.309 111.501C389.651 111.501 395.766 103.774 395.766 94.0306C395.766 84.2873 389.516 76.5599 380.309 76.5599C374.194 76.5599 369.624 79.7852 367.204 84.7577V77.2318ZM377.957 82.6074C384.274 82.6074 388.71 87.0423 388.71 94.0306C388.71 101.019 384.274 105.454 377.957 105.454C371.909 105.454 367.204 100.817 367.204 94.0306C367.204 87.3111 371.909 82.6074 377.957 82.6074Z" fill="white"/>
<path d="M402.224 110.829H408.945V95.0385L423.931 110.829H433.004L416.135 93.2243L431.727 77.2318H423.662L408.945 92.3507V77.2318H402.224V110.829Z" fill="white"/>
<path d="M451.218 105.655C445.035 105.655 441.137 101.355 440.667 95.2401H468.489C468.624 94.5682 468.691 93.829 468.691 93.1571C468.691 83.9513 461.567 76.5599 451.218 76.5599C440.868 76.5599 433.744 84.2201 433.744 94.0306C433.744 104.177 440.868 111.501 451.218 111.501C459.887 111.501 465.465 107.537 467.414 100.414H460.962C459.618 103.505 456.661 105.655 451.218 105.655ZM451.218 82.4059C456.661 82.4059 460.29 85.7656 461.5 90.5365H441.003C442.279 85.6312 446.11 82.4059 451.218 82.4059Z" fill="white"/>
<path d="M483.487 110.829H490.208V83.2794H501.901V77.2318H471.794V83.2794H483.487V110.829Z" fill="white"/>
<path d="M522.811 84.0857L532.018 93.7618L522.811 103.438L527.179 107.134L540.083 93.493L527.179 79.9196L522.811 84.0857ZM508.362 84.0857L517.569 93.7618L508.362 103.438L512.731 107.134L525.634 93.493L512.731 79.9196L508.362 84.0857Z" fill="white"/>
</g>
</svg>
