<svg width="408" height="125" viewBox="0 0 408 125" fill="none" xmlns="http://www.w3.org/2000/svg">
<g id="&#208;&#160;&#208;&#181;&#209;&#129;&#209;&#130;&#208;&#190;&#209;&#128;&#208;&#176;&#208;&#189;&#208;&#189;&#208;&#176;&#209;&#143; &#209;&#129;&#208;&#187;&#209;&#131;&#208;&#182;&#208;&#177;&#208;&#176;">
<path d="M22.2498 29.0529C33.3385 29.0529 37.7068 22.1318 37.7068 14.8076C37.7068 7.81927 33.3385 0.629395 22.2498 0.629395H2.82774V47.666H9.88419V29.0529H22.2498ZM22.0482 6.87854C27.7605 6.87854 30.3143 10.3727 30.3143 14.8076C30.3143 18.9065 27.8277 22.8038 21.7121 22.8038H9.88419V6.87854H22.0482Z" fill="white"/>
<path d="M58.5732 42.492C52.3904 42.492 48.4925 38.1915 48.0221 32.0767H75.8447C75.9791 31.4048 76.0463 30.6656 76.0463 29.9937C76.0463 20.7879 68.9226 13.3965 58.5732 13.3965C48.2237 13.3965 41.1001 21.0567 41.1001 30.8672C41.1001 41.0137 48.2237 48.3379 58.5732 48.3379C67.2425 48.3379 72.8205 44.3734 74.7694 37.2507H68.3178C66.9737 40.3417 64.0167 42.492 58.5732 42.492ZM58.5732 19.2424C64.0167 19.2424 67.6458 22.6022 68.8554 27.3731H48.3581C49.635 22.4678 53.4657 19.2424 58.5732 19.2424Z" fill="white"/>
<path d="M97.8163 42.2904C91.7679 42.2904 87.534 37.7883 87.534 30.8672C87.534 24.0133 91.6335 19.444 97.8163 19.444C102.789 19.444 105.679 21.8631 106.956 26.1635H113.677C112.4 18.3017 106.687 13.3965 97.8163 13.3965C87.534 13.3965 80.4776 21.1911 80.4776 30.8672C80.4776 40.6105 87.534 48.3379 97.9507 48.3379C106.486 48.3379 112.332 43.7687 113.945 35.2349H107.225C106.015 39.9385 102.789 42.2904 97.8163 42.2904Z" fill="white"/>
<path d="M128.776 47.666H135.497V20.116H147.19V14.0684H117.083V20.116H128.776V47.666Z" fill="white"/>
<path d="M167.46 48.3379C177.877 48.3379 185.269 40.6105 185.269 30.8672C185.269 21.1239 177.877 13.3965 167.46 13.3965C157.043 13.3965 149.651 21.1239 149.651 30.8672C149.651 40.6105 157.043 48.3379 167.46 48.3379ZM167.46 42.2904C161.075 42.2904 156.707 37.2507 156.707 30.8672C156.707 24.4837 161.075 19.444 167.46 19.444C173.844 19.444 178.213 24.4837 178.213 30.8672C178.213 37.2507 173.844 42.2904 167.46 42.2904Z" fill="white"/>
<path d="M198.421 14.0684H191.701V61.105H198.421V40.1401C200.84 45.1126 205.41 48.3379 211.526 48.3379C220.867 48.3379 226.983 40.6105 226.983 30.8672C226.983 21.1239 220.733 13.3965 211.526 13.3965C205.41 13.3965 200.84 16.6218 198.421 21.5943V14.0684ZM209.174 19.444C215.491 19.444 219.927 23.8789 219.927 30.8672C219.927 37.8555 215.491 42.2904 209.174 42.2904C203.125 42.2904 198.421 37.6539 198.421 30.8672C198.421 24.1477 203.125 19.444 209.174 19.444Z" fill="white"/>
<path d="M254.215 26.6339V27.1715C238.825 27.1715 231.769 31.2704 231.769 38.9306C231.769 44.9782 235.734 48.3379 242.051 48.3379C248.973 48.3379 252.535 44.5078 254.215 39.6026V47.666H260.935V27.3059C260.935 17.9657 256.029 13.3965 246.957 13.3965C238.623 13.3965 233.382 17.4954 232.306 25.29H239.027C239.564 21.7959 242.253 19.444 246.957 19.444C251.527 19.444 254.215 21.7959 254.215 26.6339ZM238.825 38.5946C238.825 34.5629 243.126 32.0095 254.215 32.0095C254.215 37.7883 250.519 42.5592 243.597 42.5592C240.64 42.5592 238.825 41.1481 238.825 38.5946Z" fill="white"/>
<path d="M269.078 47.666H275.798V33.555H291.591V47.666H298.311V14.0684H291.591V27.5074H275.798V14.0684H269.078V47.666Z" fill="white"/>
<path d="M306.749 47.666H313.469V33.555H329.262V47.666H335.983V14.0684H329.262V27.5074H313.469V14.0684H306.749V47.666Z" fill="white"/>
<path d="M365.522 26.6339V27.1715C350.132 27.1715 343.076 31.2704 343.076 38.9306C343.076 44.9782 347.041 48.3379 353.358 48.3379C360.28 48.3379 363.842 44.5078 365.522 39.6026V47.666H372.242V27.3059C372.242 17.9657 367.337 13.3965 358.264 13.3965C349.931 13.3965 344.689 17.4954 343.613 25.29H350.334C350.871 21.7959 353.56 19.444 358.264 19.444C362.834 19.444 365.522 21.7959 365.522 26.6339ZM350.132 38.5946C350.132 34.5629 354.433 32.0095 365.522 32.0095C365.522 37.7883 361.826 42.5592 354.904 42.5592C351.947 42.5592 350.132 41.1481 350.132 38.5946Z" fill="white"/>
<path d="M386.097 47.666L395.438 35.7724H401.016V47.666H407.737V14.0684H393.019C383.946 14.0684 379.914 19.7128 379.914 25.3572C379.914 30.1281 382.804 33.6222 388.315 34.8989L378.033 47.666H386.097ZM393.221 30.5312C388.785 30.5312 386.971 27.9778 386.971 25.3572C386.971 22.4006 388.785 20.0488 392.885 20.0488H401.016V30.5312H393.221Z" fill="white"/>
<path d="M17.8143 105.454C11.7659 105.454 7.53204 100.952 7.53204 94.0306C7.53204 87.1767 11.6315 82.6074 17.8143 82.6074C22.7874 82.6074 25.6772 85.0265 26.9541 89.327H33.6745C32.3976 81.4651 26.6853 76.5599 17.8143 76.5599C7.53204 76.5599 0.475586 84.3545 0.475586 94.0306C0.475586 103.774 7.53204 111.501 17.9487 111.501C26.4837 111.501 32.3304 106.932 33.9433 98.3983H27.2229C26.0132 103.102 22.7874 105.454 17.8143 105.454Z" fill="white"/>
<path d="M42.8012 94.0306C42.6668 102.363 41.7259 104.782 36.7528 104.782V111.501C45.9598 111.501 48.7824 106.932 49.1184 94.165L49.3872 83.2794H61.6184V110.829H68.3388V77.2318H43.1372L42.8012 94.0306Z" fill="white"/>
<path d="M92.1066 112.576L106.354 77.2318H99.8351L89.956 102.296L79.9426 77.2318H72.7517L86.327 110.964C84.1764 116.944 82.8324 118.221 75.7759 118.221V124.268C85.8566 124.268 88.4775 121.648 92.1066 112.576Z" fill="white"/>
<path d="M128.47 110.829H135.191V95.1057L149.505 110.829H158.376L142.247 93.2243L157.099 77.2318H149.237L135.191 92.3507V77.2318H128.47V92.3507L114.425 77.2318H106.226L121.414 93.5602L105.621 110.829H114.156L128.47 95.1057V110.829Z" fill="white"/>
<path d="M178.098 111.501C188.784 111.501 195.907 104.043 195.907 94.7026C195.907 85.4968 190.061 77.971 180.517 77.971C174.2 77.971 169.026 81.5995 166.808 86.8407C167.077 76.8287 170.034 72.5954 181.458 71.1171C188.38 70.2435 193.085 68.8324 194.16 62.4489H187.843C187.372 64.1288 184.953 64.6663 180.383 65.2039C166.27 66.8838 160.356 73.8721 160.356 90.1333C160.356 95.9121 161.095 100.481 163.313 103.908C165.934 108.074 171.243 111.501 178.098 111.501ZM178.098 105.454C171.848 105.454 167.413 101.019 167.413 94.7026C167.413 88.5206 171.848 84.0185 178.098 84.0185C184.415 84.0185 188.851 88.5206 188.851 94.7026C188.851 101.019 184.415 105.454 178.098 105.454Z" fill="white"/>
<path d="M222.45 89.7973V90.3349C207.061 90.3349 200.004 94.4338 200.004 102.094C200.004 108.142 203.969 111.501 210.286 111.501C217.208 111.501 220.77 107.671 222.45 102.766V110.829H229.171V90.4693C229.171 81.1291 224.265 76.5599 215.192 76.5599C206.859 76.5599 201.617 80.6588 200.542 88.4534H207.262C207.8 84.9593 210.488 82.6074 215.192 82.6074C219.762 82.6074 222.45 84.9593 222.45 89.7973ZM207.061 101.758C207.061 97.7263 211.362 95.1729 222.45 95.1729C222.45 100.952 218.754 105.723 211.832 105.723C208.875 105.723 207.061 104.311 207.061 101.758Z" fill="white"/>
</g>
</svg>
