<svg width="444" height="125" viewBox="0 0 444 125" fill="none" xmlns="http://www.w3.org/2000/svg">
<g id="&#208;&#154;&#209;&#131;&#208;&#187;&#208;&#184;&#208;&#189;&#208;&#176;&#209;&#128;&#208;&#189;&#208;&#190;&#208;&#181; &#208;&#191;&#209;&#128;&#208;&#190;&#208;&#184;&#208;&#183;&#208;&#178;&#208;&#190;&#208;&#180;&#209;&#129;&#209;&#130;&#208;&#178;&#208;&#190;">
<path d="M0.827721 47.6655H7.88417V25.1551L29.5912 47.6655H38.9998L15.4111 23.3409L37.7229 0.628906H29.3223L7.88417 22.4673V0.628906H0.827721V47.6655Z" fill="white"/>
<path d="M55.5199 49.4126L69.7673 14.0679H63.2484L53.3694 39.1317L43.356 14.0679H36.1651L49.7404 47.7999C47.5898 53.7802 46.2458 55.057 39.1893 55.057V61.1045C49.2699 61.1045 51.8909 58.4839 55.5199 49.4126Z" fill="white"/>
<path d="M75.1909 30.8667C75.0564 39.1989 74.1156 41.6179 69.1425 41.6179V48.3374C78.3495 48.3374 81.172 43.7682 81.5081 31.0011L81.7769 20.1155H94.0081V47.6655H100.728V14.0679H75.5269L75.1909 30.8667Z" fill="white"/>
<path d="M109.174 47.6655H115.894L132.359 23.744V47.6655H139.08V14.0679H132.359L115.894 37.9894V14.0679H109.174V47.6655Z" fill="white"/>
<path d="M147.567 47.6655H154.287V33.5545H170.08V47.6655H176.801V14.0679H170.08V27.507H154.287V14.0679H147.567V47.6655Z" fill="white"/>
<path d="M206.34 26.6334V27.171C190.95 27.171 183.894 31.2699 183.894 38.9301C183.894 44.9777 187.859 48.3374 194.176 48.3374C201.098 48.3374 204.66 44.5073 206.34 39.6021V47.6655H213.061V27.3054C213.061 17.9652 208.155 13.396 199.082 13.396C190.749 13.396 185.507 17.4949 184.431 25.2895H191.152C191.69 21.7954 194.378 19.4435 199.082 19.4435C203.652 19.4435 206.34 21.7954 206.34 26.6334ZM190.95 38.5942C190.95 34.5624 195.251 32.009 206.34 32.009C206.34 37.7878 202.644 42.5587 195.722 42.5587C192.765 42.5587 190.95 41.1476 190.95 38.5942Z" fill="white"/>
<path d="M227.923 14.0679H221.203V61.1045H227.923V40.1396C230.342 45.1121 234.912 48.3374 241.028 48.3374C250.369 48.3374 256.485 40.61 256.485 30.8667C256.485 21.1234 250.235 13.396 241.028 13.396C234.912 13.396 230.342 16.6213 227.923 21.5938V14.0679ZM238.676 19.4435C244.993 19.4435 249.429 23.8784 249.429 30.8667C249.429 37.855 244.993 42.2899 238.676 42.2899C232.627 42.2899 227.923 37.6534 227.923 30.8667C227.923 24.1472 232.627 19.4435 238.676 19.4435Z" fill="white"/>
<path d="M262.943 47.6655H269.663V33.5545H285.456V47.6655H292.177V14.0679H285.456V27.507H269.663V14.0679H262.943V47.6655Z" fill="white"/>
<path d="M316.407 48.3374C326.824 48.3374 334.216 40.61 334.216 30.8667C334.216 21.1234 326.824 13.396 316.407 13.396C305.99 13.396 298.598 21.1234 298.598 30.8667C298.598 40.61 305.99 48.3374 316.407 48.3374ZM316.407 42.2899C310.023 42.2899 305.654 37.2502 305.654 30.8667C305.654 24.4832 310.023 19.4435 316.407 19.4435C322.791 19.4435 327.16 24.4832 327.16 30.8667C327.16 37.2502 322.791 42.2899 316.407 42.2899Z" fill="white"/>
<path d="M356.105 42.4915C349.922 42.4915 346.024 38.191 345.554 32.0762H373.376C373.511 31.4043 373.578 30.6651 373.578 29.9932C373.578 20.7874 366.454 13.396 356.105 13.396C345.755 13.396 338.632 21.0562 338.632 30.8667C338.632 41.0132 345.755 48.3374 356.105 48.3374C364.774 48.3374 370.352 44.3729 372.301 37.2502H365.849C364.505 40.3412 361.548 42.4915 356.105 42.4915ZM356.105 19.242C361.548 19.242 365.177 22.6017 366.387 27.3726H345.89C347.167 22.4673 350.997 19.242 356.105 19.242Z" fill="white"/>
<path d="M0.491699 110.829H7.21213V83.2789H22.3331V110.829H29.0535V77.2313H0.491699V110.829Z" fill="white"/>
<path d="M44.227 77.2313H37.5066V124.268H44.227V103.303C46.6464 108.275 51.2162 111.501 57.3318 111.501C66.6732 111.501 72.7888 103.773 72.7888 94.0301C72.7888 84.2868 66.5388 76.5594 57.3318 76.5594C51.2162 76.5594 46.6464 79.7848 44.227 84.7572V77.2313ZM54.9797 82.607C61.2969 82.607 65.7324 87.0418 65.7324 94.0301C65.7324 101.018 61.2969 105.453 54.9797 105.453C48.9313 105.453 44.227 100.817 44.227 94.0301C44.227 87.3106 48.9313 82.607 54.9797 82.607Z" fill="white"/>
<path d="M95.0397 111.501C105.456 111.501 112.849 103.773 112.849 94.0301C112.849 84.2868 105.456 76.5594 95.0397 76.5594C84.6231 76.5594 77.2306 84.2868 77.2306 94.0301C77.2306 103.773 84.6231 111.501 95.0397 111.501ZM95.0397 105.453C88.6553 105.453 84.2871 100.414 84.2871 94.0301C84.2871 87.6466 88.6553 82.607 95.0397 82.607C101.424 82.607 105.792 87.6466 105.792 94.0301C105.792 100.414 101.424 105.453 95.0397 105.453Z" fill="white"/>
<path d="M119.281 110.829H126.001L142.466 86.9074V110.829H149.186V77.2313H142.466L126.001 101.153V77.2313H119.281V110.829Z" fill="white"/>
<path d="M170.51 111.501C180.859 111.501 185.16 106.528 185.16 101.086C185.16 97.3227 182.472 94.2989 178.171 93.3582C182.002 92.3502 184.085 89.4609 184.085 86.0339C184.085 80.9271 179.985 76.5594 170.577 76.5594C162.042 76.5594 156.666 80.9943 155.994 87.9154H162.983C163.588 85.1604 165.402 82.607 170.442 82.607C174.945 82.607 177.028 84.6228 177.028 87.109C177.028 89.528 175.483 91.1407 170.711 91.1407H166.074V96.8523H171.719C176.356 96.8523 178.104 98.5994 178.104 100.884C178.104 103.303 176.558 105.453 170.51 105.453C165.402 105.453 163.117 103.303 162.311 99.8089H155.321C155.994 106.73 160.698 111.501 170.51 111.501Z" fill="white"/>
<path d="M191.932 110.829H207.994C217.201 110.829 220.158 105.991 220.158 101.422C220.158 96.9195 217.134 94.3661 212.228 93.5598C216.529 92.4174 218.679 89.4609 218.679 85.9667C218.679 80.3895 214.58 77.2313 207.12 77.2313H191.932V110.829ZM206.784 91.2079H198.518V82.9429H206.784C210.279 82.9429 211.757 84.7572 211.757 87.109C211.757 89.3937 210.279 91.2079 206.784 91.2079ZM207.255 96.5835C211.623 96.5835 213.101 98.5994 213.101 100.75C213.101 103.169 211.623 105.117 207.591 105.117H198.518V96.5835H207.255Z" fill="white"/>
<path d="M242.115 111.501C252.531 111.501 259.924 103.773 259.924 94.0301C259.924 84.2868 252.531 76.5594 242.115 76.5594C231.698 76.5594 224.306 84.2868 224.306 94.0301C224.306 103.773 231.698 111.501 242.115 111.501ZM242.115 105.453C235.73 105.453 231.362 100.414 231.362 94.0301C231.362 87.6466 235.73 82.607 242.115 82.607C248.499 82.607 252.868 87.6466 252.868 94.0301C252.868 100.414 248.499 105.453 242.115 105.453Z" fill="white"/>
<path d="M262.675 118.22H269.06V110.829H293.656V118.22H300.041V104.781H295.336V77.2313H269.597V81.0615C269.597 95.5756 268.253 101.489 266.842 104.781H262.675V118.22ZM273.495 104.781C274.705 101.69 275.78 96.9195 275.914 83.2789H288.616V104.781H273.495Z" fill="white"/>
<path d="M320.793 105.453C314.745 105.453 310.511 100.951 310.511 94.0301C310.511 87.1762 314.61 82.607 320.793 82.607C325.766 82.607 328.656 85.026 329.933 89.3265H336.653C335.377 81.4646 329.664 76.5594 320.793 76.5594C310.511 76.5594 303.454 84.354 303.454 94.0301C303.454 103.773 310.511 111.501 320.928 111.501C329.463 111.501 335.309 106.932 336.922 98.3978H330.202C328.992 103.101 325.766 105.453 320.793 105.453Z" fill="white"/>
<path d="M351.753 110.829H358.474V83.2789H370.167V77.2313H340.06V83.2789H351.753V110.829Z" fill="white"/>
<path d="M375.956 110.829H392.018C401.225 110.829 404.182 105.991 404.182 101.422C404.182 96.9195 401.158 94.3661 396.252 93.5598C400.553 92.4174 402.704 89.4609 402.704 85.9667C402.704 80.3895 398.604 77.2313 391.145 77.2313H375.956V110.829ZM390.809 91.2079H382.542V82.9429H390.809C394.303 82.9429 395.782 84.7572 395.782 87.109C395.782 89.3937 394.303 91.2079 390.809 91.2079ZM391.279 96.5835C395.647 96.5835 397.126 98.5994 397.126 100.75C397.126 103.169 395.647 105.117 391.615 105.117H382.542V96.5835H391.279Z" fill="white"/>
<path d="M426.139 111.501C436.556 111.501 443.948 103.773 443.948 94.0301C443.948 84.2868 436.556 76.5594 426.139 76.5594C415.722 76.5594 408.33 84.2868 408.33 94.0301C408.33 103.773 415.722 111.501 426.139 111.501ZM426.139 105.453C419.755 105.453 415.386 100.414 415.386 94.0301C415.386 87.6466 419.755 82.607 426.139 82.607C432.523 82.607 436.892 87.6466 436.892 94.0301C436.892 100.414 432.523 105.453 426.139 105.453Z" fill="white"/>
</g>
</svg>
