<svg width="339" height="126" viewBox="0 0 339 126" fill="none" xmlns="http://www.w3.org/2000/svg">
<g id="&#208;&#161;&#208;&#176;&#208;&#189;&#208;&#186;&#209;&#130;-&#208;&#159;&#208;&#181;&#209;&#130;&#208;&#181;&#209;&#128;&#208;&#177;&#209;&#131;&#209;&#128;&#208;&#179;">
<path d="M46.4437 16.4119C43.89 5.39191 35.6911 0.957031 24.6695 0.957031C10.7582 0.957031 0.812012 10.9691 0.812012 25.1473C0.812012 39.3254 10.7582 49.3375 24.6695 49.3375C36.7663 49.3375 44.0916 44.0291 47.0486 33.1435H39.3873C36.9007 39.7958 32.7341 42.954 24.6695 42.954C14.9249 42.954 8.20449 35.7641 8.20449 25.1473C8.20449 14.5304 14.9249 7.34057 24.6695 7.34057C31.726 7.34057 36.5647 10.4315 38.5808 16.4119H46.4437Z" fill="white"/>
<path d="M74.26 27.6335V28.1711C58.8702 28.1711 51.8138 32.27 51.8138 39.9302C51.8138 45.9778 55.7788 49.3375 62.096 49.3375C69.0181 49.3375 72.5799 45.5074 74.26 40.6022V48.6656H80.9805V28.3054C80.9805 18.9653 76.0745 14.3961 67.002 14.3961C58.6686 14.3961 53.4267 18.495 52.3514 26.2896H59.0718C59.6095 22.7954 62.2977 20.4436 67.002 20.4436C71.5718 20.4436 74.26 22.7954 74.26 27.6335ZM58.8702 39.5942C58.8702 35.5625 63.1713 33.0091 74.26 33.0091C74.26 38.7879 70.5638 43.5587 63.6417 43.5587C60.6847 43.5587 58.8702 42.1476 58.8702 39.5942Z" fill="white"/>
<path d="M89.1227 48.6656H95.8431V34.5546H111.636V48.6656H118.357V15.068H111.636V28.507H95.8431V15.068H89.1227V48.6656Z" fill="white"/>
<path d="M126.794 48.6656H133.514V32.8747L148.501 48.6656H157.573L140.705 31.0604L156.297 15.068H148.232L133.514 30.1869V15.068H126.794V48.6656Z" fill="white"/>
<path d="M169.992 48.6656H176.712V21.1156H188.406V15.068H158.298V21.1156H169.992V48.6656Z" fill="white"/>
<path d="M214.002 34.5546V28.507H191.488V34.5546H214.002Z" fill="white"/>
<path d="M2.82814 111.829H9.88459V71.1759H33.0701V111.829H40.1265V64.7924H2.82814V111.829Z" fill="white"/>
<path d="M64.4146 106.655C58.2318 106.655 54.3339 102.354 53.8635 96.2397H81.6861C81.8205 95.5678 81.8877 94.8286 81.8877 94.1567C81.8877 84.9509 74.7641 77.5595 64.4146 77.5595C54.0651 77.5595 46.9415 85.2197 46.9415 95.0302C46.9415 105.177 54.0651 112.501 64.4146 112.501C73.0839 112.501 78.6619 108.536 80.6108 101.414H74.1592C72.8151 104.505 69.8581 106.655 64.4146 106.655ZM64.4146 83.4054C69.8581 83.4054 73.4872 86.7652 74.6968 91.536H54.1995C55.4764 86.6308 59.3071 83.4054 64.4146 83.4054Z" fill="white"/>
<path d="M96.6842 111.829H103.405V84.279H115.098V78.2314H84.9907V84.279H96.6842V111.829Z" fill="white"/>
<path d="M135.032 106.655C128.849 106.655 124.951 102.354 124.481 96.2397H152.303C152.438 95.5678 152.505 94.8286 152.505 94.1567C152.505 84.9509 145.381 77.5595 135.032 77.5595C124.682 77.5595 117.558 85.2197 117.558 95.0302C117.558 105.177 124.682 112.501 135.032 112.501C143.701 112.501 149.279 108.536 151.228 101.414H144.776C143.432 104.505 140.475 106.655 135.032 106.655ZM135.032 83.4054C140.475 83.4054 144.104 86.7652 145.314 91.536H124.817C126.093 86.6308 129.924 83.4054 135.032 83.4054Z" fill="white"/>
<path d="M165.673 78.2314H158.952V125.268H165.673V104.303C168.092 109.276 172.662 112.501 178.777 112.501C188.119 112.501 194.234 104.773 194.234 95.0302C194.234 85.2869 187.984 77.5595 178.777 77.5595C172.662 77.5595 168.092 80.7848 165.673 85.7573V78.2314ZM176.425 83.607C182.742 83.607 187.178 88.0419 187.178 95.0302C187.178 102.018 182.742 106.453 176.425 106.453C170.377 106.453 165.673 101.817 165.673 95.0302C165.673 88.3107 170.377 83.607 176.425 83.607Z" fill="white"/>
<path d="M216.754 112.501C227.44 112.501 234.563 105.042 234.563 95.7021C234.563 86.4964 228.717 78.9706 219.174 78.9706C212.856 78.9706 207.682 82.5991 205.464 87.8403C205.733 77.8282 208.69 73.595 220.114 72.1167C227.036 71.2431 231.741 69.832 232.816 63.4485H226.499C226.028 65.1284 223.609 65.6659 219.039 66.2035C204.926 67.8834 199.012 74.8717 199.012 91.1329C199.012 96.9117 199.751 101.481 201.969 104.908C204.59 109.074 209.899 112.501 216.754 112.501ZM216.754 106.453C210.504 106.453 206.069 102.018 206.069 95.7021C206.069 89.5202 210.504 85.0181 216.754 85.0181C223.071 85.0181 227.507 89.5202 227.507 95.7021C227.507 102.018 223.071 106.453 216.754 106.453Z" fill="white"/>
<path d="M255.327 113.576L269.574 78.2314H263.055L253.176 103.295L243.163 78.2314H235.972L249.547 111.963C247.397 117.944 246.053 119.22 238.996 119.22V125.268C249.077 125.268 251.698 122.647 255.327 113.576Z" fill="white"/>
<path d="M280.721 78.2314H274V125.268H280.721V104.303C283.14 109.276 287.71 112.501 293.825 112.501C303.167 112.501 309.282 104.773 309.282 95.0302C309.282 85.2869 303.032 77.5595 293.825 77.5595C287.71 77.5595 283.14 80.7848 280.721 85.7573V78.2314ZM291.473 83.607C297.79 83.607 302.226 88.0419 302.226 95.0302C302.226 102.018 297.79 106.453 291.473 106.453C285.425 106.453 280.721 101.817 280.721 95.0302C280.721 88.3107 285.425 83.607 291.473 83.607Z" fill="white"/>
<path d="M315.74 111.829H322.461V84.279H338.455V78.2314H315.74V111.829Z" fill="white"/>
</g>
</svg>
