<svg width="327" height="119" viewBox="0 0 327 119" fill="none" xmlns="http://www.w3.org/2000/svg">
<g id="&#208;&#155;&#208;&#190;&#208;&#179;&#208;&#184;&#209;&#129;&#209;&#130;&#208;&#184;&#208;&#186;&#208;&#176; &#208;&#184;&#194;&#160;&#209;&#129;&#208;&#186;&#208;&#187;&#208;&#176;&#208;&#180;&#209;&#139;">
<path d="M7.86012 28.5149C7.72571 37.1831 6.44883 41.282 0.602051 41.282V48.3374C10.5483 48.3374 14.3789 42.4243 14.5805 28.6493L14.9166 6.87805H33.8682V47.6655H40.9246V0.628906H8.33055L7.86012 28.5149Z" fill="white"/>
<path d="M65.5534 48.3374C75.9701 48.3374 83.3626 40.61 83.3626 30.8667C83.3626 21.1234 75.9701 13.396 65.5534 13.396C55.1368 13.396 47.7443 21.1234 47.7443 30.8667C47.7443 40.61 55.1368 48.3374 65.5534 48.3374ZM65.5534 42.2899C59.169 42.2899 54.8007 37.2503 54.8007 30.8667C54.8007 24.4832 59.169 19.4435 65.5534 19.4435C71.9378 19.4435 76.3061 24.4832 76.3061 30.8667C76.3061 37.2503 71.9378 42.2899 65.5534 42.2899Z" fill="white"/>
<path d="M89.7942 47.6655H96.5147V20.1155H112.509V14.0679H89.7942V47.6655Z" fill="white"/>
<path d="M118.277 47.6655H124.998L141.463 23.744V47.6655H148.183V14.0679H141.463L124.998 37.9894V14.0679H118.277V47.6655Z" fill="white"/>
<path d="M171.993 42.2899C165.945 42.2899 161.711 37.7878 161.711 30.8667C161.711 24.0128 165.81 19.4435 171.993 19.4435C176.966 19.4435 179.856 21.8626 181.133 26.1631H187.853C186.576 18.3012 180.864 13.396 171.993 13.396C161.711 13.396 154.654 21.1906 154.654 30.8667C154.654 40.61 161.711 48.3374 172.127 48.3374C180.662 48.3374 186.509 43.7682 188.122 35.2344H181.402C180.192 39.9381 176.966 42.2899 171.993 42.2899Z" fill="white"/>
<path d="M202.953 47.6655H209.674V20.1155H221.367V14.0679H191.26V20.1155H202.953V47.6655Z" fill="white"/>
<path d="M227.156 47.6655H233.877L250.342 23.744V47.6655H257.062V14.0679H250.342L233.877 37.9894V14.0679H227.156V47.6655Z" fill="white"/>
<path d="M265.549 47.6655H272.27V31.8746L287.256 47.6655H296.329L279.461 30.0604L295.052 14.0679H286.987L272.27 29.1868V14.0679H265.549V47.6655Z" fill="white"/>
<path d="M320.188 26.6334V27.171C304.798 27.171 297.742 31.2699 297.742 38.9301C297.742 44.9777 301.707 48.3374 308.024 48.3374C314.946 48.3374 318.508 44.5073 320.188 39.6021V47.6655H326.908V27.3054C326.908 17.9653 322.002 13.396 312.93 13.396C304.596 13.396 299.355 17.4949 298.279 25.2895H305C305.537 21.7954 308.226 19.4435 312.93 19.4435C317.5 19.4435 320.188 21.7954 320.188 26.6334ZM304.798 38.5942C304.798 34.5624 309.099 32.009 320.188 32.009C320.188 37.7878 316.492 42.5587 309.57 42.5587C306.613 42.5587 304.798 41.1476 304.798 38.5942Z" fill="white"/>
<path d="M3.49184 110.829H10.2123L26.6773 86.9074V110.829H33.3978V77.2314H26.6773L10.2123 101.153V77.2314H3.49184V110.829Z" fill="white"/>
<path d="M73.0898 105.453C67.0414 105.453 62.8075 100.951 62.8075 94.0301C62.8075 87.1762 66.907 82.607 73.0898 82.607C78.0629 82.607 80.9527 85.026 82.2296 89.3265H88.95C87.6731 81.4646 81.9607 76.5594 73.0898 76.5594C62.8075 76.5594 55.7511 84.354 55.7511 94.0301C55.7511 103.773 62.8075 111.501 73.2242 111.501C81.7591 111.501 87.6059 106.932 89.2188 98.3978H82.4984C81.2887 103.101 78.0629 105.453 73.0898 105.453Z" fill="white"/>
<path d="M95.7009 110.829H102.421V95.0381L117.408 110.829H126.48L109.612 93.2238L125.204 77.2314H117.139L102.421 92.3503V77.2314H95.7009V110.829Z" fill="white"/>
<path d="M133.582 94.0301C133.448 102.362 132.507 104.781 127.534 104.781V111.501C136.741 111.501 139.563 106.932 139.899 94.1645L140.168 83.2789H152.399V110.829H159.12V77.2314H133.918L133.582 94.0301Z" fill="white"/>
<path d="M188.667 89.7968V90.3344C173.277 90.3344 166.221 94.4333 166.221 102.094C166.221 108.141 170.186 111.501 176.503 111.501C183.425 111.501 186.987 107.671 188.667 102.765V110.829H195.387V90.4688C195.387 81.1287 190.482 76.5594 181.409 76.5594C173.076 76.5594 167.834 80.6583 166.758 88.4529H173.479C174.016 84.9588 176.705 82.607 181.409 82.607C185.979 82.607 188.667 84.9588 188.667 89.7968ZM173.277 101.758C173.277 97.7259 177.578 95.1724 188.667 95.1724C188.667 100.951 184.971 105.722 178.049 105.722C175.092 105.722 173.277 104.311 173.277 101.758Z" fill="white"/>
<path d="M200.505 118.22H206.89V110.829H231.487V118.22H237.871V104.781H233.167V77.2314H207.427V81.0615C207.427 95.5756 206.083 101.489 204.672 104.781H200.505V118.22ZM211.325 104.781C212.535 101.69 213.61 96.9195 213.745 83.2789H226.446V104.781H211.325Z" fill="white"/>
<path d="M243.301 110.829H258.019C267.091 110.829 271.124 104.983 271.124 99.2041C271.124 93.3582 267.091 87.781 258.019 87.781H250.021V77.2314H243.301V110.829ZM275.626 110.829H282.347V77.2314H275.626V110.829ZM257.817 93.6942C262.253 93.6942 264.067 96.382 264.067 99.2041C264.067 102.362 262.253 104.849 258.153 104.849H250.021V93.6942H257.817Z" fill="white"/>
</g>
</svg>
