<svg width="451" height="125" viewBox="0 0 451 125" fill="none" xmlns="http://www.w3.org/2000/svg">
<g id="&#208;&#156;&#208;&#184;&#208;&#189;&#208;&#184;&#208;&#188;&#208;&#176;&#209;&#128;&#208;&#186;&#208;&#181;&#209;&#130;&#209;&#139; &#194;&#171;&#208;&#144;&#208;&#183;&#208;&#177;&#209;&#131;&#208;&#186;&#208;&#176; daily&#194;&#187;">
<path d="M1.82819 47.666H8.54862V8.62562L24.14 47.666H29.7852L45.3766 8.62562V47.666H52.433V0.629395H42.218L27.5002 37.5195L12.7825 0.629395H1.82819V47.666Z" fill="white"/>
<path d="M61.2147 47.666H67.9352L84.4002 23.7445V47.666H91.1207V14.0684H84.4002L67.9352 37.9899V14.0684H61.2147V47.666Z" fill="white"/>
<path d="M99.6078 47.666H106.328V33.555H122.121V47.666H128.842V14.0684H122.121V27.5074H106.328V14.0684H99.6078V47.666Z" fill="white"/>
<path d="M137.279 47.666H143.999L160.464 23.7445V47.666H167.185V14.0684H160.464L143.999 37.9899V14.0684H137.279V47.666Z" fill="white"/>
<path d="M175.672 47.666H182.056V21.9974L192.406 47.666H197.782L208.132 21.9974V47.666H214.852V14.0684H205.376L195.43 38.8634L185.417 14.0684H175.672V47.666Z" fill="white"/>
<path d="M244.421 26.6339V27.1715C229.031 27.1715 221.975 31.2704 221.975 38.9306C221.975 44.9782 225.94 48.3379 232.257 48.3379C239.179 48.3379 242.741 44.5078 244.421 39.6026V47.666H251.141V27.3059C251.141 17.9657 246.236 13.3965 237.163 13.3965C228.83 13.3965 223.588 17.4954 222.512 25.29H229.233C229.77 21.7959 232.459 19.444 237.163 19.444C241.733 19.444 244.421 21.7959 244.421 26.6339ZM229.031 38.5946C229.031 34.5629 233.332 32.0095 244.421 32.0095C244.421 37.7883 240.725 42.5592 233.803 42.5592C230.846 42.5592 229.031 41.1481 229.031 38.5946Z" fill="white"/>
<path d="M266.004 14.0684H259.284V61.105H266.004V40.1401C268.423 45.1126 272.993 48.3379 279.109 48.3379C288.45 48.3379 294.566 40.6105 294.566 30.8672C294.566 21.1239 288.316 13.3965 279.109 13.3965C272.993 13.3965 268.423 16.6218 266.004 21.5943V14.0684ZM276.757 19.444C283.074 19.444 287.509 23.8789 287.509 30.8672C287.509 37.8555 283.074 42.2904 276.757 42.2904C270.708 42.2904 266.004 37.6539 266.004 30.8672C266.004 24.1477 270.708 19.444 276.757 19.444Z" fill="white"/>
<path d="M301.024 47.666H307.744V31.8751L322.731 47.666H331.803L314.935 30.0609L330.527 14.0684H322.462L307.744 29.1873V14.0684H301.024V47.666Z" fill="white"/>
<path d="M350.017 42.492C343.835 42.492 339.937 38.1915 339.466 32.0767H367.289C367.423 31.4048 367.49 30.6656 367.49 29.9937C367.49 20.7879 360.367 13.3965 350.017 13.3965C339.668 13.3965 332.544 21.0567 332.544 30.8672C332.544 41.0137 339.668 48.3379 350.017 48.3379C358.687 48.3379 364.265 44.3734 366.214 37.2507H359.762C358.418 40.3417 355.461 42.492 350.017 42.492ZM350.017 19.2424C355.461 19.2424 359.09 22.6022 360.3 27.3731H339.802C341.079 22.4678 344.91 19.2424 350.017 19.2424Z" fill="white"/>
<path d="M382.287 47.666H389.007V20.116H400.701V14.0684H370.593V20.116H382.287V47.666Z" fill="white"/>
<path d="M406.49 47.666H421.208C430.28 47.666 434.313 41.82 434.313 36.0412C434.313 30.1952 430.28 24.6181 421.208 24.6181H413.21V14.0684H406.49V47.666ZM438.815 47.666H445.536V14.0684H438.815V47.666ZM421.006 30.5312C425.442 30.5312 427.256 33.219 427.256 36.0412C427.256 39.1994 425.442 41.6856 421.342 41.6856H413.21V30.5312H421.006Z" fill="white"/>
<path d="M17.2852 102.968L8.07819 93.2915L17.2852 83.6154L12.9169 79.9196L0.0136719 93.5602L12.9169 107.134L17.2852 102.968ZM31.7341 102.968L22.5271 93.2915L31.7341 83.6154L27.3658 79.9196L14.4626 93.5602L27.3658 107.134L31.7341 102.968Z" fill="white"/>
<path d="M35.6593 110.829H42.5813L47.5544 97.7263H66.9093L71.9496 110.829H79.342L61.1969 63.7928H53.8044L35.6593 110.829ZM49.9066 91.6788L57.1646 72.5282L64.5571 91.6788H49.9066Z" fill="white"/>
<path d="M96.7585 111.501C107.108 111.501 111.409 106.529 111.409 101.086C111.409 97.3232 108.721 94.2994 104.42 93.3587C108.25 92.3507 110.334 89.4613 110.334 86.0344C110.334 80.9276 106.234 76.5599 96.8257 76.5599C88.2907 76.5599 82.9144 80.9948 82.2423 87.9158H89.2316C89.8364 85.1609 91.6509 82.6074 96.6913 82.6074C101.194 82.6074 103.277 84.6233 103.277 87.1095C103.277 89.5285 101.732 91.1412 96.9601 91.1412H92.323V96.8528H97.9681C102.605 96.8528 104.353 98.5999 104.353 100.885C104.353 103.304 102.807 105.454 96.7585 105.454C91.6509 105.454 89.366 103.304 88.5595 99.8094H81.5703C82.2423 106.73 86.9466 111.501 96.7585 111.501Z" fill="white"/>
<path d="M134.243 111.501C144.928 111.501 152.052 104.043 152.052 94.7026C152.052 85.4968 146.205 77.971 136.662 77.971C130.345 77.971 125.17 81.5995 122.952 86.8407C123.221 76.8287 126.178 72.5954 137.603 71.1171C144.525 70.2435 149.229 68.8324 150.305 62.4489H143.987C143.517 64.1288 141.098 64.6663 136.528 65.2039C122.415 66.8838 116.501 73.8721 116.501 90.1333C116.501 95.9121 117.24 100.481 119.458 103.908C122.079 108.074 127.388 111.501 134.243 111.501ZM134.243 105.454C127.993 105.454 123.557 101.019 123.557 94.7026C123.557 88.5206 127.993 84.0185 134.243 84.0185C140.56 84.0185 144.995 88.5206 144.995 94.7026C144.995 101.019 140.56 105.454 134.243 105.454Z" fill="white"/>
<path d="M172.815 112.576L187.063 77.2318H180.544L170.665 102.296L160.651 77.2318H153.461L167.036 110.964C164.885 116.944 163.541 118.221 156.485 118.221V124.268C166.565 124.268 169.186 121.648 172.815 112.576Z" fill="white"/>
<path d="M191.489 110.829H198.209V95.0385L213.196 110.829H222.268L205.4 93.2243L220.991 77.2318H212.927L198.209 92.3507V77.2318H191.489V110.829Z" fill="white"/>
<path d="M246.127 89.7973V90.3349C230.738 90.3349 223.681 94.4338 223.681 102.094C223.681 108.142 227.646 111.501 233.963 111.501C240.885 111.501 244.447 107.671 246.127 102.766V110.829H252.848V90.4693C252.848 81.1291 247.942 76.5599 238.869 76.5599C230.536 76.5599 225.294 80.6588 224.219 88.4534H230.939C231.477 84.9593 234.165 82.6074 238.869 82.6074C243.439 82.6074 246.127 84.9593 246.127 89.7973ZM230.738 101.758C230.738 97.7263 235.039 95.1729 246.127 95.1729C246.127 100.952 242.431 105.723 235.509 105.723C232.552 105.723 230.738 104.311 230.738 101.758Z" fill="white"/>
<path d="M303.418 110.829H310.138V63.7928H303.418V84.7577C300.999 79.7852 296.429 76.5599 290.313 76.5599C281.106 76.5599 274.856 84.2873 274.856 94.0306C274.856 103.774 280.972 111.501 290.313 111.501C296.429 111.501 300.999 108.276 303.418 103.304V110.829ZM292.665 82.6074C298.714 82.6074 303.418 87.3111 303.418 94.0306C303.418 100.817 298.714 105.454 292.665 105.454C286.348 105.454 281.913 101.019 281.913 94.0306C281.913 87.0423 286.348 82.6074 292.665 82.6074Z" fill="white"/>
<path d="M339.715 89.7973V90.3349C324.325 90.3349 317.268 94.4338 317.268 102.094C317.268 108.142 321.233 111.501 327.551 111.501C334.473 111.501 338.035 107.671 339.715 102.766V110.829H346.435V90.4693C346.435 81.1291 341.529 76.5599 332.457 76.5599C324.123 76.5599 318.881 80.6588 317.806 88.4534H324.526C325.064 84.9593 327.752 82.6074 332.457 82.6074C337.026 82.6074 339.715 84.9593 339.715 89.7973ZM324.325 101.758C324.325 97.7263 328.626 95.1729 339.715 95.1729C339.715 100.952 336.018 105.723 329.096 105.723C326.139 105.723 324.325 104.311 324.325 101.758Z" fill="white"/>
<path d="M357.938 71.8562C360.357 71.8562 362.306 69.9076 362.306 67.4885C362.306 65.0695 360.357 63.1209 357.938 63.1209C355.518 63.1209 353.569 65.0695 353.569 67.4885C353.569 69.9076 355.518 71.8562 357.938 71.8562ZM354.577 110.829H361.298V77.2318H354.577V110.829Z" fill="white"/>
<path d="M376.458 63.7928H369.738V110.829H376.458V63.7928Z" fill="white"/>
<path d="M400.221 112.576L414.468 77.2318H407.949L398.07 102.296L388.057 77.2318H380.866L394.441 110.964C392.29 116.944 390.946 118.221 383.89 118.221V124.268C393.971 124.268 396.592 121.648 400.221 112.576Z" fill="white"/>
<path d="M433.359 84.0857L442.566 93.7618L433.359 103.438L437.727 107.134L450.63 93.493L437.727 79.9196L433.359 84.0857ZM418.91 84.0857L428.117 93.7618L418.91 103.438L423.278 107.134L436.181 93.493L423.278 79.9196L418.91 84.0857Z" fill="white"/>
</g>
</svg>
