<svg width="290" height="224" viewBox="0 0 290 224" fill="none" xmlns="http://www.w3.org/2000/svg">
<g id="320/numbers">
<g id="&#62; 12 000">
<path d="M86.6157 19.792L98.6797 14.768L86.6157 9.04003V6.54403L101.688 14.064V15.664L86.6157 22.288V19.792Z" fill="#191919"/>
<path d="M118.827 3.60003H115.467C115.467 5.39203 114.667 6.16003 112.875 6.16003H111.307V8.72003H115.467V26H118.827V3.60003Z" fill="#191919"/>
<path d="M123.365 23.76V26H138.213V22.96H128.293L131.877 19.664C135.717 16.112 137.765 13.552 137.765 10.096C137.765 5.61603 134.885 3.28003 130.405 3.28003C125.957 3.28003 122.981 5.90403 122.853 10.64H126.373C126.565 7.50403 128.165 6.32003 130.405 6.32003C132.581 6.32003 134.181 7.40803 134.181 10.096C134.181 12.624 132.805 15.056 129.637 17.968L123.365 23.76Z" fill="#191919"/>
<path d="M156.684 26.32C162.06 26.32 165.324 21.872 165.324 14.8C165.324 7.72803 162.06 3.28003 156.684 3.28003C151.308 3.28003 148.044 7.72803 148.044 14.8C148.044 21.872 151.308 26.32 156.684 26.32ZM156.684 23.28C153.324 23.28 151.564 20.176 151.564 14.8C151.564 9.42403 153.324 6.32003 156.684 6.32003C160.044 6.32003 161.804 9.42403 161.804 14.8C161.804 20.176 160.044 23.28 156.684 23.28Z" fill="#191919"/>
<path d="M176.403 26.32C181.779 26.32 185.043 21.872 185.043 14.8C185.043 7.72803 181.779 3.28003 176.403 3.28003C171.027 3.28003 167.763 7.72803 167.763 14.8C167.763 21.872 171.027 26.32 176.403 26.32ZM176.403 23.28C173.043 23.28 171.283 20.176 171.283 14.8C171.283 9.42403 173.043 6.32003 176.403 6.32003C179.763 6.32003 181.523 9.42403 181.523 14.8C181.523 20.176 179.763 23.28 176.403 23.28Z" fill="#191919"/>
<path d="M196.122 26.32C201.498 26.32 204.762 21.872 204.762 14.8C204.762 7.72803 201.498 3.28003 196.122 3.28003C190.746 3.28003 187.482 7.72803 187.482 14.8C187.482 21.872 190.746 26.32 196.122 26.32ZM196.122 23.28C192.762 23.28 191.002 20.176 191.002 14.8C191.002 9.42403 192.762 6.32003 196.122 6.32003C199.482 6.32003 201.242 9.42403 201.242 14.8C201.242 20.176 199.482 23.28 196.122 23.28Z" fill="#191919"/>
</g>
<g id="&#209;&#129;&#208;&#190;&#209;&#130;&#209;&#128;&#209;&#131;&#208;&#180;&#208;&#189;&#208;&#184;&#208;&#186;&#208;&#190;&#208;&#178;">
<path d="M101.617 45.72C100.177 45.72 99.169 44.648 99.169 43C99.169 41.368 100.145 40.28 101.617 40.28C102.801 40.28 103.489 40.856 103.793 41.88H105.393C105.089 40.008 103.729 38.84 101.617 38.84C99.169 38.84 97.489 40.696 97.489 43C97.489 45.32 99.169 47.16 101.649 47.16C103.681 47.16 105.073 46.072 105.457 44.04H103.857C103.569 45.16 102.801 45.72 101.617 45.72Z" fill="#191919"/>
<path d="M110.682 47.16C113.162 47.16 114.922 45.32 114.922 43C114.922 40.68 113.162 38.84 110.682 38.84C108.202 38.84 106.442 40.68 106.442 43C106.442 45.32 108.202 47.16 110.682 47.16ZM110.682 45.72C109.162 45.72 108.122 44.52 108.122 43C108.122 41.48 109.162 40.28 110.682 40.28C112.202 40.28 113.242 41.48 113.242 43C113.242 44.52 112.202 45.72 110.682 45.72Z" fill="#191919"/>
<path d="M118.285 47H119.885V40.44H122.669V39H115.501V40.44H118.285V47Z" fill="#191919"/>
<path d="M125.647 39H124.047V50.2H125.647V45.208C126.223 46.392 127.311 47.16 128.767 47.16C130.991 47.16 132.447 45.32 132.447 43C132.447 40.68 130.959 38.84 128.767 38.84C127.311 38.84 126.223 39.608 125.647 40.792V39ZM128.207 40.28C129.711 40.28 130.767 41.336 130.767 43C130.767 44.664 129.711 45.72 128.207 45.72C126.767 45.72 125.647 44.616 125.647 43C125.647 41.4 126.767 40.28 128.207 40.28Z" fill="#191919"/>
<path d="M137.398 47.416L140.79 39H139.238L136.886 44.968L134.502 39H132.79L136.022 47.032C135.51 48.456 135.19 48.76 133.51 48.76V50.2C135.91 50.2 136.534 49.576 137.398 47.416Z" fill="#191919"/>
<path d="M140.89 48.76H142.41V47H148.266V48.76H149.786V45.56H148.666V39H142.538V39.912C142.538 43.368 142.218 44.776 141.882 45.56H140.89V48.76ZM143.466 45.56C143.754 44.824 144.01 43.688 144.042 40.44H147.066V45.56H143.466Z" fill="#191919"/>
<path d="M151.078 47H152.678V43.64H156.438V47H158.038V39H156.438V42.2H152.678V39H151.078V47Z" fill="#191919"/>
<path d="M160.047 47H161.647L165.567 41.304V47H167.167V39H165.567L161.647 44.696V39H160.047V47Z" fill="#191919"/>
<path d="M169.188 47H170.788V43.24L174.356 47H176.516L172.5 42.808L176.212 39H174.292L170.788 42.6V39H169.188V47Z" fill="#191919"/>
<path d="M180.932 47.16C183.412 47.16 185.172 45.32 185.172 43C185.172 40.68 183.412 38.84 180.932 38.84C178.452 38.84 176.692 40.68 176.692 43C176.692 45.32 178.452 47.16 180.932 47.16ZM180.932 45.72C179.412 45.72 178.372 44.52 178.372 43C178.372 41.48 179.412 40.28 180.932 40.28C182.452 40.28 183.492 41.48 183.492 43C183.492 44.52 182.452 45.72 180.932 45.72Z" fill="#191919"/>
<path d="M186.703 47H190.527C192.719 47 193.423 45.848 193.423 44.76C193.423 43.688 192.703 43.08 191.535 42.888C192.559 42.616 193.071 41.912 193.071 41.08C193.071 39.752 192.095 39 190.319 39H186.703V47ZM190.239 42.328H188.271V40.36H190.239C191.071 40.36 191.423 40.792 191.423 41.352C191.423 41.896 191.071 42.328 190.239 42.328ZM190.351 43.608C191.391 43.608 191.743 44.088 191.743 44.6C191.743 45.176 191.391 45.64 190.431 45.64H188.271V43.608H190.351Z" fill="#191919"/>
</g>
<g id="&#62; 170">
<path d="M110.991 95.792L123.055 90.768L110.991 85.04V82.544L126.063 90.064V91.664L110.991 98.288V95.792Z" fill="#191919"/>
<path d="M143.202 79.6H139.842C139.842 81.392 139.042 82.16 137.25 82.16H135.682V84.72H139.842V102H143.202V79.6Z" fill="#191919"/>
<path d="M147.22 79.6V82.64H157.78L149.78 102H153.46L161.46 81.84V79.6H147.22Z" fill="#191919"/>
<path d="M171.747 102.32C177.123 102.32 180.387 97.872 180.387 90.8C180.387 83.728 177.123 79.28 171.747 79.28C166.371 79.28 163.107 83.728 163.107 90.8C163.107 97.872 166.371 102.32 171.747 102.32ZM171.747 99.28C168.387 99.28 166.627 96.176 166.627 90.8C166.627 85.424 168.387 82.32 171.747 82.32C175.107 82.32 176.867 85.424 176.867 90.8C176.867 96.176 175.107 99.28 171.747 99.28Z" fill="#191919"/>
</g>
<g id="&#208;&#188;&#208;&#176;&#208;&#179;&#208;&#176;&#208;&#183;&#208;&#184;&#208;&#189;&#208;&#190;&#208;&#178; &#208;&#178;&#194;&#160;&#208;&#156;&#208;&#190;&#209;&#129;&#208;&#186;&#208;&#178;&#208;&#181; &#208;&#184;&#194;&#160;&#208;&#161;&#208;&#176;&#208;&#189;&#208;&#186;&#209;&#130;-&#208;&#159;&#208;&#181;&#209;&#130;&#208;&#181;&#209;&#128;&#208;&#177;&#209;&#131;&#209;&#128;&#208;&#179;&#208;&#181;">
<path d="M69.7346 123H71.2546V116.888L73.7186 123H74.9986L77.4626 116.888V123H79.0626V115H76.8066L74.4386 120.904L72.0546 115H69.7346V123Z" fill="#191919"/>
<path d="M86.1024 117.992V118.12C82.4384 118.12 80.7584 119.096 80.7584 120.92C80.7584 122.36 81.7024 123.16 83.2064 123.16C84.8544 123.16 85.7024 122.248 86.1024 121.08V123H87.7024V118.152C87.7024 115.928 86.5344 114.84 84.3744 114.84C82.3904 114.84 81.1424 115.816 80.8864 117.672H82.4864C82.6144 116.84 83.2544 116.28 84.3744 116.28C85.4624 116.28 86.1024 116.84 86.1024 117.992ZM82.4384 120.84C82.4384 119.88 83.4624 119.272 86.1024 119.272C86.1024 120.648 85.2224 121.784 83.5744 121.784C82.8704 121.784 82.4384 121.448 82.4384 120.84Z" fill="#191919"/>
<path d="M89.6409 123H91.2409V116.44H95.0489V115H89.6409V123Z" fill="#191919"/>
<path d="M101.134 117.992V118.12C97.4696 118.12 95.7896 119.096 95.7896 120.92C95.7896 122.36 96.7336 123.16 98.2376 123.16C99.8856 123.16 100.734 122.248 101.134 121.08V123H102.734V118.152C102.734 115.928 101.566 114.84 99.4056 114.84C97.4216 114.84 96.1736 115.816 95.9176 117.672H97.5176C97.6456 116.84 98.2856 116.28 99.4056 116.28C100.494 116.28 101.134 116.84 101.134 117.992ZM97.4696 120.84C97.4696 119.88 98.4936 119.272 101.134 119.272C101.134 120.648 100.254 121.784 98.6056 121.784C97.9016 121.784 97.4696 121.448 97.4696 120.84Z" fill="#191919"/>
<path d="M107.728 123.16C110.192 123.16 111.216 121.976 111.216 120.68C111.216 119.784 110.576 119.064 109.552 118.84C110.464 118.6 110.96 117.912 110.96 117.096C110.96 115.88 109.984 114.84 107.744 114.84C105.712 114.84 104.432 115.896 104.272 117.544H105.936C106.08 116.888 106.512 116.28 107.712 116.28C108.784 116.28 109.28 116.76 109.28 117.352C109.28 117.928 108.912 118.312 107.776 118.312H106.672V119.672H108.016C109.12 119.672 109.536 120.088 109.536 120.632C109.536 121.208 109.168 121.72 107.728 121.72C106.512 121.72 105.968 121.208 105.776 120.376H104.112C104.272 122.024 105.392 123.16 107.728 123.16Z" fill="#191919"/>
<path d="M112.828 123H114.428L118.348 117.304V123H119.948V115H118.348L114.428 120.696V115H112.828V123Z" fill="#191919"/>
<path d="M121.969 123H123.569V119.64H127.329V123H128.929V115H127.329V118.2H123.569V115H121.969V123Z" fill="#191919"/>
<path d="M134.698 123.16C137.178 123.16 138.938 121.32 138.938 119C138.938 116.68 137.178 114.84 134.698 114.84C132.218 114.84 130.458 116.68 130.458 119C130.458 121.32 132.218 123.16 134.698 123.16ZM134.698 121.72C133.178 121.72 132.138 120.52 132.138 119C132.138 117.48 133.178 116.28 134.698 116.28C136.218 116.28 137.258 117.48 137.258 119C137.258 120.52 136.218 121.72 134.698 121.72Z" fill="#191919"/>
<path d="M140.469 123H144.293C146.485 123 147.189 121.848 147.189 120.76C147.189 119.688 146.469 119.08 145.301 118.888C146.325 118.616 146.837 117.912 146.837 117.08C146.837 115.752 145.861 115 144.085 115H140.469V123ZM144.005 118.328H142.037V116.36H144.005C144.837 116.36 145.189 116.792 145.189 117.352C145.189 117.896 144.837 118.328 144.005 118.328ZM144.117 119.608C145.157 119.608 145.509 120.088 145.509 120.6C145.509 121.176 145.157 121.64 144.197 121.64H142.037V119.608H144.117Z" fill="#191919"/>
<path d="M152.594 123H156.418C158.61 123 159.314 121.848 159.314 120.76C159.314 119.688 158.594 119.08 157.426 118.888C158.45 118.616 158.962 117.912 158.962 117.08C158.962 115.752 157.986 115 156.21 115H152.594V123ZM156.13 118.328H154.162V116.36H156.13C156.962 116.36 157.314 116.792 157.314 117.352C157.314 117.896 156.962 118.328 156.13 118.328ZM156.242 119.608C157.282 119.608 157.634 120.088 157.634 120.6C157.634 121.176 157.282 121.64 156.322 121.64H154.162V119.608H156.242Z" fill="#191919"/>
<path d="M164.799 123H166.399V113.704L170.111 123H171.455L175.167 113.704V123H176.847V111.8H174.415L170.911 120.584L167.407 111.8H164.799V123Z" fill="#191919"/>
<path d="M182.698 123.16C185.178 123.16 186.938 121.32 186.938 119C186.938 116.68 185.178 114.84 182.698 114.84C180.218 114.84 178.458 116.68 178.458 119C178.458 121.32 180.218 123.16 182.698 123.16ZM182.698 121.72C181.178 121.72 180.138 120.52 180.138 119C180.138 117.48 181.178 116.28 182.698 116.28C184.218 116.28 185.258 117.48 185.258 119C185.258 120.52 184.218 121.72 182.698 121.72Z" fill="#191919"/>
<path d="M192.117 121.72C190.677 121.72 189.669 120.648 189.669 119C189.669 117.368 190.645 116.28 192.117 116.28C193.301 116.28 193.989 116.856 194.293 117.88H195.893C195.589 116.008 194.229 114.84 192.117 114.84C189.669 114.84 187.989 116.696 187.989 119C187.989 121.32 189.669 123.16 192.149 123.16C194.181 123.16 195.573 122.072 195.957 120.04H194.357C194.069 121.16 193.301 121.72 192.117 121.72Z" fill="#191919"/>
<path d="M197.5 123H199.1V119.24L202.668 123H204.828L200.812 118.808L204.524 115H202.604L199.1 118.6V115H197.5V123Z" fill="#191919"/>
<path d="M205.719 123H209.543C211.735 123 212.439 121.848 212.439 120.76C212.439 119.688 211.719 119.08 210.551 118.888C211.575 118.616 212.087 117.912 212.087 117.08C212.087 115.752 211.111 115 209.335 115H205.719V123ZM209.255 118.328H207.287V116.36H209.255C210.087 116.36 210.439 116.792 210.439 117.352C210.439 117.896 210.087 118.328 209.255 118.328ZM209.367 119.608C210.407 119.608 210.759 120.088 210.759 120.6C210.759 121.176 210.407 121.64 209.447 121.64H207.287V119.608H209.367Z" fill="#191919"/>
<path d="M217.587 121.768C216.115 121.768 215.186 120.744 215.074 119.288H221.699C221.731 119.128 221.747 118.952 221.747 118.792C221.747 116.6 220.051 114.84 217.587 114.84C215.123 114.84 213.426 116.664 213.426 119C213.426 121.416 215.123 123.16 217.587 123.16C219.651 123.16 220.979 122.216 221.443 120.52H219.906C219.586 121.256 218.883 121.768 217.587 121.768ZM217.587 116.232C218.883 116.232 219.747 117.032 220.035 118.168H215.154C215.458 117 216.371 116.232 217.587 116.232Z" fill="#191919"/>
<path d="M68.7737 143H70.3737L74.2937 137.304V143H75.8937V135H74.2937L70.3737 140.696V135H68.7737V143Z" fill="#191919"/>
<path d="M92.1596 135.32C91.5516 132.696 89.5996 131.64 86.9756 131.64C83.6636 131.64 81.2956 134.024 81.2956 137.4C81.2956 140.776 83.6636 143.16 86.9756 143.16C89.8556 143.16 91.5996 141.896 92.3036 139.304H90.4796C89.8876 140.888 88.8956 141.64 86.9756 141.64C84.6556 141.64 83.0556 139.928 83.0556 137.4C83.0556 134.872 84.6556 133.16 86.9756 133.16C88.6556 133.16 89.8076 133.896 90.2876 135.32H92.1596Z" fill="#191919"/>
<path d="M98.7821 137.992V138.12C95.1181 138.12 93.4381 139.096 93.4381 140.92C93.4381 142.36 94.3821 143.16 95.8861 143.16C97.5341 143.16 98.3821 142.248 98.7821 141.08V143H100.382V138.152C100.382 135.928 99.2141 134.84 97.0541 134.84C95.0701 134.84 93.8221 135.816 93.5661 137.672H95.1661C95.2941 136.84 95.9341 136.28 97.0541 136.28C98.1421 136.28 98.7821 136.84 98.7821 137.992ZM95.1181 140.84C95.1181 139.88 96.1421 139.272 98.7821 139.272C98.7821 140.648 97.9021 141.784 96.2541 141.784C95.5501 141.784 95.1181 141.448 95.1181 140.84Z" fill="#191919"/>
<path d="M102.321 143H103.921V139.64H107.681V143H109.281V135H107.681V138.2H103.921V135H102.321V143Z" fill="#191919"/>
<path d="M111.289 143H112.889V139.24L116.457 143H118.617L114.601 138.808L118.313 135H116.393L112.889 138.6V135H111.289V143Z" fill="#191919"/>
<path d="M121.574 143H123.174V136.44H125.958V135H118.79V136.44H121.574V143Z" fill="#191919"/>
<path d="M132.052 139.64V138.2H126.692V139.64H132.052Z" fill="#191919"/>
<path d="M133.994 143H135.674V133.32H141.194V143H142.874V131.8H133.994V143Z" fill="#191919"/>
<path d="M148.657 141.768C147.185 141.768 146.257 140.744 146.145 139.288H152.769C152.801 139.128 152.817 138.952 152.817 138.792C152.817 136.6 151.121 134.84 148.657 134.84C146.193 134.84 144.497 136.664 144.497 139C144.497 141.416 146.193 143.16 148.657 143.16C150.721 143.16 152.049 142.216 152.513 140.52H150.977C150.657 141.256 149.953 141.768 148.657 141.768ZM148.657 136.232C149.953 136.232 150.817 137.032 151.105 138.168H146.225C146.529 137 147.441 136.232 148.657 136.232Z" fill="#191919"/>
<path d="M156.34 143H157.94V136.44H160.724V135H153.556V136.44H156.34V143Z" fill="#191919"/>
<path d="M165.469 141.768C163.997 141.768 163.069 140.744 162.957 139.288H169.581C169.613 139.128 169.629 138.952 169.629 138.792C169.629 136.6 167.933 134.84 165.469 134.84C163.005 134.84 161.309 136.664 161.309 139C161.309 141.416 163.005 143.16 165.469 143.16C167.533 143.16 168.861 142.216 169.325 140.52H167.789C167.469 141.256 166.765 141.768 165.469 141.768ZM165.469 136.232C166.765 136.232 167.629 137.032 167.917 138.168H163.037C163.341 137 164.253 136.232 165.469 136.232Z" fill="#191919"/>
<path d="M172.764 135H171.164V146.2H172.764V141.208C173.34 142.392 174.428 143.16 175.884 143.16C178.108 143.16 179.564 141.32 179.564 139C179.564 136.68 178.076 134.84 175.884 134.84C174.428 134.84 173.34 135.608 172.764 136.792V135ZM175.324 136.28C176.828 136.28 177.884 137.336 177.884 139C177.884 140.664 176.828 141.72 175.324 141.72C173.884 141.72 172.764 140.616 172.764 139C172.764 137.4 173.884 136.28 175.324 136.28Z" fill="#191919"/>
<path d="M184.926 143.16C187.47 143.16 189.166 141.384 189.166 139.16C189.166 136.968 187.774 135.176 185.502 135.176C183.998 135.176 182.766 136.04 182.238 137.288C182.302 134.904 183.006 133.896 185.726 133.544C187.374 133.336 188.494 133 188.75 131.48H187.246C187.134 131.88 186.558 132.008 185.47 132.136C182.11 132.536 180.702 134.2 180.702 138.072C180.702 139.448 180.878 140.536 181.406 141.352C182.03 142.344 183.294 143.16 184.926 143.16ZM184.926 141.72C183.438 141.72 182.382 140.664 182.382 139.16C182.382 137.688 183.438 136.616 184.926 136.616C186.43 136.616 187.486 137.688 187.486 139.16C187.486 140.664 186.43 141.72 184.926 141.72Z" fill="#191919"/>
<path d="M194.109 143.416L197.501 135H195.949L193.597 140.968L191.213 135H189.501L192.733 143.032C192.221 144.456 191.901 144.76 190.221 144.76V146.2C192.621 146.2 193.245 145.576 194.109 143.416Z" fill="#191919"/>
<path d="M200.155 135H198.555V146.2H200.155V141.208C200.731 142.392 201.819 143.16 203.275 143.16C205.499 143.16 206.955 141.32 206.955 139C206.955 136.68 205.467 134.84 203.275 134.84C201.819 134.84 200.731 135.608 200.155 136.792V135ZM202.715 136.28C204.219 136.28 205.275 137.336 205.275 139C205.275 140.664 204.219 141.72 202.715 141.72C201.275 141.72 200.155 140.616 200.155 139C200.155 137.4 201.275 136.28 202.715 136.28Z" fill="#191919"/>
<path d="M208.492 143H210.092V136.44H213.9V135H208.492V143Z" fill="#191919"/>
<path d="M218.547 141.768C217.075 141.768 216.147 140.744 216.035 139.288H222.659C222.691 139.128 222.707 138.952 222.707 138.792C222.707 136.6 221.011 134.84 218.547 134.84C216.083 134.84 214.387 136.664 214.387 139C214.387 141.416 216.083 143.16 218.547 143.16C220.611 143.16 221.939 142.216 222.403 140.52H220.867C220.547 141.256 219.843 141.768 218.547 141.768ZM218.547 136.232C219.843 136.232 220.707 137.032 220.995 138.168H216.115C216.419 137 217.331 136.232 218.547 136.232Z" fill="#191919"/>
</g>
<g id="25">
<path d="M129.13 195.76V198H143.978V194.96H134.058L137.642 191.664C141.482 188.112 143.53 185.552 143.53 182.096C143.53 177.616 140.65 175.28 136.17 175.28C131.722 175.28 128.746 177.904 128.618 182.64H132.138C132.33 179.504 133.93 178.32 136.17 178.32C138.346 178.32 139.946 179.408 139.946 182.096C139.946 184.624 138.57 187.056 135.402 189.968L129.13 195.76Z" fill="#191919"/>
<path d="M154.439 198.32C159.783 198.32 162.375 194.704 162.375 190.896C162.375 186.032 159.431 182.992 154.599 182.992C152.743 182.992 151.239 183.6 150.183 184.4L150.823 178.64H160.871V175.6H148.263L146.919 187.792H149.799C150.791 186.736 152.295 186.032 154.407 186.032C157.351 186.032 158.855 188.016 158.855 190.8C158.855 193.36 157.351 195.28 154.439 195.28C151.527 195.28 150.183 193.808 149.767 191.44H146.247C146.439 195.344 148.967 198.32 154.439 198.32Z" fill="#191919"/>
</g>
<g id="&#208;&#187;&#208;&#181;&#209;&#130; &#208;&#189;&#208;&#176;&#194;&#160;&#209;&#128;&#209;&#139;&#208;&#189;&#208;&#186;&#208;&#181;">
<path d="M97.9642 215C97.9322 216.984 97.7082 217.56 96.5242 217.56V219.16C98.7162 219.16 99.3882 218.072 99.4682 215.032L99.5322 212.44H102.444V219H104.044V211H98.0442L97.9642 215Z" fill="#191919"/>
<path d="M109.735 217.768C108.263 217.768 107.335 216.744 107.223 215.288H113.847C113.879 215.128 113.895 214.952 113.895 214.792C113.895 212.6 112.199 210.84 109.735 210.84C107.271 210.84 105.575 212.664 105.575 215C105.575 217.416 107.271 219.16 109.735 219.16C111.799 219.16 113.127 218.216 113.591 216.52H112.055C111.735 217.256 111.031 217.768 109.735 217.768ZM109.735 212.232C111.031 212.232 111.895 213.032 112.183 214.168H107.303C107.607 213 108.519 212.232 109.735 212.232Z" fill="#191919"/>
<path d="M117.418 219H119.018V212.44H121.802V211H114.634V212.44H117.418V219Z" fill="#191919"/>
<path d="M126.961 219H128.561V215.64H132.321V219H133.921V211H132.321V214.2H128.561V211H126.961V219Z" fill="#191919"/>
<path d="M140.954 213.992V214.12C137.29 214.12 135.61 215.096 135.61 216.92C135.61 218.36 136.554 219.16 138.058 219.16C139.706 219.16 140.554 218.248 140.954 217.08V219H142.554V214.152C142.554 211.928 141.386 210.84 139.226 210.84C137.242 210.84 135.994 211.816 135.738 213.672H137.338C137.466 212.84 138.106 212.28 139.226 212.28C140.314 212.28 140.954 212.84 140.954 213.992ZM137.29 216.84C137.29 215.88 138.314 215.272 140.954 215.272C140.954 216.648 140.074 217.784 138.426 217.784C137.722 217.784 137.29 217.448 137.29 216.84Z" fill="#191919"/>
<path d="M149.874 211H148.274V222.2H149.874V217.208C150.45 218.392 151.538 219.16 152.994 219.16C155.218 219.16 156.674 217.32 156.674 215C156.674 212.68 155.186 210.84 152.994 210.84C151.538 210.84 150.45 211.608 149.874 212.792V211ZM152.434 212.28C153.938 212.28 154.994 213.336 154.994 215C154.994 216.664 153.938 217.72 152.434 217.72C150.994 217.72 149.874 216.616 149.874 215C149.874 213.4 150.994 212.28 152.434 212.28Z" fill="#191919"/>
<path d="M158.211 219H161.715C163.875 219 164.835 217.608 164.835 216.232C164.835 214.84 163.875 213.512 161.715 213.512H159.811V211H158.211V219ZM165.907 219H167.507V211H165.907V219ZM161.667 214.92C162.723 214.92 163.155 215.56 163.155 216.232C163.155 216.984 162.723 217.576 161.747 217.576H159.811V214.92H161.667Z" fill="#191919"/>
<path d="M169.524 219H171.124V215.64H174.884V219H176.484V211H174.884V214.2H171.124V211H169.524V219Z" fill="#191919"/>
<path d="M178.492 219H180.092V215.24L183.66 219H185.82L181.804 214.808L185.516 211H183.596L180.092 214.6V211H178.492V219Z" fill="#191919"/>
<path d="M190.157 217.768C188.685 217.768 187.757 216.744 187.645 215.288H194.269C194.301 215.128 194.317 214.952 194.317 214.792C194.317 212.6 192.621 210.84 190.157 210.84C187.693 210.84 185.997 212.664 185.997 215C185.997 217.416 187.693 219.16 190.157 219.16C192.221 219.16 193.549 218.216 194.013 216.52H192.477C192.157 217.256 191.453 217.768 190.157 217.768ZM190.157 212.232C191.453 212.232 192.317 213.032 192.605 214.168H187.725C188.029 213 188.941 212.232 190.157 212.232Z" fill="#191919"/>
</g>
</g>
</svg>
