<svg width="400" height="427" viewBox="0 0 400 427" fill="none" xmlns="http://www.w3.org/2000/svg">
<g id="1920/numbers" clip-path="url(#clip0_2_319)">
<path id="Vector" d="M147.475 39.4672L172.862 28.8932L147.475 16.8376V11.5843L179.192 27.4115V30.779L147.475 44.7205V39.4672ZM215.259 5.38804H208.189C208.189 9.15965 206.505 10.7761 202.734 10.7761H199.434V16.1641H208.189V52.5331H215.259V5.38804ZM224.809 47.8186V52.5331H256.055V46.1349H235.18L242.722 39.1978C250.803 31.722 255.112 26.3339 255.112 19.0601C255.112 9.6311 249.052 4.71454 239.624 4.71454C230.264 4.71454 224.001 10.2373 223.732 20.2051H231.139C231.543 13.6048 234.91 11.1128 239.624 11.1128C244.203 11.1128 247.57 13.4027 247.57 19.0601C247.57 24.3808 244.675 29.4994 238.008 35.6283L224.809 47.8186ZM294.925 53.2066C306.238 53.2066 313.107 43.845 313.107 28.9606C313.107 14.0762 306.238 4.71454 294.925 4.71454C283.612 4.71454 276.743 14.0762 276.743 28.9606C276.743 43.845 283.612 53.2066 294.925 53.2066ZM294.925 46.8084C287.855 46.8084 284.151 40.2754 284.151 28.9606C284.151 17.6458 287.855 11.1128 294.925 11.1128C301.996 11.1128 305.7 17.6458 305.7 28.9606C305.7 40.2754 301.996 46.8084 294.925 46.8084ZM336.422 53.2066C347.735 53.2066 354.603 43.845 354.603 28.9606C354.603 14.0762 347.735 4.71454 336.422 4.71454C325.108 4.71454 318.24 14.0762 318.24 28.9606C318.24 43.845 325.108 53.2066 336.422 53.2066ZM336.422 46.8084C329.351 46.8084 325.647 40.2754 325.647 28.9606C325.647 17.6458 329.351 11.1128 336.422 11.1128C343.492 11.1128 347.196 17.6458 347.196 28.9606C347.196 40.2754 343.492 46.8084 336.422 46.8084ZM377.916 53.2066C389.23 53.2066 396.098 43.845 396.098 28.9606C396.098 14.0762 389.23 4.71454 377.916 4.71454C366.603 4.71454 359.735 14.0762 359.735 28.9606C359.735 43.845 366.603 53.2066 377.916 53.2066ZM377.916 46.8084C370.846 46.8084 367.142 40.2754 367.142 28.9606C367.142 17.6458 370.846 11.1128 377.916 11.1128C384.987 11.1128 388.691 17.6458 388.691 28.9606C388.691 40.2754 384.987 46.8084 377.916 46.8084Z" fill="#191919"/>
<path id="Vector_2" d="M228.848 86.5315C226.182 86.5315 224.315 84.546 224.315 81.4937C224.315 78.471 226.123 76.4559 228.848 76.4559C231.041 76.4559 232.315 77.5227 232.878 79.4193H235.841C235.278 75.9521 232.76 73.7888 228.848 73.7888C224.315 73.7888 221.204 77.2264 221.204 81.4937C221.204 85.7906 224.315 89.1985 228.908 89.1985C232.671 89.1985 235.248 87.1834 235.96 83.4199H232.997C232.463 85.4943 231.041 86.5315 228.848 86.5315ZM245.635 89.1985C250.228 89.1985 253.487 85.7906 253.487 81.4937C253.487 77.1967 250.228 73.7888 245.635 73.7888C241.042 73.7888 237.783 77.1967 237.783 81.4937C237.783 85.7906 241.042 89.1985 245.635 89.1985ZM245.635 86.5315C242.82 86.5315 240.894 84.3089 240.894 81.4937C240.894 78.6784 242.82 76.4559 245.635 76.4559C248.45 76.4559 250.376 78.6784 250.376 81.4937C250.376 84.3089 248.45 86.5315 245.635 86.5315ZM259.714 88.9022H262.677V76.7522H267.833V74.0852H254.559V76.7522H259.714V88.9022ZM273.348 74.0852H270.385V94.829H273.348V85.5832C274.415 87.7761 276.43 89.1985 279.126 89.1985C283.244 89.1985 285.941 85.7906 285.941 81.4937C285.941 77.1967 283.185 73.7888 279.126 73.7888C276.43 73.7888 274.415 75.2113 273.348 77.4042V74.0852ZM278.089 76.4559C280.874 76.4559 282.83 78.4117 282.83 81.4937C282.83 84.5756 280.874 86.5315 278.089 86.5315C275.422 86.5315 273.348 84.4867 273.348 81.4937C273.348 78.5303 275.422 76.4559 278.089 76.4559ZM295.11 89.6727L301.391 74.0852H298.517L294.162 85.1387L289.747 74.0852H286.576L292.562 88.9615C291.613 91.5989 291.021 92.162 287.91 92.162V94.829C292.354 94.829 293.51 93.6733 295.11 89.6727ZM301.574 92.162H304.389V88.9022H315.234V92.162H318.048V86.2351H315.974V74.0852H304.626V75.7743C304.626 82.1753 304.034 84.7831 303.411 86.2351H301.574V92.162ZM306.345 86.2351C306.878 84.872 307.352 82.7679 307.411 76.7522H313.011V86.2351H306.345ZM320.443 88.9022H323.406V82.679H330.369V88.9022H333.332V74.0852H330.369V80.012H323.406V74.0852H320.443V88.9022ZM337.052 88.9022H340.015L347.274 78.3525V88.9022H350.237V74.0852H347.274L340.015 84.6349V74.0852H337.052V88.9022ZM353.978 88.9022H356.941V81.9382L363.549 88.9022H367.549L360.112 81.1381L366.986 74.0852H363.43L356.941 80.7528V74.0852H353.978V88.9022ZM375.728 89.1985C380.321 89.1985 383.58 85.7906 383.58 81.4937C383.58 77.1967 380.321 73.7888 375.728 73.7888C371.135 73.7888 367.876 77.1967 367.876 81.4937C367.876 85.7906 371.135 89.1985 375.728 89.1985ZM375.728 86.5315C372.913 86.5315 370.987 84.3089 370.987 81.4937C370.987 78.6784 372.913 76.4559 375.728 76.4559C378.543 76.4559 380.469 78.6784 380.469 81.4937C380.469 84.3089 378.543 86.5315 375.728 86.5315ZM386.415 88.9022H393.496C397.556 88.9022 398.859 86.7685 398.859 84.7534C398.859 82.7679 397.526 81.6419 395.363 81.2862C397.259 80.7825 398.207 79.4786 398.207 77.9376C398.207 75.478 396.4 74.0852 393.111 74.0852H386.415V88.9022ZM392.963 80.2491H389.319V76.6041H392.963C394.504 76.6041 395.156 77.4042 395.156 78.4414C395.156 79.4489 394.504 80.2491 392.963 80.2491ZM393.17 82.6198C395.096 82.6198 395.748 83.5088 395.748 84.4571C395.748 85.5239 395.096 86.3833 393.319 86.3833H389.319V82.6198H393.17Z" fill="#191919"/>
<path id="Vector_3" d="M251.178 188.985L276.566 178.411L251.178 166.355V161.102L282.896 176.929V180.296L251.178 194.238V188.985ZM318.963 154.905H311.892C311.892 158.677 310.209 160.293 306.438 160.293H303.138V165.681H311.892V202.05H318.963V154.905ZM327.42 154.905V161.304H349.642L332.807 202.05H340.551L357.386 159.62V154.905H327.42ZM379.032 202.724C390.345 202.724 397.213 193.362 397.213 178.478C397.213 163.594 390.345 154.232 379.032 154.232C367.719 154.232 360.85 163.594 360.85 178.478C360.85 193.362 367.719 202.724 379.032 202.724ZM379.032 196.326C371.961 196.326 368.257 189.793 368.257 178.478C368.257 167.163 371.961 160.63 379.032 160.63C386.102 160.63 389.806 167.163 389.806 178.478C389.806 189.793 386.102 196.326 379.032 196.326Z" fill="#191919"/>
<path id="Vector_4" d="M117.521 238.42H120.335V227.099L124.898 238.42H127.269L131.832 227.099V238.42H134.795V223.603H130.617L126.232 234.537L121.817 223.603H117.521V238.42ZM147.832 229.144V229.381C141.046 229.381 137.935 231.189 137.935 234.567C137.935 237.234 139.683 238.716 142.469 238.716C145.521 238.716 147.091 237.027 147.832 234.863V238.42H150.795V229.44C150.795 225.321 148.632 223.306 144.632 223.306C140.958 223.306 138.646 225.114 138.172 228.551H141.135C141.372 227.01 142.558 225.973 144.632 225.973C146.646 225.973 147.832 227.01 147.832 229.144ZM141.046 234.419C141.046 232.641 142.943 231.515 147.832 231.515C147.832 234.063 146.202 236.167 143.15 236.167C141.846 236.167 141.046 235.545 141.046 234.419ZM154.384 238.42H157.347V226.27H164.399V223.603H154.384V238.42ZM175.667 229.144V229.381C168.882 229.381 165.771 231.189 165.771 234.567C165.771 237.234 167.519 238.716 170.304 238.716C173.356 238.716 174.927 237.027 175.667 234.863V238.42H178.63V229.44C178.63 225.321 176.467 223.306 172.467 223.306C168.793 223.306 166.482 225.114 166.008 228.551H168.971C169.208 227.01 170.393 225.973 172.467 225.973C174.482 225.973 175.667 227.01 175.667 229.144ZM168.882 234.419C168.882 232.641 170.778 231.515 175.667 231.515C175.667 234.063 174.038 236.167 170.986 236.167C169.682 236.167 168.882 235.545 168.882 234.419ZM187.879 238.716C192.442 238.716 194.338 236.523 194.338 234.123C194.338 232.463 193.153 231.13 191.257 230.715C192.945 230.27 193.864 228.996 193.864 227.485C193.864 225.232 192.057 223.306 187.908 223.306C184.145 223.306 181.775 225.262 181.479 228.314H184.56C184.827 227.099 185.627 225.973 187.849 225.973C189.834 225.973 190.753 226.862 190.753 227.959C190.753 229.026 190.071 229.737 187.968 229.737H185.923V232.256H188.412C190.457 232.256 191.227 233.026 191.227 234.034C191.227 235.101 190.545 236.049 187.879 236.049C185.627 236.049 184.62 235.101 184.264 233.56H181.182C181.479 236.612 183.553 238.716 187.879 238.716ZM197.324 238.42H200.287L207.546 227.87V238.42H210.509V223.603H207.546L200.287 234.152V223.603H197.324V238.42ZM214.25 238.42H217.213V232.196H224.176V238.42H227.139V223.603H224.176V229.529H217.213V223.603H214.25V238.42ZM237.822 238.716C242.415 238.716 245.674 235.308 245.674 231.011C245.674 226.714 242.415 223.306 237.822 223.306C233.23 223.306 229.97 226.714 229.97 231.011C229.97 235.308 233.23 238.716 237.822 238.716ZM237.822 236.049C235.007 236.049 233.081 233.826 233.081 231.011C233.081 228.196 235.007 225.973 237.822 225.973C240.637 225.973 242.563 228.196 242.563 231.011C242.563 233.826 240.637 236.049 237.822 236.049ZM248.51 238.42H255.592C259.651 238.42 260.955 236.286 260.955 234.271C260.955 232.285 259.622 231.159 257.459 230.804C259.355 230.3 260.303 228.996 260.303 227.455C260.303 224.995 258.496 223.603 255.207 223.603H248.51V238.42ZM255.059 229.766H251.414V226.121H255.059C256.599 226.121 257.251 226.922 257.251 227.959C257.251 228.966 256.599 229.766 255.059 229.766ZM255.266 232.137C257.192 232.137 257.844 233.026 257.844 233.974C257.844 235.041 257.192 235.901 255.414 235.901H251.414V232.137H255.266ZM270.964 238.42H278.046C282.105 238.42 283.409 236.286 283.409 234.271C283.409 232.285 282.075 231.159 279.912 230.804C281.809 230.3 282.757 228.996 282.757 227.455C282.757 224.995 280.949 223.603 277.661 223.603H270.964V238.42ZM277.512 229.766H273.868V226.121H277.512C279.053 226.121 279.705 226.922 279.705 227.959C279.705 228.966 279.053 229.766 277.512 229.766ZM277.72 232.137C279.646 232.137 280.298 233.026 280.298 233.974C280.298 235.041 279.646 235.901 277.868 235.901H273.868V232.137H277.72ZM293.566 238.42H296.529V221.202L303.403 238.42H305.892L312.766 221.202V238.42H315.877V217.676H311.374L304.885 233.945L298.396 217.676H293.566V238.42ZM326.711 238.716C331.304 238.716 334.563 235.308 334.563 231.011C334.563 226.714 331.304 223.306 326.711 223.306C322.119 223.306 318.859 226.714 318.859 231.011C318.859 235.308 322.119 238.716 326.711 238.716ZM326.711 236.049C323.896 236.049 321.97 233.826 321.97 231.011C321.97 228.196 323.896 225.973 326.711 225.973C329.526 225.973 331.452 228.196 331.452 231.011C331.452 233.826 329.526 236.049 326.711 236.049ZM344.155 236.049C341.488 236.049 339.622 234.063 339.622 231.011C339.622 227.988 341.429 225.973 344.155 225.973C346.347 225.973 347.622 227.04 348.185 228.937H351.147C350.585 225.469 348.066 223.306 344.155 223.306C339.622 223.306 336.51 226.744 336.51 231.011C336.51 235.308 339.622 238.716 344.214 238.716C347.977 238.716 350.555 236.701 351.266 232.937H348.303C347.77 235.012 346.347 236.049 344.155 236.049ZM354.124 238.42H357.087V231.456L363.694 238.42H367.694L360.257 230.655L367.131 223.603H363.576L357.087 230.27V223.603H354.124V238.42ZM369.344 238.42H376.426C380.485 238.42 381.789 236.286 381.789 234.271C381.789 232.285 380.455 231.159 378.292 230.804C380.189 230.3 381.137 228.996 381.137 227.455C381.137 224.995 379.329 223.603 376.04 223.603H369.344V238.42ZM375.892 229.766H372.248V226.121H375.892C377.433 226.121 378.085 226.922 378.085 227.959C378.085 228.966 377.433 229.766 375.892 229.766ZM376.1 232.137C378.026 232.137 378.677 233.026 378.677 233.974C378.677 235.041 378.026 235.901 376.248 235.901H372.248V232.137H376.1ZM391.32 236.138C388.594 236.138 386.875 234.241 386.668 231.544H398.935C398.994 231.248 399.024 230.922 399.024 230.626C399.024 226.566 395.883 223.306 391.32 223.306C386.757 223.306 383.616 226.684 383.616 231.011C383.616 235.486 386.757 238.716 391.32 238.716C395.142 238.716 397.601 236.967 398.461 233.826H395.616C395.024 235.189 393.72 236.138 391.32 236.138ZM391.32 225.884C393.72 225.884 395.32 227.366 395.853 229.47H386.816C387.379 227.307 389.068 225.884 391.32 225.884ZM113.962 270.748H116.925L124.184 260.198V270.748H127.147V255.931H124.184L116.925 266.48V255.931H113.962V270.748ZM157.269 256.523C156.143 251.663 152.528 249.707 147.669 249.707C141.535 249.707 137.15 254.123 137.15 260.376C137.15 266.629 141.535 271.044 147.669 271.044C153.002 271.044 156.232 268.703 157.535 263.902H154.158C153.061 266.836 151.224 268.229 147.669 268.229C143.372 268.229 140.409 265.058 140.409 260.376C140.409 255.694 143.372 252.523 147.669 252.523C150.78 252.523 152.913 253.886 153.802 256.523H157.269ZM169.533 261.472V261.709C162.747 261.709 159.636 263.517 159.636 266.895C159.636 269.562 161.385 271.044 164.17 271.044C167.222 271.044 168.792 269.355 169.533 267.192V270.748H172.496V261.769C172.496 257.649 170.333 255.634 166.333 255.634C162.659 255.634 160.347 257.442 159.873 260.879H162.836C163.073 259.339 164.259 258.301 166.333 258.301C168.347 258.301 169.533 259.339 169.533 261.472ZM162.747 266.747C162.747 264.969 164.644 263.843 169.533 263.843C169.533 266.391 167.903 268.495 164.851 268.495C163.547 268.495 162.747 267.873 162.747 266.747ZM176.085 270.748H179.048V264.524H186.011V270.748H188.974V255.931H186.011V261.857H179.048V255.931H176.085V270.748ZM192.694 270.748H195.657V263.784L202.264 270.748H206.264L198.827 262.983L205.701 255.931H202.145L195.657 262.598V255.931H192.694V270.748ZM211.74 270.748H214.703V258.598H219.859V255.931H206.585V258.598H211.74V270.748ZM231.143 264.524V261.857H221.217V264.524H231.143ZM234.741 270.748H237.852V252.819H248.074V270.748H251.185V250.004H234.741V270.748ZM261.894 268.466C259.168 268.466 257.449 266.569 257.242 263.873H269.508C269.568 263.576 269.597 263.25 269.597 262.954C269.597 258.894 266.457 255.634 261.894 255.634C257.331 255.634 254.19 259.013 254.19 263.339C254.19 267.814 257.331 271.044 261.894 271.044C265.716 271.044 268.175 269.296 269.034 266.154H266.19C265.597 267.518 264.294 268.466 261.894 268.466ZM261.894 258.212C264.294 258.212 265.894 259.694 266.427 261.798H257.39C257.953 259.635 259.642 258.212 261.894 258.212ZM276.121 270.748H279.084V258.598H284.24V255.931H270.966V258.598H276.121V270.748ZM293.028 268.466C290.302 268.466 288.583 266.569 288.376 263.873H300.642C300.702 263.576 300.731 263.25 300.731 262.954C300.731 258.894 297.591 255.634 293.028 255.634C288.465 255.634 285.324 259.013 285.324 263.339C285.324 267.814 288.465 271.044 293.028 271.044C296.85 271.044 299.309 269.296 300.168 266.154H297.324C296.731 267.518 295.428 268.466 293.028 268.466ZM293.028 258.212C295.428 258.212 297.028 259.694 297.561 261.798H288.524C289.087 259.635 290.776 258.212 293.028 258.212ZM306.537 255.931H303.574V276.674H306.537V267.429C307.604 269.622 309.619 271.044 312.315 271.044C316.434 271.044 319.13 267.636 319.13 263.339C319.13 259.042 316.374 255.634 312.315 255.634C309.619 255.634 307.604 257.057 306.537 259.25V255.931ZM311.278 258.301C314.063 258.301 316.019 260.257 316.019 263.339C316.019 266.421 314.063 268.377 311.278 268.377C308.611 268.377 306.537 266.332 306.537 263.339C306.537 260.376 308.611 258.301 311.278 258.301ZM329.059 271.044C333.77 271.044 336.91 267.755 336.91 263.635C336.91 259.576 334.333 256.257 330.125 256.257C327.34 256.257 325.059 257.857 324.081 260.168C324.199 255.753 325.503 253.886 330.54 253.234C333.592 252.849 335.666 252.226 336.14 249.411H333.355C333.147 250.152 332.081 250.389 330.066 250.626C323.844 251.367 321.236 254.449 321.236 261.62C321.236 264.169 321.562 266.184 322.54 267.695C323.696 269.533 326.036 271.044 329.059 271.044ZM329.059 268.377C326.303 268.377 324.347 266.421 324.347 263.635C324.347 260.909 326.303 258.924 329.059 258.924C331.844 258.924 333.799 260.909 333.799 263.635C333.799 266.421 331.844 268.377 329.059 268.377ZM346.065 271.518L352.346 255.931H349.472L345.116 266.984L340.702 255.931H337.531L343.517 270.807C342.568 273.444 341.976 274.007 338.865 274.007V276.674C343.309 276.674 344.465 275.519 346.065 271.518ZM357.261 255.931H354.298V276.674H357.261V267.429C358.327 269.622 360.342 271.044 363.038 271.044C367.157 271.044 369.853 267.636 369.853 263.339C369.853 259.042 367.098 255.634 363.038 255.634C360.342 255.634 358.327 257.057 357.261 259.25V255.931ZM362.001 258.301C364.787 258.301 366.742 260.257 366.742 263.339C366.742 266.421 364.787 268.377 362.001 268.377C359.335 268.377 357.261 266.332 357.261 263.339C357.261 260.376 359.335 258.301 362.001 258.301ZM372.7 270.748H375.663V258.598H382.715V255.931H372.7V270.748ZM391.32 268.466C388.594 268.466 386.875 266.569 386.668 263.873H398.935C398.994 263.576 399.024 263.25 399.024 262.954C399.024 258.894 395.883 255.634 391.32 255.634C386.757 255.634 383.616 259.013 383.616 263.339C383.616 267.814 386.757 271.044 391.32 271.044C395.142 271.044 397.601 269.296 398.461 266.154H395.616C395.024 267.518 393.72 268.466 391.32 268.466ZM391.32 258.212C393.72 258.212 395.32 259.694 395.853 261.798H386.816C387.379 259.635 389.068 258.212 391.32 258.212Z" fill="#191919"/>
<path id="Vector_5" d="M326.532 379.181V383.896H357.778V377.498H336.902L344.444 370.561C352.525 363.085 356.835 357.697 356.835 350.423C356.835 340.994 350.774 336.077 341.347 336.077C331.987 336.077 325.724 341.6 325.455 351.568H332.862C333.266 344.968 336.633 342.476 341.347 342.476C345.926 342.476 349.293 344.765 349.293 350.423C349.293 355.744 346.397 360.862 339.731 366.991L326.532 379.181ZM379.791 384.569C391.037 384.569 396.492 376.959 396.492 368.944C396.492 358.707 390.296 352.309 380.128 352.309C376.222 352.309 373.057 353.588 370.835 355.272L372.182 343.149H393.327V336.751H366.795L363.966 362.411H370.027C372.115 360.189 375.28 358.707 379.724 358.707C385.919 358.707 389.084 362.883 389.084 368.742C389.084 374.13 385.919 378.171 379.791 378.171C373.663 378.171 370.835 375.073 369.96 370.089H362.552C362.956 378.306 368.276 384.569 379.791 384.569Z" fill="#191919"/>
<path id="Vector_6" d="M220.594 412.856C220.535 416.531 220.12 417.598 217.927 417.598V420.561C221.987 420.561 223.231 418.546 223.379 412.916L223.498 408.115H228.89V420.265H231.853V405.448H220.742L220.594 412.856ZM242.391 417.983C239.665 417.983 237.946 416.087 237.739 413.39H250.005C250.065 413.094 250.094 412.768 250.094 412.471C250.094 408.411 246.954 405.152 242.391 405.152C237.828 405.152 234.687 408.53 234.687 412.856C234.687 417.331 237.828 420.561 242.391 420.561C246.213 420.561 248.672 418.813 249.531 415.672H246.687C246.094 417.035 244.791 417.983 242.391 417.983ZM242.391 407.73C244.791 407.73 246.391 409.211 246.924 411.315H237.887C238.45 409.152 240.139 407.73 242.391 407.73ZM256.618 420.265H259.581V408.115H264.737V405.448H251.463V408.115H256.618V420.265ZM274.291 420.265H277.254V414.042H284.217V420.265H287.18V405.448H284.217V411.375H277.254V405.448H274.291V420.265ZM300.203 410.99V411.227C293.418 411.227 290.307 413.034 290.307 416.413C290.307 419.08 292.055 420.561 294.84 420.561C297.892 420.561 299.463 418.872 300.203 416.709V420.265H303.166V411.286C303.166 407.167 301.003 405.152 297.003 405.152C293.329 405.152 291.018 406.959 290.544 410.397H293.507C293.744 408.856 294.929 407.819 297.003 407.819C299.018 407.819 300.203 408.856 300.203 410.99ZM293.418 416.264C293.418 414.486 295.315 413.36 300.203 413.36C300.203 415.909 298.574 418.013 295.522 418.013C294.218 418.013 293.418 417.39 293.418 416.264ZM316.722 405.448H313.759V426.192H316.722V416.946C317.789 419.139 319.803 420.561 322.5 420.561C326.618 420.561 329.315 417.153 329.315 412.856C329.315 408.56 326.559 405.152 322.5 405.152C319.803 405.152 317.789 406.574 316.722 408.767V405.448ZM321.463 407.819C324.248 407.819 326.203 409.775 326.203 412.856C326.203 415.938 324.248 417.894 321.463 417.894C318.796 417.894 316.722 415.85 316.722 412.856C316.722 409.893 318.796 407.819 321.463 407.819ZM332.162 420.265H338.651C342.651 420.265 344.428 417.687 344.428 415.138C344.428 412.56 342.651 410.101 338.651 410.101H335.125V405.448H332.162V420.265ZM346.413 420.265H349.376V405.448H346.413V420.265ZM338.562 412.708C340.517 412.708 341.317 413.894 341.317 415.138C341.317 416.531 340.517 417.628 338.71 417.628H335.125V412.708H338.562ZM353.111 420.265H356.074V414.042H363.037V420.265H366V405.448H363.037V411.375H356.074V405.448H353.111V420.265ZM369.72 420.265H372.683V413.301L379.29 420.265H383.29L375.853 412.501L382.727 405.448H379.172L372.683 412.116V405.448H369.72V420.265ZM391.32 417.983C388.594 417.983 386.875 416.087 386.668 413.39H398.935C398.994 413.094 399.024 412.768 399.024 412.471C399.024 408.411 395.883 405.152 391.32 405.152C386.757 405.152 383.616 408.53 383.616 412.856C383.616 417.331 386.757 420.561 391.32 420.561C395.142 420.561 397.601 418.813 398.461 415.672H395.616C395.024 417.035 393.72 417.983 391.32 417.983ZM391.32 407.73C393.72 407.73 395.32 409.211 395.853 411.315H386.816C387.379 409.152 389.068 407.73 391.32 407.73Z" fill="#191919"/>
<path id="Vector_7" d="M1.3468 0L1.34679 427" stroke="#191919" stroke-width="2"/>
</g>
<defs>
<clipPath id="clip0_2_319">
<rect width="400" height="427" fill="white"/>
</clipPath>
</defs>
</svg>
