<svg width="290" height="227" viewBox="0 0 290 227" fill="none" xmlns="http://www.w3.org/2000/svg">
<path d="M67.7398 26.32C74.5558 26.32 79.4198 21.232 79.4198 14.8C79.4198 8.36803 74.5558 3.28003 67.7398 3.28003C60.9238 3.28003 56.0598 8.36803 56.0598 14.8C56.0598 21.232 60.9238 26.32 67.7398 26.32ZM67.7398 23.28C62.9078 23.28 59.5798 19.536 59.5798 14.8C59.5798 10.064 62.9078 6.32003 67.7398 6.32003C72.5718 6.32003 75.8998 10.064 75.8998 14.8C75.8998 19.536 72.5718 23.28 67.7398 23.28Z" fill="#191919"/>
<path d="M90.2036 26H93.4036V18.48L100.54 26H104.86L96.8276 17.616L104.252 10H100.412L93.4036 17.2V10H90.2036V26Z" fill="#191919"/>
<path d="M113.692 26.32C118.652 26.32 122.172 22.64 122.172 18C122.172 13.36 118.652 9.68003 113.692 9.68003C108.732 9.68003 105.212 13.36 105.212 18C105.212 22.64 108.732 26.32 113.692 26.32ZM113.692 23.44C110.652 23.44 108.572 21.04 108.572 18C108.572 14.96 110.652 12.56 113.692 12.56C116.732 12.56 118.812 14.96 118.812 18C118.812 21.04 116.732 23.44 113.692 23.44Z" fill="#191919"/>
<path d="M125.235 26H128.275V13.776L133.203 26H135.763L140.691 13.776V26H143.891V10H139.379L134.643 21.808L129.875 10H125.235V26Z" fill="#191919"/>
<path d="M147.922 26H151.122V12.88H158.322V26H161.522V10H147.922V26Z" fill="#191919"/>
<path d="M175.595 15.984V16.24C168.267 16.24 164.907 18.192 164.907 21.84C164.907 24.72 166.795 26.32 169.803 26.32C173.099 26.32 174.795 24.496 175.595 22.16V26H178.795V16.304C178.795 11.856 176.459 9.68003 172.139 9.68003C168.171 9.68003 165.675 11.632 165.163 15.344H168.363C168.619 13.68 169.899 12.56 172.139 12.56C174.315 12.56 175.595 13.68 175.595 15.984ZM168.267 21.68C168.267 19.76 170.315 18.544 175.595 18.544C175.595 21.296 173.835 23.568 170.539 23.568C169.131 23.568 168.267 22.896 168.267 21.68Z" fill="#191919"/>
<path d="M182.672 26H185.872V19.28H193.392V26H196.592V10H193.392V16.4H185.872V10H182.672V26Z" fill="#191919"/>
<path d="M200.61 26H203.81L211.65 14.608V26H214.85V10H211.65L203.81 21.392V10H200.61V26Z" fill="#191919"/>
<path d="M218.891 26H222.091L229.931 14.608V26H233.131V10H229.931L222.091 21.392V10H218.891V26Z" fill="#191919"/>
<path d="M11.8383 61.128L9.64632 58.824L11.8383 56.52L10.7983 55.64L7.72632 58.888L10.7983 62.12L11.8383 61.128ZM15.2783 61.128L13.0863 58.824L15.2783 56.52L14.2383 55.64L11.1663 58.888L14.2383 62.12L15.2783 61.128Z" fill="#191919"/>
<path d="M16.2128 63H17.8608L19.0448 59.88H23.6528L24.8528 63H26.6128L22.2928 51.8H20.5328L16.2128 63ZM19.6048 58.44L21.3328 53.88L23.0928 58.44H19.6048Z" fill="#191919"/>
<path d="M30.7593 63.16C33.2233 63.16 34.2473 61.976 34.2473 60.68C34.2473 59.784 33.6073 59.064 32.5833 58.84C33.4953 58.6 33.9913 57.912 33.9913 57.096C33.9913 55.88 33.0153 54.84 30.7753 54.84C28.7433 54.84 27.4633 55.896 27.3033 57.544H28.9673C29.1113 56.888 29.5433 56.28 30.7433 56.28C31.8153 56.28 32.3113 56.76 32.3113 57.352C32.3113 57.928 31.9433 58.312 30.8073 58.312H29.7033V59.672H31.0473C32.1513 59.672 32.5673 60.088 32.5673 60.632C32.5673 61.208 32.1993 61.72 30.7593 61.72C29.5433 61.72 28.9993 61.208 28.8073 60.376H27.1433C27.3033 62.024 28.4233 63.16 30.7593 63.16Z" fill="#191919"/>
<path d="M39.6836 63.16C42.2276 63.16 43.9236 61.384 43.9236 59.16C43.9236 56.968 42.5316 55.176 40.2596 55.176C38.7556 55.176 37.5236 56.04 36.9956 57.288C37.0596 54.904 37.7636 53.896 40.4836 53.544C42.1316 53.336 43.2516 53 43.5076 51.48H42.0036C41.8916 51.88 41.3156 52.008 40.2276 52.136C36.8676 52.536 35.4596 54.2 35.4596 58.072C35.4596 59.448 35.6356 60.536 36.1636 61.352C36.7876 62.344 38.0516 63.16 39.6836 63.16ZM39.6836 61.72C38.1956 61.72 37.1396 60.664 37.1396 59.16C37.1396 57.688 38.1956 56.616 39.6836 56.616C41.1876 56.616 42.2436 57.688 42.2436 59.16C42.2436 60.664 41.1876 61.72 39.6836 61.72Z" fill="#191919"/>
<path d="M48.8669 63.416L52.2589 55H50.7069L48.3549 60.968L45.9709 55H44.2589L47.4909 63.032C46.9789 64.456 46.6589 64.76 44.9789 64.76V66.2C47.3789 66.2 48.0029 65.576 48.8669 63.416Z" fill="#191919"/>
<path d="M53.3127 63H54.9127V59.24L58.4807 63H60.6407L56.6247 58.808L60.3367 55H58.4167L54.9127 58.6V55H53.3127V63Z" fill="#191919"/>
<path d="M66.3211 57.992V58.12C62.6571 58.12 60.9771 59.096 60.9771 60.92C60.9771 62.36 61.9211 63.16 63.4251 63.16C65.0731 63.16 65.9211 62.248 66.3211 61.08V63H67.9211V58.152C67.9211 55.928 66.7531 54.84 64.5931 54.84C62.6091 54.84 61.3611 55.816 61.1051 57.672H62.7051C62.8331 56.84 63.4731 56.28 64.5931 56.28C65.6811 56.28 66.3211 56.84 66.3211 57.992ZM62.6571 60.84C62.6571 59.88 63.6811 59.272 66.3211 59.272C66.3211 60.648 65.4411 61.784 63.7931 61.784C63.0891 61.784 62.6571 61.448 62.6571 60.84Z" fill="#191919"/>
<path d="M101.785 61.72C100.345 61.72 99.3368 60.648 99.3368 59C99.3368 57.368 100.313 56.28 101.785 56.28C102.969 56.28 103.657 56.856 103.961 57.88H105.561C105.257 56.008 103.897 54.84 101.785 54.84C99.3368 54.84 97.6568 56.696 97.6568 59C97.6568 61.32 99.3368 63.16 101.817 63.16C103.849 63.16 105.241 62.072 105.625 60.04H104.025C103.737 61.16 102.969 61.72 101.785 61.72ZM112.105 57.992V58.12C108.441 58.12 106.761 59.096 106.761 60.92C106.761 62.36 107.705 63.16 109.209 63.16C110.857 63.16 111.705 62.248 112.105 61.08V63H113.705V58.152C113.705 55.928 112.537 54.84 110.377 54.84C108.393 54.84 107.145 55.816 106.889 57.672H108.489C108.617 56.84 109.257 56.28 110.377 56.28C111.465 56.28 112.105 56.84 112.105 57.992ZM93.8488 63.416L97.2408 55H95.6888L93.3368 60.968L90.9528 55H89.2408L92.4728 63.032C91.9608 64.456 91.6408 64.76 89.9608 64.76V66.2C92.3608 66.2 92.9848 65.576 93.8488 63.416ZM73.6408 63H77.4648C79.6568 63 80.3608 61.848 80.3608 60.76C80.3608 59.688 79.6408 59.08 78.4728 58.888C79.4968 58.616 80.0088 57.912 80.0088 57.08C80.0088 55.752 79.0328 55 77.2568 55H73.6408V63ZM81.9288 63H83.5288V59.24L87.0968 63H89.2568L85.2408 58.808L88.9528 55H87.0328L83.5288 58.6V55H81.9288V63ZM77.1768 58.328H75.2088V56.36H77.1768C78.0088 56.36 78.3608 56.792 78.3608 57.352C78.3608 57.896 78.0088 58.328 77.1768 58.328ZM108.441 60.84C108.441 59.88 109.465 59.272 112.105 59.272C112.105 60.648 111.225 61.784 109.577 61.784C108.873 61.784 108.441 61.448 108.441 60.84ZM77.2888 59.608C78.3288 59.608 78.6808 60.088 78.6808 60.6C78.6808 61.176 78.3288 61.64 77.3688 61.64H75.2088V59.608H77.2888Z" fill="#191919"/>
<path d="M119.241 56.632L121.433 58.936L119.241 61.24L120.281 62.12L123.353 58.872L120.281 55.64L119.241 56.632ZM115.801 56.632L117.993 58.936L115.801 61.24L116.841 62.12L119.913 58.872L116.841 55.64L115.801 56.632Z" fill="#191919"/>
<path d="M132.445 63.416L135.837 55H134.285L131.933 60.968L129.549 55H127.837L131.069 63.032C130.557 64.456 130.237 64.76 128.557 64.76V66.2C130.957 66.2 131.581 65.576 132.445 63.416Z" fill="#191919"/>
<path d="M141.103 63H142.703V59.256L146.111 63H148.223L144.383 58.808L147.919 55H146.047L142.703 58.6V55H141.103V58.6L137.759 55H135.807L139.423 58.888L135.663 63H137.695L141.103 59.256V63Z" fill="#191919"/>
<path d="M152.618 61.768C151.146 61.768 150.218 60.744 150.106 59.288H156.73C156.762 59.128 156.778 58.952 156.778 58.792C156.778 56.6 155.082 54.84 152.618 54.84C150.154 54.84 148.458 56.664 148.458 59C148.458 61.416 150.154 63.16 152.618 63.16C154.682 63.16 156.01 62.216 156.474 60.52H154.938C154.618 61.256 153.914 61.768 152.618 61.768ZM152.618 56.232C153.914 56.232 154.778 57.032 155.066 58.168H150.186C150.49 57 151.402 56.232 152.618 56.232Z" fill="#191919"/>
<path d="M161.374 64.76H162.894V63H168.75V64.76H170.27V61.56H169.15V55H163.022V55.912C163.022 59.368 162.702 60.776 162.366 61.56H161.374V64.76ZM163.95 61.56C164.238 60.824 164.494 59.688 164.526 56.44H167.55V61.56H163.95Z" fill="#191919"/>
<path d="M176.509 57.992V58.12C172.845 58.12 171.165 59.096 171.165 60.92C171.165 62.36 172.109 63.16 173.613 63.16C175.261 63.16 176.109 62.248 176.509 61.08V63H178.109V58.152C178.109 55.928 176.941 54.84 174.781 54.84C172.797 54.84 171.549 55.816 171.293 57.672H172.893C173.021 56.84 173.661 56.28 174.781 56.28C175.869 56.28 176.509 56.84 176.509 57.992ZM172.845 60.84C172.845 59.88 173.869 59.272 176.509 59.272C176.509 60.648 175.629 61.784 173.981 61.784C173.277 61.784 172.845 61.448 172.845 60.84Z" fill="#191919"/>
<path d="M180.047 63H183.871C186.063 63 186.767 61.848 186.767 60.76C186.767 59.688 186.047 59.08 184.879 58.888C185.903 58.616 186.415 57.912 186.415 57.08C186.415 55.752 185.439 55 183.663 55H180.047V63ZM183.583 58.328H181.615V56.36H183.583C184.415 56.36 184.767 56.792 184.767 57.352C184.767 57.896 184.415 58.328 183.583 58.328ZM183.695 59.608C184.735 59.608 185.087 60.088 185.087 60.6C185.087 61.176 184.735 61.64 183.775 61.64H181.615V59.608H183.695Z" fill="#191919"/>
<path d="M188.313 63H189.913V59.64H193.673V63H195.273V55H193.673V58.2H189.913V55H188.313V63Z" fill="#191919"/>
<path d="M201.041 63.16C203.521 63.16 205.281 61.32 205.281 59C205.281 56.68 203.521 54.84 201.041 54.84C198.561 54.84 196.801 56.68 196.801 59C196.801 61.32 198.561 63.16 201.041 63.16ZM201.041 61.72C199.521 61.72 198.481 60.52 198.481 59C198.481 57.48 199.521 56.28 201.041 56.28C202.561 56.28 203.601 57.48 203.601 59C203.601 60.52 202.561 61.72 201.041 61.72Z" fill="#191919"/>
<path d="M210.594 63H212.194V59.64H215.954V63H217.554V55H215.954V58.2H212.194V55H210.594V63Z" fill="#191919"/>
<path d="M223.243 61.768C221.771 61.768 220.843 60.744 220.731 59.288H227.355C227.387 59.128 227.403 58.952 227.403 58.792C227.403 56.6 225.707 54.84 223.243 54.84C220.779 54.84 219.083 56.664 219.083 59C219.083 61.416 220.779 63.16 223.243 63.16C225.307 63.16 226.635 62.216 227.099 60.52H225.563C225.243 61.256 224.539 61.768 223.243 61.768ZM223.243 56.232C224.539 56.232 225.403 57.032 225.691 58.168H220.811C221.115 57 222.027 56.232 223.243 56.232Z" fill="#191919"/>
<path d="M234.863 63H236.463V56.44H239.247V55H232.079V56.44H234.863V63Z" fill="#191919"/>
<path d="M244.073 63.16C246.553 63.16 248.313 61.32 248.313 59C248.313 56.68 246.553 54.84 244.073 54.84C241.593 54.84 239.833 56.68 239.833 59C239.833 61.32 241.593 63.16 244.073 63.16ZM244.073 61.72C242.553 61.72 241.513 60.52 241.513 59C241.513 57.48 242.553 56.28 244.073 56.28C245.593 56.28 246.633 57.48 246.633 59C246.633 60.52 245.593 61.72 244.073 61.72Z" fill="#191919"/>
<path d="M250.331 59C250.299 60.984 250.075 61.56 248.891 61.56V63.16C251.083 63.16 251.755 62.072 251.835 59.032L251.899 56.44H254.811V63H256.411V55H250.411L250.331 59Z" fill="#191919"/>
<path d="M258.422 63H261.926C264.086 63 265.046 61.608 265.046 60.232C265.046 58.84 264.086 57.512 261.926 57.512H260.022V55H258.422V63ZM261.878 58.92C262.934 58.92 263.366 59.56 263.366 60.232C263.366 60.984 262.934 61.576 261.958 61.576H260.022V58.92H261.878Z" fill="#191919"/>
<path d="M266.422 63H268.022V59.24L271.59 63H273.75L269.734 58.808L273.446 55H271.526L268.022 58.6V55H266.422V63Z" fill="#191919"/>
<path d="M278.166 63.16C280.646 63.16 282.406 61.32 282.406 59C282.406 56.68 280.646 54.84 278.166 54.84C275.686 54.84 273.926 56.68 273.926 59C273.926 61.32 275.686 63.16 278.166 63.16ZM278.166 61.72C276.646 61.72 275.606 60.52 275.606 59C275.606 57.48 276.646 56.28 278.166 56.28C279.686 56.28 280.726 57.48 280.726 59C280.726 60.52 279.686 61.72 278.166 61.72Z" fill="#191919"/>
<path d="M39.6352 83.16C42.1152 83.16 43.8752 81.32 43.8752 79C43.8752 76.68 42.1152 74.84 39.6352 74.84C37.1552 74.84 35.3952 76.68 35.3952 79C35.3952 81.32 37.1552 83.16 39.6352 83.16ZM39.6352 81.72C38.1152 81.72 37.0752 80.52 37.0752 79C37.0752 77.48 38.1152 76.28 39.6352 76.28C41.1552 76.28 42.1952 77.48 42.1952 79C42.1952 80.52 41.1552 81.72 39.6352 81.72Z" fill="#191919"/>
<path d="M44.5302 84.76H46.0502V83H51.9062V84.76H53.4262V81.56H52.3062V75H46.1782V75.912C46.1782 79.368 45.8582 80.776 45.5222 81.56H44.5302V84.76ZM47.1062 81.56C47.3942 80.824 47.6502 79.688 47.6822 76.44H50.7062V81.56H47.1062Z" fill="#191919"/>
<path d="M54.7189 83H56.3189L60.2389 77.304V83H61.8389V75H60.2389L56.3189 80.696V75H54.7189V83Z" fill="#191919"/>
<path d="M63.8596 83H65.4596V79.64H69.2196V83H70.8196V75H69.2196V78.2H65.4596V75H63.8596V83Z" fill="#191919"/>
<path d="M76.6096 83H78.2096L82.1296 77.304V83H83.7296V75H82.1296L78.2096 80.696V75H76.6096V83Z" fill="#191919"/>
<path d="M88.8062 83.16C91.2702 83.16 92.2942 81.976 92.2942 80.68C92.2942 79.784 91.6542 79.064 90.6302 78.84C91.5422 78.6 92.0382 77.912 92.0382 77.096C92.0382 75.88 91.0622 74.84 88.8222 74.84C86.7902 74.84 85.5102 75.896 85.3502 77.544H87.0142C87.1582 76.888 87.5902 76.28 88.7902 76.28C89.8622 76.28 90.3582 76.76 90.3582 77.352C90.3582 77.928 89.9902 78.312 88.8542 78.312H87.7502V79.672H89.0942C90.1982 79.672 90.6142 80.088 90.6142 80.632C90.6142 81.208 90.2462 81.72 88.8062 81.72C87.5902 81.72 87.0462 81.208 86.8542 80.376H85.1902C85.3502 82.024 86.4702 83.16 88.8062 83.16Z" fill="#191919"/>
<path d="M98.4877 79C98.4557 80.984 98.2317 81.56 97.0477 81.56V83.16C99.2397 83.16 99.9117 82.072 99.9917 79.032L100.056 76.44H102.968V83H104.568V75H98.5677L98.4877 79Z" fill="#191919"/>
<path d="M110.226 83.416L113.618 75H112.066L109.714 80.968L107.33 75H105.618L108.85 83.032C108.338 84.456 108.018 84.76 106.338 84.76V86.2C108.738 86.2 109.362 85.576 110.226 83.416Z" fill="#191919"/>
<path d="M114.512 77.08C114.512 79.544 116 80.248 117.872 80.248C118.528 80.248 119.136 80.168 119.712 80.024V83H121.312V75H119.712V78.632C119.2 78.76 118.688 78.808 118.208 78.808C116.848 78.808 116.112 78.376 116.112 77.08V75H114.512V77.08Z" fill="#191919"/>
<path d="M123.328 83H134.208V75H132.608V81.528H129.568V75H127.968V81.528H124.928V75H123.328V83Z" fill="#191919"/>
<path d="M136.219 83H137.819L141.739 77.304V83H143.339V75H141.739L137.819 80.696V75H136.219V83Z" fill="#191919"/>
<path d="M146.32 83L148.416 80.136L150.48 83H152.384L149.44 78.92L152.256 75H150.528L148.608 77.752L146.624 75H144.72L147.584 78.968L144.56 83H146.32Z" fill="#191919"/>
<path d="M157.375 83H158.975V76.44H162.575V83H164.175V75H157.375V83Z" fill="#191919"/>
<path d="M167.788 75H166.188V86.2H167.788V81.208C168.364 82.392 169.452 83.16 170.908 83.16C173.132 83.16 174.588 81.32 174.588 79C174.588 76.68 173.1 74.84 170.908 74.84C169.452 74.84 168.364 75.608 167.788 76.792V75ZM170.348 76.28C171.852 76.28 172.908 77.336 172.908 79C172.908 80.664 171.852 81.72 170.348 81.72C168.908 81.72 167.788 80.616 167.788 79C167.788 77.4 168.908 76.28 170.348 76.28Z" fill="#191919"/>
<path d="M179.885 83.16C182.365 83.16 184.125 81.32 184.125 79C184.125 76.68 182.365 74.84 179.885 74.84C177.405 74.84 175.645 76.68 175.645 79C175.645 81.32 177.405 83.16 179.885 83.16ZM179.885 81.72C178.365 81.72 177.325 80.52 177.325 79C177.325 77.48 178.365 76.28 179.885 76.28C181.405 76.28 182.445 77.48 182.445 79C182.445 80.52 181.405 81.72 179.885 81.72Z" fill="#191919"/>
<path d="M184.78 84.76H186.3V83H192.156V84.76H193.676V81.56H192.556V75H186.428V75.912C186.428 79.368 186.108 80.776 185.772 81.56H184.78V84.76ZM187.356 81.56C187.644 80.824 187.9 79.688 187.932 76.44H190.956V81.56H187.356Z" fill="#191919"/>
<path d="M198.617 83.416L202.009 75H200.457L198.105 80.968L195.721 75H194.009L197.241 83.032C196.729 84.456 196.409 84.76 194.729 84.76V86.2C197.129 86.2 197.753 85.576 198.617 83.416Z" fill="#191919"/>
<path d="M203.063 83H204.663V79.24L208.231 83H210.391L206.375 78.808L210.087 75H208.167L204.663 78.6V75H203.063V83Z" fill="#191919"/>
<path d="M213.347 83H214.947V76.44H217.731V75H210.563V76.44H213.347V83Z" fill="#191919"/>
<path d="M222.557 83.16C225.037 83.16 226.797 81.32 226.797 79C226.797 76.68 225.037 74.84 222.557 74.84C220.077 74.84 218.317 76.68 218.317 79C218.317 81.32 220.077 83.16 222.557 83.16ZM222.557 81.72C221.037 81.72 219.997 80.52 219.997 79C219.997 77.48 221.037 76.28 222.557 76.28C224.077 76.28 225.117 77.48 225.117 79C225.117 80.52 224.077 81.72 222.557 81.72Z" fill="#191919"/>
<path d="M228.328 83H232.152C234.344 83 235.048 81.848 235.048 80.76C235.048 79.688 234.328 79.08 233.16 78.888C234.184 78.616 234.696 77.912 234.696 77.08C234.696 75.752 233.72 75 231.944 75H228.328V83ZM231.864 78.328H229.896V76.36H231.864C232.696 76.36 233.048 76.792 233.048 77.352C233.048 77.896 232.696 78.328 231.864 78.328ZM231.976 79.608C233.016 79.608 233.368 80.088 233.368 80.6C233.368 81.176 233.016 81.64 232.056 81.64H229.896V79.608H231.976Z" fill="#191919"/>
<path d="M236.594 83H240.098C242.258 83 243.218 81.608 243.218 80.232C243.218 78.84 242.258 77.512 240.098 77.512H238.194V75H236.594V83ZM244.29 83H245.89V75H244.29V83ZM240.05 78.92C241.106 78.92 241.538 79.56 241.538 80.232C241.538 80.984 241.106 81.576 240.13 81.576H238.194V78.92H240.05Z" fill="#191919"/>
<path d="M248.866 83L250.962 80.136L253.026 83H254.93L251.986 78.92L254.802 75H253.074L251.154 77.752L249.17 75H247.266L250.13 78.968L247.106 83H248.866Z" fill="#191919"/>
<path d="M49.8033 95H48.2033V106.2H49.8033V101.208C50.3793 102.392 51.4673 103.16 52.9233 103.16C55.1473 103.16 56.6033 101.32 56.6033 99C56.6033 96.68 55.1153 94.84 52.9233 94.84C51.4673 94.84 50.3793 95.608 49.8033 96.792V95ZM52.3633 96.28C53.8673 96.28 54.9233 97.336 54.9233 99C54.9233 100.664 53.8673 101.72 52.3633 101.72C50.9233 101.72 49.8033 100.616 49.8033 99C49.8033 97.4 50.9233 96.28 52.3633 96.28Z" fill="#191919"/>
<path d="M58.1408 103H59.7408L63.6608 97.304V103H65.2608V95H63.6608L59.7408 100.696V95H58.1408V103Z" fill="#191919"/>
<path d="M69.4254 103H71.0254V96.44H73.8094V95H66.6414V96.44H69.4254V103Z" fill="#191919"/>
<path d="M78.5552 101.768C77.0832 101.768 76.1552 100.744 76.0432 99.288H82.6672C82.6992 99.128 82.7152 98.952 82.7152 98.792C82.7152 96.6 81.0192 94.84 78.5552 94.84C76.0912 94.84 74.3952 96.664 74.3952 99C74.3952 101.416 76.0912 103.16 78.5552 103.16C80.6192 103.16 81.9472 102.216 82.4112 100.52H80.8752C80.5552 101.256 79.8512 101.768 78.5552 101.768ZM78.5552 96.232C79.8512 96.232 80.7152 97.032 81.0032 98.168H76.1232C76.4272 97 77.3392 96.232 78.5552 96.232Z" fill="#191919"/>
<path d="M85.3702 91.8C85.3702 93.144 86.2502 94.04 87.8182 94.04C89.3862 94.04 90.2662 93.144 90.2662 91.8H88.8422C88.8422 92.552 88.4582 92.904 87.8182 92.904C87.1782 92.904 86.7942 92.552 86.7942 91.8H85.3702ZM84.2502 103H85.8502L89.7702 97.304V103H91.3702V95H89.7702L85.8502 100.696V95H84.2502V103Z" fill="#191919"/>
<path d="M94.1908 99C94.1588 100.984 93.9348 101.56 92.7508 101.56V103.16C94.9428 103.16 95.6148 102.072 95.6948 99.032L95.7588 96.44H98.6708V103H100.271V95H94.2708L94.1908 99Z" fill="#191919"/>
<path d="M106.041 103.16C108.521 103.16 110.281 101.32 110.281 99C110.281 96.68 108.521 94.84 106.041 94.84C103.561 94.84 101.801 96.68 101.801 99C101.801 101.32 103.561 103.16 106.041 103.16ZM106.041 101.72C104.521 101.72 103.481 100.52 103.481 99C103.481 97.48 104.521 96.28 106.041 96.28C107.561 96.28 108.601 97.48 108.601 99C108.601 100.52 107.561 101.72 106.041 101.72Z" fill="#191919"/>
<path d="M111.813 103H115.637C117.829 103 118.533 101.848 118.533 100.76C118.533 99.688 117.813 99.08 116.645 98.888C117.669 98.616 118.181 97.912 118.181 97.08C118.181 95.752 117.205 95 115.429 95H111.813V103ZM115.349 98.328H113.381V96.36H115.349C116.181 96.36 116.533 96.792 116.533 97.352C116.533 97.896 116.181 98.328 115.349 98.328ZM115.461 99.608C116.501 99.608 116.853 100.088 116.853 100.6C116.853 101.176 116.501 101.64 115.541 101.64H113.381V99.608H115.461Z" fill="#191919"/>
<path d="M120.348 104.44H121.212L121.9 102.936C122.14 102.408 122.204 102.136 122.204 101.944C122.204 101.288 121.676 100.808 121.02 100.808C120.348 100.808 119.836 101.288 119.836 101.944C119.836 102.36 120.012 102.76 120.62 103.032L120.348 104.44Z" fill="#191919"/>
<path d="M127.688 103H129.208V96.888L131.672 103H132.952L135.416 96.888V103H137.016V95H134.76L132.392 100.904L130.008 95H127.688V103Z" fill="#191919"/>
<path d="M139.031 103H142.535C144.695 103 145.655 101.608 145.655 100.232C145.655 98.84 144.695 97.512 142.535 97.512H140.631V95H139.031V103ZM146.727 103H148.327V95H146.727V103ZM142.487 98.92C143.543 98.92 143.975 99.56 143.975 100.232C143.975 100.984 143.543 101.576 142.567 101.576H140.631V98.92H142.487Z" fill="#191919"/>
<path d="M157.773 101.72C156.333 101.72 155.325 100.648 155.325 99C155.325 97.368 156.301 96.28 157.773 96.28C158.957 96.28 159.645 96.856 159.949 97.88H161.549C161.245 96.008 159.885 94.84 157.773 94.84C155.325 94.84 153.645 96.696 153.645 99C153.645 101.32 155.325 103.16 157.805 103.16C159.837 103.16 161.229 102.072 161.613 100.04H160.013C159.725 101.16 158.957 101.72 157.773 101.72Z" fill="#191919"/>
<path d="M165.144 103H166.744V96.44H169.528V95H162.36V96.44H165.144V103Z" fill="#191919"/>
<path d="M175.618 97.992V98.12C171.954 98.12 170.274 99.096 170.274 100.92C170.274 102.36 171.218 103.16 172.722 103.16C174.37 103.16 175.218 102.248 175.618 101.08V103H177.218V98.152C177.218 95.928 176.05 94.84 173.89 94.84C171.906 94.84 170.658 95.816 170.402 97.672H172.002C172.13 96.84 172.77 96.28 173.89 96.28C174.978 96.28 175.618 96.84 175.618 97.992ZM171.954 100.84C171.954 99.88 172.978 99.272 175.618 99.272C175.618 100.648 174.738 101.784 173.09 101.784C172.386 101.784 171.954 101.448 171.954 100.84Z" fill="#191919"/>
<path d="M179.156 103H180.756V99.64H184.516V103H186.116V95H184.516V98.2H180.756V95H179.156V103Z" fill="#191919"/>
<path d="M191.885 103.16C194.365 103.16 196.125 101.32 196.125 99C196.125 96.68 194.365 94.84 191.885 94.84C189.405 94.84 187.645 96.68 187.645 99C187.645 101.32 189.405 103.16 191.885 103.16ZM191.885 101.72C190.365 101.72 189.325 100.52 189.325 99C189.325 97.48 190.365 96.28 191.885 96.28C193.405 96.28 194.445 97.48 194.445 99C194.445 100.52 193.405 101.72 191.885 101.72Z" fill="#191919"/>
<path d="M197.656 103H201.48C203.672 103 204.376 101.848 204.376 100.76C204.376 99.688 203.656 99.08 202.488 98.888C203.512 98.616 204.024 97.912 204.024 97.08C204.024 95.752 203.048 95 201.272 95H197.656V103ZM201.192 98.328H199.224V96.36H201.192C202.024 96.36 202.376 96.792 202.376 97.352C202.376 97.896 202.024 98.328 201.192 98.328ZM201.304 99.608C202.344 99.608 202.696 100.088 202.696 100.6C202.696 101.176 202.344 101.64 201.384 101.64H199.224V99.608H201.304Z" fill="#191919"/>
<path d="M205.922 103H207.522L211.442 97.304V103H213.042V95H211.442L207.522 100.696V95H205.922V103Z" fill="#191919"/>
<path d="M215.063 103H216.583V96.888L219.047 103H220.327L222.791 96.888V103H224.391V95H222.135L219.767 100.904L217.383 95H215.063V103Z" fill="#191919"/>
<path d="M230.054 101.72C228.614 101.72 227.606 100.648 227.606 99C227.606 97.368 228.582 96.28 230.054 96.28C231.238 96.28 231.926 96.856 232.23 97.88H233.83C233.526 96.008 232.166 94.84 230.054 94.84C227.606 94.84 225.926 96.696 225.926 99C225.926 101.32 227.606 103.16 230.086 103.16C232.118 103.16 233.51 102.072 233.894 100.04H232.294C232.006 101.16 231.238 101.72 230.054 101.72Z" fill="#191919"/>
<path d="M236.641 103L238.865 100.168H240.193V103H241.793V95H238.289C236.129 95 235.169 96.344 235.169 97.688C235.169 98.824 235.857 99.656 237.169 99.96L234.721 103H236.641ZM238.337 98.92C237.281 98.92 236.849 98.312 236.849 97.688C236.849 96.984 237.281 96.424 238.257 96.424H240.193V98.92H238.337Z" fill="#191919"/>
<path d="M66.8933 121.752C65.6453 121.752 64.8293 121.208 64.5413 120.12H62.9733C63.3253 122.136 64.7333 123.16 66.8613 123.16C69.4533 123.16 70.9413 121.32 70.9413 119C70.9413 116.696 69.4533 114.84 66.8933 114.84C64.6853 114.84 63.3573 115.976 63.0373 117.8H64.6053C64.9093 116.808 65.6453 116.248 66.8933 116.248C68.1893 116.248 69.0373 117.016 69.2773 118.248H65.8853V119.608H69.2933C69.1013 120.92 68.2213 121.752 66.8933 121.752Z" fill="#191919"/>
<path d="M72.4846 123H74.0846V119.24L77.6526 123H79.8126L75.7966 118.808L79.5086 115H77.5886L74.0846 118.6V115H72.4846V123Z" fill="#191919"/>
<path d="M84.2289 123.16C86.7089 123.16 88.4689 121.32 88.4689 119C88.4689 116.68 86.7089 114.84 84.2289 114.84C81.7489 114.84 79.9889 116.68 79.9889 119C79.9889 121.32 81.7489 123.16 84.2289 123.16ZM84.2289 121.72C82.7089 121.72 81.6689 120.52 81.6689 119C81.6689 117.48 82.7089 116.28 84.2289 116.28C85.7489 116.28 86.7889 117.48 86.7889 119C86.7889 120.52 85.7489 121.72 84.2289 121.72Z" fill="#191919"/>
<path d="M93.6482 121.72C92.2082 121.72 91.2002 120.648 91.2002 119C91.2002 117.368 92.1762 116.28 93.6482 116.28C94.8322 116.28 95.5202 116.856 95.8242 117.88H97.4242C97.1202 116.008 95.7602 114.84 93.6482 114.84C91.2002 114.84 89.5202 116.696 89.5202 119C89.5202 121.32 91.2002 123.16 93.6802 123.16C95.7122 123.16 97.1042 122.072 97.4882 120.04H95.8882C95.6002 121.16 94.8322 121.72 93.6482 121.72Z" fill="#191919"/>
<path d="M99.0314 123H100.631L104.551 117.304V123H106.151V115H104.551L100.631 120.696V115H99.0314V123Z" fill="#191919"/>
<path d="M111.82 121.72C110.38 121.72 109.372 120.648 109.372 119C109.372 117.368 110.348 116.28 111.82 116.28C113.004 116.28 113.692 116.856 113.996 117.88H115.596C115.292 116.008 113.932 114.84 111.82 114.84C109.372 114.84 107.692 116.696 107.692 119C107.692 121.32 109.372 123.16 111.852 123.16C113.884 123.16 115.276 122.072 115.66 120.04H114.06C113.772 121.16 113.004 121.72 111.82 121.72Z" fill="#191919"/>
<path d="M119.191 123H120.791V116.44H123.575V115H116.407V116.44H119.191V123Z" fill="#191919"/>
<path d="M128.321 121.768C126.849 121.768 125.921 120.744 125.809 119.288H132.433C132.465 119.128 132.481 118.952 132.481 118.792C132.481 116.6 130.785 114.84 128.321 114.84C125.857 114.84 124.161 116.664 124.161 119C124.161 121.416 125.857 123.16 128.321 123.16C130.385 123.16 131.713 122.216 132.177 120.52H130.641C130.321 121.256 129.617 121.768 128.321 121.768ZM128.321 116.232C129.617 116.232 130.481 117.032 130.769 118.168H125.889C126.193 117 127.105 116.232 128.321 116.232Z" fill="#191919"/>
<path d="M134.016 123H135.536V116.888L138 123H139.28L141.744 116.888V123H143.344V115H141.088L138.72 120.904L136.336 115H134.016V123Z" fill="#191919"/>
<path d="M149.12 123.16C151.6 123.16 153.36 121.32 153.36 119C153.36 116.68 151.6 114.84 149.12 114.84C146.64 114.84 144.88 116.68 144.88 119C144.88 121.32 146.64 123.16 149.12 123.16ZM149.12 121.72C147.6 121.72 146.56 120.52 146.56 119C146.56 117.48 147.6 116.28 149.12 116.28C150.64 116.28 151.68 117.48 151.68 119C151.68 120.52 150.64 121.72 149.12 121.72Z" fill="#191919"/>
<path d="M156.011 111.8C156.011 113.144 156.891 114.04 158.459 114.04C160.027 114.04 160.907 113.144 160.907 111.8H159.483C159.483 112.552 159.099 112.904 158.459 112.904C157.819 112.904 157.435 112.552 157.435 111.8H156.011ZM154.891 123H156.491L160.411 117.304V123H162.011V115H160.411L156.491 120.696V115H154.891V123Z" fill="#191919"/>
<path d="M167.813 123H169.413V116.44H173.013V123H174.613V115H167.813V123Z" fill="#191919"/>
<path d="M176.625 123H178.225L182.145 117.304V123H183.745V115H182.145L178.225 120.696V115H176.625V123Z" fill="#191919"/>
<path d="M187.91 123H189.51V116.44H192.294V115H185.126V116.44H187.91V123Z" fill="#191919"/>
<path d="M198.384 117.992V118.12C194.72 118.12 193.04 119.096 193.04 120.92C193.04 122.36 193.984 123.16 195.488 123.16C197.136 123.16 197.984 122.248 198.384 121.08V123H199.984V118.152C199.984 115.928 198.816 114.84 196.656 114.84C194.672 114.84 193.424 115.816 193.168 117.672H194.768C194.896 116.84 195.536 116.28 196.656 116.28C197.744 116.28 198.384 116.84 198.384 117.992ZM194.72 120.84C194.72 119.88 195.744 119.272 198.384 119.272C198.384 120.648 197.504 121.784 195.856 121.784C195.152 121.784 194.72 121.448 194.72 120.84Z" fill="#191919"/>
<path d="M201.922 123H203.522V119.64H207.282V123H208.882V115H207.282V118.2H203.522V115H201.922V123Z" fill="#191919"/>
<path d="M210.891 123H212.491L216.411 117.304V123H218.011V115H216.411L212.491 120.696V115H210.891V123Z" fill="#191919"/>
<path d="M221.391 123L223.615 120.168H224.943V123H226.543V115H223.039C220.879 115 219.919 116.344 219.919 117.688C219.919 118.824 220.607 119.656 221.919 119.96L219.471 123H221.391ZM223.087 118.92C222.031 118.92 221.599 118.312 221.599 117.688C221.599 116.984 222.031 116.424 223.007 116.424H224.943V118.92H223.087Z" fill="#191919"/>
<path d="M15.1716 141.72C13.7316 141.72 12.7236 140.648 12.7236 139C12.7236 137.368 13.6996 136.28 15.1716 136.28C16.3556 136.28 17.0436 136.856 17.3476 137.88H18.9476C18.6436 136.008 17.2836 134.84 15.1716 134.84C12.7236 134.84 11.0436 136.696 11.0436 139C11.0436 141.32 12.7236 143.16 15.2036 143.16C17.2356 143.16 18.6276 142.072 19.0116 140.04H17.4116C17.1236 141.16 16.3556 141.72 15.1716 141.72Z" fill="#191919"/>
<path d="M27.9841 141.72C26.5441 141.72 25.5361 140.648 25.5361 139C25.5361 137.368 26.5121 136.28 27.9841 136.28C29.1681 136.28 29.8561 136.856 30.1601 137.88H31.7601C31.4561 136.008 30.0961 134.84 27.9841 134.84C25.5361 134.84 23.8561 136.696 23.8561 139C23.8561 141.32 25.5361 143.16 28.0161 143.16C30.0481 143.16 31.4401 142.072 31.8241 140.04H30.2241C29.9361 141.16 29.1681 141.72 27.9841 141.72Z" fill="#191919"/>
<path d="M37.0493 143.16C39.5293 143.16 41.2893 141.32 41.2893 139C41.2893 136.68 39.5293 134.84 37.0493 134.84C34.5693 134.84 32.8093 136.68 32.8093 139C32.8093 141.32 34.5693 143.16 37.0493 143.16ZM37.0493 141.72C35.5293 141.72 34.4893 140.52 34.4893 139C34.4893 137.48 35.5293 136.28 37.0493 136.28C38.5693 136.28 39.6093 137.48 39.6093 139C39.6093 140.52 38.5693 141.72 37.0493 141.72Z" fill="#191919"/>
<path d="M46.6445 143.16C49.1885 143.16 50.8845 141.384 50.8845 139.16C50.8845 136.968 49.4925 135.176 47.2205 135.176C45.7165 135.176 44.4845 136.04 43.9565 137.288C44.0205 134.904 44.7245 133.896 47.4445 133.544C49.0925 133.336 50.2125 133 50.4685 131.48H48.9645C48.8525 131.88 48.2765 132.008 47.1885 132.136C43.8285 132.536 42.4205 134.2 42.4205 138.072C42.4205 139.448 42.5965 140.536 43.1245 141.352C43.7485 142.344 45.0125 143.16 46.6445 143.16ZM46.6445 141.72C45.1565 141.72 44.1005 140.664 44.1005 139.16C44.1005 137.688 45.1565 136.616 46.6445 136.616C48.1485 136.616 49.2045 137.688 49.2045 139.16C49.2045 140.664 48.1485 141.72 46.6445 141.72Z" fill="#191919"/>
<path d="M56.0623 141.72C54.6223 141.72 53.6143 140.648 53.6143 139C53.6143 137.368 54.5903 136.28 56.0623 136.28C57.2463 136.28 57.9343 136.856 58.2383 137.88H59.8383C59.5343 136.008 58.1743 134.84 56.0623 134.84C53.6143 134.84 51.9343 136.696 51.9343 139C51.9343 141.32 53.6143 143.16 56.0943 143.16C58.1263 143.16 59.5183 142.072 59.9023 140.04H58.3023C58.0143 141.16 57.2463 141.72 56.0623 141.72Z" fill="#191919"/>
<path d="M63.4333 143H65.0333V136.44H67.8173V135H60.6493V136.44H63.4333V143Z" fill="#191919"/>
<path d="M69.1955 143H73.0195C75.2115 143 75.9155 141.848 75.9155 140.76C75.9155 139.688 75.1955 139.08 74.0275 138.888C75.0515 138.616 75.5635 137.912 75.5635 137.08C75.5635 135.752 74.5875 135 72.8115 135H69.1955V143ZM72.7315 138.328H70.7635V136.36H72.7315C73.5635 136.36 73.9155 136.792 73.9155 137.352C73.9155 137.896 73.5635 138.328 72.7315 138.328ZM72.8435 139.608C73.8835 139.608 74.2355 140.088 74.2355 140.6C74.2355 141.176 73.8835 141.64 72.9235 141.64H70.7635V139.608H72.8435Z" fill="#191919"/>
<path d="M81.063 141.768C79.591 141.768 78.663 140.744 78.551 139.288H85.175C85.207 139.128 85.223 138.952 85.223 138.792C85.223 136.6 83.527 134.84 81.063 134.84C78.599 134.84 76.903 136.664 76.903 139C76.903 141.416 78.599 143.16 81.063 143.16C83.127 143.16 84.455 142.216 84.919 140.52H83.383C83.063 141.256 82.359 141.768 81.063 141.768ZM81.063 136.232C82.359 136.232 83.223 137.032 83.511 138.168H78.631C78.935 137 79.847 136.232 81.063 136.232Z" fill="#191919"/>
<path d="M86.758 143H88.358V139.64H92.118V143H93.718V135H92.118V138.2H88.358V135H86.758V143Z" fill="#191919"/>
<path d="M95.7268 143H97.3268V139.64H101.087V143H102.687V135H101.087V138.2H97.3268V135H95.7268V143Z" fill="#191919"/>
<path d="M104.696 143H108.2C110.36 143 111.32 141.608 111.32 140.232C111.32 138.84 110.36 137.512 108.2 137.512H106.296V135H104.696V143ZM112.392 143H113.992V135H112.392V143ZM108.152 138.92C109.208 138.92 109.64 139.56 109.64 140.232C109.64 140.984 109.208 141.576 108.232 141.576H106.296V138.92H108.152Z" fill="#191919"/>
<path d="M116.008 143H117.528V136.888L119.992 143H121.272L123.736 136.888V143H125.336V135H123.08L120.712 140.904L118.328 135H116.008V143Z" fill="#191919"/>
<path d="M127.352 143H128.952L132.872 137.304V143H134.472V135H132.872L128.952 140.696V135H127.352V143Z" fill="#191919"/>
<path d="M144.194 146.2H145.794V143.16C148.162 143.048 150.194 141.56 150.194 139C150.194 136.44 148.162 134.936 145.794 134.84V131.8H144.194V134.84C141.826 134.936 139.794 136.44 139.794 139C139.794 141.56 141.826 143.048 144.194 143.16V146.2ZM141.474 139C141.474 137.208 142.786 136.296 144.194 136.232V141.768C142.786 141.704 141.474 140.792 141.474 139ZM145.794 136.232C147.186 136.296 148.514 137.208 148.514 139C148.514 140.792 147.186 141.704 145.794 141.768V136.232Z" fill="#191919"/>
<path d="M155.14 143.416L158.532 135H156.98L154.628 140.968L152.244 135H150.532L153.764 143.032C153.252 144.456 152.932 144.76 151.252 144.76V146.2C153.652 146.2 154.276 145.576 155.14 143.416Z" fill="#191919"/>
<path d="M158.632 144.76H160.152V143H166.008V144.76H167.528V141.56H166.408V135H160.28V135.912C160.28 139.368 159.96 140.776 159.624 141.56H158.632V144.76ZM161.208 141.56C161.496 140.824 161.752 139.688 161.784 136.44H164.808V141.56H161.208Z" fill="#191919"/>
<path d="M168.452 139.336V138.088H172.324V139.336H168.452Z" fill="#191919"/>
<path d="M176.121 143H177.721V136.44H180.505V135H173.337V136.44H176.121V143Z" fill="#191919"/>
<path d="M185.251 141.768C183.779 141.768 182.85 140.744 182.738 139.288H189.363C189.395 139.128 189.411 138.952 189.411 138.792C189.411 136.6 187.715 134.84 185.251 134.84C182.786 134.84 181.09 136.664 181.09 139C181.09 141.416 182.786 143.16 185.251 143.16C187.314 143.16 188.643 142.216 189.107 140.52H187.57C187.25 141.256 186.547 141.768 185.251 141.768ZM185.251 136.232C186.547 136.232 187.411 137.032 187.699 138.168H182.818C183.122 137 184.035 136.232 185.251 136.232Z" fill="#191919"/>
<path d="M191.671 143L193.767 140.136L195.831 143H197.735L194.791 138.92L197.607 135H195.879L193.959 137.752L191.975 135H190.071L192.935 138.968L189.911 143H191.671Z" fill="#191919"/>
<path d="M198.945 143H200.546V139.64H204.305V143H205.906V135H204.305V138.2H200.546V135H198.945V143Z" fill="#191919"/>
<path d="M211.674 143.16C214.154 143.16 215.914 141.32 215.914 139C215.914 136.68 214.154 134.84 211.674 134.84C209.194 134.84 207.434 136.68 207.434 139C207.434 141.32 209.194 143.16 211.674 143.16ZM211.674 141.72C210.154 141.72 209.114 140.52 209.114 139C209.114 137.48 210.154 136.28 211.674 136.28C213.194 136.28 214.234 137.48 214.234 139C214.234 140.52 213.194 141.72 211.674 141.72Z" fill="#191919"/>
<path d="M217.933 139C217.901 140.984 217.677 141.56 216.493 141.56V143.16C218.685 143.16 219.357 142.072 219.437 139.032L219.501 136.44H222.413V143H224.013V135H218.013L217.933 139Z" fill="#191919"/>
<path d="M229.784 143.16C232.264 143.16 234.024 141.32 234.024 139C234.024 136.68 232.264 134.84 229.784 134.84C227.304 134.84 225.544 136.68 225.544 139C225.544 141.32 227.304 143.16 229.784 143.16ZM229.784 141.72C228.264 141.72 227.224 140.52 227.224 139C227.224 137.48 228.264 136.28 229.784 136.28C231.304 136.28 232.344 137.48 232.344 139C232.344 140.52 231.304 141.72 229.784 141.72Z" fill="#191919"/>
<path d="M235.555 143H237.155V136.44H240.963V135H235.555V143Z" fill="#191919"/>
<path d="M242.336 143H243.936L247.856 137.304V143H249.456V135H247.856L243.936 140.696V135H242.336V143Z" fill="#191919"/>
<path d="M252.837 143L255.061 140.168H256.389V143H257.989V135H254.485C252.325 135 251.365 136.344 251.365 137.688C251.365 138.824 252.053 139.656 253.365 139.96L250.917 143H252.837ZM254.533 138.92C253.477 138.92 253.045 138.312 253.045 137.688C253.045 136.984 253.477 136.424 254.453 136.424H256.389V138.92H254.533Z" fill="#191919"/>
<path d="M260.008 143H261.528V136.888L263.992 143H265.272L267.736 136.888V143H269.336V135H267.08L264.712 140.904L262.328 135H260.008V143Z" fill="#191919"/>
<path d="M271.352 143H272.952L276.872 137.304V143H278.472V135H276.872L272.952 140.696V135H271.352V143Z" fill="#191919"/>
<path d="M17.9299 163H19.5299L23.4499 157.304V163H25.0499V155H23.4499L19.5299 160.696V155H17.9299V163Z" fill="#191919"/>
<path d="M34.7718 166.2H36.3718V163.16C38.7398 163.048 40.7718 161.56 40.7718 159C40.7718 156.44 38.7398 154.936 36.3718 154.84V151.8H34.7718V154.84C32.4038 154.936 30.3718 156.44 30.3718 159C30.3718 161.56 32.4038 163.048 34.7718 163.16V166.2ZM32.0518 159C32.0518 157.208 33.3638 156.296 34.7718 156.232V161.768C33.3638 161.704 32.0518 160.792 32.0518 159ZM36.3718 156.232C37.7638 156.296 39.0918 157.208 39.0918 159C39.0918 160.792 37.7638 161.704 36.3718 161.768V156.232Z" fill="#191919"/>
<path d="M45.7185 163.416L49.1105 155H47.5585L45.2065 160.968L42.8225 155H41.1105L44.3425 163.032C43.8305 164.456 43.5105 164.76 41.8305 164.76V166.2C44.2305 166.2 44.8545 165.576 45.7185 163.416Z" fill="#191919"/>
<path d="M49.2099 164.76H50.7299V163H56.5859V164.76H58.1059V161.56H56.9859V155H50.8579V155.912C50.8579 159.368 50.5379 160.776 50.2019 161.56H49.2099V164.76ZM51.7859 161.56C52.0739 160.824 52.3299 159.688 52.3619 156.44H55.3859V161.56H51.7859Z" fill="#191919"/>
<path d="M59.0306 159.336V158.088H62.9026V159.336H59.0306Z" fill="#191919"/>
<path d="M68.2029 161.72C66.7629 161.72 65.7549 160.648 65.7549 159C65.7549 157.368 66.7309 156.28 68.2029 156.28C69.3869 156.28 70.0749 156.856 70.3789 157.88H71.9789C71.6749 156.008 70.3149 154.84 68.2029 154.84C65.7549 154.84 64.0749 156.696 64.0749 159C64.0749 161.32 65.7549 163.16 68.2349 163.16C70.2669 163.16 71.6589 162.072 72.0429 160.04H70.4429C70.1549 161.16 69.3869 161.72 68.2029 161.72Z" fill="#191919"/>
<path d="M77.188 161.768C75.716 161.768 74.788 160.744 74.676 159.288H81.3C81.332 159.128 81.348 158.952 81.348 158.792C81.348 156.6 79.652 154.84 77.188 154.84C74.724 154.84 73.028 156.664 73.028 159C73.028 161.416 74.724 163.16 77.188 163.16C79.252 163.16 80.58 162.216 81.044 160.52H79.508C79.188 161.256 78.484 161.768 77.188 161.768ZM77.188 156.232C78.484 156.232 79.348 157.032 79.636 158.168H74.756C75.06 157 75.972 156.232 77.188 156.232Z" fill="#191919"/>
<path d="M84.483 155H82.883V166.2H84.483V161.208C85.059 162.392 86.147 163.16 87.603 163.16C89.827 163.16 91.283 161.32 91.283 159C91.283 156.68 89.795 154.84 87.603 154.84C86.147 154.84 85.059 155.608 84.483 156.792V155ZM87.043 156.28C88.547 156.28 89.603 157.336 89.603 159C89.603 160.664 88.547 161.72 87.043 161.72C85.603 161.72 84.483 160.616 84.483 159C84.483 157.4 85.603 156.28 87.043 156.28Z" fill="#191919"/>
<path d="M92.8205 163H96.6445C98.8365 163 99.5405 161.848 99.5405 160.76C99.5405 159.688 98.8205 159.08 97.6525 158.888C98.6765 158.616 99.1885 157.912 99.1885 157.08C99.1885 155.752 98.2125 155 96.4365 155H92.8205V163ZM96.3565 158.328H94.3885V156.36H96.3565C97.1885 156.36 97.5405 156.792 97.5405 157.352C97.5405 157.896 97.1885 158.328 96.3565 158.328ZM96.4685 159.608C97.5085 159.608 97.8605 160.088 97.8605 160.6C97.8605 161.176 97.5085 161.64 96.5485 161.64H94.3885V159.608H96.4685Z" fill="#191919"/>
<path d="M101.086 163H102.686L106.606 157.304V163H108.206V155H106.606L102.686 160.696V155H101.086V163Z" fill="#191919"/>
<path d="M113.875 161.72C112.435 161.72 111.427 160.648 111.427 159C111.427 157.368 112.403 156.28 113.875 156.28C115.059 156.28 115.747 156.856 116.051 157.88H117.651C117.347 156.008 115.987 154.84 113.875 154.84C111.427 154.84 109.747 156.696 109.747 159C109.747 161.32 111.427 163.16 113.907 163.16C115.939 163.16 117.331 162.072 117.715 160.04H116.115C115.827 161.16 115.059 161.72 113.875 161.72Z" fill="#191919"/>
<path d="M124.126 157.992V158.12C120.462 158.12 118.782 159.096 118.782 160.92C118.782 162.36 119.726 163.16 121.23 163.16C122.878 163.16 123.726 162.248 124.126 161.08V163H125.726V158.152C125.726 155.928 124.558 154.84 122.398 154.84C120.414 154.84 119.166 155.816 118.91 157.672H120.51C120.638 156.84 121.278 156.28 122.398 156.28C123.486 156.28 124.126 156.84 124.126 157.992ZM120.462 160.84C120.462 159.88 121.486 159.272 124.126 159.272C124.126 160.648 123.246 161.784 121.598 161.784C120.894 161.784 120.462 161.448 120.462 160.84Z" fill="#191919"/>
<path d="M127.664 163H129.184V156.888L131.648 163H132.928L135.392 156.888V163H136.992V155H134.736L132.368 160.904L129.984 155H127.664V163Z" fill="#191919"/>
<path d="M139.008 163H140.608L144.528 157.304V163H146.128V155H144.528L140.608 160.696V155H139.008V163Z" fill="#191919"/>
<path d="M149.013 163.16C149.669 163.16 150.197 162.632 150.197 161.944C150.197 161.304 149.669 160.808 149.013 160.808C148.341 160.808 147.829 161.304 147.829 161.944C147.829 162.632 148.341 163.16 149.013 163.16Z" fill="#191919"/>
<path d="M156.912 151.8H155.072L159.472 159.992C158.784 161.224 158.192 161.48 156.752 161.48V163.16C159.024 163.16 159.888 162.488 161.168 159.8L164.992 151.8H163.392L160.336 158.232L156.912 151.8Z" fill="#191919"/>
<path d="M170.18 163H171.78V159.64H175.54V163H177.14V155H175.54V158.2H171.78V155H170.18V163Z" fill="#191919"/>
<path d="M184.173 157.992V158.12C180.509 158.12 178.829 159.096 178.829 160.92C178.829 162.36 179.773 163.16 181.277 163.16C182.925 163.16 183.773 162.248 184.173 161.08V163H185.773V158.152C185.773 155.928 184.605 154.84 182.445 154.84C180.461 154.84 179.213 155.816 178.957 157.672H180.557C180.685 156.84 181.325 156.28 182.445 156.28C183.533 156.28 184.173 156.84 184.173 157.992ZM180.509 160.84C180.509 159.88 181.533 159.272 184.173 159.272C184.173 160.648 183.293 161.784 181.645 161.784C180.941 161.784 180.509 161.448 180.509 160.84Z" fill="#191919"/>
<path d="M191.359 161.72C189.919 161.72 188.911 160.648 188.911 159C188.911 157.368 189.887 156.28 191.359 156.28C192.543 156.28 193.231 156.856 193.535 157.88H195.135C194.831 156.008 193.471 154.84 191.359 154.84C188.911 154.84 187.231 156.696 187.231 159C187.231 161.32 188.911 163.16 191.391 163.16C193.423 163.16 194.815 162.072 195.199 160.04H193.599C193.311 161.16 192.543 161.72 191.359 161.72Z" fill="#191919"/>
<path d="M202.124 155H200.524V166.2H202.124V161.208C202.7 162.392 203.788 163.16 205.244 163.16C207.468 163.16 208.924 161.32 208.924 159C208.924 156.68 207.436 154.84 205.244 154.84C203.788 154.84 202.7 155.608 202.124 156.792V155ZM204.684 156.28C206.188 156.28 207.244 157.336 207.244 159C207.244 160.664 206.188 161.72 204.684 161.72C203.244 161.72 202.124 160.616 202.124 159C202.124 157.4 203.244 156.28 204.684 156.28Z" fill="#191919"/>
<path d="M215.407 157.992V158.12C211.743 158.12 210.063 159.096 210.063 160.92C210.063 162.36 211.007 163.16 212.511 163.16C214.159 163.16 215.007 162.248 215.407 161.08V163H217.007V158.152C217.007 155.928 215.839 154.84 213.679 154.84C211.695 154.84 210.447 155.816 210.191 157.672H211.791C211.919 156.84 212.559 156.28 213.679 156.28C214.767 156.28 215.407 156.84 215.407 157.992ZM211.743 160.84C211.743 159.88 212.767 159.272 215.407 159.272C215.407 160.648 214.527 161.784 212.879 161.784C212.175 161.784 211.743 161.448 211.743 160.84Z" fill="#191919"/>
<path d="M222.77 163.16C225.314 163.16 227.01 161.384 227.01 159.16C227.01 156.968 225.618 155.176 223.346 155.176C221.842 155.176 220.609 156.04 220.081 157.288C220.145 154.904 220.85 153.896 223.57 153.544C225.217 153.336 226.338 153 226.594 151.48H225.09C224.978 151.88 224.402 152.008 223.314 152.136C219.954 152.536 218.546 154.2 218.546 158.072C218.546 159.448 218.721 160.536 219.249 161.352C219.873 162.344 221.137 163.16 222.77 163.16ZM222.77 161.72C221.281 161.72 220.225 160.664 220.225 159.16C220.225 157.688 221.281 156.616 222.77 156.616C224.273 156.616 225.329 157.688 225.329 159.16C225.329 160.664 224.273 161.72 222.77 161.72Z" fill="#191919"/>
<path d="M232.299 163.16C234.779 163.16 236.539 161.32 236.539 159C236.539 156.68 234.779 154.84 232.299 154.84C229.819 154.84 228.059 156.68 228.059 159C228.059 161.32 229.819 163.16 232.299 163.16ZM232.299 161.72C230.779 161.72 229.739 160.52 229.739 159C229.739 157.48 230.779 156.28 232.299 156.28C233.819 156.28 234.859 157.48 234.859 159C234.859 160.52 233.819 161.72 232.299 161.72Z" fill="#191919"/>
<path d="M239.902 163H241.502V156.44H244.286V155H237.118V156.44H239.902V163Z" fill="#191919"/>
<path d="M250.376 157.992V158.12C246.712 158.12 245.032 159.096 245.032 160.92C245.032 162.36 245.976 163.16 247.48 163.16C249.128 163.16 249.976 162.248 250.376 161.08V163H251.976V158.152C251.976 155.928 250.808 154.84 248.648 154.84C246.664 154.84 245.416 155.816 245.16 157.672H246.76C246.888 156.84 247.528 156.28 248.648 156.28C249.736 156.28 250.376 156.84 250.376 157.992ZM246.712 160.84C246.712 159.88 247.736 159.272 250.376 159.272C250.376 160.648 249.496 161.784 247.848 161.784C247.144 161.784 246.712 161.448 246.712 160.84Z" fill="#191919"/>
<path d="M253.914 163H255.514V159.592H256.826C257.098 161.624 258.698 163.16 260.874 163.16C263.258 163.16 264.954 161.32 264.954 159C264.954 156.68 263.258 154.84 260.874 154.84C258.794 154.84 257.226 156.248 256.874 158.152H255.514V155H253.914V163ZM260.874 161.72C259.45 161.72 258.474 160.52 258.474 159C258.474 157.48 259.45 156.28 260.874 156.28C262.298 156.28 263.274 157.48 263.274 159C263.274 160.52 262.298 161.72 260.874 161.72Z" fill="#191919"/>
<path d="M268.324 163H269.924V156.44H272.708V155H265.54V156.44H268.324V163Z" fill="#191919"/>
<path d="M11.6908 179C11.6588 180.984 11.4348 181.56 10.2508 181.56V183.16C12.4428 183.16 13.1148 182.072 13.1948 179.032L13.2588 176.44H16.1708V183H17.7708V175H11.7708L11.6908 179Z" fill="#191919"/>
<path d="M19.7814 183H21.3814V179.592H22.6934C22.9654 181.624 24.5654 183.16 26.7414 183.16C29.1254 183.16 30.8214 181.32 30.8214 179C30.8214 176.68 29.1254 174.84 26.7414 174.84C24.6614 174.84 23.0934 176.248 22.7414 178.152H21.3814V175H19.7814V183ZM26.7414 181.72C25.3174 181.72 24.3414 180.52 24.3414 179C24.3414 177.48 25.3174 176.28 26.7414 176.28C28.1654 176.28 29.1414 177.48 29.1414 179C29.1414 180.52 28.1654 181.72 26.7414 181.72Z" fill="#191919"/>
<path d="M31.4833 184.76H33.0033V183H38.8593V184.76H40.3793V181.56H39.2593V175H33.1313V175.912C33.1313 179.368 32.8113 180.776 32.4753 181.56H31.4833V184.76ZM34.0593 181.56C34.3473 180.824 34.6033 179.688 34.6353 176.44H37.6593V181.56H34.0593Z" fill="#191919"/>
<path d="M41.6721 183H43.2721L47.1921 177.304V183H48.7921V175H47.1921L43.2721 180.696V175H41.6721V183Z" fill="#191919"/>
<path d="M51.0047 184.44H51.8687L52.5567 182.936C52.7967 182.408 52.8607 182.136 52.8607 181.944C52.8607 181.288 52.3327 180.808 51.6767 180.808C51.0047 180.808 50.4927 181.288 50.4927 181.944C50.4927 182.36 50.6687 182.76 51.2767 183.032L51.0047 184.44Z" fill="#191919"/>
<path d="M58.3439 183H59.9439V179.24L63.5119 183H65.6719L61.6559 178.808L65.3679 175H63.4479L59.9439 178.6V175H58.3439V183Z" fill="#191919"/>
<path d="M70.0883 183.16C72.5683 183.16 74.3283 181.32 74.3283 179C74.3283 176.68 72.5683 174.84 70.0883 174.84C67.6083 174.84 65.8483 176.68 65.8483 179C65.8483 181.32 67.6083 183.16 70.0883 183.16ZM70.0883 181.72C68.5683 181.72 67.5283 180.52 67.5283 179C67.5283 177.48 68.5683 176.28 70.0883 176.28C71.6083 176.28 72.6483 177.48 72.6483 179C72.6483 180.52 71.6083 181.72 70.0883 181.72Z" fill="#191919"/>
<path d="M77.6911 183H79.2911V176.44H82.0751V175H74.9071V176.44H77.6911V183Z" fill="#191919"/>
<path d="M86.9008 183.16C89.3808 183.16 91.1408 181.32 91.1408 179C91.1408 176.68 89.3808 174.84 86.9008 174.84C84.4208 174.84 82.6608 176.68 82.6608 179C82.6608 181.32 84.4208 183.16 86.9008 183.16ZM86.9008 181.72C85.3808 181.72 84.3408 180.52 84.3408 179C84.3408 177.48 85.3808 176.28 86.9008 176.28C88.4208 176.28 89.4608 177.48 89.4608 179C89.4608 180.52 88.4208 181.72 86.9008 181.72Z" fill="#191919"/>
<path d="M94.2721 175H92.6721V186.2H94.2721V181.208C94.8481 182.392 95.9361 183.16 97.3921 183.16C99.6161 183.16 101.072 181.32 101.072 179C101.072 176.68 99.5841 174.84 97.3921 174.84C95.9361 174.84 94.8481 175.608 94.2721 176.792V175ZM96.8321 176.28C98.3361 176.28 99.3921 177.336 99.3921 179C99.3921 180.664 98.3361 181.72 96.8321 181.72C95.3921 181.72 94.2721 180.616 94.2721 179C94.2721 177.4 95.3921 176.28 96.8321 176.28Z" fill="#191919"/>
<path d="M102.61 183H106.114C108.274 183 109.234 181.608 109.234 180.232C109.234 178.84 108.274 177.512 106.114 177.512H104.21V175H102.61V183ZM110.306 183H111.906V175H110.306V183ZM106.066 178.92C107.122 178.92 107.554 179.56 107.554 180.232C107.554 180.984 107.122 181.576 106.146 181.576H104.21V178.92H106.066Z" fill="#191919"/>
<path d="M117.602 181.768C116.13 181.768 115.202 180.744 115.09 179.288H121.714C121.746 179.128 121.762 178.952 121.762 178.792C121.762 176.6 120.066 174.84 117.602 174.84C115.138 174.84 113.442 176.664 113.442 179C113.442 181.416 115.138 183.16 117.602 183.16C119.666 183.16 120.994 182.216 121.458 180.52H119.922C119.602 181.256 118.898 181.768 117.602 181.768ZM117.602 176.232C118.898 176.232 119.762 177.032 120.05 178.168H115.17C115.474 177 116.386 176.232 117.602 176.232Z" fill="#191919"/>
<path d="M127.878 179C127.846 180.984 127.622 181.56 126.438 181.56V183.16C128.63 183.16 129.302 182.072 129.382 179.032L129.446 176.44H132.358V183H133.958V175H127.958L127.878 179Z" fill="#191919"/>
<path d="M135.969 183H137.569V179.592H138.881C139.153 181.624 140.753 183.16 142.929 183.16C145.313 183.16 147.009 181.32 147.009 179C147.009 176.68 145.313 174.84 142.929 174.84C140.849 174.84 139.281 176.248 138.929 178.152H137.569V175H135.969V183ZM142.929 181.72C141.505 181.72 140.529 180.52 140.529 179C140.529 177.48 141.505 176.28 142.929 176.28C144.353 176.28 145.329 177.48 145.329 179C145.329 180.52 144.353 181.72 142.929 181.72Z" fill="#191919"/>
<path d="M152.371 183.16C154.915 183.16 156.611 181.384 156.611 179.16C156.611 176.968 155.219 175.176 152.947 175.176C151.443 175.176 150.211 176.04 149.683 177.288C149.747 174.904 150.451 173.896 153.171 173.544C154.819 173.336 155.939 173 156.195 171.48H154.691C154.579 171.88 154.003 172.008 152.915 172.136C149.555 172.536 148.147 174.2 148.147 178.072C148.147 179.448 148.323 180.536 148.851 181.352C149.475 182.344 150.739 183.16 152.371 183.16ZM152.371 181.72C150.883 181.72 149.827 180.664 149.827 179.16C149.827 177.688 150.883 176.616 152.371 176.616C153.875 176.616 154.931 177.688 154.931 179.16C154.931 180.664 153.875 181.72 152.371 181.72Z" fill="#191919"/>
<path d="M159.266 183L161.49 180.168H162.818V183H164.418V175H160.914C158.754 175 157.794 176.344 157.794 177.688C157.794 178.824 158.482 179.656 159.794 179.96L157.346 183H159.266ZM160.962 178.92C159.906 178.92 159.474 178.312 159.474 177.688C159.474 176.984 159.906 176.424 160.882 176.424H162.818V178.92H160.962Z" fill="#191919"/>
<path d="M168.582 183H170.182V176.44H172.966V175H165.798V176.44H168.582V183Z" fill="#191919"/>
<path d="M181.805 181.768C180.333 181.768 179.405 180.744 179.293 179.288H185.917C185.949 179.128 185.965 178.952 185.965 178.792C185.965 176.6 184.269 174.84 181.805 174.84C179.341 174.84 177.645 176.664 177.645 179C177.645 181.416 179.341 183.16 181.805 183.16C183.869 183.16 185.197 182.216 185.661 180.52H184.125C183.805 181.256 183.101 181.768 181.805 181.768ZM181.805 176.232C183.101 176.232 183.965 177.032 184.253 178.168H179.373C179.677 177 180.589 176.232 181.805 176.232Z" fill="#191919"/>
<path d="M186.468 184.76H187.988V183H193.844V184.76H195.364V181.56H194.244V175H188.116V175.912C188.116 179.368 187.796 180.776 187.46 181.56H186.468V184.76ZM189.044 181.56C189.332 180.824 189.588 179.688 189.62 176.44H192.644V181.56H189.044Z" fill="#191919"/>
<path d="M200.304 183.416L203.696 175H202.144L199.792 180.968L197.408 175H195.696L198.928 183.032C198.416 184.456 198.096 184.76 196.416 184.76V186.2C198.816 186.2 199.44 185.576 200.304 183.416Z" fill="#191919"/>
<path d="M208.531 183H210.131L214.051 177.304V183H215.651V175H214.051L210.131 180.696V175H208.531V183Z" fill="#191919"/>
<path d="M221.453 183H225.277C227.469 183 228.173 181.848 228.173 180.76C228.173 179.688 227.453 179.08 226.285 178.888C227.309 178.616 227.821 177.912 227.821 177.08C227.821 175.752 226.845 175 225.069 175H221.453V183ZM224.989 178.328H223.021V176.36H224.989C225.821 176.36 226.173 176.792 226.173 177.352C226.173 177.896 225.821 178.328 224.989 178.328ZM225.101 179.608C226.141 179.608 226.493 180.088 226.493 180.6C226.493 181.176 226.141 181.64 225.181 181.64H223.021V179.608H225.101Z" fill="#191919"/>
<path d="M233.289 181.72C231.849 181.72 230.841 180.648 230.841 179C230.841 177.368 231.817 176.28 233.289 176.28C234.473 176.28 235.161 176.856 235.465 177.88H237.065C236.761 176.008 235.401 174.84 233.289 174.84C230.841 174.84 229.161 176.696 229.161 179C229.161 181.32 230.841 183.16 233.321 183.16C235.353 183.16 236.745 182.072 237.129 180.04H235.529C235.241 181.16 234.473 181.72 233.289 181.72Z" fill="#191919"/>
<path d="M240.658 173.72C241.234 173.72 241.698 173.256 241.698 172.68C241.698 172.104 241.234 171.64 240.658 171.64C240.082 171.64 239.618 172.104 239.618 172.68C239.618 173.256 240.082 173.72 240.658 173.72ZM243.858 173.72C244.434 173.72 244.898 173.256 244.898 172.68C244.898 172.104 244.434 171.64 243.858 171.64C243.282 171.64 242.818 172.104 242.818 172.68C242.818 173.256 243.282 173.72 243.858 173.72ZM242.274 181.768C240.802 181.768 239.874 180.744 239.762 179.288H246.386C246.418 179.128 246.434 178.952 246.434 178.792C246.434 176.6 244.738 174.84 242.274 174.84C239.81 174.84 238.114 176.664 238.114 179C238.114 181.416 239.81 183.16 242.274 183.16C244.338 183.16 245.666 182.216 246.13 180.52H244.594C244.274 181.256 243.57 181.768 242.274 181.768ZM242.274 176.232C243.57 176.232 244.434 177.032 244.722 178.168H239.842C240.146 177 241.058 176.232 242.274 176.232Z" fill="#191919"/>
<path d="M248.005 184.44H248.869L249.557 182.936C249.797 182.408 249.861 182.136 249.861 181.944C249.861 181.288 249.333 180.808 248.677 180.808C248.005 180.808 247.493 181.288 247.493 181.944C247.493 182.36 247.669 182.76 248.277 183.032L248.005 184.44Z" fill="#191919"/>
<path d="M255.184 177.08C255.184 179.544 256.672 180.248 258.544 180.248C259.2 180.248 259.808 180.168 260.384 180.024V183H261.984V175H260.384V178.632C259.872 178.76 259.36 178.808 258.88 178.808C257.52 178.808 256.784 178.376 256.784 177.08V175H255.184V177.08Z" fill="#191919"/>
<path d="M266.144 183H267.744V176.44H270.528V175H263.36V176.44H266.144V183Z" fill="#191919"/>
<path d="M275.354 183.16C277.834 183.16 279.594 181.32 279.594 179C279.594 176.68 277.834 174.84 275.354 174.84C272.874 174.84 271.114 176.68 271.114 179C271.114 181.32 272.874 183.16 275.354 183.16ZM275.354 181.72C273.834 181.72 272.794 180.52 272.794 179C272.794 177.48 273.834 176.28 275.354 176.28C276.874 176.28 277.914 177.48 277.914 179C277.914 180.52 276.874 181.72 275.354 181.72Z" fill="#191919"/>
<path d="M17.1716 201.72C15.7316 201.72 14.7236 200.648 14.7236 199C14.7236 197.368 15.6996 196.28 17.1716 196.28C18.3556 196.28 19.0436 196.856 19.3476 197.88H20.9476C20.6436 196.008 19.2836 194.84 17.1716 194.84C14.7236 194.84 13.0436 196.696 13.0436 199C13.0436 201.32 14.7236 203.16 17.2036 203.16C19.2356 203.16 20.6276 202.072 21.0116 200.04H19.4116C19.1236 201.16 18.3556 201.72 17.1716 201.72Z" fill="#191919"/>
<path d="M26.3361 203H27.9361V199.64H31.6961V203H33.2961V195H31.6961V198.2H27.9361V195H26.3361V203Z" fill="#191919"/>
<path d="M38.9849 201.768C37.5129 201.768 36.5849 200.744 36.4729 199.288H43.0969C43.1289 199.128 43.1449 198.952 43.1449 198.792C43.1449 196.6 41.4489 194.84 38.9849 194.84C36.5209 194.84 34.8249 196.664 34.8249 199C34.8249 201.416 36.5209 203.16 38.9849 203.16C41.0489 203.16 42.3769 202.216 42.8409 200.52H41.3049C40.9849 201.256 40.2809 201.768 38.9849 201.768ZM38.9849 196.232C40.2809 196.232 41.1449 197.032 41.4329 198.168H36.5529C36.8569 197 37.7689 196.232 38.9849 196.232Z" fill="#191919"/>
<path d="M45.7999 191.8C45.7999 193.144 46.6799 194.04 48.2479 194.04C49.8159 194.04 50.6959 193.144 50.6959 191.8H49.2719C49.2719 192.552 48.8879 192.904 48.2479 192.904C47.6079 192.904 47.2239 192.552 47.2239 191.8H45.7999ZM44.6799 203H46.2799L50.1999 197.304V203H51.7999V195H50.1999L46.2799 200.696V195H44.6799V203Z" fill="#191919"/>
<path d="M61.2498 201.72C59.8098 201.72 58.8018 200.648 58.8018 199C58.8018 197.368 59.7778 196.28 61.2498 196.28C62.4338 196.28 63.1218 196.856 63.4258 197.88H65.0258C64.7218 196.008 63.3618 194.84 61.2498 194.84C58.8018 194.84 57.1218 196.696 57.1218 199C57.1218 201.32 58.8018 203.16 61.2818 203.16C63.3138 203.16 64.7058 202.072 65.0898 200.04H63.4898C63.2018 201.16 62.4338 201.72 61.2498 201.72Z" fill="#191919"/>
<path d="M66.633 203H70.457C72.649 203 73.353 201.848 73.353 200.76C73.353 199.688 72.633 199.08 71.465 198.888C72.489 198.616 73.001 197.912 73.001 197.08C73.001 195.752 72.025 195 70.249 195H66.633V203ZM70.169 198.328H68.201V196.36H70.169C71.001 196.36 71.353 196.792 71.353 197.352C71.353 197.896 71.001 198.328 70.169 198.328ZM70.281 199.608C71.321 199.608 71.673 200.088 71.673 200.6C71.673 201.176 71.321 201.64 70.361 201.64H68.201V199.608H70.281Z" fill="#191919"/>
<path d="M76.1805 203L78.4045 200.168H79.7325V203H81.3325V195H77.8285C75.6685 195 74.7085 196.344 74.7085 197.688C74.7085 198.824 75.3965 199.656 76.7085 199.96L74.2605 203H76.1805ZM77.8765 198.92C76.8205 198.92 76.3885 198.312 76.3885 197.688C76.3885 196.984 76.8205 196.424 77.7965 196.424H79.7325V198.92H77.8765Z" fill="#191919"/>
<path d="M86.4078 203.16C88.8718 203.16 89.8958 201.976 89.8958 200.68C89.8958 199.784 89.2558 199.064 88.2318 198.84C89.1438 198.6 89.6398 197.912 89.6398 197.096C89.6398 195.88 88.6638 194.84 86.4238 194.84C84.3918 194.84 83.1118 195.896 82.9518 197.544H84.6158C84.7598 196.888 85.1918 196.28 86.3918 196.28C87.4638 196.28 87.9598 196.76 87.9598 197.352C87.9598 197.928 87.5918 198.312 86.4558 198.312H85.3518V199.672H86.6958C87.7998 199.672 88.2158 200.088 88.2158 200.632C88.2158 201.208 87.8478 201.72 86.4078 201.72C85.1918 201.72 84.6478 201.208 84.4558 200.376H82.7918C82.9518 202.024 84.0718 203.16 86.4078 203.16Z" fill="#191919"/>
<path d="M96.4539 197.992V198.12C92.7899 198.12 91.1099 199.096 91.1099 200.92C91.1099 202.36 92.0539 203.16 93.5579 203.16C95.2059 203.16 96.0539 202.248 96.4539 201.08V203H98.0539V198.152C98.0539 195.928 96.8859 194.84 94.7259 194.84C92.7419 194.84 91.4939 195.816 91.2379 197.672H92.8379C92.9659 196.84 93.6059 196.28 94.7259 196.28C95.8139 196.28 96.4539 196.84 96.4539 197.992ZM92.7899 200.84C92.7899 199.88 93.8139 199.272 96.4539 199.272C96.4539 200.648 95.5739 201.784 93.9259 201.784C93.2219 201.784 92.7899 201.448 92.7899 200.84Z" fill="#191919"/>
<path d="M99.9924 203H101.592V199.64H105.352V203H106.952V195H105.352V198.2H101.592V195H99.9924V203Z" fill="#191919"/>
<path d="M112.721 203.16C115.201 203.16 116.961 201.32 116.961 199C116.961 196.68 115.201 194.84 112.721 194.84C110.241 194.84 108.481 196.68 108.481 199C108.481 201.32 110.241 203.16 112.721 203.16ZM112.721 201.72C111.201 201.72 110.161 200.52 110.161 199C110.161 197.48 111.201 196.28 112.721 196.28C114.241 196.28 115.281 197.48 115.281 199C115.281 200.52 114.241 201.72 112.721 201.72Z" fill="#191919"/>
<path d="M118.528 204.44H119.392L120.08 202.936C120.32 202.408 120.384 202.136 120.384 201.944C120.384 201.288 119.856 200.808 119.2 200.808C118.528 200.808 118.016 201.288 118.016 201.944C118.016 202.36 118.192 202.76 118.8 203.032L118.528 204.44Z" fill="#191919"/>
<path d="M125.867 203H127.467V199.24L131.035 203H133.195L129.179 198.808L132.891 195H130.971L127.467 198.6V195H125.867V203Z" fill="#191919"/>
<path d="M137.612 203.16C140.092 203.16 141.852 201.32 141.852 199C141.852 196.68 140.092 194.84 137.612 194.84C135.132 194.84 133.372 196.68 133.372 199C133.372 201.32 135.132 203.16 137.612 203.16ZM137.612 201.72C136.092 201.72 135.052 200.52 135.052 199C135.052 197.48 136.092 196.28 137.612 196.28C139.132 196.28 140.172 197.48 140.172 199C140.172 200.52 139.132 201.72 137.612 201.72Z" fill="#191919"/>
<path d="M145.214 203H146.814V196.44H149.598V195H142.43V196.44H145.214V203Z" fill="#191919"/>
<path d="M154.424 203.16C156.904 203.16 158.664 201.32 158.664 199C158.664 196.68 156.904 194.84 154.424 194.84C151.944 194.84 150.184 196.68 150.184 199C150.184 201.32 151.944 203.16 154.424 203.16ZM154.424 201.72C152.904 201.72 151.864 200.52 151.864 199C151.864 197.48 152.904 196.28 154.424 196.28C155.944 196.28 156.984 197.48 156.984 199C156.984 200.52 155.944 201.72 154.424 201.72Z" fill="#191919"/>
<path d="M161.796 195H160.195V206.2H161.796V201.208C162.372 202.392 163.46 203.16 164.915 203.16C167.139 203.16 168.596 201.32 168.596 199C168.596 196.68 167.107 194.84 164.915 194.84C163.46 194.84 162.372 195.608 161.796 196.792V195ZM164.355 196.28C165.859 196.28 166.915 197.336 166.915 199C166.915 200.664 165.859 201.72 164.355 201.72C162.915 201.72 161.796 200.616 161.796 199C161.796 197.4 162.915 196.28 164.355 196.28Z" fill="#191919"/>
<path d="M170.133 203H173.637C175.797 203 176.757 201.608 176.757 200.232C176.757 198.84 175.797 197.512 173.637 197.512H171.733V195H170.133V203ZM177.829 203H179.429V195H177.829V203ZM173.589 198.92C174.645 198.92 175.077 199.56 175.077 200.232C175.077 200.984 174.645 201.576 173.669 201.576H171.733V198.92H173.589Z" fill="#191919"/>
<path d="M181.445 203H182.965V196.888L185.43 203H186.71L189.173 196.888V203H190.773V195H188.518L186.15 200.904L183.766 195H181.445V203Z" fill="#191919"/>
<path d="M196.57 203H198.171L202.09 197.304V203H203.691V195H202.09L198.171 200.696V195H196.57V203Z" fill="#191919"/>
<path d="M205.711 203H207.311V199.64H211.071V203H212.671V195H211.071V198.2H207.311V195H205.711V203Z" fill="#191919"/>
<path d="M216.824 203H218.424V196.44H221.208V195H214.04V196.44H216.824V203Z" fill="#191919"/>
<path d="M225.954 201.768C224.482 201.768 223.554 200.744 223.442 199.288H230.066C230.098 199.128 230.114 198.952 230.114 198.792C230.114 196.6 228.418 194.84 225.954 194.84C223.49 194.84 221.794 196.664 221.794 199C221.794 201.416 223.49 203.16 225.954 203.16C228.018 203.16 229.346 202.216 229.81 200.52H228.274C227.954 201.256 227.25 201.768 225.954 201.768ZM225.954 196.232C227.25 196.232 228.114 197.032 228.402 198.168H223.522C223.826 197 224.738 196.232 225.954 196.232Z" fill="#191919"/>
<path d="M233.249 195H231.649V206.2H233.249V201.208C233.825 202.392 234.913 203.16 236.369 203.16C238.593 203.16 240.049 201.32 240.049 199C240.049 196.68 238.561 194.84 236.369 194.84C234.913 194.84 233.825 195.608 233.249 196.792V195ZM235.809 196.28C237.313 196.28 238.369 197.336 238.369 199C238.369 200.664 237.313 201.72 235.809 201.72C234.369 201.72 233.249 200.616 233.249 199C233.249 197.4 234.369 196.28 235.809 196.28Z" fill="#191919"/>
<path d="M245.266 201.768C243.794 201.768 242.866 200.744 242.754 199.288H249.378C249.41 199.128 249.426 198.952 249.426 198.792C249.426 196.6 247.73 194.84 245.266 194.84C242.802 194.84 241.106 196.664 241.106 199C241.106 201.416 242.802 203.16 245.266 203.16C247.33 203.16 248.658 202.216 249.122 200.52H247.586C247.266 201.256 246.562 201.768 245.266 201.768ZM245.266 196.232C246.562 196.232 247.426 197.032 247.714 198.168H242.834C243.138 197 244.05 196.232 245.266 196.232Z" fill="#191919"/>
<path d="M254.609 201.72C253.169 201.72 252.161 200.648 252.161 199C252.161 197.368 253.137 196.28 254.609 196.28C255.793 196.28 256.481 196.856 256.785 197.88H258.385C258.081 196.008 256.721 194.84 254.609 194.84C252.161 194.84 250.481 196.696 250.481 199C250.481 201.32 252.161 203.16 254.641 203.16C256.673 203.16 258.065 202.072 258.449 200.04H256.849C256.561 201.16 255.793 201.72 254.609 201.72Z" fill="#191919"/>
<path d="M259.992 203H261.592V199.64H265.352V203H266.952V195H265.352V198.2H261.592V195H259.992V203Z" fill="#191919"/>
<path d="M272.721 203.16C275.201 203.16 276.961 201.32 276.961 199C276.961 196.68 275.201 194.84 272.721 194.84C270.241 194.84 268.481 196.68 268.481 199C268.481 201.32 270.241 203.16 272.721 203.16ZM272.721 201.72C271.201 201.72 270.161 200.52 270.161 199C270.161 197.48 271.201 196.28 272.721 196.28C274.241 196.28 275.281 197.48 275.281 199C275.281 200.52 274.241 201.72 272.721 201.72Z" fill="#191919"/>
<path d="M59.0088 223H60.6088V219.256L64.0168 223H66.1288L62.2888 218.808L65.8248 215H63.9528L60.6088 218.6V215H59.0088V218.6L55.6648 215H53.7128L57.3288 218.888L53.5688 223H55.6008L59.0088 219.256V223Z" fill="#191919"/>
<path d="M67.0783 223H68.6783L72.5983 217.304V223H74.1983V215H72.5983L68.6783 220.696V215H67.0783V223Z" fill="#191919"/>
<path d="M78.3629 223H79.9629V216.44H82.7469V215H75.5789V216.44H78.3629V223Z" fill="#191919"/>
<path d="M84.1252 223H87.6292C89.7892 223 90.7492 221.608 90.7492 220.232C90.7492 218.84 89.7892 217.512 87.6292 217.512H85.7252V215H84.1252V223ZM87.5812 218.92C88.6372 218.92 89.0692 219.56 89.0692 220.232C89.0692 220.984 88.6372 221.576 87.6612 221.576H85.7252V218.92H87.5812Z" fill="#191919"/>
<path d="M95.9064 223H97.5064L101.426 217.304V223H103.026V215H101.426L97.5064 220.696V215H95.9064V223Z" fill="#191919"/>
<path d="M112.588 223.16C115.068 223.16 116.828 221.32 116.828 219C116.828 216.68 115.068 214.84 112.588 214.84C110.108 214.84 108.348 216.68 108.348 219C108.348 221.32 110.108 223.16 112.588 223.16ZM112.588 221.72C111.068 221.72 110.028 220.52 110.028 219C110.028 217.48 111.068 216.28 112.588 216.28C114.108 216.28 115.148 217.48 115.148 219C115.148 220.52 114.108 221.72 112.588 221.72Z" fill="#191919"/>
<path d="M120.191 223H121.791V216.44H124.575V215H117.407V216.44H120.191V223Z" fill="#191919"/>
<path d="M125.953 223H127.553V219.24L131.121 223H133.281L129.265 218.808L132.977 215H131.057L127.553 218.6V215H125.953V223Z" fill="#191919"/>
<path d="M135.772 215H134.172V226.2H135.772V221.208C136.348 222.392 137.436 223.16 138.892 223.16C141.116 223.16 142.572 221.32 142.572 219C142.572 216.68 141.084 214.84 138.892 214.84C137.436 214.84 136.348 215.608 135.772 216.792V215ZM138.332 216.28C139.836 216.28 140.892 217.336 140.892 219C140.892 220.664 139.836 221.72 138.332 221.72C136.892 221.72 135.772 220.616 135.772 219C135.772 217.4 136.892 216.28 138.332 216.28Z" fill="#191919"/>
<path d="M144.11 223H147.614C149.774 223 150.734 221.608 150.734 220.232C150.734 218.84 149.774 217.512 147.614 217.512H145.71V215H144.11V223ZM151.806 223H153.406V215H151.806V223ZM147.566 218.92C148.622 218.92 149.054 219.56 149.054 220.232C149.054 220.984 148.622 221.576 147.646 221.576H145.71V218.92H147.566Z" fill="#191919"/>
<path d="M155.422 223H159.246C161.438 223 162.142 221.848 162.142 220.76C162.142 219.688 161.422 219.08 160.254 218.888C161.278 218.616 161.79 217.912 161.79 217.08C161.79 215.752 160.814 215 159.038 215H155.422V223ZM158.958 218.328H156.99V216.36H158.958C159.79 216.36 160.142 216.792 160.142 217.352C160.142 217.896 159.79 218.328 158.958 218.328ZM159.07 219.608C160.11 219.608 160.462 220.088 160.462 220.6C160.462 221.176 160.11 221.64 159.15 221.64H156.99V219.608H159.07Z" fill="#191919"/>
<path d="M168.712 217.992V218.12C165.048 218.12 163.368 219.096 163.368 220.92C163.368 222.36 164.312 223.16 165.816 223.16C167.464 223.16 168.312 222.248 168.712 221.08V223H170.312V218.152C170.312 215.928 169.144 214.84 166.984 214.84C165 214.84 163.752 215.816 163.496 217.672H165.096C165.224 216.84 165.864 216.28 166.984 216.28C168.072 216.28 168.712 216.84 168.712 217.992ZM165.048 220.84C165.048 219.88 166.072 219.272 168.712 219.272C168.712 220.648 167.832 221.784 166.184 221.784C165.48 221.784 165.048 221.448 165.048 220.84Z" fill="#191919"/>
<path d="M174.238 223H175.838V216.44H178.622V215H171.454V216.44H174.238V223Z" fill="#191919"/>
<path d="M180 223H183.504C185.664 223 186.624 221.608 186.624 220.232C186.624 218.84 185.664 217.512 183.504 217.512H181.6V215H180V223ZM183.456 218.92C184.512 218.92 184.944 219.56 184.944 220.232C184.944 220.984 184.512 221.576 183.536 221.576H181.6V218.92H183.456Z" fill="#191919"/>
<path d="M191.781 223H193.381V219.64H197.141V223H198.741V215H197.141V218.2H193.381V215H191.781V223Z" fill="#191919"/>
<path d="M204.51 223.16C206.99 223.16 208.75 221.32 208.75 219C208.75 216.68 206.99 214.84 204.51 214.84C202.03 214.84 200.27 216.68 200.27 219C200.27 221.32 202.03 223.16 204.51 223.16ZM204.51 221.72C202.99 221.72 201.95 220.52 201.95 219C201.95 217.48 202.99 216.28 204.51 216.28C206.03 216.28 207.07 217.48 207.07 219C207.07 220.52 206.03 221.72 204.51 221.72Z" fill="#191919"/>
<path d="M210.281 223H214.105C216.297 223 217.001 221.848 217.001 220.76C217.001 219.688 216.281 219.08 215.113 218.888C216.137 218.616 216.649 217.912 216.649 217.08C216.649 215.752 215.673 215 213.897 215H210.281V223ZM213.817 218.328H211.849V216.36H213.817C214.649 216.36 215.001 216.792 215.001 217.352C215.001 217.896 214.649 218.328 213.817 218.328ZM213.929 219.608C214.969 219.608 215.321 220.088 215.321 220.6C215.321 221.176 214.969 221.64 214.009 221.64H211.849V219.608H213.929Z" fill="#191919"/>
<path d="M222.229 223.16C224.709 223.16 226.469 221.32 226.469 219C226.469 216.68 224.709 214.84 222.229 214.84C219.749 214.84 217.989 216.68 217.989 219C217.989 221.32 219.749 223.16 222.229 223.16ZM222.229 221.72C220.709 221.72 219.669 220.52 219.669 219C219.669 217.48 220.709 216.28 222.229 216.28C223.749 216.28 224.789 217.48 224.789 219C224.789 220.52 223.749 221.72 222.229 221.72Z" fill="#191919"/>
<path d="M231.68 221.768C230.208 221.768 229.28 220.744 229.168 219.288H235.792C235.824 219.128 235.84 218.952 235.84 218.792C235.84 216.6 234.144 214.84 231.68 214.84C229.216 214.84 227.52 216.664 227.52 219C227.52 221.416 229.216 223.16 231.68 223.16C233.744 223.16 235.072 222.216 235.536 220.52H234C233.68 221.256 232.976 221.768 231.68 221.768ZM231.68 216.232C232.976 216.232 233.84 217.032 234.128 218.168H229.248C229.552 217 230.464 216.232 231.68 216.232Z" fill="#191919"/>
</svg>
