<svg width="768" height="291" viewBox="0 0 768 291" fill="none" xmlns="http://www.w3.org/2000/svg">
<g id="1920/about us">
<path id="Vector" d="M27.2931 53.4628C41.7185 53.4628 52.0127 42.7025 52.0127 29.1C52.0127 15.4974 41.7185 4.73718 27.2931 4.73718C12.8677 4.73718 2.57355 15.4974 2.57355 29.1C2.57355 42.7025 12.8677 53.4628 27.2931 53.4628ZM27.2931 47.0337C17.0667 47.0337 10.0233 39.1158 10.0233 29.1C10.0233 19.0842 17.0667 11.1663 27.2931 11.1663C37.5196 11.1663 44.563 19.0842 44.563 29.1C44.563 39.1158 37.5196 47.0337 27.2931 47.0337ZM74.8354 52.786H81.6079V36.8825L96.7106 52.786H105.853L88.8545 35.0553L104.567 18.9488H96.4397L81.6079 34.1756V18.9488H74.8354V52.786ZM124.547 53.4628C135.044 53.4628 142.494 45.6802 142.494 35.8674C142.494 26.0546 135.044 18.2721 124.547 18.2721C114.05 18.2721 106.6 26.0546 106.6 35.8674C106.6 45.6802 114.05 53.4628 124.547 53.4628ZM124.547 47.3721C118.113 47.3721 113.711 42.2965 113.711 35.8674C113.711 29.4383 118.113 24.3628 124.547 24.3628C130.981 24.3628 135.383 29.4383 135.383 35.8674C135.383 42.2965 130.981 47.3721 124.547 47.3721ZM148.976 52.786H155.41V26.9344L165.839 52.786H171.257L181.687 26.9344V52.786H188.459V18.9488H178.91L168.887 43.9207L158.796 18.9488H148.976V52.786ZM196.991 52.786H203.764V25.0395H219.002V52.786H225.774V18.9488H196.991V52.786ZM255.558 31.6039V32.1453C240.049 32.1453 232.938 36.2735 232.938 43.9883C232.938 50.079 236.934 53.4628 243.3 53.4628C250.276 53.4628 253.865 49.6053 255.558 44.6651V52.786H262.331V32.2807C262.331 22.8739 257.387 18.2721 248.244 18.2721C239.846 18.2721 234.564 22.4002 233.48 30.2504H240.253C240.794 26.7314 243.503 24.3628 248.244 24.3628C252.849 24.3628 255.558 26.7314 255.558 31.6039ZM240.049 43.65C240.049 39.5895 244.384 37.0179 255.558 37.0179C255.558 42.8379 251.834 47.6428 244.858 47.6428C241.878 47.6428 240.049 46.2216 240.049 43.65ZM270.536 52.786H277.309V38.5744H293.224V52.786H299.997V18.9488H293.224V32.4837H277.309V18.9488H270.536V52.786ZM308.499 52.786H315.271L331.864 28.6939V52.786H338.637V18.9488H331.864L315.271 43.0409V18.9488H308.499V52.786ZM347.19 52.786H353.963L370.555 28.6939V52.786H377.328V18.9488H370.555L353.963 43.0409V18.9488H347.19V52.786Z" fill="#191919"/>
<path id="Vector_2" d="M8.88007 118.33L4.79761 114.042L8.88007 109.754L6.94314 108.117L1.22174 114.161L6.94314 120.176L8.88007 118.33ZM15.2868 118.33L11.2044 114.042L15.2868 109.754L13.3499 108.117L7.62851 114.161L13.3499 120.176L15.2868 118.33ZM17.0272 121.814H20.0965L22.3016 116.007H30.8837L33.1187 121.814H36.3965L28.3508 100.97H25.0729L17.0272 121.814ZM23.3446 113.328L26.5629 104.841L29.8408 113.328H23.3446ZM44.1192 122.112C48.7082 122.112 50.6154 119.908 50.6154 117.496C50.6154 115.829 49.4234 114.489 47.5163 114.072C49.2148 113.625 50.1386 112.345 50.1386 110.826C50.1386 108.563 48.3209 106.628 44.149 106.628C40.3645 106.628 37.9806 108.593 37.6826 111.66H40.7817C41.0499 110.439 41.8545 109.308 44.0894 109.308C46.0859 109.308 47.0097 110.201 47.0097 111.303C47.0097 112.375 46.3243 113.089 44.2086 113.089H42.1525V115.62H44.6556C46.7117 115.62 47.4865 116.395 47.4865 117.407C47.4865 118.479 46.8011 119.432 44.1192 119.432C41.8545 119.432 40.8413 118.479 40.4837 116.931H37.3847C37.6826 119.998 39.7686 122.112 44.1192 122.112ZM60.74 122.112C65.478 122.112 68.6367 118.806 68.6367 114.668C68.6367 110.588 66.0442 107.253 61.8127 107.253C59.0116 107.253 56.7171 108.861 55.7338 111.184C55.853 106.747 57.1641 104.871 62.2299 104.216C65.2992 103.829 67.3851 103.203 67.8619 100.375H65.0608C64.8522 101.119 63.7795 101.357 61.7531 101.596C55.4954 102.34 52.8731 105.437 52.8731 112.643C52.8731 115.204 53.2008 117.228 54.1842 118.747C55.3464 120.593 57.7005 122.112 60.74 122.112ZM60.74 119.432C57.9687 119.432 56.0019 117.467 56.0019 114.668C56.0019 111.928 57.9687 109.933 60.74 109.933C63.5411 109.933 65.5078 111.928 65.5078 114.668C65.5078 117.467 63.5411 119.432 60.74 119.432ZM77.8435 122.588L84.1609 106.926H81.2704L76.8899 118.032L72.4499 106.926H69.2614L75.2808 121.873C74.3272 124.524 73.7312 125.089 70.6023 125.089V127.769C75.0722 127.769 76.2343 126.608 77.8435 122.588ZM86.1234 121.814H89.1033V114.816L95.7485 121.814H99.7713L92.2918 114.012L99.2051 106.926H95.6293L89.1033 113.625V106.926H86.1234V121.814ZM110.351 112.494V112.732C103.527 112.732 100.398 114.548 100.398 117.943C100.398 120.623 102.156 122.112 104.957 122.112C108.026 122.112 109.606 120.414 110.351 118.241V121.814H113.331V112.792C113.331 108.653 111.155 106.628 107.132 106.628C103.437 106.628 101.113 108.444 100.636 111.898H103.616C103.854 110.35 105.046 109.308 107.132 109.308C109.159 109.308 110.351 110.35 110.351 112.494ZM103.527 117.794C103.527 116.007 105.434 114.876 110.351 114.876C110.351 117.437 108.712 119.551 105.642 119.551C104.331 119.551 103.527 118.926 103.527 117.794ZM176.399 119.432C173.717 119.432 171.84 117.437 171.84 114.37C171.84 111.333 173.657 109.308 176.399 109.308C178.604 109.308 179.885 110.38 180.452 112.285H183.431C182.865 108.802 180.332 106.628 176.399 106.628C171.84 106.628 168.711 110.082 168.711 114.37C168.711 118.687 171.84 122.112 176.458 122.112C180.243 122.112 182.835 120.087 183.551 116.305H180.571C180.034 118.39 178.604 119.432 176.399 119.432ZM195.619 112.494V112.732C188.795 112.732 185.666 114.548 185.666 117.943C185.666 120.623 187.424 122.112 190.226 122.112C193.295 122.112 194.874 120.414 195.619 118.241V121.814H198.599V112.792C198.599 108.653 196.424 106.628 192.401 106.628C188.706 106.628 186.382 108.444 185.905 111.898H188.885C189.123 110.35 190.315 109.308 192.401 109.308C194.427 109.308 195.619 110.35 195.619 112.494ZM161.619 122.588L167.936 106.926H165.045L160.665 118.032L156.225 106.926H153.037L159.056 121.873C158.102 124.524 157.506 125.089 154.377 125.089V127.769C158.847 127.769 160.009 126.608 161.619 122.588ZM123.983 121.814H131.105C135.187 121.814 136.498 119.67 136.498 117.645C136.498 115.65 135.158 114.519 132.982 114.161C134.889 113.655 135.843 112.345 135.843 110.797C135.843 108.325 134.025 106.926 130.718 106.926H123.983V121.814ZM139.418 121.814H142.398V114.816L149.043 121.814H153.066L145.587 114.012L152.5 106.926H148.924L142.398 113.625V106.926H139.418V121.814ZM130.569 113.119H126.903V109.457H130.569C132.118 109.457 132.774 110.261 132.774 111.303C132.774 112.315 132.118 113.119 130.569 113.119ZM188.795 117.794C188.795 116.007 190.702 114.876 195.619 114.876C195.619 117.437 193.98 119.551 190.911 119.551C189.6 119.551 188.795 118.926 188.795 117.794ZM130.777 115.501C132.714 115.501 133.37 116.395 133.37 117.347C133.37 118.419 132.714 119.283 130.926 119.283H126.903V115.501H130.777ZM208.91 109.963L212.992 114.251L208.91 118.539L210.846 120.176L216.568 114.132L210.846 108.117L208.91 109.963ZM202.503 109.963L206.585 114.251L202.503 118.539L204.44 120.176L210.161 114.132L204.44 108.117L202.503 109.963ZM233.502 122.588L239.819 106.926H236.929L232.548 118.032L228.108 106.926H224.92L230.939 121.873C229.986 124.524 229.39 125.089 226.261 125.089V127.769C230.73 127.769 231.893 126.608 233.502 122.588ZM249.626 121.814H252.606V114.846L258.953 121.814H262.886L255.735 114.012L262.32 106.926H258.834L252.606 113.625V106.926H249.626V113.625L243.398 106.926H239.762L246.497 114.161L239.494 121.814H243.279L249.626 114.846V121.814ZM271.073 119.521C268.331 119.521 266.603 117.615 266.394 114.906H278.731C278.791 114.608 278.821 114.28 278.821 113.983C278.821 109.903 275.662 106.628 271.073 106.628C266.484 106.628 263.325 110.022 263.325 114.37C263.325 118.866 266.484 122.112 271.073 122.112C274.917 122.112 277.39 120.355 278.254 117.199H275.394C274.798 118.568 273.487 119.521 271.073 119.521ZM271.073 109.218C273.487 109.218 275.096 110.707 275.632 112.821H266.543C267.11 110.648 268.808 109.218 271.073 109.218ZM287.38 125.089H290.211V121.814H301.117V125.089H303.948V119.134H301.862V106.926H290.449V108.623C290.449 115.055 289.853 117.675 289.227 119.134H287.38V125.089ZM292.177 119.134C292.714 117.764 293.19 115.65 293.25 109.605H298.882V119.134H292.177ZM315.568 112.494V112.732C308.744 112.732 305.615 114.548 305.615 117.943C305.615 120.623 307.373 122.112 310.174 122.112C313.244 122.112 314.823 120.414 315.568 118.241V121.814H318.548V112.792C318.548 108.653 316.373 106.628 312.35 106.628C308.655 106.628 306.33 108.444 305.854 111.898H308.834C309.072 110.35 310.264 109.308 312.35 109.308C314.376 109.308 315.568 110.35 315.568 112.494ZM308.744 117.794C308.744 116.007 310.651 114.876 315.568 114.876C315.568 117.437 313.929 119.551 310.86 119.551C309.549 119.551 308.744 118.926 308.744 117.794ZM322.158 121.814H329.28C333.362 121.814 334.673 119.67 334.673 117.645C334.673 115.65 333.332 114.519 331.157 114.161C333.064 113.655 334.018 112.345 334.018 110.797C334.018 108.325 332.2 106.926 328.892 106.926H322.158V121.814ZM328.743 113.119H325.078V109.457H328.743C330.293 109.457 330.948 110.261 330.948 111.303C330.948 112.315 330.293 113.119 328.743 113.119ZM328.952 115.501C330.889 115.501 331.544 116.395 331.544 117.347C331.544 118.419 330.889 119.283 329.101 119.283H325.078V115.501H328.952ZM337.552 121.814H340.531V115.561H347.534V121.814H350.514V106.926H347.534V112.881H340.531V106.926H337.552V121.814ZM361.258 122.112C365.877 122.112 369.155 118.687 369.155 114.37C369.155 110.052 365.877 106.628 361.258 106.628C356.639 106.628 353.361 110.052 353.361 114.37C353.361 118.687 356.639 122.112 361.258 122.112ZM361.258 119.432C358.427 119.432 356.49 117.199 356.49 114.37C356.49 111.541 358.427 109.308 361.258 109.308C364.089 109.308 366.026 111.541 366.026 114.37C366.026 117.199 364.089 119.432 361.258 119.432ZM379.049 121.814H382.029V115.561H389.032V121.814H392.012V106.926H389.032V112.881H382.029V106.926H379.049V121.814ZM402.607 119.521C399.865 119.521 398.137 117.615 397.928 114.906H410.265C410.325 114.608 410.354 114.28 410.354 113.983C410.354 109.903 407.196 106.628 402.607 106.628C398.018 106.628 394.859 110.022 394.859 114.37C394.859 118.866 398.018 122.112 402.607 122.112C406.451 122.112 408.924 120.355 409.788 117.199H406.928C406.332 118.568 405.02 119.521 402.607 119.521ZM402.607 109.218C405.02 109.218 406.63 110.707 407.166 112.821H398.077C398.643 110.648 400.342 109.218 402.607 109.218ZM424.249 121.814H427.229V109.605H432.414V106.926H419.064V109.605H424.249V121.814ZM441.401 122.112C446.02 122.112 449.298 118.687 449.298 114.37C449.298 110.052 446.02 106.628 441.401 106.628C436.782 106.628 433.504 110.052 433.504 114.37C433.504 118.687 436.782 122.112 441.401 122.112ZM441.401 119.432C438.57 119.432 436.633 117.199 436.633 114.37C436.633 111.541 438.57 109.308 441.401 109.308C444.232 109.308 446.169 111.541 446.169 114.37C446.169 117.199 444.232 119.432 441.401 119.432ZM453.058 114.37C452.998 118.062 452.581 119.134 450.376 119.134V122.112C454.458 122.112 455.71 120.087 455.859 114.429L455.978 109.605H461.401V121.814H464.381V106.926H453.207L453.058 114.37ZM468.126 121.814H474.652C478.675 121.814 480.463 119.223 480.463 116.663C480.463 114.072 478.675 111.601 474.652 111.601H471.106V106.926H468.126V121.814ZM474.563 114.221C476.53 114.221 477.334 115.412 477.334 116.663C477.334 118.062 476.53 119.164 474.712 119.164H471.106V114.221H474.563ZM483.026 121.814H486.006V114.816L492.651 121.814H496.674L489.194 114.012L496.108 106.926H492.532L486.006 113.625V106.926H483.026V121.814ZM504.898 122.112C509.517 122.112 512.795 118.687 512.795 114.37C512.795 110.052 509.517 106.628 504.898 106.628C500.279 106.628 497.002 110.052 497.002 114.37C497.002 118.687 500.279 122.112 504.898 122.112ZM504.898 119.432C502.067 119.432 500.13 117.199 500.13 114.37C500.13 111.541 502.067 109.308 504.898 109.308C507.729 109.308 509.666 111.541 509.666 114.37C509.666 117.199 507.729 119.432 504.898 119.432ZM529.692 122.112C534.311 122.112 537.589 118.687 537.589 114.37C537.589 110.052 534.311 106.628 529.692 106.628C525.074 106.628 521.796 110.052 521.796 114.37C521.796 118.687 525.074 122.112 529.692 122.112ZM529.692 119.432C526.862 119.432 524.925 117.199 524.925 114.37C524.925 111.541 526.862 109.308 529.692 109.308C532.523 109.308 534.46 111.541 534.46 114.37C534.46 117.199 532.523 119.432 529.692 119.432ZM538.808 125.089H541.639V121.814H552.545V125.089H555.376V119.134H553.29V106.926H541.877V108.623C541.877 115.055 541.281 117.675 540.656 119.134H538.808V125.089ZM543.606 119.134C544.142 117.764 544.619 115.65 544.679 109.605H550.311V119.134H543.606ZM557.785 121.814H560.765L568.065 111.213V121.814H571.045V106.926H568.065L560.765 117.526V106.926H557.785V121.814ZM574.808 121.814H577.788V115.561H584.791V121.814H587.771V106.926H584.791V112.881H577.788V106.926H574.808V121.814ZM598.555 121.814H601.535L608.836 111.213V121.814H611.816V106.926H608.836L601.535 117.526V106.926H598.555V121.814ZM621.27 122.112C625.859 122.112 627.766 119.908 627.766 117.496C627.766 115.829 626.574 114.489 624.667 114.072C626.366 113.625 627.289 112.345 627.289 110.826C627.289 108.563 625.472 106.628 621.3 106.628C617.515 106.628 615.131 108.593 614.833 111.66H617.932C618.201 110.439 619.005 109.308 621.24 109.308C623.237 109.308 624.16 110.201 624.16 111.303C624.16 112.375 623.475 113.089 621.359 113.089H619.303V115.62H621.806C623.862 115.62 624.637 116.395 624.637 117.407C624.637 118.479 623.952 119.432 621.27 119.432C619.005 119.432 617.992 118.479 617.635 116.931H614.535C614.833 119.998 616.919 122.112 621.27 122.112ZM639.301 114.37C639.241 118.062 638.824 119.134 636.619 119.134V122.112C640.702 122.112 641.953 120.087 642.102 114.429L642.221 109.605H647.645V121.814H650.625V106.926H639.45L639.301 114.37ZM661.164 122.588L667.481 106.926H664.591L660.21 118.032L655.77 106.926H652.582L658.601 121.873C657.648 124.524 657.052 125.089 653.923 125.089V127.769C658.393 127.769 659.555 126.608 661.164 122.588ZM669.146 110.797C669.146 115.382 671.917 116.692 675.404 116.692C676.626 116.692 677.758 116.543 678.831 116.275V121.814H681.811V106.926H678.831V113.685C677.877 113.923 676.924 114.012 676.03 114.012C673.497 114.012 672.126 113.208 672.126 110.797V106.926H669.146V110.797ZM685.565 121.814H705.829V106.926H702.849V119.074H697.187V106.926H694.207V119.074H688.545V106.926H685.565V121.814ZM709.574 121.814H712.554L719.854 111.213V121.814H722.834V106.926H719.854L712.554 117.526V106.926H709.574V121.814ZM728.385 121.814L732.289 116.484L736.133 121.814H739.679L734.196 114.221L739.44 106.926H736.222L732.646 112.047L728.951 106.926H725.405L730.739 114.31L725.107 121.814H728.385ZM1.87732 154.298H4.85721V142.089H11.562V154.298H14.5419V139.409H1.87732V154.298ZM21.2699 139.409H18.29V160.253H21.2699V150.963C22.3427 153.166 24.369 154.595 27.0807 154.595C31.2228 154.595 33.9345 151.171 33.9345 146.853C33.9345 142.536 31.1632 139.112 27.0807 139.112C24.369 139.112 22.3427 140.541 21.2699 142.744V139.409ZM26.0378 141.791C28.8389 141.791 30.8056 143.757 30.8056 146.853C30.8056 149.95 28.8389 151.916 26.0378 151.916C23.3559 151.916 21.2699 149.861 21.2699 146.853C21.2699 143.876 23.3559 141.791 26.0378 141.791ZM43.8008 154.595C48.4196 154.595 51.6975 151.171 51.6975 146.853C51.6975 142.536 48.4196 139.112 43.8008 139.112C39.1819 139.112 35.9039 142.536 35.9039 146.853C35.9039 151.171 39.1819 154.595 43.8008 154.595ZM43.8008 151.916C40.9699 151.916 39.0329 149.682 39.0329 146.853C39.0329 144.025 40.9699 141.791 43.8008 141.791C46.6317 141.791 48.5686 144.025 48.5686 146.853C48.5686 149.682 46.6317 151.916 43.8008 151.916ZM52.9174 157.573H55.7483V154.298H66.6547V157.573H69.4856V151.618H67.3996V139.409H55.9866V141.107C55.9866 147.538 55.3907 150.159 54.7649 151.618H52.9174V157.573ZM57.715 151.618C58.2514 150.248 58.7281 148.134 58.7877 142.089H64.4197V151.618H57.715ZM78.6873 155.072L85.0047 139.409H82.1142L77.7338 150.516L73.2937 139.409H70.1052L76.1246 154.357C75.1711 157.007 74.5751 157.573 71.4462 157.573V160.253C75.916 160.253 77.0782 159.092 78.6873 155.072ZM86.9672 154.298H89.9471V147.3L96.5923 154.298H100.615L93.1356 146.496L100.049 139.409H96.4731L89.9471 146.109V139.409H86.9672V154.298ZM106.122 154.298H109.102V142.089H114.287V139.409H100.937V142.089H106.122V154.298ZM123.274 154.595C127.893 154.595 131.171 151.171 131.171 146.853C131.171 142.536 127.893 139.112 123.274 139.112C118.655 139.112 115.378 142.536 115.378 146.853C115.378 151.171 118.655 154.595 123.274 154.595ZM123.274 151.916C120.443 151.916 118.506 149.682 118.506 146.853C118.506 144.025 120.443 141.791 123.274 141.791C126.105 141.791 128.042 144.025 128.042 146.853C128.042 149.682 126.105 151.916 123.274 151.916ZM134.023 154.298H141.145C145.228 154.298 146.539 152.154 146.539 150.129C146.539 148.134 145.198 147.002 143.023 146.645C144.93 146.139 145.883 144.829 145.883 143.28C145.883 140.809 144.066 139.409 140.758 139.409H134.023V154.298ZM140.609 145.603H136.944V141.94H140.609C142.159 141.94 142.814 142.744 142.814 143.786C142.814 144.799 142.159 145.603 140.609 145.603ZM140.818 147.985C142.755 147.985 143.41 148.878 143.41 149.831C143.41 150.903 142.755 151.767 140.967 151.767H136.944V147.985H140.818ZM149.417 154.298H155.943C159.966 154.298 161.754 151.707 161.754 149.146C161.754 146.556 159.966 144.084 155.943 144.084H152.397V139.409H149.417V154.298ZM163.751 154.298H166.73V139.409H163.751V154.298ZM155.854 146.705C157.821 146.705 158.625 147.896 158.625 149.146C158.625 150.546 157.821 151.648 156.003 151.648H152.397V146.705H155.854ZM172.273 154.298L176.177 148.968L180.021 154.298H183.567L178.084 146.705L183.329 139.409H180.11L176.534 144.531L172.839 139.409H169.293L174.627 146.794L168.995 154.298H172.273ZM195.844 139.409H192.864V160.253H195.844V150.963C196.917 153.166 198.943 154.595 201.655 154.595C205.797 154.595 208.509 151.171 208.509 146.853C208.509 142.536 205.737 139.112 201.655 139.112C198.943 139.112 196.917 140.541 195.844 142.744V139.409ZM200.612 141.791C203.413 141.791 205.38 143.757 205.38 146.853C205.38 149.95 203.413 151.916 200.612 151.916C197.93 151.916 195.844 149.861 195.844 146.853C195.844 143.876 197.93 141.791 200.612 141.791ZM211.372 154.298H214.352L221.653 143.697V154.298H224.633V139.409H221.653L214.352 150.01V139.409H211.372V154.298ZM232.388 154.298H235.368V142.089H240.553V139.409H227.203V142.089H232.388V154.298ZM249.393 152.005C246.651 152.005 244.923 150.099 244.714 147.389H257.051C257.111 147.092 257.14 146.764 257.14 146.466C257.14 142.387 253.982 139.112 249.393 139.112C244.804 139.112 241.645 142.506 241.645 146.853C241.645 151.35 244.804 154.595 249.393 154.595C253.237 154.595 255.71 152.839 256.574 149.682H253.714C253.118 151.052 251.806 152.005 249.393 152.005ZM249.393 141.702C251.806 141.702 253.416 143.191 253.952 145.305H244.863C245.429 143.131 247.128 141.702 249.393 141.702ZM262.084 133.454C262.084 135.955 263.723 137.623 266.644 137.623C269.564 137.623 271.203 135.955 271.203 133.454H268.551C268.551 134.853 267.836 135.509 266.644 135.509C265.452 135.509 264.736 134.853 264.736 133.454H262.084ZM259.998 154.298H262.978L270.279 143.697V154.298H273.259V139.409H270.279L262.978 150.01V139.409H259.998V154.298ZM278.513 146.853C278.453 150.546 278.036 151.618 275.831 151.618V154.595C279.914 154.595 281.165 152.571 281.314 146.913L281.433 142.089H286.857V154.298H289.837V139.409H278.662L278.513 146.853ZM300.583 154.595C305.202 154.595 308.48 151.171 308.48 146.853C308.48 142.536 305.202 139.112 300.583 139.112C295.964 139.112 292.687 142.536 292.687 146.853C292.687 151.171 295.964 154.595 300.583 154.595ZM300.583 151.916C297.752 151.916 295.815 149.682 295.815 146.853C295.815 144.025 297.752 141.791 300.583 141.791C303.414 141.791 305.351 144.025 305.351 146.853C305.351 149.682 303.414 151.916 300.583 151.916ZM311.333 154.298H318.454C322.537 154.298 323.848 152.154 323.848 150.129C323.848 148.134 322.507 147.002 320.332 146.645C322.239 146.139 323.193 144.829 323.193 143.28C323.193 140.809 321.375 139.409 318.067 139.409H311.333V154.298ZM317.918 145.603H314.253V141.94H317.918C319.468 141.94 320.123 142.744 320.123 143.786C320.123 144.799 319.468 145.603 317.918 145.603ZM318.127 147.985C320.064 147.985 320.719 148.878 320.719 149.831C320.719 150.903 320.064 151.767 318.276 151.767H314.253V147.985H318.127ZM327.23 156.978H328.839L330.121 154.179C330.568 153.196 330.687 152.69 330.687 152.332C330.687 151.112 329.704 150.218 328.482 150.218C327.23 150.218 326.277 151.112 326.277 152.332C326.277 153.107 326.605 153.851 327.737 154.357L327.23 156.978ZM340.899 154.298H343.729V142.923L348.318 154.298H350.702L355.291 142.923V154.298H358.271V139.409H354.07L349.659 150.397L345.219 139.409H340.899V154.298ZM362.026 154.298H368.552C372.575 154.298 374.363 151.707 374.363 149.146C374.363 146.556 372.575 144.084 368.552 144.084H365.006V139.409H362.026V154.298ZM376.359 154.298H379.339V139.409H376.359V154.298ZM368.463 146.705C370.429 146.705 371.234 147.896 371.234 149.146C371.234 150.546 370.429 151.648 368.612 151.648H365.006V146.705H368.463ZM396.931 151.916C394.249 151.916 392.372 149.92 392.372 146.853C392.372 143.816 394.19 141.791 396.931 141.791C399.136 141.791 400.418 142.863 400.984 144.769H403.964C403.398 141.285 400.865 139.112 396.931 139.112C392.372 139.112 389.243 142.566 389.243 146.853C389.243 151.171 392.372 154.595 396.991 154.595C400.775 154.595 403.368 152.571 404.083 148.789H401.103C400.567 150.873 399.136 151.916 396.931 151.916ZM410.659 154.298H413.639V142.089H418.824V139.409H405.474V142.089H410.659V154.298ZM430.165 144.978V145.216C423.341 145.216 420.212 147.032 420.212 150.427C420.212 153.107 421.971 154.595 424.772 154.595C427.841 154.595 429.42 152.898 430.165 150.724V154.298H433.145V145.275C433.145 141.136 430.97 139.112 426.947 139.112C423.252 139.112 420.928 140.928 420.451 144.382H423.431C423.669 142.834 424.861 141.791 426.947 141.791C428.973 141.791 430.165 142.834 430.165 144.978ZM423.341 150.278C423.341 148.491 425.248 147.36 430.165 147.36C430.165 149.92 428.526 152.035 425.457 152.035C424.146 152.035 423.341 151.409 423.341 150.278ZM436.756 154.298H439.736V148.045H446.739V154.298H449.719V139.409H446.739V145.365H439.736V139.409H436.756V154.298ZM460.463 154.595C465.082 154.595 468.359 151.171 468.359 146.853C468.359 142.536 465.082 139.112 460.463 139.112C455.844 139.112 452.566 142.536 452.566 146.853C452.566 151.171 455.844 154.595 460.463 154.595ZM460.463 151.916C457.632 151.916 455.695 149.682 455.695 146.853C455.695 144.025 457.632 141.791 460.463 141.791C463.294 141.791 465.231 144.025 465.231 146.853C465.231 149.682 463.294 151.916 460.463 151.916ZM471.211 154.298H478.333C482.415 154.298 483.726 152.154 483.726 150.129C483.726 148.134 482.385 147.002 480.21 146.645C482.117 146.139 483.071 144.829 483.071 143.28C483.071 140.809 481.253 139.409 477.945 139.409H471.211V154.298ZM477.796 145.603H474.131V141.94H477.796C479.346 141.94 480.001 142.744 480.001 143.786C480.001 144.799 479.346 145.603 477.796 145.603ZM478.005 147.985C479.942 147.985 480.597 148.878 480.597 149.831C480.597 150.903 479.942 151.767 478.154 151.767H474.131V147.985H478.005ZM486.604 154.298H489.584L496.885 143.697V154.298H499.865V139.409H496.885L489.584 150.01V139.409H486.604V154.298ZM503.629 154.298H506.46V142.923L511.049 154.298H513.433L518.022 142.923V154.298H521.002V139.409H516.8L512.39 150.397L507.95 139.409H503.629V154.298ZM531.549 151.916C528.868 151.916 526.99 149.92 526.99 146.853C526.99 143.816 528.808 141.791 531.549 141.791C533.755 141.791 535.036 142.863 535.602 144.769H538.582C538.016 141.285 535.483 139.112 531.549 139.112C526.99 139.112 523.861 142.566 523.861 146.853C523.861 151.171 526.99 154.595 531.609 154.595C535.393 154.595 537.986 152.571 538.701 148.789H535.721C535.185 150.873 533.755 151.916 531.549 151.916ZM543.817 154.298L547.959 149.027H550.432V154.298H553.412V139.409H546.886C542.864 139.409 541.076 141.911 541.076 144.412C541.076 146.526 542.357 148.074 544.8 148.64L540.241 154.298H543.817ZM546.976 146.705C545.009 146.705 544.204 145.573 544.204 144.412C544.204 143.102 545.009 142.059 546.827 142.059H550.432V146.705H546.976ZM570.623 151.975C568.298 151.975 566.779 150.963 566.242 148.938H563.322C563.977 152.69 566.6 154.595 570.563 154.595C575.39 154.595 578.162 151.171 578.162 146.853C578.162 142.566 575.39 139.112 570.623 139.112C566.51 139.112 564.037 141.226 563.441 144.62H566.361C566.928 142.774 568.298 141.732 570.623 141.732C573.036 141.732 574.616 143.161 575.063 145.454H568.745V147.985H575.092C574.735 150.427 573.096 151.975 570.623 151.975ZM581.036 154.298H584.016V147.3L590.661 154.298H594.684L587.204 146.496L594.118 139.409H590.542L584.016 146.109V139.409H581.036V154.298ZM602.91 154.595C607.529 154.595 610.806 151.171 610.806 146.853C610.806 142.536 607.529 139.112 602.91 139.112C598.291 139.112 595.013 142.536 595.013 146.853C595.013 151.171 598.291 154.595 602.91 154.595ZM602.91 151.916C600.079 151.916 598.142 149.682 598.142 146.853C598.142 144.025 600.079 141.791 602.91 141.791C605.741 141.791 607.678 144.025 607.678 146.853C607.678 149.682 605.741 151.916 602.91 151.916ZM620.452 151.916C617.77 151.916 615.893 149.92 615.893 146.853C615.893 143.816 617.71 141.791 620.452 141.791C622.657 141.791 623.938 142.863 624.505 144.769H627.484C626.918 141.285 624.385 139.112 620.452 139.112C615.893 139.112 612.764 142.566 612.764 146.853C612.764 151.171 615.893 154.595 620.511 154.595C624.296 154.595 626.888 152.571 627.604 148.789H624.624C624.087 150.873 622.657 151.916 620.452 151.916ZM630.478 154.298H633.458L640.758 143.697V154.298H643.738V139.409H640.758L633.458 150.01V139.409H630.478V154.298ZM654.295 151.916C651.613 151.916 649.736 149.92 649.736 146.853C649.736 143.816 651.554 141.791 654.295 141.791C656.5 141.791 657.782 142.863 658.348 144.769H661.328C660.762 141.285 658.229 139.112 654.295 139.112C649.736 139.112 646.607 142.566 646.607 146.853C646.607 151.171 649.736 154.595 654.355 154.595C658.139 154.595 660.732 152.571 661.447 148.789H658.467C657.931 150.873 656.5 151.916 654.295 151.916ZM668.023 154.298H671.003V142.089H676.188V139.409H662.838V142.089H668.023V154.298ZM685.028 152.005C682.286 152.005 680.558 150.099 680.349 147.389H692.686C692.745 147.092 692.775 146.764 692.775 146.466C692.775 142.387 689.617 139.112 685.028 139.112C680.438 139.112 677.28 142.506 677.28 146.853C677.28 151.35 680.438 154.595 685.028 154.595C688.872 154.595 691.345 152.839 692.209 149.682H689.348C688.752 151.052 687.441 152.005 685.028 152.005ZM685.028 141.702C687.441 141.702 689.05 143.191 689.587 145.305H680.498C681.064 143.131 682.763 141.702 685.028 141.702ZM695.635 154.298H698.466V142.923L703.055 154.298H705.438L710.028 142.923V154.298H713.007V139.409H708.804L704.395 150.397L699.955 139.409H695.635V154.298ZM723.763 154.595C728.382 154.595 731.66 151.171 731.66 146.853C731.66 142.536 728.382 139.112 723.763 139.112C719.145 139.112 715.867 142.536 715.867 146.853C715.867 151.171 719.145 154.595 723.763 154.595ZM723.763 151.916C720.933 151.916 718.996 149.682 718.996 146.853C718.996 144.025 720.933 141.791 723.763 141.791C726.594 141.791 728.531 144.025 728.531 146.853C728.531 149.682 726.594 151.916 723.763 151.916ZM736.599 133.454C736.599 135.955 738.238 137.623 741.158 137.623C744.078 137.623 745.717 135.955 745.717 133.454H743.065C743.065 134.853 742.35 135.509 741.158 135.509C739.966 135.509 739.251 134.853 739.251 133.454H736.599ZM734.513 154.298H737.493L744.793 143.697V154.298H747.773V139.409H744.793L737.493 150.01V139.409H734.513V154.298ZM1.87732 186.781H4.85721V174.573H11.562V186.781H14.5419V171.893H1.87732V186.781ZM18.29 186.781H21.2699L28.5707 176.181V186.781H31.5506V171.893H28.5707L21.2699 182.494V171.893H18.29V186.781ZM39.3068 186.781H42.2867V174.573H47.4717V171.893H34.1218V174.573H39.3068V186.781ZM58.8136 177.461V177.699C51.9897 177.699 48.8608 179.516 48.8608 182.91C48.8608 185.59 50.6189 187.079 53.42 187.079C56.4893 187.079 58.0686 185.382 58.8136 183.208V186.781H61.7935V177.759C61.7935 173.62 59.6182 171.595 55.5953 171.595C51.9003 171.595 49.5759 173.412 49.0992 176.866H52.0791C52.3174 175.317 53.5094 174.275 55.5953 174.275C57.6217 174.275 58.8136 175.317 58.8136 177.461ZM51.9897 182.762C51.9897 180.975 53.8968 179.843 58.8136 179.843C58.8136 182.404 57.1747 184.518 54.1054 184.518C52.7942 184.518 51.9897 183.893 51.9897 182.762ZM65.4038 186.781H68.3837V180.528H75.3864V186.781H78.3663V171.893H75.3864V177.848H68.3837V171.893H65.4038V186.781ZM82.1074 186.781H85.0873L92.3881 176.181V186.781H95.368V171.893H92.3881L85.0873 182.494V171.893H82.1074V186.781ZM101.664 186.781L105.806 181.511H108.28V186.781H111.259V171.893H104.734C100.711 171.893 98.9227 174.394 98.9227 176.896C98.9227 179.01 100.204 180.558 102.648 181.124L98.0883 186.781H101.664ZM104.823 179.188C102.856 179.188 102.052 178.057 102.052 176.896C102.052 175.585 102.856 174.543 104.674 174.543H108.28V179.188H104.823ZM128.857 184.399C126.175 184.399 124.297 182.404 124.297 179.337C124.297 176.3 126.115 174.275 128.857 174.275C131.062 174.275 132.343 175.347 132.909 177.253H135.889C135.323 173.769 132.79 171.595 128.857 171.595C124.297 171.595 121.169 175.049 121.169 179.337C121.169 183.655 124.297 187.079 128.916 187.079C132.701 187.079 135.293 185.054 136.008 181.273H133.029C132.492 183.357 131.062 184.399 128.857 184.399ZM152.72 184.399C150.038 184.399 148.16 182.404 148.16 179.337C148.16 176.3 149.978 174.275 152.72 174.275C154.925 174.275 156.206 175.347 156.772 177.253H159.752C159.186 173.769 156.653 171.595 152.72 171.595C148.16 171.595 145.031 175.049 145.031 179.337C145.031 183.655 148.16 187.079 152.779 187.079C156.564 187.079 159.156 185.054 159.871 181.273H156.891C156.355 183.357 154.925 184.399 152.72 184.399ZM169.602 187.079C174.221 187.079 177.499 183.655 177.499 179.337C177.499 175.02 174.221 171.595 169.602 171.595C164.983 171.595 161.705 175.02 161.705 179.337C161.705 183.655 164.983 187.079 169.602 187.079ZM169.602 184.399C166.771 184.399 164.834 182.166 164.834 179.337C164.834 176.508 166.771 174.275 169.602 174.275C172.433 174.275 174.37 176.508 174.37 179.337C174.37 182.166 172.433 184.399 169.602 184.399ZM187.473 187.079C192.211 187.079 195.37 183.774 195.37 179.635C195.37 175.556 192.777 172.221 188.546 172.221C185.745 172.221 183.45 173.829 182.467 176.151C182.586 171.714 183.897 169.838 188.963 169.183C192.032 168.796 194.118 168.171 194.595 165.342H191.794C191.586 166.087 190.513 166.325 188.486 166.563C182.229 167.307 179.606 170.404 179.606 177.61C179.606 180.171 179.934 182.196 180.917 183.714C182.08 185.561 184.434 187.079 187.473 187.079ZM187.473 184.399C184.702 184.399 182.735 182.434 182.735 179.635C182.735 176.896 184.702 174.9 187.473 174.9C190.274 174.9 192.241 176.896 192.241 179.635C192.241 182.434 190.274 184.399 187.473 184.399ZM205.013 184.399C202.331 184.399 200.453 182.404 200.453 179.337C200.453 176.3 202.271 174.275 205.013 174.275C207.218 174.275 208.499 175.347 209.065 177.253H212.045C211.479 173.769 208.946 171.595 205.013 171.595C200.453 171.595 197.325 175.049 197.325 179.337C197.325 183.655 200.453 187.079 205.072 187.079C208.857 187.079 211.449 185.054 212.164 181.273H209.184C208.648 183.357 207.218 184.399 205.013 184.399ZM218.74 186.781H221.72V174.573H226.905V171.893H213.555V174.573H218.74V186.781ZM229.472 186.781H236.594C240.677 186.781 241.988 184.637 241.988 182.613C241.988 180.618 240.647 179.486 238.471 179.129C240.379 178.623 241.332 177.312 241.332 175.764C241.332 173.293 239.514 171.893 236.207 171.893H229.472V186.781ZM236.058 178.087H232.392V174.424H236.058C237.607 174.424 238.263 175.228 238.263 176.27C238.263 177.283 237.607 178.087 236.058 178.087ZM236.266 180.469C238.203 180.469 238.859 181.362 238.859 182.315C238.859 183.387 238.203 184.25 236.415 184.25H232.392V180.469H236.266ZM251.575 184.489C248.833 184.489 247.105 182.583 246.896 179.873H259.233C259.293 179.575 259.323 179.248 259.323 178.95C259.323 174.871 256.164 171.595 251.575 171.595C246.986 171.595 243.827 174.99 243.827 179.337C243.827 183.833 246.986 187.079 251.575 187.079C255.419 187.079 257.892 185.322 258.756 182.166H255.896C255.3 183.536 253.989 184.489 251.575 184.489ZM251.575 174.186C253.989 174.186 255.598 175.675 256.134 177.789H247.045C247.612 175.615 249.31 174.186 251.575 174.186ZM262.182 186.781H265.162V180.528H272.165V186.781H275.144V171.893H272.165V177.848H265.162V171.893H262.182V186.781ZM278.886 186.781H281.865V180.528H288.868V186.781H291.848V171.893H288.868V177.848H281.865V171.893H278.886V186.781ZM295.589 186.781H302.115C306.138 186.781 307.926 184.191 307.926 181.63C307.926 179.039 306.138 176.568 302.115 176.568H298.569V171.893H295.589V186.781ZM309.923 186.781H312.902V171.893H309.923V186.781ZM302.026 179.188C303.993 179.188 304.797 180.379 304.797 181.63C304.797 183.03 303.993 184.131 302.175 184.131H298.569V179.188H302.026ZM316.657 186.781H319.488V175.407L324.077 186.781H326.461L331.05 175.407V186.781H334.03V171.893H329.828L325.418 182.881L320.978 171.893H316.657V186.781ZM337.785 186.781H340.764L348.065 176.181V186.781H351.045V171.893H348.065L340.764 182.494V171.893H337.785V186.781ZM369.152 192.737H372.132V187.079C376.542 186.871 380.327 184.101 380.327 179.337C380.327 174.573 376.542 171.774 372.132 171.595V165.938H369.152V171.595C364.742 171.774 360.957 174.573 360.957 179.337C360.957 184.101 364.742 186.871 369.152 187.079V192.737ZM364.086 179.337C364.086 176.002 366.53 174.305 369.152 174.186V184.489C366.53 184.369 364.086 182.672 364.086 179.337ZM372.132 174.186C374.724 174.305 377.198 176.002 377.198 179.337C377.198 182.672 374.724 184.369 372.132 184.489V174.186ZM389.54 187.556L395.857 171.893H392.967L388.586 183L384.146 171.893H380.958L386.977 186.841C386.024 189.491 385.428 190.057 382.299 190.057V192.737C386.769 192.737 387.931 191.575 389.54 187.556ZM396.041 190.057H398.872V186.781H409.779V190.057H412.61V184.101H410.524V171.893H399.111V173.59C399.111 180.022 398.515 182.642 397.889 184.101H396.041V190.057ZM400.839 184.101C401.375 182.732 401.852 180.618 401.912 174.573H407.544V184.101H400.839ZM424.703 180.528V177.848H414.72V180.528H424.703ZM431.262 186.781H434.242V174.573H439.427V171.893H426.077V174.573H431.262V186.781ZM448.265 184.489C445.524 184.489 443.796 182.583 443.587 179.873H455.924C455.983 179.575 456.013 179.248 456.013 178.95C456.013 174.871 452.854 171.595 448.265 171.595C443.676 171.595 440.518 174.99 440.518 179.337C440.518 183.833 443.676 187.079 448.265 187.079C452.11 187.079 454.583 185.322 455.447 182.166H452.586C451.99 183.536 450.679 184.489 448.265 184.489ZM448.265 174.186C450.679 174.186 452.288 175.675 452.825 177.789H443.736C444.302 175.615 446.001 174.186 448.265 174.186ZM460.223 186.781L464.127 181.451L467.971 186.781H471.517L466.034 179.188L471.278 171.893H468.06L464.484 177.015L460.789 171.893H457.243L462.577 179.278L456.945 186.781H460.223ZM473.772 186.781H476.752V180.528H483.755V186.781H486.734V171.893H483.755V177.848H476.752V171.893H473.772V186.781ZM497.478 187.079C502.097 187.079 505.375 183.655 505.375 179.337C505.375 175.02 502.097 171.595 497.478 171.595C492.86 171.595 489.582 175.02 489.582 179.337C489.582 183.655 492.86 187.079 497.478 187.079ZM497.478 184.399C494.647 184.399 492.711 182.166 492.711 179.337C492.711 176.508 494.647 174.275 497.478 174.275C500.309 174.275 502.246 176.508 502.246 179.337C502.246 182.166 500.309 184.399 497.478 184.399ZM509.134 179.337C509.074 183.03 508.657 184.101 506.452 184.101V187.079C510.534 187.079 511.786 185.054 511.935 179.397L512.054 174.573H517.478V186.781H520.457V171.893H509.283L509.134 179.337ZM531.205 187.079C535.824 187.079 539.102 183.655 539.102 179.337C539.102 175.02 535.824 171.595 531.205 171.595C526.587 171.595 523.309 175.02 523.309 179.337C523.309 183.655 526.587 187.079 531.205 187.079ZM531.205 184.399C528.374 184.399 526.438 182.166 526.438 179.337C526.438 176.508 528.374 174.275 531.205 174.275C534.036 174.275 535.973 176.508 535.973 179.337C535.973 182.166 534.036 184.399 531.205 184.399ZM541.955 186.781H544.935V174.573H552.027V171.893H541.955V186.781ZM554.584 186.781H557.564L564.865 176.181V186.781H567.845V171.893H564.865L557.564 182.494V171.893H554.584V186.781ZM574.14 186.781L578.282 181.511H580.756V186.781H583.735V171.893H577.21C573.187 171.893 571.399 174.394 571.399 176.896C571.399 179.01 572.68 180.558 575.124 181.124L570.564 186.781H574.14ZM577.299 179.188C575.332 179.188 574.528 178.057 574.528 176.896C574.528 175.585 575.332 174.543 577.15 174.543H580.756V179.188H577.299ZM587.497 186.781H590.328V175.407L594.917 186.781H597.301L601.89 175.407V186.781H604.87V171.893H600.668L596.258 182.881L591.818 171.893H587.497V186.781ZM608.623 186.781H611.603L618.904 176.181V186.781H621.884V171.893H618.904L611.603 182.494V171.893H608.623V186.781ZM1.87732 219.265H4.85721L12.158 208.665V219.265H15.1378V204.377H12.158L4.85721 214.977V204.377H1.87732V219.265ZM33.2442 225.22H36.2241V219.563C40.6344 219.354 44.4188 216.585 44.4188 211.821C44.4188 207.057 40.6344 204.258 36.2241 204.079V198.421H33.2442V204.079C28.834 204.258 25.0495 207.057 25.0495 211.821C25.0495 216.585 28.834 219.354 33.2442 219.563V225.22ZM28.1784 211.821C28.1784 208.486 30.6219 206.789 33.2442 206.67V216.972C30.6219 216.853 28.1784 215.156 28.1784 211.821ZM36.2241 206.67C38.8166 206.789 41.2899 208.486 41.2899 211.821C41.2899 215.156 38.8166 216.853 36.2241 216.972V206.67ZM53.6318 220.039L59.9492 204.377H57.0587L52.6783 215.483L48.2382 204.377H45.0498L51.0691 219.325C50.1156 221.975 49.5196 222.541 46.3907 222.541V225.22C50.8605 225.22 52.0227 224.059 53.6318 220.039ZM60.1342 222.541H62.9651V219.265H73.8716V222.541H76.7025V216.585H74.6165V204.377H63.2035V206.074C63.2035 212.506 62.6076 215.126 61.9818 216.585H60.1342V222.541ZM64.9319 216.585C65.4683 215.215 65.945 213.101 66.0046 207.057H71.6366V216.585H64.9319ZM78.4247 212.446V210.124H85.636V212.446H78.4247ZM95.5075 216.883C92.8256 216.883 90.9482 214.888 90.9482 211.821C90.9482 208.784 92.766 206.759 95.5075 206.759C97.7126 206.759 98.994 207.831 99.5601 209.737H102.54C101.974 206.253 99.4409 204.079 95.5075 204.079C90.9482 204.079 87.8194 207.533 87.8194 211.821C87.8194 216.139 90.9482 219.563 95.5671 219.563C99.3515 219.563 101.944 217.538 102.659 213.756H99.6793C99.143 215.841 97.7126 216.883 95.5075 216.883ZM112.242 216.972C109.5 216.972 107.772 215.067 107.563 212.357H119.9C119.96 212.059 119.989 211.732 119.989 211.434C119.989 207.354 116.831 204.079 112.242 204.079C107.653 204.079 104.494 207.474 104.494 211.821C104.494 216.317 107.653 219.563 112.242 219.563C116.086 219.563 118.559 217.806 119.423 214.65H116.562C115.966 216.019 114.655 216.972 112.242 216.972ZM112.242 206.67C114.655 206.67 116.264 208.158 116.801 210.273H107.712C108.278 208.099 109.977 206.67 112.242 206.67ZM125.828 204.377H122.848V225.22H125.828V215.93C126.901 218.134 128.927 219.563 131.639 219.563C135.782 219.563 138.493 216.139 138.493 211.821C138.493 207.503 135.722 204.079 131.639 204.079C128.927 204.079 126.901 205.508 125.828 207.712V204.377ZM130.596 206.759C133.397 206.759 135.364 208.724 135.364 211.821C135.364 214.918 133.397 216.883 130.596 216.883C127.914 216.883 125.828 214.828 125.828 211.821C125.828 208.843 127.914 206.759 130.596 206.759ZM141.357 219.265H148.479C152.561 219.265 153.872 217.121 153.872 215.096C153.872 213.101 152.531 211.97 150.356 211.612C152.263 211.106 153.217 209.796 153.217 208.248C153.217 205.776 151.399 204.377 148.091 204.377H141.357V219.265ZM147.942 210.57H144.277V206.908H147.942C149.492 206.908 150.147 207.712 150.147 208.754C150.147 209.766 149.492 210.57 147.942 210.57ZM148.151 212.952C150.088 212.952 150.743 213.846 150.743 214.799C150.743 215.871 150.088 216.734 148.3 216.734H144.277V212.952H148.151ZM156.751 219.265H159.73L167.031 208.665V219.265H170.011V204.377H167.031L159.73 214.977V204.377H156.751V219.265ZM180.568 216.883C177.886 216.883 176.009 214.888 176.009 211.821C176.009 208.784 177.827 206.759 180.568 206.759C182.773 206.759 184.055 207.831 184.621 209.737H187.601C187.034 206.253 184.501 204.079 180.568 204.079C176.009 204.079 172.88 207.533 172.88 211.821C172.88 216.139 176.009 219.563 180.628 219.563C184.412 219.563 187.005 217.538 187.72 213.756H184.74C184.204 215.841 182.773 216.883 180.568 216.883ZM199.66 209.945V210.183C192.836 210.183 189.707 212 189.707 215.394C189.707 218.074 191.465 219.563 194.266 219.563C197.335 219.563 198.915 217.866 199.66 215.692V219.265H202.64V210.243C202.64 206.104 200.464 204.079 196.441 204.079C192.746 204.079 190.422 205.895 189.945 209.349H192.925C193.163 207.801 194.355 206.759 196.441 206.759C198.468 206.759 199.66 207.801 199.66 209.945ZM192.836 215.245C192.836 213.459 194.743 212.327 199.66 212.327C199.66 214.888 198.021 217.002 194.951 217.002C193.64 217.002 192.836 216.377 192.836 215.245ZM206.251 219.265H209.082V207.89L213.671 219.265H216.055L220.644 207.89V219.265H223.623V204.377H219.422L215.012 215.364L210.571 204.377H206.251V219.265ZM227.377 219.265H230.357L237.657 208.665V219.265H240.637V204.377H237.657L230.357 214.977V204.377H227.377V219.265ZM246.011 219.563C247.232 219.563 248.216 218.58 248.216 217.3C248.216 216.109 247.232 215.186 246.011 215.186C244.759 215.186 243.805 216.109 243.805 217.3C243.805 218.58 244.759 219.563 246.011 219.563ZM260.722 198.421H257.295L265.49 213.667C264.208 215.96 263.106 216.436 260.424 216.436V219.563C264.655 219.563 266.264 218.312 268.648 213.31L275.77 198.421H272.79L267.099 210.392L260.722 198.421ZM285.433 219.265H288.413V213.012H295.416V219.265H298.396V204.377H295.416V210.332H288.413V204.377H285.433V219.265ZM311.494 209.945V210.183C304.67 210.183 301.541 212 301.541 215.394C301.541 218.074 303.299 219.563 306.1 219.563C309.169 219.563 310.749 217.866 311.494 215.692V219.265H314.474V210.243C314.474 206.104 312.298 204.079 308.275 204.079C304.58 204.079 302.256 205.895 301.779 209.349H304.759C304.998 207.801 306.19 206.759 308.275 206.759C310.302 206.759 311.494 207.801 311.494 209.945ZM304.67 215.245C304.67 213.459 306.577 212.327 311.494 212.327C311.494 214.888 309.855 217.002 306.786 217.002C305.474 217.002 304.67 216.377 304.67 215.245ZM324.878 216.883C322.196 216.883 320.318 214.888 320.318 211.821C320.318 208.784 322.136 206.759 324.878 206.759C327.083 206.759 328.364 207.831 328.93 209.737H331.91C331.344 206.253 328.811 204.079 324.878 204.079C320.318 204.079 317.189 207.533 317.189 211.821C317.189 216.139 320.318 219.563 324.937 219.563C328.722 219.563 331.314 217.538 332.029 213.756H329.049C328.513 215.841 327.083 216.883 324.878 216.883ZM344.925 204.377H341.946V225.22H344.925V215.93C345.998 218.134 348.024 219.563 350.736 219.563C354.878 219.563 357.59 216.139 357.59 211.821C357.59 207.503 354.819 204.079 350.736 204.079C348.024 204.079 345.998 205.508 344.925 207.712V204.377ZM349.693 206.759C352.494 206.759 354.461 208.724 354.461 211.821C354.461 214.918 352.494 216.883 349.693 216.883C347.011 216.883 344.925 214.828 344.925 211.821C344.925 208.843 347.011 206.759 349.693 206.759ZM369.665 209.945V210.183C362.841 210.183 359.712 212 359.712 215.394C359.712 218.074 361.471 219.563 364.272 219.563C367.341 219.563 368.92 217.866 369.665 215.692V219.265H372.645V210.243C372.645 206.104 370.47 204.079 366.447 204.079C362.752 204.079 360.428 205.895 359.951 209.349H362.931C363.169 207.801 364.361 206.759 366.447 206.759C368.473 206.759 369.665 207.801 369.665 209.945ZM362.841 215.245C362.841 213.459 364.748 212.327 369.665 212.327C369.665 214.888 368.026 217.002 364.957 217.002C363.646 217.002 362.841 216.377 362.841 215.245ZM383.377 219.563C388.115 219.563 391.274 216.258 391.274 212.119C391.274 208.039 388.681 204.704 384.45 204.704C381.649 204.704 379.354 206.312 378.371 208.635C378.49 204.198 379.801 202.322 384.867 201.667C387.936 201.28 390.022 200.655 390.499 197.826H387.698C387.489 198.57 386.416 198.808 384.39 199.047C378.132 199.791 375.51 202.888 375.51 210.094C375.51 212.655 375.838 214.679 376.821 216.198C377.983 218.044 380.337 219.563 383.377 219.563ZM383.377 216.883C380.606 216.883 378.639 214.918 378.639 212.119C378.639 209.379 380.606 207.384 383.377 207.384C386.178 207.384 388.145 209.379 388.145 212.119C388.145 214.918 386.178 216.883 383.377 216.883ZM401.126 219.563C405.745 219.563 409.023 216.139 409.023 211.821C409.023 207.503 405.745 204.079 401.126 204.079C396.507 204.079 393.23 207.503 393.23 211.821C393.23 216.139 396.507 219.563 401.126 219.563ZM401.126 216.883C398.295 216.883 396.358 214.65 396.358 211.821C396.358 208.992 398.295 206.759 401.126 206.759C403.957 206.759 405.894 208.992 405.894 211.821C405.894 214.65 403.957 216.883 401.126 216.883ZM415.286 219.265H418.266V207.057H423.451V204.377H410.101V207.057H415.286V219.265ZM434.792 209.945V210.183C427.968 210.183 424.839 212 424.839 215.394C424.839 218.074 426.598 219.563 429.399 219.563C432.468 219.563 434.047 217.866 434.792 215.692V219.265H437.772V210.243C437.772 206.104 435.597 204.079 431.574 204.079C427.879 204.079 425.555 205.895 425.078 209.349H428.058C428.296 207.801 429.488 206.759 431.574 206.759C433.6 206.759 434.792 207.801 434.792 209.945ZM427.968 215.245C427.968 213.459 429.875 212.327 434.792 212.327C434.792 214.888 433.153 217.002 430.084 217.002C428.773 217.002 427.968 216.377 427.968 215.245ZM441.383 219.265H444.363V212.923H446.807C447.313 216.704 450.293 219.563 454.346 219.563C458.786 219.563 461.945 216.139 461.945 211.821C461.945 207.503 458.786 204.079 454.346 204.079C450.472 204.079 447.552 206.699 446.896 210.243H444.363V204.377H441.383V219.265ZM454.346 216.883C451.694 216.883 449.876 214.65 449.876 211.821C449.876 208.992 451.694 206.759 454.346 206.759C456.998 206.759 458.816 208.992 458.816 211.821C458.816 214.65 456.998 216.883 454.346 216.883ZM468.22 219.265H471.2V207.057H476.385V204.377H463.035V207.057H468.22V219.265ZM487.484 211.821C487.424 215.513 487.007 216.585 484.802 216.585V219.563C488.884 219.563 490.136 217.538 490.285 211.88L490.404 207.057H495.827V219.265H498.807V204.377H487.633L487.484 211.821ZM502.552 219.265H505.532V212.923H507.976C508.482 216.704 511.462 219.563 515.515 219.563C519.955 219.563 523.114 216.139 523.114 211.821C523.114 207.503 519.955 204.079 515.515 204.079C511.641 204.079 508.721 206.699 508.065 210.243H505.532V204.377H502.552V219.265ZM515.515 216.883C512.863 216.883 511.045 214.65 511.045 211.821C511.045 208.992 512.863 206.759 515.515 206.759C518.167 206.759 519.985 208.992 519.985 211.821C519.985 214.65 518.167 216.883 515.515 216.883ZM524.346 222.541H527.177V219.265H538.083V222.541H540.914V216.585H538.828V204.377H527.416V206.074C527.416 212.506 526.82 215.126 526.194 216.585H524.346V222.541ZM529.144 216.585C529.68 215.215 530.157 213.101 530.217 207.057H535.849V216.585H529.144ZM543.321 219.265H546.301L553.602 208.665V219.265H556.582V204.377H553.602L546.301 214.977V204.377H543.321V219.265ZM560.704 221.945H562.313L563.594 219.146C564.041 218.163 564.16 217.657 564.16 217.3C564.16 216.079 563.177 215.186 561.955 215.186C560.704 215.186 559.75 216.079 559.75 217.3C559.75 218.074 560.078 218.818 561.21 219.325L560.704 221.945ZM1.87732 251.749H4.85721V244.751L11.5024 251.749H15.5252L8.0457 243.947L14.9591 236.86H11.3832L4.85721 243.56V236.86H1.87732V251.749ZM23.7504 252.047C28.3693 252.047 31.6471 248.622 31.6471 244.305C31.6471 239.987 28.3693 236.563 23.7504 236.563C19.1316 236.563 15.8537 239.987 15.8537 244.305C15.8537 248.622 19.1316 252.047 23.7504 252.047ZM23.7504 249.367C20.9195 249.367 18.9826 247.133 18.9826 244.305C18.9826 241.476 20.9195 239.243 23.7504 239.243C26.5813 239.243 28.5182 241.476 28.5182 244.305C28.5182 247.133 26.5813 249.367 23.7504 249.367ZM37.9101 251.749H40.89V239.54H46.075V236.86H32.725V239.54H37.9101V251.749ZM55.0626 252.047C59.6814 252.047 62.9593 248.622 62.9593 244.305C62.9593 239.987 59.6814 236.563 55.0626 236.563C50.4438 236.563 47.1659 239.987 47.1659 244.305C47.1659 248.622 50.4438 252.047 55.0626 252.047ZM55.0626 249.367C52.2317 249.367 50.2948 247.133 50.2948 244.305C50.2948 241.476 52.2317 239.243 55.0626 239.243C57.8935 239.243 59.8304 241.476 59.8304 244.305C59.8304 247.133 57.8935 249.367 55.0626 249.367ZM68.7911 236.86H65.8112V257.704H68.7911V248.414C69.8639 250.617 71.8902 252.047 74.6019 252.047C78.744 252.047 81.4557 248.622 81.4557 244.305C81.4557 239.987 78.6844 236.563 74.6019 236.563C71.8902 236.563 69.8639 237.992 68.7911 240.195V236.86ZM73.5589 239.243C76.36 239.243 78.3268 241.208 78.3268 244.305C78.3268 247.401 76.36 249.367 73.5589 249.367C70.877 249.367 68.7911 247.312 68.7911 244.305C68.7911 241.327 70.877 239.243 73.5589 239.243ZM84.3191 251.749H90.845C94.8679 251.749 96.6558 249.158 96.6558 246.597C96.6558 244.007 94.8679 241.535 90.845 241.535H87.299V236.86H84.3191V251.749ZM98.6524 251.749H101.632V236.86H98.6524V251.749ZM90.7556 244.156C92.7224 244.156 93.5269 245.347 93.5269 246.597C93.5269 247.997 92.7224 249.099 90.9046 249.099H87.299V244.156H90.7556ZM112.242 249.456C109.5 249.456 107.772 247.55 107.563 244.841H119.9C119.96 244.543 119.989 244.215 119.989 243.918C119.989 239.838 116.831 236.563 112.242 236.563C107.653 236.563 104.494 239.957 104.494 244.305C104.494 248.801 107.653 252.047 112.242 252.047C116.086 252.047 118.559 250.29 119.423 247.133H116.562C115.966 248.503 114.655 249.456 112.242 249.456ZM112.242 239.153C114.655 239.153 116.264 240.642 116.801 242.756H107.712C108.278 240.583 109.977 239.153 112.242 239.153ZM131.381 244.305C131.321 247.997 130.904 249.069 128.699 249.069V252.047C132.781 252.047 134.033 250.022 134.182 244.364L134.301 239.54H139.725V251.749H142.704V236.86H131.53L131.381 244.305ZM146.448 251.749H149.428V245.406H151.872C152.378 249.188 155.358 252.047 159.411 252.047C163.851 252.047 167.01 248.622 167.01 244.305C167.01 239.987 163.851 236.563 159.411 236.563C155.537 236.563 152.617 239.183 151.961 242.726H149.428V236.86H146.448V251.749ZM159.411 249.367C156.759 249.367 154.941 247.133 154.941 244.305C154.941 241.476 156.759 239.243 159.411 239.243C162.063 239.243 163.881 241.476 163.881 244.305C163.881 247.133 162.063 249.367 159.411 249.367ZM176.996 252.047C181.734 252.047 184.893 248.741 184.893 244.602C184.893 240.523 182.3 237.188 178.069 237.188C175.268 237.188 172.973 238.796 171.99 241.119C172.109 236.682 173.42 234.806 178.486 234.151C181.555 233.764 183.641 233.138 184.118 230.31H181.317C181.108 231.054 180.036 231.292 178.009 231.53C171.752 232.275 169.129 235.372 169.129 242.578C169.129 245.138 169.457 247.163 170.44 248.682C171.603 250.528 173.957 252.047 176.996 252.047ZM176.996 249.367C174.225 249.367 172.258 247.401 172.258 244.602C172.258 241.863 174.225 239.868 176.996 239.868C179.797 239.868 181.764 241.863 181.764 244.602C181.764 247.401 179.797 249.367 176.996 249.367ZM189.838 251.749L193.98 246.478H196.454V251.749H199.433V236.86H192.907C188.885 236.86 187.097 239.362 187.097 241.863C187.097 243.977 188.378 245.526 190.822 246.091L186.262 251.749H189.838ZM192.997 244.156C191.03 244.156 190.226 243.024 190.226 241.863C190.226 240.553 191.03 239.511 192.848 239.511H196.454V244.156H192.997ZM207.188 251.749H210.168V239.54H215.353V236.86H202.003V239.54H207.188V251.749ZM231.815 249.456C229.074 249.456 227.346 247.55 227.137 244.841H239.474C239.533 244.543 239.563 244.215 239.563 243.918C239.563 239.838 236.404 236.563 231.815 236.563C227.226 236.563 224.068 239.957 224.068 244.305C224.068 248.801 227.226 252.047 231.815 252.047C235.66 252.047 238.133 250.29 238.997 247.133H236.136C235.54 248.503 234.229 249.456 231.815 249.456ZM231.815 239.153C234.229 239.153 235.838 240.642 236.375 242.756H227.286C227.852 240.583 229.551 239.153 231.815 239.153ZM240.499 255.024H243.33V251.749H254.236V255.024H257.067V249.069H254.981V236.86H243.568V238.558C243.568 244.99 242.972 247.61 242.347 249.069H240.499V255.024ZM245.297 249.069C245.833 247.699 246.31 245.585 246.37 239.54H252.002V249.069H245.297ZM266.27 252.523L272.587 236.86H269.697L265.316 247.967L260.876 236.86H257.688L263.707 251.808C262.754 254.459 262.158 255.024 259.029 255.024V257.704C263.498 257.704 264.661 256.543 266.27 252.523ZM281.592 251.749H284.572L291.872 241.148V251.749H294.852V236.86H291.872L284.572 247.461V236.86H281.592V251.749ZM305.657 251.749H312.779C316.862 251.749 318.173 249.605 318.173 247.58C318.173 245.585 316.832 244.454 314.656 244.096C316.564 243.59 317.517 242.28 317.517 240.731C317.517 238.26 315.699 236.86 312.392 236.86H305.657V251.749ZM312.243 243.054H308.578V239.391H312.243C313.792 239.391 314.448 240.195 314.448 241.238C314.448 242.25 313.792 243.054 312.243 243.054ZM312.451 245.436C314.388 245.436 315.044 246.329 315.044 247.282C315.044 248.354 314.388 249.218 312.6 249.218H308.578V245.436H312.451ZM327.7 249.367C325.018 249.367 323.141 247.372 323.141 244.305C323.141 241.267 324.959 239.243 327.7 239.243C329.905 239.243 331.187 240.315 331.753 242.22H334.733C334.167 238.736 331.634 236.563 327.7 236.563C323.141 236.563 320.012 240.017 320.012 244.305C320.012 248.622 323.141 252.047 327.76 252.047C331.544 252.047 334.137 250.022 334.852 246.24H331.872C331.336 248.325 329.905 249.367 327.7 249.367ZM341.425 234.478C342.498 234.478 343.362 233.615 343.362 232.543C343.362 231.471 342.498 230.607 341.425 230.607C340.353 230.607 339.488 231.471 339.488 232.543C339.488 233.615 340.353 234.478 341.425 234.478ZM347.385 234.478C348.458 234.478 349.322 233.615 349.322 232.543C349.322 231.471 348.458 230.607 347.385 230.607C346.312 230.607 345.448 231.471 345.448 232.543C345.448 233.615 346.312 234.478 347.385 234.478ZM344.435 249.456C341.694 249.456 339.965 247.55 339.757 244.841H352.093C352.153 244.543 352.183 244.215 352.183 243.918C352.183 239.838 349.024 236.563 344.435 236.563C339.846 236.563 336.687 239.957 336.687 244.305C336.687 248.801 339.846 252.047 344.435 252.047C348.279 252.047 350.752 250.29 351.617 247.133H348.756C348.16 248.503 346.849 249.456 344.435 249.456ZM344.435 239.153C346.849 239.153 348.458 240.642 348.994 242.756H339.906C340.472 240.583 342.17 239.153 344.435 239.153ZM355.109 254.429H356.718L357.999 251.63C358.446 250.647 358.565 250.141 358.565 249.784C358.565 248.563 357.582 247.669 356.36 247.669C355.109 247.669 354.155 248.563 354.155 249.784C354.155 250.558 354.483 251.302 355.615 251.808L355.109 254.429ZM368.479 240.731C368.479 245.317 371.25 246.627 374.737 246.627C375.958 246.627 377.091 246.478 378.163 246.21V251.749H381.143V236.86H378.163V243.62C377.21 243.858 376.256 243.947 375.362 243.947C372.829 243.947 371.459 243.143 371.459 240.731V236.86H368.479V240.731ZM388.891 251.749H391.871V239.54H397.056V236.86H383.706V239.54H388.891V251.749ZM406.044 252.047C410.663 252.047 413.941 248.622 413.941 244.305C413.941 239.987 410.663 236.563 406.044 236.563C401.426 236.563 398.148 239.987 398.148 244.305C398.148 248.622 401.426 252.047 406.044 252.047ZM406.044 249.367C403.213 249.367 401.277 247.133 401.277 244.305C401.277 241.476 403.213 239.243 406.044 239.243C408.875 239.243 410.812 241.476 410.812 244.305C410.812 247.133 408.875 249.367 406.044 249.367ZM430.629 249.367C427.947 249.367 426.069 247.372 426.069 244.305C426.069 241.267 427.887 239.243 430.629 239.243C432.834 239.243 434.115 240.315 434.681 242.22H437.661C437.095 238.736 434.562 236.563 430.629 236.563C426.069 236.563 422.94 240.017 422.94 244.305C422.94 248.622 426.069 252.047 430.688 252.047C434.473 252.047 437.065 250.022 437.78 246.24H434.8C434.264 248.325 432.834 249.367 430.629 249.367ZM447.698 251.749H450.678V245.496H457.681V251.749H460.66V236.86H457.681V242.816H450.678V236.86H447.698V251.749ZM471.255 249.456C468.514 249.456 466.785 247.55 466.577 244.841H478.914C478.973 244.543 479.003 244.215 479.003 243.918C479.003 239.838 475.844 236.563 471.255 236.563C466.666 236.563 463.508 239.957 463.508 244.305C463.508 248.801 466.666 252.047 471.255 252.047C475.099 252.047 477.573 250.29 478.437 247.133H475.576C474.98 248.503 473.669 249.456 471.255 249.456ZM471.255 239.153C473.669 239.153 475.278 240.642 475.815 242.756H466.726C467.292 240.583 468.991 239.153 471.255 239.153ZM483.947 230.905C483.947 233.406 485.586 235.074 488.506 235.074C491.426 235.074 493.065 233.406 493.065 230.905H490.413C490.413 232.305 489.698 232.96 488.506 232.96C487.314 232.96 486.599 232.305 486.599 230.905H483.947ZM481.861 251.749H484.841L492.142 241.148V251.749H495.122V236.86H492.142L484.841 247.461V236.86H481.861V251.749ZM512.722 249.367C510.04 249.367 508.163 247.372 508.163 244.305C508.163 241.267 509.98 239.243 512.722 239.243C514.927 239.243 516.208 240.315 516.775 242.22H519.754C519.188 238.736 516.655 236.563 512.722 236.563C508.163 236.563 505.034 240.017 505.034 244.305C505.034 248.622 508.163 252.047 512.781 252.047C516.566 252.047 519.158 250.022 519.874 246.24H516.894C516.357 248.325 514.927 249.367 512.722 249.367ZM522.748 251.749H529.87C533.952 251.749 535.263 249.605 535.263 247.58C535.263 245.585 533.923 244.454 531.747 244.096C533.654 243.59 534.608 242.28 534.608 240.731C534.608 238.26 532.79 236.86 529.482 236.86H522.748V251.749ZM529.333 243.054H525.668V239.391H529.333C530.883 239.391 531.539 240.195 531.539 241.238C531.539 242.25 530.883 243.054 529.333 243.054ZM529.542 245.436C531.479 245.436 532.135 246.329 532.135 247.282C532.135 248.354 531.479 249.218 529.691 249.218H525.668V245.436H529.542ZM540.53 251.749L544.672 246.478H547.145V251.749H550.125V236.86H543.599C539.576 236.86 537.788 239.362 537.788 241.863C537.788 243.977 539.07 245.526 541.513 246.091L536.954 251.749H540.53ZM543.688 244.156C541.722 244.156 540.917 243.024 540.917 241.863C540.917 240.553 541.722 239.511 543.539 239.511H547.145V244.156H543.688ZM559.577 252.047C564.166 252.047 566.073 249.843 566.073 247.431C566.073 245.764 564.881 244.424 562.974 244.007C564.672 243.56 565.596 242.28 565.596 240.761C565.596 238.498 563.778 236.563 559.606 236.563C555.822 236.563 553.438 238.528 553.14 241.595H556.239C556.507 240.374 557.312 239.243 559.547 239.243C561.543 239.243 562.467 240.136 562.467 241.238C562.467 242.31 561.782 243.024 559.666 243.024H557.61V245.555H560.113C562.169 245.555 562.944 246.329 562.944 247.342C562.944 248.414 562.259 249.367 559.577 249.367C557.312 249.367 556.299 248.414 555.941 246.865H552.842C553.14 249.932 555.226 252.047 559.577 252.047ZM578.288 242.429V242.667C571.464 242.667 568.335 244.483 568.335 247.878C568.335 250.558 570.093 252.047 572.894 252.047C575.963 252.047 577.543 250.349 578.288 248.176V251.749H581.268V242.726C581.268 238.588 579.092 236.563 575.069 236.563C571.374 236.563 569.05 238.379 568.573 241.833H571.553C571.792 240.285 572.983 239.243 575.069 239.243C577.096 239.243 578.288 240.285 578.288 242.429ZM571.464 247.729C571.464 245.942 573.371 244.811 578.288 244.811C578.288 247.372 576.649 249.486 573.579 249.486C572.268 249.486 571.464 248.86 571.464 247.729ZM584.877 251.749H587.857V245.496H594.86V251.749H597.84V236.86H594.86V242.816H587.857V236.86H584.877V251.749ZM608.584 252.047C613.203 252.047 616.48 248.622 616.48 244.305C616.48 239.987 613.203 236.563 608.584 236.563C603.965 236.563 600.687 239.987 600.687 244.305C600.687 248.622 603.965 252.047 608.584 252.047ZM608.584 249.367C605.753 249.367 603.816 247.133 603.816 244.305C603.816 241.476 605.753 239.243 608.584 239.243C611.415 239.243 613.352 241.476 613.352 244.305C613.352 247.133 611.415 249.367 608.584 249.367ZM619.399 254.429H621.009L622.29 251.63C622.737 250.647 622.856 250.141 622.856 249.784C622.856 248.563 621.873 247.669 620.651 247.669C619.399 247.669 618.446 248.563 618.446 249.784C618.446 250.558 618.774 251.302 619.906 251.808L619.399 254.429ZM633.068 251.749H636.048V244.751L642.693 251.749H646.716L639.236 243.947L646.149 236.86H642.573L636.048 243.56V236.86H633.068V251.749ZM654.941 252.047C659.56 252.047 662.838 248.622 662.838 244.305C662.838 239.987 659.56 236.563 654.941 236.563C650.323 236.563 647.045 239.987 647.045 244.305C647.045 248.622 650.323 252.047 654.941 252.047ZM654.941 249.367C652.111 249.367 650.174 247.133 650.174 244.305C650.174 241.476 652.111 239.243 654.941 239.243C657.772 239.243 659.709 241.476 659.709 244.305C659.709 247.133 657.772 249.367 654.941 249.367ZM669.1 251.749H672.08V239.54H677.265V236.86H663.915V239.54H669.1V251.749ZM686.253 252.047C690.872 252.047 694.15 248.622 694.15 244.305C694.15 239.987 690.872 236.563 686.253 236.563C681.635 236.563 678.357 239.987 678.357 244.305C678.357 248.622 681.635 252.047 686.253 252.047ZM686.253 249.367C683.422 249.367 681.485 247.133 681.485 244.305C681.485 241.476 683.422 239.243 686.253 239.243C689.084 239.243 691.021 241.476 691.021 244.305C691.021 247.133 689.084 249.367 686.253 249.367ZM699.981 236.86H697.001V257.704H699.981V248.414C701.054 250.617 703.08 252.047 705.792 252.047C709.934 252.047 712.646 248.622 712.646 244.305C712.646 239.987 709.874 236.563 705.792 236.563C703.08 236.563 701.054 237.992 699.981 240.195V236.86ZM704.749 239.243C707.55 239.243 709.517 241.208 709.517 244.305C709.517 247.401 707.55 249.367 704.749 249.367C702.067 249.367 699.981 247.312 699.981 244.305C699.981 241.327 702.067 239.243 704.749 239.243ZM715.509 251.749H722.035C726.058 251.749 727.846 249.158 727.846 246.597C727.846 244.007 726.058 241.535 722.035 241.535H718.489V236.86H715.509V251.749ZM729.842 251.749H732.822V236.86H729.842V251.749ZM721.946 244.156C723.912 244.156 724.717 245.347 724.717 246.597C724.717 247.997 723.912 249.099 722.095 249.099H718.489V244.156H721.946ZM736.578 251.749H739.409V240.374L743.998 251.749H746.382L750.971 240.374V251.749H753.951V236.86H749.749L745.339 247.848L740.899 236.86H736.578V251.749ZM1.87732 284.233H4.85721L12.158 273.632V284.233H15.1378V269.344H12.158L4.85721 279.945V269.344H1.87732V284.233ZM18.9012 284.233H21.8811V277.979H28.8838V284.233H31.8637V269.344H28.8838V275.3H21.8811V269.344H18.9012V284.233ZM39.5979 284.233H42.5778V272.024H47.7628V269.344H34.4129V272.024H39.5979V284.233ZM56.6014 281.94C53.8599 281.94 52.1316 280.034 51.923 277.324H64.2598C64.3194 277.027 64.3492 276.699 64.3492 276.401C64.3492 272.322 61.1905 269.046 56.6014 269.046C52.0124 269.046 48.8537 272.441 48.8537 276.788C48.8537 281.285 52.0124 284.53 56.6014 284.53C60.4455 284.53 62.9188 282.773 63.783 279.617H60.9223C60.3263 280.987 59.0152 281.94 56.6014 281.94ZM56.6014 271.637C59.0152 271.637 60.6243 273.126 61.1607 275.24H52.072C52.6382 273.066 54.3367 271.637 56.6014 271.637ZM70.1879 269.344H67.208V290.188H70.1879V280.898C71.2606 283.101 73.287 284.53 75.9987 284.53C80.1407 284.53 82.8524 281.106 82.8524 276.788C82.8524 272.471 80.0811 269.046 75.9987 269.046C73.287 269.046 71.2606 270.476 70.1879 272.679V269.344ZM74.9557 271.726C77.7568 271.726 79.7235 273.692 79.7235 276.788C79.7235 279.885 77.7568 281.85 74.9557 281.85C72.2738 281.85 70.1879 279.796 70.1879 276.788C70.1879 273.811 72.2738 271.726 74.9557 271.726ZM92.5697 281.94C89.8282 281.94 88.0999 280.034 87.8913 277.324H100.228C100.288 277.027 100.317 276.699 100.317 276.401C100.317 272.322 97.1588 269.046 92.5697 269.046C87.9807 269.046 84.822 272.441 84.822 276.788C84.822 281.285 87.9807 284.53 92.5697 284.53C96.4138 284.53 98.8871 282.773 99.7513 279.617H96.8906C96.2946 280.987 94.9834 281.94 92.5697 281.94ZM92.5697 271.637C94.9834 271.637 96.5926 273.126 97.129 275.24H88.0403C88.6065 273.066 90.305 271.637 92.5697 271.637ZM109.97 281.85C107.288 281.85 105.411 279.855 105.411 276.788C105.411 273.751 107.229 271.726 109.97 271.726C112.176 271.726 113.457 272.798 114.023 274.704H117.003C116.437 271.22 113.904 269.046 109.97 269.046C105.411 269.046 102.282 272.501 102.282 276.788C102.282 281.106 105.411 284.53 110.03 284.53C113.814 284.53 116.407 282.505 117.122 278.724H114.142C113.606 280.808 112.176 281.85 109.97 281.85ZM119.996 284.233H122.976V277.979H129.979V284.233H132.959V269.344H129.979V275.3H122.976V269.344H119.996V284.233ZM143.703 284.53C148.322 284.53 151.599 281.106 151.599 276.788C151.599 272.471 148.322 269.046 143.703 269.046C139.084 269.046 135.806 272.471 135.806 276.788C135.806 281.106 139.084 284.53 143.703 284.53ZM143.703 281.85C140.872 281.85 138.935 279.617 138.935 276.788C138.935 273.96 140.872 271.726 143.703 271.726C146.534 271.726 148.47 273.96 148.47 276.788C148.47 279.617 146.534 281.85 143.703 281.85ZM169.629 284.233H172.609V277.265L178.956 284.233H182.89L175.738 276.431L182.323 269.344H178.837L172.609 276.044V269.344H169.629V276.044L163.401 269.344H159.766L166.5 276.58L159.497 284.233H163.282L169.629 277.265V284.233ZM184.657 284.233H187.637L194.938 273.632V284.233H197.918V269.344H194.938L187.637 279.945V269.344H184.657V284.233ZM205.675 284.233H208.655V272.024H213.84V269.344H200.49V272.024H205.675V284.233ZM216.407 284.233H222.933C226.956 284.233 228.743 281.642 228.743 279.081C228.743 276.491 226.956 274.019 222.933 274.019H219.387V269.344H216.407V284.233ZM222.843 276.639C224.81 276.639 225.615 277.831 225.615 279.081C225.615 280.481 224.81 281.582 222.992 281.582H219.387V276.639H222.843ZM238.348 284.233H241.328L248.629 273.632V284.233H251.609V269.344H248.629L241.328 279.945V269.344H238.348V284.233ZM269.418 284.53C274.036 284.53 277.314 281.106 277.314 276.788C277.314 272.471 274.036 269.046 269.418 269.046C264.799 269.046 261.521 272.471 261.521 276.788C261.521 281.106 264.799 284.53 269.418 284.53ZM269.418 281.85C266.587 281.85 264.65 279.617 264.65 276.788C264.65 273.96 266.587 271.726 269.418 271.726C272.249 271.726 274.185 273.96 274.185 276.788C274.185 279.617 272.249 281.85 269.418 281.85ZM283.576 284.233H286.556V272.024H291.741V269.344H278.391V272.024H283.576V284.233ZM294.308 284.233H297.288V277.235L303.933 284.233H307.956L300.476 276.431L307.39 269.344H303.814L297.288 276.044V269.344H294.308V284.233ZM312.595 269.344H309.615V290.188H312.595V280.898C313.668 283.101 315.694 284.53 318.406 284.53C322.548 284.53 325.259 281.106 325.259 276.788C325.259 272.471 322.488 269.046 318.406 269.046C315.694 269.046 313.668 270.476 312.595 272.679V269.344ZM317.363 271.726C320.164 271.726 322.131 273.692 322.131 276.788C322.131 279.885 320.164 281.85 317.363 281.85C314.681 281.85 312.595 279.796 312.595 276.788C312.595 273.811 314.681 271.726 317.363 271.726ZM328.123 284.233H334.649C338.672 284.233 340.46 281.642 340.46 279.081C340.46 276.491 338.672 274.019 334.649 274.019H331.103V269.344H328.123V284.233ZM342.456 284.233H345.436V269.344H342.456V284.233ZM334.559 276.639C336.526 276.639 337.331 277.831 337.331 279.081C337.331 280.481 336.526 281.582 334.708 281.582H331.103V276.639H334.559ZM349.192 284.233H356.314C360.396 284.233 361.708 282.089 361.708 280.064C361.708 278.069 360.367 276.937 358.191 276.58C360.099 276.074 361.052 274.764 361.052 273.215C361.052 270.744 359.234 269.344 355.927 269.344H349.192V284.233ZM355.778 275.538H352.112V271.875H355.778C357.327 271.875 357.983 272.679 357.983 273.721C357.983 274.734 357.327 275.538 355.778 275.538ZM355.986 277.92C357.923 277.92 358.579 278.813 358.579 279.766C358.579 280.838 357.923 281.702 356.135 281.702H352.112V277.92H355.986ZM373.943 274.912V275.151C367.119 275.151 363.99 276.967 363.99 280.362C363.99 283.041 365.748 284.53 368.549 284.53C371.618 284.53 373.198 282.833 373.943 280.659V284.233H376.923V275.21C376.923 271.071 374.747 269.046 370.725 269.046C367.029 269.046 364.705 270.863 364.228 274.317H367.208C367.447 272.769 368.639 271.726 370.725 271.726C372.751 271.726 373.943 272.769 373.943 274.912ZM367.119 280.213C367.119 278.426 369.026 277.295 373.943 277.295C373.943 279.855 372.304 281.97 369.235 281.97C367.923 281.97 367.119 281.344 367.119 280.213ZM384.236 284.233H387.216V272.024H392.401V269.344H379.051V272.024H384.236V284.233ZM394.967 284.233H401.493C405.516 284.233 407.304 281.642 407.304 279.081C407.304 276.491 405.516 274.019 401.493 274.019H397.947V269.344H394.967V284.233ZM401.404 276.639C403.371 276.639 404.175 277.831 404.175 279.081C404.175 280.481 403.371 281.582 401.553 281.582H397.947V276.639H401.404ZM416.909 284.233H419.889V277.979H426.891V284.233H429.871V269.344H426.891V275.3H419.889V269.344H416.909V284.233ZM440.615 284.53C445.234 284.53 448.512 281.106 448.512 276.788C448.512 272.471 445.234 269.046 440.615 269.046C435.996 269.046 432.719 272.471 432.719 276.788C432.719 281.106 435.996 284.53 440.615 284.53ZM440.615 281.85C437.784 281.85 435.847 279.617 435.847 276.788C435.847 273.96 437.784 271.726 440.615 271.726C443.446 271.726 445.383 273.96 445.383 276.788C445.383 279.617 443.446 281.85 440.615 281.85ZM451.365 284.233H458.486C462.569 284.233 463.88 282.089 463.88 280.064C463.88 278.069 462.539 276.937 460.364 276.58C462.271 276.074 463.224 274.764 463.224 273.215C463.224 270.744 461.407 269.344 458.099 269.344H451.365V284.233ZM457.95 275.538H454.285V271.875H457.95C459.5 271.875 460.155 272.679 460.155 273.721C460.155 274.734 459.5 275.538 457.95 275.538ZM458.159 277.92C460.096 277.92 460.751 278.813 460.751 279.766C460.751 280.838 460.096 281.702 458.308 281.702H454.285V277.92H458.159ZM473.615 284.53C478.234 284.53 481.512 281.106 481.512 276.788C481.512 272.471 478.234 269.046 473.615 269.046C468.996 269.046 465.718 272.471 465.718 276.788C465.718 281.106 468.996 284.53 473.615 284.53ZM473.615 281.85C470.784 281.85 468.847 279.617 468.847 276.788C468.847 273.96 470.784 271.726 473.615 271.726C476.446 271.726 478.383 273.96 478.383 276.788C478.383 279.617 476.446 281.85 473.615 281.85ZM491.218 281.94C488.476 281.94 486.748 280.034 486.539 277.324H498.876C498.936 277.027 498.966 276.699 498.966 276.401C498.966 272.322 495.807 269.046 491.218 269.046C486.629 269.046 483.47 272.441 483.47 276.788C483.47 281.285 486.629 284.53 491.218 284.53C495.062 284.53 497.535 282.773 498.399 279.617H495.539C494.943 280.987 493.632 281.94 491.218 281.94ZM491.218 271.637C493.632 271.637 495.241 273.126 495.777 275.24H486.688C487.255 273.066 488.953 271.637 491.218 271.637Z" fill="#191919"/>
</g>
</svg>
