<svg width="68" height="68" viewBox="0 0 68 68" fill="none" xmlns="http://www.w3.org/2000/svg">
<g id="1920/icon" clip-path="url(#clip0_2_290)">
<path id="Vector" d="M46.5263 6.10352e-05H21.4737C9.61407 6.10352e-05 -3.05176e-05 9.61416 -3.05176e-05 21.4737V46.5264C-3.05176e-05 58.386 9.61407 68.0001 21.4737 68.0001H46.5263C58.3859 68.0001 68 58.386 68 46.5264V21.4737C68 9.61416 58.3859 6.10352e-05 46.5263 6.10352e-05Z" fill="#F8F8F8"/>
<g id="Group">
<path id="Vector_2" d="M40.858 48.2593C40.858 48.786 40.6531 49.3205 40.2536 49.7201C39.4537 50.5199 38.1311 50.5199 37.3313 49.7201L22.3642 34.753C21.9779 34.3667 21.7597 33.8217 21.7597 33.2922C21.7597 32.7677 21.9506 32.245 22.3642 31.8314L37.3121 16.8848C38.1002 16.0475 39.454 16.0367 40.2538 16.8366C41.0537 17.6364 41.0537 18.959 40.2538 19.7589L40.2533 19.7594L26.7204 33.2655L40.254 46.799C40.6543 47.1993 40.8584 47.7338 40.8584 48.2598L40.858 48.2593Z" fill="#8E8E8E"/>
</g>
</g>
<defs>
<clipPath id="clip0_2_290">
<rect width="68" height="68" fill="white"/>
</clipPath>
</defs>
</svg>
