<svg width="495" height="74" viewBox="0 0 495 74" fill="none" xmlns="http://www.w3.org/2000/svg">
<g id="logo">
<path id="Vector" d="M37.8009 9.31792C37.8009 5.05106 32.9472 1.22606 27.5539 0C27.5539 0.049056 26.6715 3.38383 26.6715 6.71862C26.6715 12.7017 29.7605 14.4671 32.6531 14.4671C35.7417 14.4671 37.8009 12.4074 37.8009 9.31792ZM22.4551 44.3825C16.3758 44.3825 10.0018 45.9024 6.71691 49.5315C4.75585 45.8535 4.02019 42.1265 4.02019 38.252C4.02019 27.8062 10.8352 18.0962 23.926 11.9169L22.2589 8.38584C6.91308 15.3497 0 26.8255 0 38.252C0 43.6465 1.27479 48.8451 4.65776 53.7981C4.55968 54.3378 4.51063 54.877 4.51063 55.4657C4.51063 59.634 7.10925 62.6258 12.5023 62.6258C18.1403 62.6258 22.9455 58.7514 25.8381 51.101H21.6217C19.5135 56.2012 16.0814 58.8495 12.5023 58.8495C9.70788 58.8495 8.48178 57.5744 8.48178 55.4657C8.48178 51.8366 12.8943 48.1584 22.5041 48.1584C27.1128 48.1584 32.702 48.9433 37.3599 50.5124L36.6732 56.937H40.5957L44.2729 22.3628C45.9887 21.9212 49.0775 21.6272 51.1366 21.6272C59.7659 21.6272 62.1193 24.6677 62.1193 27.9534C62.1193 32.318 58.5405 35.3588 49.9603 36.3396L51.2347 24.5205L47.3126 24.6677L43.8805 56.937H47.8027L49.5188 40.6062C52.8037 39.7725 55.8438 39.331 58.4911 39.331C64.2764 39.331 68.1989 41.685 69.3753 45.167C68.9834 45.1179 68.591 45.1179 68.1989 45.1179C57.0692 45.1179 52.1174 50.8067 52.1174 55.8087C52.1174 60.2228 55.4023 62.6745 59.6678 62.6745C65.8942 62.6745 72.6115 57.6725 73.5426 49.4825C76.3864 50.1203 79.1322 51.2969 81.5837 52.7683C74.8669 62.7236 61.2858 69.2463 45.0083 69.2463C37.0166 69.2463 27.0148 67.5297 20.3959 62.9688L18.3368 66.2546C24.8575 70.9626 35.3004 73.1694 45.0083 73.1694C71.4348 73.1694 90.0655 57.5744 90.0655 38.3011C90.0655 18.0472 69.8167 3.4329 45.0572 3.4329C43.5375 3.4329 42.459 3.48195 40.9878 3.58006L41.3804 7.45413C42.5567 7.40507 43.8316 7.356 45.0083 7.356C67.1204 7.356 86.045 20.6955 86.045 38.3011C86.045 42.2733 85.1629 46.0496 83.4957 49.4825C80.9952 47.8644 77.3673 46.393 73.4939 45.6576C72.6605 40.9495 68.7871 36.928 61.2858 36.1434C64.2766 34.4268 66.1395 31.3863 66.1395 27.9534C66.1395 21.9212 61.8743 17.8509 51.1366 17.8509C49.2247 17.8509 46.5283 18.0472 44.714 18.3906L45.1553 14.2709L41.1841 13.192L37.7518 19.9596C32.212 21.5782 26.8185 23.9322 23.6321 25.7466L25.3966 29.1304C27.75 27.9044 31.3786 26.2371 35.3497 24.8148L25.4461 44.4801C24.4161 44.4314 23.4356 44.3825 22.4551 44.3825ZM40.2037 23.2945H40.3015L37.7518 46.7363C35.2026 45.9515 32.2607 45.3141 29.3191 44.8726L40.2037 23.2945ZM56.0886 55.76C56.0886 52.6702 60.0111 48.8452 68.1989 48.8452C68.6891 48.8452 69.1795 48.8452 69.6695 48.8942C69.0323 54.8279 64.3255 58.8986 59.7168 58.8986C57.5105 58.8986 56.0886 57.8688 56.0886 55.76Z" fill="#44BA3B"/>
<path id="Vector_2" d="M478.341 48.3116C484.893 48.3116 488.391 43.7944 488.391 38.3226C477.894 38.3226 473.824 40.7403 473.824 44.5578C473.824 46.9756 475.542 48.3116 478.341 48.3116ZM481.522 26.4244C477.07 26.4244 474.526 28.6514 474.015 31.96H467.653C468.671 24.5794 473.634 20.6982 481.522 20.6982C490.108 20.6982 494.753 25.0246 494.753 33.8687V53.1474H488.391V45.5124C486.8 50.157 483.429 53.7834 476.88 53.7834C470.898 53.7834 467.145 50.6022 467.145 44.876C467.145 37.6225 473.824 33.7417 488.391 33.7417V33.2323C488.391 28.6514 485.847 26.4244 481.522 26.4244ZM456.268 41.3767H462.63C461.103 49.457 455.569 53.7834 447.491 53.7834C437.631 53.7834 430.953 46.4666 430.953 37.2409C430.953 28.0788 437.631 20.6982 447.364 20.6982C455.76 20.6982 461.165 25.3428 462.374 32.7871H456.016C454.807 28.7151 452.072 26.4244 447.364 26.4244C441.51 26.4244 437.631 30.7513 437.631 37.2409C437.631 43.7944 441.64 48.0572 447.364 48.0572C452.072 48.0572 455.123 45.8302 456.268 41.3767ZM400.354 65.8723V60.1461C407.034 60.1461 408.308 58.9373 410.344 53.2745L397.494 21.3346H404.298L413.777 45.0668L423.129 21.3346H429.297L415.813 54.8017C412.377 63.3909 409.898 65.8723 400.354 65.8723ZM368.425 21.3346H374.784V35.6505L388.718 21.3346H396.35L381.593 36.4775L397.559 53.1474H388.969L374.784 38.1951V53.1474H368.425V21.3346ZM341.707 39.6587V47.7393H350.296C354.111 47.7393 355.511 45.894 355.511 43.6036C355.511 41.5675 354.111 39.6587 349.976 39.6587H341.707ZM354.24 30.6876C354.24 28.4606 352.841 26.7426 349.533 26.7426H341.707V34.5687H349.533C352.841 34.5687 354.24 32.8509 354.24 30.6876ZM335.474 21.3346H349.851C356.91 21.3346 360.789 24.325 360.789 29.6059C360.789 32.9145 358.757 35.7137 354.684 36.7953C359.328 37.5591 362.189 39.9769 362.189 44.2396C362.189 48.5662 359.393 53.1474 350.678 53.1474H335.474V21.3346ZM294.448 48.3116C300.998 48.3116 304.499 43.7944 304.499 38.3226C294.002 38.3226 289.931 40.7403 289.931 44.5578C289.931 46.9756 291.649 48.3116 294.448 48.3116ZM297.626 26.4244C293.175 26.4244 290.631 28.6514 290.122 31.96H283.761C284.78 24.5794 289.742 20.6982 297.626 20.6982C306.215 20.6982 310.857 25.0246 310.857 33.8687V53.1474H304.499V45.5124C302.908 50.157 299.537 53.7834 292.984 53.7834C287.003 53.7834 283.25 50.6022 283.25 44.876C283.25 37.6225 289.931 33.7417 304.499 33.7417V33.2323C304.499 28.6514 301.951 26.4244 297.626 26.4244ZM252.719 21.3346H259.08V35.6505L273.013 21.3346H280.645L265.888 36.4775L281.854 53.1474H273.264L259.08 38.1951V53.1474H252.719V21.3346ZM220.025 65.8723V60.1461C226.703 60.1461 227.976 58.9373 230.011 53.2745L217.162 21.3346H223.969L233.446 45.0668L242.796 21.3346H248.966L235.481 54.8017C232.046 63.3909 229.566 65.8723 220.025 65.8723ZM208.511 37.8773C208.511 32.0237 204.313 27.7606 198.334 27.7606C192.418 27.7606 188.22 32.0237 188.22 37.8773C188.22 43.8582 192.418 48.0572 198.334 48.0572C204.313 48.0572 208.511 43.8582 208.511 37.8773ZM184.339 46.594C182.241 43.3492 181.541 39.0223 181.541 33.5505C181.541 18.1531 187.138 11.5363 200.497 9.94541C204.821 9.43646 207.112 8.9275 207.557 7.33691H213.536C212.518 13.3814 208.065 14.7175 201.513 15.5445C190.7 16.9444 187.902 20.9527 187.647 30.4331C189.746 25.4702 194.644 22.0343 200.623 22.0343C209.655 22.0343 215.191 29.1604 215.191 37.8773C215.191 46.721 208.447 53.7834 198.334 53.7834C191.845 53.7834 186.821 50.5386 184.339 46.594ZM148.209 42.7128H154.825C155.589 46.0214 157.75 48.0572 162.585 48.0572C168.309 48.0572 169.773 46.0214 169.773 43.7307C169.773 41.5674 168.12 39.9132 163.731 39.9132H158.387V34.5051H162.776C167.293 34.5051 168.755 32.9779 168.755 30.6876C168.755 28.3332 166.784 26.4244 162.521 26.4244C157.75 26.4244 156.034 28.8425 155.461 31.451H148.846C149.482 24.8976 154.57 20.6982 162.648 20.6982C171.554 20.6982 175.434 24.834 175.434 29.6697C175.434 32.9145 173.463 35.6503 169.836 36.6047C173.908 37.4955 176.453 40.3585 176.453 43.9215C176.453 49.0754 172.381 53.7834 162.585 53.7834C153.298 53.7834 148.846 49.2662 148.209 42.7128ZM126.328 48.3116C132.88 48.3116 136.378 43.7944 136.378 38.3226C125.883 38.3226 121.812 40.7403 121.812 44.5578C121.812 46.9756 123.529 48.3116 126.328 48.3116ZM129.508 26.4244C125.056 26.4244 122.512 28.6514 122.003 31.96H115.642C116.659 24.5794 121.621 20.6982 129.508 20.6982C138.096 20.6982 142.739 25.0246 142.739 33.8687V53.1474H136.378V45.5124C134.788 50.157 131.417 53.7834 124.865 53.7834C118.885 53.7834 115.133 50.6022 115.133 44.876C115.133 37.6225 121.812 33.7417 136.378 33.7417V33.2323C136.378 28.6514 133.834 26.4244 129.508 26.4244Z" fill="#194025"/>
</g>
</svg>
