<svg width="68" height="68" viewBox="0 0 68 68" fill="none" xmlns="http://www.w3.org/2000/svg">
<g id="1920/icon" clip-path="url(#clip0_2_291)">
<path id="Vector" d="M46.5263 6.10352e-05H21.4737C9.6141 6.10352e-05 0 9.61416 0 21.4737V46.5264C0 58.386 9.6141 68.0001 21.4737 68.0001H46.5263C58.3859 68.0001 68 58.386 68 46.5264V21.4737C68 9.61416 58.3859 6.10352e-05 46.5263 6.10352e-05Z" fill="#F8F8F8"/>
<g id="Group">
<path id="Vector_2" d="M27.0824 48.2593C27.0824 48.786 27.2873 49.3205 27.6869 49.7201C28.4867 50.5199 29.8093 50.5199 30.6092 49.7201L45.5763 34.753C45.9626 34.3667 46.1807 33.8217 46.1807 33.2922C46.1807 32.7677 45.9898 32.245 45.5763 31.8314L30.6283 16.8848C29.8403 16.0475 28.4865 16.0367 27.6866 16.8366C26.8868 17.6364 26.8868 18.959 27.6866 19.7589L27.6871 19.7594L41.2201 33.2655L27.6865 46.799C27.2862 47.1993 27.082 47.7338 27.082 48.2598L27.0824 48.2593Z" fill="#8E8E8E"/>
</g>
</g>
<defs>
<clipPath id="clip0_2_291">
<rect width="68" height="68" fill="white"/>
</clipPath>
</defs>
</svg>
