<svg width="539" height="49" viewBox="0 0 539 49" fill="none" xmlns="http://www.w3.org/2000/svg">
<path id="Vector" d="M19.0795 48.9468C31.4318 48.9468 36.8695 42.3787 36.8695 35.2074C36.8695 29.7787 33.1101 25.3553 27.1354 24.0149C31.7003 22.4734 35.0569 18.184 35.0569 13.0904C35.0569 6.45531 29.7535 0.691483 18.6096 0.691483C8.06983 0.691483 1.35662 6.38829 0.685298 14.967H8.0027C9.14394 10.4766 12.0978 7.0585 18.4753 7.0585C24.7857 7.0585 27.6724 10.0745 27.6724 13.6936C27.6724 18.3181 25.1214 21.4681 18.7438 21.4681H12.4334V27.8351H19.0795C26.6654 27.8351 29.485 30.9181 29.485 35.0064C29.485 39.0277 25.9941 42.5798 19.0795 42.5798C11.8292 42.5798 8.13696 39.2957 7.33138 33.934H0.0139771C0.551034 42.6468 6.79432 48.9468 19.0795 48.9468ZM64.2175 27.2989V27.8351C48.8443 27.8351 41.7954 31.9234 41.7954 39.5638C41.7954 45.5957 45.7562 48.9468 52.0666 48.9468C58.9812 48.9468 62.5392 45.1266 64.2175 40.234V48.2766H70.9307V27.9691C70.9307 18.6532 66.0301 14.0957 56.9673 14.0957C48.6429 14.0957 43.4066 18.184 42.3325 25.9585H49.0457C49.5827 22.4734 52.268 20.1277 56.9673 20.1277C61.5322 20.1277 64.2175 22.4734 64.2175 27.2989ZM48.8443 39.2287C48.8443 35.2074 53.1407 32.6606 64.2175 32.6606C64.2175 38.4245 60.5253 43.183 53.6106 43.183C50.6568 43.183 48.8443 41.7755 48.8443 39.2287ZM94.2581 23.4787C94.2581 33.8 100.501 36.7489 108.356 36.7489C111.108 36.7489 113.659 36.4138 116.076 35.8106V48.2766H122.789V14.766H116.076V29.9798C113.928 30.516 111.78 30.717 109.766 30.717C104.059 30.717 100.971 28.9074 100.971 23.4787V14.766H94.2581V23.4787ZM140.245 48.2766H146.958V20.7979H158.639V14.766H128.564V20.7979H140.245V48.2766ZM178.886 48.9468C189.292 48.9468 196.676 41.2394 196.676 31.5213C196.676 21.8032 189.292 14.0957 178.886 14.0957C168.481 14.0957 161.096 21.8032 161.096 31.5213C161.096 41.2394 168.481 48.9468 178.886 48.9468ZM178.886 42.9149C172.509 42.9149 168.145 37.8883 168.145 31.5213C168.145 25.1542 172.509 20.1277 178.886 20.1277C185.264 20.1277 189.627 25.1542 189.627 31.5213C189.627 37.8883 185.264 42.9149 178.886 42.9149ZM218.967 48.2766H225.68V34.2021H241.456V48.2766H248.169V14.766H241.456V28.1702H225.68V14.766H218.967V48.2766ZM277.676 27.2989V27.8351C262.303 27.8351 255.254 31.9234 255.254 39.5638C255.254 45.5957 259.215 48.9468 265.526 48.9468C272.44 48.9468 275.998 45.1266 277.676 40.234V48.2766H284.39V27.9691C284.39 18.6532 279.489 14.0957 270.426 14.0957C262.102 14.0957 256.865 18.184 255.791 25.9585H262.505C263.042 22.4734 265.727 20.1277 270.426 20.1277C274.991 20.1277 277.676 22.4734 277.676 27.2989ZM262.303 39.2287C262.303 35.2074 266.6 32.6606 277.676 32.6606C277.676 38.4245 273.984 43.183 267.07 43.183C264.116 43.183 262.303 41.7755 262.303 39.2287ZM307.829 42.9149C301.788 42.9149 297.558 38.4245 297.558 31.5213C297.558 24.6851 301.653 20.1277 307.829 20.1277C312.797 20.1277 315.684 22.5404 316.959 26.8298H323.673C322.397 18.9883 316.691 14.0957 307.829 14.0957C297.558 14.0957 290.509 21.8702 290.509 31.5213C290.509 41.2394 297.558 48.9468 307.964 48.9468C316.49 48.9468 322.33 44.3894 323.941 35.8777H317.228C316.02 40.5691 312.797 42.9149 307.829 42.9149ZM349.638 31.5213C349.504 39.8319 348.564 42.2447 343.596 42.2447V48.9468C352.793 48.9468 355.613 44.3894 355.948 31.6553L356.217 20.7979H368.435V48.2766H375.148V14.766H349.974L349.638 31.5213ZM383.584 48.2766H390.297V34.0011H395.802C396.943 42.5128 403.657 48.9468 412.787 48.9468C422.789 48.9468 429.905 41.2394 429.905 31.5213C429.905 21.8032 422.789 14.0957 412.787 14.0957C404.059 14.0957 397.48 19.9936 396.004 27.9691H390.297V14.766H383.584V48.2766ZM412.787 42.9149C406.812 42.9149 402.717 37.8883 402.717 31.5213C402.717 25.1542 406.812 20.1277 412.787 20.1277C418.761 20.1277 422.856 25.1542 422.856 31.5213C422.856 37.8883 418.761 42.9149 412.787 42.9149ZM452.404 48.9468C463.078 48.9468 470.194 41.5074 470.194 32.1915C470.194 23.0096 464.353 15.5032 454.821 15.5032C448.51 15.5032 443.341 19.1223 441.126 24.35C441.394 14.3638 444.348 10.1415 455.76 8.66702C462.675 7.79574 467.374 6.38829 468.448 0.0212708H462.138C461.668 1.6968 459.251 2.23297 454.686 2.76914C440.589 4.44467 434.681 11.4149 434.681 27.634C434.681 33.3979 435.419 37.9553 437.635 41.3734C440.253 45.5287 445.556 48.9468 452.404 48.9468ZM452.404 42.9149C446.161 42.9149 441.73 38.4915 441.73 32.1915C441.73 26.0255 446.161 21.5351 452.404 21.5351C458.714 21.5351 463.145 26.0255 463.145 32.1915C463.145 38.4915 458.714 42.9149 452.404 42.9149ZM481.335 48.2766L490.666 36.4138H496.238V48.2766H502.952V14.766H488.25C479.187 14.766 475.159 20.3957 475.159 26.0255C475.159 30.784 478.046 34.2691 483.551 35.5425L473.279 48.2766H481.335ZM488.451 31.1862C484.02 31.1862 482.208 28.6394 482.208 26.0255C482.208 23.0766 484.02 20.7308 488.115 20.7308H496.238V31.1862H488.451ZM520.419 48.2766H527.133V20.7979H538.814V14.766H508.738V20.7979H520.419V48.2766Z" fill="#191919"/>
</svg>
